<svg width="251" height="138" viewBox="0 0 251 138" fill="none" xmlns="http://www.w3.org/2000/svg">
<path d="M0.539219 137V133.04L15.9792 114.04H0.659219V109H23.5392V112.96L8.09922 131.96H23.6992V137H0.539219ZM36.1608 137.4C34.0808 137.4 32.1874 136.92 30.4808 135.96C28.8008 135 27.4674 133.707 26.4808 132.08C25.4941 130.453 25.0008 128.627 25.0008 126.6C25.0008 124.573 25.4674 122.747 26.4008 121.12C27.3608 119.493 28.6541 118.2 30.2808 117.24C31.9074 116.28 33.7208 115.8 35.7208 115.8C37.7208 115.8 39.4941 116.293 41.0408 117.28C42.5874 118.267 43.8008 119.6 44.6808 121.28C45.5874 122.96 46.0408 124.867 46.0408 127V128.44H30.6008C30.8408 129.267 31.2274 130.013 31.7608 130.68C32.3208 131.347 33.0008 131.867 33.8008 132.24C34.6274 132.613 35.5074 132.8 36.4408 132.8C37.3741 132.8 38.2274 132.653 39.0008 132.36C39.8008 132.067 40.4808 131.653 41.0408 131.12L44.6408 134.4C43.3608 135.44 42.0408 136.2 40.6808 136.68C39.3474 137.16 37.8408 137.4 36.1608 137.4ZM30.5208 124.52H40.6408C40.4541 123.693 40.1074 122.973 39.6008 122.36C39.1208 121.72 38.5341 121.227 37.8408 120.88C37.1741 120.507 36.4274 120.32 35.6008 120.32C34.7474 120.32 33.9741 120.493 33.2808 120.84C32.5874 121.187 32.0008 121.68 31.5208 122.32C31.0674 122.933 30.7341 123.667 30.5208 124.52ZM59.7545 137.4C57.6745 137.4 55.7812 136.92 54.0745 135.96C52.3945 135 51.0612 133.707 50.0745 132.08C49.0879 130.453 48.5945 128.627 48.5945 126.6C48.5945 124.573 49.0612 122.747 49.9945 121.12C50.9545 119.493 52.2479 118.2 53.8745 117.24C55.5012 116.28 57.3145 115.8 59.3145 115.8C61.3145 115.8 63.0879 116.293 64.6345 117.28C66.1812 118.267 67.3945 119.6 68.2745 121.28C69.1812 122.96 69.6345 124.867 69.6345 127V128.44H54.1945C54.4345 129.267 54.8212 130.013 55.3545 130.68C55.9145 131.347 56.5945 131.867 57.3945 132.24C58.2212 132.613 59.1012 132.8 60.0345 132.8C60.9679 132.8 61.8212 132.653 62.5945 132.36C63.3945 132.067 64.0745 131.653 64.6345 131.12L68.2345 134.4C66.9545 135.44 65.6345 136.2 64.2745 136.68C62.9412 137.16 61.4345 137.4 59.7545 137.4ZM54.1145 124.52H64.2345C64.0479 123.693 63.7012 122.973 63.1945 122.36C62.7145 121.72 62.1279 121.227 61.4345 120.88C60.7679 120.507 60.0212 120.32 59.1945 120.32C58.3412 120.32 57.5679 120.493 56.8745 120.84C56.1812 121.187 55.5945 121.68 55.1145 122.32C54.6612 122.933 54.3279 123.667 54.1145 124.52ZM77.0955 137L70.8955 109H76.8555L80.6555 127.96L86.0955 109H91.5755L97.0155 127.92L100.815 109H106.575L100.415 137H94.2955L88.7755 117.48L83.1755 137H77.0955ZM118.152 137.4C116.072 137.4 114.192 136.92 112.512 135.96C110.832 135 109.499 133.707 108.512 132.08C107.525 130.453 107.032 128.627 107.032 126.6C107.032 124.573 107.512 122.747 108.472 121.12C109.459 119.467 110.792 118.16 112.472 117.2C114.179 116.24 116.072 115.76 118.152 115.76C120.232 115.76 122.112 116.24 123.792 117.2C125.499 118.16 126.832 119.467 127.792 121.12C128.779 122.747 129.272 124.573 129.272 126.6C129.272 128.627 128.779 130.453 127.792 132.08C126.832 133.707 125.512 135 123.832 135.96C122.152 136.92 120.259 137.4 118.152 137.4ZM118.152 132.64C119.245 132.64 120.219 132.373 121.072 131.84C121.952 131.307 122.645 130.587 123.152 129.68C123.685 128.747 123.952 127.72 123.952 126.6C123.952 125.453 123.685 124.427 123.152 123.52C122.645 122.613 121.952 121.893 121.072 121.36C120.219 120.8 119.245 120.52 118.152 120.52C117.085 120.52 116.112 120.8 115.232 121.36C114.352 121.893 113.659 122.613 113.152 123.52C112.645 124.427 112.392 125.453 112.392 126.6C112.392 127.72 112.645 128.747 113.152 129.68C113.659 130.587 114.352 131.307 115.232 131.84C116.112 132.373 117.085 132.64 118.152 132.64ZM132.64 137V116.16H138.12V118.48C138.787 117.573 139.587 116.88 140.52 116.4C141.454 115.92 142.507 115.68 143.68 115.68C144.694 115.707 145.454 115.867 145.96 116.16V120.96C145.56 120.773 145.12 120.64 144.64 120.56C144.16 120.453 143.667 120.4 143.16 120.4C142.094 120.4 141.12 120.667 140.24 121.2C139.36 121.733 138.654 122.493 138.12 123.48V137H132.64ZM148.969 137V109L154.449 108.08V124.92L163.449 116.16H169.649L159.809 125.72L170.249 137H163.249L154.449 127.48V137H148.969ZM174.512 137V120.72H169.872V116.16H174.512V114.16C174.512 111.813 175.192 110.027 176.552 108.8C177.912 107.547 179.872 106.92 182.432 106.92C182.992 106.92 183.566 106.947 184.152 107C184.739 107.053 185.246 107.147 185.672 107.28V111.88C185.166 111.773 184.726 111.693 184.352 111.64C183.979 111.587 183.566 111.56 183.112 111.56C182.072 111.56 181.286 111.787 180.752 112.24C180.246 112.667 179.992 113.347 179.992 114.28V116.16H185.672V120.72H179.992V137H174.512ZM188.539 137V109L194.019 108.08V137H188.539ZM208.465 137.4C206.385 137.4 204.505 136.92 202.825 135.96C201.145 135 199.811 133.707 198.825 132.08C197.838 130.453 197.345 128.627 197.345 126.6C197.345 124.573 197.825 122.747 198.785 121.12C199.771 119.467 201.105 118.16 202.785 117.2C204.491 116.24 206.385 115.76 208.465 115.76C210.545 115.76 212.425 116.24 214.105 117.2C215.811 118.16 217.145 119.467 218.105 121.12C219.091 122.747 219.585 124.573 219.585 126.6C219.585 128.627 219.091 130.453 218.105 132.08C217.145 133.707 215.825 135 214.145 135.96C212.465 136.92 210.571 137.4 208.465 137.4ZM208.465 132.64C209.558 132.64 210.531 132.373 211.385 131.84C212.265 131.307 212.958 130.587 213.465 129.68C213.998 128.747 214.265 127.72 214.265 126.6C214.265 125.453 213.998 124.427 213.465 123.52C212.958 122.613 212.265 121.893 211.385 121.36C210.531 120.8 209.558 120.52 208.465 120.52C207.398 120.52 206.425 120.8 205.545 121.36C204.665 121.893 203.971 122.613 203.465 123.52C202.958 124.427 202.705 125.453 202.705 126.6C202.705 127.72 202.958 128.747 203.465 129.68C203.971 130.587 204.665 131.307 205.545 131.84C206.425 132.373 207.398 132.64 208.465 132.64ZM226.522 137L220.802 116.16H226.002L229.442 129.6L233.602 116.16H238.202L242.322 129.64L245.762 116.16H250.882L245.122 137H239.882L235.842 123.68L231.802 137H226.522Z" fill="#36CFC9"/>
<path d="M125.497 0.214844L81 10.0923V20.7525L111.262 13.4428L81 57.7458V69.4034L125.497 52.2009V42.395L97.1958 52.2009L125.497 10.9466V0.214844Z" fill="#12C2C3"/>
<path d="M81 20.8445L111.37 31.1108L81 57.7509V69.4034L125.497 96.78V81.4292L92.1256 63.8533L125.497 34.8091V22.7883L81 10.3941V20.8445Z" fill="#88E7DE"/>
<path d="M125.497 0.214844V10.9466L158.577 19.0849L125.497 42.3029V52.2009L170 69.4034V58.1192L136.305 46.2774L170 22.0466V10.0923L125.497 0.214844Z" fill="#05979C"/>
<path d="M125.497 22.7883V34.625L156.914 24.3894L125.497 81.4292V96.78L170 69.2192V58.1192L141.996 74.3958L170 22.0466V10.3941L125.497 22.7883Z" fill="#36CFC9"/>
</svg>
