<svg id="Layer_1" data-name="Layer 1" xmlns="http://www.w3.org/2000/svg" viewBox="0 0 173.43 189.63"><defs><style>.cls-1{fill:#12c2c3;}.cls-2{fill:#88e7de;}.cls-3{fill:#05979c;}.cls-4{fill:#36cfc9;}</style></defs><polygon class="cls-1" points="86.71 0.42 0 19.73 0 40.57 58.97 26.28 0 112.89 0 135.68 86.71 102.05 86.71 82.88 31.56 102.05 86.71 21.4 86.71 0.42"/><polygon class="cls-2" points="0 40.75 59.18 60.82 0 112.9 0 135.68 86.71 189.2 86.71 159.19 21.68 124.83 86.71 68.05 86.71 44.55 0 20.32 0 40.75"/><polygon class="cls-3" points="86.71 0.42 86.71 21.4 151.17 37.31 86.71 82.7 86.71 102.05 173.43 135.68 173.43 113.62 107.77 90.47 173.43 43.1 173.43 19.73 86.71 0.42"/><polygon class="cls-4" points="86.71 44.55 86.71 67.69 147.93 47.68 86.71 159.19 86.71 189.2 173.43 135.32 173.43 113.62 118.86 145.44 173.43 43.1 173.43 20.32 86.71 44.55"/></svg>