<svg width="401" height="50" viewBox="0 0 401 50" fill="none" xmlns="http://www.w3.org/2000/svg">
<path d="M0.344 49V42.664L25.048 12.264H0.536V4.2H37.144V10.536L12.44 40.936H37.4V49H0.344ZM57.3385 49.64C54.0105 49.64 50.9812 48.872 48.2505 47.336C45.5625 45.8 43.4292 43.7307 41.8505 41.128C40.2718 38.5253 39.4825 35.6027 39.4825 32.36C39.4825 29.1173 40.2292 26.1947 41.7225 23.592C43.2585 20.9893 45.3278 18.92 47.9305 17.384C50.5332 15.848 53.4345 15.08 56.6345 15.08C59.8345 15.08 62.6718 15.8693 65.1465 17.448C67.6212 19.0267 69.5625 21.16 70.9705 23.848C72.4212 26.536 73.1465 29.5867 73.1465 33V35.304H48.4425C48.8265 36.6267 49.4452 37.8213 50.2985 38.888C51.1945 39.9547 52.2825 40.7867 53.5625 41.384C54.8852 41.9813 56.2932 42.28 57.7865 42.28C59.2798 42.28 60.6452 42.0453 61.8825 41.576C63.1625 41.1067 64.2505 40.4453 65.1465 39.592L70.9065 44.84C68.8585 46.504 66.7465 47.72 64.5705 48.488C62.4372 49.256 60.0265 49.64 57.3385 49.64ZM48.3145 29.032H64.5065C64.2078 27.7093 63.6532 26.5573 62.8425 25.576C62.0745 24.552 61.1358 23.7627 60.0265 23.208C58.9598 22.6107 57.7652 22.312 56.4425 22.312C55.0772 22.312 53.8398 22.5893 52.7305 23.144C51.6212 23.6987 50.6825 24.488 49.9145 25.512C49.1892 26.4933 48.6558 27.6667 48.3145 29.032ZM95.0885 49.64C91.7605 49.64 88.7312 48.872 86.0005 47.336C83.3125 45.8 81.1792 43.7307 79.6005 41.128C78.0218 38.5253 77.2325 35.6027 77.2325 32.36C77.2325 29.1173 77.9792 26.1947 79.4725 23.592C81.0085 20.9893 83.0778 18.92 85.6805 17.384C88.2832 15.848 91.1845 15.08 94.3845 15.08C97.5845 15.08 100.422 15.8693 102.897 17.448C105.371 19.0267 107.313 21.16 108.721 23.848C110.171 26.536 110.897 29.5867 110.897 33V35.304H86.1925C86.5765 36.6267 87.1952 37.8213 88.0485 38.888C88.9445 39.9547 90.0325 40.7867 91.3125 41.384C92.6352 41.9813 94.0432 42.28 95.5365 42.28C97.0298 42.28 98.3952 42.0453 99.6325 41.576C100.913 41.1067 102.001 40.4453 102.897 39.592L108.657 44.84C106.609 46.504 104.497 47.72 102.321 48.488C100.187 49.256 97.7765 49.64 95.0885 49.64ZM86.0645 29.032H102.257C101.958 27.7093 101.403 26.5573 100.593 25.576C99.8245 24.552 98.8858 23.7627 97.7765 23.208C96.7098 22.6107 95.5152 22.312 94.1925 22.312C92.8272 22.312 91.5898 22.5893 90.4805 23.144C89.3712 23.6987 88.4325 24.488 87.6645 25.512C86.9392 26.4933 86.4058 27.6667 86.0645 29.032ZM122.834 49L112.914 4.2H122.45L128.53 34.536L137.234 4.2H146.002L154.706 34.472L160.786 4.2H170.002L160.146 49H150.354L141.522 17.768L132.562 49H122.834ZM188.525 49.64C185.197 49.64 182.189 48.872 179.501 47.336C176.813 45.8 174.679 43.7307 173.101 41.128C171.522 38.5253 170.733 35.6027 170.733 32.36C170.733 29.1173 171.501 26.1947 173.036 23.592C174.615 20.9467 176.749 18.856 179.437 17.32C182.167 15.784 185.197 15.016 188.525 15.016C191.853 15.016 194.861 15.784 197.549 17.32C200.279 18.856 202.413 20.9467 203.949 23.592C205.527 26.1947 206.317 29.1173 206.317 32.36C206.317 35.6027 205.527 38.5253 203.949 41.128C202.413 43.7307 200.301 45.8 197.613 47.336C194.925 48.872 191.895 49.64 188.525 49.64ZM188.525 42.024C190.274 42.024 191.831 41.5973 193.197 40.744C194.605 39.8907 195.714 38.7387 196.525 37.288C197.378 35.7947 197.805 34.152 197.805 32.36C197.805 30.5253 197.378 28.8827 196.525 27.432C195.714 25.9813 194.605 24.8293 193.197 23.976C191.831 23.08 190.274 22.632 188.525 22.632C186.818 22.632 185.261 23.08 183.853 23.976C182.445 24.8293 181.335 25.9813 180.525 27.432C179.714 28.8827 179.309 30.5253 179.309 32.36C179.309 34.152 179.714 35.7947 180.525 37.288C181.335 38.7387 182.445 39.8907 183.853 40.744C185.261 41.5973 186.818 42.024 188.525 42.024ZM211.706 49V15.656H220.474V19.368C221.541 17.9173 222.821 16.808 224.314 16.04C225.807 15.272 227.493 14.888 229.37 14.888C230.991 14.9307 232.207 15.1867 233.018 15.656V23.336C232.378 23.0373 231.674 22.824 230.906 22.696C230.138 22.5253 229.349 22.44 228.538 22.44C226.831 22.44 225.274 22.8667 223.866 23.72C222.458 24.5733 221.327 25.7893 220.474 27.368V49H211.706ZM237.831 49V4.2L246.599 2.728V29.672L260.999 15.656H270.919L255.175 30.952L271.879 49H260.679L246.599 33.768V49H237.831ZM278.701 49V22.952H271.277V15.656H278.701V12.456C278.701 8.70133 279.789 5.84266 281.965 3.88C284.141 1.87466 287.277 0.871998 291.373 0.871998C292.269 0.871998 293.186 0.914664 294.125 0.999996C295.064 1.08533 295.874 1.23466 296.557 1.448V8.808C295.746 8.63733 295.042 8.50933 294.445 8.424C293.848 8.33867 293.186 8.296 292.461 8.296C290.797 8.296 289.538 8.65866 288.685 9.384C287.874 10.0667 287.469 11.1547 287.469 12.648V15.656H296.557V22.952H287.469V49H278.701ZM301.144 49V4.2L309.912 2.728V49H301.144ZM333.025 49.64C329.697 49.64 326.689 48.872 324.001 47.336C321.313 45.8 319.179 43.7307 317.601 41.128C316.022 38.5253 315.233 35.6027 315.233 32.36C315.233 29.1173 316.001 26.1947 317.536 23.592C319.115 20.9467 321.249 18.856 323.937 17.32C326.667 15.784 329.697 15.016 333.025 15.016C336.353 15.016 339.361 15.784 342.049 17.32C344.779 18.856 346.913 20.9467 348.449 23.592C350.027 26.1947 350.817 29.1173 350.817 32.36C350.817 35.6027 350.027 38.5253 348.449 41.128C346.913 43.7307 344.801 45.8 342.113 47.336C339.425 48.872 336.395 49.64 333.025 49.64ZM333.025 42.024C334.774 42.024 336.331 41.5973 337.697 40.744C339.105 39.8907 340.214 38.7387 341.025 37.288C341.878 35.7947 342.305 34.152 342.305 32.36C342.305 30.5253 341.878 28.8827 341.025 27.432C340.214 25.9813 339.105 24.8293 337.697 23.976C336.331 23.08 334.774 22.632 333.025 22.632C331.318 22.632 329.761 23.08 328.353 23.976C326.945 24.8293 325.835 25.9813 325.025 27.432C324.214 28.8827 323.809 30.5253 323.809 32.36C323.809 34.152 324.214 35.7947 325.025 37.288C325.835 38.7387 326.945 39.8907 328.353 40.744C329.761 41.5973 331.318 42.024 333.025 42.024ZM361.917 49L352.765 15.656H361.085L366.589 37.16L373.245 15.656H380.605L387.197 37.224L392.701 15.656H400.893L391.677 49H383.293L376.829 27.688L370.365 49H361.917Z" fill="#FFC53D"/>
</svg>
