<svg width="511" height="97" viewBox="0 0 511 97" fill="none" xmlns="http://www.w3.org/2000/svg">
<path d="M110.344 68V61.664L135.048 31.264H110.536V23.2H147.144V29.536L122.44 59.936H147.4V68H110.344ZM167.339 68.64C164.011 68.64 160.981 67.872 158.251 66.336C155.563 64.8 153.429 62.7307 151.851 60.128C150.272 57.5253 149.483 54.6027 149.483 51.36C149.483 48.1173 150.229 45.1947 151.723 42.592C153.259 39.9893 155.328 37.92 157.931 36.384C160.533 34.848 163.435 34.08 166.635 34.08C169.835 34.08 172.672 34.8693 175.147 36.448C177.621 38.0267 179.563 40.16 180.971 42.848C182.421 45.536 183.147 48.5867 183.147 52V54.304H158.443C158.827 55.6267 159.445 56.8213 160.299 57.888C161.195 58.9547 162.283 59.7867 163.562 60.384C164.885 60.9813 166.293 61.28 167.787 61.28C169.28 61.28 170.645 61.0453 171.883 60.576C173.163 60.1067 174.251 59.4453 175.147 58.592L180.907 63.84C178.859 65.504 176.747 66.72 174.571 67.488C172.437 68.256 170.027 68.64 167.339 68.64ZM158.315 48.032H174.507C174.208 46.7093 173.653 45.5573 172.843 44.576C172.075 43.552 171.136 42.7627 170.027 42.208C168.96 41.6107 167.765 41.312 166.443 41.312C165.077 41.312 163.84 41.5893 162.731 42.144C161.621 42.6987 160.683 43.488 159.915 44.512C159.189 45.4933 158.656 46.6667 158.315 48.032ZM205.089 68.64C201.761 68.64 198.731 67.872 196.001 66.336C193.313 64.8 191.179 62.7307 189.601 60.128C188.022 57.5253 187.233 54.6027 187.233 51.36C187.233 48.1173 187.979 45.1947 189.473 42.592C191.009 39.9893 193.078 37.92 195.681 36.384C198.283 34.848 201.185 34.08 204.385 34.08C207.585 34.08 210.422 34.8693 212.897 36.448C215.371 38.0267 217.313 40.16 218.721 42.848C220.171 45.536 220.897 48.5867 220.897 52V54.304H196.193C196.577 55.6267 197.195 56.8213 198.049 57.888C198.945 58.9547 200.033 59.7867 201.312 60.384C202.635 60.9813 204.043 61.28 205.537 61.28C207.03 61.28 208.395 61.0453 209.633 60.576C210.913 60.1067 212.001 59.4453 212.897 58.592L218.657 63.84C216.609 65.504 214.497 66.72 212.321 67.488C210.187 68.256 207.777 68.64 205.089 68.64ZM196.065 48.032H212.257C211.958 46.7093 211.403 45.5573 210.593 44.576C209.825 43.552 208.886 42.7627 207.777 42.208C206.71 41.6107 205.515 41.312 204.193 41.312C202.827 41.312 201.59 41.5893 200.481 42.144C199.371 42.6987 198.433 43.488 197.665 44.512C196.939 45.4933 196.406 46.6667 196.065 48.032ZM232.834 68L222.914 23.2H232.45L238.53 53.536L247.234 23.2H256.002L264.706 53.472L270.786 23.2H280.002L270.146 68H260.354L251.522 36.768L242.562 68H232.834ZM298.525 68.64C295.197 68.64 292.189 67.872 289.501 66.336C286.813 64.8 284.679 62.7307 283.101 60.128C281.522 57.5253 280.733 54.6027 280.733 51.36C280.733 48.1173 281.501 45.1947 283.036 42.592C284.615 39.9467 286.749 37.856 289.437 36.32C292.167 34.784 295.197 34.016 298.525 34.016C301.853 34.016 304.861 34.784 307.549 36.32C310.279 37.856 312.413 39.9467 313.949 42.592C315.527 45.1947 316.317 48.1173 316.317 51.36C316.317 54.6027 315.527 57.5253 313.949 60.128C312.413 62.7307 310.301 64.8 307.613 66.336C304.925 67.872 301.895 68.64 298.525 68.64ZM298.525 61.024C300.274 61.024 301.831 60.5973 303.197 59.744C304.605 58.8907 305.714 57.7387 306.525 56.288C307.378 54.7947 307.805 53.152 307.805 51.36C307.805 49.5253 307.378 47.8827 306.525 46.432C305.714 44.9813 304.605 43.8293 303.197 42.976C301.831 42.08 300.274 41.632 298.525 41.632C296.818 41.632 295.261 42.08 293.853 42.976C292.445 43.8293 291.335 44.9813 290.525 46.432C289.714 47.8827 289.309 49.5253 289.309 51.36C289.309 53.152 289.714 54.7947 290.525 56.288C291.335 57.7387 292.445 58.8907 293.853 59.744C295.261 60.5973 296.818 61.024 298.525 61.024ZM321.706 68V34.656H330.474V38.368C331.541 36.9173 332.821 35.808 334.314 35.04C335.807 34.272 337.493 33.888 339.37 33.888C340.991 33.9307 342.207 34.1867 343.018 34.656V42.336C342.378 42.0373 341.674 41.824 340.906 41.696C340.138 41.5253 339.349 41.44 338.538 41.44C336.831 41.44 335.274 41.8667 333.866 42.72C332.458 43.5733 331.327 44.7893 330.474 46.368V68H321.706ZM347.831 68V23.2L356.599 21.728V48.672L370.999 34.656H380.919L365.175 49.952L381.879 68H370.679L356.599 52.768V68H347.831ZM388.701 68V41.952H381.277V34.656H388.701V31.456C388.701 27.7013 389.789 24.8427 391.965 22.88C394.141 20.8747 397.277 19.872 401.373 19.872C402.269 19.872 403.186 19.9147 404.125 20C405.064 20.0853 405.874 20.2347 406.557 20.448V27.808C405.746 27.6373 405.042 27.5093 404.445 27.424C403.848 27.3387 403.186 27.296 402.461 27.296C400.797 27.296 399.538 27.6587 398.685 28.384C397.874 29.0667 397.469 30.1547 397.469 31.648V34.656H406.557V41.952H397.469V68H388.701ZM411.144 68V23.2L419.912 21.728V68H411.144ZM443.025 68.64C439.697 68.64 436.689 67.872 434.001 66.336C431.313 64.8 429.179 62.7307 427.601 60.128C426.022 57.5253 425.233 54.6027 425.233 51.36C425.233 48.1173 426.001 45.1947 427.536 42.592C429.115 39.9467 431.249 37.856 433.937 36.32C436.667 34.784 439.697 34.016 443.025 34.016C446.353 34.016 449.361 34.784 452.049 36.32C454.779 37.856 456.913 39.9467 458.449 42.592C460.027 45.1947 460.817 48.1173 460.817 51.36C460.817 54.6027 460.027 57.5253 458.449 60.128C456.913 62.7307 454.801 64.8 452.113 66.336C449.425 67.872 446.395 68.64 443.025 68.64ZM443.025 61.024C444.774 61.024 446.331 60.5973 447.697 59.744C449.105 58.8907 450.214 57.7387 451.025 56.288C451.878 54.7947 452.305 53.152 452.305 51.36C452.305 49.5253 451.878 47.8827 451.025 46.432C450.214 44.9813 449.105 43.8293 447.697 42.976C446.331 42.08 444.774 41.632 443.025 41.632C441.318 41.632 439.761 42.08 438.353 42.976C436.945 43.8293 435.835 44.9813 435.025 46.432C434.214 47.8827 433.809 49.5253 433.809 51.36C433.809 53.152 434.214 54.7947 435.025 56.288C435.835 57.7387 436.945 58.8907 438.353 59.744C439.761 60.5973 441.318 61.024 443.025 61.024ZM471.917 68L462.765 34.656H471.085L476.589 56.16L483.245 34.656H490.605L497.197 56.224L502.701 34.656H510.893L501.677 68H493.293L486.829 46.688L480.365 68H471.917Z" fill="#36CFC9"/>
<path d="M44.4974 0.214844L0 10.0923V20.7525L30.262 13.4428L0 57.7458V69.4034L44.4974 52.2009V42.395L16.1958 52.2009L44.4974 10.9466V0.214844Z" fill="#12C2C3"/>
<path d="M0 20.8445L30.3697 31.1108L0 57.7509V69.4034L44.4974 96.78V81.4292L11.1256 63.8533L44.4974 34.8091V22.7883L0 10.3941V20.8445Z" fill="#88E7DE"/>
<path d="M44.4974 0.214844V10.9466L77.5767 19.0849L44.4974 42.3029V52.2009L89 69.4034V58.1192L55.3049 46.2774L89 22.0466V10.0923L44.4974 0.214844Z" fill="#05979C"/>
<path d="M44.4974 22.7883V34.625L75.914 24.3894L44.4974 81.4292V96.78L89 69.2192V58.1192L60.996 74.3958L89 22.0466V10.3941L44.4974 22.7883Z" fill="#36CFC9"/>
</svg>
