<svg id="Layer_1" data-name="Layer 1" xmlns="http://www.w3.org/2000/svg" xmlns:xlink="http://www.w3.org/1999/xlink" viewBox="0 0 417.2 68.82"><defs><style>.cls-1{fill:none;}.cls-2{clip-path:url(#clip-path);}.cls-3{fill:#12c2c3;}</style><clipPath id="clip-path" transform="translate(-0.13 -0.03)"><rect class="cls-1" x="0.13" y="0.03" width="417.2" height="68.82"/></clipPath></defs><g class="cls-2"><path class="cls-3" d="M58.34,68.48a50.62,50.62,0,0,0,0-12.3H18.12L57.84,12.63a63.08,63.08,0,0,0,0-12.29H1.59a61.05,61.05,0,0,0,0,12.09H40.1L.58,56.18a42.25,42.25,0,0,0,0,12.3Zm30.38,0V.34A88.22,88.22,0,0,0,74,.34V68.48a90.42,90.42,0,0,0,14.72,0m69.24,0a47.39,47.39,0,0,0,0-11.9h-37.2V.34a88.08,88.08,0,0,0-14.71,0V68.48Zm29.14-11.9V40h36.69a45.74,45.74,0,0,0,0-11.69H187.1v-16h37.7a47.31,47.31,0,0,0,0-11.89H172.38V68.48H224.8a47.39,47.39,0,0,0,0-11.9Zm102.2-9.27c0,7.36-6.15,8.67-13.61,8.67H255.63V12.63h20.06c7.46,0,13.61,1.21,13.61,8.87ZM303.92,50V18.78C303.92,5,293.23.34,275.69.34H240.92V68.48h34.77c17.54,0,28.23-4.74,28.23-18.45m31.34,18.45V.34a88.11,88.11,0,0,0-14.71,0V68.48a90.3,90.3,0,0,0,14.71,0m82.07,0V.34a88.08,88.08,0,0,0-14.71,0V48.72L368.65.34a104.61,104.61,0,0,0-16,0V68.48a72.41,72.41,0,0,0,14.72,0V21.2L400.9,68.48a112.63,112.63,0,0,0,16.43,0" transform="translate(-0.13 -0.03)"/></g></svg>