<svg width="495" height="331" viewBox="0 0 495 331" fill="none" xmlns="http://www.w3.org/2000/svg">
<rect x="3" y="187" width="19" height="19" rx="2" fill="#37D4CF"/>
<rect x="29" y="187" width="19" height="19" rx="2" fill="#37D4CF"/>
<rect x="56" y="187" width="19" height="19" rx="2" fill="#37D4CF"/>
<rect x="82" y="187" width="19" height="19" rx="2" fill="#37D4CF"/>
<rect x="3" y="213" width="19" height="19" rx="2" fill="#37D4CF"/>
<rect x="29" y="213" width="19" height="19" rx="2" fill="#37D4CF"/>
<rect x="56" y="213" width="19" height="19" rx="2" fill="#37D4CF"/>
<rect x="82" y="213" width="19" height="19" rx="2" fill="#37D4CF"/>
<rect x="3" y="240" width="19" height="19" rx="2" fill="#37D4CF"/>
<rect x="29" y="240" width="19" height="19" rx="2" fill="#37D4CF"/>
<rect x="56" y="240" width="19" height="19" rx="2" fill="#37D4CF"/>
<rect x="82" y="240" width="19" height="19" rx="2" fill="#37D4CF"/>
<rect x="3" y="266" width="19" height="19" rx="2" fill="#37D4CF"/>
<rect x="29" y="266" width="19" height="19" rx="2" fill="#37D4CF"/>
<rect x="56" y="266" width="19" height="19" rx="2" fill="#37D4CF"/>
<rect x="82" y="266" width="19" height="19" rx="2" fill="#37D4CF"/>
<path d="M274.451 85.3899C274.451 85.3899 273.246 67.1272 274.451 62.0772C275.656 57.0272 282.904 44.7991 285.315 45.6884C287.725 46.5777 288.031 50.1667 285.315 54.9309C285.315 54.9309 300.71 42.5599 306.592 42.7823C312.474 43.0046 315.784 50.4685 314.884 54.0416C313.984 57.6148 300.421 63.8082 299.489 66.7461C298.557 69.684 296.178 90.3288 296.178 90.3288" fill="white"/>
<path d="M296.146 91.2036C296.343 91.2016 296.532 91.13 296.679 91.0017C296.827 90.8735 296.923 90.6971 296.95 90.5048C296.95 90.2984 299.36 69.9712 300.164 67.0492C300.517 65.8899 304.101 63.5554 306.978 61.6815C311.108 58.9659 315.013 56.4092 315.559 54.2335C315.768 52.7417 315.667 51.2235 315.264 49.7712C314.86 48.3189 314.163 46.9628 313.213 45.785C312.466 44.7041 311.484 43.8021 310.338 43.1453C309.192 42.4885 307.912 42.0936 306.592 41.9896C301.915 41.8149 292.129 48.7547 287.388 52.2961C288.075 50.6593 288.188 48.8425 287.709 47.1349C287.54 46.6374 287.26 46.1837 286.89 45.8072C286.521 45.4307 286.07 45.1409 285.572 44.9592C285.306 44.874 285.025 44.8469 284.747 44.8798C284.47 44.9128 284.203 45.0049 283.965 45.1498C280.638 46.8967 274.708 57.5049 273.664 61.9039C272.442 67.0174 273.664 84.6925 273.664 85.4389C273.668 85.544 273.693 85.6472 273.738 85.7422C273.784 85.8373 273.848 85.9223 273.928 85.992C274.008 86.0618 274.101 86.1149 274.202 86.1481C274.303 86.1813 274.409 86.194 274.515 86.1853C274.726 86.169 274.921 86.0717 275.059 85.9142C275.198 85.7567 275.268 85.5518 275.255 85.3436C275.255 85.1531 274.081 67.1445 275.255 62.2691C276.556 56.7903 283.45 46.2138 285.074 46.3885C285.349 46.4974 285.597 46.6648 285.8 46.8789C286.002 47.0929 286.155 47.3484 286.247 47.6272C286.825 49.2152 286.247 51.6926 284.64 54.5035C284.547 54.662 284.515 54.8475 284.547 55.0276C284.579 55.2076 284.675 55.3707 284.816 55.4881C284.961 55.6069 285.143 55.672 285.331 55.672C285.519 55.672 285.701 55.6069 285.845 55.4881C290.055 52.0896 301.915 43.3394 306.576 43.5141C307.669 43.6067 308.727 43.94 309.672 44.4896C310.618 45.0392 311.427 45.7912 312.04 46.6902C313.655 48.6978 314.401 51.2557 314.113 53.8047C313.711 55.3928 309.549 58.1084 306.19 60.2999C301.883 63.1267 299.216 64.9529 298.733 66.5569C297.834 69.606 295.519 89.425 295.391 90.2666C295.368 90.4767 295.429 90.6873 295.561 90.8535C295.693 91.0196 295.886 91.1281 296.098 91.1559L296.146 91.2036Z" fill="#2C3645"/>
<path d="M234.854 329.922L8.88699 277.881V241.943L234.854 264.875V329.922Z" fill="white"/>
<path d="M234.854 330.733C235.04 330.733 235.221 330.671 235.368 330.558C235.464 330.481 235.543 330.385 235.598 330.275C235.654 330.165 235.685 330.045 235.689 329.923V264.812C235.69 264.607 235.613 264.408 235.473 264.255C235.334 264.102 235.141 264.006 234.934 263.987L8.98342 241.071C8.86748 241.056 8.74964 241.067 8.63845 241.103C8.52726 241.138 8.42553 241.198 8.34061 241.277C8.25547 241.354 8.18723 241.447 8.14022 241.551C8.09321 241.655 8.06841 241.767 8.06739 241.881V277.819C8.06592 278.006 8.12874 278.188 8.24552 278.335C8.36229 278.482 8.52614 278.585 8.71025 278.629L234.661 330.717L234.854 330.733ZM234.018 265.622V328.907L9.72265 277.247V242.85L234.018 265.622Z" fill="#2C3645"/>
<path d="M482.692 205.48V244.785L234.854 329.921V251.9L482.692 205.48Z" fill="white"/>
<path d="M234.853 330.732H235.127L482.965 245.564C483.126 245.505 483.265 245.399 483.362 245.26C483.46 245.121 483.512 244.955 483.511 244.786V205.481C483.51 205.361 483.483 205.243 483.434 205.134C483.384 205.024 483.312 204.926 483.222 204.846C483.127 204.768 483.016 204.712 482.896 204.682C482.777 204.652 482.652 204.648 482.531 204.671L234.693 251.09C234.503 251.127 234.331 251.228 234.208 251.376C234.085 251.523 234.018 251.709 234.018 251.9V329.922C234.023 330.052 234.057 330.179 234.118 330.295C234.179 330.41 234.266 330.51 234.371 330.589C234.514 330.683 234.682 330.733 234.853 330.732V330.732ZM481.856 244.214L235.689 328.81V252.583L481.856 206.529V244.214Z" fill="#2C3645"/>
<path d="M68.0423 236.702C68.0423 236.702 45.4151 105.766 64.4264 87.2335C83.4378 68.7008 170.331 65.2388 189.776 70.2254C209.221 75.2119 224.135 207.736 224.135 207.736L68.0423 236.702Z" fill="#001A1F"/>
<path d="M68.0422 237.449H68.1868L224.311 208.466C224.51 208.428 224.687 208.316 224.806 208.154C224.925 207.992 224.978 207.792 224.954 207.593C224.343 202.162 209.784 74.4976 190.001 69.4317C171.857 64.7787 83.6466 67.3514 63.8639 86.6463C44.7883 105.243 66.3227 231.446 67.2548 236.797C67.2716 236.903 67.3102 237.004 67.3683 237.094C67.4264 237.184 67.5026 237.262 67.5922 237.322C67.7248 237.41 67.8824 237.454 68.0422 237.449V237.449ZM223.283 207.053L68.7493 235.733C66.9012 224.776 47.2953 105.036 65.037 87.7579C73.0723 79.9129 95.6834 73.6877 127.069 70.6545C152.091 68.2407 179.587 68.3677 189.647 70.9404C194.983 72.3061 203.452 85.5664 213.544 140.942C219.072 171.592 222.704 201.987 223.283 207.053V207.053Z" fill="#2C3645"/>
<path d="M0.835703 235.51V248.929L233.407 296.793L493.427 208.815V198.111L0.835703 235.51Z" fill="white"/>
<path d="M233.407 297.587C233.492 297.602 233.579 297.602 233.664 297.587L493.684 209.609C493.841 209.554 493.978 209.453 494.075 209.32C494.173 209.186 494.227 209.027 494.231 208.862V198.111C494.231 198.001 494.208 197.892 494.164 197.792C494.12 197.691 494.055 197.6 493.973 197.526C493.891 197.451 493.795 197.394 493.69 197.358C493.585 197.322 493.474 197.308 493.363 197.317L0.77156 234.716C0.569784 234.732 0.381547 234.823 0.244494 234.97C0.107441 235.117 0.0316355 235.31 0.0322842 235.51V248.929C0.0322464 249.112 0.0962122 249.289 0.213351 249.431C0.330491 249.573 0.493647 249.671 0.675141 249.707L233.231 297.555L233.407 297.587ZM492.624 208.243L233.343 295.967L1.63933 248.326V236.304L492.624 198.969V208.243Z" fill="#2C3645"/>
<path d="M104.329 92.8393C96.7281 120.217 114.631 248.946 114.631 248.946L219.33 208.498C219.33 208.498 197.827 182.962 223.54 129.444C234.05 107.561 223.235 96.0948 215.907 89.9331C209.752 84.756 111.947 65.4611 104.329 92.8393Z" fill="#14C9C9"/>
<path d="M324.028 168.686L0.835703 235.511L233.407 279.802L493.427 198.112L324.028 168.686Z" fill="white"/>
<path d="M233.407 280.611H233.648L493.684 198.89C493.856 198.83 494.004 198.715 494.104 198.564C494.205 198.413 494.252 198.234 494.239 198.053C494.227 197.873 494.154 197.702 494.034 197.566C493.913 197.43 493.751 197.338 493.572 197.302L324.173 167.891C324.073 167.867 323.968 167.867 323.868 167.891L0.658848 234.716C0.471766 234.756 0.304239 234.859 0.184307 235.006C0.0643753 235.154 -0.000696569 235.337 -4.60856e-05 235.526C0.00660223 235.714 0.0766494 235.894 0.198971 236.038C0.321292 236.182 0.488872 236.281 0.674934 236.32L233.246 280.595L233.407 280.611ZM489.956 198.334L233.359 278.944L5.04605 235.479L324.044 169.526L489.956 198.334Z" fill="#2C3645"/>
<path d="M219.185 215.246C219.185 215.246 297.914 190.646 299.28 190.646C300.646 190.646 400.17 207.528 400.17 207.528L317.52 235.462L219.185 215.246Z" fill="white"/>
<path d="M317.52 236.337C317.61 236.353 317.703 236.353 317.793 236.337L400.443 208.387C400.617 208.331 400.766 208.219 400.868 208.07C400.97 207.92 401.018 207.741 401.006 207.561C400.991 207.379 400.914 207.206 400.789 207.071C400.664 206.936 400.497 206.846 400.315 206.815C390.126 205.084 300.678 189.918 299.28 189.918C297.882 189.918 237.441 208.737 218.928 214.517C218.751 214.565 218.596 214.671 218.491 214.819C218.385 214.967 218.335 215.147 218.349 215.327C218.356 215.509 218.425 215.683 218.545 215.821C218.664 215.959 218.827 216.054 219.008 216.089L317.359 236.321L317.52 236.337ZM396.827 207.752L317.472 234.59L222.463 215.009C245.797 207.736 297.367 191.728 299.36 191.427C300.983 191.633 362.051 201.94 396.827 207.831V207.752Z" fill="#2C3645"/>
<path d="M328.641 225.586C328.746 225.61 328.856 225.61 328.962 225.586L372.786 206.1C372.944 206.029 373.075 205.909 373.158 205.757C373.241 205.606 373.272 205.433 373.247 205.263C373.221 205.093 373.141 204.935 373.017 204.814C372.894 204.693 372.733 204.615 372.561 204.592L321.312 197.461C321.176 197.422 321.031 197.422 320.895 197.461L275.303 216.613C275.141 216.679 275.006 216.795 274.919 216.945C274.831 217.094 274.797 217.268 274.821 217.439C274.844 217.612 274.924 217.773 275.049 217.896C275.174 218.02 275.337 218.099 275.512 218.122L328.544 225.586H328.641ZM369.588 205.64L328.512 223.887L278.581 216.883L321.312 198.922L369.588 205.64Z" fill="#D1D3D4"/>
<path d="M317.52 235.51L218.735 224.012L219.185 215.246L317.52 228.252V235.51Z" fill="white"/>
<path d="M317.52 236.337C317.726 236.334 317.924 236.261 318.082 236.13C318.169 236.052 318.239 235.956 318.286 235.85C318.333 235.743 318.357 235.628 318.356 235.511V228.254C318.357 228.054 318.284 227.862 318.151 227.712C318.017 227.563 317.833 227.467 317.632 227.444L219.297 214.469C219.184 214.451 219.068 214.457 218.958 214.487C218.847 214.516 218.744 214.569 218.656 214.641C218.568 214.714 218.496 214.804 218.446 214.905C218.396 215.007 218.368 215.118 218.365 215.232L217.899 223.998C217.89 224.206 217.961 224.411 218.098 224.57C218.235 224.729 218.428 224.831 218.638 224.855L317.423 236.369L317.52 236.337ZM316.7 228.968V234.59L219.603 223.283L219.972 216.168L316.7 228.968Z" fill="#2C3645"/>
<path d="M317.52 235.51L335.615 105.591L418.876 101.414L400.17 207.576L317.52 235.51Z" fill="white"/>
<path d="M317.52 236.336C317.61 236.353 317.703 236.353 317.793 236.336L400.443 208.387C400.585 208.341 400.711 208.258 400.808 208.146C400.904 208.033 400.967 207.897 400.99 207.751L419.696 101.558C419.717 101.437 419.711 101.313 419.677 101.195C419.644 101.077 419.584 100.967 419.503 100.875C419.421 100.784 419.319 100.712 419.205 100.665C419.091 100.619 418.967 100.598 418.844 100.605L335.519 104.766C335.325 104.778 335.141 104.856 334.997 104.986C334.854 105.116 334.76 105.29 334.731 105.48L316.636 235.399C316.618 235.539 316.637 235.681 316.69 235.812C316.744 235.943 316.83 236.058 316.941 236.146C317.02 236.214 317.112 236.266 317.211 236.299C317.311 236.331 317.415 236.344 317.52 236.336ZM399.479 206.957L318.564 234.304L336.387 106.369L417.912 102.288L399.479 206.957Z" fill="#2C3645"/>
<path d="M274.58 212.199H274.853L302.172 202.671C302.386 202.654 302.583 202.554 302.722 202.393C302.86 202.232 302.929 202.024 302.912 201.813C302.895 201.603 302.794 201.407 302.631 201.27C302.468 201.133 302.257 201.066 302.044 201.083L286.423 198.669C286.292 198.636 286.154 198.636 286.022 198.669L258.123 208.737C257.951 208.797 257.805 208.913 257.709 209.066C257.613 209.219 257.572 209.4 257.593 209.579C257.615 209.758 257.699 209.924 257.831 210.048C257.963 210.173 258.134 210.248 258.316 210.262L274.387 212.056L274.58 212.199ZM298.685 202.258L274.451 210.595L261.9 209.213L286.391 200.368L298.685 202.258Z" fill="#D1D3D4"/>
<path d="M102.497 111.388L96.7279 157.299C93.2567 185.105 90.8783 211.769 101.726 218.471C112.573 225.172 206.184 225.41 206.184 225.41C204.435 217.593 204.023 209.542 204.962 201.59C204.962 201.59 127.824 190.695 128.676 183.089C129.528 175.482 153.971 123.632 154.389 111.546C154.807 99.4613 117.362 102.637 102.497 111.388Z" fill="#14C9C9"/>
<path d="M215.906 89.9323C215.906 89.9323 267.573 131.508 267.203 123.647C267.01 119.502 268.135 78.4824 268.135 78.4824L300.389 79.8799C300.389 79.8799 313.133 147.15 301.996 163.714C287.886 184.676 267.509 177.895 240.35 162.253C205.573 142.211 196.959 133.668 196.959 133.668L215.906 89.9323Z" fill="#14C9C9"/>
<path d="M205.027 201.59C205.027 201.59 221.097 202.257 223.234 199.255C225.372 196.254 228.843 192.522 230.9 192.157C232.957 191.791 258.123 194.65 256.613 197.238C255.102 199.827 244.222 197.604 244.222 197.604C244.222 197.604 253.672 199.986 253.238 203.098C252.804 206.211 250.618 205.878 247.003 204.687C243.387 203.495 234.66 201.415 234.66 201.415C234.66 201.415 248.015 207.529 248.224 210.689C248.433 213.85 241.989 212.277 232.909 207.513C232.909 207.513 243.483 214.088 240.205 216.025C236.926 217.963 229.229 213.961 229.229 213.961C229.229 213.961 225.597 219.757 220.695 221.202C215.794 222.648 205.589 222.52 205.589 222.52C205.589 222.52 200.752 211.817 205.027 201.59Z" fill="white"/>
<path d="M206.232 223.281C208.53 223.281 216.678 223.186 221.001 221.915C225.324 220.645 228.457 216.548 229.582 214.944C231.671 215.944 237.618 218.501 240.703 216.675C241.008 216.506 241.263 216.263 241.443 215.968C241.623 215.672 241.723 215.336 241.732 214.991C241.49 213.622 240.753 212.386 239.658 211.513C243.13 212.895 246.521 213.737 248.16 212.72C248.496 212.496 248.764 212.185 248.934 211.821C249.104 211.457 249.17 211.054 249.124 210.656C248.995 208.671 245.299 206.098 241.619 204.018C243.58 204.526 245.524 205.066 246.81 205.479C249.156 206.241 251.229 206.797 252.643 205.923C253.082 205.614 253.442 205.21 253.699 204.743C253.955 204.275 254.1 203.755 254.122 203.224C254.347 201.636 252.933 200.349 251.117 199.317C253.929 199.428 256.597 199.095 257.416 197.634C257.536 197.415 257.59 197.167 257.57 196.919C257.55 196.67 257.457 196.433 257.304 196.236C255.199 193.346 232.684 191.012 230.739 191.361C228.12 191.821 224.311 196.411 222.56 198.777C221.274 200.603 211.551 201.048 205.059 200.778C204.888 200.769 204.719 200.814 204.574 200.905C204.43 200.996 204.319 201.129 204.255 201.286C199.9 211.72 204.689 222.36 204.898 222.805C204.962 222.945 205.066 223.065 205.197 223.149C205.328 223.234 205.481 223.279 205.637 223.281H206.232ZM229.293 213.07C229.151 213.071 229.011 213.108 228.887 213.177C228.764 213.247 228.66 213.347 228.586 213.467C228.586 213.467 225.05 219.025 220.551 220.343C216.469 221.55 208.401 221.645 206.232 221.645C205.396 219.533 202.359 210.846 205.605 202.43C209.366 202.557 221.804 202.747 223.942 199.73C226.449 196.204 229.582 193.235 231.077 192.965C233.568 192.52 253.575 195.236 255.825 197.046C254.668 198.047 249.204 197.761 244.48 196.808C244.376 196.785 244.269 196.782 244.164 196.799C244.06 196.817 243.96 196.855 243.87 196.911C243.781 196.967 243.703 197.04 243.642 197.126C243.581 197.212 243.538 197.309 243.515 197.411C243.489 197.515 243.483 197.622 243.499 197.727C243.514 197.833 243.551 197.934 243.606 198.026C243.661 198.117 243.734 198.197 243.821 198.26C243.907 198.324 244.005 198.37 244.11 198.396C247.629 199.285 252.74 201.366 252.515 202.986C252.523 203.285 252.464 203.583 252.341 203.858C252.219 204.132 252.037 204.377 251.808 204.574C250.988 205.082 249.076 204.574 247.356 203.97C243.74 202.795 235.319 200.794 234.95 200.683C234.844 200.648 234.733 200.635 234.622 200.643C234.511 200.651 234.403 200.681 234.304 200.73C234.205 200.78 234.116 200.848 234.044 200.931C233.971 201.014 233.916 201.111 233.881 201.215C233.846 201.319 233.833 201.429 233.841 201.539C233.849 201.648 233.879 201.755 233.929 201.853C233.979 201.951 234.048 202.038 234.132 202.11C234.216 202.182 234.314 202.236 234.419 202.271C240.623 205.114 247.388 209.195 247.501 210.862C247.501 211.275 247.372 211.37 247.292 211.434C246.392 212.006 242.471 211.672 233.407 206.813C233.22 206.736 233.012 206.728 232.82 206.792C232.628 206.855 232.466 206.986 232.364 207.158C232.261 207.331 232.226 207.534 232.264 207.731C232.303 207.927 232.412 208.103 232.571 208.226C236.203 210.497 240.124 213.753 240.108 215.055C240.108 215.134 240.108 215.229 239.883 215.357C237.521 216.754 231.736 214.324 229.711 213.26C229.592 213.16 229.447 213.094 229.293 213.07V213.07Z" fill="#2C3645"/>
<path d="M192.99 200.588C193.182 200.571 193.361 200.489 193.497 200.355C193.633 200.22 193.717 200.043 193.735 199.854C193.752 199.664 193.701 199.475 193.592 199.319C193.482 199.163 193.32 199.05 193.135 199L130.171 188.169C134.274 177.398 137.761 166.407 140.616 155.249C146.948 130.205 147.912 111.18 143.493 98.6821C143.46 98.5794 143.407 98.4843 143.336 98.4026C143.266 98.3208 143.179 98.2542 143.081 98.2066C142.983 98.1591 142.877 98.1317 142.768 98.1261C142.659 98.1205 142.551 98.1367 142.448 98.1739C142.24 98.246 142.069 98.3967 141.972 98.5931C141.876 98.7895 141.862 99.0156 141.934 99.222C152.219 128.363 128.499 187.915 128.258 188.503C128.203 188.611 128.174 188.731 128.174 188.852C128.174 188.974 128.203 189.093 128.258 189.202C128.319 189.308 128.402 189.4 128.502 189.471C128.601 189.542 128.716 189.591 128.837 189.614L192.797 200.62L192.99 200.588Z" fill="#2C3645"/>
<path d="M233.407 297.603C233.625 297.603 233.833 297.517 233.987 297.366C234.14 297.214 234.227 297.008 234.227 296.793V279.801C234.262 279.678 234.268 279.548 234.245 279.423C234.221 279.297 234.168 279.179 234.09 279.077C234.012 278.974 233.912 278.892 233.796 278.835C233.68 278.778 233.553 278.748 233.423 278.748C233.294 278.748 233.166 278.778 233.051 278.835C232.935 278.892 232.834 278.974 232.756 279.077C232.678 279.179 232.625 279.297 232.602 279.423C232.578 279.548 232.584 279.678 232.62 279.801V296.793C232.62 297.002 232.702 297.204 232.848 297.355C232.995 297.506 233.195 297.595 233.407 297.603V297.603Z" fill="#2C3645"/>
<path d="M210.989 175.195C211.201 175.195 211.405 175.114 211.557 174.969C211.71 174.824 211.8 174.626 211.808 174.417C212.371 162.919 215.505 153.947 218.237 146.022C220.12 141.348 221.441 136.471 222.174 131.492C222.286 130.364 222.399 129.284 222.495 128.315C223.395 119.454 224.102 112.435 218.783 96.713C218.713 96.5078 218.565 96.3379 218.369 96.2399C218.174 96.1418 217.947 96.1236 217.738 96.189C217.636 96.223 217.541 96.2767 217.46 96.3471C217.378 96.4175 217.311 96.5032 217.264 96.5992C217.216 96.6952 217.188 96.7995 217.181 96.9063C217.174 97.0131 217.189 97.1201 217.224 97.2212C222.415 112.641 221.756 119.152 220.84 128.157C220.744 129.205 220.631 130.285 220.535 131.412C219.808 136.26 218.514 141.009 216.678 145.562C213.865 153.597 210.684 162.681 210.121 174.417C210.112 174.633 210.19 174.845 210.337 175.005C210.485 175.165 210.69 175.262 210.909 175.274L210.989 175.195Z" fill="#2C3645"/>
<path d="M164.192 257.569C149.601 257.569 137.772 254.05 137.772 249.709C137.772 245.367 149.601 241.848 164.192 241.848C178.783 241.848 190.612 245.367 190.612 249.709C190.612 254.05 178.783 257.569 164.192 257.569Z" fill="white"/>
<path d="M164.192 258.395C177.402 258.395 191.511 255.346 191.511 249.708C191.511 244.07 177.466 241.037 164.192 241.037C150.918 241.037 136.872 244.07 136.872 249.708C136.872 255.346 150.966 258.395 164.192 258.395ZM164.192 242.673C179.266 242.673 189.792 246.373 189.792 249.708C189.792 253.043 179.266 256.759 164.192 256.759C149.118 256.759 138.591 253.043 138.591 249.708C138.591 246.373 149.102 242.673 164.192 242.673Z" fill="#2C3645"/>
<path d="M184.103 228.33L184.746 228.442C186.636 228.73 188.352 229.697 189.567 231.157C190.258 232.2 190.639 233.414 190.667 234.66C190.696 235.906 190.37 237.136 189.728 238.208C186.931 243.211 180.085 244.56 174.83 245.085C174.087 245.198 173.328 245.138 172.613 244.91C172.257 244.787 171.949 244.56 171.728 244.259C171.506 243.959 171.383 243.598 171.375 243.227C171.414 242.927 171.528 242.642 171.708 242.397C171.888 242.153 172.127 241.958 172.404 241.829C172.956 241.573 173.548 241.412 174.155 241.353C177.474 241.021 180.724 240.202 183.798 238.923C185.549 238.049 187.992 236.048 186.722 233.905C186.279 233.206 185.636 232.653 184.874 232.317C181.869 230.903 179.009 231.967 176.036 232.841C175.82 232.92 175.59 232.952 175.361 232.936C174.782 232.936 174.461 232.189 174.509 231.618C174.605 230.331 175.891 229.49 177.112 229.029C179.34 228.193 181.751 227.952 184.103 228.33V228.33Z" fill="white"/>
<path d="M173.995 245.942C174.316 245.958 174.638 245.958 174.959 245.942C183.091 245.18 188.185 242.766 190.499 238.653C191.224 237.444 191.589 236.058 191.552 234.653C191.515 233.248 191.078 231.882 190.29 230.713C188.927 229.09 187.014 228.013 184.907 227.679L184.232 227.568C181.767 227.201 179.248 227.469 176.92 228.346C175.007 229.077 173.898 230.236 173.786 231.634C173.719 232.135 173.848 232.642 174.147 233.052C174.446 233.462 174.891 233.744 175.393 233.841C175.741 233.863 176.09 233.82 176.422 233.714L177.193 233.476C179.764 232.714 182.191 231.983 184.65 233.142C185.263 233.388 185.785 233.815 186.144 234.365C186.259 234.551 186.334 234.758 186.365 234.974C186.395 235.19 186.38 235.41 186.321 235.62C185.754 236.791 184.778 237.722 183.573 238.24C180.947 239.373 178.162 240.102 175.313 240.4L174.091 240.59C173.392 240.659 172.711 240.853 172.082 241.162C171.62 241.363 171.232 241.7 170.97 242.126C170.708 242.553 170.586 243.049 170.619 243.547C170.652 244.044 170.84 244.52 171.157 244.909C171.473 245.298 171.903 245.581 172.388 245.72C172.905 245.889 173.45 245.965 173.995 245.942ZM183.975 229.14L184.585 229.236C186.288 229.485 187.842 230.337 188.956 231.634C189.557 232.551 189.884 233.617 189.901 234.709C189.918 235.801 189.624 236.876 189.053 237.811C187.012 241.448 182.352 243.56 174.798 244.259C174.187 244.358 173.561 244.32 172.966 244.148C172.776 244.128 172.598 244.044 172.464 243.908C172.33 243.773 172.248 243.595 172.233 243.406C172.217 243.218 172.27 243.03 172.38 242.875C172.491 242.72 172.653 242.609 172.838 242.56C173.31 242.343 173.815 242.204 174.332 242.147L175.538 241.956C178.56 241.642 181.515 240.865 184.296 239.653C185.903 238.927 187.18 237.636 187.88 236.033C188.005 235.609 188.04 235.164 187.982 234.727C187.924 234.29 187.774 233.869 187.542 233.492C187.023 232.652 186.254 231.992 185.341 231.602C182.303 230.173 179.443 231.03 176.679 231.856L175.907 232.094C175.8 232.106 175.693 232.106 175.586 232.094C175.531 232.034 175.49 231.964 175.465 231.887C175.441 231.811 175.432 231.73 175.441 231.65C175.522 230.633 176.92 230.061 177.514 229.76C179.563 228.995 181.776 228.76 183.942 229.077L183.975 229.14Z" fill="#2C3645"/>
<path d="M181.644 222.979C181.644 222.979 176.694 247.371 176.293 248.832C175.891 250.293 162.745 254.073 154.887 250.42L146.739 225.488L181.644 222.979Z" fill="white"/>
<path d="M163.147 252.788C167.322 252.802 171.461 252.031 175.345 250.517C176.405 250.025 176.952 249.565 177.08 249.041C177.482 247.564 182.255 224.124 182.448 223.139C182.473 223.014 182.468 222.884 182.435 222.76C182.402 222.636 182.34 222.521 182.255 222.425C182.171 222.331 182.066 222.258 181.949 222.212C181.832 222.165 181.706 222.145 181.58 222.155L146.675 224.664C146.55 224.672 146.429 224.708 146.32 224.77C146.212 224.832 146.119 224.918 146.049 225.02C145.979 225.123 145.934 225.24 145.917 225.363C145.9 225.486 145.912 225.61 145.952 225.728L154.083 250.66C154.122 250.768 154.181 250.867 154.258 250.951C154.335 251.036 154.429 251.104 154.533 251.153C157.25 252.31 160.19 252.869 163.147 252.788V252.788ZM180.616 223.87C178.848 232.525 175.795 247.532 175.489 248.612C174.637 249.596 163.051 253.058 155.562 249.819L147.848 226.22L180.616 223.87Z" fill="#2C3645"/>
<path d="M146.651 224.394C146.48 220.266 154.169 216.603 163.827 216.211C173.484 215.82 181.452 218.848 181.623 222.976C181.794 227.103 174.105 230.767 164.447 231.158C154.79 231.55 146.822 228.521 146.651 224.394Z" fill="#2C3645"/>
<path d="M162.762 231.936H164.497C168.835 231.842 173.111 230.903 177.08 229.172C180.632 227.473 182.528 225.25 182.432 222.915C182.335 220.581 180.262 218.532 176.582 217.135C168.274 214.45 159.264 214.817 151.207 218.167C147.655 219.85 145.759 222.074 145.855 224.408C146.032 228.76 153.328 231.936 162.762 231.936ZM165.526 216.913C169.091 216.844 172.64 217.409 176.004 218.58C179.009 219.723 180.825 221.312 180.825 222.963C180.825 224.615 179.218 226.33 176.373 227.727C172.595 229.367 168.526 230.253 164.401 230.332C154.421 230.745 147.575 227.553 147.43 224.329H146.643H147.43C147.43 222.741 149.037 220.946 151.882 219.565C155.659 217.921 159.728 217.03 163.854 216.944L165.526 216.913Z" fill="#2C3645"/>
<path d="M184.762 2.76387C184.762 2.76387 201.748 3.35145 206.73 11.4664C211.712 19.5814 211.037 31.5872 217.449 39.3846C223.861 47.1819 231.72 63.8883 227.654 72.448C223.588 81.0077 181.307 83.2786 159.162 73.3532C137.017 63.4278 135.908 45.6892 137.579 34.4139C139.25 23.1387 147.35 -7.47913 184.762 2.76387Z" fill="white"/>
<path d="M196.542 80.6742C197.763 80.6742 198.984 80.6742 200.206 80.6742C212.178 80.3407 225.918 78.1016 228.377 72.8451C232.523 64.1266 224.922 47.2614 218.076 38.94C214.653 34.7634 213.255 29.2369 211.953 23.8693C211.091 19.4351 209.563 15.1531 207.421 11.1648C202.423 3.00214 186.433 2.12871 184.923 2.06518C172.163 -1.41267 161.54 -0.491598 153.344 4.78077C141.211 12.6099 137.74 28.0935 136.808 34.3981C134.928 47.1026 137.226 64.4601 158.872 74.0996C168.209 78.2762 182.078 80.6742 196.542 80.6742ZM170.829 1.49348C175.496 1.5574 180.134 2.2411 184.617 3.5262H184.794C184.971 3.5262 201.411 4.19318 206.12 11.8476C208.184 15.717 209.646 19.8713 210.459 24.171C211.825 29.6974 213.255 35.4145 216.887 39.8452C223.604 48.0396 230.691 64.2537 226.963 72.0828C223.379 79.6261 182.159 82.7228 159.547 72.591C138.817 63.3008 136.615 46.7532 138.415 34.4775C139.315 28.3952 142.657 13.4516 154.244 5.97181C159.186 2.90615 164.932 1.34841 170.765 1.49348H170.829Z" fill="#2C3645"/>
<path d="M154.517 96.4922C154.517 96.4922 168.322 129.841 179.812 128.92C191.303 127.999 190.885 103.178 190.885 103.178L154.517 96.4922Z" fill="#2C3645"/>
<path d="M179.346 129.728H179.876C191.961 128.76 191.769 104.224 191.752 103.192C191.755 103.01 191.692 102.833 191.574 102.693C191.456 102.553 191.291 102.46 191.11 102.43L154.662 95.7279C154.523 95.6981 154.379 95.7077 154.245 95.7554C154.111 95.8032 153.994 95.8872 153.907 95.9979C153.813 96.1085 153.751 96.2424 153.728 96.3851C153.706 96.5279 153.723 96.674 153.778 96.8078C154.34 98.1576 167.55 129.728 179.346 129.728ZM190.161 103.843C190.161 107.686 189.358 127.362 179.748 128.14C171.214 128.839 160.11 107.495 155.835 97.5383L190.161 103.843Z" fill="#2C3645"/>
<path d="M187.863 79.9744L190.885 103.176C190.885 103.176 187.012 112.704 171.231 111.227C161.492 110.275 154.437 96.4902 154.437 96.4902L151.319 50.9922C151.319 50.9922 173.207 39.0818 185.823 18.4688C185.823 18.4688 196.204 35.3975 203.789 33.7459C203.789 33.7459 206.248 56.5981 203.5 68.2227C200.752 79.8473 187.863 79.9744 187.863 79.9744Z" fill="white"/>
<path d="M174.686 112.181C188.024 112.181 191.544 103.86 191.704 103.479C191.736 103.348 191.736 103.212 191.704 103.082L188.731 80.7058C191.801 80.4199 201.829 78.6572 204.239 68.3983C206.987 56.7737 204.641 34.5885 204.528 33.6515C204.518 33.5416 204.484 33.4353 204.428 33.3394C204.373 33.2436 204.297 33.1605 204.207 33.0957C204.114 33.0328 204.009 32.9891 203.899 32.9673C203.788 32.9454 203.675 32.9459 203.564 32.9686C197.779 34.2391 189.262 22.6304 186.465 18.0567C186.389 17.9454 186.286 17.8542 186.165 17.7912C186.045 17.7282 185.911 17.6953 185.774 17.6953C185.638 17.6953 185.504 17.7282 185.383 17.7912C185.263 17.8542 185.16 17.9454 185.083 18.0567C172.693 38.241 151.175 50.1832 150.966 50.2944C150.834 50.3695 150.725 50.4786 150.652 50.6102C150.578 50.7417 150.542 50.8906 150.548 51.0408L153.666 96.5387C153.678 96.6444 153.711 96.7468 153.762 96.8405C154.051 97.4281 161.122 111.038 171.182 112.006C172.346 112.126 173.516 112.184 174.686 112.181V112.181ZM190.129 103.066C189.519 104.368 185.308 111.784 171.391 110.434C162.713 109.593 156.076 97.7298 155.321 96.2688L152.235 51.4378C155.369 49.6274 174.139 38.2569 185.822 19.9783C188.233 23.615 196.284 35.0172 203.066 34.6361C203.468 38.7968 205.107 57.9012 202.729 67.9854C200.157 78.8477 188.362 79.1018 187.863 79.1018C187.749 79.103 187.636 79.1282 187.533 79.1759C187.429 79.2235 187.337 79.2925 187.262 79.3782C187.188 79.4639 187.133 79.5643 187.1 79.6727C187.068 79.7812 187.06 79.8951 187.076 80.007L190.129 103.066Z" fill="#2C3645"/>
<path d="M189.487 92.1871C186.806 92.4999 184.088 92.1631 181.568 91.2058C179.048 90.2485 176.802 88.6995 175.023 86.6924C168.74 79.7526 170.202 78.498 170.202 78.498C175.914 80.2612 181.947 80.7707 187.88 79.9908L189.487 92.1871Z" fill="#2C3645"/>
<path d="M187.558 93.1083C188.252 93.115 188.946 93.0619 189.631 92.9495C189.833 92.9144 190.013 92.8044 190.136 92.6421C190.258 92.4797 190.314 92.2772 190.29 92.0761L188.683 79.8798C188.671 79.7757 188.638 79.6751 188.586 79.5839C188.534 79.4928 188.464 79.4129 188.38 79.3492C188.296 79.2854 188.2 79.2391 188.097 79.2129C187.995 79.1867 187.888 79.1813 187.783 79.1969C181.964 79.9579 176.047 79.4594 170.443 77.7359C170.304 77.689 170.155 77.679 170.012 77.7068C169.868 77.7347 169.734 77.7995 169.623 77.8947C169.398 78.1011 168.932 78.7205 169.479 80.245C170.72 82.823 172.393 85.1747 174.428 87.2007C176.066 89.0518 178.084 90.5363 180.348 91.555C182.612 92.5738 185.07 93.1033 187.558 93.1083V93.1083ZM188.586 91.5203C186.155 91.6784 183.719 91.2791 181.47 90.3535C179.22 89.428 177.217 88.0011 175.618 86.1844C172.243 82.4524 171.23 80.4991 170.925 79.5939C176.208 81.0422 181.723 81.4788 187.172 80.8802L188.586 91.5203Z" fill="#2C3645"/>
<path d="M182.624 43.1641C182.624 43.1641 190.226 55.3921 188.233 57.4566C186.24 59.5211 180.921 57.8854 180.921 57.8854" fill="white"/>
<path d="M184.874 59.1879C186.295 59.2943 187.701 58.85 188.795 57.9493C190.997 55.7418 185.694 46.5946 183.315 42.7515C183.203 42.5725 183.022 42.4452 182.814 42.3975C182.606 42.3499 182.388 42.3858 182.207 42.4974C182.025 42.609 181.897 42.7872 181.848 42.9927C181.8 43.1982 181.837 43.4142 181.949 43.5932C185.822 49.8184 188.49 55.9959 187.655 56.8217C186.305 58.1716 182.496 57.4411 181.146 57.0441C180.944 56.9845 180.725 57.006 180.539 57.1041C180.353 57.2022 180.213 57.3689 180.15 57.5681C180.089 57.7703 180.11 57.9879 180.209 58.1748C180.308 58.3616 180.477 58.5029 180.68 58.5686C182.045 58.9521 183.455 59.1602 184.874 59.1879V59.1879Z" fill="#2C3645"/>
<path d="M172.599 44.7366C171.507 44.602 170.778 43.2582 170.97 41.7351C171.162 40.2121 172.204 39.0865 173.296 39.2211C174.388 39.3557 175.117 40.6995 174.925 42.2226C174.733 43.7456 173.692 44.8712 172.599 44.7366Z" fill="#2C3645"/>
<path d="M189.843 43.1321C189.572 41.6207 190.232 40.242 191.316 40.0528C192.399 39.8636 193.497 40.9354 193.767 42.4469C194.038 43.9583 193.378 45.337 192.294 45.5262C191.21 45.7154 190.113 44.6436 189.843 43.1321Z" fill="#2C3645"/>
<path d="M183.283 68.3666C185.359 68.4564 187.415 67.9276 189.183 66.8487C190.951 65.7697 192.35 64.1906 193.199 62.3161C193.247 62.1962 193.263 62.0663 193.246 61.9385C193.229 61.8108 193.18 61.6893 193.102 61.5856C193.029 61.4809 192.93 61.3957 192.815 61.3375C192.7 61.2794 192.573 61.25 192.444 61.2521C174.204 61.2521 174.107 61.3473 173.802 61.6808C173.723 61.7623 173.663 61.8602 173.627 61.9673C173.591 62.0744 173.579 62.1881 173.593 62.3002C173.6 62.439 173.65 62.5723 173.738 62.6813C173.898 62.9036 177.675 68.0172 182.223 68.3348L183.283 68.3666ZM191.126 62.8401C190.187 64.251 188.863 65.3699 187.308 66.067C185.752 66.7641 184.027 67.0109 182.335 66.7785C179.748 66.6038 177.321 64.3805 176.02 62.9672C179.025 62.9036 185.951 62.8719 191.126 62.8719V62.8401Z" fill="#2C3645"/>
<path d="M169.913 71.1926L178.684 71.9753C179.913 72.0849 180.819 73.1546 180.709 74.3644C180.598 75.5742 179.512 76.466 178.284 76.3564L169.513 75.5737C168.284 75.4641 167.378 74.3944 167.488 73.1846C167.599 71.9748 168.684 71.083 169.913 71.1926Z" fill="white"/>
<path d="M379.327 10.498C405.281 10.498 426.333 25.9499 426.333 44.9907C426.333 56.2183 419.021 66.1913 407.707 72.4801L397.197 87.1855V76.8949C391.403 78.6283 385.381 79.5006 379.327 79.4834C353.373 79.4834 332.305 64.0475 332.305 44.9907C332.305 25.934 353.373 10.498 379.327 10.498Z" fill="white"/>
<path d="M397.197 87.9806C397.326 87.9827 397.454 87.9533 397.569 87.8952C397.684 87.837 397.782 87.7518 397.856 87.6471L408.27 73.1322C420.258 66.3512 427.12 56.1241 427.12 44.9918C427.12 25.4904 405.682 9.70508 379.327 9.70508C352.971 9.70508 331.533 25.5857 331.533 44.9918C331.533 64.3979 352.971 80.2785 379.327 80.2785C385.1 80.2736 390.845 79.4718 396.394 77.8964V87.1231C396.393 87.2929 396.447 87.4585 396.548 87.5957C396.649 87.7329 396.792 87.8344 396.956 87.8853C397.029 87.9334 397.111 87.9658 397.197 87.9806V87.9806ZM379.327 11.2931C404.798 11.2931 425.513 26.4115 425.513 44.9918C425.513 55.6636 418.892 65.3508 407.321 71.7983C407.214 71.8494 407.12 71.9257 407.048 72.0206L398.001 84.7251V76.896C397.999 76.7729 397.97 76.6517 397.914 76.5417C397.858 76.4316 397.778 76.3355 397.679 76.2607C397.575 76.1896 397.456 76.1414 397.332 76.1195C397.207 76.0975 397.079 76.1024 396.956 76.1337C391.225 77.8519 385.267 78.7137 379.279 78.6905C353.807 78.6905 333.092 63.5721 333.092 44.9918C333.092 26.4115 353.855 11.2931 379.327 11.2931V11.2931Z" fill="#D1D3D4"/>
<path d="M401.89 48.911C399.671 48.911 397.872 47.1335 397.872 44.9409C397.872 42.7482 399.671 40.9707 401.89 40.9707C404.108 40.9707 405.907 42.7482 405.907 44.9409C405.907 47.1335 404.108 48.911 401.89 48.911Z" fill="#D1D3D4"/>
<path d="M379.327 48.911C377.108 48.911 375.309 47.1335 375.309 44.9409C375.309 42.7482 377.108 40.9707 379.327 40.9707C381.545 40.9707 383.344 42.7482 383.344 44.9409C383.344 47.1335 381.545 48.911 379.327 48.911Z" fill="#D1D3D4"/>
<path d="M356.78 48.911C354.561 48.911 352.762 47.1335 352.762 44.9409C352.762 42.7482 354.561 40.9707 356.78 40.9707C358.999 40.9707 360.797 42.7482 360.797 44.9409C360.797 47.1335 358.999 48.911 356.78 48.911Z" fill="#D1D3D4"/>
<path d="M91.2479 141.29H91.3282C91.5456 141.266 91.7453 141.161 91.8859 140.995C92.0265 140.83 92.0973 140.617 92.0835 140.401C88.8694 103.542 76.0934 90.3772 75.5631 89.8373C75.4041 89.7106 75.2037 89.6458 74.9997 89.6552C74.7956 89.6646 74.6022 89.7475 74.4558 89.8882C74.3094 90.029 74.2202 90.2178 74.2051 90.4191C74.19 90.6204 74.2501 90.8202 74.3739 90.9807C74.5025 91.1078 87.2303 104.368 90.4444 140.544C90.4603 140.745 90.5515 140.933 90.7001 141.071C90.8486 141.209 91.044 141.287 91.2479 141.29Z" fill="white"/>
</svg>
