<svg width="528" height="357" viewBox="0 0 528 357" fill="none" xmlns="http://www.w3.org/2000/svg">
<g clip-path="url(#clip0_271_8242)">
<circle cx="119.443" cy="31.751" r="7.80566" fill="#00B42A"/>
<rect x="118.885" y="44.5741" width="1.11509" height="71.366" stroke="#D6DBE3" stroke-width="1.11509"/>
<circle cx="119.443" cy="128.765" r="6.69057" stroke="#D6DBE3" stroke-width="2.23019"/>
<rect x="118.885" y="141.587" width="1.11509" height="71.366" stroke="#D6DBE3" stroke-width="1.11509"/>
<circle cx="119.443" cy="225.776" r="6.69057" stroke="#D6DBE3" stroke-width="2.23019"/>
<rect x="139.756" y="168.287" width="183.87" height="81.7848" rx="3.3509" fill="white"/>
<rect x="150.766" y="173.553" width="59" height="16" rx="1.573" fill="#E8FFFB"/>
<path d="M156.556 177.689V184.553H155.52V177.689H156.556ZM158.986 181.496V184.553H157.984V179.405H158.946V180.243H159.009C159.128 179.97 159.313 179.751 159.566 179.586C159.82 179.42 160.141 179.338 160.527 179.338C160.878 179.338 161.185 179.411 161.449 179.559C161.713 179.704 161.917 179.921 162.062 180.209C162.208 180.497 162.28 180.854 162.28 181.278V184.553H161.278V181.399C161.278 181.026 161.181 180.734 160.987 180.524C160.792 180.312 160.525 180.206 160.186 180.206C159.953 180.206 159.747 180.256 159.566 180.357C159.387 180.457 159.245 180.605 159.14 180.799C159.037 180.991 158.986 181.224 158.986 181.496ZM166.202 184.553V177.689H168.649C169.183 177.689 169.626 177.786 169.976 177.98C170.327 178.175 170.59 178.441 170.764 178.778C170.938 179.113 171.025 179.491 171.025 179.911C171.025 180.333 170.937 180.713 170.761 181.05C170.586 181.386 170.323 181.651 169.97 181.848C169.619 182.042 169.178 182.14 168.646 182.14H166.963V181.262H168.552C168.889 181.262 169.163 181.203 169.373 181.087C169.583 180.969 169.737 180.808 169.836 180.605C169.934 180.401 169.983 180.17 169.983 179.911C169.983 179.652 169.934 179.421 169.836 179.22C169.737 179.019 169.582 178.862 169.37 178.748C169.16 178.634 168.883 178.577 168.539 178.577H167.238V184.553H166.202ZM172.159 184.553V179.405H173.128V180.223H173.181C173.275 179.945 173.44 179.728 173.677 179.569C173.916 179.408 174.187 179.328 174.488 179.328C174.551 179.328 174.625 179.33 174.71 179.334C174.797 179.339 174.865 179.344 174.914 179.351V180.31C174.874 180.298 174.802 180.286 174.7 180.273C174.597 180.257 174.494 180.249 174.391 180.249C174.154 180.249 173.943 180.3 173.758 180.4C173.575 180.498 173.429 180.636 173.322 180.812C173.215 180.987 173.161 181.186 173.161 181.409V184.553H172.159ZM177.765 184.657C177.283 184.657 176.862 184.546 176.502 184.325C176.142 184.104 175.863 183.794 175.664 183.396C175.465 182.999 175.366 182.534 175.366 182.002C175.366 181.468 175.465 181.001 175.664 180.601C175.863 180.201 176.142 179.891 176.502 179.67C176.862 179.448 177.283 179.338 177.765 179.338C178.248 179.338 178.669 179.448 179.029 179.67C179.389 179.891 179.668 180.201 179.867 180.601C180.066 181.001 180.165 181.468 180.165 182.002C180.165 182.534 180.066 182.999 179.867 183.396C179.668 183.794 179.389 184.104 179.029 184.325C178.669 184.546 178.248 184.657 177.765 184.657ZM177.769 183.815C178.082 183.815 178.341 183.733 178.546 183.567C178.752 183.402 178.904 183.182 179.002 182.907C179.103 182.632 179.153 182.33 179.153 181.999C179.153 181.67 179.103 181.369 179.002 181.094C178.904 180.817 178.752 180.595 178.546 180.427C178.341 180.259 178.082 180.176 177.769 180.176C177.454 180.176 177.192 180.259 176.984 180.427C176.779 180.595 176.626 180.817 176.525 181.094C176.427 181.369 176.378 181.67 176.378 181.999C176.378 182.33 176.427 182.632 176.525 182.907C176.626 183.182 176.779 183.402 176.984 183.567C177.192 183.733 177.454 183.815 177.769 183.815ZM183.442 186.59C183.033 186.59 182.681 186.537 182.386 186.43C182.094 186.322 181.855 186.18 181.669 186.004C181.484 185.827 181.345 185.634 181.253 185.424L182.115 185.069C182.175 185.167 182.256 185.271 182.356 185.381C182.459 185.492 182.597 185.587 182.772 185.665C182.948 185.744 183.175 185.783 183.452 185.783C183.832 185.783 184.146 185.69 184.394 185.505C184.642 185.321 184.766 185.029 184.766 184.626V183.614H184.702C184.642 183.724 184.555 183.846 184.441 183.98C184.329 184.114 184.175 184.23 183.978 184.328C183.782 184.426 183.526 184.476 183.211 184.476C182.804 184.476 182.438 184.381 182.111 184.191C181.788 183.999 181.531 183.716 181.341 183.343C181.153 182.967 181.059 182.506 181.059 181.959C181.059 181.411 181.152 180.942 181.337 180.551C181.525 180.16 181.782 179.861 182.108 179.653C182.434 179.443 182.804 179.338 183.218 179.338C183.537 179.338 183.795 179.391 183.992 179.499C184.188 179.604 184.341 179.726 184.451 179.867C184.563 180.008 184.649 180.132 184.709 180.239H184.783V179.405H185.765V184.667C185.765 185.109 185.662 185.472 185.456 185.756C185.251 186.04 184.973 186.25 184.622 186.386C184.273 186.522 183.88 186.59 183.442 186.59ZM183.432 183.644C183.72 183.644 183.964 183.577 184.163 183.443C184.364 183.307 184.516 183.113 184.618 182.86C184.723 182.605 184.776 182.3 184.776 181.945C184.776 181.599 184.725 181.294 184.622 181.03C184.519 180.767 184.368 180.561 184.169 180.414C183.97 180.264 183.725 180.189 183.432 180.189C183.13 180.189 182.879 180.267 182.678 180.424C182.477 180.578 182.325 180.788 182.222 181.054C182.122 181.32 182.071 181.617 182.071 181.945C182.071 182.283 182.123 182.579 182.225 182.833C182.328 183.088 182.48 183.287 182.681 183.43C182.885 183.573 183.135 183.644 183.432 183.644ZM187.109 184.553V179.405H188.077V180.223H188.131C188.225 179.945 188.39 179.728 188.627 179.569C188.866 179.408 189.136 179.328 189.438 179.328C189.501 179.328 189.574 179.33 189.659 179.334C189.746 179.339 189.814 179.344 189.864 179.351V180.31C189.823 180.298 189.752 180.286 189.649 180.273C189.546 180.257 189.444 180.249 189.341 180.249C189.104 180.249 188.893 180.3 188.707 180.4C188.524 180.498 188.379 180.636 188.272 180.812C188.164 180.987 188.111 181.186 188.111 181.409V184.553H187.109ZM192.765 184.657C192.258 184.657 191.821 184.548 191.455 184.332C191.091 184.113 190.809 183.805 190.61 183.41C190.414 183.012 190.315 182.546 190.315 182.012C190.315 181.485 190.414 181.02 190.61 180.618C190.809 180.216 191.086 179.902 191.441 179.676C191.799 179.451 192.217 179.338 192.695 179.338C192.985 179.338 193.267 179.386 193.539 179.482C193.812 179.578 194.057 179.729 194.273 179.934C194.49 180.14 194.661 180.407 194.786 180.735C194.911 181.062 194.974 181.458 194.974 181.925V182.28H190.882V181.53H193.992C193.992 181.266 193.938 181.032 193.831 180.829C193.724 180.624 193.573 180.462 193.379 180.343C193.186 180.225 192.961 180.166 192.702 180.166C192.42 180.166 192.174 180.235 191.964 180.373C191.756 180.51 191.596 180.688 191.482 180.91C191.37 181.129 191.314 181.367 191.314 181.623V182.21C191.314 182.554 191.374 182.847 191.495 183.088C191.618 183.329 191.789 183.514 192.008 183.641C192.227 183.766 192.483 183.829 192.775 183.829C192.965 183.829 193.138 183.802 193.295 183.748C193.451 183.693 193.586 183.61 193.7 183.5C193.814 183.391 193.901 183.256 193.962 183.095L194.91 183.266C194.834 183.545 194.698 183.79 194.501 184C194.307 184.208 194.062 184.37 193.767 184.486C193.475 184.6 193.141 184.657 192.765 184.657ZM199.943 180.662L199.035 180.822C198.997 180.706 198.937 180.596 198.854 180.491C198.774 180.386 198.664 180.3 198.526 180.233C198.387 180.166 198.214 180.132 198.006 180.132C197.722 180.132 197.486 180.196 197.296 180.323C197.106 180.448 197.011 180.61 197.011 180.809C197.011 180.981 197.075 181.12 197.202 181.225C197.329 181.33 197.535 181.416 197.819 181.483L198.636 181.67C199.11 181.78 199.463 181.949 199.695 182.176C199.928 182.404 200.044 182.7 200.044 183.065C200.044 183.373 199.955 183.648 199.776 183.889C199.599 184.128 199.352 184.316 199.035 184.452C198.72 184.588 198.355 184.657 197.939 184.657C197.363 184.657 196.892 184.534 196.528 184.288C196.164 184.04 195.941 183.688 195.858 183.232L196.827 183.085C196.887 183.337 197.011 183.528 197.199 183.658C197.386 183.785 197.631 183.849 197.933 183.849C198.261 183.849 198.524 183.781 198.72 183.644C198.917 183.506 199.015 183.337 199.015 183.138C199.015 182.978 198.955 182.842 198.834 182.733C198.716 182.623 198.534 182.541 198.288 182.485L197.416 182.294C196.936 182.184 196.581 182.01 196.351 181.771C196.123 181.532 196.009 181.229 196.009 180.863C196.009 180.559 196.094 180.293 196.263 180.065C196.433 179.837 196.668 179.659 196.967 179.532C197.267 179.403 197.61 179.338 197.996 179.338C198.553 179.338 198.991 179.458 199.31 179.7C199.63 179.939 199.841 180.259 199.943 180.662ZM205.003 180.662L204.095 180.822C204.057 180.706 203.997 180.596 203.914 180.491C203.834 180.386 203.724 180.3 203.586 180.233C203.447 180.166 203.274 180.132 203.066 180.132C202.783 180.132 202.546 180.196 202.356 180.323C202.166 180.448 202.071 180.61 202.071 180.809C202.071 180.981 202.135 181.12 202.262 181.225C202.389 181.33 202.595 181.416 202.879 181.483L203.696 181.67C204.17 181.78 204.523 181.949 204.755 182.176C204.988 182.404 205.104 182.7 205.104 183.065C205.104 183.373 205.015 183.648 204.836 183.889C204.659 184.128 204.412 184.316 204.095 184.452C203.78 184.588 203.415 184.657 202.999 184.657C202.423 184.657 201.952 184.534 201.588 184.288C201.224 184.04 201.001 183.688 200.918 183.232L201.887 183.085C201.947 183.337 202.071 183.528 202.259 183.658C202.446 183.785 202.691 183.849 202.993 183.849C203.321 183.849 203.584 183.781 203.78 183.644C203.977 183.506 204.075 183.337 204.075 183.138C204.075 182.978 204.015 182.842 203.894 182.733C203.776 182.623 203.594 182.541 203.348 182.485L202.476 182.294C201.996 182.184 201.641 182.01 201.411 181.771C201.183 181.532 201.069 181.229 201.069 180.863C201.069 180.559 201.154 180.293 201.323 180.065C201.493 179.837 201.728 179.659 202.027 179.532C202.327 179.403 202.67 179.338 203.056 179.338C203.613 179.338 204.051 179.458 204.37 179.7C204.69 179.939 204.901 180.259 205.003 180.662Z" fill="#0FBFC4"/>
<rect x="150.766" y="198.17" width="154" height="8" rx="1.9148" fill="#EBEDF1"/>
<rect x="150.766" y="214.785" width="141" height="8" rx="1.9148" fill="#EBEDF1"/>
<rect x="150.766" y="231.402" width="45.9552" height="7.6592" rx="1.9148" fill="#EBEDF1"/>
<rect x="139.756" y="168.287" width="183.87" height="81.7848" rx="3.3509" stroke="#E3E6EB" stroke-width="0.9574"/>
<rect x="139.756" y="258.803" width="183.87" height="81.7848" rx="3.3509" fill="white"/>
<rect x="150.766" y="264.068" width="61" height="16" rx="1.573" fill="#EBEDF1"/>
<path d="M161.06 268.204V275.068H160.108L156.62 270.034H156.556V275.068H155.52V268.204H156.479L159.971 273.245H160.035V268.204H161.06ZM164.659 275.172C164.176 275.172 163.755 275.062 163.396 274.84C163.036 274.619 162.757 274.31 162.558 273.912C162.359 273.514 162.259 273.05 162.259 272.518C162.259 271.984 162.359 271.517 162.558 271.117C162.757 270.717 163.036 270.406 163.396 270.185C163.755 269.964 164.176 269.853 164.659 269.853C165.142 269.853 165.563 269.964 165.923 270.185C166.282 270.406 166.562 270.717 166.761 271.117C166.959 271.517 167.059 271.984 167.059 272.518C167.059 273.05 166.959 273.514 166.761 273.912C166.562 274.31 166.282 274.619 165.923 274.84C165.563 275.062 165.142 275.172 164.659 275.172ZM164.662 274.331C164.975 274.331 165.234 274.248 165.44 274.083C165.646 273.918 165.797 273.698 165.896 273.423C165.996 273.148 166.047 272.845 166.047 272.514C166.047 272.186 165.996 271.884 165.896 271.61C165.797 271.332 165.646 271.11 165.44 270.943C165.234 270.775 164.975 270.691 164.662 270.691C164.347 270.691 164.086 270.775 163.878 270.943C163.673 271.11 163.52 271.332 163.419 271.61C163.321 271.884 163.272 272.186 163.272 272.514C163.272 272.845 163.321 273.148 163.419 273.423C163.52 273.698 163.673 273.918 163.878 274.083C164.086 274.248 164.347 274.331 164.662 274.331ZM170.58 269.92V270.725H167.768V269.92H170.58ZM168.523 268.687H169.525V273.557C169.525 273.751 169.554 273.898 169.612 273.996C169.67 274.092 169.745 274.158 169.836 274.194C169.93 274.227 170.032 274.244 170.141 274.244C170.222 274.244 170.292 274.238 170.353 274.227C170.413 274.216 170.46 274.207 170.493 274.2L170.674 275.028C170.616 275.05 170.534 275.073 170.426 275.095C170.319 275.12 170.185 275.133 170.024 275.135C169.76 275.14 169.515 275.093 169.287 274.995C169.059 274.896 168.875 274.744 168.734 274.539C168.593 274.333 168.523 274.075 168.523 273.765V268.687ZM178.011 270.008C177.975 269.69 177.828 269.444 177.568 269.27C177.309 269.094 176.983 269.005 176.59 269.005C176.308 269.005 176.065 269.05 175.859 269.139C175.654 269.227 175.494 269.347 175.38 269.501C175.268 269.653 175.212 269.827 175.212 270.021C175.212 270.184 175.25 270.325 175.326 270.443C175.404 270.562 175.506 270.661 175.631 270.741C175.759 270.82 175.895 270.886 176.04 270.939C176.185 270.991 176.325 271.033 176.459 271.067L177.129 271.241C177.348 271.295 177.573 271.367 177.803 271.459C178.033 271.55 178.247 271.671 178.443 271.821C178.64 271.97 178.798 272.156 178.919 272.377C179.042 272.598 179.103 272.863 179.103 273.171C179.103 273.56 179.003 273.905 178.802 274.207C178.603 274.509 178.314 274.747 177.934 274.921C177.556 275.095 177.099 275.182 176.563 275.182C176.049 275.182 175.604 275.101 175.229 274.938C174.854 274.775 174.56 274.543 174.348 274.244C174.135 273.942 174.018 273.585 173.996 273.171H175.035C175.055 273.419 175.135 273.626 175.276 273.791C175.419 273.955 175.601 274.076 175.822 274.157C176.046 274.235 176.29 274.274 176.556 274.274C176.849 274.274 177.109 274.228 177.337 274.137C177.567 274.043 177.748 273.913 177.88 273.748C178.012 273.58 178.078 273.385 178.078 273.161C178.078 272.958 178.02 272.792 177.904 272.662C177.79 272.532 177.634 272.425 177.438 272.34C177.243 272.255 177.023 272.18 176.777 272.116L175.966 271.894C175.417 271.745 174.981 271.525 174.659 271.234C174.34 270.944 174.18 270.559 174.18 270.081C174.18 269.686 174.287 269.341 174.502 269.046C174.716 268.751 175.007 268.522 175.373 268.359C175.74 268.193 176.153 268.111 176.613 268.111C177.078 268.111 177.488 268.192 177.843 268.355C178.201 268.518 178.482 268.743 178.688 269.029C178.893 269.313 179.001 269.639 179.01 270.008H178.011ZM182.664 269.92V270.725H179.852V269.92H182.664ZM180.606 268.687H181.608V273.557C181.608 273.751 181.637 273.898 181.695 273.996C181.753 274.092 181.828 274.158 181.92 274.194C182.013 274.227 182.115 274.244 182.225 274.244C182.305 274.244 182.375 274.238 182.436 274.227C182.496 274.216 182.543 274.207 182.577 274.2L182.758 275.028C182.699 275.05 182.617 275.073 182.509 275.095C182.402 275.12 182.268 275.133 182.107 275.135C181.844 275.14 181.598 275.093 181.37 274.995C181.142 274.896 180.958 274.744 180.817 274.539C180.676 274.333 180.606 274.075 180.606 273.765V268.687ZM185.27 275.182C184.944 275.182 184.649 275.122 184.386 275.001C184.122 274.878 183.913 274.701 183.759 274.468C183.607 274.236 183.531 273.951 183.531 273.614C183.531 273.323 183.587 273.084 183.698 272.897C183.81 272.709 183.961 272.56 184.151 272.451C184.341 272.341 184.553 272.259 184.788 272.203C185.022 272.147 185.261 272.104 185.505 272.075C185.813 272.04 186.064 272.011 186.256 271.988C186.448 271.964 186.588 271.925 186.675 271.871C186.762 271.817 186.805 271.73 186.805 271.61V271.586C186.805 271.293 186.723 271.067 186.557 270.906C186.394 270.745 186.151 270.664 185.827 270.664C185.489 270.664 185.223 270.739 185.029 270.889C184.837 271.036 184.704 271.201 184.63 271.382L183.688 271.167C183.8 270.854 183.963 270.602 184.178 270.41C184.394 270.215 184.644 270.075 184.925 269.987C185.207 269.898 185.503 269.853 185.813 269.853C186.019 269.853 186.237 269.878 186.467 269.927C186.699 269.974 186.916 270.061 187.117 270.188C187.32 270.316 187.487 270.498 187.616 270.735C187.746 270.969 187.811 271.274 187.811 271.65V275.068H186.832V274.365H186.792C186.727 274.494 186.63 274.621 186.5 274.747C186.371 274.872 186.204 274.976 186.001 275.058C185.798 275.141 185.554 275.182 185.27 275.182ZM185.488 274.378C185.765 274.378 186.002 274.323 186.199 274.214C186.398 274.104 186.548 273.961 186.651 273.785C186.756 273.606 186.809 273.415 186.809 273.212V272.548C186.773 272.584 186.704 272.617 186.601 272.649C186.5 272.678 186.385 272.703 186.256 272.726C186.126 272.746 186 272.765 185.877 272.783C185.754 272.798 185.651 272.812 185.569 272.823C185.374 272.847 185.197 272.889 185.036 272.947C184.877 273.005 184.75 273.089 184.654 273.198C184.56 273.305 184.513 273.448 184.513 273.627C184.513 273.875 184.604 274.063 184.788 274.19C184.971 274.315 185.204 274.378 185.488 274.378ZM189.146 275.068V269.92H190.114V270.738H190.168C190.262 270.461 190.427 270.243 190.664 270.085C190.903 269.924 191.173 269.843 191.475 269.843C191.537 269.843 191.611 269.846 191.696 269.85C191.783 269.854 191.851 269.86 191.901 269.867V270.825C191.86 270.814 191.789 270.802 191.686 270.788C191.583 270.773 191.48 270.765 191.378 270.765C191.141 270.765 190.93 270.815 190.744 270.916C190.561 271.014 190.416 271.152 190.309 271.328C190.201 271.502 190.148 271.701 190.148 271.925V275.068H189.146ZM195.475 269.92V270.725H192.663V269.92H195.475ZM193.417 268.687H194.419V273.557C194.419 273.751 194.448 273.898 194.506 273.996C194.564 274.092 194.639 274.158 194.731 274.194C194.825 274.227 194.926 274.244 195.036 274.244C195.116 274.244 195.187 274.238 195.247 274.227C195.307 274.216 195.354 274.207 195.388 274.2L195.569 275.028C195.511 275.05 195.428 275.073 195.321 275.095C195.214 275.12 195.08 275.133 194.919 275.135C194.655 275.14 194.409 275.093 194.181 274.995C193.953 274.896 193.769 274.744 193.628 274.539C193.488 274.333 193.417 274.075 193.417 273.765V268.687ZM198.747 275.172C198.24 275.172 197.803 275.064 197.436 274.847C197.072 274.628 196.791 274.321 196.592 273.925C196.395 273.528 196.297 273.062 196.297 272.528C196.297 272.001 196.395 271.536 196.592 271.134C196.791 270.731 197.068 270.418 197.423 270.192C197.781 269.966 198.198 269.853 198.677 269.853C198.967 269.853 199.249 269.901 199.521 269.997C199.794 270.094 200.038 270.244 200.255 270.45C200.472 270.655 200.643 270.922 200.768 271.251C200.893 271.577 200.956 271.974 200.956 272.441V272.796H196.863V272.045H199.974C199.974 271.782 199.92 271.548 199.813 271.345C199.706 271.139 199.555 270.977 199.36 270.859C199.168 270.74 198.942 270.681 198.683 270.681C198.402 270.681 198.156 270.75 197.946 270.889C197.738 271.025 197.577 271.204 197.463 271.425C197.352 271.644 197.296 271.882 197.296 272.139V272.726C197.296 273.07 197.356 273.362 197.477 273.604C197.6 273.845 197.771 274.029 197.99 274.157C198.208 274.282 198.464 274.344 198.757 274.344C198.947 274.344 199.12 274.318 199.277 274.264C199.433 274.208 199.568 274.125 199.682 274.016C199.796 273.906 199.883 273.771 199.943 273.61L200.892 273.781C200.816 274.061 200.68 274.305 200.483 274.515C200.289 274.723 200.044 274.885 199.749 275.001C199.456 275.115 199.122 275.172 198.747 275.172ZM203.995 275.169C203.579 275.169 203.208 275.063 202.882 274.851C202.558 274.636 202.303 274.331 202.118 273.936C201.935 273.538 201.843 273.061 201.843 272.504C201.843 271.948 201.936 271.472 202.121 271.077C202.309 270.681 202.566 270.378 202.892 270.168C203.218 269.958 203.588 269.853 204.001 269.853C204.321 269.853 204.578 269.907 204.772 270.014C204.969 270.119 205.121 270.242 205.228 270.383C205.338 270.524 205.422 270.648 205.483 270.755H205.543V268.204H206.545V275.068H205.567V274.267H205.483C205.422 274.377 205.335 274.502 205.221 274.643C205.11 274.783 204.955 274.906 204.759 275.011C204.562 275.116 204.307 275.169 203.995 275.169ZM204.216 274.314C204.504 274.314 204.748 274.238 204.947 274.086C205.148 273.932 205.3 273.719 205.402 273.446C205.507 273.174 205.56 272.856 205.56 272.494C205.56 272.137 205.508 271.824 205.406 271.556C205.303 271.288 205.152 271.079 204.953 270.929C204.754 270.779 204.509 270.705 204.216 270.705C203.914 270.705 203.663 270.783 203.462 270.939C203.261 271.096 203.109 271.309 203.006 271.579C202.905 271.85 202.855 272.155 202.855 272.494C202.855 272.838 202.907 273.148 203.009 273.423C203.112 273.698 203.264 273.915 203.465 274.076C203.668 274.235 203.919 274.314 204.216 274.314Z" fill="#2C3645"/>
<rect x="150.766" y="288.686" width="151" height="8" rx="1.9148" fill="#EBEDF1"/>
<rect x="150.766" y="305.301" width="138" height="8" rx="1.9148" fill="#EBEDF1"/>
<rect x="150.766" y="321.918" width="45.9552" height="7.6592" rx="1.9148" fill="#EBEDF1"/>
<rect x="139.756" y="258.803" width="183.87" height="81.7848" rx="3.3509" stroke="#E3E6EB" stroke-width="0.9574"/>
<path d="M31.226 133.194C30.6393 133.194 30.1154 133.093 29.654 132.891C29.1956 132.688 28.8325 132.408 28.5648 132.049C28.3 131.687 28.1576 131.269 28.1376 130.793H29.4789C29.496 131.052 29.5828 131.277 29.7395 131.468C29.8989 131.656 30.1068 131.801 30.3631 131.904C30.6194 132.006 30.9042 132.058 31.2174 132.058C31.562 132.058 31.8667 131.998 32.1315 131.878C32.3992 131.759 32.6085 131.592 32.7595 131.378C32.9104 131.162 32.9858 130.913 32.9858 130.631C32.9858 130.338 32.9104 130.08 32.7595 129.858C32.6114 129.633 32.3935 129.456 32.1059 129.328C31.8211 129.2 31.4766 129.136 31.0722 129.136H30.3332V128.059H31.0722C31.3968 128.059 31.6816 128.001 31.9265 127.884C32.1742 127.768 32.3679 127.605 32.5074 127.397C32.647 127.187 32.7167 126.94 32.7167 126.658C32.7167 126.388 32.6555 126.153 32.5331 125.954C32.4135 125.751 32.2426 125.593 32.0205 125.479C31.8012 125.366 31.5421 125.309 31.2431 125.309C30.9583 125.309 30.692 125.361 30.4443 125.467C30.1994 125.569 30 125.717 29.8463 125.911C29.6925 126.102 29.6099 126.331 29.5985 126.599H28.3213C28.3356 126.126 28.4751 125.71 28.7399 125.351C29.0076 124.992 29.3607 124.712 29.7993 124.51C30.2378 124.308 30.7248 124.207 31.2601 124.207C31.8211 124.207 32.3052 124.316 32.7125 124.535C33.1225 124.752 33.4386 125.041 33.6607 125.403C33.8857 125.764 33.9968 126.16 33.9939 126.59C33.9968 127.08 33.8601 127.496 33.5839 127.837C33.3105 128.179 32.946 128.408 32.4903 128.525V128.593C33.0713 128.682 33.5212 128.912 33.8401 129.285C34.1619 129.658 34.3214 130.121 34.3186 130.674C34.3214 131.155 34.1876 131.586 33.917 131.968C33.6494 132.349 33.2834 132.65 32.8193 132.869C32.3551 133.086 31.824 133.194 31.226 133.194ZM40.5561 133.074L38.6253 126.513H39.9452L41.231 131.331H41.2951L42.5851 126.513H43.905L45.1864 131.31H45.2505L46.5277 126.513H47.8476L45.9211 133.074H44.6183L43.2856 128.337H43.1873L41.8546 133.074H40.5561ZM51.6877 133.207C51.0413 133.207 50.4846 133.069 50.0175 132.792C49.5534 132.513 49.1946 132.122 48.9411 131.618C48.6905 131.111 48.5652 130.517 48.5652 129.836C48.5652 129.164 48.6905 128.572 48.9411 128.059C49.1946 127.547 49.5477 127.147 50.0004 126.859C50.4561 126.572 50.9886 126.428 51.598 126.428C51.9682 126.428 52.327 126.489 52.6744 126.611C53.0218 126.734 53.3337 126.926 53.6099 127.188C53.8861 127.45 54.104 127.79 54.2634 128.209C54.4229 128.625 54.5027 129.13 54.5027 129.725V130.178H49.2871V129.221H53.2511C53.2511 128.885 53.1827 128.588 53.0461 128.329C52.9094 128.067 52.7171 127.86 52.4694 127.709C52.2245 127.558 51.9369 127.483 51.6065 127.483C51.2477 127.483 50.9345 127.571 50.6668 127.748C50.402 127.921 50.1969 128.149 50.0517 128.431C49.9093 128.71 49.8381 129.013 49.8381 129.341V130.088C49.8381 130.527 49.915 130.9 50.0688 131.208C50.2254 131.515 50.4433 131.75 50.7223 131.912C51.0014 132.072 51.3275 132.152 51.7005 132.152C51.9426 132.152 52.1633 132.117 52.3626 132.049C52.5619 131.978 52.7342 131.872 52.8795 131.733C53.0247 131.593 53.1358 131.421 53.2126 131.216L54.4215 131.434C54.3247 131.79 54.151 132.102 53.9004 132.369C53.6526 132.634 53.3408 132.841 52.9649 132.989C52.5918 133.134 52.1661 133.207 51.6877 133.207ZM58.7475 133.207C58.1011 133.207 57.5443 133.069 57.0773 132.792C56.6131 132.513 56.2543 132.122 56.0009 131.618C55.7503 131.111 55.625 130.517 55.625 129.836C55.625 129.164 55.7503 128.572 56.0009 128.059C56.2543 127.547 56.6075 127.147 57.0602 126.859C57.5159 126.572 58.0484 126.428 58.6578 126.428C59.028 126.428 59.3868 126.489 59.7342 126.611C60.0816 126.734 60.3935 126.926 60.6697 127.188C60.9459 127.45 61.1638 127.79 61.3232 128.209C61.4827 128.625 61.5624 129.13 61.5624 129.725V130.178H56.3469V129.221H60.3109C60.3109 128.885 60.2425 128.588 60.1058 128.329C59.9692 128.067 59.7769 127.86 59.5292 127.709C59.2843 127.558 58.9967 127.483 58.6663 127.483C58.3075 127.483 57.9943 127.571 57.7266 127.748C57.4618 127.921 57.2567 128.149 57.1115 128.431C56.9691 128.71 56.8979 129.013 56.8979 129.341V130.088C56.8979 130.527 56.9748 130.9 57.1286 131.208C57.2852 131.515 57.503 131.75 57.7821 131.912C58.0612 132.072 58.3873 132.152 58.7603 132.152C59.0024 132.152 59.2231 132.117 59.4224 132.049C59.6217 131.978 59.794 131.872 59.9393 131.733C60.0845 131.593 60.1955 131.421 60.2724 131.216L61.4813 131.434C61.3845 131.79 61.2107 132.102 60.9601 132.369C60.7124 132.634 60.4006 132.841 60.0247 132.989C59.6516 133.134 59.2259 133.207 58.7475 133.207ZM64.1542 130.849L64.1457 129.29H64.3678L66.982 126.513H68.5112L65.5296 129.674H65.3289L64.1542 130.849ZM62.9795 133.074V124.326H64.2567V133.074H62.9795ZM67.1229 133.074L64.7736 129.956L65.6535 129.063L68.6906 133.074H67.1229ZM74.5917 128.115L73.4341 128.32C73.3857 128.172 73.3088 128.031 73.2034 127.897C73.1009 127.763 72.9614 127.654 72.7848 127.568C72.6083 127.483 72.3876 127.44 72.1227 127.44C71.7611 127.44 71.4592 127.521 71.2172 127.684C70.9751 127.843 70.8541 128.049 70.8541 128.303C70.8541 128.522 70.9353 128.699 71.0976 128.833C71.2599 128.966 71.5219 129.076 71.8835 129.161L72.9258 129.401C73.5295 129.54 73.9794 129.755 74.2756 130.046C74.5718 130.336 74.7198 130.713 74.7198 131.178C74.7198 131.571 74.6059 131.921 74.3781 132.228C74.1532 132.533 73.8385 132.772 73.4341 132.946C73.0326 133.12 72.567 133.207 72.0373 133.207C71.3026 133.207 70.7032 133.05 70.239 132.737C69.7748 132.421 69.4901 131.972 69.3847 131.391L70.6192 131.203C70.6961 131.525 70.8541 131.769 71.0933 131.934C71.3325 132.096 71.6443 132.177 72.0288 132.177C72.4474 132.177 72.782 132.09 73.0326 131.917C73.2832 131.74 73.4085 131.525 73.4085 131.272C73.4085 131.067 73.3316 130.894 73.1778 130.755C73.0269 130.615 72.7948 130.51 72.4816 130.439L71.371 130.195C70.7587 130.056 70.3059 129.834 70.0126 129.529C69.7221 129.224 69.5769 128.838 69.5769 128.371C69.5769 127.984 69.6851 127.645 69.9015 127.355C70.118 127.064 70.417 126.838 70.7986 126.675C71.1802 126.51 71.6173 126.428 72.1099 126.428C72.819 126.428 73.3772 126.581 73.7844 126.889C74.1916 127.194 74.4607 127.602 74.5917 128.115ZM81.2169 133.219C80.8011 133.219 80.4252 133.143 80.0892 132.989C79.7531 132.832 79.4869 132.606 79.2904 132.31C79.0967 132.013 78.9999 131.65 78.9999 131.22C78.9999 130.85 79.0711 130.545 79.2135 130.306C79.3559 130.067 79.5481 129.878 79.7902 129.738C80.0322 129.599 80.3027 129.493 80.6018 129.422C80.9008 129.351 81.2055 129.297 81.5159 129.26C81.9088 129.214 82.2278 129.177 82.4727 129.149C82.7176 129.117 82.8956 129.068 83.0066 128.999C83.1177 128.931 83.1732 128.82 83.1732 128.666V128.636C83.1732 128.263 83.0679 127.974 82.8571 127.769C82.6492 127.564 82.3388 127.461 81.9259 127.461C81.4959 127.461 81.1571 127.557 80.9093 127.748C80.6644 127.936 80.495 128.145 80.401 128.376L79.2007 128.102C79.3431 127.703 79.551 127.382 79.8243 127.137C80.1006 126.889 80.4181 126.71 80.7769 126.599C81.1357 126.485 81.513 126.428 81.9088 126.428C82.1708 126.428 82.4485 126.459 82.7418 126.522C83.038 126.581 83.3142 126.693 83.5705 126.855C83.8296 127.017 84.0418 127.249 84.2069 127.551C84.3721 127.85 84.4547 128.239 84.4547 128.717V133.074H83.2074V132.177H83.1561C83.0736 132.342 82.9497 132.505 82.7845 132.664C82.6193 132.824 82.4072 132.956 82.1481 133.061C81.8889 133.167 81.5785 133.219 81.2169 133.219ZM81.4945 132.194C81.8476 132.194 82.1495 132.125 82.4001 131.985C82.6535 131.845 82.8457 131.663 82.9767 131.438C83.1106 131.21 83.1775 130.967 83.1775 130.708V129.862C83.1319 129.908 83.0437 129.95 82.9127 129.99C82.7845 130.027 82.6379 130.06 82.4727 130.088C82.3075 130.114 82.1466 130.138 81.99 130.161C81.8334 130.181 81.7024 130.198 81.597 130.212C81.3493 130.244 81.1229 130.296 80.9178 130.37C80.7157 130.444 80.5533 130.551 80.4309 130.691C80.3113 130.827 80.2515 131.01 80.2515 131.237C80.2515 131.554 80.3682 131.793 80.6018 131.955C80.8353 132.115 81.1328 132.194 81.4945 132.194ZM88.9067 135.671C88.3856 135.671 87.9371 135.603 87.5612 135.466C87.1881 135.33 86.8834 135.149 86.647 134.924C86.4107 134.699 86.2341 134.453 86.1174 134.185L87.2152 133.732C87.292 133.857 87.3946 133.99 87.5227 134.129C87.6537 134.272 87.8303 134.393 88.0524 134.492C88.2774 134.592 88.5664 134.642 88.9195 134.642C89.4036 134.642 89.8037 134.524 90.1198 134.287C90.4359 134.054 90.5939 133.681 90.5939 133.168V131.878H90.5128C90.4359 132.018 90.3248 132.173 90.1796 132.344C90.0372 132.515 89.8407 132.663 89.5901 132.788C89.3395 132.913 89.0135 132.976 88.612 132.976C88.0937 132.976 87.6267 132.855 87.2109 132.613C86.798 132.368 86.4705 132.008 86.2284 131.532C85.9892 131.054 85.8696 130.466 85.8696 129.768C85.8696 129.07 85.9878 128.472 86.2242 127.974C86.4634 127.476 86.7909 127.094 87.2066 126.829C87.6224 126.562 88.0937 126.428 88.6205 126.428C89.0277 126.428 89.3566 126.496 89.6072 126.633C89.8578 126.767 90.0529 126.923 90.1924 127.103C90.3348 127.282 90.4444 127.44 90.5213 127.577H90.6153V126.513H91.8669V133.219C91.8669 133.783 91.7359 134.246 91.4739 134.608C91.2119 134.969 90.8574 135.237 90.4103 135.411C89.966 135.584 89.4648 135.671 88.9067 135.671ZM88.8939 131.917C89.2612 131.917 89.5716 131.831 89.8251 131.66C90.0814 131.487 90.275 131.239 90.406 130.917C90.5398 130.592 90.6068 130.204 90.6068 129.751C90.6068 129.31 90.5413 128.921 90.4103 128.585C90.2793 128.249 90.0871 127.987 89.8336 127.799C89.5802 127.608 89.2669 127.513 88.8939 127.513C88.5094 127.513 88.1891 127.612 87.9328 127.812C87.6765 128.008 87.4828 128.276 87.3519 128.615C87.2237 128.954 87.1596 129.332 87.1596 129.751C87.1596 130.181 87.2251 130.558 87.3561 130.883C87.4871 131.208 87.6808 131.461 87.9371 131.643C88.1962 131.826 88.5151 131.917 88.8939 131.917ZM96.3434 133.207C95.7283 133.207 95.1915 133.066 94.7331 132.784C94.2746 132.502 93.9186 132.107 93.6652 131.601C93.4117 131.094 93.285 130.501 93.285 129.824C93.285 129.143 93.4117 128.548 93.6652 128.038C93.9186 127.528 94.2746 127.133 94.7331 126.851C95.1915 126.569 95.7283 126.428 96.3434 126.428C96.9585 126.428 97.4953 126.569 97.9538 126.851C98.4123 127.133 98.7683 127.528 99.0217 128.038C99.2751 128.548 99.4019 129.143 99.4019 129.824C99.4019 130.501 99.2751 131.094 99.0217 131.601C98.7683 132.107 98.4123 132.502 97.9538 132.784C97.4953 133.066 96.9585 133.207 96.3434 133.207ZM96.3477 132.134C96.7464 132.134 97.0767 132.029 97.3387 131.818C97.6007 131.608 97.7943 131.327 97.9196 130.977C98.0478 130.627 98.1119 130.241 98.1119 129.819C98.1119 129.401 98.0478 129.016 97.9196 128.666C97.7943 128.313 97.6007 128.03 97.3387 127.816C97.0767 127.602 96.7464 127.496 96.3477 127.496C95.9462 127.496 95.613 127.602 95.3482 127.816C95.0862 128.03 94.8911 128.313 94.763 128.666C94.6377 129.016 94.575 129.401 94.575 129.819C94.575 130.241 94.6377 130.627 94.763 130.977C94.8911 131.327 95.0862 131.608 95.3482 131.818C95.613 132.029 95.9462 132.134 96.3477 132.134Z" fill="#4B5B76"/>
<path d="M24.4959 230.467C23.9092 230.467 23.3853 230.366 22.9239 230.164C22.4655 229.962 22.1024 229.681 21.8347 229.322C21.5699 228.961 21.4275 228.542 21.4075 228.067H22.7488C22.7659 228.326 22.8527 228.551 23.0094 228.742C23.1688 228.93 23.3767 229.075 23.633 229.177C23.8893 229.28 24.1741 229.331 24.4873 229.331C24.8319 229.331 25.1366 229.271 25.4014 229.152C25.6691 229.032 25.8784 228.865 26.0293 228.652C26.1803 228.435 26.2557 228.186 26.2557 227.904C26.2557 227.611 26.1803 227.353 26.0293 227.131C25.8813 226.906 25.6634 226.73 25.3758 226.602C25.091 226.473 24.7465 226.409 24.3421 226.409H23.6031V225.333H24.3421C24.6667 225.333 24.9515 225.274 25.1964 225.158C25.4441 225.041 25.6378 224.879 25.7773 224.671C25.9169 224.46 25.9866 224.214 25.9866 223.932C25.9866 223.661 25.9254 223.426 25.803 223.227C25.6834 223.025 25.5125 222.867 25.2904 222.753C25.0711 222.639 24.812 222.582 24.513 222.582C24.2282 222.582 23.9619 222.635 23.7142 222.74C23.4693 222.843 23.2699 222.991 23.1162 223.184C22.9624 223.375 22.8798 223.604 22.8684 223.872H21.5912C21.6055 223.399 21.745 222.984 22.0098 222.625C22.2775 222.266 22.6306 221.985 23.0692 221.783C23.5077 221.581 23.9947 221.48 24.53 221.48C25.091 221.48 25.5751 221.59 25.9824 221.809C26.3924 222.025 26.7085 222.314 26.9306 222.676C27.1556 223.038 27.2667 223.433 27.2638 223.863C27.2667 224.353 27.13 224.769 26.8538 225.111C26.5804 225.452 26.2159 225.682 25.7602 225.798V225.867C26.3412 225.955 26.7911 226.186 27.11 226.559C27.4318 226.932 27.5913 227.395 27.5885 227.947C27.5913 228.428 27.4575 228.86 27.1869 229.241C26.9193 229.623 26.5533 229.923 26.0891 230.143C25.625 230.359 25.0939 230.467 24.4959 230.467ZM32.4036 230.348V223.787H33.6295V224.854H33.7106C33.8473 224.493 34.0709 224.211 34.3813 224.009C34.6917 223.804 35.0633 223.701 35.4961 223.701C35.9347 223.701 36.302 223.804 36.5982 224.009C36.8972 224.214 37.1179 224.496 37.2603 224.854H37.3286C37.4853 224.504 37.7344 224.225 38.0762 224.017C38.4179 223.807 38.8251 223.701 39.2978 223.701C39.893 223.701 40.3785 223.888 40.7544 224.261C41.1332 224.634 41.3225 225.196 41.3225 225.948V230.348H40.0453V226.068C40.0453 225.623 39.9243 225.302 39.6823 225.102C39.4402 224.903 39.1512 224.803 38.8151 224.803C38.3994 224.803 38.0762 224.931 37.8455 225.188C37.6148 225.441 37.4995 225.767 37.4995 226.166V230.348H36.2266V225.986C36.2266 225.63 36.1155 225.344 35.8934 225.128C35.6713 224.911 35.3822 224.803 35.0263 224.803C34.7842 224.803 34.5607 224.867 34.3556 224.995C34.1535 225.121 33.9897 225.296 33.8644 225.521C33.742 225.746 33.6807 226.006 33.6807 226.303V230.348H32.4036ZM45.798 230.48C45.1829 230.48 44.6461 230.339 44.1877 230.057C43.7292 229.775 43.3732 229.381 43.1198 228.874C42.8663 228.367 42.7396 227.775 42.7396 227.097C42.7396 226.416 42.8663 225.821 43.1198 225.312C43.3732 224.802 43.7292 224.406 44.1877 224.124C44.6461 223.842 45.1829 223.701 45.798 223.701C46.4131 223.701 46.9499 223.842 47.4084 224.124C47.8669 224.406 48.2228 224.802 48.4763 225.312C48.7297 225.821 48.8565 226.416 48.8565 227.097C48.8565 227.775 48.7297 228.367 48.4763 228.874C48.2228 229.381 47.8669 229.775 47.4084 230.057C46.9499 230.339 46.4131 230.48 45.798 230.48ZM45.8023 229.408C46.201 229.408 46.5313 229.303 46.7933 229.092C47.0553 228.881 47.2489 228.601 47.3742 228.25C47.5024 227.9 47.5664 227.514 47.5664 227.093C47.5664 226.674 47.5024 226.29 47.3742 225.939C47.2489 225.586 47.0553 225.303 46.7933 225.089C46.5313 224.876 46.201 224.769 45.8023 224.769C45.4008 224.769 45.0676 224.876 44.8028 225.089C44.5408 225.303 44.3457 225.586 44.2176 225.939C44.0923 226.29 44.0296 226.674 44.0296 227.093C44.0296 227.514 44.0923 227.9 44.2176 228.25C44.3457 228.601 44.5408 228.881 44.8028 229.092C45.0676 229.303 45.4008 229.408 45.8023 229.408ZM51.5593 226.452V230.348H50.2821V223.787H51.508V224.854H51.5892C51.7401 224.507 51.9765 224.228 52.2982 224.017C52.6229 223.807 53.0315 223.701 53.5242 223.701C53.9713 223.701 54.3628 223.795 54.6988 223.983C55.0349 224.168 55.2954 224.444 55.4805 224.812C55.6656 225.179 55.7582 225.633 55.7582 226.174V230.348H54.481V226.328C54.481 225.853 54.3571 225.481 54.1094 225.213C53.8616 224.943 53.5213 224.807 53.0885 224.807C52.7923 224.807 52.5289 224.872 52.2982 225C52.0704 225.128 51.8896 225.316 51.7558 225.564C51.6248 225.808 51.5593 226.105 51.5593 226.452ZM60.5338 223.787V224.812H56.9499V223.787H60.5338ZM57.911 222.215H59.1882V228.421C59.1882 228.669 59.2253 228.855 59.2993 228.981C59.3733 229.103 59.4687 229.187 59.5855 229.233C59.7051 229.275 59.8347 229.297 59.9742 229.297C60.0767 229.297 60.1664 229.29 60.2433 229.276C60.3202 229.261 60.38 229.25 60.4227 229.241L60.6534 230.296C60.5793 230.325 60.474 230.353 60.3373 230.382C60.2006 230.413 60.0297 230.43 59.8247 230.433C59.4887 230.439 59.1754 230.379 58.885 230.254C58.5945 230.128 58.3596 229.935 58.1802 229.673C58.0007 229.411 57.911 229.082 57.911 228.686V222.215ZM63.3647 226.452V230.348H62.0875V221.6H63.3476V224.854H63.4288C63.5826 224.501 63.8175 224.221 64.1336 224.013C64.4497 223.805 64.8626 223.701 65.3724 223.701C65.8223 223.701 66.2153 223.794 66.5513 223.979C66.8902 224.164 67.1522 224.44 67.3373 224.807C67.5252 225.172 67.6192 225.628 67.6192 226.174V230.348H66.342V226.328C66.342 225.847 66.2181 225.474 65.9704 225.209C65.7226 224.941 65.3781 224.807 64.9367 224.807C64.6348 224.807 64.3643 224.872 64.1251 225C63.8887 225.128 63.7022 225.316 63.5655 225.564C63.4317 225.808 63.3647 226.105 63.3647 226.452ZM74.2401 225.388L73.0825 225.593C73.0341 225.445 72.9572 225.304 72.8518 225.171C72.7493 225.037 72.6098 224.927 72.4332 224.842C72.2567 224.756 72.036 224.713 71.7711 224.713C71.4095 224.713 71.1076 224.795 70.8656 224.957C70.6235 225.116 70.5025 225.323 70.5025 225.576C70.5025 225.796 70.5836 225.972 70.746 226.106C70.9083 226.24 71.1703 226.349 71.5319 226.435L72.5742 226.674C73.1779 226.814 73.6278 227.029 73.924 227.319C74.2201 227.61 74.3682 227.987 74.3682 228.451C74.3682 228.844 74.2543 229.194 74.0265 229.502C73.8015 229.807 73.4869 230.046 73.0825 230.22C72.681 230.393 72.2154 230.48 71.6857 230.48C70.951 230.48 70.3515 230.323 69.8874 230.01C69.4232 229.694 69.1384 229.246 69.0331 228.665L70.2675 228.477C70.3444 228.799 70.5025 229.042 70.7417 229.207C70.9809 229.369 71.2927 229.451 71.6771 229.451C72.0958 229.451 72.4304 229.364 72.681 229.19C72.9316 229.014 73.0569 228.799 73.0569 228.545C73.0569 228.34 72.98 228.168 72.8262 228.028C72.6753 227.889 72.4432 227.783 72.1299 227.712L71.0193 227.469C70.4071 227.329 69.9543 227.107 69.661 226.802C69.3705 226.498 69.2253 226.112 69.2253 225.645C69.2253 225.257 69.3335 224.919 69.5499 224.628C69.7663 224.338 70.0654 224.111 70.4469 223.949C70.8285 223.784 71.2657 223.701 71.7583 223.701C72.4674 223.701 73.0255 223.855 73.4328 224.162C73.84 224.467 74.1091 224.876 74.2401 225.388ZM80.8652 230.493C80.4495 230.493 80.0736 230.416 79.7375 230.262C79.4015 230.106 79.1353 229.879 78.9388 229.583C78.7451 229.287 78.6483 228.924 78.6483 228.494C78.6483 228.124 78.7195 227.819 78.8619 227.58C79.0043 227.34 79.1965 227.151 79.4385 227.012C79.6806 226.872 79.9511 226.767 80.2501 226.695C80.5491 226.624 80.8538 226.57 81.1642 226.533C81.5572 226.488 81.8762 226.451 82.1211 226.422C82.366 226.391 82.5439 226.341 82.655 226.273C82.7661 226.204 82.8216 226.093 82.8216 225.939V225.91C82.8216 225.536 82.7162 225.247 82.5055 225.042C82.2976 224.837 81.9872 224.735 81.5743 224.735C81.1443 224.735 80.8054 224.83 80.5577 225.021C80.3128 225.209 80.1433 225.418 80.0494 225.649L78.8491 225.376C78.9914 224.977 79.1993 224.655 79.4727 224.41C79.7489 224.162 80.0664 223.983 80.4253 223.872C80.7841 223.758 81.1614 223.701 81.5572 223.701C81.8192 223.701 82.0969 223.732 82.3902 223.795C82.6863 223.855 82.9625 223.966 83.2188 224.128C83.478 224.291 83.6901 224.523 83.8553 224.825C84.0205 225.124 84.1031 225.512 84.1031 225.991V230.348H82.8558V229.451H82.8045C82.7219 229.616 82.598 229.778 82.4329 229.938C82.2677 230.097 82.0556 230.229 81.7964 230.335C81.5373 230.44 81.2269 230.493 80.8652 230.493ZM81.1429 229.468C81.496 229.468 81.7978 229.398 82.0484 229.258C82.3019 229.119 82.4941 228.937 82.6251 228.712C82.7589 228.484 82.8259 228.24 82.8259 227.981V227.135C82.7803 227.181 82.692 227.224 82.561 227.264C82.4329 227.301 82.2862 227.333 82.1211 227.362C81.9559 227.387 81.795 227.412 81.6384 227.434C81.4817 227.454 81.3508 227.471 81.2454 227.486C80.9976 227.517 80.7713 227.57 80.5662 227.644C80.364 227.718 80.2017 227.825 80.0793 227.964C79.9597 228.101 79.8999 228.283 79.8999 228.511C79.8999 228.827 80.0166 229.066 80.2501 229.229C80.4836 229.388 80.7812 229.468 81.1429 229.468ZM88.5551 232.945C88.0339 232.945 87.5854 232.876 87.2095 232.74C86.8365 232.603 86.5318 232.422 86.2954 232.197C86.0591 231.972 85.8825 231.726 85.7657 231.458L86.8635 231.005C86.9404 231.131 87.0429 231.263 87.1711 231.403C87.3021 231.545 87.4786 231.666 87.7008 231.766C87.9257 231.865 88.2148 231.915 88.5679 231.915C89.052 231.915 89.4521 231.797 89.7682 231.561C90.0843 231.327 90.2423 230.954 90.2423 230.442V229.152H90.1612C90.0843 229.291 89.9732 229.446 89.828 229.617C89.6856 229.788 89.4891 229.936 89.2385 230.061C88.9879 230.187 88.6618 230.249 88.2603 230.249C87.742 230.249 87.275 230.128 86.8593 229.886C86.4463 229.641 86.1189 229.281 85.8768 228.806C85.6376 228.327 85.518 227.739 85.518 227.041C85.518 226.344 85.6362 225.746 85.8725 225.247C86.1117 224.749 86.4392 224.368 86.855 224.103C87.2708 223.835 87.742 223.701 88.2689 223.701C88.6761 223.701 89.005 223.769 89.2556 223.906C89.5062 224.04 89.7013 224.197 89.8408 224.376C89.9832 224.555 90.0928 224.713 90.1697 224.85H90.2637V223.787H91.5152V230.493C91.5152 231.057 91.3842 231.519 91.1223 231.881C90.8603 232.243 90.5057 232.51 90.0586 232.684C89.6144 232.858 89.1132 232.945 88.5551 232.945ZM88.5422 229.19C88.9096 229.19 89.22 229.105 89.4734 228.934C89.7297 228.76 89.9234 228.512 90.0544 228.191C90.1882 227.866 90.2551 227.477 90.2551 227.024C90.2551 226.583 90.1896 226.194 90.0586 225.858C89.9276 225.522 89.7354 225.26 89.482 225.072C89.2285 224.882 88.9153 224.786 88.5422 224.786C88.1578 224.786 87.8374 224.886 87.5811 225.085C87.3249 225.282 87.1312 225.549 87.0002 225.888C86.8721 226.227 86.808 226.606 86.808 227.024C86.808 227.454 86.8735 227.832 87.0045 228.156C87.1355 228.481 87.3291 228.734 87.5854 228.917C87.8446 229.099 88.1635 229.19 88.5422 229.19ZM95.9918 230.48C95.3767 230.48 94.8399 230.339 94.3814 230.057C93.923 229.775 93.567 229.381 93.3136 228.874C93.0601 228.367 92.9334 227.775 92.9334 227.097C92.9334 226.416 93.0601 225.821 93.3136 225.312C93.567 224.802 93.923 224.406 94.3814 224.124C94.8399 223.842 95.3767 223.701 95.9918 223.701C96.6069 223.701 97.1437 223.842 97.6022 224.124C98.0607 224.406 98.4166 224.802 98.6701 225.312C98.9235 225.821 99.0502 226.416 99.0502 227.097C99.0502 227.775 98.9235 228.367 98.6701 228.874C98.4166 229.381 98.0607 229.775 97.6022 230.057C97.1437 230.339 96.6069 230.48 95.9918 230.48ZM95.9961 229.408C96.3948 229.408 96.7251 229.303 96.9871 229.092C97.2491 228.881 97.4427 228.601 97.568 228.25C97.6962 227.9 97.7602 227.514 97.7602 227.093C97.7602 226.674 97.6962 226.29 97.568 225.939C97.4427 225.586 97.2491 225.303 96.9871 225.089C96.7251 224.876 96.3948 224.769 95.9961 224.769C95.5946 224.769 95.2614 224.876 94.9965 225.089C94.7346 225.303 94.5395 225.586 94.4113 225.939C94.286 226.29 94.2234 226.674 94.2234 227.093C94.2234 227.514 94.286 227.9 94.4113 228.25C94.5395 228.601 94.7346 228.881 94.9965 229.092C95.2614 229.303 95.5946 229.408 95.9961 229.408Z" fill="#4B5B76"/>
<path d="M37.2018 35.8398V34.883L40.162 31.8161C40.4781 31.4829 40.7387 31.191 40.9437 30.9404C41.1516 30.6869 41.3068 30.4463 41.4093 30.2185C41.5118 29.9907 41.5631 29.7486 41.5631 29.4923C41.5631 29.2019 41.4947 28.9513 41.3581 28.7405C41.2214 28.527 41.0348 28.3632 40.7985 28.2493C40.5621 28.1326 40.2959 28.0742 39.9997 28.0742C39.6865 28.0742 39.4131 28.1383 39.1796 28.2664C38.9461 28.3946 38.7667 28.5754 38.6414 28.8089C38.5161 29.0424 38.4534 29.3158 38.4534 29.629H37.1933C37.1933 29.0965 37.3158 28.6309 37.5607 28.2322C37.8056 27.8336 38.1416 27.5246 38.5687 27.3053C38.9959 27.0832 39.4814 26.9721 40.0253 26.9721C40.5749 26.9721 41.059 27.0818 41.4777 27.301C41.8991 27.5175 42.228 27.8136 42.4644 28.1895C42.7007 28.5626 42.8189 28.984 42.8189 29.4539C42.8189 29.7785 42.7577 30.096 42.6352 30.4064C42.5156 30.7168 42.3063 31.0628 42.0073 31.4444C41.7083 31.8232 41.2926 32.2831 40.76 32.8241L39.0215 34.6438V34.7079H42.9599V35.8398H37.2018ZM50.7138 35.8398H47.8818V27.0917H50.8035C51.6606 27.0917 52.3968 27.2669 53.0119 27.6171C53.627 27.9645 54.0983 28.4643 54.4258 29.1164C54.7561 29.7657 54.9213 30.5446 54.9213 31.453C54.9213 32.3642 54.7547 33.1474 54.4215 33.8023C54.0912 34.4573 53.6127 34.9613 52.9862 35.3144C52.3598 35.6647 51.6023 35.8398 50.7138 35.8398ZM49.2017 34.6865H50.6412C51.3075 34.6865 51.8614 34.5612 52.3028 34.3106C52.7442 34.0572 53.0745 33.6913 53.2938 33.2128C53.5131 32.7316 53.6227 32.145 53.6227 31.453C53.6227 30.7667 53.5131 30.1843 53.2938 29.7059C53.0774 29.2275 52.7542 28.8644 52.3242 28.6167C51.8942 28.3689 51.3602 28.245 50.7223 28.245H49.2017V34.6865ZM58.3695 35.9851C57.9537 35.9851 57.5778 35.9082 57.2418 35.7544C56.9057 35.5978 56.6395 35.3714 56.443 35.0752C56.2493 34.7791 56.1525 34.416 56.1525 33.986C56.1525 33.6158 56.2237 33.3111 56.3661 33.0719C56.5085 32.8327 56.7007 32.6433 56.9428 32.5038C57.1848 32.3642 57.4553 32.2589 57.7544 32.1877C58.0534 32.1165 58.3581 32.0624 58.6685 32.0254C59.0614 31.9798 59.3804 31.9428 59.6253 31.9143C59.8702 31.883 60.0482 31.8331 60.1592 31.7648C60.2703 31.6965 60.3258 31.5854 60.3258 31.4316V31.4017C60.3258 31.0287 60.2205 30.7396 60.0097 30.5346C59.8018 30.3296 59.4914 30.227 59.0785 30.227C58.6485 30.227 58.3097 30.3224 58.0619 30.5132C57.817 30.7012 57.6476 30.9105 57.5536 31.1412L56.3533 30.8678C56.4957 30.4691 56.7036 30.1473 56.9769 29.9024C57.2532 29.6547 57.5707 29.4753 57.9295 29.3642C58.2883 29.2503 58.6656 29.1933 59.0614 29.1933C59.3234 29.1933 59.6011 29.2247 59.8944 29.2873C60.1906 29.3471 60.4668 29.4582 60.7231 29.6205C60.9822 29.7828 61.1944 30.0149 61.3595 30.3167C61.5247 30.6158 61.6073 31.0045 61.6073 31.4829V35.8398H60.36V34.9428H60.3087C60.2262 35.108 60.1023 35.2703 59.9371 35.4298C59.7719 35.5892 59.5598 35.7217 59.3007 35.827C59.0415 35.9324 58.7311 35.9851 58.3695 35.9851ZM58.6471 34.9599C59.0002 34.9599 59.3021 34.8901 59.5527 34.7506C59.8061 34.6111 59.9983 34.4288 60.1293 34.2038C60.2632 33.976 60.3301 33.7326 60.3301 33.4734V32.6276C60.2845 32.6732 60.1962 32.7159 60.0653 32.7558C59.9371 32.7928 59.7905 32.8256 59.6253 32.854C59.4601 32.8797 59.2992 32.9039 59.1426 32.9267C58.986 32.9466 58.855 32.9637 58.7496 32.9779C58.5019 33.0092 58.2755 33.0619 58.0704 33.136C57.8683 33.21 57.7059 33.3168 57.5835 33.4563C57.4639 33.593 57.4041 33.7753 57.4041 34.0031C57.4041 34.3192 57.5208 34.5584 57.7544 34.7207C57.9879 34.8802 58.2854 34.9599 58.6471 34.9599ZM63.8808 38.3003C63.69 38.3003 63.5163 38.2846 63.3597 38.2533C63.2031 38.2248 63.0863 38.1935 63.0094 38.1593L63.317 37.1128C63.5505 37.1754 63.7584 37.2025 63.9406 37.1939C64.1229 37.1854 64.2838 37.117 64.4233 36.9889C64.5657 36.8607 64.691 36.6514 64.7992 36.361L64.9572 35.9253L62.5566 29.2788H63.9235L65.5852 34.3704H65.6535L67.3151 29.2788H68.6863L65.9824 36.7155C65.8571 37.0572 65.6976 37.3463 65.504 37.5826C65.3104 37.8218 65.0797 38.0012 64.812 38.1208C64.5443 38.2404 64.2339 38.3003 63.8808 38.3003ZM74.9793 35.9851C74.5636 35.9851 74.1877 35.9082 73.8516 35.7544C73.5156 35.5978 73.2494 35.3714 73.0529 35.0752C72.8592 34.7791 72.7624 34.416 72.7624 33.986C72.7624 33.6158 72.8336 33.3111 72.976 33.0719C73.1184 32.8327 73.3106 32.6433 73.5526 32.5038C73.7947 32.3642 74.0652 32.2589 74.3642 32.1877C74.6632 32.1165 74.9679 32.0624 75.2783 32.0254C75.6713 31.9798 75.9903 31.9428 76.2352 31.9143C76.4801 31.883 76.658 31.8331 76.7691 31.7648C76.8802 31.6965 76.9357 31.5854 76.9357 31.4316V31.4017C76.9357 31.0287 76.8303 30.7396 76.6196 30.5346C76.4117 30.3296 76.1013 30.227 75.6884 30.227C75.2584 30.227 74.9195 30.3224 74.6718 30.5132C74.4269 30.7012 74.2574 30.9105 74.1635 31.1412L72.9632 30.8678C73.1056 30.4691 73.3134 30.1473 73.5868 29.9024C73.863 29.6547 74.1806 29.4753 74.5394 29.3642C74.8982 29.2503 75.2755 29.1933 75.6713 29.1933C75.9333 29.1933 76.211 29.2247 76.5043 29.2873C76.8004 29.3471 77.0767 29.4582 77.333 29.6205C77.5921 29.7828 77.8042 30.0149 77.9694 30.3167C78.1346 30.6158 78.2172 31.0045 78.2172 31.4829V35.8398H76.9699V34.9428H76.9186C76.836 35.108 76.7122 35.2703 76.547 35.4298C76.3818 35.5892 76.1697 35.7217 75.9105 35.827C75.6514 35.9324 75.341 35.9851 74.9793 35.9851ZM75.257 34.9599C75.6101 34.9599 75.912 34.8901 76.1625 34.7506C76.416 34.6111 76.6082 34.4288 76.7392 34.2038C76.873 33.976 76.94 33.7326 76.94 33.4734V32.6276C76.8944 32.6732 76.8061 32.7159 76.6751 32.7558C76.547 32.7928 76.4003 32.8256 76.2352 32.854C76.07 32.8797 75.9091 32.9039 75.7525 32.9267C75.5959 32.9466 75.4649 32.9637 75.3595 32.9779C75.1118 33.0092 74.8854 33.0619 74.6803 33.136C74.4781 33.21 74.3158 33.3168 74.1934 33.4563C74.0738 33.593 74.014 33.7753 74.014 34.0031C74.014 34.3192 74.1307 34.5584 74.3642 34.7207C74.5977 34.8802 74.8953 34.9599 75.257 34.9599ZM82.6692 38.4369C82.148 38.4369 81.6995 38.3686 81.3236 38.2319C80.9506 38.0952 80.6459 37.9144 80.4095 37.6894C80.1732 37.4645 79.9966 37.2181 79.8799 36.9504L80.9776 36.4977C81.0545 36.623 81.157 36.7554 81.2852 36.8949C81.4162 37.0373 81.5927 37.1583 81.8149 37.258C82.0398 37.3577 82.3289 37.4075 82.682 37.4075C83.1661 37.4075 83.5662 37.2893 83.8823 37.053C84.1984 36.8194 84.3564 36.4464 84.3564 35.9338V34.6438H84.2753C84.1984 34.7833 84.0873 34.9385 83.9421 35.1094C83.7997 35.2803 83.6032 35.4284 83.3526 35.5537C83.102 35.6789 82.776 35.7416 82.3744 35.7416C81.8562 35.7416 81.3891 35.6206 80.9734 35.3785C80.5605 35.1336 80.233 34.7734 79.9909 34.2978C79.7517 33.8194 79.6321 33.2314 79.6321 32.5337C79.6321 31.836 79.7503 31.238 79.9866 30.7396C80.2258 30.2413 80.5533 29.8597 80.9691 29.5949C81.3849 29.3272 81.8562 29.1933 82.383 29.1933C82.7902 29.1933 83.1191 29.2617 83.3697 29.3984C83.6203 29.5322 83.8154 29.6888 83.9549 29.8682C84.0973 30.0476 84.2069 30.2057 84.2838 30.3424H84.3778V29.2788H85.6293V35.9851C85.6293 36.5489 85.4984 37.0117 85.2364 37.3733C84.9744 37.735 84.6198 38.0027 84.1728 38.1764C83.7285 38.3501 83.2273 38.4369 82.6692 38.4369ZM82.6564 34.6823C83.0237 34.6823 83.3341 34.5968 83.5876 34.426C83.8438 34.2523 84.0375 34.0045 84.1685 33.6827C84.3023 33.3581 84.3692 32.9694 84.3692 32.5166C84.3692 32.0752 84.3037 31.6865 84.1728 31.3505C84.0418 31.0144 83.8495 30.7524 83.5961 30.5645C83.3426 30.3737 83.0294 30.2783 82.6564 30.2783C82.2719 30.2783 81.9516 30.378 81.6953 30.5773C81.439 30.7738 81.2453 31.0415 81.1143 31.3804C80.9862 31.7192 80.9221 32.098 80.9221 32.5166C80.9221 32.9466 80.9876 33.3239 81.1186 33.6485C81.2496 33.9732 81.4432 34.2266 81.6995 34.4089C81.9587 34.5911 82.2776 34.6823 82.6564 34.6823ZM90.1059 35.9723C89.4908 35.9723 88.954 35.8313 88.4955 35.5494C88.0371 35.2675 87.6811 34.8731 87.4277 34.3662C87.1742 33.8593 87.0475 33.267 87.0475 32.5892C87.0475 31.9086 87.1742 31.3134 87.4277 30.8037C87.6811 30.294 88.0371 29.8981 88.4955 29.6162C88.954 29.3343 89.4908 29.1933 90.1059 29.1933C90.721 29.1933 91.2578 29.3343 91.7163 29.6162C92.1748 29.8981 92.5307 30.294 92.7842 30.8037C93.0376 31.3134 93.1643 31.9086 93.1643 32.5892C93.1643 33.267 93.0376 33.8593 92.7842 34.3662C92.5307 34.8731 92.1748 35.2675 91.7163 35.5494C91.2578 35.8313 90.721 35.9723 90.1059 35.9723ZM90.1102 34.9001C90.5089 34.9001 90.8392 34.7947 91.1012 34.584C91.3632 34.3733 91.5568 34.0928 91.6821 33.7425C91.8103 33.3923 91.8743 33.0064 91.8743 32.5849C91.8743 32.1663 91.8103 31.7819 91.6821 31.4316C91.5568 31.0785 91.3632 30.7952 91.1012 30.5816C90.8392 30.368 90.5089 30.2612 90.1102 30.2612C89.7087 30.2612 89.3755 30.368 89.1107 30.5816C88.8487 30.7952 88.6536 31.0785 88.5254 31.4316C88.4002 31.7819 88.3375 32.1663 88.3375 32.5849C88.3375 33.0064 88.4002 33.3923 88.5254 33.7425C88.6536 34.0928 88.8487 34.3733 89.1107 34.584C89.3755 34.7947 89.7087 34.9001 90.1102 34.9001Z" fill="#4B5B76"/>
<g clip-path="url(#clip1_271_8242)">
<path d="M203.054 83.3881C203.817 83.3881 204.563 83.1617 205.198 82.7376C205.833 82.3135 206.327 81.7108 206.62 81.0055C206.912 80.3003 206.988 79.5242 206.839 78.7756C206.69 78.0269 206.323 77.3392 205.783 76.7994C205.243 76.2596 204.555 75.892 203.807 75.7431C203.058 75.5942 202.282 75.6706 201.577 75.9627C200.872 76.2549 200.269 76.7496 199.845 77.3843C199.421 78.019 199.194 78.7652 199.194 79.5285C199.198 80.5509 199.606 81.5302 200.329 82.2532C201.052 82.9761 202.031 83.384 203.054 83.3881ZM203.054 77.2128C203.512 77.2128 203.959 77.3486 204.34 77.6031C204.721 77.8575 205.018 78.2192 205.193 78.6423C205.368 79.0655 205.414 79.5311 205.325 79.9803C205.236 80.4295 205.015 80.8421 204.691 81.166C204.367 81.4899 203.955 81.7104 203.506 81.7998C203.056 81.8891 202.591 81.8433 202.168 81.668C201.744 81.4927 201.383 81.1959 201.128 80.8151C200.874 80.4343 200.738 79.9865 200.738 79.5285C200.742 78.9156 200.987 78.3289 201.421 77.8955C201.854 77.4621 202.441 77.2168 203.054 77.2128Z" fill="#E3E6EB"/>
<path d="M190.024 83.3881C190.787 83.3881 191.533 83.1617 192.168 82.7376C192.803 82.3135 193.297 81.7108 193.59 81.0055C193.882 80.3003 193.958 79.5242 193.809 78.7756C193.66 78.0269 193.293 77.3392 192.753 76.7994C192.213 76.2596 191.525 75.892 190.777 75.7431C190.028 75.5942 189.252 75.6706 188.547 75.9627C187.842 76.2549 187.239 76.7496 186.815 77.3843C186.391 78.019 186.164 78.7652 186.164 79.5285C186.164 80.5521 186.571 81.5338 187.295 82.2577C188.019 82.9815 189 83.3881 190.024 83.3881ZM190.024 77.2128C190.482 77.2128 190.93 77.3486 191.31 77.6031C191.691 77.8575 191.988 78.2192 192.163 78.6423C192.339 79.0655 192.384 79.5311 192.295 79.9803C192.206 80.4295 191.985 80.8421 191.661 81.166C191.337 81.4899 190.925 81.7104 190.476 81.7998C190.026 81.8891 189.561 81.8433 189.138 81.668C188.715 81.4927 188.353 81.1959 188.098 80.8151C187.844 80.4343 187.708 79.9865 187.708 79.5285C187.708 78.9144 187.952 78.3253 188.386 77.891C188.821 77.4568 189.41 77.2128 190.024 77.2128Z" fill="#E3E6EB"/>
<path d="M203.054 127.391C203.817 127.391 204.563 127.165 205.198 126.741C205.833 126.316 206.327 125.714 206.62 125.008C206.912 124.303 206.988 123.527 206.839 122.778C206.69 122.03 206.323 121.342 205.783 120.802C205.243 120.263 204.555 119.895 203.807 119.746C203.058 119.597 202.282 119.674 201.577 119.966C200.872 120.258 200.269 120.752 199.845 121.387C199.421 122.022 199.194 122.768 199.194 123.531C199.198 124.554 199.606 125.533 200.329 126.256C201.052 126.979 202.031 127.387 203.054 127.391ZM203.054 121.216C203.512 121.216 203.959 121.352 204.34 121.606C204.721 121.86 205.018 122.222 205.193 122.645C205.368 123.068 205.414 123.534 205.325 123.983C205.236 124.432 205.015 124.845 204.691 125.169C204.367 125.493 203.955 125.713 203.506 125.803C203.056 125.892 202.591 125.846 202.168 125.671C201.744 125.496 201.383 125.199 201.128 124.818C200.874 124.437 200.738 123.989 200.738 123.531C200.742 122.919 200.987 122.332 201.421 121.898C201.854 121.465 202.441 121.22 203.054 121.216Z" fill="#E3E6EB"/>
<path d="M190.024 127.391C190.787 127.391 191.533 127.165 192.168 126.741C192.803 126.316 193.297 125.714 193.59 125.008C193.882 124.303 193.958 123.527 193.809 122.778C193.66 122.03 193.293 121.342 192.753 120.802C192.213 120.263 191.525 119.895 190.777 119.746C190.028 119.597 189.252 119.674 188.547 119.966C187.842 120.258 187.239 120.752 186.815 121.387C186.391 122.022 186.164 122.768 186.164 123.531C186.164 124.555 186.571 125.537 187.295 126.261C188.019 126.984 189 127.391 190.024 127.391ZM190.024 121.216C190.482 121.216 190.93 121.352 191.31 121.606C191.691 121.86 191.988 122.222 192.163 122.645C192.339 123.068 192.384 123.534 192.295 123.983C192.206 124.432 191.985 124.845 191.661 125.169C191.337 125.493 190.925 125.713 190.476 125.803C190.026 125.892 189.561 125.846 189.138 125.671C188.715 125.496 188.353 125.199 188.098 124.818C187.844 124.437 187.708 123.989 187.708 123.531C187.708 122.917 187.952 122.328 188.386 121.894C188.821 121.46 189.41 121.216 190.024 121.216Z" fill="#E3E6EB"/>
<path d="M421.475 72.7055C422.216 71.5793 423.298 70.7193 424.562 70.2508C425.181 70.0283 425.862 70.0553 426.462 70.3261C427.061 70.597 427.532 71.0904 427.773 71.702C430.861 66.8853 437.561 65.8046 443.212 66.839C452.629 68.5835 459.221 72.2269 461.908 81.9376C462.911 85.5965 463.112 89.4715 464.409 93.0378C465.877 96.4522 467.754 99.6765 469.997 102.64C470.27 102.965 470.422 103.374 470.429 103.798C470.347 104.223 470.11 104.602 469.766 104.864C468.443 106.329 466.792 107.461 464.949 108.167C464.029 108.515 463.032 108.607 462.064 108.433C461.096 108.259 460.194 107.826 459.453 107.179C459.925 107.774 460.182 108.512 460.182 109.271C460.182 110.031 459.925 110.768 459.453 111.363C458.457 112.522 457.132 113.351 455.655 113.741C446.222 116.828 434.535 113.617 427.14 107.303C422.324 103.134 418.88 97.6076 417.26 91.4476C415.299 84.3769 417.028 78.5721 421.475 72.7055Z" fill="white"/>
<path d="M447.72 115.718C450.45 115.74 453.165 115.323 455.763 114.483C457.387 114.036 458.84 113.111 459.932 111.828C460.552 111.001 460.878 109.99 460.858 108.956C462.247 109.411 463.745 109.411 465.134 108.956C467.085 108.205 468.834 107.011 470.244 105.467C470.718 105.077 471.036 104.529 471.14 103.924C471.147 103.326 470.951 102.743 470.584 102.272L469.596 100.82C467.767 98.3497 466.248 95.6639 465.072 92.8234C464.383 90.8126 463.867 88.7466 463.529 86.6481C463.251 85.1043 462.957 83.4369 462.525 81.8468C459.437 70.6231 451.024 67.6281 443.227 66.1923C438.256 65.266 431.417 65.8836 427.789 70.4224C427.588 70.2323 427.365 70.0665 427.125 69.9284C426.698 69.6927 426.228 69.5441 425.743 69.4911C425.259 69.4381 424.768 69.4818 424.3 69.6196C422.911 70.1469 421.723 71.0974 420.903 72.3368C415.917 78.8363 414.512 84.8264 416.272 91.7582C417.944 98.0646 421.472 103.723 426.4 107.999C432.397 112.965 439.933 115.694 447.72 115.718ZM459.391 106.455C459.19 106.457 458.998 106.534 458.851 106.672C458.713 106.818 458.636 107.011 458.636 107.212C458.636 107.413 458.713 107.606 458.851 107.752C459.185 108.224 459.354 108.793 459.332 109.371C459.31 109.949 459.097 110.503 458.727 110.948C457.799 111.937 456.603 112.634 455.285 112.955C446.655 115.842 435.215 113.248 427.496 106.656C422.806 102.592 419.445 97.214 417.847 91.2178C416.133 84.7955 417.461 79.2223 422.123 73.1396C422.753 72.1668 423.662 71.4078 424.732 70.9628C425.279 70.808 425.865 70.8688 426.369 71.1326C426.517 71.2076 426.648 71.3121 426.754 71.4395C426.86 71.5669 426.939 71.7146 426.986 71.8736C427.027 72.0187 427.109 72.1492 427.221 72.2502C427.333 72.3512 427.471 72.4187 427.619 72.4449C427.766 72.4665 427.916 72.4444 428.051 72.3812C428.185 72.3181 428.298 72.2167 428.376 72.0898C431.463 67.3193 438.148 66.6709 442.996 67.5663C453.525 69.5116 458.758 73.7417 461.089 82.1247C461.506 83.6685 461.784 85.2123 462.062 86.7561C462.382 88.9592 462.899 91.1293 463.606 93.2402C464.8 96.1993 466.356 98.9994 468.237 101.577L469.333 103.074C469.441 103.26 469.658 103.568 469.627 103.723C469.596 103.877 469.349 104.171 469.194 104.325C467.939 105.675 466.399 106.73 464.686 107.413C463.898 107.706 463.046 107.786 462.217 107.645C461.387 107.504 460.61 107.147 459.962 106.61C459.888 106.541 459.8 106.487 459.705 106.453C459.609 106.418 459.508 106.404 459.407 106.409L459.391 106.455Z" fill="#1C222B"/>
<path d="M421.953 90.8906C421.953 90.8906 416.38 98.9031 417.445 100.617C418.511 102.33 422.247 101.311 422.247 101.311" fill="white"/>
<path d="M419.931 102.394C420.77 102.383 421.605 102.269 422.416 102.054C422.621 101.999 422.796 101.864 422.901 101.68C423.007 101.497 423.035 101.278 422.98 101.074C422.925 100.869 422.79 100.694 422.606 100.589C422.423 100.483 422.204 100.455 422 100.51C420.965 100.788 418.634 101.081 418.047 100.155C417.461 99.2287 419.792 95.2302 422.54 91.278C422.599 91.195 422.641 91.1011 422.664 91.0018C422.687 90.9024 422.69 90.7995 422.673 90.699C422.655 90.5985 422.618 90.5025 422.564 90.4164C422.509 90.3302 422.438 90.2558 422.355 90.1973C422.186 90.0816 421.979 90.0363 421.777 90.0709C421.575 90.1055 421.395 90.2173 421.274 90.3825C419.514 92.9299 415.531 99.028 416.751 100.973C417.114 101.463 417.598 101.851 418.155 102.1C418.712 102.349 419.323 102.45 419.931 102.394Z" fill="#1C222B"/>
<path d="M423.374 80.1472C419.869 82.8643 420.718 88.808 420.656 92.6522C420.564 98.071 420.656 103.459 420.765 108.893C420.857 112.336 429.75 112.614 431.34 111.626L429.611 125.15C429.611 125.15 433.856 126.431 441.097 123.282C448.337 120.132 448.461 118.45 448.461 118.45L448.245 102.78C448.245 102.78 442.378 102.687 439.074 95.6163C435.771 88.5456 436.187 77.8005 436.187 77.8005C436.187 77.8005 426.785 77.4455 423.374 80.1472Z" fill="white"/>
<path d="M432.05 126.184C435.285 126.096 438.468 125.35 441.406 123.991C448.337 120.904 449.125 119.144 449.217 118.495L449.017 102.779C449.013 102.578 448.932 102.386 448.792 102.243C448.651 102.099 448.461 102.015 448.26 102.007C448.044 102.007 442.81 101.807 439.769 95.2917C436.589 88.4525 436.913 77.9236 436.913 77.8155C436.912 77.6099 436.835 77.412 436.697 77.2597C436.553 77.1157 436.36 77.0327 436.156 77.0282C435.771 77.0282 426.446 76.7503 422.849 79.5446C419.638 82.0302 419.761 86.7697 419.761 90.5675C419.761 91.3086 419.761 92.0033 419.761 92.6363C419.761 98.0551 419.761 103.536 419.869 108.924C419.912 109.516 420.12 110.084 420.469 110.564C420.818 111.045 421.295 111.418 421.845 111.641C424.503 112.785 427.429 113.16 430.29 112.721L428.746 125.072C428.724 125.252 428.765 125.435 428.864 125.587C428.963 125.74 429.113 125.853 429.286 125.906C430.189 126.133 431.12 126.227 432.05 126.184ZM447.72 118.326C447.581 118.603 446.546 120.086 440.834 122.571C437.636 124.14 434.073 124.818 430.522 124.532L432.065 111.733C432.089 111.589 432.07 111.441 432.011 111.307C431.952 111.173 431.855 111.059 431.732 110.979C431.61 110.899 431.467 110.856 431.32 110.855C431.174 110.855 431.03 110.897 430.907 110.977C428.162 111.64 425.275 111.397 422.679 110.282C421.907 109.881 421.521 109.402 421.506 108.877C421.351 103.505 421.32 98.0705 421.397 92.6671C421.397 92.0033 421.397 91.2931 421.397 90.5367C421.397 87.0785 421.228 82.8175 423.837 80.7642C426.214 78.8962 432.39 78.5411 435.385 78.5565C435.369 81.1965 435.524 89.7956 438.38 95.9709C441.236 102.146 445.697 103.242 447.488 103.505L447.72 118.326Z" fill="#1C222B"/>
<path d="M420.996 104.865C420.996 104.865 425.118 107.551 427.465 103.321L420.996 104.865Z" fill="white"/>
<path d="M423.806 106.468C424.191 106.467 424.574 106.42 424.948 106.329C425.635 106.136 426.275 105.801 426.825 105.347C427.375 104.892 427.825 104.328 428.144 103.689C428.242 103.509 428.265 103.297 428.207 103.1C428.149 102.903 428.015 102.738 427.835 102.639C427.655 102.541 427.443 102.518 427.246 102.576C427.05 102.634 426.884 102.768 426.785 102.948C426.564 103.398 426.252 103.797 425.869 104.121C425.487 104.445 425.042 104.687 424.562 104.832C423.467 105.012 422.344 104.792 421.398 104.214C421.313 104.157 421.218 104.118 421.118 104.099C421.018 104.08 420.915 104.082 420.816 104.103C420.716 104.125 420.622 104.166 420.539 104.225C420.456 104.284 420.386 104.359 420.332 104.446C420.221 104.616 420.181 104.823 420.221 105.023C420.262 105.222 420.379 105.398 420.548 105.511C421.532 106.109 422.655 106.439 423.806 106.468Z" fill="#1C222B"/>
<path d="M432.282 94.6142C432.455 93.2725 432.988 92.0027 433.825 90.9399C434.378 90.0428 435.06 89.2314 435.848 88.5316C436.243 88.1823 436.712 87.9273 437.22 87.7855C437.728 87.6438 438.262 87.6191 438.781 87.7133C439.23 87.8388 439.648 88.0577 440.007 88.3557C440.367 88.6536 440.659 89.0239 440.865 89.4424C441.273 90.2846 441.484 91.2084 441.483 92.1441C441.518 94.1816 441.019 96.1928 440.036 97.9777C439.053 99.7626 437.62 101.259 435.879 102.318L436.172 101.994" fill="white"/>
<path d="M435.894 103.09C436.034 103.085 436.172 103.048 436.295 102.982C438.146 101.856 439.672 100.267 440.722 98.372C441.773 96.477 442.311 94.3412 442.285 92.1748C442.293 91.106 442.055 90.0498 441.591 89.0871C441.334 88.5688 440.97 88.1109 440.522 87.7437C440.075 87.3764 439.555 87.1082 438.997 86.9567C438.363 86.8334 437.709 86.8569 437.086 87.0255C436.462 87.1941 435.886 87.5033 435.4 87.9293C434.549 88.6742 433.815 89.5434 433.223 90.5075C432.271 91.6753 431.666 93.0878 431.479 94.5832C431.475 94.6846 431.49 94.7858 431.525 94.881C431.56 94.9763 431.614 95.0637 431.683 95.1382C431.752 95.2128 431.834 95.273 431.927 95.3156C432.019 95.3581 432.118 95.382 432.22 95.386C432.422 95.3866 432.618 95.3105 432.767 95.1731C432.915 95.0356 433.007 94.847 433.023 94.6449C433.229 93.4335 433.763 92.3016 434.566 91.372C435.068 90.5369 435.692 89.7822 436.419 89.1335C436.726 88.8596 437.091 88.6579 437.486 88.543C437.882 88.4282 438.298 88.4031 438.704 88.4696C439.04 88.5694 439.352 88.7393 439.618 88.9681C439.884 89.1969 440.099 89.4795 440.248 89.7973C440.601 90.5397 440.78 91.3527 440.773 92.1748C440.794 93.9456 440.383 95.6948 439.576 97.2711C438.769 98.8474 437.59 100.203 436.141 101.222C435.949 101.234 435.767 101.316 435.632 101.453L435.323 101.777C435.2 101.916 435.132 102.094 435.132 102.279C435.132 102.464 435.2 102.643 435.323 102.781C435.39 102.871 435.476 102.945 435.574 102.998C435.673 103.052 435.782 103.083 435.894 103.09Z" fill="#1C222B"/>
<path d="M431.34 111.63C434.002 110.849 436.382 109.315 438.194 107.215C438.194 107.215 437.685 115.443 430.568 117.651L431.34 111.63Z" fill="#1C222B"/>
<path d="M430.568 118.423C430.644 118.438 430.723 118.438 430.8 118.423C438.349 116.076 438.951 107.616 438.966 107.292C438.973 107.127 438.927 106.965 438.835 106.828C438.743 106.692 438.609 106.588 438.454 106.533C438.298 106.478 438.13 106.474 437.972 106.521C437.814 106.569 437.676 106.666 437.577 106.798C435.866 108.763 433.626 110.194 431.124 110.92C430.979 110.965 430.851 111.049 430.752 111.164C430.654 111.279 430.59 111.419 430.568 111.568L429.811 117.589C429.795 117.718 429.81 117.848 429.856 117.97C429.901 118.091 429.976 118.199 430.074 118.284C430.22 118.381 430.393 118.43 430.568 118.423ZM436.913 109.577C436.559 111.058 435.885 112.443 434.938 113.635C433.991 114.827 432.795 115.798 431.432 116.478L431.973 112.217C433.756 111.619 435.425 110.727 436.913 109.577Z" fill="#1C222B"/>
<path d="M424.404 87.3175C424.252 86.2626 424.464 85.3591 424.877 85.2995C425.291 85.2399 425.749 86.0468 425.901 87.1017C426.053 88.1566 425.841 89.06 425.428 89.1196C425.014 89.1792 424.556 88.3723 424.404 87.3175Z" fill="#1C222B"/>
<path d="M396.542 139.203C400.216 140.623 402.13 138.554 403.69 133.444C403.942 132.535 404.026 131.588 403.937 130.65C403.79 129.275 403.542 127.913 403.196 126.574C402.204 122.824 400.903 119.163 399.305 115.628C398.919 114.733 398.163 113.668 397.252 113.976C396.341 114.285 396.341 115.273 396.357 116.091C396.357 118.407 396.742 120.723 396.681 123.054C391.802 121.804 388.745 116.647 384.114 115.551C382.802 115.227 381.196 115.134 381.026 116.832C380.856 118.917 384.639 120.553 385.889 121.649C384.484 120.433 382.867 119.486 381.119 118.855C380.634 118.641 380.102 118.556 379.575 118.608C379.309 118.643 379.062 118.765 378.872 118.955C378.682 119.144 378.56 119.392 378.525 119.658C378.538 119.875 378.594 120.088 378.689 120.284C378.784 120.48 378.918 120.656 379.081 120.8C379.794 121.627 380.597 122.373 381.474 123.023C380.602 121.999 379.411 121.298 378.093 121.032C377.77 120.924 377.422 120.914 377.093 121.001C376.764 121.089 376.467 121.271 376.24 121.526C375.7 122.421 376.734 123.409 377.645 123.919C376.928 123.283 376.054 122.851 375.113 122.668C374.644 122.59 374.162 122.695 373.769 122.963C373.375 123.23 373.099 123.639 372.998 124.104C373.017 124.472 373.117 124.832 373.291 125.157C373.464 125.483 373.707 125.766 374.002 125.987C378.803 130.696 390.366 136.794 396.542 139.203Z" fill="white"/>
<path d="M398.595 140.389C399.236 140.394 399.87 140.251 400.448 139.972C402.115 139.154 403.35 137.209 404.431 133.642C404.715 132.639 404.81 131.592 404.709 130.555C404.561 129.138 404.308 127.735 403.952 126.355C402.958 122.555 401.641 118.847 400.015 115.271C399.305 113.603 398.147 112.816 397.005 113.202C396.326 113.434 395.461 114.113 395.585 116.058C395.585 117.062 395.677 118.05 395.755 119.053C395.832 120.057 395.893 120.983 395.924 121.94C394.043 121.089 392.304 119.954 390.768 118.575C388.92 116.829 386.705 115.521 384.284 114.746C383.78 114.573 383.246 114.506 382.714 114.549C382.183 114.591 381.667 114.742 381.196 114.993C380.933 115.199 380.719 115.461 380.569 115.76C380.42 116.059 380.339 116.388 380.332 116.722C380.292 117.093 380.339 117.469 380.471 117.818C380.139 117.756 379.799 117.756 379.467 117.818C379.029 117.885 378.626 118.095 378.321 118.417C378.016 118.739 377.827 119.153 377.784 119.593C377.747 119.787 377.747 119.986 377.784 120.18C377.361 120.101 376.923 120.144 376.524 120.306C376.125 120.467 375.78 120.74 375.53 121.091C375.388 121.331 375.304 121.6 375.283 121.878H375.16C374.384 121.8 373.609 122.027 372.998 122.511C372.764 122.699 372.57 122.933 372.429 123.198C372.288 123.464 372.204 123.755 372.18 124.055C372.184 124.537 372.296 125.011 372.507 125.444C372.718 125.877 373.023 126.257 373.4 126.556C378.34 131.419 390.027 137.548 396.218 139.941C396.976 140.236 397.782 140.388 398.595 140.389ZM397.561 114.669C397.854 114.669 398.302 115.194 398.595 115.904C400.182 119.39 401.468 123.005 402.439 126.711C402.787 128.006 403.029 129.328 403.165 130.663C403.25 131.507 403.182 132.359 402.964 133.179C402.022 136.267 401.004 137.965 399.768 138.567C399.296 138.755 398.789 138.842 398.281 138.82C397.773 138.799 397.275 138.671 396.82 138.444C390.644 136.051 379.143 129.922 374.542 125.398C374.187 125.059 373.724 124.549 373.77 124.117C373.78 124.028 373.808 123.942 373.854 123.865C373.899 123.788 373.96 123.721 374.033 123.669C374.319 123.45 374.677 123.346 375.036 123.376C375.529 123.469 375.997 123.664 376.41 123.947C376.677 124.17 376.961 124.371 377.259 124.549C377.431 124.647 377.634 124.675 377.826 124.628C378.018 124.581 378.184 124.462 378.291 124.296C378.398 124.13 378.437 123.929 378.4 123.735C378.363 123.541 378.253 123.368 378.093 123.252L377.352 122.712C377.137 122.55 376.971 122.33 376.873 122.079C376.848 122.014 376.848 121.943 376.873 121.878C376.982 121.693 377.414 121.647 377.908 121.739C378.451 121.857 378.972 122.06 379.452 122.342C379.944 122.785 380.459 123.203 380.996 123.592C381.149 123.704 381.337 123.757 381.527 123.743C381.716 123.729 381.894 123.648 382.03 123.515C382.158 123.373 382.229 123.189 382.229 122.998C382.229 122.807 382.158 122.622 382.03 122.48C381.592 121.942 381.071 121.479 380.486 121.106C380.208 120.829 379.93 120.551 379.668 120.242C379.405 119.933 379.297 119.825 379.313 119.64C379.328 119.455 379.513 119.362 379.73 119.316C380.132 119.302 380.532 119.376 380.903 119.532C381.518 119.762 382.121 120.025 382.709 120.319C383.172 120.659 383.666 120.983 384.129 121.276C384.583 121.556 385.021 121.86 385.442 122.187C385.597 122.32 385.799 122.386 386.004 122.37C386.208 122.354 386.397 122.258 386.53 122.102C386.663 121.947 386.729 121.745 386.713 121.54C386.697 121.336 386.601 121.147 386.445 121.014C385.553 120.246 384.58 119.578 383.543 119.022C382.617 118.343 381.783 117.478 381.845 116.845C381.837 116.733 381.856 116.62 381.898 116.516C381.941 116.412 382.007 116.318 382.092 116.243C382.261 116.12 382.725 115.965 383.944 116.243C386.137 116.974 388.141 118.181 389.811 119.779C391.724 121.576 394.005 122.935 396.496 123.762C396.609 123.793 396.729 123.797 396.844 123.773C396.96 123.749 397.068 123.697 397.159 123.623C397.251 123.555 397.325 123.467 397.376 123.365C397.427 123.263 397.453 123.15 397.453 123.036C397.471 121.671 397.42 120.305 397.298 118.945C397.298 117.972 397.144 117.015 397.129 116.043C397.113 115.07 397.252 114.761 397.499 114.684L397.561 114.669Z" fill="#1C222B"/>
<path d="M396.449 123.238C395.349 124.587 394.736 126.267 394.711 128.008C394.686 129.748 395.249 131.446 396.31 132.825H395.832" fill="white"/>
<path d="M396.31 133.599C396.457 133.604 396.603 133.567 396.73 133.491C396.856 133.415 396.957 133.304 397.021 133.171C397.085 133.038 397.109 132.889 397.09 132.743C397.07 132.597 397.009 132.46 396.912 132.348C395.959 131.111 395.453 129.588 395.475 128.027C395.497 126.466 396.047 124.958 397.036 123.749C397.178 123.602 397.258 123.405 397.258 123.201C397.258 122.996 397.178 122.8 397.036 122.653C396.965 122.581 396.881 122.524 396.788 122.485C396.696 122.446 396.596 122.426 396.495 122.426C396.395 122.426 396.295 122.446 396.202 122.485C396.11 122.524 396.026 122.581 395.955 122.653C394.848 124.007 394.182 125.668 394.047 127.413C393.912 129.157 394.314 130.901 395.199 132.41C395.181 132.502 395.181 132.596 395.199 132.688C395.19 132.89 395.261 133.087 395.397 133.238C395.533 133.388 395.722 133.479 395.924 133.491H396.403L396.31 133.599Z" fill="#1C222B"/>
<g filter="url(#filter0_d_271_8242)">
<rect x="149.001" y="20.7119" width="242.276" height="118.683" rx="5.56101" fill="white" shape-rendering="crispEdges"/>
<rect x="165.684" y="29.0537" width="81" height="23" rx="2.28417" fill="#E8FFEA"/>
<path d="M179.058 38.3277H177.539C177.481 38.0033 177.372 37.7178 177.213 37.4712C177.054 37.2246 176.86 37.0153 176.629 36.8433C176.399 36.6714 176.141 36.5416 175.855 36.454C175.573 36.3664 175.273 36.3226 174.955 36.3226C174.381 36.3226 173.867 36.467 173.412 36.7557C172.961 37.0445 172.604 37.4679 172.342 38.026C172.082 38.5841 171.952 39.2654 171.952 40.0701C171.952 40.8812 172.082 41.5658 172.342 42.1239C172.604 42.6819 172.963 43.1037 173.417 43.3893C173.871 43.6748 174.382 43.8175 174.95 43.8175C175.265 43.8175 175.563 43.7754 175.846 43.691C176.131 43.6034 176.389 43.4752 176.62 43.3065C176.85 43.1378 177.045 42.9318 177.204 42.6884C177.366 42.4418 177.478 42.1596 177.539 41.8416L179.058 41.8465C178.977 42.3364 178.819 42.7874 178.586 43.1994C178.355 43.6083 178.059 43.9619 177.695 44.2604C177.335 44.5557 176.923 44.7844 176.459 44.9466C175.995 45.1089 175.489 45.19 174.941 45.19C174.077 45.19 173.309 44.9856 172.634 44.5768C171.959 44.1647 171.427 43.5758 171.037 42.8101C170.651 42.0444 170.458 41.131 170.458 40.0701C170.458 39.0058 170.653 38.0925 171.042 37.33C171.432 36.5643 171.964 35.977 172.638 35.5682C173.313 35.1562 174.081 34.9501 174.941 34.9501C175.469 34.9501 175.963 35.0264 176.42 35.1789C176.881 35.3281 177.294 35.5488 177.661 35.8408C178.028 36.1295 178.331 36.4832 178.571 36.9017C178.811 37.3171 178.974 37.7924 179.058 38.3277ZM183.889 45.2046C183.189 45.2046 182.577 45.044 182.055 44.7228C181.532 44.4016 181.127 43.9522 180.838 43.3747C180.549 42.7971 180.405 42.1222 180.405 41.35C180.405 40.5746 180.549 39.8965 180.838 39.3157C181.127 38.7349 181.532 38.2839 182.055 37.9627C182.577 37.6415 183.189 37.4809 183.889 37.4809C184.59 37.4809 185.202 37.6415 185.724 37.9627C186.247 38.2839 186.652 38.7349 186.941 39.3157C187.23 39.8965 187.374 40.5746 187.374 41.35C187.374 42.1222 187.23 42.7971 186.941 43.3747C186.652 43.9522 186.247 44.4016 185.724 44.7228C185.202 45.044 184.59 45.2046 183.889 45.2046ZM183.894 43.983C184.349 43.983 184.725 43.863 185.023 43.6229C185.322 43.3828 185.543 43.0632 185.685 42.6641C185.831 42.265 185.904 41.8254 185.904 41.3452C185.904 40.8682 185.831 40.4302 185.685 40.0311C185.543 39.6288 185.322 39.306 185.023 39.0626C184.725 38.8193 184.349 38.6976 183.894 38.6976C183.437 38.6976 183.057 38.8193 182.755 39.0626C182.457 39.306 182.235 39.6288 182.089 40.0311C181.946 40.4302 181.875 40.8682 181.875 41.3452C181.875 41.8254 181.946 42.265 182.089 42.6641C182.235 43.0632 182.457 43.3828 182.755 43.6229C183.057 43.863 183.437 43.983 183.894 43.983ZM188.998 45.0537V37.5782H190.395V38.795H190.488C190.643 38.3829 190.898 38.0617 191.252 37.8313C191.605 37.5977 192.029 37.4809 192.522 37.4809C193.022 37.4809 193.44 37.5977 193.778 37.8313C194.118 38.0649 194.37 38.3861 194.532 38.795H194.61C194.788 38.3959 195.072 38.0779 195.462 37.841C195.851 37.601 196.315 37.4809 196.853 37.4809C197.532 37.4809 198.085 37.6934 198.513 38.1185C198.945 38.5435 199.16 39.1843 199.16 40.0409V45.0537H197.705V40.1771C197.705 39.671 197.567 39.3043 197.291 39.0772C197.016 38.8501 196.686 38.7365 196.304 38.7365C195.83 38.7365 195.462 38.8826 195.199 39.1746C194.936 39.4633 194.805 39.8348 194.805 40.2891V45.0537H193.354V40.0847C193.354 39.6791 193.228 39.353 192.975 39.1064C192.722 38.8598 192.392 38.7365 191.987 38.7365C191.711 38.7365 191.456 38.8096 191.223 38.9556C190.992 39.0983 190.806 39.2979 190.663 39.5542C190.523 39.8105 190.454 40.1074 190.454 40.4448V45.0537H188.998ZM201.111 47.857V37.5782H202.532V38.7901H202.654C202.738 38.6343 202.86 38.4543 203.019 38.2499C203.178 38.0455 203.398 37.867 203.68 37.7145C203.963 37.5588 204.336 37.4809 204.8 37.4809C205.403 37.4809 205.942 37.6334 206.416 37.9384C206.889 38.2434 207.261 38.683 207.53 39.2573C207.803 39.8316 207.939 40.5227 207.939 41.3306C207.939 42.1385 207.804 42.8312 207.535 43.4087C207.266 43.983 206.896 44.4259 206.425 44.7374C205.955 45.0456 205.418 45.1997 204.814 45.1997C204.36 45.1997 203.989 45.1235 203.7 44.971C203.414 44.8185 203.191 44.64 203.028 44.4356C202.866 44.2312 202.741 44.0495 202.654 43.8905H202.566V47.857H201.111ZM202.537 41.316C202.537 41.8416 202.613 42.3023 202.765 42.6982C202.918 43.094 203.139 43.4039 203.427 43.6277C203.716 43.8484 204.07 43.9587 204.488 43.9587C204.923 43.9587 205.286 43.8435 205.579 43.6131C205.871 43.3795 206.091 43.0632 206.24 42.6641C206.393 42.265 206.469 41.8156 206.469 41.316C206.469 40.8228 206.395 40.3799 206.245 39.9873C206.099 39.5947 205.879 39.2849 205.583 39.0578C205.291 38.8306 204.926 38.7171 204.488 38.7171C204.067 38.7171 203.71 38.8258 203.418 39.0432C203.129 39.2605 202.91 39.5639 202.761 39.9533C202.611 40.3426 202.537 40.7968 202.537 41.316ZM211.025 35.0864V45.0537H209.569V35.0864H211.025ZM216.204 45.2046C215.468 45.2046 214.833 45.0472 214.301 44.7325C213.772 44.4145 213.363 43.9684 213.075 43.3941C212.789 42.8166 212.646 42.1401 212.646 41.3646C212.646 40.5989 212.789 39.9241 213.075 39.34C213.363 38.756 213.766 38.3002 214.282 37.9725C214.801 37.6448 215.408 37.4809 216.102 37.4809C216.524 37.4809 216.932 37.5507 217.328 37.6902C217.724 37.8297 218.079 38.0487 218.394 38.3472C218.709 38.6457 218.957 39.0334 219.139 39.5104C219.32 39.9841 219.411 40.56 219.411 41.2381V41.754H213.469V40.6638H217.985C217.985 40.281 217.907 39.9419 217.752 39.6466C217.596 39.3481 217.377 39.1129 217.095 38.941C216.816 38.769 216.488 38.683 216.112 38.683C215.703 38.683 215.346 38.7836 215.041 38.9848C214.739 39.1827 214.506 39.4422 214.34 39.7635C214.178 40.0814 214.097 40.427 214.097 40.8001V41.6518C214.097 42.1515 214.184 42.5765 214.36 42.9269C214.538 43.2773 214.786 43.545 215.104 43.7299C215.422 43.9116 215.794 44.0025 216.219 44.0025C216.494 44.0025 216.746 43.9635 216.973 43.8857C217.2 43.8046 217.396 43.6845 217.562 43.5255C217.727 43.3665 217.854 43.1702 217.942 42.9366L219.319 43.1848C219.209 43.5904 219.011 43.9457 218.725 44.2507C218.443 44.5524 218.088 44.7877 217.659 44.9564C217.234 45.1218 216.749 45.2046 216.204 45.2046ZM224.515 37.5782V38.7463H220.432V37.5782H224.515ZM221.527 35.7872H222.982V42.8588C222.982 43.141 223.025 43.3536 223.109 43.4963C223.193 43.6358 223.302 43.7316 223.435 43.7835C223.571 43.8321 223.719 43.8565 223.878 43.8565C223.995 43.8565 224.097 43.8484 224.184 43.8321C224.272 43.8159 224.34 43.8029 224.389 43.7932L224.652 44.9953C224.567 45.0278 224.447 45.0602 224.292 45.0926C224.136 45.1283 223.941 45.1478 223.708 45.151C223.325 45.1575 222.968 45.0894 222.637 44.9466C222.306 44.8039 222.038 44.5832 221.834 44.2847C221.629 43.9863 221.527 43.6115 221.527 43.1605V35.7872ZM229.267 45.2046C228.53 45.2046 227.896 45.0472 227.364 44.7325C226.835 44.4145 226.426 43.9684 226.137 43.3941C225.852 42.8166 225.709 42.1401 225.709 41.3646C225.709 40.5989 225.852 39.9241 226.137 39.34C226.426 38.756 226.828 38.3002 227.344 37.9725C227.863 37.6448 228.47 37.4809 229.164 37.4809C229.586 37.4809 229.995 37.5507 230.391 37.6902C230.787 37.8297 231.142 38.0487 231.457 38.3472C231.771 38.6457 232.02 39.0334 232.201 39.5104C232.383 39.9841 232.474 40.56 232.474 41.2381V41.754H226.531V40.6638H231.048C231.048 40.281 230.97 39.9419 230.814 39.6466C230.659 39.3481 230.44 39.1129 230.157 38.941C229.878 38.769 229.551 38.683 229.174 38.683C228.765 38.683 228.408 38.7836 228.103 38.9848C227.802 39.1827 227.568 39.4422 227.403 39.7635C227.24 40.0814 227.159 40.427 227.159 40.8001V41.6518C227.159 42.1515 227.247 42.5765 227.422 42.9269C227.601 43.2773 227.849 43.545 228.167 43.7299C228.485 43.9116 228.856 44.0025 229.281 44.0025C229.557 44.0025 229.808 43.9635 230.036 43.8857C230.263 43.8046 230.459 43.6845 230.624 43.5255C230.79 43.3665 230.917 43.1702 231.004 42.9366L232.381 43.1848C232.271 43.5904 232.073 43.9457 231.788 44.2507C231.505 44.5524 231.15 44.7877 230.722 44.9564C230.297 45.1218 229.812 45.2046 229.267 45.2046ZM236.887 45.1997C236.283 45.1997 235.745 45.0456 235.271 44.7374C234.801 44.4259 234.431 43.983 234.161 43.4087C233.895 42.8312 233.762 42.1385 233.762 41.3306C233.762 40.5227 233.897 39.8316 234.166 39.2573C234.439 38.683 234.812 38.2434 235.286 37.9384C235.759 37.6334 236.296 37.4809 236.897 37.4809C237.361 37.4809 237.734 37.5588 238.016 37.7145C238.302 37.867 238.522 38.0455 238.678 38.2499C238.837 38.4543 238.96 38.6343 239.048 38.7901H239.135V35.0864H240.591V45.0537H239.169V43.8905H239.048C238.96 44.0495 238.834 44.2312 238.668 44.4356C238.506 44.64 238.282 44.8185 237.997 44.971C237.711 45.1235 237.341 45.1997 236.887 45.1997ZM237.208 43.9587C237.627 43.9587 237.98 43.8484 238.269 43.6277C238.561 43.4039 238.782 43.094 238.931 42.6982C239.083 42.3023 239.16 41.8416 239.16 41.316C239.16 40.7968 239.085 40.3426 238.936 39.9533C238.787 39.5639 238.568 39.2605 238.279 39.0432C237.99 38.8258 237.633 38.7171 237.208 38.7171C236.77 38.7171 236.405 38.8306 236.113 39.0578C235.821 39.2849 235.6 39.5947 235.451 39.9873C235.305 40.3799 235.232 40.8228 235.232 41.316C235.232 41.8156 235.307 42.265 235.456 42.6641C235.605 43.0632 235.826 43.3795 236.118 43.6131C236.413 43.8435 236.777 43.9587 237.208 43.9587Z" fill="#00B42A"/>
<rect x="165.684" y="64.5664" width="209" height="11" rx="2.7805" fill="#EBEDF1"/>
<rect x="165.684" y="88.0781" width="191" height="11" rx="2.7805" fill="#EBEDF1"/>
<rect x="165.684" y="111.59" width="66.7321" height="11.122" rx="2.7805" fill="#EBEDF1"/>
<rect x="149.696" y="21.407" width="240.886" height="117.293" rx="4.86588" stroke="#E3E6EB" stroke-width="1.39025" shape-rendering="crispEdges"/>
</g>
<ellipse cx="437" cy="338" rx="90" ry="13" fill="#F1F2F5"/>
<path d="M472.606 330.992L474.15 341.923C474.15 341.923 440.402 340.163 441.56 337.538C442.718 334.914 452.243 331.486 452.243 331.486" fill="white"/>
<path d="M474.104 342.694C474.211 342.696 474.317 342.675 474.416 342.632C474.514 342.589 474.603 342.526 474.675 342.447C474.751 342.365 474.809 342.267 474.843 342.16C474.878 342.054 474.889 341.941 474.876 341.829L473.332 330.884C473.319 330.784 473.286 330.688 473.235 330.601C473.184 330.514 473.116 330.438 473.036 330.378C472.955 330.317 472.864 330.274 472.766 330.249C472.668 330.225 472.567 330.22 472.467 330.235C472.265 330.262 472.081 330.368 471.957 330.53C471.832 330.692 471.777 330.897 471.803 331.1L473.177 341.104C459.283 340.347 444.555 338.865 442.301 337.568C443.521 335.886 449.017 333.416 452.382 332.211C452.569 332.138 452.72 331.994 452.803 331.811C452.885 331.628 452.893 331.42 452.825 331.231C452.757 331.042 452.617 330.887 452.437 330.799C452.256 330.711 452.048 330.697 451.857 330.76C450.854 331.115 441.992 334.373 440.742 337.229C440.658 337.388 440.614 337.566 440.614 337.746C440.614 337.926 440.658 338.104 440.742 338.263C442.285 340.78 464.47 342.2 473.919 342.694H474.104Z" fill="#1C222B"/>
<path d="M403.366 135.416C403.366 135.416 386.646 152.182 378.34 149.82C373.462 148.446 350.844 137.099 350.551 136.636C349.486 134.814 347.386 128.917 346.059 127.373C345.603 126.641 344.903 126.094 344.082 125.829C339.791 125.073 343.944 132.807 345.055 134.104C341.412 131.835 337.645 129.596 333.785 127.666C333.596 127.535 333.381 127.447 333.153 127.41C332.926 127.372 332.694 127.386 332.473 127.45C332.251 127.588 332.089 127.804 332.017 128.055C331.946 128.306 331.971 128.575 332.087 128.809C332.33 129.271 332.685 129.664 333.121 129.951L339.713 135.154C337.812 133.595 335.799 132.177 333.693 130.908C332.921 130.461 330.775 129.102 329.987 129.982C328.613 131.526 335.638 136.821 336.842 137.701C334.914 135.928 332.759 134.418 330.435 133.209C329.796 132.793 329.027 132.628 328.274 132.746C327.965 133.224 328.459 133.811 328.922 134.166L333.476 137.655C331.192 135.957 328.66 134.197 325.757 134.228C325.757 134.706 326.128 135.092 326.514 135.386C333.276 140.681 340.13 147.505 347.139 152.46C356.402 159.037 366.561 168.177 378.124 169.18C391.849 170.369 401.899 160.349 411.224 151.627" fill="white"/>
<path d="M380.424 170.083C392.775 170.083 402.316 161.175 410.761 153.27L411.857 152.236C411.929 152.164 411.987 152.079 412.026 151.985C412.065 151.891 412.085 151.79 412.085 151.688C412.085 151.586 412.065 151.485 412.026 151.391C411.987 151.297 411.929 151.212 411.857 151.14C411.786 151.068 411.702 151.011 411.609 150.972C411.517 150.933 411.417 150.913 411.316 150.913C411.216 150.913 411.116 150.933 411.023 150.972C410.931 151.011 410.847 151.068 410.776 151.14L409.665 152.174C400.54 160.743 391.139 169.589 378.263 168.477C369 167.674 360.679 161.515 352.666 155.555C350.968 154.305 349.301 153.054 347.664 151.896C343.493 148.827 339.479 145.55 335.638 142.078C333.013 139.793 330.312 137.446 327.641 135.3C329.612 135.997 331.443 137.043 333.044 138.388C333.208 138.511 333.414 138.564 333.617 138.535C333.819 138.506 334.002 138.397 334.125 138.234C334.248 138.07 334.301 137.864 334.272 137.661C334.243 137.459 334.134 137.276 333.971 137.153L329.478 133.679C329.685 133.764 329.886 133.862 330.08 133.973C331.144 134.512 332.176 135.116 333.168 135.779C334.48 136.921 335.792 137.894 336.456 138.388C336.614 138.507 336.813 138.559 337.009 138.533C337.206 138.507 337.384 138.405 337.506 138.249C337.638 138.106 337.712 137.919 337.712 137.724C337.712 137.529 337.638 137.342 337.506 137.199C336.459 136.247 335.35 135.365 334.187 134.559C331.948 132.614 330.636 131.039 330.713 130.514C330.713 130.514 330.713 130.514 330.852 130.514C331.743 130.681 332.583 131.051 333.307 131.595C334.829 132.492 336.299 133.476 337.707 134.544L339.374 135.856C339.453 135.92 339.544 135.968 339.641 135.996C339.739 136.025 339.841 136.034 339.942 136.024C340.043 136.013 340.141 135.982 340.23 135.934C340.32 135.885 340.398 135.819 340.462 135.74C340.526 135.661 340.574 135.57 340.603 135.473C340.631 135.375 340.641 135.273 340.63 135.172C340.619 135.071 340.589 134.973 340.54 134.884C340.491 134.795 340.426 134.716 340.347 134.652C339.791 134.189 339.22 133.741 338.648 133.309L333.739 129.434C333.408 129.225 333.132 128.939 332.936 128.6C332.906 128.543 332.891 128.479 332.891 128.415C332.891 128.35 332.906 128.287 332.936 128.23C332.936 128.23 333.091 128.23 333.569 128.446C337.568 130.437 341.474 132.799 344.777 134.837C344.932 134.935 345.116 134.974 345.297 134.949C345.478 134.923 345.644 134.835 345.765 134.698C345.886 134.556 345.952 134.375 345.952 134.189C345.952 134.002 345.886 133.822 345.765 133.679C344.762 132.506 342.539 127.952 343.172 126.825C343.311 126.593 343.728 126.624 344.083 126.686C344.718 126.894 345.262 127.314 345.626 127.874C346.703 129.641 347.617 131.501 348.359 133.432C349.023 134.976 349.61 136.35 350.042 137.107C350.659 138.156 374.403 149.55 378.278 150.661C386.893 153.085 403.35 136.767 404.045 136.041C404.117 135.97 404.175 135.884 404.214 135.79C404.253 135.696 404.273 135.595 404.273 135.493C404.273 135.391 404.253 135.29 404.214 135.196C404.175 135.102 404.117 135.017 404.045 134.945C403.901 134.804 403.707 134.725 403.505 134.725C403.303 134.725 403.109 134.804 402.964 134.945C402.794 135.115 386.445 151.387 378.695 149.164C374.064 147.867 353.176 137.431 351.308 136.211C350.922 135.486 350.366 134.204 349.764 132.83C348.989 130.75 347.996 128.757 346.8 126.886C346.216 125.991 345.318 125.347 344.283 125.08C343.826 124.927 343.331 124.932 342.878 125.094C342.424 125.257 342.038 125.567 341.782 125.976C340.995 127.334 341.875 129.835 342.848 131.811C340.161 130.267 337.213 128.492 334.202 126.979C333.906 126.793 333.571 126.677 333.224 126.639C332.876 126.602 332.524 126.644 332.195 126.763C331.819 126.978 331.531 127.319 331.384 127.727C331.237 128.134 331.24 128.581 331.392 128.986C331.056 128.885 330.699 128.878 330.359 128.965C330.019 129.052 329.709 129.23 329.463 129.48C329.321 129.638 329.216 129.825 329.155 130.027C329.094 130.23 329.077 130.444 329.107 130.653C329.192 131.153 329.387 131.628 329.679 132.043C329.175 131.896 328.639 131.896 328.135 132.043C327.956 132.084 327.8 132.195 327.703 132.352C327.568 132.549 327.487 132.778 327.468 133.017C327.449 133.255 327.493 133.494 327.595 133.71C327.03 133.598 326.456 133.541 325.881 133.54C325.689 133.544 325.505 133.618 325.366 133.749C325.226 133.881 325.14 134.059 325.124 134.25C325.132 134.62 325.231 134.982 325.415 135.303C325.598 135.624 325.859 135.894 326.174 136.088C328.984 138.28 331.886 140.812 334.696 143.266C338.648 146.709 342.724 150.275 346.831 153.178C348.467 154.32 350.119 155.555 351.802 156.821C359.614 162.611 368.444 169.172 378.201 170.036C378.927 170.083 379.683 170.083 380.424 170.083Z" fill="#1C222B"/>
<path d="M410.76 182.985L391.416 332.922L412.181 332.397L436.465 232.681L450.221 332.644L473.548 330.992L466.632 175.914L410.76 182.985Z" fill="#1C222B"/>
<path d="M419.931 119.934L384.778 143.23L394.89 169.815C394.89 169.815 438.164 141.161 438.457 134.569C438.75 127.977 419.931 119.934 419.931 119.934Z" fill="#0FBFC4"/>
<path d="M405.82 209.678C405.82 209.678 406.932 163.965 410.205 144.096C411.594 135.667 411.069 129.754 413.864 125.2C423.235 109.885 459.746 114.393 465.057 125.076C470.368 135.759 471.603 212.457 471.603 212.457L405.82 209.678Z" fill="#0FBFC4"/>
<path d="M412.212 332.395C412.212 332.395 412.798 341.442 411.625 342.909C410.452 344.375 378.556 341.735 380.023 338.277C381.49 334.819 393.192 331.809 393.192 331.809" fill="white"/>
<path d="M407.441 344.066C410.019 344.066 411.81 343.865 412.196 343.387C413.447 341.843 413.092 334.541 412.953 332.348C412.947 332.247 412.921 332.148 412.876 332.056C412.832 331.965 412.77 331.883 412.694 331.816C412.618 331.749 412.529 331.697 412.433 331.664C412.337 331.631 412.236 331.617 412.134 331.623C412.033 331.629 411.934 331.655 411.843 331.699C411.751 331.744 411.67 331.806 411.602 331.882C411.535 331.958 411.483 332.046 411.45 332.142C411.417 332.238 411.403 332.34 411.409 332.441C411.671 336.517 411.594 341.349 411.038 342.337C408.892 343.109 389.425 341.781 382.493 339.342C380.949 338.802 380.702 338.4 380.702 338.4C381.659 336.239 388.962 333.614 393.346 332.503C393.545 332.452 393.717 332.324 393.824 332.148C393.931 331.972 393.964 331.761 393.917 331.561C393.892 331.463 393.848 331.37 393.787 331.289C393.726 331.208 393.649 331.139 393.562 331.088C393.474 331.036 393.377 331.002 393.277 330.988C393.176 330.974 393.074 330.98 392.976 331.005C391.74 331.314 380.841 334.185 379.282 337.937C379.081 338.385 378.973 339.265 380.362 340.083C383.682 342.059 399.367 344.066 407.441 344.066Z" fill="#1C222B"/>
<path d="M394.967 170.589C395.11 170.585 395.249 170.542 395.368 170.465C396.357 169.847 419.514 155.119 427.526 147.308C427.599 147.236 427.656 147.15 427.695 147.056C427.735 146.962 427.755 146.861 427.755 146.759C427.755 146.658 427.735 146.557 427.695 146.463C427.656 146.369 427.599 146.283 427.526 146.211C427.456 146.14 427.372 146.082 427.279 146.043C427.186 146.004 427.087 145.984 426.986 145.984C426.885 145.984 426.786 146.004 426.693 146.043C426.6 146.082 426.516 146.14 426.446 146.211C418.541 153.838 394.766 168.952 394.535 169.106C394.447 169.157 394.371 169.225 394.311 169.306C394.251 169.387 394.208 169.48 394.185 169.578C394.162 169.676 394.159 169.778 394.177 169.878C394.194 169.977 394.232 170.072 394.288 170.156C394.35 170.284 394.447 170.392 394.567 170.468C394.686 170.544 394.825 170.586 394.967 170.589Z" fill="#1C222B"/>
</g>
</g>
<defs>
<filter id="filter0_d_271_8242" x="121.62" y="0.175763" width="297.039" height="173.446" filterUnits="userSpaceOnUse" color-interpolation-filters="sRGB">
<feFlood flood-opacity="0" result="BackgroundImageFix"/>
<feColorMatrix in="SourceAlpha" type="matrix" values="0 0 0 0 0 0 0 0 0 0 0 0 0 0 0 0 0 0 127 0" result="hardAlpha"/>
<feOffset dy="6.84538"/>
<feGaussianBlur stdDeviation="13.6908"/>
<feComposite in2="hardAlpha" operator="out"/>
<feColorMatrix type="matrix" values="0 0 0 0 0 0 0 0 0 0.0705882 0 0 0 0 0.301961 0 0 0 0.1 0"/>
<feBlend mode="normal" in2="BackgroundImageFix" result="effect1_dropShadow_271_8242"/>
<feBlend mode="normal" in="SourceGraphic" in2="effect1_dropShadow_271_8242" result="shape"/>
</filter>
<clipPath id="clip0_271_8242">
<rect width="527" height="356" fill="white" transform="translate(0.536255 0.448242)"/>
</clipPath>
<clipPath id="clip1_271_8242">
<rect width="460.867" height="349.833" fill="white" transform="matrix(-1 0 0 1 527.299 7.80566)"/>
</clipPath>
</defs>
</svg>
