<svg width="435" height="325" viewBox="0 0 435 325" fill="none" xmlns="http://www.w3.org/2000/svg">
<g filter="url(#filter0_d_189_8135)">
<rect x="52.5" y="104.5" width="113" height="94" rx="7.5" fill="white" stroke="#E3E6EB"/>
<path d="M61.7052 117.41C62.6469 117.41 63.4104 116.647 63.4104 115.705C63.4104 114.763 62.6469 114 61.7052 114C60.7634 114 60 114.763 60 115.705C60 116.647 60.7634 117.41 61.7052 117.41Z" fill="#0051D9"/>
<path d="M67.6227 117.41C68.5644 117.41 69.3279 116.647 69.3279 115.705C69.3279 114.763 68.5644 114 67.6227 114C66.6809 114 65.9175 114.763 65.9175 115.705C65.9175 116.647 66.6809 117.41 67.6227 117.41Z" fill="#E3E6EB"/>
<path d="M73.5402 117.41C74.4819 117.41 75.2453 116.647 75.2453 115.705C75.2453 114.763 74.4819 114 73.5402 114C72.5984 114 71.835 114.763 71.835 115.705C71.835 116.647 72.5984 117.41 73.5402 117.41Z" fill="#E3E6EB"/>
<rect x="60" y="135" width="74" height="8" rx="2" fill="#EBEDF1"/>
<rect x="60" y="147" width="97" height="8" rx="2" fill="#EBEDF1"/>
<rect x="60" y="159" width="70" height="8" rx="2" fill="#EBEDF1"/>
<rect x="60" y="171" width="70" height="8" rx="2" fill="#EBEDF1"/>
</g>
<g filter="url(#filter1_d_189_8135)">
<rect x="214.358" y="12.918" width="204" height="240" rx="8" fill="white" shape-rendering="crispEdges"/>
<mask id="path-11-inside-1_189_8135" fill="white">
<path d="M235.873 31.2456L230.701 36.5736C230.608 36.6673 230.561 36.7793 230.561 36.9096C230.561 37.0399 230.608 37.1571 230.701 37.2611L235.873 42.5891C235.967 42.6724 236.076 42.7141 236.201 42.7141C236.326 42.7141 236.436 42.6673 236.529 42.5736C236.623 42.4799 236.67 42.3706 236.67 42.2456C236.67 42.1206 236.623 42.0113 236.529 41.9176L231.654 36.9176L236.529 31.9176C236.623 31.8239 236.67 31.7146 236.67 31.5896C236.67 31.4646 236.623 31.3553 236.529 31.2616C236.436 31.1679 236.326 31.1211 236.201 31.1211C236.076 31.1211 235.967 31.1628 235.873 31.2461V31.2456Z"/>
</mask>
<path d="M235.873 31.2456L230.701 36.5736C230.608 36.6673 230.561 36.7793 230.561 36.9096C230.561 37.0399 230.608 37.1571 230.701 37.2611L235.873 42.5891C235.967 42.6724 236.076 42.7141 236.201 42.7141C236.326 42.7141 236.436 42.6673 236.529 42.5736C236.623 42.4799 236.67 42.3706 236.67 42.2456C236.67 42.1206 236.623 42.0113 236.529 41.9176L231.654 36.9176L236.529 31.9176C236.623 31.8239 236.67 31.7146 236.67 31.5896C236.67 31.4646 236.623 31.3553 236.529 31.2616C236.436 31.1679 236.326 31.1211 236.201 31.1211C236.076 31.1211 235.967 31.1628 235.873 31.2461V31.2456Z" fill="#303133"/>
<path d="M235.873 31.2456H236.873V28.7797L235.156 30.5491L235.873 31.2456ZM230.701 36.5736L231.408 37.2807L231.414 37.2754L231.419 37.2701L230.701 36.5736ZM230.701 37.2611L229.958 37.9303L229.971 37.9442L229.984 37.9576L230.701 37.2611ZM235.873 42.5891L235.156 43.2856L235.181 43.3119L235.208 43.3362L235.873 42.5891ZM236.529 41.9176L235.813 42.6158L235.822 42.6247L236.529 41.9176ZM231.654 36.9176L230.938 36.2195L230.258 36.9176L230.938 37.6157L231.654 36.9176ZM236.529 31.9176L235.822 31.2104L235.813 31.2195L236.529 31.9176ZM235.873 31.2461H234.873V33.4743L236.538 31.9932L235.873 31.2461ZM235.156 30.5491L229.984 35.8771L231.419 37.2701L236.591 31.9421L235.156 30.5491ZM229.994 35.8665C229.716 36.1442 229.561 36.5092 229.561 36.9096H231.561C231.561 36.967 231.55 37.0387 231.518 37.1136C231.487 37.1883 231.445 37.2439 231.408 37.2807L229.994 35.8665ZM229.561 36.9096C229.561 37.3063 229.712 37.6574 229.958 37.9303L231.444 36.5919C231.468 36.618 231.499 36.6618 231.524 36.7241C231.55 36.7874 231.561 36.8519 231.561 36.9096H229.561ZM229.984 37.9576L235.156 43.2856L236.591 41.8926L231.419 36.5646L229.984 37.9576ZM235.208 43.3362C235.485 43.5819 235.83 43.7141 236.201 43.7141V41.7141C236.252 41.7141 236.315 41.723 236.382 41.7484C236.448 41.7738 236.501 41.8088 236.538 41.842L235.208 43.3362ZM236.201 43.7141C236.608 43.7141 236.968 43.5495 237.236 43.2807L235.822 41.8665C235.855 41.8335 235.908 41.7918 235.983 41.7598C236.059 41.7272 236.135 41.7141 236.201 41.7141V43.7141ZM237.236 43.2807C237.505 43.0119 237.67 42.6529 237.67 42.2456H235.67C235.67 42.1798 235.683 42.1037 235.715 42.0276C235.747 41.9527 235.789 41.8994 235.822 41.8665L237.236 43.2807ZM237.67 42.2456C237.67 41.8383 237.505 41.4793 237.236 41.2105L235.822 42.6247C235.789 42.5918 235.747 42.5385 235.715 42.4636C235.683 42.3875 235.67 42.3114 235.67 42.2456H237.67ZM237.245 41.2195L232.37 36.2195L230.938 37.6157L235.813 42.6157L237.245 41.2195ZM232.37 37.6157L237.245 32.6157L235.813 31.2195L230.938 36.2195L232.37 37.6157ZM237.236 32.6247C237.505 32.3559 237.67 31.9969 237.67 31.5896H235.67C235.67 31.5237 235.683 31.4477 235.715 31.3716C235.747 31.2967 235.789 31.2434 235.822 31.2105L237.236 32.6247ZM237.67 31.5896C237.67 31.1823 237.505 30.8233 237.236 30.5545L235.822 31.9687C235.789 31.9358 235.747 31.8825 235.715 31.8076C235.683 31.7315 235.67 31.6554 235.67 31.5896H237.67ZM237.236 30.5545C236.968 30.2857 236.608 30.1211 236.201 30.1211V32.1211C236.135 32.1211 236.059 32.108 235.983 32.0754C235.908 32.0433 235.855 32.0017 235.822 31.9687L237.236 30.5545ZM236.201 30.1211C235.83 30.1211 235.485 30.2533 235.208 30.499L236.538 31.9932C236.501 32.0264 236.448 32.0614 236.382 32.0868C236.315 32.1122 236.252 32.1211 236.201 32.1211V30.1211ZM236.873 31.2461V31.2456H234.873V31.2461H236.873Z" fill="#4B5B76" mask="url(#path-11-inside-1_189_8135)"/>
<rect x="334.358" y="24.918" width="52" height="24" rx="4" fill="#0051D9"/>
<path fill-rule="evenodd" clip-rule="evenodd" d="M351.858 36.418V32.168H352.858V36.418H357.108V37.418H352.858V41.668H351.858V37.418H347.608V36.418H351.858Z" fill="white"/>
<path d="M352.076 34.4833C352.031 34.0799 351.843 33.7674 351.514 33.5458C351.184 33.3214 350.77 33.2092 350.27 33.2092C349.912 33.2092 349.602 33.266 349.341 33.3796C349.079 33.4904 348.876 33.6438 348.731 33.8398C348.589 34.033 348.518 34.2532 348.518 34.5004C348.518 34.7077 348.566 34.8867 348.663 35.0373C348.762 35.1879 348.892 35.3143 349.051 35.4165C349.213 35.516 349.386 35.5998 349.571 35.668C349.755 35.7333 349.933 35.7873 350.103 35.8299L350.956 36.0515C351.234 36.1197 351.52 36.212 351.812 36.3285C352.105 36.445 352.376 36.5984 352.626 36.7887C352.876 36.979 353.078 37.2148 353.231 37.4961C353.387 37.7773 353.466 38.114 353.466 38.506C353.466 39.0004 353.338 39.4393 353.082 39.8228C352.829 40.2063 352.461 40.5089 351.978 40.7305C351.498 40.9521 350.917 41.0629 350.236 41.0629C349.582 41.0629 349.017 40.9592 348.539 40.7518C348.062 40.5444 347.689 40.2504 347.419 39.8697C347.149 39.4862 347 39.0316 346.971 38.506H348.292C348.318 38.8214 348.42 39.0842 348.599 39.2944C348.781 39.5018 349.012 39.6566 349.294 39.7589C349.578 39.8583 349.889 39.908 350.227 39.908C350.599 39.908 350.93 39.8498 351.22 39.7333C351.512 39.614 351.743 39.4492 351.91 39.239C352.078 39.0259 352.162 38.7773 352.162 38.4933C352.162 38.2347 352.088 38.0231 351.94 37.8583C351.795 37.6935 351.598 37.5572 351.348 37.4492C351.101 37.3413 350.821 37.2461 350.508 37.1637L349.477 36.8825C348.778 36.6921 348.224 36.4123 347.815 36.043C347.409 35.6737 347.206 35.185 347.206 34.5771C347.206 34.0742 347.342 33.6353 347.615 33.2603C347.887 32.8853 348.257 32.5941 348.723 32.3867C349.189 32.1765 349.714 32.0714 350.299 32.0714C350.89 32.0714 351.412 32.1751 351.863 32.3825C352.318 32.5898 352.676 32.8754 352.937 33.239C353.199 33.5998 353.335 34.0146 353.346 34.4833H352.076ZM356.842 41.0629C356.427 41.0629 356.052 40.9862 355.717 40.8327C355.381 40.6765 355.116 40.4506 354.92 40.1552C354.727 39.8597 354.63 39.4975 354.63 39.0685C354.63 38.6992 354.701 38.3952 354.843 38.1566C354.985 37.918 355.177 37.729 355.418 37.5898C355.66 37.4506 355.93 37.3455 356.228 37.2745C356.526 37.2035 356.83 37.1495 357.14 37.1126C357.532 37.0671 357.85 37.0302 358.095 37.0018C358.339 36.9705 358.516 36.9208 358.627 36.8526C358.738 36.7844 358.793 36.6737 358.793 36.5202V36.4904C358.793 36.1183 358.688 35.8299 358.478 35.6254C358.271 35.4208 357.961 35.3185 357.549 35.3185C357.12 35.3185 356.782 35.4137 356.535 35.604C356.291 35.7915 356.122 36.0004 356.028 36.2305L354.83 35.9577C354.972 35.56 355.18 35.239 355.452 34.9947C355.728 34.7475 356.045 34.5685 356.403 34.4577C356.761 34.3441 357.137 34.2873 357.532 34.2873C357.793 34.2873 358.07 34.3185 358.363 34.381C358.658 34.4407 358.934 34.5515 359.19 34.7134C359.448 34.8754 359.66 35.1069 359.825 35.408C359.989 35.7063 360.072 36.0941 360.072 36.5714V40.918H358.827V40.0231H358.776C358.694 40.1879 358.57 40.3498 358.406 40.5089C358.241 40.668 358.029 40.8001 357.771 40.9052C357.512 41.0103 357.202 41.0629 356.842 41.0629ZM357.119 40.0401C357.471 40.0401 357.772 39.9705 358.022 39.8313C358.275 39.6921 358.467 39.5103 358.597 39.2859C358.731 39.0586 358.798 38.8157 358.798 38.5572V37.7134C358.752 37.7589 358.664 37.8015 358.533 37.8413C358.406 37.8782 358.259 37.9109 358.095 37.9393C357.93 37.9648 357.769 37.989 357.613 38.0117C357.457 38.0316 357.326 38.0487 357.221 38.0629C356.974 38.0941 356.748 38.1467 356.543 38.2205C356.342 38.2944 356.18 38.4009 356.058 38.5401C355.938 38.6765 355.879 38.8583 355.879 39.0856C355.879 39.4009 355.995 39.6396 356.228 39.8015C356.461 39.9606 356.758 40.0401 357.119 40.0401ZM367.134 34.3725L364.76 40.918H363.397L361.019 34.3725H362.387L364.044 39.4094H364.113L365.766 34.3725H367.134ZM370.93 41.0501C370.285 41.0501 369.729 40.9123 369.264 40.6367C368.8 40.3583 368.443 39.9677 368.19 39.4648C367.94 38.9592 367.815 38.3668 367.815 37.6879C367.815 37.0174 367.94 36.4265 368.19 35.9151C368.443 35.4038 368.795 35.0046 369.247 34.7177C369.701 34.4308 370.232 34.2873 370.84 34.2873C371.21 34.2873 371.568 34.3484 371.914 34.4705C372.261 34.5927 372.572 34.7844 372.847 35.0458C373.123 35.3072 373.34 35.6467 373.499 36.0643C373.658 36.479 373.738 36.9833 373.738 37.5771V38.0288H368.535V37.0742H372.489C372.489 36.739 372.421 36.4421 372.285 36.1836C372.149 35.9222 371.957 35.7163 371.71 35.5657C371.465 35.4151 371.178 35.3398 370.849 35.3398C370.491 35.3398 370.178 35.4279 369.911 35.604C369.647 35.7773 369.443 36.0046 369.298 36.2859C369.156 36.5643 369.085 36.8668 369.085 37.1935V37.9393C369.085 38.3768 369.161 38.7489 369.315 39.0558C369.471 39.3626 369.688 39.5969 369.967 39.7589C370.245 39.918 370.57 39.9975 370.943 39.9975C371.184 39.9975 371.404 39.9634 371.603 39.8952C371.802 39.8242 371.974 39.7191 372.119 39.5799C372.264 39.4407 372.374 39.2688 372.451 39.0643L373.657 39.2816C373.56 39.6367 373.387 39.9478 373.137 40.2148C372.89 40.479 372.579 40.685 372.204 40.8327C371.832 40.9776 371.407 41.0501 370.93 41.0501Z" fill="white"/>
<path d="M226.92 74.918V66.1907H230.704C231.369 66.1907 231.927 66.2802 232.379 66.4592C232.834 66.6381 233.176 66.891 233.406 67.2177C233.639 67.5444 233.755 67.9293 233.755 68.3725C233.755 68.6935 233.684 68.9862 233.542 69.2504C233.403 69.5146 233.207 69.7362 232.954 69.9151C232.701 70.0913 232.406 70.2134 232.068 70.2816V70.3668C232.443 70.381 232.784 70.4762 233.091 70.6523C233.397 70.8256 233.642 71.0657 233.824 71.3725C234.005 71.6765 234.096 72.0344 234.096 72.4464C234.096 72.9237 233.971 73.3484 233.721 73.7205C233.474 74.0927 233.122 74.3853 232.664 74.5984C232.207 74.8114 231.662 74.918 231.028 74.918H226.92ZM229.289 73.0259H230.397C230.795 73.0259 231.093 72.9521 231.292 72.8043C231.491 72.6538 231.591 72.4322 231.591 72.1396C231.591 71.935 231.544 71.7617 231.45 71.6197C231.356 71.4776 231.223 71.3697 231.049 71.2958C230.879 71.2219 230.673 71.185 230.432 71.185H229.289V73.0259ZM229.289 69.7191H230.261C230.468 69.7191 230.652 69.6864 230.811 69.6211C230.97 69.5558 231.093 69.462 231.182 69.3398C231.272 69.2148 231.318 69.0629 231.318 68.8839C231.318 68.614 231.221 68.408 231.028 68.266C230.835 68.1211 230.591 68.0487 230.295 68.0487H229.289V69.7191ZM239.214 72.0543V68.3725H241.566V74.918H239.334V73.6737H239.265C239.123 74.0913 238.875 74.418 238.52 74.6538C238.164 74.8867 237.743 75.0032 237.254 75.0032C236.797 75.0032 236.396 74.8981 236.052 74.6879C235.711 74.4776 235.446 74.1879 235.255 73.8185C235.068 73.4492 234.973 73.0259 234.97 72.5487V68.3725H237.322V72.0543C237.325 72.3782 237.407 72.6325 237.569 72.8171C237.734 73.0018 237.964 73.0941 238.26 73.0941C238.456 73.0941 238.625 73.0529 238.767 72.9705C238.912 72.8853 239.022 72.766 239.099 72.6126C239.179 72.4563 239.217 72.2702 239.214 72.0543ZM248.746 70.5032H246.581C246.57 70.3697 246.523 70.2546 246.44 70.158C246.358 70.0614 246.251 69.9876 246.121 69.9364C245.993 69.8825 245.851 69.8555 245.695 69.8555C245.493 69.8555 245.32 69.8924 245.175 69.9663C245.03 70.0401 244.959 70.1452 244.962 70.2816C244.959 70.3782 245 70.4677 245.085 70.5501C245.173 70.6325 245.342 70.6964 245.592 70.7418L246.922 70.9805C247.592 71.1026 248.091 71.3086 248.418 71.5984C248.747 71.8853 248.913 72.2702 248.916 72.7532C248.913 73.2191 248.774 73.6239 248.499 73.9677C248.226 74.3086 247.852 74.5728 247.378 74.7603C246.906 74.945 246.368 75.0373 245.763 75.0373C244.763 75.0373 243.98 74.8327 243.415 74.4237C242.852 74.0146 242.538 73.4748 242.473 72.8043H244.808C244.84 73.0117 244.942 73.1722 245.115 73.2859C245.291 73.3967 245.513 73.4521 245.78 73.4521C245.996 73.4521 246.173 73.4151 246.313 73.3413C246.455 73.2674 246.527 73.1623 246.53 73.0259C246.527 72.9009 246.465 72.8015 246.342 72.7276C246.223 72.6538 246.036 72.5941 245.78 72.5487L244.621 72.3441C243.953 72.2276 243.453 72.006 243.121 71.6793C242.788 71.3526 242.624 70.9322 242.626 70.418C242.624 69.9634 242.743 69.5785 242.984 69.2631C243.229 68.945 243.577 68.7035 244.028 68.5387C244.483 68.3711 245.021 68.2873 245.644 68.2873C246.59 68.2873 247.335 68.4833 247.881 68.8754C248.429 69.2674 248.717 69.81 248.746 70.5032ZM249.818 74.918V68.3725H252.17V74.918H249.818ZM250.994 67.6907C250.675 67.6907 250.403 67.5856 250.175 67.3754C249.948 67.1651 249.835 66.9123 249.835 66.6168C249.835 66.3214 249.948 66.0685 250.175 65.8583C250.403 65.6481 250.675 65.543 250.994 65.543C251.315 65.543 251.587 65.6481 251.812 65.8583C252.039 66.0685 252.153 66.3214 252.153 66.6168C252.153 66.9123 252.039 67.1651 251.812 67.3754C251.587 67.5856 251.315 67.6907 250.994 67.6907ZM255.721 71.2362V74.918H253.368V68.3725H255.601V69.6168H255.669C255.812 69.2021 256.062 68.8768 256.419 68.641C256.78 68.4052 257.201 68.2873 257.681 68.2873C258.144 68.2873 258.546 68.3938 258.887 68.6069C259.231 68.8171 259.496 69.1069 259.684 69.4762C259.874 69.8455 259.968 70.2674 259.965 70.7418V74.918H257.613V71.2362C257.615 70.9123 257.533 70.658 257.365 70.4734C257.201 70.2887 256.971 70.1964 256.675 70.1964C256.482 70.1964 256.313 70.239 256.168 70.3242C256.026 70.4066 255.917 70.5259 255.84 70.6822C255.763 70.8356 255.723 71.0202 255.721 71.2362ZM264.262 75.0373C263.564 75.0373 262.961 74.9038 262.456 74.6367C261.953 74.3668 261.565 73.9805 261.292 73.4776C261.022 72.9719 260.887 72.3668 260.887 71.6623C260.887 70.9862 261.024 70.3952 261.297 69.8896C261.569 69.3839 261.954 68.9904 262.451 68.7092C262.949 68.4279 263.535 68.2873 264.211 68.2873C264.706 68.2873 265.153 68.364 265.554 68.5174C265.954 68.6708 266.297 68.8938 266.581 69.1864C266.865 69.4762 267.084 69.8285 267.237 70.2433C267.39 70.658 267.467 71.1254 267.467 71.6452V72.1907H261.62V70.8952H265.302C265.299 70.7077 265.251 70.543 265.157 70.4009C265.066 70.256 264.943 70.1438 264.787 70.0643C264.633 69.9819 264.459 69.9407 264.262 69.9407C264.072 69.9407 263.897 69.9819 263.738 70.0643C263.579 70.1438 263.451 70.2546 263.355 70.3967C263.261 70.5387 263.211 70.7049 263.206 70.8952V72.293C263.206 72.5032 263.25 72.6907 263.338 72.8555C263.426 73.0202 263.552 73.1495 263.717 73.2433C263.882 73.337 264.081 73.3839 264.314 73.3839C264.476 73.3839 264.623 73.3612 264.757 73.3157C264.893 73.2702 265.01 73.2049 265.106 73.1197C265.203 73.0316 265.274 72.9265 265.319 72.8043H267.467C267.393 73.2589 267.218 73.6538 266.943 73.989C266.667 74.3214 266.302 74.5799 265.848 74.7646C265.396 74.9464 264.868 75.0373 264.262 75.0373ZM274.41 70.5032H272.245C272.234 70.3697 272.187 70.2546 272.104 70.158C272.022 70.0614 271.916 69.9876 271.785 69.9364C271.657 69.8825 271.515 69.8555 271.359 69.8555C271.157 69.8555 270.984 69.8924 270.839 69.9663C270.694 70.0401 270.623 70.1452 270.626 70.2816C270.623 70.3782 270.664 70.4677 270.749 70.5501C270.837 70.6325 271.006 70.6964 271.256 70.7418L272.586 70.9805C273.256 71.1026 273.755 71.3086 274.082 71.5984C274.411 71.8853 274.577 72.2702 274.58 72.7532C274.577 73.2191 274.438 73.6239 274.163 73.9677C273.89 74.3086 273.516 74.5728 273.042 74.7603C272.57 74.945 272.032 75.0373 271.427 75.0373C270.427 75.0373 269.644 74.8327 269.079 74.4237C268.516 74.0146 268.202 73.4748 268.137 72.8043H270.472C270.504 73.0117 270.606 73.1722 270.779 73.2859C270.955 73.3967 271.177 73.4521 271.444 73.4521C271.66 73.4521 271.837 73.4151 271.977 73.3413C272.119 73.2674 272.191 73.1623 272.194 73.0259C272.191 72.9009 272.129 72.8015 272.006 72.7276C271.887 72.6538 271.7 72.5941 271.444 72.5487L270.285 72.3441C269.617 72.2276 269.117 72.006 268.785 71.6793C268.452 71.3526 268.288 70.9322 268.291 70.418C268.288 69.9634 268.407 69.5785 268.649 69.2631C268.893 68.945 269.241 68.7035 269.693 68.5387C270.147 68.3711 270.685 68.2873 271.308 68.2873C272.254 68.2873 272.999 68.4833 273.545 68.8754C274.093 69.2674 274.381 69.81 274.41 70.5032ZM281.465 70.5032H279.3C279.288 70.3697 279.242 70.2546 279.159 70.158C279.077 70.0614 278.97 69.9876 278.84 69.9364C278.712 69.8825 278.57 69.8555 278.413 69.8555C278.212 69.8555 278.038 69.8924 277.894 69.9663C277.749 70.0401 277.678 70.1452 277.68 70.2816C277.678 70.3782 277.719 70.4677 277.804 70.5501C277.892 70.6325 278.061 70.6964 278.311 70.7418L279.641 70.9805C280.311 71.1026 280.81 71.3086 281.136 71.5984C281.466 71.8853 281.632 72.2702 281.635 72.7532C281.632 73.2191 281.493 73.6239 281.217 73.9677C280.945 74.3086 280.571 74.5728 280.097 74.7603C279.625 74.945 279.087 75.0373 278.482 75.0373C277.482 75.0373 276.699 74.8327 276.134 74.4237C275.571 74.0146 275.257 73.4748 275.192 72.8043H277.527C277.558 73.0117 277.661 73.1722 277.834 73.2859C278.01 73.3967 278.232 73.4521 278.499 73.4521C278.715 73.4521 278.892 73.4151 279.031 73.3413C279.173 73.2674 279.246 73.1623 279.249 73.0259C279.246 72.9009 279.183 72.8015 279.061 72.7276C278.942 72.6538 278.754 72.5941 278.499 72.5487L277.34 72.3441C276.672 72.2276 276.172 72.006 275.84 71.6793C275.507 71.3526 275.342 70.9322 275.345 70.418C275.342 69.9634 275.462 69.5785 275.703 69.2631C275.948 68.945 276.296 68.7035 276.747 68.5387C277.202 68.3711 277.74 68.2873 278.362 68.2873C279.308 68.2873 280.054 68.4833 280.599 68.8754C281.148 69.2674 281.436 69.81 281.465 70.5032ZM293.041 69.4634H290.637C290.62 69.2646 290.575 69.0842 290.501 68.9222C290.43 68.7603 290.33 68.6211 290.202 68.5046C290.077 68.3853 289.925 68.2944 289.747 68.2319C289.568 68.1665 289.364 68.1339 289.137 68.1339C288.739 68.1339 288.403 68.2305 288.127 68.4237C287.854 68.6168 287.647 68.8938 287.505 69.2546C287.366 69.6154 287.296 70.0487 287.296 70.5543C287.296 71.0884 287.367 71.5359 287.509 71.8967C287.654 72.2546 287.863 72.5245 288.136 72.7063C288.408 72.8853 288.737 72.9748 289.12 72.9748C289.339 72.9748 289.535 72.9478 289.708 72.8938C289.881 72.837 290.032 72.756 290.16 72.6509C290.288 72.5458 290.391 72.4194 290.471 72.2717C290.553 72.1211 290.609 71.9521 290.637 71.7646L293.041 71.7816C293.012 72.1509 292.908 72.5273 292.729 72.9109C292.55 73.2915 292.296 73.6438 291.967 73.9677C291.64 74.2887 291.235 74.5472 290.752 74.7433C290.269 74.9393 289.708 75.0373 289.069 75.0373C288.268 75.0373 287.549 74.8654 286.913 74.5217C286.279 74.1779 285.778 73.6722 285.408 73.0046C285.042 72.337 284.859 71.5202 284.859 70.5543C284.859 69.5827 285.046 68.7646 285.421 68.0998C285.796 67.4322 286.302 66.9279 286.938 66.587C287.575 66.2433 288.285 66.0714 289.069 66.0714C289.62 66.0714 290.127 66.1467 290.59 66.2972C291.053 66.4478 291.46 66.668 291.809 66.9577C292.158 67.2447 292.44 67.5984 292.653 68.0188C292.866 68.4393 292.995 68.9208 293.041 69.4634ZM297.303 75.0373C296.593 75.0373 295.985 74.8967 295.479 74.6154C294.973 74.3313 294.586 73.9364 294.316 73.4308C294.046 72.9222 293.911 72.3327 293.911 71.6623C293.911 70.9918 294.046 70.4038 294.316 69.8981C294.586 69.3896 294.973 68.9947 295.479 68.7134C295.985 68.4293 296.593 68.2873 297.303 68.2873C298.013 68.2873 298.621 68.4293 299.127 68.7134C299.633 68.9947 300.02 69.3896 300.29 69.8981C300.56 70.4038 300.695 70.9918 300.695 71.6623C300.695 72.3327 300.56 72.9222 300.29 73.4308C300.02 73.9364 299.633 74.3313 299.127 74.6154C298.621 74.8967 298.013 75.0373 297.303 75.0373ZM297.32 73.2987C297.519 73.2987 297.691 73.2319 297.836 73.0984C297.981 72.9648 298.093 72.7745 298.172 72.5273C298.252 72.2802 298.292 71.9862 298.292 71.6452C298.292 71.3015 298.252 71.0075 298.172 70.7631C298.093 70.516 297.981 70.3256 297.836 70.1921C297.691 70.0586 297.519 69.9918 297.32 69.9918C297.11 69.9918 296.929 70.0586 296.779 70.1921C296.628 70.3256 296.513 70.516 296.434 70.7631C296.354 71.0075 296.314 71.3015 296.314 71.6452C296.314 71.9862 296.354 72.2802 296.434 72.5273C296.513 72.7745 296.628 72.9648 296.779 73.0984C296.929 73.2319 297.11 73.2987 297.32 73.2987ZM304.002 71.2362V74.918H301.65V68.3725H303.883V69.6168H303.951C304.093 69.2021 304.343 68.8768 304.701 68.641C305.062 68.4052 305.482 68.2873 305.962 68.2873C306.425 68.2873 306.827 68.3938 307.168 68.6069C307.512 68.8171 307.777 69.1069 307.965 69.4762C308.155 69.8455 308.249 70.2674 308.246 70.7418V74.918H305.894V71.2362C305.897 70.9123 305.814 70.658 305.647 70.4734C305.482 70.2887 305.252 70.1964 304.956 70.1964C304.763 70.1964 304.594 70.239 304.449 70.3242C304.307 70.4066 304.198 70.5259 304.121 70.6822C304.044 70.8356 304.005 71.0202 304.002 71.2362ZM313.328 68.3725V70.0771H308.947V68.3725H313.328ZM309.782 74.918V68.185C309.782 67.6452 309.879 67.1978 310.072 66.8427C310.265 66.4876 310.538 66.2219 310.89 66.0458C311.243 65.8697 311.657 65.7816 312.135 65.7816C312.433 65.7816 312.723 65.8043 313.004 65.8498C313.288 65.8952 313.498 65.935 313.635 65.9691L313.294 67.6566C313.209 67.631 313.109 67.6112 312.995 67.5969C312.882 67.5799 312.782 67.5714 312.697 67.5714C312.476 67.5714 312.326 67.6183 312.25 67.712C312.173 67.8058 312.135 67.9293 312.135 68.0827V74.918H309.782ZM314.236 74.918V68.3725H316.588V74.918H314.236ZM315.412 67.6907C315.093 67.6907 314.821 67.5856 314.593 67.3754C314.366 67.1651 314.253 66.9123 314.253 66.6168C314.253 66.3214 314.366 66.0685 314.593 65.8583C314.821 65.6481 315.093 65.543 315.412 65.543C315.733 65.543 316.005 65.6481 316.23 65.8583C316.457 66.0685 316.571 66.3214 316.571 66.6168C316.571 66.9123 316.457 67.1651 316.23 67.3754C316.005 67.5856 315.733 67.6907 315.412 67.6907ZM320.156 75.0032C319.69 75.0032 319.261 74.881 318.869 74.6367C318.479 74.3924 318.167 74.0217 317.931 73.5245C317.698 73.0273 317.582 72.4009 317.582 71.6452C317.582 70.8555 317.704 70.2134 317.948 69.7191C318.195 69.2248 318.514 68.8626 318.903 68.6325C319.295 68.4023 319.707 68.2873 320.139 68.2873C320.462 68.2873 320.747 68.3441 320.991 68.4577C321.235 68.5685 321.44 68.7177 321.604 68.9052C321.769 69.0898 321.894 69.293 321.979 69.5146H322.014V66.1907H324.366V74.918H322.031V73.8441H321.979C321.889 74.0657 321.758 74.2646 321.587 74.4407C321.42 74.614 321.215 74.7518 320.974 74.854C320.735 74.9535 320.462 75.0032 320.156 75.0032ZM321.025 73.1964C321.241 73.1964 321.425 73.1339 321.579 73.0089C321.735 72.881 321.854 72.7021 321.937 72.4719C322.022 72.239 322.065 71.9634 322.065 71.6452C322.065 71.3214 322.022 71.0444 321.937 70.8143C321.854 70.5813 321.735 70.4038 321.579 70.2816C321.425 70.1566 321.241 70.0941 321.025 70.0941C320.809 70.0941 320.624 70.1566 320.471 70.2816C320.32 70.4038 320.204 70.5813 320.122 70.8143C320.042 71.0444 320.002 71.3214 320.002 71.6452C320.002 71.9691 320.042 72.2475 320.122 72.4805C320.204 72.7106 320.32 72.8881 320.471 73.0131C320.624 73.1353 320.809 73.1964 321.025 73.1964ZM328.657 75.0373C327.958 75.0373 327.356 74.9038 326.85 74.6367C326.347 74.3668 325.96 73.9805 325.687 73.4776C325.417 72.9719 325.282 72.3668 325.282 71.6623C325.282 70.9862 325.418 70.3952 325.691 69.8896C325.964 69.3839 326.349 68.9904 326.846 68.7092C327.343 68.4279 327.93 68.2873 328.606 68.2873C329.1 68.2873 329.548 68.364 329.948 68.5174C330.349 68.6708 330.691 68.8938 330.975 69.1864C331.259 69.4762 331.478 69.8285 331.631 70.2433C331.785 70.658 331.862 71.1254 331.862 71.6452V72.1907H326.015V70.8952H329.697C329.694 70.7077 329.646 70.543 329.552 70.4009C329.461 70.256 329.337 70.1438 329.181 70.0643C329.028 69.9819 328.853 69.9407 328.657 69.9407C328.467 69.9407 328.292 69.9819 328.133 70.0643C327.974 70.1438 327.846 70.2546 327.749 70.3967C327.656 70.5387 327.606 70.7049 327.6 70.8952V72.293C327.6 72.5032 327.644 72.6907 327.732 72.8555C327.82 73.0202 327.947 73.1495 328.112 73.2433C328.276 73.337 328.475 73.3839 328.708 73.3839C328.87 73.3839 329.018 73.3612 329.151 73.3157C329.288 73.2702 329.404 73.2049 329.501 73.1197C329.597 73.0316 329.668 72.9265 329.714 72.8043H331.862C331.788 73.2589 331.613 73.6538 331.337 73.989C331.062 74.3214 330.697 74.5799 330.242 74.7646C329.791 74.9464 329.262 75.0373 328.657 75.0373ZM335.174 71.2362V74.918H332.821V68.3725H335.054V69.6168H335.123C335.265 69.2021 335.515 68.8768 335.873 68.641C336.233 68.4052 336.654 68.2873 337.134 68.2873C337.597 68.2873 337.999 68.3938 338.34 68.6069C338.684 68.8171 338.949 69.1069 339.137 69.4762C339.327 69.8455 339.421 70.2674 339.418 70.7418V74.918H337.066V71.2362C337.069 70.9123 336.986 70.658 336.819 70.4734C336.654 70.2887 336.424 70.1964 336.128 70.1964C335.935 70.1964 335.766 70.239 335.621 70.3242C335.479 70.4066 335.37 70.5259 335.293 70.6822C335.216 70.8356 335.177 71.0202 335.174 71.2362ZM344.483 68.3725V70.0771H340.17V68.3725H344.483ZM341.005 66.8043H343.358V72.8129C343.358 72.9038 343.373 72.9805 343.405 73.043C343.436 73.1026 343.484 73.1481 343.549 73.1793C343.615 73.2077 343.699 73.2219 343.801 73.2219C343.872 73.2219 343.954 73.2134 344.048 73.1964C344.145 73.1793 344.216 73.1651 344.261 73.1538L344.602 74.8072C344.497 74.8384 344.346 74.8768 344.15 74.9222C343.957 74.9677 343.727 74.9975 343.46 75.0117C342.92 75.0401 342.467 74.9847 342.101 74.8455C341.734 74.7035 341.459 74.4805 341.274 74.1765C341.089 73.8725 341 73.4918 341.005 73.0344V66.8043ZM345.443 74.918V68.3725H347.795V74.918H345.443ZM346.619 67.6907C346.3 67.6907 346.028 67.5856 345.8 67.3754C345.573 67.1651 345.46 66.9123 345.46 66.6168C345.46 66.3214 345.573 66.0685 345.8 65.8583C346.028 65.6481 346.3 65.543 346.619 65.543C346.94 65.543 347.212 65.6481 347.437 65.8583C347.664 66.0685 347.778 66.3214 347.778 66.6168C347.778 66.9123 347.664 67.1651 347.437 67.3754C347.212 67.5856 346.94 67.6907 346.619 67.6907ZM350.817 75.0202C350.4 75.0202 350.03 74.9521 349.709 74.8157C349.391 74.6765 349.141 74.4663 348.959 74.185C348.777 73.9038 348.687 73.5458 348.687 73.1112C348.687 72.7532 348.748 72.4478 348.87 72.195C348.992 71.9393 349.162 71.7305 349.381 71.5685C349.6 71.4066 349.854 71.283 350.144 71.1978C350.437 71.1126 350.752 71.0572 351.09 71.0316C351.456 71.0032 351.75 70.9691 351.972 70.9293C352.196 70.8867 352.358 70.8285 352.458 70.7546C352.557 70.6779 352.607 70.5771 352.607 70.4521V70.435C352.607 70.2646 352.542 70.1339 352.411 70.043C352.28 69.9521 352.113 69.9066 351.908 69.9066C351.684 69.9066 351.5 69.9563 351.358 70.0558C351.219 70.1523 351.135 70.3015 351.107 70.5032H348.942C348.971 70.1055 349.097 69.739 349.321 69.4038C349.549 69.0657 349.88 68.7958 350.314 68.5941C350.749 68.3896 351.292 68.2873 351.942 68.2873C352.411 68.2873 352.831 68.3427 353.204 68.4535C353.576 68.5614 353.892 68.7134 354.154 68.9094C354.415 69.1026 354.614 69.3299 354.75 69.5913C354.89 69.8498 354.959 70.131 354.959 70.435V74.918H352.76V73.9975H352.709C352.579 74.2418 352.419 74.4393 352.232 74.5898C352.047 74.7404 351.836 74.8498 351.597 74.918C351.361 74.9862 351.101 75.0202 350.817 75.0202ZM351.584 73.5373C351.763 73.5373 351.931 73.5004 352.087 73.4265C352.246 73.3526 352.375 73.2461 352.475 73.1069C352.574 72.9677 352.624 72.7987 352.624 72.5998V72.0543C352.562 72.0799 352.495 72.104 352.424 72.1268C352.356 72.1495 352.282 72.1708 352.202 72.1907C352.125 72.2106 352.043 72.229 351.955 72.2461C351.87 72.2631 351.78 72.2788 351.687 72.293C351.505 72.3214 351.356 72.3683 351.239 72.4336C351.125 72.4961 351.04 72.5742 350.983 72.668C350.929 72.7589 350.902 72.8612 350.902 72.9748C350.902 73.1566 350.966 73.2958 351.094 73.3924C351.222 73.489 351.385 73.5373 351.584 73.5373ZM358.435 66.1907V74.918H356.083V66.1907H358.435ZM359.634 74.918V68.3725H361.986V74.918H359.634ZM360.81 67.6907C360.492 67.6907 360.219 67.5856 359.992 67.3754C359.765 67.1651 359.651 66.9123 359.651 66.6168C359.651 66.3214 359.765 66.0685 359.992 65.8583C360.219 65.6481 360.492 65.543 360.81 65.543C361.131 65.543 361.404 65.6481 361.628 65.8583C361.856 66.0685 361.969 66.3214 361.969 66.6168C361.969 66.9123 361.856 67.1651 361.628 67.3754C361.404 67.5856 361.131 67.6907 360.81 67.6907ZM367.088 68.3725V70.0771H362.776V68.3725H367.088ZM363.611 66.8043H365.963V72.8129C365.963 72.9038 365.979 72.9805 366.01 73.043C366.041 73.1026 366.09 73.1481 366.155 73.1793C366.22 73.2077 366.304 73.2219 366.406 73.2219C366.477 73.2219 366.56 73.2134 366.653 73.1964C366.75 73.1793 366.821 73.1651 366.867 73.1538L367.207 74.8072C367.102 74.8384 366.952 74.8768 366.756 74.9222C366.563 74.9677 366.332 74.9975 366.065 75.0117C365.526 75.0401 365.073 74.9847 364.706 74.8455C364.34 74.7035 364.064 74.4805 363.879 74.1765C363.695 73.8725 363.605 73.4918 363.611 73.0344V66.8043ZM369.48 77.3725C369.21 77.3725 368.953 77.3512 368.709 77.3086C368.464 77.2688 368.25 77.2134 368.065 77.1424L368.576 75.4719C368.77 75.5401 368.946 75.5842 369.105 75.604C369.267 75.6239 369.405 75.6126 369.518 75.57C369.635 75.5273 369.718 75.4464 369.77 75.3271L369.821 75.2077L367.52 68.3725H369.974L371.031 72.9066H371.099L372.173 68.3725H374.645L372.258 75.4634C372.139 75.8242 371.966 76.1481 371.738 76.435C371.514 76.7248 371.218 76.9535 370.852 77.1211C370.486 77.2887 370.028 77.3725 369.48 77.3725ZM229.187 94.918H226.63L229.511 86.1907H232.75L235.63 94.918H233.074L231.164 88.5941H231.096L229.187 94.918ZM228.71 91.4748H233.517V93.2475H228.71V91.4748ZM239.143 97.5089C238.487 97.5089 237.924 97.4151 237.455 97.2276C236.989 97.043 236.627 96.7873 236.369 96.4606C236.113 96.1367 235.97 95.7646 235.938 95.3441H238.205C238.228 95.4833 238.285 95.5955 238.376 95.6808C238.467 95.766 238.583 95.8271 238.725 95.864C238.87 95.9038 239.032 95.9237 239.211 95.9237C239.515 95.9237 239.766 95.8498 239.965 95.7021C240.167 95.5543 240.268 95.2873 240.268 94.9009V93.793H240.2C240.114 94.0146 239.984 94.2035 239.808 94.3597C239.631 94.5131 239.42 94.631 239.173 94.7134C238.925 94.793 238.654 94.8327 238.359 94.8327C237.893 94.8327 237.464 94.7248 237.072 94.5089C236.683 94.293 236.37 93.9506 236.134 93.4819C235.901 93.0131 235.785 92.4009 235.785 91.6452C235.785 90.8555 235.907 90.2134 236.151 89.7191C236.399 89.2248 236.717 88.8626 237.106 88.6325C237.498 88.4023 237.91 88.2873 238.342 88.2873C238.666 88.2873 238.95 88.3441 239.194 88.4577C239.438 88.5685 239.643 88.7177 239.808 88.9052C239.972 89.0898 240.097 89.293 240.183 89.5146H240.234V88.3725H242.586V94.9009C242.586 95.4549 242.443 95.9251 242.156 96.3114C241.872 96.7006 241.471 96.9975 240.954 97.2021C240.437 97.4066 239.833 97.5089 239.143 97.5089ZM239.228 93.1623C239.444 93.1623 239.629 93.1026 239.782 92.9833C239.938 92.8612 240.058 92.6879 240.14 92.4634C240.225 92.2362 240.268 91.9634 240.268 91.6452C240.268 91.3214 240.225 91.0444 240.14 90.8143C240.058 90.5813 239.938 90.4038 239.782 90.2816C239.629 90.1566 239.444 90.0941 239.228 90.0941C239.012 90.0941 238.827 90.1566 238.674 90.2816C238.524 90.4038 238.407 90.5813 238.325 90.8143C238.245 91.0444 238.205 91.3214 238.205 91.6452C238.205 91.9691 238.245 92.2447 238.325 92.4719C238.407 92.6964 238.524 92.8683 238.674 92.9876C238.827 93.104 239.012 93.1623 239.228 93.1623ZM243.782 94.918V88.3725H246.066V89.6168H246.135C246.254 89.1566 246.443 88.82 246.701 88.6069C246.963 88.3938 247.268 88.2873 247.618 88.2873C247.72 88.2873 247.821 88.2958 247.92 88.3129C248.022 88.3271 248.12 88.3484 248.214 88.3768V90.3839C248.098 90.3441 247.954 90.3143 247.784 90.2944C247.613 90.2745 247.467 90.2646 247.345 90.2646C247.115 90.2646 246.907 90.3171 246.723 90.4222C246.541 90.5245 246.397 90.6694 246.292 90.8569C246.187 91.0415 246.135 91.2589 246.135 91.5089V94.918H243.782ZM251.747 95.0373C251.048 95.0373 250.446 94.9038 249.94 94.6367C249.437 94.3668 249.049 93.9805 248.777 93.4776C248.507 92.9719 248.372 92.3668 248.372 91.6623C248.372 90.9862 248.508 90.3952 248.781 89.8896C249.054 89.3839 249.439 88.9904 249.936 88.7092C250.433 88.4279 251.02 88.2873 251.696 88.2873C252.19 88.2873 252.637 88.364 253.038 88.5174C253.439 88.6708 253.781 88.8938 254.065 89.1864C254.349 89.4762 254.568 89.8285 254.721 90.2433C254.875 90.658 254.951 91.1254 254.951 91.6452V92.1907H249.105V90.8952H252.787C252.784 90.7077 252.736 90.543 252.642 90.4009C252.551 90.256 252.427 90.1438 252.271 90.0643C252.118 89.9819 251.943 89.9407 251.747 89.9407C251.557 89.9407 251.382 89.9819 251.223 90.0643C251.064 90.1438 250.936 90.2546 250.839 90.3967C250.745 90.5387 250.696 90.7049 250.69 90.8952V92.293C250.69 92.5032 250.734 92.6907 250.822 92.8555C250.91 93.0202 251.037 93.1495 251.201 93.2433C251.366 93.337 251.565 93.3839 251.798 93.3839C251.96 93.3839 252.108 93.3612 252.241 93.3157C252.378 93.2702 252.494 93.2049 252.591 93.1197C252.687 93.0316 252.758 92.9265 252.804 92.8043H254.951C254.878 93.2589 254.703 93.6538 254.427 93.989C254.152 94.3214 253.787 94.5799 253.332 94.7646C252.88 94.9464 252.352 95.0373 251.747 95.0373ZM259.048 95.0373C258.349 95.0373 257.747 94.9038 257.241 94.6367C256.738 94.3668 256.35 93.9805 256.077 93.4776C255.808 92.9719 255.673 92.3668 255.673 91.6623C255.673 90.9862 255.809 90.3952 256.082 89.8896C256.354 89.3839 256.739 88.9904 257.237 88.7092C257.734 88.4279 258.32 88.2873 258.997 88.2873C259.491 88.2873 259.938 88.364 260.339 88.5174C260.739 88.6708 261.082 88.8938 261.366 89.1864C261.65 89.4762 261.869 89.8285 262.022 90.2433C262.175 90.658 262.252 91.1254 262.252 91.6452V92.1907H256.406V90.8952H260.087C260.085 90.7077 260.036 90.543 259.943 90.4009C259.852 90.256 259.728 90.1438 259.572 90.0643C259.418 89.9819 259.244 89.9407 259.048 89.9407C258.857 89.9407 258.683 89.9819 258.524 90.0643C258.364 90.1438 258.237 90.2546 258.14 90.3967C258.046 90.5387 257.997 90.7049 257.991 90.8952V92.293C257.991 92.5032 258.035 92.6907 258.123 92.8555C258.211 93.0202 258.337 93.1495 258.502 93.2433C258.667 93.337 258.866 93.3839 259.099 93.3839C259.261 93.3839 259.408 93.3612 259.542 93.3157C259.678 93.2702 259.795 93.2049 259.891 93.1197C259.988 93.0316 260.059 92.9265 260.104 92.8043H262.252C262.178 93.2589 262.004 93.6538 261.728 93.989C261.452 94.3214 261.087 94.5799 260.633 94.7646C260.181 94.9464 259.653 95.0373 259.048 95.0373ZM263.212 94.918V88.3725H265.445V89.6168H265.513C265.65 89.2077 265.883 88.8839 266.212 88.6452C266.542 88.4066 266.934 88.2873 267.388 88.2873C267.848 88.2873 268.245 88.4094 268.577 88.6538C268.91 88.8952 269.11 89.2163 269.178 89.6168H269.246C269.357 89.2163 269.593 88.8952 269.954 88.6538C270.314 88.4094 270.738 88.2873 271.223 88.2873C271.851 88.2873 272.36 88.489 272.749 88.8924C273.141 89.2958 273.337 89.8327 273.337 90.5032V94.918H270.985V91.0998C270.985 90.8129 270.912 90.5884 270.767 90.4265C270.623 90.2617 270.428 90.1793 270.184 90.1793C269.942 90.1793 269.75 90.2617 269.608 90.4265C269.469 90.5884 269.4 90.8129 269.4 91.0998V94.918H267.15V91.0998C267.15 90.8129 267.077 90.5884 266.932 90.4265C266.787 90.2617 266.593 90.1793 266.348 90.1793C266.187 90.1793 266.047 90.2163 265.931 90.2901C265.814 90.364 265.723 90.4705 265.658 90.6097C265.596 90.7461 265.564 90.9094 265.564 91.0998V94.918H263.212ZM277.634 95.0373C276.935 95.0373 276.332 94.9038 275.827 94.6367C275.324 94.3668 274.936 93.9805 274.663 93.4776C274.394 92.9719 274.259 92.3668 274.259 91.6623C274.259 90.9862 274.395 90.3952 274.668 89.8896C274.94 89.3839 275.325 88.9904 275.823 88.7092C276.32 88.4279 276.906 88.2873 277.582 88.2873C278.077 88.2873 278.524 88.364 278.925 88.5174C279.325 88.6708 279.668 88.8938 279.952 89.1864C280.236 89.4762 280.455 89.8285 280.608 90.2433C280.761 90.658 280.838 91.1254 280.838 91.6452V92.1907H274.992V90.8952H278.673C278.671 90.7077 278.622 90.543 278.528 90.4009C278.438 90.256 278.314 90.1438 278.158 90.0643C278.004 89.9819 277.83 89.9407 277.634 89.9407C277.443 89.9407 277.269 89.9819 277.109 90.0643C276.95 90.1438 276.823 90.2546 276.726 90.3967C276.632 90.5387 276.582 90.7049 276.577 90.8952V92.293C276.577 92.5032 276.621 92.6907 276.709 92.8555C276.797 93.0202 276.923 93.1495 277.088 93.2433C277.253 93.337 277.452 93.3839 277.685 93.3839C277.847 93.3839 277.994 93.3612 278.128 93.3157C278.264 93.2702 278.381 93.2049 278.477 93.1197C278.574 93.0316 278.645 92.9265 278.69 92.8043H280.838C280.764 93.2589 280.59 93.6538 280.314 93.989C280.038 94.3214 279.673 94.5799 279.219 94.7646C278.767 94.9464 278.239 95.0373 277.634 95.0373ZM284.15 91.2362V94.918H281.798V88.3725H284.031V89.6168H284.099C284.241 89.2021 284.491 88.8768 284.849 88.641C285.21 88.4052 285.63 88.2873 286.111 88.2873C286.574 88.2873 286.976 88.3938 287.316 88.6069C287.66 88.8171 287.926 89.1069 288.113 89.4762C288.304 89.8455 288.397 90.2674 288.395 90.7418V94.918H286.042V91.2362C286.045 90.9123 285.963 90.658 285.795 90.4734C285.63 90.2887 285.4 90.1964 285.105 90.1964C284.912 90.1964 284.743 90.239 284.598 90.3242C284.456 90.4066 284.346 90.5259 284.27 90.6822C284.193 90.8356 284.153 91.0202 284.15 91.2362ZM293.459 88.3725V90.0771H289.147V88.3725H293.459ZM289.982 86.8043H292.334V92.8129C292.334 92.9038 292.35 92.9805 292.381 93.043C292.412 93.1026 292.461 93.1481 292.526 93.1793C292.591 93.2077 292.675 93.2219 292.777 93.2219C292.848 93.2219 292.931 93.2134 293.025 93.1964C293.121 93.1793 293.192 93.1651 293.238 93.1538L293.579 94.8072C293.473 94.8384 293.323 94.8768 293.127 94.9222C292.934 94.9677 292.704 94.9975 292.437 95.0117C291.897 95.0401 291.444 94.9847 291.077 94.8455C290.711 94.7035 290.435 94.4805 290.25 94.1765C290.066 93.8725 289.976 93.4918 289.982 93.0344V86.8043Z" fill="#00124D"/>
<g clip-path="url(#clip0_189_8135)">
<rect width="180" height="17" transform="translate(226.358 112.918)" fill="white"/>
<path d="M235.844 121.357C235.993 121.267 236.118 121.143 236.211 120.995C236.303 120.848 236.359 120.681 236.376 120.507C236.378 120.351 236.35 120.195 236.293 120.049C236.236 119.903 236.15 119.77 236.041 119.657C235.932 119.545 235.802 119.454 235.659 119.392C235.515 119.329 235.361 119.296 235.204 119.293H233.234V123.543H235.359C235.508 123.541 235.655 123.51 235.792 123.452C235.929 123.393 236.054 123.308 236.158 123.202C236.262 123.095 236.345 122.969 236.4 122.831C236.456 122.693 236.483 122.545 236.482 122.395V122.359C236.482 122.149 236.422 121.943 236.309 121.765C236.196 121.588 236.035 121.446 235.844 121.357ZM233.841 119.9H235.116C235.245 119.896 235.373 119.932 235.481 120.002C235.59 120.073 235.674 120.175 235.723 120.295C235.772 120.455 235.756 120.628 235.678 120.777C235.601 120.925 235.467 121.037 235.307 121.087C235.245 121.105 235.181 121.114 235.116 121.114H233.841V119.9ZM235.237 122.936H233.841V121.722H235.237C235.367 121.718 235.494 121.753 235.603 121.824C235.711 121.894 235.795 121.996 235.844 122.116C235.894 122.276 235.878 122.45 235.8 122.598C235.722 122.747 235.588 122.858 235.428 122.909C235.366 122.927 235.302 122.936 235.237 122.936Z" fill="#00124D"/>
<path d="M249.356 120.507H249.963L249.296 123.543H248.688L249.356 120.507ZM249.866 119.293C249.806 119.293 249.748 119.311 249.698 119.344C249.648 119.377 249.609 119.425 249.586 119.48C249.563 119.536 249.557 119.597 249.569 119.656C249.58 119.715 249.609 119.769 249.652 119.811C249.694 119.854 249.748 119.883 249.807 119.894C249.866 119.906 249.927 119.9 249.983 119.877C250.038 119.854 250.085 119.815 250.119 119.765C250.152 119.715 250.17 119.657 250.17 119.597C250.17 119.516 250.138 119.439 250.081 119.382C250.024 119.325 249.947 119.293 249.866 119.293Z" fill="#00124D"/>
<path d="M266.125 123.847V124.454H261.875V123.847H266.125ZM265.215 121.787C265.205 121.987 265.145 122.182 265.042 122.354C264.938 122.525 264.793 122.669 264.621 122.771C264.448 122.873 264.253 122.931 264.053 122.94C263.852 122.948 263.653 122.906 263.472 122.819C263.264 122.729 263.088 122.579 262.966 122.388C262.843 122.197 262.781 121.974 262.786 121.747V119.294H262.179V121.787C262.189 122.073 262.267 122.352 262.405 122.602C262.543 122.853 262.739 123.067 262.975 123.228C263.212 123.388 263.483 123.491 263.766 123.528C264.05 123.564 264.338 123.534 264.608 123.438C264.966 123.319 265.277 123.088 265.496 122.779C265.714 122.471 265.828 122.101 265.822 121.723V119.294H265.215V121.787ZM265.215 119.293H265.822H265.215ZM262.786 119.293H262.179H262.786Z" fill="#00124D"/>
<path d="M279.042 123.543H279.65L278.132 119.293H277.525L276.007 123.543H276.614L277.039 122.329H278.587L279.042 123.543ZM277.251 121.722L277.828 120.143L278.405 121.722H277.251ZM281.137 123.088C281.137 123.178 281.11 123.266 281.06 123.341C281.01 123.415 280.939 123.474 280.856 123.508C280.773 123.543 280.681 123.552 280.593 123.534C280.505 123.517 280.423 123.473 280.36 123.41C280.296 123.346 280.253 123.265 280.235 123.176C280.218 123.088 280.227 122.997 280.261 122.913C280.295 122.83 280.354 122.759 280.429 122.709C280.504 122.659 280.592 122.632 280.682 122.632C280.802 122.632 280.918 122.68 281.004 122.766C281.089 122.851 281.137 122.967 281.137 123.088ZM281.137 121.873C281.137 121.963 281.11 122.051 281.06 122.126C281.01 122.201 280.939 122.26 280.856 122.294C280.773 122.328 280.681 122.338 280.593 122.32C280.505 122.302 280.423 122.259 280.36 122.195C280.296 122.132 280.253 122.05 280.235 121.962C280.218 121.874 280.227 121.782 280.261 121.699C280.295 121.616 280.354 121.545 280.429 121.495C280.504 121.445 280.592 121.418 280.682 121.418C280.802 121.418 280.918 121.466 281.004 121.551C281.089 121.637 281.137 121.753 281.137 121.873ZM281.137 120.659C281.137 120.749 281.11 120.837 281.06 120.912C281.01 120.987 280.939 121.045 280.856 121.08C280.773 121.114 280.681 121.123 280.593 121.106C280.505 121.088 280.423 121.045 280.36 120.981C280.296 120.917 280.253 120.836 280.235 120.748C280.218 120.66 280.227 120.568 280.261 120.485C280.295 120.402 280.354 120.33 280.429 120.28C280.504 120.23 280.592 120.204 280.682 120.204C280.802 120.204 280.918 120.252 281.004 120.337C281.089 120.422 281.137 120.538 281.137 120.659Z" fill="#00124D"/>
<path d="M297.697 123.24H299.518V122.632H297.697V123.24ZM297.697 121.115V121.722H301.34V121.115H297.697ZM297.697 119.597V120.204H303.161V119.597H297.697Z" fill="#00124D"/>
<path d="M314.09 123.24H315.911V122.632H314.09V123.24ZM313.179 121.115V121.722H316.822V121.115H313.179ZM312.268 119.597V120.204H317.733V119.597H312.268Z" fill="#00124D"/>
<path d="M326.688 122.632H327.295V122.784H326.992V123.088H327.295V123.239H326.688V123.543H327.599V122.329H326.688V122.632ZM326.992 120.507H327.295V119.293H326.688V119.597H326.992V120.507ZM326.688 121.114H327.234L326.688 121.752V122.025H327.599V121.722H327.052L327.599 121.084V120.811H326.688V121.114ZM328.206 119.597V120.204H332.456V119.597H328.206ZM328.206 123.239H332.456V122.632H328.206V123.239ZM328.206 121.722H332.456V121.114H328.206V121.722Z" fill="#00124D"/>
<path d="M342.833 119.293C342.547 119.289 342.269 119.382 342.044 119.557C341.819 119.733 341.662 119.981 341.597 120.258C341.532 120.574 341.595 120.902 341.772 121.171C341.949 121.44 342.226 121.628 342.541 121.693L342.549 121.694C342.631 121.713 342.715 121.722 342.798 121.722V123.543H343.405V119.9H344.013V123.543H344.62V119.9H345.227V119.293H342.833ZM342.18 120.507C342.18 120.346 342.244 120.192 342.358 120.078C342.472 119.964 342.626 119.9 342.787 119.9V121.115C342.626 121.115 342.472 121.051 342.358 120.937C342.244 120.823 342.18 120.668 342.18 120.507ZM346.715 123.085C346.715 123.175 346.689 123.263 346.638 123.338C346.588 123.413 346.517 123.471 346.434 123.506C346.351 123.54 346.259 123.549 346.171 123.532C346.083 123.514 346.002 123.471 345.938 123.407C345.874 123.343 345.831 123.262 345.813 123.174C345.796 123.086 345.805 122.994 345.839 122.911C345.874 122.828 345.932 122.756 346.007 122.706C346.082 122.656 346.17 122.63 346.26 122.63C346.381 122.63 346.496 122.678 346.582 122.763C346.667 122.848 346.715 122.964 346.715 123.085ZM346.715 121.871C346.715 121.961 346.689 122.049 346.638 122.124C346.588 122.199 346.517 122.257 346.434 122.291C346.351 122.326 346.259 122.335 346.171 122.317C346.083 122.3 346.002 122.256 345.938 122.193C345.874 122.129 345.831 122.048 345.813 121.96C345.796 121.871 345.805 121.78 345.839 121.696C345.874 121.613 345.932 121.542 346.007 121.492C346.082 121.442 346.17 121.415 346.26 121.415C346.381 121.415 346.496 121.463 346.582 121.549C346.667 121.634 346.715 121.75 346.715 121.871ZM346.715 120.656C346.715 120.747 346.689 120.835 346.638 120.909C346.588 120.984 346.517 121.043 346.434 121.077C346.351 121.112 346.259 121.121 346.171 121.103C346.083 121.086 346.002 121.042 345.938 120.978C345.874 120.915 345.831 120.834 345.813 120.745C345.796 120.657 345.805 120.565 345.839 120.482C345.874 120.399 345.932 120.328 346.007 120.278C346.082 120.228 346.17 120.201 346.26 120.201C346.381 120.201 346.496 120.249 346.582 120.334C346.667 120.42 346.715 120.536 346.715 120.656Z" fill="#00124D"/>
<g opacity="0.25" clip-path="url(#clip1_189_8135)">
<path d="M368.229 120.629C367.713 120.72 367.258 120.902 366.833 121.236L365.983 120.355V122.48H368.108L367.288 121.661C368.411 120.872 369.96 121.114 370.779 122.238C370.84 122.329 370.901 122.389 370.931 122.48L371.477 122.207C370.81 121.054 369.535 120.416 368.229 120.629Z" fill="#00124D"/>
</g>
<g opacity="0.25" clip-path="url(#clip2_189_8135)">
<path d="M383.772 120.629C384.288 120.72 384.743 120.902 385.168 121.236L386.018 120.355V122.48H383.893L384.713 121.661C383.59 120.841 382.042 121.114 381.252 122.238C381.192 122.329 381.131 122.389 381.101 122.48L380.554 122.207C381.192 121.054 382.467 120.416 383.772 120.629Z" fill="#00124D"/>
</g>
<path d="M398.313 122.936C398.313 123.179 398.101 123.392 397.858 123.392C397.615 123.392 397.402 123.179 397.402 122.936C397.402 122.694 397.615 122.481 397.858 122.481C398.101 122.481 398.313 122.694 398.313 122.936ZM398.313 121.419C398.313 121.661 398.101 121.874 397.858 121.874C397.615 121.874 397.402 121.661 397.402 121.419C397.402 121.176 397.615 120.963 397.858 120.963C398.101 120.963 398.313 121.176 398.313 121.419ZM398.313 119.901C398.313 120.144 398.101 120.356 397.858 120.356C397.615 120.356 397.402 120.144 397.402 119.901C397.402 119.658 397.615 119.445 397.858 119.445C398.101 119.445 398.313 119.658 398.313 119.901Z" fill="#00124D"/>
</g>
<rect x="226.803" y="113.363" width="179.11" height="16.1103" rx="3.1141" stroke="#4B5B76" stroke-width="0.889744"/>
<g clip-path="url(#clip3_189_8135)">
<path fill-rule="evenodd" clip-rule="evenodd" d="M235.036 143.973C235.073 144.043 235.027 144.124 234.95 144.142L228.126 145.797C227.995 145.828 227.983 146.009 228.108 146.058L231.981 147.571C232.156 147.639 232.133 147.895 231.948 147.931L226.521 148.988C226.436 149.004 226.358 148.94 226.358 148.853V144.355C226.358 143.9 226.726 143.532 227.18 143.532H234.307C234.624 143.532 234.898 143.711 235.036 143.973ZM226.465 151.888C226.427 151.823 226.465 151.743 226.535 151.717L234.945 148.585C235.035 148.551 235.13 148.618 235.13 148.713V151.482C235.13 151.936 234.762 152.304 234.307 152.304H227.18C226.874 152.304 226.606 152.137 226.465 151.888ZM235.13 147.147C235.13 147.237 235.044 147.303 234.957 147.279L231.128 146.253C230.997 146.218 230.991 146.035 231.119 145.991L234.949 144.685C235.037 144.654 235.13 144.72 235.13 144.814V147.147Z" fill="#0FBFC4"/>
</g>
<path d="M238.54 150.918V150.117L241.724 145.65H238.534V144.538H243.418V145.339L240.232 149.806H243.425V150.918H238.54ZM246.615 151.011C246.123 151.011 245.699 150.912 245.344 150.712C244.991 150.511 244.719 150.226 244.528 149.859C244.337 149.489 244.242 149.052 244.242 148.547C244.242 148.055 244.337 147.623 244.528 147.251C244.719 146.88 244.988 146.59 245.335 146.382C245.684 146.175 246.093 146.071 246.562 146.071C246.878 146.071 247.172 146.122 247.444 146.223C247.718 146.323 247.957 146.474 248.16 146.675C248.366 146.877 248.526 147.13 248.64 147.435C248.754 147.738 248.811 148.094 248.811 148.501V148.865H244.771V148.043H247.562C247.562 147.852 247.521 147.682 247.438 147.535C247.355 147.387 247.239 147.272 247.092 147.189C246.946 147.104 246.777 147.061 246.584 147.061C246.383 147.061 246.204 147.108 246.048 147.202C245.895 147.293 245.774 147.417 245.687 147.572C245.6 147.726 245.555 147.897 245.553 148.086V148.868C245.553 149.105 245.597 149.31 245.684 149.482C245.773 149.654 245.899 149.787 246.061 149.881C246.223 149.974 246.415 150.021 246.637 150.021C246.785 150.021 246.919 150 247.042 149.959C247.165 149.917 247.269 149.855 247.357 149.772C247.444 149.689 247.51 149.587 247.556 149.466L248.783 149.547C248.721 149.842 248.593 150.1 248.4 150.32C248.209 150.538 247.962 150.708 247.659 150.831C247.358 150.951 247.01 151.011 246.615 151.011ZM251.858 151.011C251.366 151.011 250.942 150.912 250.587 150.712C250.234 150.511 249.962 150.226 249.771 149.859C249.58 149.489 249.484 149.052 249.484 148.547C249.484 148.055 249.58 147.623 249.771 147.251C249.962 146.88 250.231 146.59 250.578 146.382C250.927 146.175 251.336 146.071 251.805 146.071C252.121 146.071 252.415 146.122 252.687 146.223C252.961 146.323 253.2 146.474 253.403 146.675C253.609 146.877 253.769 147.13 253.883 147.435C253.997 147.738 254.054 148.094 254.054 148.501V148.865H250.014V148.043H252.805C252.805 147.852 252.763 147.682 252.68 147.535C252.597 147.387 252.482 147.272 252.335 147.189C252.189 147.104 252.02 147.061 251.827 147.061C251.625 147.061 251.447 147.108 251.291 147.202C251.137 147.293 251.017 147.417 250.93 147.572C250.842 147.726 250.798 147.897 250.796 148.086V148.868C250.796 149.105 250.839 149.31 250.927 149.482C251.016 149.654 251.142 149.787 251.304 149.881C251.466 149.974 251.658 150.021 251.88 150.021C252.027 150.021 252.162 150 252.285 149.959C252.407 149.917 252.512 149.855 252.599 149.772C252.687 149.689 252.753 149.587 252.799 149.466L254.026 149.547C253.964 149.842 253.836 150.1 253.643 150.32C253.452 150.538 253.205 150.708 252.902 150.831C252.6 150.951 252.253 151.011 251.858 151.011ZM255.936 150.918L254.11 144.538H255.584L256.64 148.971H256.693L257.858 144.538H259.119L260.281 148.98H260.337L261.393 144.538H262.867L261.041 150.918H259.727L258.512 146.747H258.462L257.25 150.918H255.936ZM265.212 151.011C264.728 151.011 264.309 150.909 263.956 150.703C263.605 150.495 263.334 150.207 263.143 149.837C262.952 149.465 262.857 149.034 262.857 148.544C262.857 148.05 262.952 147.618 263.143 147.248C263.334 146.877 263.605 146.588 263.956 146.382C264.309 146.175 264.728 146.071 265.212 146.071C265.696 146.071 266.113 146.175 266.464 146.382C266.817 146.588 267.089 146.877 267.28 147.248C267.471 147.618 267.567 148.05 267.567 148.544C267.567 149.034 267.471 149.465 267.28 149.837C267.089 150.207 266.817 150.495 266.464 150.703C266.113 150.909 265.696 151.011 265.212 151.011ZM265.218 149.983C265.438 149.983 265.622 149.921 265.769 149.797C265.917 149.67 266.028 149.497 266.103 149.279C266.18 149.061 266.218 148.813 266.218 148.535C266.218 148.257 266.18 148.008 266.103 147.79C266.028 147.572 265.917 147.4 265.769 147.273C265.622 147.147 265.438 147.083 265.218 147.083C264.996 147.083 264.809 147.147 264.657 147.273C264.508 147.4 264.395 147.572 264.318 147.79C264.243 148.008 264.206 148.257 264.206 148.535C264.206 148.813 264.243 149.061 264.318 149.279C264.395 149.497 264.508 149.67 264.657 149.797C264.809 149.921 264.996 149.983 265.218 149.983ZM268.43 150.918V146.133H269.716V146.968H269.766C269.853 146.671 270 146.447 270.205 146.295C270.411 146.141 270.648 146.065 270.916 146.065C270.982 146.065 271.054 146.069 271.131 146.077C271.207 146.085 271.275 146.097 271.333 146.111V147.289C271.271 147.27 271.185 147.254 271.075 147.239C270.964 147.224 270.864 147.217 270.772 147.217C270.577 147.217 270.403 147.26 270.249 147.345C270.097 147.428 269.977 147.544 269.888 147.694C269.8 147.843 269.757 148.016 269.757 148.211V150.918H268.43ZM273.222 149.541L273.225 147.949H273.418L274.951 146.133H276.474L274.415 148.538H274.1L273.222 149.541ZM272.019 150.918V144.538H273.346V150.918H272.019ZM275.01 150.918L273.602 148.834L274.486 147.896L276.564 150.918H275.01ZM279.698 146.133V147.13H276.745V146.133H279.698ZM277.421 150.918V145.787C277.421 145.441 277.488 145.153 277.623 144.924C277.76 144.696 277.947 144.525 278.184 144.41C278.421 144.296 278.69 144.239 278.991 144.239C279.194 144.239 279.38 144.255 279.548 144.286C279.719 144.317 279.845 144.345 279.929 144.37L279.692 145.367C279.64 145.35 279.575 145.335 279.499 145.32C279.424 145.306 279.347 145.298 279.268 145.298C279.073 145.298 278.937 145.344 278.86 145.435C278.783 145.525 278.745 145.65 278.745 145.812V150.918H277.421ZM281.836 144.538V150.918H280.509V144.538H281.836ZM285.061 151.011C284.577 151.011 284.158 150.909 283.805 150.703C283.454 150.495 283.183 150.207 282.992 149.837C282.801 149.465 282.706 149.034 282.706 148.544C282.706 148.05 282.801 147.618 282.992 147.248C283.183 146.877 283.454 146.588 283.805 146.382C284.158 146.175 284.577 146.071 285.061 146.071C285.545 146.071 285.962 146.175 286.313 146.382C286.666 146.588 286.938 146.877 287.129 147.248C287.32 147.618 287.416 148.05 287.416 148.544C287.416 149.034 287.32 149.465 287.129 149.837C286.938 150.207 286.666 150.495 286.313 150.703C285.962 150.909 285.545 151.011 285.061 151.011ZM285.067 149.983C285.287 149.983 285.471 149.921 285.618 149.797C285.766 149.67 285.877 149.497 285.952 149.279C286.028 149.061 286.067 148.813 286.067 148.535C286.067 148.257 286.028 148.008 285.952 147.79C285.877 147.572 285.766 147.4 285.618 147.273C285.471 147.147 285.287 147.083 285.067 147.083C284.845 147.083 284.658 147.147 284.506 147.273C284.357 147.4 284.243 147.572 284.167 147.79C284.092 148.008 284.055 148.257 284.055 148.535C284.055 148.813 284.092 149.061 284.167 149.279C284.243 149.497 284.357 149.67 284.506 149.797C284.658 149.921 284.845 149.983 285.067 149.983ZM289.103 150.918L287.8 146.133H289.143L289.884 149.348H289.928L290.701 146.133H292.018L292.803 149.329H292.844L293.573 146.133H294.912L293.613 150.918H292.208L291.386 147.909H291.327L290.504 150.918H289.103Z" fill="#2C3645"/>
<rect x="226.358" y="162.918" width="86" height="20" rx="4" fill="#EBEDF1"/>
<rect x="226.358" y="191.918" width="151" height="20" rx="4" fill="#EBEDF1"/>
<rect x="226.358" y="220.918" width="81" height="20" rx="4" fill="#EBEDF1"/>
<rect x="214.858" y="13.418" width="203" height="239" rx="7.5" stroke="#00124D" shape-rendering="crispEdges"/>
</g>
<path d="M194.393 173.829L203.853 183.594C203.853 183.594 220.925 164.948 221.108 162.614C221.64 158.424 222.81 154.34 224.579 150.505C224.656 150.26 224.823 150.053 225.046 149.926C225.584 149.723 225.97 150.474 226.061 151.043C226.232 152.429 226.215 153.832 226.01 155.214C227.705 152.87 229.431 150.556 231.207 148.272C231.272 148.157 231.36 148.057 231.467 147.98C231.574 147.903 231.697 147.85 231.826 147.825C232.024 147.838 232.212 147.92 232.354 148.059C233.473 149.014 234.312 150.256 234.78 151.652C235.083 152.391 235.258 153.178 235.298 153.976C235.369 158.462 231.349 165.75 227.178 167.587C227.178 167.587 207.751 200.879 204.259 200.494C200.767 200.108 187.004 184.568 187.004 184.568L194.393 173.829Z" fill="white"/>
<path d="M204.269 201.001H204.188C200.605 200.595 188.009 186.507 186.578 184.903C186.507 184.813 186.468 184.702 186.468 184.588C186.468 184.474 186.507 184.363 186.578 184.274L194.008 173.545C194.051 173.485 194.107 173.434 194.172 173.397C194.237 173.361 194.309 173.338 194.383 173.332C194.458 173.325 194.533 173.335 194.604 173.361C194.674 173.388 194.737 173.43 194.789 173.484L203.873 182.853C210.44 175.656 220.519 164.116 220.661 162.553C221.191 158.317 222.362 154.186 224.133 150.302C224.196 150.118 224.295 149.949 224.424 149.805C224.553 149.66 224.709 149.543 224.884 149.459C225.027 149.403 225.181 149.381 225.333 149.393C225.486 149.405 225.635 149.452 225.767 149.53C226.001 149.707 226.194 149.934 226.333 150.193C226.471 150.452 226.552 150.739 226.569 151.032C226.662 151.848 226.699 152.668 226.68 153.489C228.03 151.641 229.411 149.804 230.811 148.008C230.921 147.831 231.069 147.682 231.245 147.571C231.421 147.46 231.62 147.391 231.826 147.368C232.145 147.382 232.449 147.503 232.689 147.713C233.879 148.709 234.78 150.006 235.298 151.469C235.619 152.265 235.804 153.109 235.846 153.966C235.917 158.462 232.05 165.882 227.563 167.983C224.133 173.86 208.035 201.001 204.269 201.001ZM187.593 184.527C193.104 190.709 201.904 199.752 204.289 199.986C206.38 199.986 217.271 183.441 226.68 167.323C226.735 167.23 226.816 167.155 226.914 167.11C231.025 165.303 234.81 158.178 234.739 153.976C234.707 153.233 234.545 152.502 234.262 151.814C233.818 150.511 233.033 149.351 231.989 148.454C231.857 148.343 231.806 148.322 231.786 148.322C231.702 148.395 231.627 148.476 231.563 148.566C229.796 150.839 228.051 153.174 226.366 155.508C226.299 155.601 226.203 155.669 226.093 155.7C225.983 155.732 225.866 155.725 225.76 155.682C225.655 155.638 225.567 155.561 225.511 155.461C225.455 155.361 225.434 155.246 225.452 155.133C225.654 153.788 225.671 152.422 225.503 151.073C225.488 150.809 225.376 150.559 225.188 150.373C225.11 150.465 225.051 150.572 225.016 150.687C223.269 154.471 222.112 158.5 221.585 162.634C221.372 165.019 207.05 180.772 204.178 183.949C204.082 184.049 203.951 184.107 203.812 184.111C203.674 184.102 203.543 184.048 203.437 183.959L194.413 174.641L187.593 184.527Z" fill="#00124D"/>
<path d="M127.708 313.809C127.708 313.809 124.409 322.842 125.871 323.715C127.332 324.588 156.463 323.715 154.707 321.969C152.951 320.223 145.196 314.397 145.196 314.397" fill="white"/>
<path d="M132.549 324.537C128.824 324.537 126.023 324.405 125.596 324.152C124.013 323.208 125.942 317.158 127.22 313.636C127.27 313.511 127.367 313.409 127.49 313.352C127.612 313.296 127.752 313.288 127.88 313.332C128.005 313.379 128.106 313.474 128.161 313.596C128.216 313.718 128.221 313.856 128.175 313.981C126.551 318.457 125.586 322.802 126.145 323.289C128.175 324.192 150.961 323.126 154.067 322.05C151.926 320.071 144.932 314.854 144.932 314.803C144.879 314.763 144.834 314.713 144.8 314.656C144.766 314.599 144.744 314.535 144.734 314.469C144.715 314.336 144.75 314.201 144.831 314.093C144.911 313.985 145.032 313.914 145.165 313.895C145.298 313.876 145.434 313.911 145.541 313.991C145.856 314.225 153.357 319.858 155.113 321.614C155.24 321.732 155.318 321.894 155.331 322.067C155.344 322.24 155.291 322.412 155.184 322.548C154.098 323.878 140.964 324.537 132.549 324.537Z" fill="#00124D"/>
<path d="M157.143 141.339C155.762 141.278 154.382 141.045 152.788 140.903C151.195 140.761 149.388 140.223 149.358 138.741C149.358 137.462 150.86 136.406 150.525 135.178C150.407 134.847 150.228 134.54 149.997 134.275C147.873 131.425 146.935 127.864 147.377 124.337C147.82 120.81 149.61 117.592 152.372 115.355C151.956 115.497 151.509 115.081 151.469 114.645C151.466 114.199 151.637 113.769 151.946 113.447C153.065 112.217 154.518 111.339 156.128 110.92C161.163 109.367 166.55 109.367 171.586 110.92C175.443 112.046 180.082 115.122 179.574 119.781C179.512 120.625 179.162 121.423 178.581 122.04C178.001 122.658 177.226 123.057 176.387 123.171C175.524 128.164 172.906 131.575 169.617 135.188C167.407 137.67 164.617 139.567 161.497 140.71C160.103 141.211 158.622 141.426 157.143 141.339Z" fill="white"/>
<path d="M157.772 141.898H157.143C156.32 141.898 155.519 141.766 154.656 141.664C154.057 141.593 153.438 141.522 152.768 141.461C150.362 141.258 148.911 140.264 148.881 138.802C148.919 138.103 149.159 137.43 149.571 136.863C149.906 136.305 150.19 135.848 150.068 135.361C149.976 135.12 149.842 134.896 149.672 134.701C147.515 131.862 146.497 128.319 146.818 124.768C147.139 121.217 148.776 117.914 151.408 115.508C151.176 115.28 151.029 114.979 150.992 114.655C150.98 114.367 151.026 114.079 151.127 113.809C151.228 113.539 151.382 113.292 151.58 113.082C152.757 111.8 154.274 110.881 155.955 110.433C161.087 108.853 166.576 108.853 171.708 110.433C176.235 111.752 180.569 115.173 180.051 119.842C179.972 120.734 179.617 121.579 179.034 122.259C178.452 122.94 177.672 123.422 176.803 123.638C175.788 128.774 172.885 132.326 169.972 135.534C167.712 138.077 164.856 140.02 161.659 141.187C160.414 141.647 159.099 141.888 157.772 141.898ZM152.321 114.858C152.419 114.857 152.516 114.882 152.602 114.93C152.687 114.978 152.759 115.048 152.809 115.132C152.871 115.234 152.896 115.355 152.879 115.473C152.862 115.592 152.805 115.701 152.717 115.782C150.063 117.939 148.343 121.039 147.918 124.433C147.492 127.827 148.393 131.255 150.433 134.001C150.708 134.314 150.915 134.68 151.042 135.077C151.109 135.478 151.09 135.889 150.987 136.283C150.883 136.676 150.698 137.044 150.444 137.361C150.143 137.772 149.954 138.255 149.896 138.761C149.896 140.111 152.372 140.385 152.859 140.436C153.529 140.436 154.169 140.568 154.778 140.639C155.61 140.741 156.402 140.832 157.193 140.862C158.596 140.948 160.002 140.748 161.324 140.274C164.362 139.167 167.075 137.322 169.221 134.904C172.835 130.936 175.078 127.738 175.869 123.141C175.888 123.026 175.945 122.92 176.032 122.843C176.119 122.765 176.23 122.72 176.346 122.714C177.061 122.602 177.717 122.251 178.207 121.718C178.698 121.185 178.993 120.503 179.046 119.781C179.554 115.122 174.489 112.351 171.424 111.458C166.486 109.94 161.207 109.94 156.27 111.458C154.767 111.841 153.41 112.66 152.372 113.813C152.146 114.033 152.012 114.33 151.997 114.645C152.005 114.696 152.024 114.745 152.052 114.788C152.08 114.832 152.116 114.869 152.159 114.899L152.321 114.858Z" fill="#00124D"/>
<path d="M136.416 171.333C136.416 171.333 125.678 193.196 126.51 199.895C127.342 206.594 149.53 203.955 149.53 203.955L148.363 170.744L136.416 171.333Z" fill="white"/>
<path d="M140.375 204.99C139.705 204.99 139.015 204.99 138.345 204.99C130.57 204.747 126.419 203.062 126.023 199.997C125.14 193.226 135.533 172.054 135.97 171.16C136.012 171.079 136.074 171.01 136.15 170.961C136.227 170.911 136.315 170.882 136.406 170.876L148.353 170.298C148.419 170.294 148.486 170.304 148.549 170.326C148.612 170.349 148.669 170.384 148.718 170.43C148.769 170.474 148.81 170.528 148.838 170.589C148.866 170.651 148.881 170.717 148.881 170.785L150.038 203.955C150.041 204.083 149.998 204.207 149.915 204.304C149.833 204.402 149.717 204.465 149.591 204.483C146.529 204.807 143.453 204.977 140.375 204.99ZM136.741 171.84C135.523 174.347 126.226 193.754 127.017 199.834C127.708 204.828 142.679 204.219 149.023 203.519L147.876 171.333L136.741 171.84Z" fill="#00124D"/>
<path d="M179.249 309.535L179.828 323.745C179.828 323.745 206.441 323.938 204.888 322C203.335 320.061 191.287 311.515 191.287 311.515L189.349 301.02L179.249 309.535Z" fill="white"/>
<path d="M183.248 324.242H179.828C179.697 324.242 179.571 324.192 179.476 324.101C179.381 324.01 179.326 323.886 179.32 323.755L178.742 309.545C178.739 309.469 178.753 309.393 178.783 309.323C178.813 309.252 178.857 309.19 178.914 309.139L189.064 300.593C189.133 300.536 189.214 300.498 189.301 300.482C189.388 300.466 189.478 300.473 189.562 300.501C189.644 300.533 189.716 300.586 189.773 300.653C189.83 300.72 189.869 300.801 189.887 300.887L191.795 311.179C193.317 312.265 203.822 319.766 205.325 321.644C205.413 321.751 205.47 321.882 205.488 322.02C205.506 322.158 205.485 322.299 205.426 322.425C204.655 323.948 192.424 324.242 183.248 324.242ZM180.315 323.227C191.003 323.288 202.391 322.882 204.3 322.08C202.594 320.294 194.962 314.721 190.993 311.93C190.94 311.894 190.894 311.848 190.859 311.794C190.824 311.74 190.801 311.679 190.79 311.616L189.003 301.983L179.767 309.809L180.315 323.227Z" fill="#00124D"/>
<path d="M184.071 209.902L194.393 313.432L177.301 313.818L157.884 240.677L147.125 314.447L127.312 313.432C127.312 313.432 130.763 272.254 132.559 256.592C134.356 240.931 137.137 213.82 137.137 213.82L184.071 209.902Z" fill="#00124D"/>
<path d="M177.707 130.448C177.707 130.448 181.269 136.325 180.437 137.482C179.605 138.639 177.037 137.746 177.037 137.746" fill="white"/>
<path d="M178.894 138.579C178.203 138.566 177.518 138.446 176.864 138.223C176.752 138.17 176.664 138.077 176.615 137.962C176.567 137.848 176.563 137.72 176.603 137.602C176.643 137.485 176.725 137.386 176.833 137.324C176.941 137.263 177.067 137.243 177.189 137.269C177.92 137.513 179.554 137.817 180.011 137.178C180.467 136.538 179.046 133.656 177.26 130.712C177.215 130.656 177.182 130.59 177.165 130.52C177.147 130.45 177.145 130.377 177.157 130.306C177.17 130.235 177.198 130.167 177.239 130.108C177.28 130.048 177.334 129.998 177.396 129.961C177.458 129.924 177.527 129.9 177.599 129.892C177.671 129.884 177.743 129.891 177.812 129.913C177.881 129.935 177.944 129.972 177.998 130.02C178.051 130.069 178.094 130.128 178.123 130.195C179.249 132.042 181.767 136.488 180.843 137.777C180.605 138.055 180.304 138.273 179.965 138.412C179.626 138.552 179.259 138.609 178.894 138.579Z" fill="#00124D"/>
<path d="M177.189 122.856C179.523 124.886 178.661 129.048 178.539 131.748C178.356 135.544 178.092 139.34 177.747 143.136C177.524 145.531 171.282 145.349 170.206 144.587L170.825 154.139L157.904 148.607L158.746 137.635C158.746 137.635 162.867 137.817 165.496 133.006C168.125 128.195 168.308 120.644 168.308 120.644C168.308 120.644 174.915 120.847 177.189 122.856Z" fill="white"/>
<path d="M170.825 154.646C170.758 154.661 170.689 154.661 170.622 154.646L157.711 149.114C157.614 149.071 157.531 149 157.475 148.909C157.419 148.819 157.392 148.713 157.396 148.607L158.239 137.635C158.249 137.504 158.31 137.382 158.409 137.295C158.507 137.208 158.635 137.162 158.767 137.168C158.919 137.168 162.614 137.259 165.05 132.803C167.587 128.155 167.8 120.745 167.8 120.623C167.801 120.556 167.816 120.49 167.844 120.429C167.872 120.368 167.912 120.313 167.963 120.268C168.01 120.22 168.067 120.183 168.13 120.16C168.193 120.137 168.261 120.129 168.328 120.136C168.602 120.136 175.139 120.37 177.524 122.481C179.655 124.359 179.371 127.657 179.148 130.317C179.148 130.824 179.067 131.332 179.046 131.768C178.864 135.554 178.6 139.391 178.255 143.177C178.193 143.58 178.021 143.958 177.758 144.27C177.494 144.582 177.15 144.815 176.763 144.943C174.84 145.64 172.757 145.767 170.764 145.308L171.353 154.078C171.357 154.146 171.347 154.215 171.324 154.279C171.301 154.343 171.265 154.403 171.219 154.453C171.172 154.503 171.116 154.543 171.054 154.571C170.991 154.599 170.924 154.614 170.855 154.616L170.825 154.646ZM158.442 148.282L170.256 153.357L169.708 144.628C169.697 144.532 169.716 144.435 169.761 144.35C169.807 144.265 169.877 144.196 169.962 144.151C170.042 144.099 170.136 144.072 170.231 144.072C170.326 144.072 170.42 144.099 170.5 144.151C172.407 144.744 174.456 144.701 176.336 144.029C176.905 143.776 177.209 143.451 177.24 143.014C177.595 139.249 177.859 135.422 178.031 131.656C178.031 131.19 178.092 130.641 178.133 130.154C178.346 127.728 178.6 124.714 176.854 123.171C175.088 121.608 170.348 121.202 168.795 121.141C168.704 122.958 168.226 129.028 165.943 133.22C163.659 137.411 160.452 137.99 159.213 138.092L158.442 148.282Z" fill="#00124D"/>
<path d="M197.012 174.672C197.012 174.672 181.736 158.533 175.697 152.464C170.084 146.84 153.763 141.725 146.333 149.784C146.333 149.784 134.153 166.826 131.768 176.732L138.873 181.107C137.317 192.846 136.402 204.661 136.132 216.5C149.611 227.157 184.071 209.902 184.071 209.902L180.954 185.542L186.527 191.125L197.012 174.672Z" fill="#0051D9"/>
<path d="M177.767 140.294C177.767 140.294 174.722 141.989 173.301 138.883L177.767 140.294Z" fill="white"/>
<path d="M175.951 141.268C175.607 141.266 175.265 141.215 174.936 141.116C174.461 140.946 174.029 140.677 173.667 140.327C173.304 139.977 173.021 139.554 172.835 139.086C172.807 139.025 172.791 138.96 172.788 138.893C172.785 138.826 172.796 138.76 172.819 138.697C172.842 138.634 172.877 138.577 172.923 138.528C172.968 138.479 173.023 138.439 173.083 138.411C173.144 138.383 173.209 138.367 173.276 138.365C173.343 138.362 173.41 138.373 173.472 138.396C173.535 138.419 173.592 138.454 173.641 138.499C173.691 138.545 173.73 138.599 173.758 138.66C173.889 138.995 174.089 139.298 174.344 139.552C174.599 139.805 174.904 140.003 175.24 140.132C176.008 140.317 176.818 140.212 177.514 139.837C177.633 139.775 177.771 139.761 177.9 139.799C178.029 139.837 178.138 139.923 178.204 140.04C178.238 140.097 178.259 140.16 178.268 140.226C178.277 140.291 178.272 140.358 178.254 140.422C178.236 140.485 178.205 140.545 178.163 140.596C178.121 140.647 178.07 140.689 178.011 140.72C177.378 141.066 176.672 141.254 175.951 141.268Z" fill="#00124D"/>
<path d="M170.338 132.61C170.267 131.655 169.934 130.738 169.373 129.961C169.032 129.304 168.59 128.705 168.064 128.185C167.8 127.922 167.481 127.722 167.13 127.599C166.778 127.476 166.404 127.433 166.034 127.474C165.712 127.544 165.409 127.68 165.143 127.874C164.878 128.068 164.655 128.316 164.491 128.601C164.177 129.177 163.99 129.814 163.943 130.468C163.83 131.894 164.092 133.324 164.702 134.617C165.313 135.909 166.252 137.02 167.425 137.837L167.222 137.604" fill="white"/>
<path d="M167.425 138.356C167.323 138.357 167.223 138.325 167.14 138.264C165.891 137.395 164.891 136.212 164.241 134.836C163.591 133.459 163.314 131.936 163.436 130.419C163.491 129.705 163.702 129.012 164.055 128.389C164.25 128.039 164.52 127.737 164.844 127.502C165.168 127.267 165.54 127.105 165.933 127.028C166.378 126.972 166.831 127.017 167.257 127.162C167.682 127.306 168.069 127.545 168.389 127.861C168.948 128.404 169.421 129.031 169.79 129.718C170.398 130.577 170.75 131.591 170.805 132.641C170.805 132.776 170.751 132.905 170.656 133C170.561 133.095 170.432 133.149 170.297 133.149C170.162 133.149 170.033 133.095 169.938 133C169.843 132.905 169.79 132.776 169.79 132.641C169.72 131.779 169.411 130.952 168.896 130.256C168.58 129.647 168.172 129.089 167.689 128.602C167.479 128.395 167.227 128.236 166.95 128.136C166.673 128.036 166.378 127.998 166.085 128.023C165.836 128.078 165.601 128.184 165.396 128.337C165.191 128.489 165.021 128.683 164.897 128.906C164.618 129.412 164.455 129.974 164.42 130.55C164.322 131.797 164.528 133.049 165.022 134.199C165.515 135.348 166.281 136.36 167.252 137.148C167.381 137.161 167.501 137.223 167.587 137.321L167.79 137.554C167.871 137.647 167.916 137.766 167.916 137.889C167.916 138.012 167.871 138.131 167.79 138.224C167.741 138.269 167.683 138.304 167.62 138.326C167.558 138.349 167.491 138.359 167.425 138.356Z" fill="#00124D"/>
<path d="M170.206 144.587C168.374 143.917 166.774 142.733 165.598 141.177C165.598 141.177 165.598 146.972 170.48 148.84L170.206 144.587Z" fill="#00124D"/>
<path d="M170.48 149.347H170.297C165.141 147.378 165.09 141.227 165.09 141.227C165.088 141.117 165.123 141.01 165.19 140.921C165.256 140.833 165.349 140.769 165.456 140.74C165.562 140.711 165.675 140.717 165.777 140.757C165.88 140.797 165.966 140.87 166.024 140.964C167.136 142.396 168.632 143.483 170.338 144.1C170.431 144.133 170.513 144.194 170.572 144.273C170.632 144.352 170.667 144.447 170.673 144.546L170.947 148.809C170.951 148.893 170.934 148.977 170.899 149.053C170.864 149.129 170.81 149.195 170.744 149.246C170.668 149.306 170.576 149.341 170.48 149.347ZM166.278 142.791C166.459 143.874 166.88 144.903 167.511 145.802C168.141 146.701 168.965 147.448 169.922 147.987L169.729 144.942C168.462 144.43 167.295 143.702 166.278 142.791Z" fill="#00124D"/>
<path d="M181.381 187.258C181.244 187.258 181.112 187.203 181.015 187.106C177.141 183.104 173.485 178.895 170.064 174.5C169.985 174.391 169.952 174.256 169.971 174.124C169.99 173.991 170.06 173.871 170.165 173.789C170.273 173.708 170.408 173.674 170.541 173.693C170.675 173.712 170.795 173.783 170.876 173.89C174.271 178.255 177.9 182.433 181.746 186.405C181.794 186.452 181.831 186.507 181.857 186.568C181.882 186.629 181.896 186.695 181.896 186.761C181.896 186.827 181.882 186.892 181.857 186.953C181.831 187.014 181.794 187.07 181.746 187.116C181.699 187.164 181.642 187.202 181.579 187.226C181.516 187.251 181.448 187.262 181.381 187.258Z" fill="#00124D"/>
<path d="M157.599 239.134C157.481 239.14 157.365 239.1 157.275 239.023C157.011 238.81 150.971 233.664 150.941 225.544C150.941 225.411 150.993 225.283 151.086 225.188C151.179 225.093 151.306 225.039 151.438 225.036C151.505 225.036 151.57 225.049 151.631 225.075C151.692 225.101 151.747 225.138 151.794 225.185C151.84 225.233 151.876 225.289 151.901 225.35C151.925 225.412 151.937 225.477 151.936 225.544C151.936 233.187 157.853 238.201 157.914 238.241C158.016 238.33 158.08 238.455 158.091 238.589C158.103 238.724 158.061 238.858 157.975 238.962C157.927 239.014 157.869 239.057 157.805 239.086C157.74 239.116 157.67 239.132 157.599 239.134Z" fill="white"/>
<path d="M176.166 127.851C176.32 127.116 176.209 126.47 175.918 126.409C175.627 126.349 175.267 126.895 175.113 127.631C174.96 128.366 175.071 129.011 175.362 129.072C175.652 129.133 176.013 128.586 176.166 127.851Z" fill="#00124D"/>
<path d="M138.751 178.113H138.67C138.537 178.088 138.42 178.013 138.342 177.903C138.265 177.793 138.233 177.657 138.254 177.524C138.365 176.783 141.217 159.305 144.425 153.469C144.456 153.41 144.5 153.358 144.552 153.316C144.604 153.274 144.664 153.243 144.729 153.225C144.793 153.207 144.861 153.203 144.927 153.211C144.993 153.22 145.057 153.242 145.115 153.276C145.173 153.306 145.225 153.349 145.267 153.4C145.309 153.451 145.339 153.511 145.357 153.574C145.375 153.638 145.38 153.705 145.372 153.77C145.363 153.836 145.342 153.899 145.308 153.956C142.192 159.64 139.279 177.504 139.218 177.687C139.201 177.801 139.146 177.906 139.061 177.983C138.976 178.061 138.866 178.107 138.751 178.113Z" fill="#00124D"/>
<path d="M241.229 258.623C240.569 255.902 240.102 252.939 241.229 250.371C242.477 247.468 245.614 245.407 245.979 242.251C246.223 240.221 245.177 238.099 245.583 236.069C245.989 234.039 247.613 232.649 249.024 231.147C252.178 227.679 254.055 223.239 254.343 218.561C256.459 221.071 258.171 223.896 259.418 226.934C260.494 230.03 260.514 233.664 258.677 236.384C258.153 237.016 257.722 237.72 257.398 238.475C256.779 240.505 258.494 242.352 259.377 244.26C259.903 245.346 260.123 246.555 260.013 247.757C259.904 248.958 259.47 250.107 258.758 251.081C256.951 253.324 253.49 254.197 252.597 256.928C252.378 257.948 252.276 258.99 252.292 260.033C252.101 261.841 251.375 263.55 250.207 264.942C249.039 266.334 247.482 267.346 245.736 267.849C243.614 268.367 243.655 267.524 243.269 265.728C242.731 263.332 241.828 261.008 241.229 258.623Z" fill="#00124D"/>
<path d="M238.052 308.52C236.753 299.963 232.693 269.787 232.693 269.524L233.708 269.392C233.708 269.696 237.768 299.842 239.098 308.368L238.052 308.52Z" fill="#00124D"/>
<path d="M239.463 316.6H238.448C238.529 306.45 242.751 267.677 245.187 265.018L245.939 265.708C244.315 267.464 239.564 302.694 239.463 316.6Z" fill="#00124D"/>
<path d="M241.665 314.661H240.65C241.665 292.768 236.976 246.788 236.925 246.331L237.94 246.22C237.991 246.646 242.64 292.697 241.665 314.661Z" fill="#00124D"/>
<path d="M226.877 283.998H251.034L249.349 311.403C249.055 316.153 245.533 319.838 241.29 319.838H236.621C232.378 319.838 228.866 316.153 228.572 311.403L226.877 283.998Z" fill="white"/>
<path d="M241.29 320.406H236.621C232.124 320.406 228.359 316.488 228.044 311.484L226.359 284.079C226.354 284.007 226.363 283.936 226.386 283.868C226.41 283.801 226.447 283.739 226.496 283.686C226.544 283.634 226.603 283.592 226.669 283.563C226.735 283.535 226.805 283.52 226.877 283.521H251.034C251.179 283.523 251.317 283.581 251.42 283.683C251.515 283.792 251.566 283.934 251.562 284.079L249.867 311.484C249.562 316.478 245.797 320.406 241.29 320.406ZM227.435 284.546L229.09 311.403C229.364 315.858 232.673 319.34 236.621 319.34H241.29C245.238 319.34 248.547 315.858 248.821 311.403L250.476 284.525L227.435 284.546Z" fill="#00124D"/>
<g filter="url(#filter2_d_189_8135)">
<rect x="16" y="244.918" width="215" height="48" rx="8" fill="white" shape-rendering="crispEdges"/>
<rect x="28" y="256.918" width="24" height="24" rx="2" fill="#E8F4FF"/>
<mask id="path-70-inside-2_189_8135" fill="white">
<path d="M34 266.918V273.918H46V266.918H34ZM33.5 265.918H46.5C46.646 265.918 46.7658 265.965 46.8595 266.058C46.9532 266.152 47 266.272 47 266.418V274.418C47 274.564 46.9532 274.684 46.8595 274.777C46.7658 274.871 46.646 274.918 46.5 274.918H33.5C33.354 274.918 33.2342 274.871 33.1405 274.777C33.0468 274.684 33 274.564 33 274.418V266.418C33 266.272 33.0468 266.152 33.1405 266.058C33.2342 265.965 33.354 265.918 33.5 265.918ZM34.5 263.918H45.5V264.918H34.5V263.918ZM36 261.918H44V262.918H36V261.918Z"/>
</mask>
<path d="M34 266.918V273.918H46V266.918H34ZM33.5 265.918H46.5C46.646 265.918 46.7658 265.965 46.8595 266.058C46.9532 266.152 47 266.272 47 266.418V274.418C47 274.564 46.9532 274.684 46.8595 274.777C46.7658 274.871 46.646 274.918 46.5 274.918H33.5C33.354 274.918 33.2342 274.871 33.1405 274.777C33.0468 274.684 33 274.564 33 274.418V266.418C33 266.272 33.0468 266.152 33.1405 266.058C33.2342 265.965 33.354 265.918 33.5 265.918ZM34.5 263.918H45.5V264.918H34.5V263.918ZM36 261.918H44V262.918H36V261.918Z" fill="#303133"/>
<path d="M34 266.918V265.918H33V266.918H34ZM34 273.918H33V274.918H34V273.918ZM46 273.918V274.918H47V273.918H46ZM46 266.918H47V265.918H46V266.918ZM33.5 265.918V264.918V265.918ZM47 266.418H46H47ZM46.5 274.918V273.918V274.918ZM33 274.418H32H33ZM34.5 263.918V262.918H33.5V263.918H34.5ZM45.5 263.918H46.5V262.918H45.5V263.918ZM45.5 264.918V265.918H46.5V264.918H45.5ZM34.5 264.918H33.5V265.918H34.5V264.918ZM36 261.918V260.918H35V261.918H36ZM44 261.918H45V260.918H44V261.918ZM44 262.918V263.918H45V262.918H44ZM36 262.918H35V263.918H36V262.918ZM33 266.918V273.918H35V266.918H33ZM34 274.918H46V272.918H34V274.918ZM47 273.918V266.918H45V273.918H47ZM46 265.918H34V267.918H46V265.918ZM33.5 266.918H46.5V264.918H33.5V266.918ZM46.5 266.918C46.4651 266.918 46.406 266.912 46.3354 266.884C46.2628 266.856 46.2003 266.813 46.1524 266.766L47.5666 265.351C47.2654 265.05 46.8815 264.918 46.5 264.918V266.918ZM46.1524 266.766C46.1045 266.718 46.0618 266.655 46.0335 266.583C46.0059 266.512 46 266.453 46 266.418H48C48 266.037 47.8679 265.653 47.5666 265.351L46.1524 266.766ZM46 266.418V274.418H48V266.418H46ZM46 274.418C46 274.383 46.0059 274.324 46.0335 274.253C46.0618 274.181 46.1045 274.118 46.1524 274.07L47.5666 275.485C47.8679 275.183 48 274.799 48 274.418H46ZM46.1524 274.07C46.2003 274.023 46.2628 273.98 46.3354 273.951C46.406 273.924 46.4651 273.918 46.5 273.918V275.918C46.8815 275.918 47.2654 275.786 47.5666 275.485L46.1524 274.07ZM46.5 273.918H33.5V275.918H46.5V273.918ZM33.5 273.918C33.5349 273.918 33.594 273.924 33.6646 273.951C33.7372 273.98 33.7997 274.023 33.8476 274.07L32.4334 275.485C32.7346 275.786 33.1185 275.918 33.5 275.918V273.918ZM33.8476 274.07C33.8955 274.118 33.9382 274.181 33.9665 274.253C33.9941 274.324 34 274.383 34 274.418H32C32 274.799 32.1321 275.183 32.4334 275.485L33.8476 274.07ZM34 274.418V266.418H32V274.418H34ZM34 266.418C34 266.453 33.9941 266.512 33.9665 266.583C33.9382 266.655 33.8955 266.718 33.8476 266.766L32.4334 265.351C32.1321 265.653 32 266.037 32 266.418H34ZM33.8476 266.766C33.7997 266.813 33.7372 266.856 33.6646 266.884C33.594 266.912 33.5349 266.918 33.5 266.918V264.918C33.1185 264.918 32.7346 265.05 32.4334 265.351L33.8476 266.766ZM34.5 264.918H45.5V262.918H34.5V264.918ZM44.5 263.918V264.918H46.5V263.918H44.5ZM45.5 263.918H34.5V265.918H45.5V263.918ZM35.5 264.918V263.918H33.5V264.918H35.5ZM36 262.918H44V260.918H36V262.918ZM43 261.918V262.918H45V261.918H43ZM44 261.918H36V263.918H44V261.918ZM37 262.918V261.918H35V262.918H37Z" fill="#003DB6" mask="url(#path-70-inside-2_189_8135)"/>
<path d="M64.3118 273.918H62.343L65.9276 263.736H68.2045L71.794 273.918H69.8253L67.1058 265.824H67.0263L64.3118 273.918ZM64.3764 269.926H69.7457V271.407H64.3764V269.926ZM76.1442 276.941C75.4979 276.941 74.9427 276.853 74.4787 276.677C74.0147 276.505 73.6418 276.273 73.3601 275.981C73.0784 275.69 72.8828 275.366 72.7734 275.012L74.3942 274.619C74.4671 274.768 74.5732 274.916 74.7124 275.061C74.8516 275.211 75.0388 275.333 75.2741 275.429C75.5128 275.529 75.8127 275.578 76.174 275.578C76.6844 275.578 77.107 275.454 77.4418 275.206C77.7765 274.96 77.9439 274.556 77.9439 273.993V272.546H77.8544C77.7616 272.731 77.6257 272.922 77.4467 273.118C77.2711 273.313 77.0374 273.477 76.7457 273.61C76.4574 273.742 76.0945 273.809 75.657 273.809C75.0703 273.809 74.5384 273.671 74.0611 273.396C73.5871 273.118 73.2093 272.703 72.9276 272.153C72.6491 271.6 72.5099 270.907 72.5099 270.075C72.5099 269.236 72.6491 268.529 72.9276 267.952C73.2093 267.372 73.5888 266.933 74.0661 266.635C74.5433 266.333 75.0753 266.182 75.6619 266.182C76.1094 266.182 76.4773 266.258 76.7656 266.411C77.0573 266.56 77.2893 266.741 77.4616 266.953C77.634 267.162 77.7649 267.359 77.8544 267.544H77.9538V266.282H79.7287V274.042C79.7287 274.695 79.5729 275.235 79.2614 275.663C78.9498 276.091 78.5239 276.41 77.9837 276.623C77.4434 276.835 76.8303 276.941 76.1442 276.941ZM76.1591 272.397C76.5402 272.397 76.8651 272.304 77.1335 272.118C77.402 271.933 77.6058 271.666 77.745 271.318C77.8842 270.97 77.9538 270.552 77.9538 270.065C77.9538 269.584 77.8842 269.163 77.745 268.802C77.6091 268.441 77.407 268.161 77.1385 267.962C76.8733 267.76 76.5469 267.659 76.1591 267.659C75.758 267.659 75.4233 267.763 75.1548 267.972C74.8864 268.181 74.6842 268.467 74.5483 268.832C74.4124 269.193 74.3445 269.604 74.3445 270.065C74.3445 270.532 74.4124 270.942 74.5483 271.293C74.6875 271.641 74.8913 271.913 75.1598 272.108C75.4316 272.301 75.7647 272.397 76.1591 272.397ZM81.5732 273.918V266.282H83.3182V267.554H83.3977C83.5369 267.114 83.7756 266.774 84.1136 266.535C84.455 266.293 84.8445 266.172 85.282 266.172C85.3814 266.172 85.4924 266.177 85.6151 266.187C85.741 266.194 85.8454 266.205 85.9283 266.222V267.877C85.852 267.851 85.7311 267.828 85.5653 267.808C85.4029 267.785 85.2455 267.773 85.093 267.773C84.7649 267.773 84.4699 267.844 84.2081 267.987C83.9496 268.126 83.7457 268.32 83.5966 268.569C83.4474 268.817 83.3729 269.104 83.3729 269.429V273.918H81.5732ZM90.1902 274.067C89.4245 274.067 88.7633 273.908 88.2065 273.59C87.653 273.268 87.2271 272.814 86.9288 272.228C86.6305 271.638 86.4814 270.943 86.4814 270.145C86.4814 269.359 86.6305 268.67 86.9288 268.076C87.2304 267.48 87.6513 267.016 88.1916 266.684C88.7318 266.35 89.3665 266.182 90.0957 266.182C90.5663 266.182 91.0105 266.258 91.4281 266.411C91.849 266.56 92.2202 266.792 92.5417 267.107C92.8665 267.422 93.1217 267.823 93.3074 268.31C93.493 268.794 93.5858 269.371 93.5858 270.04V270.592H87.3265V269.379H91.8606C91.8573 269.034 91.7827 268.728 91.6369 268.459C91.4911 268.187 91.2872 267.974 91.0254 267.818C90.7669 267.662 90.4653 267.584 90.1206 267.584C89.7527 267.584 89.4295 267.674 89.1511 267.853C88.8727 268.028 88.6556 268.26 88.4998 268.549C88.3474 268.834 88.2695 269.147 88.2662 269.488V270.547C88.2662 270.991 88.3474 271.373 88.5098 271.691C88.6722 272.006 88.8992 272.248 89.1909 272.417C89.4825 272.582 89.8239 272.665 90.215 272.665C90.4769 272.665 90.7138 272.629 90.926 272.556C91.1381 272.48 91.322 272.368 91.4778 272.223C91.6336 272.077 91.7512 271.896 91.8308 271.681L93.5112 271.87C93.4051 272.314 93.2029 272.702 92.9047 273.033C92.6097 273.361 92.2318 273.616 91.7711 273.799C91.3104 273.978 90.7834 274.067 90.1902 274.067ZM98.489 274.067C97.7234 274.067 97.0621 273.908 96.5053 273.59C95.9518 273.268 95.5259 272.814 95.2276 272.228C94.9293 271.638 94.7802 270.943 94.7802 270.145C94.7802 269.359 94.9293 268.67 95.2276 268.076C95.5292 267.48 95.9502 267.016 96.4904 266.684C97.0307 266.35 97.6654 266.182 98.3945 266.182C98.8652 266.182 99.3093 266.258 99.7269 266.411C100.148 266.56 100.519 266.792 100.841 267.107C101.165 267.422 101.421 267.823 101.606 268.31C101.792 268.794 101.885 269.371 101.885 270.04V270.592H95.6254V269.379H100.159C100.156 269.034 100.082 268.728 99.9357 268.459C99.7899 268.187 99.5861 267.974 99.3242 267.818C99.0657 267.662 98.7641 267.584 98.4194 267.584C98.0515 267.584 97.7283 267.674 97.4499 267.853C97.1715 268.028 96.9544 268.26 96.7987 268.549C96.6462 268.834 96.5683 269.147 96.565 269.488V270.547C96.565 270.991 96.6462 271.373 96.8086 271.691C96.971 272.006 97.198 272.248 97.4897 272.417C97.7814 272.582 98.1228 272.665 98.5138 272.665C98.7757 272.665 99.0127 272.629 99.2248 272.556C99.4369 272.48 99.6209 272.368 99.7766 272.223C99.9324 272.077 100.05 271.896 100.13 271.681L101.81 271.87C101.704 272.314 101.502 272.702 101.203 273.033C100.908 273.361 100.531 273.616 100.07 273.799C99.6093 273.978 99.0823 274.067 98.489 274.067ZM103.407 273.918V266.282H105.127V267.579H105.217C105.376 267.142 105.639 266.8 106.007 266.555C106.375 266.306 106.814 266.182 107.325 266.182C107.842 266.182 108.278 266.308 108.632 266.56C108.99 266.809 109.242 267.148 109.388 267.579H109.468C109.637 267.155 109.922 266.817 110.323 266.565C110.727 266.31 111.206 266.182 111.759 266.182C112.462 266.182 113.035 266.404 113.48 266.848C113.924 267.292 114.146 267.94 114.146 268.792V273.918H112.341V269.071C112.341 268.597 112.215 268.25 111.963 268.032C111.711 267.81 111.403 267.699 111.039 267.699C110.604 267.699 110.265 267.834 110.019 268.106C109.777 268.375 109.656 268.724 109.656 269.155V273.918H107.892V268.996C107.892 268.602 107.772 268.287 107.534 268.051C107.298 267.816 106.99 267.699 106.609 267.699C106.35 267.699 106.115 267.765 105.903 267.897C105.691 268.027 105.522 268.211 105.396 268.449C105.27 268.685 105.207 268.96 105.207 269.275V273.918H103.407ZM119.352 274.067C118.587 274.067 117.925 273.908 117.369 273.59C116.815 273.268 116.389 272.814 116.091 272.228C115.793 271.638 115.643 270.943 115.643 270.145C115.643 269.359 115.793 268.67 116.091 268.076C116.393 267.48 116.813 267.016 117.354 266.684C117.894 266.35 118.529 266.182 119.258 266.182C119.728 266.182 120.173 266.258 120.59 266.411C121.011 266.56 121.382 266.792 121.704 267.107C122.029 267.422 122.284 267.823 122.469 268.31C122.655 268.794 122.748 269.371 122.748 270.04V270.592H116.489V269.379H121.023C121.019 269.034 120.945 268.728 120.799 268.459C120.653 268.187 120.449 267.974 120.188 267.818C119.929 267.662 119.627 267.584 119.283 267.584C118.915 267.584 118.592 267.674 118.313 267.853C118.035 268.028 117.818 268.26 117.662 268.549C117.509 268.834 117.432 269.147 117.428 269.488V270.547C117.428 270.991 117.509 271.373 117.672 271.691C117.834 272.006 118.061 272.248 118.353 272.417C118.645 272.582 118.986 272.665 119.377 272.665C119.639 272.665 119.876 272.629 120.088 272.556C120.3 272.48 120.484 272.368 120.64 272.223C120.796 272.077 120.913 271.896 120.993 271.681L122.673 271.87C122.567 272.314 122.365 272.702 122.067 273.033C121.772 273.361 121.394 273.616 120.933 273.799C120.473 273.978 119.946 274.067 119.352 274.067ZM126.07 269.444V273.918H124.27V266.282H125.991V267.579H126.08C126.256 267.152 126.536 266.812 126.92 266.56C127.308 266.308 127.787 266.182 128.357 266.182C128.884 266.182 129.343 266.295 129.734 266.52C130.129 266.746 130.434 267.072 130.649 267.5C130.868 267.927 130.975 268.446 130.972 269.056V273.918H129.172V269.334C129.172 268.824 129.04 268.424 128.775 268.136C128.513 267.848 128.15 267.703 127.686 267.703C127.371 267.703 127.091 267.773 126.846 267.912C126.604 268.048 126.413 268.245 126.274 268.504C126.138 268.762 126.07 269.076 126.07 269.444ZM136.615 266.282V267.674H132.225V266.282H136.615ZM133.309 264.452H135.108V271.621C135.108 271.863 135.145 272.049 135.218 272.178C135.294 272.304 135.394 272.39 135.516 272.436C135.639 272.483 135.775 272.506 135.924 272.506C136.037 272.506 136.139 272.498 136.232 272.481C136.328 272.465 136.401 272.45 136.451 272.436L136.754 273.843C136.658 273.877 136.52 273.913 136.341 273.953C136.166 273.993 135.95 274.016 135.695 274.022C135.244 274.036 134.838 273.968 134.477 273.819C134.116 273.666 133.829 273.431 133.617 273.113C133.408 272.794 133.305 272.397 133.309 271.919V264.452ZM143.392 263.736V273.918H141.593V263.736H143.392ZM148.624 274.067C147.858 274.067 147.197 273.908 146.64 273.59C146.087 273.268 145.661 272.814 145.362 272.228C145.064 271.638 144.915 270.943 144.915 270.145C144.915 269.359 145.064 268.67 145.362 268.076C145.664 267.48 146.085 267.016 146.625 266.684C147.165 266.35 147.8 266.182 148.529 266.182C149 266.182 149.444 266.258 149.862 266.411C150.283 266.56 150.654 266.792 150.975 267.107C151.3 267.422 151.555 267.823 151.741 268.31C151.927 268.794 152.019 269.371 152.019 270.04V270.592H145.76V269.379H150.294C150.291 269.034 150.216 268.728 150.07 268.459C149.925 268.187 149.721 267.974 149.459 267.818C149.2 267.662 148.899 267.584 148.554 267.584C148.186 267.584 147.863 267.674 147.585 267.853C147.306 268.028 147.089 268.26 146.933 268.549C146.781 268.834 146.703 269.147 146.7 269.488V270.547C146.7 270.991 146.781 271.373 146.943 271.691C147.106 272.006 147.333 272.248 147.624 272.417C147.916 272.582 148.258 272.665 148.649 272.665C148.91 272.665 149.147 272.629 149.36 272.556C149.572 272.48 149.756 272.368 149.911 272.223C150.067 272.077 150.185 271.896 150.264 271.681L151.945 271.87C151.839 272.314 151.637 272.702 151.338 273.033C151.043 273.361 150.665 273.616 150.205 273.799C149.744 273.978 149.217 274.067 148.624 274.067ZM157.355 266.282V267.674H152.965V266.282H157.355ZM154.049 264.452H155.849V271.621C155.849 271.863 155.885 272.049 155.958 272.178C156.034 272.304 156.134 272.39 156.256 272.436C156.379 272.483 156.515 272.506 156.664 272.506C156.777 272.506 156.879 272.498 156.972 272.481C157.068 272.465 157.141 272.45 157.191 272.436L157.494 273.843C157.398 273.877 157.261 273.913 157.082 273.953C156.906 273.993 156.691 274.016 156.435 274.022C155.985 274.036 155.579 273.968 155.217 273.819C154.856 273.666 154.569 273.431 154.357 273.113C154.148 272.794 154.046 272.397 154.049 271.919V264.452ZM162.673 266.282V267.674H158.284V266.282H162.673ZM159.367 264.452H161.167V271.621C161.167 271.863 161.204 272.049 161.276 272.178C161.353 272.304 161.452 272.39 161.575 272.436C161.697 272.483 161.833 272.506 161.982 272.506C162.095 272.506 162.198 272.498 162.291 272.481C162.387 272.465 162.46 272.45 162.509 272.436L162.813 273.843C162.717 273.877 162.579 273.913 162.4 273.953C162.224 273.993 162.009 274.016 161.754 274.022C161.303 274.036 160.897 273.968 160.536 273.819C160.174 273.666 159.888 273.431 159.676 273.113C159.467 272.794 159.364 272.397 159.367 271.919V264.452ZM167.477 274.067C166.712 274.067 166.05 273.908 165.494 273.59C164.94 273.268 164.514 272.814 164.216 272.228C163.918 271.638 163.768 270.943 163.768 270.145C163.768 269.359 163.918 268.67 164.216 268.076C164.518 267.48 164.938 267.016 165.479 266.684C166.019 266.35 166.654 266.182 167.383 266.182C167.853 266.182 168.298 266.258 168.715 266.411C169.136 266.56 169.507 266.792 169.829 267.107C170.154 267.422 170.409 267.823 170.594 268.31C170.78 268.794 170.873 269.371 170.873 270.04V270.592H164.614V269.379H169.148C169.144 269.034 169.07 268.728 168.924 268.459C168.778 268.187 168.574 267.974 168.312 267.818C168.054 267.662 167.752 267.584 167.408 267.584C167.04 267.584 166.717 267.674 166.438 267.853C166.16 268.028 165.943 268.26 165.787 268.549C165.634 268.834 165.557 269.147 165.553 269.488V270.547C165.553 270.991 165.634 271.373 165.797 271.691C165.959 272.006 166.186 272.248 166.478 272.417C166.77 272.582 167.111 272.665 167.502 272.665C167.764 272.665 168.001 272.629 168.213 272.556C168.425 272.48 168.609 272.368 168.765 272.223C168.921 272.077 169.038 271.896 169.118 271.681L170.798 271.87C170.692 272.314 170.49 272.702 170.192 273.033C169.897 273.361 169.519 273.616 169.058 273.799C168.598 273.978 168.071 274.067 167.477 274.067ZM172.395 273.918V266.282H174.14V267.554H174.22C174.359 267.114 174.598 266.774 174.936 266.535C175.277 266.293 175.667 266.172 176.104 266.172C176.204 266.172 176.315 266.177 176.437 266.187C176.563 266.194 176.668 266.205 176.751 266.222V267.877C176.674 267.851 176.553 267.828 176.388 267.808C176.225 267.785 176.068 267.773 175.915 267.773C175.587 267.773 175.292 267.844 175.03 267.987C174.772 268.126 174.568 268.32 174.419 268.569C174.27 268.817 174.195 269.104 174.195 269.429V273.918H172.395Z" fill="#00124D"/>
<g clip-path="url(#clip4_189_8135)">
<path d="M216.657 267.48H217.501V267.481H217.001H216.301L216.175 267.143C216.136 267.026 216.092 266.91 216.043 266.796C216.095 266.913 216.143 267.032 216.187 267.152L216.307 267.48H216.657ZM214.955 265.145L214.95 265.139L215.296 264.521L215.536 264.092L215.553 264.102L215.129 264.841L214.955 265.145ZM212.95 262.601L212.96 262.607L212.712 263.02L212.669 263.092L212.95 262.601ZM212.002 263.582L212.279 263.633L211.996 263.583C211.332 263.457 210.667 263.457 210.003 263.583L209.717 263.634L209.997 263.582C210.666 263.457 211.334 263.457 212.002 263.582ZM209.472 263.339L209.627 263.608L209.292 263.028L209.047 262.603L209.05 262.601L209.472 263.339ZM206.447 264.102L206.494 264.075L206.464 264.092L206.704 264.521L207.049 265.14L207.045 265.145L206.871 264.841L206.447 264.102ZM205.824 267.144L205.706 267.481H204.999H204.499L204.499 267.48H205.343H205.695L205.814 267.149C206.012 266.596 206.288 266.09 206.642 265.63C206.294 266.088 206.021 266.592 205.825 267.141L205.825 267.141L205.824 267.144ZM205.693 270.481H205.699L205.825 270.822C205.875 270.964 205.929 271.102 205.987 271.235C205.923 271.096 205.865 270.954 205.813 270.81L205.693 270.481ZM206.871 273.12L207.045 272.817L207.049 272.822L206.704 273.44L206.464 273.869L206.447 273.859L206.871 273.12ZM209.292 274.934L209.52 274.54L209.472 274.622L209.05 275.359L209.048 275.358L209.292 274.934ZM209.997 274.379L209.848 274.352L210.003 274.379C210.11 274.399 210.217 274.416 210.323 274.43C210.215 274.416 210.106 274.4 209.997 274.379ZM212.002 274.379C211.897 274.399 211.792 274.415 211.688 274.429C211.791 274.415 211.893 274.399 211.996 274.379L212.153 274.351L212.002 274.379ZM212.527 274.622L212.48 274.54L212.707 274.934L212.952 275.358L212.95 275.359L212.527 274.622ZM215.553 273.859L215.535 273.869L215.296 273.44L214.95 272.822L214.955 272.817L215.129 273.12L215.553 273.859ZM216.176 270.818L216.293 270.481H216.304L216.186 270.812C215.973 271.407 215.67 271.947 215.275 272.434C215.662 271.943 215.962 271.405 216.173 270.824L216.173 270.824L216.176 270.818ZM215.563 265.922C215.488 265.81 215.409 265.701 215.327 265.594C215.409 265.699 215.487 265.808 215.563 265.922ZM208.005 269.098C208.049 269.88 208.339 270.558 208.881 271.1C209.423 271.641 210.1 271.931 210.883 271.976C210.073 271.932 209.414 271.64 208.877 271.103C208.341 270.567 208.048 269.908 208.005 269.098ZM213.123 271.103C212.586 271.64 211.927 271.932 211.117 271.976C211.9 271.931 212.577 271.641 213.119 271.1C213.661 270.558 213.951 269.88 213.995 269.098C213.952 269.908 213.659 270.567 213.123 271.103ZM213.123 266.858C213.659 267.394 213.952 268.053 213.995 268.863C213.951 268.081 213.661 267.403 213.119 266.861C212.577 266.319 211.9 266.03 211.117 265.985C211.927 266.029 212.586 266.321 213.123 266.858ZM208.877 266.858C209.414 266.321 210.073 266.029 210.883 265.985C210.1 266.03 209.423 266.319 208.881 266.861C208.339 267.403 208.049 268.081 208.005 268.863C208.048 268.053 208.341 267.394 208.877 266.858Z" fill="#303133" stroke="#4B5B76"/>
</g>
<rect x="16.5" y="245.418" width="214" height="47" rx="7.5" stroke="#00124D" shape-rendering="crispEdges"/>
</g>
<defs>
<filter id="filter0_d_189_8135" x="28" y="84" width="162" height="143" filterUnits="userSpaceOnUse" color-interpolation-filters="sRGB">
<feFlood flood-opacity="0" result="BackgroundImageFix"/>
<feColorMatrix in="SourceAlpha" type="matrix" values="0 0 0 0 0 0 0 0 0 0 0 0 0 0 0 0 0 0 127 0" result="hardAlpha"/>
<feOffset dy="4"/>
<feGaussianBlur stdDeviation="12"/>
<feComposite in2="hardAlpha" operator="out"/>
<feColorMatrix type="matrix" values="0 0 0 0 1 0 0 0 0 1 0 0 0 0 1 0 0 0 1 0"/>
<feBlend mode="normal" in2="BackgroundImageFix" result="effect1_dropShadow_189_8135"/>
<feBlend mode="normal" in="SourceGraphic" in2="effect1_dropShadow_189_8135" result="shape"/>
</filter>
<filter id="filter1_d_189_8135" x="198.358" y="0.917969" width="236" height="272" filterUnits="userSpaceOnUse" color-interpolation-filters="sRGB">
<feFlood flood-opacity="0" result="BackgroundImageFix"/>
<feColorMatrix in="SourceAlpha" type="matrix" values="0 0 0 0 0 0 0 0 0 0 0 0 0 0 0 0 0 0 127 0" result="hardAlpha"/>
<feOffset dy="4"/>
<feGaussianBlur stdDeviation="8"/>
<feComposite in2="hardAlpha" operator="out"/>
<feColorMatrix type="matrix" values="0 0 0 0 0 0 0 0 0 0.0705882 0 0 0 0 0.301961 0 0 0 0.1 0"/>
<feBlend mode="normal" in2="BackgroundImageFix" result="effect1_dropShadow_189_8135"/>
<feBlend mode="normal" in="SourceGraphic" in2="effect1_dropShadow_189_8135" result="shape"/>
</filter>
<filter id="filter2_d_189_8135" x="0" y="232.918" width="247" height="80" filterUnits="userSpaceOnUse" color-interpolation-filters="sRGB">
<feFlood flood-opacity="0" result="BackgroundImageFix"/>
<feColorMatrix in="SourceAlpha" type="matrix" values="0 0 0 0 0 0 0 0 0 0 0 0 0 0 0 0 0 0 127 0" result="hardAlpha"/>
<feOffset dy="4"/>
<feGaussianBlur stdDeviation="8"/>
<feComposite in2="hardAlpha" operator="out"/>
<feColorMatrix type="matrix" values="0 0 0 0 0 0 0 0 0 0 0 0 0 0 0 0 0 0 0.1 0"/>
<feBlend mode="normal" in2="BackgroundImageFix" result="effect1_dropShadow_189_8135"/>
<feBlend mode="normal" in="SourceGraphic" in2="effect1_dropShadow_189_8135" result="shape"/>
</filter>
<clipPath id="clip0_189_8135">
<rect x="226.358" y="112.918" width="180" height="17" rx="3.55898" fill="white"/>
</clipPath>
<clipPath id="clip1_189_8135">
<rect width="7.28571" height="7.28571" fill="white" transform="translate(365.072 117.775)"/>
</clipPath>
<clipPath id="clip2_189_8135">
<rect width="7.28571" height="7.28571" fill="white" transform="translate(379.643 117.775)"/>
</clipPath>
<clipPath id="clip3_189_8135">
<rect width="8.77222" height="8.77222" fill="white" transform="matrix(-1 0 0 1 235.13 143.532)"/>
</clipPath>
<clipPath id="clip4_189_8135">
<rect width="16" height="16" fill="white" transform="translate(203 260.918)"/>
</clipPath>
</defs>
</svg>
