<svg width="559" height="375" viewBox="0 0 559 375" fill="none" xmlns="http://www.w3.org/2000/svg">
<path fill-rule="evenodd" clip-rule="evenodd" d="M296.747 2.6184C335.406 7.65389 364.941 35.5625 395.384 59.8804C424.282 82.9641 457.634 104.393 468.409 139.743C479.103 174.827 465.407 211.655 452.058 245.819C439.419 278.165 420.997 307.245 394.278 329.467C366.012 352.975 333.533 375.361 296.747 374.991C260.109 374.622 230.991 348.003 200.635 327.516C169.053 306.202 130.885 289.198 117.063 253.726C102.967 217.549 117.631 178.092 127.812 140.627C138.553 101.1 145.708 57.4296 177.455 31.4943C209.916 4.97545 255.157 -2.79884 296.747 2.6184Z" fill="#E8FFFB"/>
<g filter="url(#filter0_d_316_8042)">
<rect x="19.3931" y="16.6289" width="275" height="271" rx="9.35599" fill="white" shape-rendering="crispEdges"/>
<rect x="33.427" y="30.6631" width="28.068" height="28.068" rx="2.339" fill="#E8FFFB"/>
<mask id="path-5-inside-1_316_8042" fill="white">
<path d="M40.444 42.3582V50.5447H54.478V42.3582H40.444ZM39.8593 41.1887H55.0628C55.2335 41.1887 55.3737 41.2435 55.4832 41.3531C55.5928 41.4626 55.6475 41.6027 55.6475 41.7735V51.1295C55.6475 51.3002 55.5928 51.4404 55.4832 51.5499C55.3737 51.6595 55.2335 51.7142 55.0628 51.7142H39.8593C39.6885 51.7142 39.5484 51.6595 39.4389 51.5499C39.3293 51.4404 39.2745 51.3002 39.2745 51.1295V41.7735C39.2745 41.6027 39.3293 41.4626 39.4389 41.3531C39.5484 41.2435 39.6885 41.1887 39.8593 41.1887ZM41.0288 38.8497H53.8933V40.0192H41.0288V38.8497ZM42.783 36.5107H52.139V37.6802H42.783V36.5107Z"/>
</mask>
<path d="M40.444 42.3582V50.5447H54.478V42.3582H40.444ZM39.8593 41.1887H55.0628C55.2335 41.1887 55.3737 41.2435 55.4832 41.3531C55.5928 41.4626 55.6475 41.6027 55.6475 41.7735V51.1295C55.6475 51.3002 55.5928 51.4404 55.4832 51.5499C55.3737 51.6595 55.2335 51.7142 55.0628 51.7142H39.8593C39.6885 51.7142 39.5484 51.6595 39.4389 51.5499C39.3293 51.4404 39.2745 51.3002 39.2745 51.1295V41.7735C39.2745 41.6027 39.3293 41.4626 39.4389 41.3531C39.5484 41.2435 39.6885 41.1887 39.8593 41.1887ZM41.0288 38.8497H53.8933V40.0192H41.0288V38.8497ZM42.783 36.5107H52.139V37.6802H42.783V36.5107Z" fill="#303133"/>
<path d="M40.444 42.3582V41.1887H39.2745V42.3582H40.444ZM40.444 50.5447H39.2745V51.7142H40.444V50.5447ZM54.478 50.5447V51.7142H55.6475V50.5447H54.478ZM54.478 42.3582H55.6475V41.1887H54.478V42.3582ZM39.8593 41.1887V40.0192V41.1887ZM55.6475 41.7735H54.478H55.6475ZM55.0628 51.7142V50.5447V51.7142ZM39.2745 51.1295H38.105H39.2745ZM41.0288 38.8497V37.6802H39.8593V38.8497H41.0288ZM53.8933 38.8497H55.0628V37.6802H53.8933V38.8497ZM53.8933 40.0192V41.1887H55.0628V40.0192H53.8933ZM41.0288 40.0192H39.8593V41.1887H41.0288V40.0192ZM42.783 36.5107V35.3412H41.6135V36.5107H42.783ZM52.139 36.5107H53.3085V35.3412H52.139V36.5107ZM52.139 37.6802V38.8497H53.3085V37.6802H52.139ZM42.783 37.6802H41.6135V38.8497H42.783V37.6802ZM39.2745 42.3582V50.5447H41.6135V42.3582H39.2745ZM40.444 51.7142H54.478V49.3752H40.444V51.7142ZM55.6475 50.5447V42.3582H53.3085V50.5447H55.6475ZM54.478 41.1887H40.444V43.5277H54.478V41.1887ZM39.8593 42.3582H55.0628V40.0192H39.8593V42.3582ZM55.0628 42.3582C55.022 42.3582 54.9529 42.3514 54.8702 42.3191C54.7854 42.2859 54.7122 42.236 54.6562 42.18L56.3102 40.5261C55.9579 40.1738 55.5089 40.0192 55.0628 40.0192V42.3582ZM54.6562 42.18C54.6003 42.124 54.5503 42.0509 54.5172 41.966C54.4849 41.8834 54.478 41.8143 54.478 41.7735H56.817C56.817 41.3274 56.6625 40.8784 56.3102 40.5261L54.6562 42.18ZM54.478 41.7735V51.1295H56.817V41.7735H54.478ZM54.478 51.1295C54.478 51.0887 54.4849 51.0196 54.5172 50.9369C54.5503 50.8521 54.6003 50.7789 54.6562 50.723L56.3102 52.3769C56.6625 52.0246 56.817 51.5756 56.817 51.1295H54.478ZM54.6562 50.723C54.7122 50.667 54.7854 50.617 54.8702 50.5839C54.9529 50.5516 55.022 50.5447 55.0628 50.5447V52.8837C55.5089 52.8837 55.9579 52.7292 56.3102 52.3769L54.6562 50.723ZM55.0628 50.5447H39.8593V52.8837H55.0628V50.5447ZM39.8593 50.5447C39.9001 50.5447 39.9692 50.5516 40.0518 50.5839C40.1367 50.617 40.2098 50.667 40.2658 50.723L38.6119 52.3769C38.9642 52.7292 39.4132 52.8837 39.8593 52.8837V50.5447ZM40.2658 50.723C40.3218 50.7789 40.3717 50.8521 40.4049 50.9369C40.4372 51.0196 40.444 51.0887 40.444 51.1295H38.105C38.105 51.5756 38.2596 52.0246 38.6119 52.3769L40.2658 50.723ZM40.444 51.1295V41.7735H38.105V51.1295H40.444ZM40.444 41.7735C40.444 41.8143 40.4372 41.8834 40.4049 41.966C40.3717 42.0509 40.3218 42.124 40.2658 42.18L38.6119 40.5261C38.2596 40.8784 38.105 41.3274 38.105 41.7735H40.444ZM40.2658 42.18C40.2098 42.236 40.1367 42.2859 40.0518 42.3191C39.9692 42.3514 39.9001 42.3582 39.8593 42.3582V40.0192C39.4132 40.0192 38.9642 40.1738 38.6119 40.5261L40.2658 42.18ZM41.0288 40.0192H53.8933V37.6802H41.0288V40.0192ZM52.7238 38.8497V40.0192H55.0628V38.8497H52.7238ZM53.8933 38.8497H41.0288V41.1887H53.8933V38.8497ZM42.1983 40.0192V38.8497H39.8593V40.0192H42.1983ZM42.783 37.6802H52.139V35.3412H42.783V37.6802ZM50.9695 36.5107V37.6802H53.3085V36.5107H50.9695ZM52.139 36.5107H42.783V38.8497H52.139V36.5107ZM43.9525 37.6802V36.5107H41.6135V37.6802H43.9525Z" fill="#0FBFC4" mask="url(#path-5-inside-1_316_8042)"/>
<path d="M84.1832 42.1553H81.3835C81.3324 41.7931 81.2279 41.4713 81.0703 41.1901C80.9126 40.9046 80.7102 40.6617 80.463 40.4614C80.2159 40.2611 79.9304 40.1077 79.6065 40.0012C79.2869 39.8946 78.9396 39.8414 78.5646 39.8414C77.887 39.8414 77.2968 40.0097 76.794 40.3463C76.2912 40.6787 75.9012 41.1645 75.6243 41.8037C75.3473 42.4387 75.2088 43.21 75.2088 44.1176C75.2088 45.0509 75.3473 45.835 75.6243 46.4699C75.9055 47.1048 76.2976 47.5843 76.8004 47.9081C77.3032 48.232 77.8849 48.3939 78.5454 48.3939C78.9162 48.3939 79.2592 48.3449 79.5745 48.2469C79.8941 48.1489 80.1775 48.0061 80.4247 47.8186C80.6718 47.6269 80.8764 47.3946 81.0383 47.1219C81.2045 46.8492 81.3196 46.5381 81.3835 46.1887L84.1832 46.2014C84.1108 46.8023 83.9297 47.3818 83.6399 47.9401C83.3544 48.4941 82.9687 48.9905 82.4829 49.4294C82.0014 49.8641 81.4261 50.2093 80.7571 50.4649C80.0923 50.7164 79.3402 50.8421 78.5007 50.8421C77.3331 50.8421 76.289 50.5779 75.3686 50.0494C74.4524 49.521 73.7279 48.7561 73.1953 47.7547C72.6669 46.7533 72.4027 45.5409 72.4027 44.1176C72.4027 42.6901 72.6711 41.4756 73.2081 40.4742C73.745 39.4727 74.4737 38.71 75.3941 38.1858C76.3146 37.6574 77.3501 37.3932 78.5007 37.3932C79.2592 37.3932 79.9623 37.4997 80.6101 37.7128C81.262 37.9259 81.8395 38.2369 82.3423 38.646C82.8451 39.0509 83.2542 39.5473 83.5696 40.1354C83.8892 40.7235 84.0937 41.3968 84.1832 42.1553ZM88.8998 37.5722V50.6631H86.1768V37.5722H88.8998ZM93.9408 50.8485C93.3144 50.8485 92.7562 50.7398 92.2661 50.5225C91.776 50.3009 91.3883 49.9749 91.1027 49.5445C90.8215 49.1098 90.6809 48.5686 90.6809 47.9209C90.6809 47.3754 90.781 46.9173 90.9813 46.5466C91.1816 46.1759 91.4543 45.8776 91.7995 45.6517C92.1446 45.4259 92.5367 45.2554 92.9756 45.1404C93.4188 45.0253 93.8833 44.9443 94.3691 44.8975C94.9401 44.8378 95.4003 44.7824 95.7498 44.7313C96.0992 44.6759 96.3527 44.5949 96.5104 44.4884C96.6681 44.3818 96.7469 44.2242 96.7469 44.0154V43.977C96.7469 43.5722 96.6191 43.259 96.3634 43.0374C96.112 42.8158 95.754 42.705 95.2895 42.705C94.7995 42.705 94.4096 42.8137 94.1198 43.031C93.83 43.2441 93.6383 43.5125 93.5445 43.8364L91.026 43.6318C91.1539 43.0352 91.4053 42.5196 91.7803 42.085C92.1553 41.646 92.639 41.3094 93.2313 41.075C93.8279 40.8364 94.5182 40.7171 95.3023 40.7171C95.8478 40.7171 96.3698 40.781 96.8684 40.9088C97.3712 41.0367 97.8165 41.2348 98.2043 41.5033C98.5964 41.7718 98.9053 42.1169 99.1312 42.5388C99.357 42.9564 99.4699 43.4571 99.4699 44.0409V50.6631H96.8875V49.3016H96.8108C96.6532 49.6084 96.4422 49.879 96.178 50.1134C95.9138 50.3435 95.5964 50.5246 95.2256 50.6567C94.8549 50.7845 94.4266 50.8485 93.9408 50.8485ZM94.7206 48.9692C95.1212 48.9692 95.4749 48.8904 95.7817 48.7327C96.0885 48.5708 96.3293 48.3534 96.504 48.0807C96.6787 47.808 96.7661 47.499 96.7661 47.1539V46.1119C96.6809 46.1673 96.5637 46.2185 96.4145 46.2654C96.2696 46.308 96.1056 46.3485 95.9223 46.3868C95.7391 46.4209 95.5559 46.4529 95.3726 46.4827C95.1894 46.5083 95.0232 46.5317 94.8741 46.553C94.5544 46.5999 94.2753 46.6744 94.0367 46.7767C93.7981 46.879 93.6127 47.0175 93.4806 47.1922C93.3485 47.3627 93.2824 47.5757 93.2824 47.8314C93.2824 48.2021 93.4167 48.4855 93.6851 48.6816C93.9579 48.8733 94.303 48.9692 94.7206 48.9692ZM101.643 50.6631V40.8449H104.366V50.6631H101.643ZM103.01 39.5793C102.606 39.5793 102.258 39.445 101.968 39.1766C101.683 38.9039 101.54 38.5779 101.54 38.1986C101.54 37.8236 101.683 37.5019 101.968 37.2334C102.258 36.9607 102.606 36.8243 103.01 36.8243C103.415 36.8243 103.76 36.9607 104.046 37.2334C104.336 37.5019 104.481 37.8236 104.481 38.1986C104.481 38.5779 104.336 38.9039 104.046 39.1766C103.76 39.445 103.415 39.5793 103.01 39.5793ZM106.607 50.6631V40.8449H109.202V42.5771H109.317C109.522 42.0019 109.862 41.548 110.34 41.2156C110.817 40.8833 111.388 40.7171 112.053 40.7171C112.726 40.7171 113.299 40.8854 113.772 41.222C114.245 41.5544 114.561 42.0061 114.718 42.5771H114.821C115.021 42.0146 115.383 41.5651 115.907 41.2284C116.436 40.8875 117.06 40.7171 117.78 40.7171C118.696 40.7171 119.44 41.009 120.011 41.5928C120.586 42.1723 120.874 42.9948 120.874 44.0601V50.6631H118.157V44.597C118.157 44.0516 118.012 43.6425 117.723 43.3698C117.433 43.097 117.071 42.9607 116.636 42.9607C116.142 42.9607 115.756 43.1183 115.479 43.4337C115.202 43.7448 115.063 44.156 115.063 44.6673V50.6631H112.424V44.5395C112.424 44.058 112.285 43.6744 112.008 43.3889C111.735 43.1034 111.375 42.9607 110.928 42.9607C110.625 42.9607 110.353 43.0374 110.11 43.1908C109.871 43.3399 109.681 43.5509 109.541 43.8236C109.4 44.0921 109.33 44.4074 109.33 44.7696V50.6631H106.607ZM126.863 39.8541V37.5722H137.615V39.8541H133.607V50.6631H130.871V39.8541H126.863ZM140.858 50.8485C140.232 50.8485 139.673 50.7398 139.183 50.5225C138.693 50.3009 138.305 49.9749 138.02 49.5445C137.739 49.1098 137.598 48.5686 137.598 47.9209C137.598 47.3754 137.698 46.9173 137.898 46.5466C138.099 46.1759 138.371 45.8776 138.717 45.6517C139.062 45.4259 139.454 45.2554 139.893 45.1404C140.336 45.0253 140.8 44.9443 141.286 44.8975C141.857 44.8378 142.318 44.7824 142.667 44.7313C143.016 44.6759 143.27 44.5949 143.428 44.4884C143.585 44.3818 143.664 44.2242 143.664 44.0154V43.977C143.664 43.5722 143.536 43.259 143.281 43.0374C143.029 42.8158 142.671 42.705 142.207 42.705C141.717 42.705 141.327 42.8137 141.037 43.031C140.747 43.2441 140.555 43.5125 140.462 43.8364L137.943 43.6318C138.071 43.0352 138.322 42.5196 138.697 42.085C139.072 41.646 139.556 41.3094 140.148 41.075C140.745 40.8364 141.435 40.7171 142.22 40.7171C142.765 40.7171 143.287 40.781 143.786 40.9088C144.288 41.0367 144.734 41.2348 145.121 41.5033C145.514 41.7718 145.822 42.1169 146.048 42.5388C146.274 42.9564 146.387 43.4571 146.387 44.0409V50.6631H143.805V49.3016H143.728C143.57 49.6084 143.359 49.879 143.095 50.1134C142.831 50.3435 142.514 50.5246 142.143 50.6567C141.772 50.7845 141.344 50.8485 140.858 50.8485ZM141.638 48.9692C142.038 48.9692 142.392 48.8904 142.699 48.7327C143.006 48.5708 143.246 48.3534 143.421 48.0807C143.596 47.808 143.683 47.499 143.683 47.1539V46.1119C143.598 46.1673 143.481 46.2185 143.332 46.2654C143.187 46.308 143.023 46.3485 142.84 46.3868C142.656 46.4209 142.473 46.4529 142.29 46.4827C142.107 46.5083 141.94 46.5317 141.791 46.553C141.472 46.5999 141.193 46.6744 140.954 46.7767C140.715 46.879 140.53 47.0175 140.398 47.1922C140.266 47.3627 140.2 47.5757 140.2 47.8314C140.2 48.2021 140.334 48.4855 140.602 48.6816C140.875 48.8733 141.22 48.9692 141.638 48.9692ZM150.835 40.8449L152.638 44.2774L154.485 40.8449H157.278L154.434 45.754L157.355 50.6631H154.575L152.638 47.2689L150.733 50.6631H147.92L150.835 45.754L148.023 40.8449H150.835ZM163.233 50.6631V37.5722H168.398C169.386 37.5722 170.23 37.749 170.929 38.1027C171.632 38.4521 172.167 38.9486 172.533 39.5921C172.904 40.2313 173.089 40.9834 173.089 41.8485C173.089 42.7178 172.902 43.4656 172.527 44.0921C172.152 44.7142 171.608 45.1915 170.897 45.5239C170.189 45.8563 169.333 46.0225 168.327 46.0225H164.869V43.798H167.88C168.408 43.798 168.847 43.7256 169.197 43.5807C169.546 43.4358 169.806 43.2185 169.976 42.9287C170.151 42.6389 170.238 42.2789 170.238 41.8485C170.238 41.4138 170.151 41.0473 169.976 40.749C169.806 40.4507 169.544 40.2249 169.19 40.0715C168.841 39.9138 168.4 39.835 167.867 39.835H166.001V50.6631H163.233ZM170.302 44.7057L173.556 50.6631H170.501L167.317 44.7057H170.302ZM179.37 50.8548C178.36 50.8548 177.491 50.6503 176.762 50.2412C176.038 49.8279 175.48 49.2441 175.088 48.4898C174.696 47.7313 174.5 46.8343 174.5 45.7987C174.5 44.7888 174.696 43.9024 175.088 43.1396C175.48 42.3769 176.032 41.7824 176.743 41.3563C177.459 40.9301 178.299 40.7171 179.262 40.7171C179.909 40.7171 180.512 40.8215 181.071 41.0303C181.633 41.2348 182.123 41.5438 182.541 41.9571C182.963 42.3705 183.291 42.8904 183.525 43.5168C183.76 44.1389 183.877 44.8676 183.877 45.7029V46.4507H175.586V44.7632H181.314C181.314 44.3712 181.228 44.0239 181.058 43.7213C180.887 43.4188 180.651 43.1823 180.348 43.0118C180.05 42.8371 179.703 42.7497 179.306 42.7497C178.893 42.7497 178.527 42.8456 178.207 43.0374C177.892 43.2249 177.645 43.4784 177.466 43.798C177.287 44.1134 177.195 44.4649 177.191 44.8527V46.4571C177.191 46.9429 177.28 47.3627 177.459 47.7164C177.642 48.07 177.9 48.3428 178.233 48.5345C178.565 48.7263 178.959 48.8222 179.415 48.8222C179.718 48.8222 179.995 48.7796 180.246 48.6943C180.498 48.6091 180.713 48.4813 180.892 48.3108C181.071 48.1404 181.207 47.9316 181.301 47.6844L183.819 47.8506C183.691 48.4557 183.429 48.9841 183.033 49.4358C182.641 49.8833 182.134 50.2327 181.512 50.4841C180.894 50.7313 180.18 50.8548 179.37 50.8548ZM190.994 40.8449V42.8904H184.934V40.8449H190.994ZM186.321 50.6631V40.1354C186.321 39.4237 186.459 38.8335 186.736 38.3648C187.018 37.896 187.401 37.5445 187.887 37.3101C188.373 37.0757 188.925 36.9585 189.543 36.9585C189.96 36.9585 190.342 36.9905 190.687 37.0544C191.036 37.1183 191.296 37.1759 191.467 37.227L190.981 39.2725C190.874 39.2384 190.742 39.2064 190.584 39.1766C190.431 39.1468 190.273 39.1318 190.111 39.1318C189.711 39.1318 189.432 39.2256 189.274 39.4131C189.116 39.5963 189.038 39.8541 189.038 40.1865V50.6631H186.321ZM199.013 46.4827V40.8449H201.736V50.6631H199.122V48.8797H199.02C198.798 49.455 198.429 49.9173 197.914 50.2668C197.402 50.6162 196.778 50.7909 196.041 50.7909C195.385 50.7909 194.807 50.6418 194.309 50.3435C193.81 50.0452 193.42 49.6212 193.139 49.0715C192.862 48.5218 192.721 47.8634 192.717 47.0963V40.8449H195.44V46.6105C195.444 47.1901 195.6 47.6482 195.907 47.9848C196.214 48.3215 196.625 48.4898 197.14 48.4898C197.469 48.4898 197.775 48.4152 198.061 48.2661C198.346 48.1127 198.576 47.8868 198.751 47.5885C198.93 47.2902 199.018 46.9216 199.013 46.4827ZM206.697 44.9869V50.6631H203.974V40.8449H206.57V42.5771H206.685C206.902 42.0061 207.266 41.5544 207.778 41.222C208.289 40.8854 208.909 40.7171 209.638 40.7171C210.32 40.7171 210.914 40.8662 211.421 41.1645C211.928 41.4628 212.322 41.8889 212.604 42.4429C212.885 42.9926 213.026 43.6489 213.026 44.4117V50.6631H210.302V44.8975C210.307 44.2966 210.153 43.8279 209.842 43.4912C209.531 43.1503 209.103 42.9798 208.557 42.9798C208.191 42.9798 207.867 43.0587 207.586 43.2164C207.309 43.374 207.092 43.6041 206.934 43.9067C206.78 44.205 206.702 44.5651 206.697 44.9869ZM218.85 50.8229C218.104 50.8229 217.428 50.6311 216.823 50.2476C216.222 49.8598 215.745 49.2909 215.391 48.5409C215.042 47.7867 214.867 46.8619 214.867 45.7668C214.867 44.6418 215.048 43.7064 215.411 42.9607C215.773 42.2107 216.254 41.6503 216.855 41.2796C217.46 40.9046 218.123 40.7171 218.843 40.7171C219.393 40.7171 219.851 40.8108 220.217 40.9983C220.588 41.1816 220.886 41.4117 221.112 41.6887C221.342 41.9614 221.517 42.2298 221.636 42.4941H221.72V37.5722H224.436V50.6631H221.752V49.0906H221.636C221.509 49.3634 221.328 49.634 221.093 49.9024C220.863 50.1666 220.563 50.3861 220.192 50.5608C219.825 50.7355 219.378 50.8229 218.85 50.8229ZM219.712 48.656C220.151 48.656 220.522 48.5367 220.825 48.298C221.131 48.0551 221.366 47.7164 221.528 47.2817C221.694 46.847 221.777 46.3378 221.777 45.754C221.777 45.1702 221.696 44.6631 221.534 44.2327C221.372 43.8023 221.138 43.4699 220.831 43.2355C220.524 43.0012 220.151 42.884 219.712 42.884C219.265 42.884 218.888 43.0054 218.581 43.2483C218.274 43.4912 218.042 43.8279 217.884 44.2583C217.727 44.6887 217.648 45.1872 217.648 45.754C217.648 46.325 217.727 46.83 217.884 47.2689C218.046 47.7036 218.279 48.0445 218.581 48.2916C218.888 48.5345 219.265 48.656 219.712 48.656Z" fill="#00424D"/>
<path d="M52.3466 83.0672H51.075C51.0087 83.0672 50.9545 83.1215 50.9545 83.1878V90.0222H50.8399L46.1069 83.1195C46.0848 83.0873 46.0466 83.0672 46.0085 83.0672H44.6725C44.6062 83.0672 44.552 83.1215 44.552 83.1878V92.5092C44.552 92.5755 44.6062 92.6297 44.6725 92.6297H45.9321C45.9984 92.6297 46.0527 92.5755 46.0527 92.5092V85.5804H46.1672L50.9524 92.5775C50.9745 92.6097 51.0127 92.6297 51.0529 92.6297H52.3466C52.4129 92.6297 52.4672 92.5755 52.4672 92.5092V83.1878C52.4672 83.1215 52.4129 83.0672 52.3466 83.0672ZM59.9404 91.3641H53.8333C53.7449 91.3641 53.6725 91.4364 53.6725 91.5248V92.4891C53.6725 92.5775 53.7449 92.6498 53.8333 92.6498H59.9404C60.0288 92.6498 60.1011 92.5775 60.1011 92.4891V91.5248C60.1011 91.4364 60.0288 91.3641 59.9404 91.3641ZM56.8828 90.0985C57.9455 90.0985 58.7953 89.753 59.4181 89.0599C60.0087 88.3989 60.302 87.5371 60.302 86.4724C60.302 85.4056 60.0087 84.5338 59.4181 83.8748C58.7973 83.1757 57.9475 82.8262 56.8828 82.8262C55.804 82.8262 54.9562 83.1777 54.3455 83.8869C53.7589 84.5518 53.4737 85.4117 53.4737 86.4724C53.4737 87.5251 53.7609 88.3849 54.3475 89.0498C54.9623 89.7469 55.8141 90.0985 56.8828 90.0985ZM55.4464 84.8009C55.7859 84.3871 56.256 84.1802 56.8808 84.1802C57.5136 84.1802 57.9817 84.373 58.3071 84.7648C58.6366 85.1726 58.8074 85.7411 58.8074 86.4704C58.8074 87.1996 58.6386 87.7581 58.3091 88.1559C57.9777 88.5456 57.5056 88.7425 56.8808 88.7425C56.254 88.7425 55.7759 88.5355 55.4464 88.1318C55.119 87.728 54.9542 87.1815 54.9542 86.4724C54.9562 85.7532 55.119 85.2068 55.4464 84.8009Z" fill="#2C3645"/>
<path d="M72.5456 92.7305V82.5487H78.9291V83.8711H74.0818V86.9734H78.596V88.2908H74.0818V91.408H78.9888V92.7305H72.5456ZM82.3483 88.1964V92.7305H80.8618V85.0941H82.2887V86.337H82.3831C82.5588 85.9326 82.8339 85.6078 83.2084 85.3626C83.5863 85.1173 84.0619 84.9947 84.6353 84.9947C85.1556 84.9947 85.6114 85.104 86.0025 85.3228C86.3936 85.5382 86.6968 85.8597 86.9123 86.2873C87.1277 86.7148 87.2354 87.2435 87.2354 87.8732V92.7305H85.7489V88.0522C85.7489 87.4987 85.6047 87.0662 85.3164 86.7546C85.028 86.4397 84.632 86.2823 84.1282 86.2823C83.7835 86.2823 83.4769 86.3569 83.2084 86.506C82.9433 86.6552 82.7328 86.8739 82.577 87.1623C82.4246 87.4473 82.3483 87.792 82.3483 88.1964ZM92.7937 85.0941V86.2873H88.6225V85.0941H92.7937ZM89.7411 83.2646H91.2276V90.4883C91.2276 90.7766 91.2707 90.9937 91.3569 91.1396C91.443 91.2821 91.5541 91.3799 91.69 91.4329C91.8292 91.4826 91.98 91.5075 92.1424 91.5075C92.2617 91.5075 92.3661 91.4992 92.4556 91.4826C92.5451 91.466 92.6147 91.4528 92.6644 91.4428L92.9329 92.6708C92.8467 92.704 92.7241 92.7371 92.565 92.7702C92.4059 92.8067 92.207 92.8266 91.9684 92.8299C91.5773 92.8365 91.2127 92.7669 90.8746 92.6211C90.5366 92.4753 90.2631 92.2499 90.0543 91.945C89.8455 91.64 89.7411 91.2572 89.7411 90.7965V83.2646ZM97.6472 92.8846C96.8948 92.8846 96.2468 92.7238 95.7033 92.4023C95.163 92.0775 94.7454 91.6218 94.4504 91.0352C94.1588 90.4452 94.0129 89.7541 94.0129 88.962C94.0129 88.1798 94.1588 87.4904 94.4504 86.8938C94.7454 86.2972 95.1564 85.8316 95.6834 85.4968C96.2137 85.1621 96.8335 84.9947 97.5428 84.9947C97.9736 84.9947 98.3913 85.0659 98.7956 85.2085C99.2 85.351 99.5629 85.5747 99.8844 85.8796C100.206 86.1845 100.459 86.5806 100.645 87.0678C100.831 87.5517 100.923 88.14 100.923 88.8327V89.3597H94.8531V88.2461H99.4668C99.4668 87.855 99.3872 87.5086 99.2281 87.207C99.069 86.9021 98.8453 86.6618 98.557 86.4862C98.2719 86.3105 97.9372 86.2227 97.5527 86.2227C97.1351 86.2227 96.7705 86.3254 96.459 86.5309C96.1507 86.7331 95.9121 86.9982 95.7431 87.3263C95.5773 87.6512 95.4945 88.0041 95.4945 88.3853V89.2553C95.4945 89.7657 95.584 90.1999 95.7629 90.5579C95.9452 90.9158 96.1988 91.1893 96.5236 91.3782C96.8484 91.5638 97.2279 91.6566 97.6621 91.6566C97.9438 91.6566 98.2007 91.6168 98.4327 91.5373C98.6647 91.4544 98.8652 91.3318 99.0342 91.1694C99.2033 91.007 99.3325 90.8065 99.422 90.5678L100.829 90.8214C100.716 91.2357 100.514 91.5986 100.222 91.9102C99.9341 92.2184 99.5712 92.4587 99.1337 92.631C98.6995 92.8001 98.204 92.8846 97.6472 92.8846ZM102.573 92.7305V85.0941H104.01V86.3072H104.089C104.228 85.8962 104.474 85.573 104.825 85.3377C105.18 85.0991 105.581 84.9798 106.028 84.9798C106.121 84.9798 106.23 84.9831 106.356 84.9897C106.485 84.9963 106.587 85.0046 106.659 85.0146V86.4364C106.6 86.4199 106.494 86.4016 106.341 86.3817C106.189 86.3585 106.036 86.3469 105.884 86.3469C105.533 86.3469 105.219 86.4215 104.944 86.5707C104.672 86.7165 104.457 86.9203 104.298 87.1822C104.139 87.4407 104.059 87.7357 104.059 88.0671V92.7305H102.573ZM113.137 88.1964V92.7305H111.651V85.0941H113.078V86.337H113.172C113.348 85.9326 113.623 85.6078 113.997 85.3626C114.375 85.1173 114.851 84.9947 115.424 84.9947C115.945 84.9947 116.4 85.104 116.792 85.3228C117.183 85.5382 117.486 85.8597 117.701 86.2873C117.917 86.7148 118.024 87.2435 118.024 87.8732V92.7305H116.538V88.0522C116.538 87.4987 116.394 87.0662 116.105 86.7546C115.817 86.4397 115.421 86.2823 114.917 86.2823C114.573 86.2823 114.266 86.3569 113.997 86.506C113.732 86.6552 113.522 86.8739 113.366 87.1623C113.214 87.4473 113.137 87.792 113.137 88.1964ZM124.855 89.5636V85.0941H126.347V92.7305H124.885V91.408H124.806C124.63 91.8157 124.348 92.1554 123.961 92.4272C123.576 92.6957 123.097 92.8299 122.524 92.8299C122.033 92.8299 121.599 92.7222 121.221 92.5067C120.847 92.288 120.552 91.9648 120.336 91.5373C120.124 91.1097 120.018 90.5811 120.018 89.9513V85.0941H121.505V89.7724C121.505 90.2927 121.649 90.707 121.937 91.0153C122.225 91.3235 122.6 91.4776 123.061 91.4776C123.339 91.4776 123.616 91.408 123.891 91.2688C124.169 91.1296 124.4 90.9192 124.582 90.6374C124.768 90.3557 124.859 89.9978 124.855 89.5636ZM128.344 92.7305V85.0941H129.771V86.337H129.866C130.025 85.9161 130.285 85.5879 130.646 85.3526C131.007 85.114 131.44 84.9947 131.944 84.9947C132.454 84.9947 132.882 85.114 133.226 85.3526C133.574 85.5913 133.831 85.9194 133.997 86.337H134.077C134.259 85.9293 134.549 85.6045 134.947 85.3626C135.344 85.1173 135.818 84.9947 136.368 84.9947C137.061 84.9947 137.626 85.2118 138.064 85.646C138.505 86.0801 138.725 86.7347 138.725 87.6097V92.7305H137.238V87.7489C137.238 87.2319 137.098 86.8574 136.816 86.6254C136.534 86.3933 136.198 86.2773 135.807 86.2773C135.323 86.2773 134.947 86.4265 134.678 86.7248C134.41 87.0198 134.275 87.3993 134.275 87.8633V92.7305H132.794V87.6545C132.794 87.2402 132.665 86.9071 132.406 86.6552C132.148 86.4033 131.811 86.2773 131.397 86.2773C131.115 86.2773 130.855 86.3519 130.616 86.5011C130.381 86.6469 130.19 86.8507 130.045 87.1126C129.902 87.3744 129.831 87.6777 129.831 88.0224V92.7305H128.344ZM140.837 92.7305V82.5487H142.323V86.332H142.413C142.499 86.1729 142.623 85.989 142.785 85.7802C142.948 85.5714 143.173 85.3891 143.462 85.2333C143.75 85.0742 144.131 84.9947 144.605 84.9947C145.222 84.9947 145.772 85.1504 146.256 85.462C146.74 85.7736 147.119 86.2227 147.394 86.8093C147.673 87.396 147.812 88.1019 147.812 88.9272C147.812 89.7525 147.674 90.4601 147.399 91.0501C147.124 91.6367 146.746 92.0891 146.266 92.4073C145.785 92.7222 145.236 92.8796 144.62 92.8796C144.156 92.8796 143.776 92.8017 143.482 92.646C143.19 92.4902 142.961 92.3079 142.795 92.0991C142.63 91.8903 142.502 91.7047 142.413 91.5423H142.288V92.7305H140.837ZM142.293 88.9123C142.293 89.4492 142.371 89.9199 142.527 90.3242C142.683 90.7286 142.908 91.0451 143.203 91.2738C143.498 91.4992 143.859 91.6119 144.287 91.6119C144.731 91.6119 145.102 91.4942 145.401 91.2589C145.699 91.0202 145.924 90.6971 146.077 90.2894C146.232 89.8817 146.31 89.4227 146.31 88.9123C146.31 88.4085 146.234 87.9561 146.082 87.555C145.933 87.154 145.707 86.8375 145.406 86.6055C145.107 86.3735 144.734 86.2575 144.287 86.2575C143.856 86.2575 143.491 86.3685 143.193 86.5906C142.898 86.8126 142.674 87.1225 142.522 87.5202C142.37 87.918 142.293 88.382 142.293 88.9123ZM152.772 92.8846C152.02 92.8846 151.372 92.7238 150.828 92.4023C150.288 92.0775 149.87 91.6218 149.575 91.0352C149.284 90.4452 149.138 89.7541 149.138 88.962C149.138 88.1798 149.284 87.4904 149.575 86.8938C149.87 86.2972 150.281 85.8316 150.808 85.4968C151.339 85.1621 151.958 84.9947 152.668 84.9947C153.099 84.9947 153.516 85.0659 153.921 85.2085C154.325 85.351 154.688 85.5747 155.009 85.8796C155.331 86.1845 155.584 86.5806 155.77 87.0678C155.956 87.5517 156.048 88.14 156.048 88.8327V89.3597H149.978V88.2461H154.592C154.592 87.855 154.512 87.5086 154.353 87.207C154.194 86.9021 153.97 86.6618 153.682 86.4862C153.397 86.3105 153.062 86.2227 152.678 86.2227C152.26 86.2227 151.896 86.3254 151.584 86.5309C151.276 86.7331 151.037 86.9982 150.868 87.3263C150.702 87.6512 150.619 88.0041 150.619 88.3853V89.2553C150.619 89.7657 150.709 90.1999 150.888 90.5579C151.07 90.9158 151.324 91.1893 151.649 91.3782C151.973 91.5638 152.353 91.6566 152.787 91.6566C153.069 91.6566 153.326 91.6168 153.558 91.5373C153.79 91.4544 153.99 91.3318 154.159 91.1694C154.328 91.007 154.458 90.8065 154.547 90.5678L155.954 90.8214C155.841 91.2357 155.639 91.5986 155.347 91.9102C155.059 92.2184 154.696 92.4587 154.259 92.631C153.824 92.8001 153.329 92.8846 152.772 92.8846ZM157.698 92.7305V85.0941H159.135V86.3072H159.214C159.353 85.8962 159.599 85.573 159.95 85.3377C160.305 85.0991 160.706 84.9798 161.153 84.9798C161.246 84.9798 161.355 84.9831 161.481 84.9897C161.61 84.9963 161.712 85.0046 161.784 85.0146V86.4364C161.725 86.4199 161.619 86.4016 161.466 86.3817C161.314 86.3585 161.161 86.3469 161.009 86.3469C160.658 86.3469 160.344 86.4215 160.069 86.5707C159.797 86.7165 159.582 86.9203 159.423 87.1822C159.264 87.4407 159.184 87.7357 159.184 88.0671V92.7305H157.698Z" fill="#97A3B7"/>
<rect x="33.927" y="71.2305" width="245" height="33" rx="3.5" stroke="#1C222B"/>
<rect x="33.427" y="116.73" width="246.932" height="37" rx="4" fill="#F1F2F5"/>
<rect x="33.427" y="165.73" width="246.932" height="37" rx="4" fill="#F1F2F5"/>
<rect x="33.427" y="214.73" width="246.932" height="37" rx="4" fill="#F1F2F5"/>
<rect x="19.9778" y="17.2137" width="273.831" height="269.831" rx="8.77124" stroke="#00424D" stroke-width="1.1695" shape-rendering="crispEdges"/>
</g>
<g filter="url(#filter1_d_316_8042)">
<rect x="124.393" y="122.629" width="205" height="34" rx="4" fill="white" shape-rendering="crispEdges"/>
<path d="M135.518 133.965H145.483C145.571 133.965 145.643 133.893 145.643 133.804V132.679C145.643 132.591 145.571 132.519 145.483 132.519H135.518C135.43 132.519 135.358 132.591 135.358 132.679V133.804C135.358 133.893 135.43 133.965 135.518 133.965ZM135.518 142.483H145.483C145.571 142.483 145.643 142.411 145.643 142.322V141.197C145.643 141.109 145.571 141.036 145.483 141.036H135.518C135.43 141.036 135.358 141.109 135.358 141.197V142.322C135.358 142.411 135.43 142.483 135.518 142.483ZM151.268 145.295H135.518C135.43 145.295 135.358 145.368 135.358 145.456V146.581C135.358 146.669 135.43 146.742 135.518 146.742H151.268C151.357 146.742 151.429 146.669 151.429 146.581V145.456C151.429 145.368 151.357 145.295 151.268 145.295ZM151.268 136.777H135.518C135.43 136.777 135.358 136.85 135.358 136.938V138.063C135.358 138.152 135.43 138.224 135.518 138.224H151.268C151.357 138.224 151.429 138.152 151.429 138.063V136.938C151.429 136.85 151.357 136.777 151.268 136.777Z" fill="#4B5B76"/>
<path d="M163.512 144.629V134.447H167.141C167.933 134.447 168.589 134.591 169.11 134.88C169.63 135.168 170.019 135.562 170.278 136.063C170.537 136.56 170.666 137.12 170.666 137.743C170.666 138.37 170.535 138.933 170.273 139.434C170.015 139.931 169.623 140.325 169.1 140.617C168.579 140.905 167.925 141.049 167.136 141.049H164.64V139.747H166.997C167.497 139.747 167.903 139.661 168.215 139.488C168.526 139.313 168.755 139.074 168.901 138.772C169.047 138.471 169.12 138.128 169.12 137.743C169.12 137.359 169.047 137.017 168.901 136.719C168.755 136.421 168.525 136.187 168.21 136.018C167.898 135.849 167.487 135.765 166.977 135.765H165.048V144.629H163.512ZM174.501 144.798C174.017 144.798 173.58 144.708 173.189 144.529C172.798 144.347 172.488 144.084 172.259 143.739C172.034 143.394 171.921 142.972 171.921 142.471C171.921 142.04 172.004 141.686 172.17 141.407C172.335 141.129 172.559 140.908 172.841 140.746C173.123 140.584 173.437 140.461 173.785 140.378C174.133 140.295 174.488 140.232 174.849 140.189C175.307 140.136 175.678 140.093 175.963 140.06C176.248 140.024 176.455 139.966 176.584 139.886C176.714 139.806 176.778 139.677 176.778 139.498V139.463C176.778 139.029 176.656 138.693 176.41 138.454C176.169 138.216 175.807 138.096 175.327 138.096C174.826 138.096 174.432 138.207 174.143 138.429C173.858 138.648 173.661 138.892 173.552 139.16L172.155 138.842C172.321 138.378 172.562 138.003 172.881 137.718C173.202 137.43 173.572 137.221 173.989 137.092C174.407 136.959 174.846 136.893 175.307 136.893C175.612 136.893 175.935 136.93 176.276 137.002C176.621 137.072 176.942 137.201 177.241 137.39C177.542 137.579 177.789 137.849 177.981 138.201C178.174 138.549 178.27 139.001 178.27 139.558V144.629H176.818V143.585H176.758C176.662 143.777 176.518 143.966 176.326 144.152C176.134 144.337 175.887 144.491 175.585 144.614C175.284 144.737 174.922 144.798 174.501 144.798ZM174.825 143.605C175.236 143.605 175.587 143.524 175.879 143.361C176.173 143.199 176.397 142.987 176.55 142.725C176.705 142.46 176.783 142.176 176.783 141.875V140.89C176.73 140.943 176.628 140.993 176.475 141.039C176.326 141.083 176.155 141.121 175.963 141.154C175.771 141.184 175.584 141.212 175.401 141.238C175.219 141.261 175.066 141.281 174.944 141.298C174.655 141.334 174.392 141.396 174.153 141.482C173.918 141.568 173.729 141.692 173.587 141.855C173.447 142.014 173.378 142.226 173.378 142.491C173.378 142.859 173.514 143.137 173.785 143.326C174.057 143.512 174.404 143.605 174.825 143.605ZM180.25 144.629V136.993H181.687V138.206H181.766C181.905 137.795 182.151 137.471 182.502 137.236C182.857 136.998 183.258 136.878 183.705 136.878C183.798 136.878 183.907 136.882 184.033 136.888C184.162 136.895 184.264 136.903 184.336 136.913V138.335C184.277 138.318 184.171 138.3 184.018 138.28C183.866 138.257 183.713 138.245 183.561 138.245C183.21 138.245 182.896 138.32 182.621 138.469C182.349 138.615 182.134 138.819 181.975 139.081C181.816 139.339 181.736 139.634 181.736 139.966V144.629H180.25ZM187.777 144.798C187.293 144.798 186.855 144.708 186.464 144.529C186.073 144.347 185.763 144.084 185.535 143.739C185.309 143.394 185.197 142.972 185.197 142.471C185.197 142.04 185.279 141.686 185.445 141.407C185.611 141.129 185.835 140.908 186.116 140.746C186.398 140.584 186.713 140.461 187.061 140.378C187.409 140.295 187.764 140.232 188.125 140.189C188.582 140.136 188.953 140.093 189.238 140.06C189.523 140.024 189.731 139.966 189.86 139.886C189.989 139.806 190.054 139.677 190.054 139.498V139.463C190.054 139.029 189.931 138.693 189.686 138.454C189.444 138.216 189.083 138.096 188.602 138.096C188.102 138.096 187.707 138.207 187.419 138.429C187.134 138.648 186.937 138.892 186.827 139.16L185.43 138.842C185.596 138.378 185.838 138.003 186.156 137.718C186.478 137.43 186.847 137.221 187.265 137.092C187.682 136.959 188.121 136.893 188.582 136.893C188.887 136.893 189.21 136.93 189.552 137.002C189.896 137.072 190.218 137.201 190.516 137.39C190.818 137.579 191.065 137.849 191.257 138.201C191.449 138.549 191.545 139.001 191.545 139.558V144.629H190.094V143.585H190.034C189.938 143.777 189.794 143.966 189.601 144.152C189.409 144.337 189.162 144.491 188.861 144.614C188.559 144.737 188.198 144.798 187.777 144.798ZM188.1 143.605C188.511 143.605 188.862 143.524 189.154 143.361C189.449 143.199 189.673 142.987 189.825 142.725C189.981 142.46 190.059 142.176 190.059 141.875V140.89C190.006 140.943 189.903 140.993 189.75 141.039C189.601 141.083 189.431 141.121 189.238 141.154C189.046 141.184 188.859 141.212 188.677 141.238C188.494 141.261 188.342 141.281 188.219 141.298C187.931 141.334 187.667 141.396 187.429 141.482C187.193 141.568 187.005 141.692 186.862 141.855C186.723 142.014 186.653 142.226 186.653 142.491C186.653 142.859 186.789 143.137 187.061 143.326C187.333 143.512 187.679 143.605 188.1 143.605ZM196.727 147.652C196.12 147.652 195.598 147.572 195.161 147.413C194.727 147.254 194.372 147.043 194.097 146.782C193.822 146.52 193.616 146.233 193.48 145.922L194.758 145.395C194.848 145.54 194.967 145.694 195.116 145.857C195.269 146.023 195.474 146.163 195.733 146.279C195.994 146.395 196.331 146.453 196.742 146.453C197.305 146.453 197.771 146.316 198.139 146.041C198.507 145.769 198.691 145.335 198.691 144.738V143.237H198.596C198.507 143.399 198.377 143.58 198.208 143.779C198.043 143.978 197.814 144.15 197.522 144.296C197.231 144.442 196.851 144.515 196.384 144.515C195.781 144.515 195.237 144.374 194.753 144.092C194.273 143.807 193.891 143.388 193.61 142.834C193.331 142.277 193.192 141.593 193.192 140.781C193.192 139.969 193.33 139.273 193.605 138.693C193.883 138.113 194.264 137.669 194.748 137.36C195.232 137.049 195.781 136.893 196.394 136.893C196.868 136.893 197.251 136.973 197.542 137.132C197.834 137.288 198.061 137.47 198.223 137.679C198.389 137.887 198.517 138.071 198.606 138.23H198.716V136.993H200.172V144.798C200.172 145.454 200.02 145.993 199.715 146.414C199.41 146.835 198.997 147.146 198.477 147.348C197.96 147.551 197.376 147.652 196.727 147.652ZM196.712 143.282C197.14 143.282 197.501 143.182 197.796 142.983C198.094 142.781 198.319 142.493 198.472 142.118C198.628 141.74 198.706 141.288 198.706 140.761C198.706 140.247 198.629 139.795 198.477 139.404C198.324 139.013 198.101 138.708 197.806 138.489C197.511 138.267 197.146 138.156 196.712 138.156C196.265 138.156 195.892 138.272 195.593 138.504C195.295 138.733 195.07 139.044 194.917 139.439C194.768 139.833 194.693 140.274 194.693 140.761C194.693 141.261 194.77 141.701 194.922 142.078C195.075 142.456 195.3 142.751 195.598 142.963C195.9 143.176 196.271 143.282 196.712 143.282ZM202.166 144.629V136.993H203.603V138.206H203.682C203.821 137.795 204.067 137.471 204.418 137.236C204.773 136.998 205.174 136.878 205.621 136.878C205.714 136.878 205.823 136.882 205.949 136.888C206.078 136.895 206.18 136.903 206.252 136.913V138.335C206.193 138.318 206.087 138.3 205.934 138.28C205.782 138.257 205.629 138.245 205.477 138.245C205.126 138.245 204.812 138.32 204.537 138.469C204.265 138.615 204.05 138.819 203.891 139.081C203.732 139.339 203.652 139.634 203.652 139.966V144.629H202.166ZM209.693 144.798C209.209 144.798 208.771 144.708 208.38 144.529C207.989 144.347 207.679 144.084 207.451 143.739C207.225 143.394 207.113 142.972 207.113 142.471C207.113 142.04 207.195 141.686 207.361 141.407C207.527 141.129 207.751 140.908 208.032 140.746C208.314 140.584 208.629 140.461 208.977 140.378C209.325 140.295 209.68 140.232 210.041 140.189C210.498 140.136 210.869 140.093 211.154 140.06C211.439 140.024 211.647 139.966 211.776 139.886C211.905 139.806 211.97 139.677 211.97 139.498V139.463C211.97 139.029 211.847 138.693 211.602 138.454C211.36 138.216 210.999 138.096 210.518 138.096C210.018 138.096 209.623 138.207 209.335 138.429C209.05 138.648 208.853 138.892 208.743 139.16L207.346 138.842C207.512 138.378 207.754 138.003 208.072 137.718C208.394 137.43 208.763 137.221 209.181 137.092C209.598 136.959 210.037 136.893 210.498 136.893C210.803 136.893 211.126 136.93 211.468 137.002C211.812 137.072 212.134 137.201 212.432 137.39C212.734 137.579 212.981 137.849 213.173 138.201C213.365 138.549 213.461 139.001 213.461 139.558V144.629H212.01V143.585H211.95C211.854 143.777 211.71 143.966 211.517 144.152C211.325 144.337 211.078 144.491 210.777 144.614C210.475 144.737 210.114 144.798 209.693 144.798ZM210.016 143.605C210.427 143.605 210.778 143.524 211.07 143.361C211.365 143.199 211.589 142.987 211.741 142.725C211.897 142.46 211.975 142.176 211.975 141.875V140.89C211.922 140.943 211.819 140.993 211.667 141.039C211.517 141.083 211.347 141.121 211.154 141.154C210.962 141.184 210.775 141.212 210.593 141.238C210.41 141.261 210.258 141.281 210.135 141.298C209.847 141.334 209.583 141.396 209.345 141.482C209.109 141.568 208.921 141.692 208.778 141.855C208.639 142.014 208.569 142.226 208.569 142.491C208.569 142.859 208.705 143.137 208.977 143.326C209.249 143.512 209.595 143.605 210.016 143.605ZM215.441 147.493V136.993H216.893V138.23H217.017C217.103 138.071 217.228 137.887 217.39 137.679C217.552 137.47 217.778 137.288 218.066 137.132C218.355 136.973 218.736 136.893 219.21 136.893C219.826 136.893 220.376 137.049 220.86 137.36C221.344 137.672 221.724 138.121 221.999 138.708C222.277 139.294 222.416 140 222.416 140.826C222.416 141.651 222.279 142.359 222.004 142.949C221.729 143.535 221.351 143.988 220.87 144.306C220.39 144.621 219.841 144.778 219.225 144.778C218.761 144.778 218.381 144.7 218.086 144.544C217.794 144.389 217.566 144.206 217.4 143.998C217.234 143.789 217.107 143.603 217.017 143.441H216.928V147.493H215.441ZM216.898 140.811C216.898 141.348 216.976 141.818 217.132 142.223C217.287 142.627 217.513 142.944 217.808 143.172C218.103 143.398 218.464 143.51 218.891 143.51C219.336 143.51 219.707 143.393 220.005 143.157C220.303 142.919 220.529 142.596 220.681 142.188C220.837 141.78 220.915 141.321 220.915 140.811C220.915 140.307 220.839 139.855 220.686 139.453C220.537 139.052 220.312 138.736 220.01 138.504C219.712 138.272 219.339 138.156 218.891 138.156C218.461 138.156 218.096 138.267 217.798 138.489C217.503 138.711 217.279 139.021 217.127 139.419C216.974 139.816 216.898 140.28 216.898 140.811ZM225.568 140.095V144.629H224.082V134.447H225.548V138.235H225.643C225.822 137.824 226.095 137.498 226.463 137.256C226.831 137.014 227.312 136.893 227.905 136.893C228.429 136.893 228.886 137.001 229.277 137.216C229.672 137.432 229.976 137.753 230.192 138.181C230.411 138.605 230.52 139.135 230.52 139.772V144.629H229.034V139.951C229.034 139.391 228.889 138.956 228.601 138.648C228.313 138.337 227.912 138.181 227.398 138.181C227.047 138.181 226.732 138.255 226.453 138.404C226.178 138.554 225.961 138.772 225.802 139.061C225.646 139.346 225.568 139.69 225.568 140.095Z" fill="#97A3B7"/>
<rect x="124.893" y="123.129" width="204" height="33" rx="3.5" stroke="#13161B" shape-rendering="crispEdges"/>
</g>
<g filter="url(#filter2_d_316_8042)">
<rect x="124.393" y="172.629" width="205" height="34" rx="4" fill="white" shape-rendering="crispEdges"/>
<rect x="135.393" y="181.223" width="16" height="16" rx="2" fill="#4B5B76"/>
<path d="M142.498 193.827L142.481 193.844L138.081 189.445L139.514 188.012L142.498 190.997L147.272 186.223L148.705 187.655L142.516 193.844L142.498 193.827Z" fill="white"/>
<path d="M171.968 187.758H170.417C170.358 187.427 170.247 187.135 170.084 186.883C169.922 186.631 169.723 186.417 169.488 186.242C169.252 186.066 168.989 185.934 168.697 185.844C168.409 185.755 168.102 185.71 167.777 185.71C167.191 185.71 166.665 185.857 166.201 186.152C165.741 186.447 165.376 186.88 165.108 187.45C164.842 188.02 164.71 188.716 164.71 189.538C164.71 190.367 164.842 191.066 165.108 191.636C165.376 192.206 165.742 192.637 166.206 192.929C166.67 193.22 167.192 193.366 167.772 193.366C168.094 193.366 168.399 193.323 168.687 193.237C168.979 193.147 169.242 193.016 169.478 192.844C169.713 192.672 169.912 192.461 170.074 192.213C170.24 191.961 170.354 191.672 170.417 191.348L171.968 191.353C171.885 191.853 171.725 192.314 171.486 192.735C171.251 193.152 170.948 193.514 170.576 193.819C170.208 194.12 169.787 194.354 169.314 194.52C168.84 194.685 168.323 194.768 167.762 194.768C166.881 194.768 166.095 194.559 165.406 194.142C164.716 193.721 164.173 193.119 163.775 192.337C163.381 191.555 163.184 190.622 163.184 189.538C163.184 188.451 163.382 187.518 163.78 186.739C164.178 185.957 164.721 185.357 165.411 184.939C166.1 184.518 166.884 184.308 167.762 184.308C168.303 184.308 168.806 184.386 169.274 184.542C169.744 184.694 170.167 184.919 170.542 185.218C170.916 185.513 171.226 185.874 171.471 186.301C171.716 186.726 171.882 187.211 171.968 187.758ZM175.174 190.095V194.629H173.687V184.447H175.154V188.235H175.248C175.427 187.824 175.701 187.498 176.069 187.256C176.437 187.014 176.917 186.893 177.51 186.893C178.034 186.893 178.491 187.001 178.883 187.216C179.277 187.432 179.582 187.753 179.797 188.181C180.016 188.605 180.125 189.135 180.125 189.772V194.629H178.639V189.951C178.639 189.391 178.495 188.956 178.206 188.648C177.918 188.337 177.517 188.181 177.003 188.181C176.652 188.181 176.337 188.255 176.059 188.404C175.784 188.554 175.567 188.772 175.407 189.061C175.252 189.346 175.174 189.69 175.174 190.095ZM185.4 194.783C184.648 194.783 184 194.622 183.456 194.301C182.916 193.976 182.499 193.52 182.204 192.934C181.912 192.344 181.766 191.653 181.766 190.86C181.766 190.078 181.912 189.389 182.204 188.792C182.499 188.196 182.91 187.73 183.437 187.395C183.967 187.06 184.587 186.893 185.296 186.893C185.727 186.893 186.144 186.964 186.549 187.107C186.953 187.249 187.316 187.473 187.638 187.778C187.959 188.083 188.213 188.479 188.398 188.966C188.584 189.45 188.677 190.038 188.677 190.731V191.258H182.606V190.145H187.22C187.22 189.753 187.14 189.407 186.981 189.105C186.822 188.801 186.598 188.56 186.31 188.385C186.025 188.209 185.69 188.121 185.306 188.121C184.888 188.121 184.524 188.224 184.212 188.429C183.904 188.632 183.665 188.897 183.496 189.225C183.331 189.55 183.248 189.903 183.248 190.284V191.154C183.248 191.664 183.337 192.098 183.516 192.456C183.698 192.814 183.952 193.088 184.277 193.277C184.602 193.462 184.981 193.555 185.415 193.555C185.697 193.555 185.954 193.515 186.186 193.436C186.418 193.353 186.618 193.23 186.787 193.068C186.956 192.905 187.086 192.705 187.175 192.466L188.582 192.72C188.469 193.134 188.267 193.497 187.976 193.809C187.687 194.117 187.324 194.357 186.887 194.529C186.453 194.699 185.957 194.783 185.4 194.783ZM193.543 194.783C192.803 194.783 192.167 194.616 191.633 194.281C191.103 193.943 190.696 193.477 190.41 192.884C190.125 192.291 189.983 191.611 189.983 190.846C189.983 190.07 190.129 189.386 190.42 188.792C190.712 188.196 191.123 187.73 191.653 187.395C192.184 187.06 192.808 186.893 193.528 186.893C194.108 186.893 194.625 187.001 195.079 187.216C195.533 187.428 195.899 187.727 196.178 188.111C196.459 188.496 196.627 188.945 196.68 189.458H195.233C195.153 189.1 194.971 188.792 194.686 188.534C194.404 188.275 194.026 188.146 193.553 188.146C193.138 188.146 192.775 188.255 192.464 188.474C192.155 188.69 191.915 188.998 191.743 189.399C191.571 189.797 191.484 190.267 191.484 190.811C191.484 191.368 191.569 191.848 191.738 192.252C191.907 192.657 192.146 192.97 192.454 193.192C192.765 193.414 193.132 193.525 193.553 193.525C193.834 193.525 194.089 193.474 194.318 193.371C194.55 193.265 194.744 193.114 194.9 192.919C195.059 192.723 195.17 192.488 195.233 192.213H196.68C196.627 192.707 196.466 193.147 196.197 193.535C195.929 193.923 195.569 194.228 195.119 194.45C194.671 194.672 194.146 194.783 193.543 194.783ZM199.636 192.039L199.627 190.224H199.885L202.928 186.993H204.708L201.237 190.672H201.004L199.636 192.039ZM198.269 194.629V184.447H199.756V194.629H198.269ZM203.092 194.629L200.357 191L201.382 189.961L204.916 194.629H203.092ZM206.182 194.629V184.447H207.668V188.23H207.758C207.844 188.071 207.968 187.887 208.13 187.679C208.293 187.47 208.518 187.288 208.807 187.132C209.095 186.973 209.476 186.893 209.95 186.893C210.567 186.893 211.117 187.049 211.601 187.36C212.085 187.672 212.464 188.121 212.739 188.708C213.018 189.294 213.157 190 213.157 190.826C213.157 191.651 213.019 192.359 212.744 192.949C212.469 193.535 212.091 193.988 211.611 194.306C211.13 194.621 210.581 194.778 209.965 194.778C209.501 194.778 209.121 194.7 208.826 194.544C208.535 194.389 208.306 194.206 208.14 193.998C207.975 193.789 207.847 193.603 207.758 193.441H207.633V194.629H206.182ZM207.638 190.811C207.638 191.348 207.716 191.818 207.872 192.223C208.028 192.627 208.253 192.944 208.548 193.172C208.843 193.398 209.204 193.51 209.632 193.51C210.076 193.51 210.447 193.393 210.746 193.157C211.044 192.919 211.269 192.596 211.422 192.188C211.577 191.78 211.655 191.321 211.655 190.811C211.655 190.307 211.579 189.855 211.427 189.453C211.277 189.052 211.052 188.736 210.75 188.504C210.452 188.272 210.079 188.156 209.632 188.156C209.201 188.156 208.836 188.267 208.538 188.489C208.243 188.711 208.019 189.021 207.867 189.419C207.715 189.816 207.638 190.28 207.638 190.811ZM218.043 194.783C217.327 194.783 216.702 194.619 216.168 194.291C215.635 193.963 215.22 193.504 214.925 192.914C214.63 192.324 214.483 191.634 214.483 190.846C214.483 190.053 214.63 189.361 214.925 188.767C215.22 188.174 215.635 187.713 216.168 187.385C216.702 187.057 217.327 186.893 218.043 186.893C218.758 186.893 219.383 187.057 219.917 187.385C220.45 187.713 220.865 188.174 221.16 188.767C221.455 189.361 221.602 190.053 221.602 190.846C221.602 191.634 221.455 192.324 221.16 192.914C220.865 193.504 220.45 193.963 219.917 194.291C219.383 194.619 218.758 194.783 218.043 194.783ZM218.048 193.535C218.512 193.535 218.896 193.413 219.201 193.167C219.506 192.922 219.731 192.596 219.877 192.188C220.026 191.78 220.101 191.331 220.101 190.841C220.101 190.353 220.026 189.906 219.877 189.498C219.731 189.087 219.506 188.757 219.201 188.509C218.896 188.26 218.512 188.136 218.048 188.136C217.58 188.136 217.192 188.26 216.884 188.509C216.579 188.757 216.352 189.087 216.203 189.498C216.057 189.906 215.984 190.353 215.984 190.841C215.984 191.331 216.057 191.78 216.203 192.188C216.352 192.596 216.579 192.922 216.884 193.167C217.192 193.413 217.58 193.535 218.048 193.535ZM224.134 186.993L225.819 189.966L227.52 186.993H229.145L226.764 190.811L229.165 194.629H227.54L225.819 191.775L224.104 194.629H222.473L224.85 190.811L222.503 186.993H224.134Z" fill="#97A3B7"/>
<rect x="124.893" y="173.129" width="204" height="33" rx="3.5" stroke="#13161B" shape-rendering="crispEdges"/>
</g>
<g filter="url(#filter3_d_316_8042)">
<rect x="124.393" y="222.629" width="205" height="34" rx="4" fill="white" shape-rendering="crispEdges"/>
<path d="M143.393 231.754C139.044 231.754 135.518 235.28 135.518 239.629C135.518 243.978 139.044 247.504 143.393 247.504C147.742 247.504 151.268 243.978 151.268 239.629C151.268 235.28 147.742 231.754 143.393 231.754ZM146.636 237.971L143.507 242.296C143.494 242.313 143.477 242.328 143.458 242.338C143.438 242.348 143.416 242.354 143.394 242.354C143.372 242.354 143.35 242.348 143.33 242.338C143.311 242.328 143.294 242.313 143.281 242.296L140.152 237.971C140.085 237.878 140.152 237.748 140.266 237.748H141.09C141.27 237.748 141.44 237.834 141.546 237.98L143.393 240.536L145.242 237.98C145.348 237.834 145.517 237.748 145.698 237.748H146.522C146.636 237.748 146.703 237.878 146.636 237.971Z" fill="#4B5B76"/>
<path d="M166.808 244.629H163.512V234.447H166.912C167.91 234.447 168.767 234.651 169.483 235.059C170.198 235.463 170.747 236.045 171.128 236.804C171.513 237.559 171.705 238.466 171.705 239.523C171.705 240.584 171.511 241.495 171.123 242.257C170.739 243.02 170.182 243.606 169.453 244.017C168.724 244.425 167.842 244.629 166.808 244.629ZM165.048 243.287H166.723C167.499 243.287 168.144 243.141 168.657 242.849C169.171 242.554 169.555 242.128 169.811 241.571C170.066 241.011 170.193 240.328 170.193 239.523C170.193 238.724 170.066 238.047 169.811 237.49C169.559 236.933 169.183 236.51 168.682 236.222C168.182 235.934 167.56 235.789 166.818 235.789H165.048V243.287ZM173.496 244.629V236.993H174.933V238.206H175.012C175.151 237.795 175.397 237.471 175.748 237.236C176.103 236.998 176.504 236.878 176.951 236.878C177.044 236.878 177.153 236.882 177.279 236.888C177.409 236.895 177.51 236.903 177.583 236.913V238.335C177.523 238.318 177.417 238.3 177.264 238.28C177.112 238.257 176.959 238.245 176.807 238.245C176.456 238.245 176.142 238.32 175.867 238.469C175.596 238.615 175.38 238.819 175.221 239.081C175.062 239.339 174.982 239.634 174.982 239.966V244.629H173.496ZM181.812 244.783C181.096 244.783 180.471 244.619 179.938 244.291C179.404 243.963 178.99 243.504 178.695 242.914C178.4 242.324 178.252 241.634 178.252 240.846C178.252 240.053 178.4 239.361 178.695 238.767C178.99 238.174 179.404 237.713 179.938 237.385C180.471 237.057 181.096 236.893 181.812 236.893C182.528 236.893 183.153 237.057 183.686 237.385C184.22 237.713 184.634 238.174 184.929 238.767C185.224 239.361 185.372 240.053 185.372 240.846C185.372 241.634 185.224 242.324 184.929 242.914C184.634 243.504 184.22 243.963 183.686 244.291C183.153 244.619 182.528 244.783 181.812 244.783ZM181.817 243.535C182.281 243.535 182.666 243.413 182.97 243.167C183.275 242.922 183.501 242.596 183.647 242.188C183.796 241.78 183.87 241.331 183.87 240.841C183.87 240.353 183.796 239.906 183.647 239.498C183.501 239.087 183.275 238.757 182.97 238.509C182.666 238.26 182.281 238.136 181.817 238.136C181.35 238.136 180.962 238.26 180.654 238.509C180.349 238.757 180.122 239.087 179.973 239.498C179.827 239.906 179.754 240.353 179.754 240.841C179.754 241.331 179.827 241.78 179.973 242.188C180.122 242.596 180.349 242.922 180.654 243.167C180.962 243.413 181.35 243.535 181.817 243.535ZM187.031 247.493V236.993H188.483V238.23H188.607C188.693 238.071 188.817 237.887 188.98 237.679C189.142 237.47 189.368 237.288 189.656 237.132C189.944 236.973 190.326 236.893 190.799 236.893C191.416 236.893 191.966 237.049 192.45 237.36C192.934 237.672 193.313 238.121 193.589 238.708C193.867 239.294 194.006 240 194.006 240.826C194.006 241.651 193.869 242.359 193.594 242.949C193.318 243.535 192.941 243.988 192.46 244.306C191.979 244.621 191.431 244.778 190.814 244.778C190.35 244.778 189.971 244.7 189.676 244.544C189.384 244.389 189.156 244.206 188.99 243.998C188.824 243.789 188.697 243.603 188.607 243.441H188.518V247.493H187.031ZM188.488 240.811C188.488 241.348 188.566 241.818 188.721 242.223C188.877 242.627 189.103 242.944 189.398 243.172C189.692 243.398 190.054 243.51 190.481 243.51C190.925 243.51 191.297 243.393 191.595 243.157C191.893 242.919 192.119 242.596 192.271 242.188C192.427 241.78 192.505 241.321 192.505 240.811C192.505 240.307 192.429 239.855 192.276 239.453C192.127 239.052 191.902 238.736 191.6 238.504C191.302 238.272 190.929 238.156 190.481 238.156C190.05 238.156 189.686 238.267 189.388 238.489C189.093 238.711 188.869 239.021 188.716 239.419C188.564 239.816 188.488 240.28 188.488 240.811ZM198.53 244.778C197.914 244.778 197.364 244.621 196.88 244.306C196.399 243.988 196.021 243.535 195.746 242.949C195.474 242.359 195.339 241.651 195.339 240.826C195.339 240 195.476 239.294 195.751 238.708C196.03 238.121 196.411 237.672 196.895 237.36C197.379 237.049 197.927 236.893 198.54 236.893C199.014 236.893 199.395 236.973 199.684 237.132C199.975 237.288 200.201 237.47 200.36 237.679C200.522 237.887 200.648 238.071 200.738 238.23H200.827V234.447H202.314V244.629H200.862V243.441H200.738C200.648 243.603 200.519 243.789 200.35 243.998C200.184 244.206 199.956 244.389 199.664 244.544C199.372 244.7 198.994 244.778 198.53 244.778ZM198.858 243.51C199.286 243.51 199.647 243.398 199.942 243.172C200.241 242.944 200.466 242.627 200.618 242.223C200.774 241.818 200.852 241.348 200.852 240.811C200.852 240.28 200.776 239.816 200.623 239.419C200.471 239.021 200.247 238.711 199.952 238.489C199.657 238.267 199.293 238.156 198.858 238.156C198.411 238.156 198.038 238.272 197.74 238.504C197.442 238.736 197.216 239.052 197.064 239.453C196.915 239.855 196.84 240.307 196.84 240.811C196.84 241.321 196.916 241.78 197.069 242.188C197.221 242.596 197.447 242.919 197.745 243.157C198.046 243.393 198.418 243.51 198.858 243.51ZM207.652 244.783C206.936 244.783 206.311 244.619 205.778 244.291C205.244 243.963 204.83 243.504 204.535 242.914C204.24 242.324 204.092 241.634 204.092 240.846C204.092 240.053 204.24 239.361 204.535 238.767C204.83 238.174 205.244 237.713 205.778 237.385C206.311 237.057 206.936 236.893 207.652 236.893C208.368 236.893 208.993 237.057 209.526 237.385C210.06 237.713 210.474 238.174 210.769 238.767C211.064 239.361 211.212 240.053 211.212 240.846C211.212 241.634 211.064 242.324 210.769 242.914C210.474 243.504 210.06 243.963 209.526 244.291C208.993 244.619 208.368 244.783 207.652 244.783ZM207.657 243.535C208.121 243.535 208.505 243.413 208.81 243.167C209.115 242.922 209.341 242.596 209.486 242.188C209.636 241.78 209.71 241.331 209.71 240.841C209.71 240.353 209.636 239.906 209.486 239.498C209.341 239.087 209.115 238.757 208.81 238.509C208.505 238.26 208.121 238.136 207.657 238.136C207.19 238.136 206.802 238.26 206.494 238.509C206.189 238.757 205.962 239.087 205.812 239.498C205.667 239.906 205.594 240.353 205.594 240.841C205.594 241.331 205.667 241.78 205.812 242.188C205.962 242.596 206.189 242.922 206.494 243.167C206.802 243.413 207.19 243.535 207.657 243.535ZM214.294 244.629L212.047 236.993H213.583L215.08 242.6H215.154L216.655 236.993H218.192L219.683 242.576H219.758L221.244 236.993H222.78L220.538 244.629H219.022L217.471 239.115H217.356L215.805 244.629H214.294ZM225.678 240.095V244.629H224.191V236.993H225.618V238.235H225.712C225.888 237.831 226.163 237.506 226.538 237.261C226.916 237.016 227.391 236.893 227.965 236.893C228.485 236.893 228.941 237.002 229.332 237.221C229.723 237.437 230.026 237.758 230.242 238.186C230.457 238.613 230.565 239.142 230.565 239.772V244.629H229.078V239.951C229.078 239.397 228.934 238.965 228.646 238.653C228.357 238.338 227.961 238.181 227.458 238.181C227.113 238.181 226.806 238.255 226.538 238.404C226.273 238.554 226.062 238.772 225.906 239.061C225.754 239.346 225.678 239.69 225.678 240.095Z" fill="#97A3B7"/>
<rect x="124.893" y="223.129" width="204" height="33" rx="3.5" stroke="#13161B" shape-rendering="crispEdges"/>
</g>
<circle cx="431.598" cy="206.629" r="31.5" fill="#14C9C9" stroke="#13161B"/>
<g clip-path="url(#clip0_316_8042)" filter="url(#filter4_d_316_8042)">
<g filter="url(#filter5_d_316_8042)">
<path fill-rule="evenodd" clip-rule="evenodd" d="M430.015 205.045V191.587H433.182V205.045H446.64V208.212H433.182V221.67H430.015V208.212H416.557V205.045H430.015Z" fill="white"/>
</g>
</g>
<path fill-rule="evenodd" clip-rule="evenodd" d="M430.598 190.629C429.494 190.629 428.598 191.524 428.598 192.629V203.629H417.598C416.494 203.629 415.598 204.524 415.598 205.629V207.629C415.598 208.733 416.494 209.629 417.598 209.629H428.598V220.629C428.598 221.733 429.494 222.629 430.598 222.629H432.598C433.703 222.629 434.598 221.733 434.598 220.629V209.629H445.598C446.703 209.629 447.598 208.733 447.598 207.629V205.629C447.598 204.524 446.703 203.629 445.598 203.629H434.598V192.629C434.598 191.524 433.703 190.629 432.598 190.629H430.598Z" fill="white"/>
<path d="M341.63 192.518C348.201 190.544 351.67 182.858 353.422 176.744C355.385 169.794 357.694 164.105 354.894 156.865C354.258 155.203 353.232 153.519 351.548 152.983C351.127 152.922 350.722 152.782 350.354 152.57C350.061 152.281 349.843 151.925 349.718 151.533C345.725 142.118 334.424 141.861 325.946 143.189C321.037 143.958 314.668 146.201 313.139 151.243C310.339 160.535 312.704 170.642 317.858 178.674C322.677 186.227 331.791 195.53 341.63 192.518Z" fill="white"/>
<path d="M337.871 193.636C339.198 193.64 340.518 193.444 341.787 193.056C348.647 190.993 352.195 183.139 353.957 176.903C354.18 176.111 354.403 175.33 354.638 174.56C356.423 168.503 357.984 163.26 355.419 156.712C354.515 154.358 353.243 152.941 351.67 152.495L351.336 152.417C351.063 152.419 350.799 152.322 350.594 152.143C350.389 151.964 350.256 151.716 350.22 151.446C346.059 141.674 334.602 141.295 325.812 142.689C322.465 143.213 314.366 145.099 312.548 151.134C309.893 159.969 311.633 170.098 317.334 179.023C322.164 186.463 329.772 193.636 337.871 193.636ZM332.918 143.169C339.611 143.169 346.305 145.065 349.171 151.747C349.321 152.232 349.599 152.668 349.975 153.008C350.307 153.241 350.689 153.394 351.09 153.454L351.369 153.532C352.585 153.867 353.6 155.061 354.381 157.069C356.791 163.305 355.296 168.38 353.567 174.248C353.333 175.018 353.109 175.799 352.875 176.602C351.191 182.559 347.844 190.078 341.463 191.997C332.539 194.663 323.614 186.709 318.293 178.376C312.771 169.764 311.075 159.936 313.641 151.402C315.281 145.98 322.833 144.24 326.001 143.749C328.289 143.378 330.601 143.184 332.918 143.169Z" fill="#00424D"/>
<path d="M311.778 173.711C311.778 173.711 304.739 182.513 305.844 184.576C306.948 186.64 311.321 185.692 311.321 185.692" fill="white"/>
<path d="M309.235 186.507C309.984 186.507 310.731 186.432 311.466 186.283C311.614 186.254 311.744 186.167 311.828 186.041C311.911 185.916 311.942 185.762 311.912 185.614C311.882 185.466 311.795 185.336 311.67 185.252C311.544 185.169 311.391 185.138 311.243 185.168C310.127 185.391 307.104 185.681 306.368 184.298C305.788 183.182 308.978 178.129 312.247 174.035C312.34 173.919 312.384 173.771 312.369 173.623C312.355 173.475 312.283 173.338 312.169 173.243C312.05 173.153 311.902 173.113 311.755 173.13C311.608 173.146 311.472 173.219 311.377 173.332C309.67 175.474 304.192 182.602 305.386 184.822C306.078 186.194 307.829 186.507 309.235 186.507Z" fill="#00424D"/>
<path d="M314.232 161.442C309.993 164.297 310.518 171.214 310.15 175.643C309.636 181.867 309.265 188.107 309.034 194.362C308.889 198.322 319.074 199.337 321.004 198.322L317.992 213.772L340.18 207.481L341.128 189.42C341.128 189.42 334.435 188.851 331.088 180.495C327.742 172.14 329.114 159.746 329.114 159.746C329.114 159.746 318.371 158.642 314.232 161.442Z" fill="white"/>
<path d="M317.992 214.327H318.148L340.359 208.036C340.471 208.006 340.572 207.941 340.646 207.851C340.72 207.761 340.764 207.65 340.771 207.534L341.72 189.462C341.726 189.319 341.677 189.18 341.584 189.072C341.491 188.964 341.36 188.896 341.218 188.882C340.95 188.882 334.758 188.223 331.668 180.27C328.489 172.081 329.716 159.9 329.727 159.777C329.737 159.629 329.693 159.483 329.605 159.364C329.558 159.307 329.5 159.26 329.435 159.226C329.37 159.191 329.299 159.17 329.225 159.163C328.779 159.163 318.17 158.126 313.92 160.993C310.161 163.536 309.926 168.891 309.737 173.264C309.737 174.112 309.659 174.926 309.592 175.674C309.078 181.898 308.699 188.201 308.476 194.415C308.481 195.045 308.664 195.661 309.003 196.192C309.343 196.723 309.825 197.147 310.395 197.416C312.994 199.044 317.902 199.591 320.29 199.189L317.445 213.692C317.427 213.786 317.433 213.883 317.463 213.975C317.492 214.066 317.543 214.149 317.612 214.216C317.723 214.294 317.856 214.333 317.992 214.327ZM339.678 207.054L318.717 212.989L321.55 198.431C321.574 198.327 321.567 198.219 321.529 198.12C321.492 198.02 321.425 197.934 321.338 197.873C321.249 197.819 321.147 197.79 321.043 197.79C320.938 197.79 320.836 197.819 320.747 197.873C319.509 198.531 313.775 198.185 310.986 196.445C310.027 195.843 309.558 195.162 309.592 194.426C309.815 188.223 310.194 181.932 310.707 175.729C310.774 174.971 310.808 174.145 310.852 173.275C311.031 169.214 311.254 164.161 314.545 161.941C317.891 159.643 326.336 160.089 328.567 160.245C328.355 162.8 327.708 173.186 330.631 180.694C333.554 188.201 338.853 189.618 340.582 189.941L339.678 207.054Z" fill="#00424D"/>
<path d="M309.603 189.73C309.603 189.73 315.716 189.73 317.178 181.475L309.603 189.73Z" fill="white"/>
<path d="M309.603 190.288C309.67 190.288 316.207 190.188 317.735 181.576C317.758 181.43 317.723 181.28 317.638 181.16C317.552 181.039 317.423 180.956 317.278 180.929C317.133 180.903 316.984 180.935 316.863 181.019C316.741 181.102 316.658 181.23 316.631 181.375C315.281 189.05 309.826 189.184 309.603 189.184C309.455 189.184 309.313 189.243 309.209 189.347C309.104 189.452 309.045 189.594 309.045 189.742C309.048 189.888 309.108 190.027 309.212 190.129C309.317 190.231 309.457 190.288 309.603 190.288Z" fill="#00424D"/>
<path d="M323.358 178.798C323.676 177.259 324.413 175.839 325.488 174.693C326.194 173.699 327.044 172.815 328.01 172.071C328.494 171.702 329.055 171.445 329.651 171.319C330.248 171.194 330.864 171.203 331.457 171.346C331.959 171.529 332.417 171.815 332.801 172.186C333.185 172.557 333.487 173.004 333.688 173.499C334.089 174.501 334.26 175.58 334.19 176.656C334.084 179.01 333.36 181.295 332.088 183.279C330.817 185.264 329.045 186.877 326.95 187.957L327.318 187.611" fill="white"/>
<path d="M326.983 188.492C327.069 188.491 327.154 188.468 327.229 188.425C329.406 187.294 331.249 185.613 332.574 183.548C333.899 181.483 334.66 179.107 334.781 176.656C334.849 175.514 334.663 174.371 334.234 173.31C333.997 172.736 333.641 172.22 333.189 171.795C332.737 171.37 332.2 171.046 331.613 170.844C330.94 170.675 330.237 170.659 329.558 170.798C328.878 170.937 328.238 171.227 327.686 171.648C326.674 172.418 325.786 173.34 325.053 174.381C323.912 175.607 323.138 177.13 322.822 178.776C322.806 178.922 322.849 179.069 322.941 179.184C323.033 179.299 323.167 179.373 323.313 179.389C323.459 179.405 323.606 179.362 323.721 179.27C323.836 179.178 323.91 179.045 323.927 178.899C324.241 177.461 324.939 176.135 325.946 175.061C326.615 174.116 327.419 173.274 328.333 172.562C328.749 172.242 329.231 172.017 329.744 171.905C330.257 171.793 330.789 171.797 331.3 171.915C331.733 172.071 332.127 172.317 332.458 172.636C332.789 172.955 333.048 173.341 333.219 173.767C333.588 174.691 333.745 175.686 333.676 176.679C333.57 178.792 332.947 180.847 331.861 182.663C330.776 184.48 329.262 186.003 327.452 187.098C327.37 187.082 327.286 187.085 327.207 187.109C327.127 187.132 327.054 187.174 326.994 187.232L326.615 187.566C326.527 187.641 326.465 187.742 326.436 187.854C326.408 187.966 326.415 188.084 326.457 188.192C326.499 188.299 326.573 188.392 326.669 188.455C326.765 188.519 326.879 188.552 326.994 188.548L326.983 188.492Z" fill="#00424D"/>
<path d="M321.004 198.32C321.004 198.32 326.459 197.204 329.248 193.746C329.248 193.746 328.266 202.001 319.899 204.009L321.004 198.32Z" fill="#00424D"/>
<path d="M314.833 169.794C314.738 168.566 315.054 167.539 315.54 167.502C316.025 167.464 316.495 168.43 316.59 169.658C316.685 170.887 316.369 171.913 315.883 171.951C315.398 171.988 314.928 171.023 314.833 169.794Z" fill="#00424D"/>
<path d="M319.899 204.567H320.033C328.679 202.503 329.794 193.924 329.806 193.835C329.82 193.715 329.795 193.594 329.735 193.489C329.675 193.385 329.582 193.302 329.471 193.255C329.361 193.206 329.238 193.195 329.121 193.223C329.004 193.252 328.899 193.318 328.824 193.411C326.18 196.635 320.948 197.784 320.892 197.795C320.784 197.818 320.684 197.872 320.607 197.952C320.529 198.031 320.477 198.132 320.457 198.242L319.342 203.92C319.325 204.001 319.327 204.084 319.347 204.165C319.366 204.245 319.404 204.32 319.456 204.384C319.508 204.448 319.574 204.5 319.649 204.535C319.724 204.571 319.806 204.589 319.888 204.589L319.899 204.567ZM328.266 195.508C327.723 197.325 326.741 198.98 325.406 200.326C324.071 201.673 322.425 202.669 320.613 203.228L321.484 198.766C323.943 198.167 326.252 197.065 328.266 195.531V195.508Z" fill="#00424D"/>
<path d="M373.77 244.438L385.215 264.517L415.023 233.929C415.023 233.929 412.613 220.933 415.826 221.97C417.856 222.693 419.621 224.011 420.89 225.752C420.89 225.752 423.534 207.903 430.495 213.771C437.456 219.639 434.255 229.946 428.978 239.853C425.063 247.204 390.269 300.829 380.619 298.676C370.97 296.523 348.056 247.818 348.056 247.818L373.77 244.438Z" fill="white"/>
<path d="M381.155 299.278C392.121 299.278 425.978 246.668 429.469 240.154C433.865 231.887 438.795 220.074 430.853 213.38C429.38 212.131 427.952 211.752 426.602 212.265C422.943 213.648 421.136 221.423 420.556 224.536C419.319 223.157 417.748 222.119 415.993 221.524C415.757 221.431 415.499 221.406 415.249 221.451C414.999 221.497 414.766 221.611 414.577 221.78C412.714 223.42 414.019 231.553 414.42 233.828L385.338 263.58L374.249 244.136C374.195 244.039 374.113 243.961 374.013 243.911C373.914 243.862 373.802 243.843 373.692 243.857L348.034 247.204C347.947 247.215 347.863 247.247 347.791 247.297C347.719 247.348 347.661 247.415 347.621 247.494C347.583 247.572 347.563 247.658 347.563 247.745C347.563 247.832 347.583 247.918 347.621 247.996C348.569 249.993 370.78 296.98 380.575 299.155C380.764 299.214 380.958 299.255 381.155 299.278ZM427.796 213.124C428.684 213.206 429.515 213.601 430.139 214.239C435.716 218.969 435.192 227.046 428.476 239.64C424.226 247.628 389.7 300.159 380.742 298.185C372.085 296.255 351.738 254.254 348.882 248.319L373.424 245.084L384.691 264.841C384.734 264.916 384.794 264.979 384.865 265.028C384.937 265.076 385.018 265.108 385.104 265.12C385.19 265.132 385.277 265.123 385.359 265.094C385.44 265.065 385.514 265.016 385.572 264.952L415.38 234.364C415.441 234.299 415.485 234.221 415.511 234.136C415.536 234.05 415.541 233.961 415.525 233.873C414.766 229.757 414.175 223.543 415.268 222.584C415.268 222.584 415.391 222.483 415.614 222.584C417.521 223.274 419.182 224.512 420.389 226.142C420.454 226.235 420.544 226.306 420.649 226.348C420.754 226.389 420.869 226.399 420.98 226.377C421.088 226.351 421.186 226.294 421.262 226.213C421.337 226.131 421.387 226.029 421.404 225.919C421.861 222.829 423.735 214.563 426.982 213.358C427.236 213.229 427.512 213.149 427.796 213.124Z" fill="#00424D"/>
<path d="M281.056 331.628L288.274 298.809L360.26 318.119C360.26 318.119 360.115 323.507 359.914 331.606L281.056 331.628Z" fill="#00424D"/>
<path d="M286.578 235.434C286.578 235.434 263.508 229.455 254.863 224.379C245.381 218.801 227.521 183.572 221.72 174.815C218.571 169.979 216.231 164.663 214.792 159.074C214.123 156.576 213.811 154.768 215.06 152.381C215.317 151.879 219.411 147.395 219.6 147.919C218.485 144.784 217.369 141.806 216.187 138.704C215.874 137.845 215.64 136.763 216.298 136.139C216.587 135.913 216.942 135.791 217.308 135.791C217.674 135.791 218.029 135.913 218.317 136.139C218.899 136.584 219.372 137.157 219.701 137.812L229.183 154.255C229.107 152.225 229.516 150.206 230.376 148.365C230.512 147.996 230.757 147.676 231.079 147.45C232.117 146.87 233.121 148.287 233.444 149.425C235.129 155.36 233.913 162.51 237.549 167.765C240.316 171.758 264.892 201.231 264.892 201.231L286.578 206.809" fill="white"/>
<path d="M286.578 235.993C286.726 236.012 286.875 235.972 286.993 235.881C287.112 235.79 287.189 235.656 287.208 235.508C287.227 235.36 287.187 235.211 287.096 235.092C287.005 234.974 286.871 234.897 286.723 234.878C286.489 234.822 263.62 228.876 255.142 223.889C248.281 219.851 236.623 199.425 228.904 185.905C226.115 181.03 223.716 176.813 222.21 174.504C219.1 169.703 216.79 164.428 215.372 158.886C214.736 156.544 214.402 154.837 215.595 152.55C216.788 151.054 218.118 149.672 219.567 148.422C219.648 148.439 219.731 148.439 219.812 148.422C219.951 148.372 220.065 148.269 220.13 148.136C220.194 148.002 220.204 147.849 220.158 147.708C219.477 145.7 218.719 143.726 217.994 141.807C217.57 140.692 217.157 139.576 216.744 138.46C216.331 137.345 216.365 136.821 216.744 136.497C216.936 136.355 217.169 136.278 217.408 136.278C217.647 136.278 217.88 136.355 218.072 136.497C218.571 136.911 218.975 137.429 219.254 138.014L228.77 154.491C228.831 154.6 228.927 154.685 229.043 154.731C229.158 154.778 229.286 154.784 229.406 154.748C229.502 154.706 229.585 154.637 229.644 154.55C229.703 154.464 229.737 154.362 229.74 154.257C229.676 152.336 230.057 150.427 230.856 148.679C230.95 148.419 231.117 148.19 231.336 148.021C231.397 147.986 231.466 147.967 231.536 147.967C231.607 147.967 231.676 147.986 231.737 148.021C232.308 148.412 232.707 149.007 232.853 149.683C233.427 151.951 233.8 154.266 233.968 156.599C234.336 160.615 234.727 164.776 237.092 168.179C239.836 172.161 263.464 200.441 264.468 201.645C264.542 201.735 264.644 201.798 264.758 201.824L286.444 207.402C286.587 207.436 286.738 207.413 286.865 207.338C286.992 207.263 287.085 207.142 287.124 207C287.143 206.929 287.147 206.855 287.137 206.782C287.127 206.71 287.102 206.64 287.065 206.576C287.028 206.513 286.978 206.458 286.919 206.414C286.861 206.37 286.794 206.338 286.723 206.32L265.204 200.742C263.385 198.511 240.662 171.291 238.007 167.498C235.776 164.33 235.441 160.314 235.073 156.443C234.917 154.038 234.544 151.652 233.957 149.315C233.839 148.814 233.619 148.344 233.31 147.933C233.001 147.522 232.609 147.179 232.161 146.928C231.941 146.834 231.703 146.794 231.464 146.809C231.226 146.825 230.995 146.896 230.789 147.017C230.361 147.273 230.031 147.666 229.852 148.132C229.236 149.45 228.84 150.859 228.681 152.305L220.158 137.523C219.785 136.786 219.247 136.145 218.585 135.649C218.187 135.358 217.705 135.207 217.212 135.219C216.72 135.232 216.246 135.406 215.863 135.716C215.171 136.374 215.082 137.445 215.617 138.884C216.03 140 216.454 141.116 216.878 142.231C217.536 143.971 218.217 145.767 218.853 147.586C217.244 148.903 215.792 150.4 214.524 152.048C213.152 154.681 213.531 156.666 214.212 159.187C215.669 164.83 218.031 170.198 221.206 175.084C222.724 177.371 225.111 181.565 227.9 186.418C236.144 200.853 247.422 220.632 254.55 224.815C263.151 229.88 285.462 235.681 286.41 235.971L286.578 235.993Z" fill="#00424D"/>
<path d="M266.554 198.879C266.554 198.879 348.458 197.15 358.855 211.853C366.946 224.054 373.721 237.079 379.068 250.708L364.343 264.474C364.408 283.942 363.417 303.4 361.376 322.761C335.997 327.223 283.421 306.92 283.867 306.72L290.56 238.671L259.213 228.988L266.554 198.879Z" fill="#0FBFC4"/>
<path d="M365.302 259.364C365.376 259.361 365.448 259.344 365.514 259.313C365.581 259.282 365.641 259.239 365.69 259.185C365.74 259.131 365.779 259.068 365.804 258.999C365.829 258.93 365.841 258.857 365.838 258.784C365.838 257.557 364.867 228.519 360.885 218.367C360.859 218.298 360.82 218.235 360.769 218.182C360.718 218.128 360.657 218.086 360.589 218.056C360.521 218.027 360.448 218.012 360.375 218.012C360.301 218.011 360.228 218.026 360.16 218.055C360.091 218.079 360.028 218.118 359.975 218.168C359.921 218.217 359.879 218.278 359.849 218.344C359.82 218.411 359.805 218.483 359.805 218.556C359.804 218.629 359.819 218.702 359.847 218.769C363.752 228.742 364.711 258.527 364.722 258.817C364.728 258.966 364.792 259.107 364.901 259.209C365.009 259.311 365.153 259.367 365.302 259.364Z" fill="#00424D"/>
<path d="M301.772 242.151C301.893 242.152 302.011 242.114 302.108 242.041C302.205 241.969 302.275 241.866 302.307 241.749C302.345 241.606 302.325 241.453 302.253 241.324C302.18 241.195 302.059 241.099 301.917 241.057L278.769 234.476C278.621 234.434 278.463 234.453 278.329 234.528C278.195 234.604 278.096 234.729 278.055 234.877C278.014 235.025 278.033 235.183 278.108 235.317C278.183 235.451 278.309 235.55 278.457 235.591L301.615 242.173C301.669 242.176 301.722 242.169 301.772 242.151Z" fill="#00424D"/>
<path d="M431.393 168.629C431.393 165.429 431.393 143.629 431.393 133.129" stroke="#BCC4D0" stroke-width="2" stroke-linecap="round" stroke-dasharray="4 4"/>
<path d="M431.393 281.129C431.393 277.929 431.393 256.129 431.393 245.629" stroke="#BCC4D0" stroke-width="2" stroke-linecap="round" stroke-dasharray="4 4"/>
<g filter="url(#filter6_d_316_8042)">
<rect x="414.393" y="94.6289" width="34" height="34" rx="4" fill="white" shape-rendering="crispEdges"/>
<path d="M424.362 118.098C424.362 118.409 424.613 118.66 424.924 118.66H437.862C438.173 118.66 438.424 118.409 438.424 118.098V110.715H424.362V118.098ZM437.862 105.863H434.909V104.738C434.909 104.661 434.845 104.598 434.768 104.598H433.784C433.706 104.598 433.643 104.661 433.643 104.738V105.863H429.143V104.738C429.143 104.661 429.08 104.598 429.002 104.598H428.018C427.941 104.598 427.877 104.661 427.877 104.738V105.863H424.924C424.613 105.863 424.362 106.115 424.362 106.426V109.52H438.424V106.426C438.424 106.115 438.173 105.863 437.862 105.863Z" fill="#4B5B76"/>
<rect x="414.893" y="95.1289" width="33" height="33" rx="3.5" stroke="#1C222B" shape-rendering="crispEdges"/>
</g>
<g filter="url(#filter7_d_316_8042)">
<rect x="414.393" y="287.629" width="34" height="34" rx="4" fill="white" shape-rendering="crispEdges"/>
<path d="M439.589 302.7H433.482C433.394 302.7 433.321 302.773 433.321 302.861V305.111C433.321 305.2 433.394 305.272 433.482 305.272H434.446C434.535 305.272 434.607 305.2 434.607 305.111V303.986H435.813V310.415H434.888C434.8 310.415 434.728 310.487 434.728 310.575V311.54C434.728 311.628 434.8 311.7 434.888 311.7H438.183C438.271 311.7 438.344 311.628 438.344 311.54V310.575C438.344 310.487 438.271 310.415 438.183 310.415H437.259V303.986H438.464V305.111C438.464 305.2 438.537 305.272 438.625 305.272H439.589C439.678 305.272 439.75 305.2 439.75 305.111V302.861C439.75 302.773 439.678 302.7 439.589 302.7ZM434.286 300.29V297.718C434.286 297.63 434.213 297.558 434.125 297.558H423.196C423.108 297.558 423.036 297.63 423.036 297.718V300.29C423.036 300.378 423.108 300.45 423.196 300.45H424.321C424.41 300.45 424.482 300.378 424.482 300.29V299.004H427.857V310.254H426.009C425.921 310.254 425.848 310.326 425.848 310.415V311.54C425.848 311.628 425.921 311.7 426.009 311.7H431.313C431.401 311.7 431.473 311.628 431.473 311.54V310.415C431.473 310.326 431.401 310.254 431.313 310.254H429.464V299.004H432.839V300.29C432.839 300.378 432.912 300.45 433 300.45H434.125C434.213 300.45 434.286 300.378 434.286 300.29Z" fill="#4B5B76"/>
<rect x="414.893" y="288.129" width="33" height="33" rx="3.5" stroke="#1C222B" shape-rendering="crispEdges"/>
</g>
<g filter="url(#filter8_d_316_8042)">
<rect x="508.393" y="189.629" width="34" height="34" rx="4" fill="white" shape-rendering="crispEdges"/>
<circle cx="525.393" cy="206.629" r="8" fill="#E6F7FF"/>
<path d="M517.893 206.629C517.893 202.487 521.251 199.129 525.393 199.129C529.535 199.129 532.893 202.487 532.893 206.629C532.893 210.771 529.535 214.129 525.393 214.129C521.251 214.129 517.893 210.771 517.893 206.629Z" fill="white" stroke="#4B5B76"/>
<rect x="521.393" y="202.629" width="8" height="8" rx="4" fill="#4B5B76"/>
<rect x="508.893" y="190.129" width="33" height="33" rx="3.5" stroke="#1C222B" shape-rendering="crispEdges"/>
</g>
<path d="M502.893 206.629C499.693 206.629 477.893 206.629 467.393 206.629" stroke="#BCC4D0" stroke-width="2" stroke-linecap="round" stroke-dasharray="4 4"/>
<defs>
<filter id="filter0_d_316_8042" x="0.68108" y="2.59492" width="312.424" height="308.424" filterUnits="userSpaceOnUse" color-interpolation-filters="sRGB">
<feFlood flood-opacity="0" result="BackgroundImageFix"/>
<feColorMatrix in="SourceAlpha" type="matrix" values="0 0 0 0 0 0 0 0 0 0 0 0 0 0 0 0 0 0 127 0" result="hardAlpha"/>
<feOffset dy="4.678"/>
<feGaussianBlur stdDeviation="9.35599"/>
<feComposite in2="hardAlpha" operator="out"/>
<feColorMatrix type="matrix" values="0 0 0 0 0.0470588 0 0 0 0 0.152941 0 0 0 0 0.121569 0 0 0 0.1 0"/>
<feBlend mode="normal" in2="BackgroundImageFix" result="effect1_dropShadow_316_8042"/>
<feBlend mode="normal" in="SourceGraphic" in2="effect1_dropShadow_316_8042" result="shape"/>
</filter>
<filter id="filter1_d_316_8042" x="108.393" y="109.629" width="237" height="66" filterUnits="userSpaceOnUse" color-interpolation-filters="sRGB">
<feFlood flood-opacity="0" result="BackgroundImageFix"/>
<feColorMatrix in="SourceAlpha" type="matrix" values="0 0 0 0 0 0 0 0 0 0 0 0 0 0 0 0 0 0 127 0" result="hardAlpha"/>
<feOffset dy="3"/>
<feGaussianBlur stdDeviation="8"/>
<feComposite in2="hardAlpha" operator="out"/>
<feColorMatrix type="matrix" values="0 0 0 0 0 0 0 0 0 0.0705882 0 0 0 0 0.301961 0 0 0 0.16 0"/>
<feBlend mode="normal" in2="BackgroundImageFix" result="effect1_dropShadow_316_8042"/>
<feBlend mode="normal" in="SourceGraphic" in2="effect1_dropShadow_316_8042" result="shape"/>
</filter>
<filter id="filter2_d_316_8042" x="108.393" y="159.629" width="237" height="66" filterUnits="userSpaceOnUse" color-interpolation-filters="sRGB">
<feFlood flood-opacity="0" result="BackgroundImageFix"/>
<feColorMatrix in="SourceAlpha" type="matrix" values="0 0 0 0 0 0 0 0 0 0 0 0 0 0 0 0 0 0 127 0" result="hardAlpha"/>
<feOffset dy="3"/>
<feGaussianBlur stdDeviation="8"/>
<feComposite in2="hardAlpha" operator="out"/>
<feColorMatrix type="matrix" values="0 0 0 0 0 0 0 0 0 0.0705882 0 0 0 0 0.301961 0 0 0 0.16 0"/>
<feBlend mode="normal" in2="BackgroundImageFix" result="effect1_dropShadow_316_8042"/>
<feBlend mode="normal" in="SourceGraphic" in2="effect1_dropShadow_316_8042" result="shape"/>
</filter>
<filter id="filter3_d_316_8042" x="108.393" y="209.629" width="237" height="66" filterUnits="userSpaceOnUse" color-interpolation-filters="sRGB">
<feFlood flood-opacity="0" result="BackgroundImageFix"/>
<feColorMatrix in="SourceAlpha" type="matrix" values="0 0 0 0 0 0 0 0 0 0 0 0 0 0 0 0 0 0 127 0" result="hardAlpha"/>
<feOffset dy="3"/>
<feGaussianBlur stdDeviation="8"/>
<feComposite in2="hardAlpha" operator="out"/>
<feColorMatrix type="matrix" values="0 0 0 0 0 0 0 0 0 0.0705882 0 0 0 0 0.301961 0 0 0 0.16 0"/>
<feBlend mode="normal" in2="BackgroundImageFix" result="effect1_dropShadow_316_8042"/>
<feBlend mode="normal" in="SourceGraphic" in2="effect1_dropShadow_316_8042" result="shape"/>
</filter>
<filter id="filter4_d_316_8042" x="410.598" y="185.629" width="42" height="42" filterUnits="userSpaceOnUse" color-interpolation-filters="sRGB">
<feFlood flood-opacity="0" result="BackgroundImageFix"/>
<feColorMatrix in="SourceAlpha" type="matrix" values="0 0 0 0 0 0 0 0 0 0 0 0 0 0 0 0 0 0 127 0" result="hardAlpha"/>
<feOffset/>
<feGaussianBlur stdDeviation="1"/>
<feComposite in2="hardAlpha" operator="out"/>
<feColorMatrix type="matrix" values="0 0 0 0 1 0 0 0 0 1 0 0 0 0 1 0 0 0 0.8 0"/>
<feBlend mode="normal" in2="BackgroundImageFix" result="effect1_dropShadow_316_8042"/>
<feBlend mode="normal" in="SourceGraphic" in2="effect1_dropShadow_316_8042" result="shape"/>
</filter>
<filter id="filter5_d_316_8042" x="410.557" y="191.587" width="38.0833" height="38.083" filterUnits="userSpaceOnUse" color-interpolation-filters="sRGB">
<feFlood flood-opacity="0" result="BackgroundImageFix"/>
<feColorMatrix in="SourceAlpha" type="matrix" values="0 0 0 0 0 0 0 0 0 0 0 0 0 0 0 0 0 0 127 0" result="hardAlpha"/>
<feOffset dx="-2" dy="4"/>
<feGaussianBlur stdDeviation="2"/>
<feComposite in2="hardAlpha" operator="out"/>
<feColorMatrix type="matrix" values="0 0 0 0 0.198333 0 0 0 0 0.909926 0 0 0 0 0.933333 0 0 0 0.6 0"/>
<feBlend mode="normal" in2="BackgroundImageFix" result="effect1_dropShadow_316_8042"/>
<feBlend mode="normal" in="SourceGraphic" in2="effect1_dropShadow_316_8042" result="shape"/>
</filter>
<filter id="filter6_d_316_8042" x="398.393" y="78.6289" width="66" height="66" filterUnits="userSpaceOnUse" color-interpolation-filters="sRGB">
<feFlood flood-opacity="0" result="BackgroundImageFix"/>
<feColorMatrix in="SourceAlpha" type="matrix" values="0 0 0 0 0 0 0 0 0 0 0 0 0 0 0 0 0 0 127 0" result="hardAlpha"/>
<feOffset/>
<feGaussianBlur stdDeviation="8"/>
<feComposite in2="hardAlpha" operator="out"/>
<feColorMatrix type="matrix" values="0 0 0 0 0 0 0 0 0 0.101961 0 0 0 0 0.121569 0 0 0 0.08 0"/>
<feBlend mode="normal" in2="BackgroundImageFix" result="effect1_dropShadow_316_8042"/>
<feBlend mode="normal" in="SourceGraphic" in2="effect1_dropShadow_316_8042" result="shape"/>
</filter>
<filter id="filter7_d_316_8042" x="398.393" y="271.629" width="66" height="66" filterUnits="userSpaceOnUse" color-interpolation-filters="sRGB">
<feFlood flood-opacity="0" result="BackgroundImageFix"/>
<feColorMatrix in="SourceAlpha" type="matrix" values="0 0 0 0 0 0 0 0 0 0 0 0 0 0 0 0 0 0 127 0" result="hardAlpha"/>
<feOffset/>
<feGaussianBlur stdDeviation="8"/>
<feComposite in2="hardAlpha" operator="out"/>
<feColorMatrix type="matrix" values="0 0 0 0 0 0 0 0 0 0.101961 0 0 0 0 0.121569 0 0 0 0.08 0"/>
<feBlend mode="normal" in2="BackgroundImageFix" result="effect1_dropShadow_316_8042"/>
<feBlend mode="normal" in="SourceGraphic" in2="effect1_dropShadow_316_8042" result="shape"/>
</filter>
<filter id="filter8_d_316_8042" x="492.393" y="173.629" width="66" height="66" filterUnits="userSpaceOnUse" color-interpolation-filters="sRGB">
<feFlood flood-opacity="0" result="BackgroundImageFix"/>
<feColorMatrix in="SourceAlpha" type="matrix" values="0 0 0 0 0 0 0 0 0 0 0 0 0 0 0 0 0 0 127 0" result="hardAlpha"/>
<feOffset/>
<feGaussianBlur stdDeviation="8"/>
<feComposite in2="hardAlpha" operator="out"/>
<feColorMatrix type="matrix" values="0 0 0 0 0 0 0 0 0 0.101961 0 0 0 0 0.121569 0 0 0 0.08 0"/>
<feBlend mode="normal" in2="BackgroundImageFix" result="effect1_dropShadow_316_8042"/>
<feBlend mode="normal" in="SourceGraphic" in2="effect1_dropShadow_316_8042" result="shape"/>
</filter>
<clipPath id="clip0_316_8042">
<rect width="38" height="38" fill="white" transform="translate(412.598 187.629)"/>
</clipPath>
</defs>
</svg>
