<svg width="559" height="336" viewBox="0 0 559 336" fill="none" xmlns="http://www.w3.org/2000/svg">
<g filter="url(#filter0_d_316_8042)">
<rect x="19.3931" y="14.9951" width="275" height="271" rx="9.35599" fill="white" shape-rendering="crispEdges"/>
<rect x="33.427" y="29.0293" width="28.068" height="28.068" rx="2.339" fill="#E8FFFB"/>
<mask id="path-4-inside-1_316_8042" fill="white">
<path d="M40.444 40.7244V48.9109H54.478V40.7244H40.444ZM39.8593 39.5549H55.0628C55.2335 39.5549 55.3737 39.6097 55.4832 39.7193C55.5928 39.8288 55.6475 39.969 55.6475 40.1397V49.4957C55.6475 49.6664 55.5928 49.8066 55.4832 49.9161C55.3737 50.0257 55.2335 50.0804 55.0628 50.0804H39.8593C39.6885 50.0804 39.5484 50.0257 39.4389 49.9161C39.3293 49.8066 39.2745 49.6664 39.2745 49.4957V40.1397C39.2745 39.969 39.3293 39.8288 39.4389 39.7193C39.5484 39.6097 39.6885 39.5549 39.8593 39.5549ZM41.0288 37.216H53.8933V38.3855H41.0288V37.216ZM42.783 34.877H52.139V36.0465H42.783V34.877Z"/>
</mask>
<path d="M40.444 40.7244V48.9109H54.478V40.7244H40.444ZM39.8593 39.5549H55.0628C55.2335 39.5549 55.3737 39.6097 55.4832 39.7193C55.5928 39.8288 55.6475 39.969 55.6475 40.1397V49.4957C55.6475 49.6664 55.5928 49.8066 55.4832 49.9161C55.3737 50.0257 55.2335 50.0804 55.0628 50.0804H39.8593C39.6885 50.0804 39.5484 50.0257 39.4389 49.9161C39.3293 49.8066 39.2745 49.6664 39.2745 49.4957V40.1397C39.2745 39.969 39.3293 39.8288 39.4389 39.7193C39.5484 39.6097 39.6885 39.5549 39.8593 39.5549ZM41.0288 37.216H53.8933V38.3855H41.0288V37.216ZM42.783 34.877H52.139V36.0465H42.783V34.877Z" fill="#303133"/>
<path d="M40.444 40.7244V39.5549H39.2745V40.7244H40.444ZM40.444 48.9109H39.2745V50.0804H40.444V48.9109ZM54.478 48.9109V50.0804H55.6475V48.9109H54.478ZM54.478 40.7244H55.6475V39.5549H54.478V40.7244ZM39.8593 39.5549V38.3855V39.5549ZM55.6475 40.1397H54.478H55.6475ZM55.0628 50.0804V48.9109V50.0804ZM39.2745 49.4957H38.105H39.2745ZM41.0288 37.216V36.0465H39.8593V37.216H41.0288ZM53.8933 37.216H55.0628V36.0465H53.8933V37.216ZM53.8933 38.3855V39.5549H55.0628V38.3855H53.8933ZM41.0288 38.3855H39.8593V39.5549H41.0288V38.3855ZM42.783 34.877V33.7075H41.6135V34.877H42.783ZM52.139 34.877H53.3085V33.7075H52.139V34.877ZM52.139 36.0465V37.216H53.3085V36.0465H52.139ZM42.783 36.0465H41.6135V37.216H42.783V36.0465ZM39.2745 40.7244V48.9109H41.6135V40.7244H39.2745ZM40.444 50.0804H54.478V47.7414H40.444V50.0804ZM55.6475 48.9109V40.7244H53.3085V48.9109H55.6475ZM54.478 39.5549H40.444V41.8939H54.478V39.5549ZM39.8593 40.7244H55.0628V38.3855H39.8593V40.7244ZM55.0628 40.7244C55.022 40.7244 54.9529 40.7176 54.8702 40.6853C54.7854 40.6521 54.7122 40.6022 54.6562 40.5462L56.3102 38.8923C55.9579 38.54 55.5089 38.3855 55.0628 38.3855V40.7244ZM54.6562 40.5462C54.6003 40.4903 54.5503 40.4171 54.5172 40.3322C54.4849 40.2496 54.478 40.1805 54.478 40.1397H56.817C56.817 39.6936 56.6625 39.2446 56.3102 38.8923L54.6562 40.5462ZM54.478 40.1397V49.4957H56.817V40.1397H54.478ZM54.478 49.4957C54.478 49.4549 54.4849 49.3858 54.5172 49.3032C54.5503 49.2183 54.6003 49.1451 54.6562 49.0892L56.3102 50.7431C56.6625 50.3908 56.817 49.9418 56.817 49.4957H54.478ZM54.6562 49.0892C54.7122 49.0332 54.7854 48.9833 54.8702 48.9501C54.9529 48.9178 55.022 48.9109 55.0628 48.9109V51.2499C55.5089 51.2499 55.9579 51.0954 56.3102 50.7431L54.6562 49.0892ZM55.0628 48.9109H39.8593V51.2499H55.0628V48.9109ZM39.8593 48.9109C39.9001 48.9109 39.9692 48.9178 40.0518 48.9501C40.1367 48.9833 40.2098 49.0332 40.2658 49.0892L38.6119 50.7431C38.9642 51.0954 39.4132 51.2499 39.8593 51.2499V48.9109ZM40.2658 49.0892C40.3218 49.1451 40.3717 49.2183 40.4049 49.3032C40.4372 49.3858 40.444 49.4549 40.444 49.4957H38.105C38.105 49.9418 38.2596 50.3908 38.6119 50.7431L40.2658 49.0892ZM40.444 49.4957V40.1397H38.105V49.4957H40.444ZM40.444 40.1397C40.444 40.1805 40.4372 40.2496 40.4049 40.3322C40.3717 40.4171 40.3218 40.4903 40.2658 40.5462L38.6119 38.8923C38.2596 39.2446 38.105 39.6936 38.105 40.1397H40.444ZM40.2658 40.5462C40.2098 40.6022 40.1367 40.6521 40.0518 40.6853C39.9692 40.7176 39.9001 40.7244 39.8593 40.7244V38.3855C39.4132 38.3855 38.9642 38.54 38.6119 38.8923L40.2658 40.5462ZM41.0288 38.3855H53.8933V36.0465H41.0288V38.3855ZM52.7238 37.216V38.3855H55.0628V37.216H52.7238ZM53.8933 37.216H41.0288V39.5549H53.8933V37.216ZM42.1983 38.3855V37.216H39.8593V38.3855H42.1983ZM42.783 36.0465H52.139V33.7075H42.783V36.0465ZM50.9695 34.877V36.0465H53.3085V34.877H50.9695ZM52.139 34.877H42.783V37.216H52.139V34.877ZM43.9525 36.0465V34.877H41.6135V36.0465H43.9525Z" fill="#0FBFC4" mask="url(#path-4-inside-1_316_8042)"/>
<path d="M84.1832 40.5215H81.3835C81.3324 40.1593 81.2279 39.8375 81.0703 39.5563C80.9126 39.2708 80.7102 39.0279 80.463 38.8276C80.2159 38.6273 79.9304 38.4739 79.6065 38.3674C79.2869 38.2608 78.9396 38.2076 78.5646 38.2076C77.887 38.2076 77.2968 38.3759 76.794 38.7125C76.2912 39.0449 75.9012 39.5307 75.6243 40.1699C75.3473 40.8049 75.2088 41.5762 75.2088 42.4838C75.2088 43.4171 75.3473 44.2012 75.6243 44.8361C75.9055 45.4711 76.2976 45.9505 76.8004 46.2743C77.3032 46.5982 77.8849 46.7601 78.5454 46.7601C78.9162 46.7601 79.2592 46.7111 79.5745 46.6131C79.8941 46.5151 80.1775 46.3723 80.4247 46.1848C80.6718 45.9931 80.8764 45.7608 81.0383 45.4881C81.2045 45.2154 81.3196 44.9043 81.3835 44.5549L84.1832 44.5676C84.1108 45.1685 83.9297 45.748 83.6399 46.3063C83.3544 46.8603 82.9687 47.3567 82.4829 47.7956C82.0014 48.2303 81.4261 48.5755 80.7571 48.8311C80.0923 49.0826 79.3402 49.2083 78.5007 49.2083C77.3331 49.2083 76.289 48.9441 75.3686 48.4157C74.4524 47.8873 73.7279 47.1223 73.1953 46.1209C72.6669 45.1195 72.4027 43.9071 72.4027 42.4838C72.4027 41.0563 72.6711 39.8418 73.2081 38.8404C73.745 37.839 74.4737 37.0762 75.3941 36.552C76.3146 36.0236 77.3501 35.7594 78.5007 35.7594C79.2592 35.7594 79.9623 35.8659 80.6101 36.079C81.262 36.2921 81.8395 36.6032 82.3423 37.0123C82.8451 37.4171 83.2542 37.9135 83.5696 38.5016C83.8892 39.0897 84.0937 39.763 84.1832 40.5215ZM88.8998 35.9384V49.0293H86.1768V35.9384H88.8998ZM93.9408 49.2147C93.3144 49.2147 92.7562 49.106 92.2661 48.8887C91.776 48.6671 91.3883 48.3411 91.1027 47.9107C90.8215 47.476 90.6809 46.9348 90.6809 46.2871C90.6809 45.7417 90.781 45.2836 90.9813 44.9128C91.1816 44.5421 91.4543 44.2438 91.7995 44.0179C92.1446 43.7921 92.5367 43.6216 92.9756 43.5066C93.4188 43.3915 93.8833 43.3105 94.3691 43.2637C94.9401 43.204 95.4003 43.1486 95.7498 43.0975C96.0992 43.0421 96.3527 42.9611 96.5104 42.8546C96.6681 42.748 96.7469 42.5904 96.7469 42.3816V42.3432C96.7469 41.9384 96.6191 41.6252 96.3634 41.4036C96.112 41.182 95.754 41.0712 95.2895 41.0712C94.7995 41.0712 94.4096 41.1799 94.1198 41.3972C93.83 41.6103 93.6383 41.8787 93.5445 42.2026L91.026 41.998C91.1539 41.4015 91.4053 40.8858 91.7803 40.4512C92.1553 40.0123 92.639 39.6756 93.2313 39.4412C93.8279 39.2026 94.5182 39.0833 95.3023 39.0833C95.8478 39.0833 96.3698 39.1472 96.8684 39.275C97.3712 39.4029 97.8165 39.601 98.2043 39.8695C98.5964 40.138 98.9053 40.4831 99.1312 40.905C99.357 41.3226 99.4699 41.8233 99.4699 42.4071V49.0293H96.8875V47.6678H96.8108C96.6532 47.9746 96.4422 48.2452 96.178 48.4796C95.9138 48.7097 95.5964 48.8908 95.2256 49.0229C94.8549 49.1507 94.4266 49.2147 93.9408 49.2147ZM94.7206 47.3354C95.1212 47.3354 95.4749 47.2566 95.7817 47.0989C96.0885 46.937 96.3293 46.7196 96.504 46.4469C96.6787 46.1742 96.7661 45.8652 96.7661 45.5201V44.4782C96.6809 44.5336 96.5637 44.5847 96.4145 44.6316C96.2696 44.6742 96.1056 44.7147 95.9223 44.753C95.7391 44.7871 95.5559 44.8191 95.3726 44.8489C95.1894 44.8745 95.0232 44.8979 94.8741 44.9192C94.5544 44.9661 94.2753 45.0407 94.0367 45.1429C93.7981 45.2452 93.6127 45.3837 93.4806 45.5584C93.3485 45.7289 93.2824 45.9419 93.2824 46.1976C93.2824 46.5684 93.4167 46.8517 93.6851 47.0478C93.9579 47.2395 94.303 47.3354 94.7206 47.3354ZM101.643 49.0293V39.2111H104.366V49.0293H101.643ZM103.01 37.9455C102.606 37.9455 102.258 37.8113 101.968 37.5428C101.683 37.2701 101.54 36.9441 101.54 36.5648C101.54 36.1898 101.683 35.8681 101.968 35.5996C102.258 35.3269 102.606 35.1905 103.01 35.1905C103.415 35.1905 103.76 35.3269 104.046 35.5996C104.336 35.8681 104.481 36.1898 104.481 36.5648C104.481 36.9441 104.336 37.2701 104.046 37.5428C103.76 37.8113 103.415 37.9455 103.01 37.9455ZM106.607 49.0293V39.2111H109.202V40.9434H109.317C109.522 40.3681 109.862 39.9142 110.34 39.5819C110.817 39.2495 111.388 39.0833 112.053 39.0833C112.726 39.0833 113.299 39.2516 113.772 39.5882C114.245 39.9206 114.561 40.3723 114.718 40.9434H114.821C115.021 40.3809 115.383 39.9313 115.907 39.5946C116.436 39.2537 117.06 39.0833 117.78 39.0833C118.696 39.0833 119.44 39.3752 120.011 39.959C120.586 40.5385 120.874 41.361 120.874 42.4263V49.0293H118.157V42.9632C118.157 42.4178 118.012 42.0087 117.723 41.736C117.433 41.4632 117.071 41.3269 116.636 41.3269C116.142 41.3269 115.756 41.4846 115.479 41.7999C115.202 42.111 115.063 42.5222 115.063 43.0336V49.0293H112.424V42.9057C112.424 42.4242 112.285 42.0407 112.008 41.7551C111.735 41.4696 111.375 41.3269 110.928 41.3269C110.625 41.3269 110.353 41.4036 110.11 41.557C109.871 41.7061 109.681 41.9171 109.541 42.1898C109.4 42.4583 109.33 42.7736 109.33 43.1358V49.0293H106.607ZM126.863 38.2203V35.9384H137.615V38.2203H133.607V49.0293H130.871V38.2203H126.863ZM140.858 49.2147C140.232 49.2147 139.673 49.106 139.183 48.8887C138.693 48.6671 138.305 48.3411 138.02 47.9107C137.739 47.476 137.598 46.9348 137.598 46.2871C137.598 45.7417 137.698 45.2836 137.898 44.9128C138.099 44.5421 138.371 44.2438 138.717 44.0179C139.062 43.7921 139.454 43.6216 139.893 43.5066C140.336 43.3915 140.8 43.3105 141.286 43.2637C141.857 43.204 142.318 43.1486 142.667 43.0975C143.016 43.0421 143.27 42.9611 143.428 42.8546C143.585 42.748 143.664 42.5904 143.664 42.3816V42.3432C143.664 41.9384 143.536 41.6252 143.281 41.4036C143.029 41.182 142.671 41.0712 142.207 41.0712C141.717 41.0712 141.327 41.1799 141.037 41.3972C140.747 41.6103 140.555 41.8787 140.462 42.2026L137.943 41.998C138.071 41.4015 138.322 40.8858 138.697 40.4512C139.072 40.0123 139.556 39.6756 140.148 39.4412C140.745 39.2026 141.435 39.0833 142.22 39.0833C142.765 39.0833 143.287 39.1472 143.786 39.275C144.288 39.4029 144.734 39.601 145.121 39.8695C145.514 40.138 145.822 40.4831 146.048 40.905C146.274 41.3226 146.387 41.8233 146.387 42.4071V49.0293H143.805V47.6678H143.728C143.57 47.9746 143.359 48.2452 143.095 48.4796C142.831 48.7097 142.514 48.8908 142.143 49.0229C141.772 49.1507 141.344 49.2147 140.858 49.2147ZM141.638 47.3354C142.038 47.3354 142.392 47.2566 142.699 47.0989C143.006 46.937 143.246 46.7196 143.421 46.4469C143.596 46.1742 143.683 45.8652 143.683 45.5201V44.4782C143.598 44.5336 143.481 44.5847 143.332 44.6316C143.187 44.6742 143.023 44.7147 142.84 44.753C142.656 44.7871 142.473 44.8191 142.29 44.8489C142.107 44.8745 141.94 44.8979 141.791 44.9192C141.472 44.9661 141.193 45.0407 140.954 45.1429C140.715 45.2452 140.53 45.3837 140.398 45.5584C140.266 45.7289 140.2 45.9419 140.2 46.1976C140.2 46.5684 140.334 46.8517 140.602 47.0478C140.875 47.2395 141.22 47.3354 141.638 47.3354ZM150.835 39.2111L152.638 42.6436L154.485 39.2111H157.278L154.434 44.1202L157.355 49.0293H154.575L152.638 45.6351L150.733 49.0293H147.92L150.835 44.1202L148.023 39.2111H150.835ZM163.233 49.0293V35.9384H168.398C169.386 35.9384 170.23 36.1152 170.929 36.4689C171.632 36.8184 172.167 37.3148 172.533 37.9583C172.904 38.5975 173.089 39.3496 173.089 40.2147C173.089 41.084 172.902 41.8319 172.527 42.4583C172.152 43.0804 171.608 43.5577 170.897 43.8901C170.189 44.2225 169.333 44.3887 168.327 44.3887H164.869V42.1642H167.88C168.408 42.1642 168.847 42.0918 169.197 41.9469C169.546 41.802 169.806 41.5847 169.976 41.2949C170.151 41.0051 170.238 40.6451 170.238 40.2147C170.238 39.78 170.151 39.4135 169.976 39.1152C169.806 38.8169 169.544 38.5911 169.19 38.4377C168.841 38.28 168.4 38.2012 167.867 38.2012H166.001V49.0293H163.233ZM170.302 43.0719L173.556 49.0293H170.501L167.317 43.0719H170.302ZM179.37 49.2211C178.36 49.2211 177.491 49.0165 176.762 48.6074C176.038 48.1941 175.48 47.6103 175.088 46.856C174.696 46.0975 174.5 45.2005 174.5 44.1649C174.5 43.155 174.696 42.2686 175.088 41.5059C175.48 40.7431 176.032 40.1486 176.743 39.7225C177.459 39.2963 178.299 39.0833 179.262 39.0833C179.909 39.0833 180.512 39.1877 181.071 39.3965C181.633 39.601 182.123 39.91 182.541 40.3233C182.963 40.7367 183.291 41.2566 183.525 41.883C183.76 42.5051 183.877 43.2338 183.877 44.0691V44.8169H175.586V43.1294H181.314C181.314 42.7374 181.228 42.3901 181.058 42.0875C180.887 41.785 180.651 41.5485 180.348 41.378C180.05 41.2033 179.703 41.1159 179.306 41.1159C178.893 41.1159 178.527 41.2118 178.207 41.4036C177.892 41.5911 177.645 41.8446 177.466 42.1642C177.287 42.4796 177.195 42.8311 177.191 43.2189V44.8233C177.191 45.3091 177.28 45.7289 177.459 46.0826C177.642 46.4363 177.9 46.709 178.233 46.9007C178.565 47.0925 178.959 47.1884 179.415 47.1884C179.718 47.1884 179.995 47.1458 180.246 47.0605C180.498 46.9753 180.713 46.8475 180.892 46.677C181.071 46.5066 181.207 46.2978 181.301 46.0506L183.819 46.2168C183.691 46.8219 183.429 47.3503 183.033 47.802C182.641 48.2495 182.134 48.5989 181.512 48.8503C180.894 49.0975 180.18 49.2211 179.37 49.2211ZM190.994 39.2111V41.2566H184.934V39.2111H190.994ZM186.321 49.0293V38.5016C186.321 37.7899 186.459 37.1998 186.736 36.731C187.018 36.2623 187.401 35.9107 187.887 35.6763C188.373 35.4419 188.925 35.3248 189.543 35.3248C189.96 35.3248 190.342 35.3567 190.687 35.4206C191.036 35.4846 191.296 35.5421 191.467 35.5932L190.981 37.6387C190.874 37.6046 190.742 37.5726 190.584 37.5428C190.431 37.513 190.273 37.498 190.111 37.498C189.711 37.498 189.432 37.5918 189.274 37.7793C189.116 37.9625 189.038 38.2203 189.038 38.5527V49.0293H186.321ZM199.013 44.8489V39.2111H201.736V49.0293H199.122V47.2459H199.02C198.798 47.8212 198.429 48.2836 197.914 48.633C197.402 48.9824 196.778 49.1571 196.041 49.1571C195.385 49.1571 194.807 49.008 194.309 48.7097C193.81 48.4114 193.42 47.9874 193.139 47.4377C192.862 46.888 192.721 46.2296 192.717 45.4625V39.2111H195.44V44.9767C195.444 45.5563 195.6 46.0144 195.907 46.351C196.214 46.6877 196.625 46.856 197.14 46.856C197.469 46.856 197.775 46.7814 198.061 46.6323C198.346 46.4789 198.576 46.253 198.751 45.9547C198.93 45.6564 199.018 45.2878 199.013 44.8489ZM206.697 43.3532V49.0293H203.974V39.2111H206.57V40.9434H206.685C206.902 40.3723 207.266 39.9206 207.778 39.5882C208.289 39.2516 208.909 39.0833 209.638 39.0833C210.32 39.0833 210.914 39.2324 211.421 39.5307C211.928 39.829 212.322 40.2551 212.604 40.8091C212.885 41.3588 213.026 42.0151 213.026 42.7779V49.0293H210.302V43.2637C210.307 42.6628 210.153 42.1941 209.842 41.8574C209.531 41.5165 209.103 41.3461 208.557 41.3461C208.191 41.3461 207.867 41.4249 207.586 41.5826C207.309 41.7402 207.092 41.9703 206.934 42.2729C206.78 42.5712 206.702 42.9313 206.697 43.3532ZM218.85 49.1891C218.104 49.1891 217.428 48.9973 216.823 48.6138C216.222 48.226 215.745 47.6571 215.391 46.9071C215.042 46.1529 214.867 45.2282 214.867 44.133C214.867 43.008 215.048 42.0726 215.411 41.3269C215.773 40.5769 216.254 40.0165 216.855 39.6458C217.46 39.2708 218.123 39.0833 218.843 39.0833C219.393 39.0833 219.851 39.177 220.217 39.3645C220.588 39.5478 220.886 39.7779 221.112 40.0549C221.342 40.3276 221.517 40.5961 221.636 40.8603H221.72V35.9384H224.436V49.0293H221.752V47.4569H221.636C221.509 47.7296 221.328 48.0002 221.093 48.2686C220.863 48.5328 220.563 48.7523 220.192 48.927C219.825 49.1017 219.378 49.1891 218.85 49.1891ZM219.712 47.0222C220.151 47.0222 220.522 46.9029 220.825 46.6642C221.131 46.4213 221.366 46.0826 221.528 45.6479C221.694 45.2132 221.777 44.704 221.777 44.1202C221.777 43.5364 221.696 43.0293 221.534 42.5989C221.372 42.1685 221.138 41.8361 220.831 41.6017C220.524 41.3674 220.151 41.2502 219.712 41.2502C219.265 41.2502 218.888 41.3716 218.581 41.6145C218.274 41.8574 218.042 42.1941 217.884 42.6245C217.727 43.0549 217.648 43.5534 217.648 44.1202C217.648 44.6912 217.727 45.1962 217.884 45.6351C218.046 46.0698 218.279 46.4107 218.581 46.6578C218.888 46.9007 219.265 47.0222 219.712 47.0222Z" fill="#00424D"/>
<path d="M52.3466 81.4335H51.075C51.0087 81.4335 50.9545 81.4877 50.9545 81.554V88.3884H50.8399L46.1069 81.4857C46.0848 81.4535 46.0466 81.4335 46.0085 81.4335H44.6725C44.6062 81.4335 44.552 81.4877 44.552 81.554V90.8754C44.552 90.9417 44.6062 90.996 44.6725 90.996H45.9321C45.9984 90.996 46.0527 90.9417 46.0527 90.8754V83.9466H46.1672L50.9524 90.9437C50.9745 90.9759 51.0127 90.996 51.0529 90.996H52.3466C52.4129 90.996 52.4672 90.9417 52.4672 90.8754V81.554C52.4672 81.4877 52.4129 81.4335 52.3466 81.4335ZM59.9404 89.7303H53.8333C53.7449 89.7303 53.6725 89.8027 53.6725 89.891V90.8553C53.6725 90.9437 53.7449 91.016 53.8333 91.016H59.9404C60.0288 91.016 60.1011 90.9437 60.1011 90.8553V89.891C60.1011 89.8027 60.0288 89.7303 59.9404 89.7303ZM56.8828 88.4647C57.9455 88.4647 58.7953 88.1192 59.4181 87.4261C60.0087 86.7652 60.302 85.9033 60.302 84.8386C60.302 83.7718 60.0087 82.9 59.4181 82.241C58.7973 81.5419 57.9475 81.1924 56.8828 81.1924C55.804 81.1924 54.9562 81.5439 54.3455 82.2531C53.7589 82.9181 53.4737 83.7779 53.4737 84.8386C53.4737 85.8913 53.7609 86.7511 54.3475 87.416C54.9623 88.1131 55.8141 88.4647 56.8828 88.4647ZM55.4464 83.1672C55.7859 82.7533 56.256 82.5464 56.8808 82.5464C57.5136 82.5464 57.9817 82.7393 58.3071 83.131C58.6366 83.5388 58.8074 84.1073 58.8074 84.8366C58.8074 85.5658 58.6386 86.1243 58.3091 86.5221C57.9777 86.9118 57.5056 87.1087 56.8808 87.1087C56.254 87.1087 55.7759 86.9018 55.4464 86.498C55.119 86.0942 54.9542 85.5477 54.9542 84.8386C54.9562 84.1194 55.119 83.573 55.4464 83.1672Z" fill="#2C3645"/>
<path d="M72.5456 91.0967V80.9149H78.9291V82.2373H74.0818V85.3396H78.596V86.657H74.0818V89.7742H78.9888V91.0967H72.5456ZM82.3483 86.5626V91.0967H80.8618V83.4603H82.2887V84.7032H82.3831C82.5588 84.2989 82.8339 83.974 83.2084 83.7288C83.5863 83.4835 84.0619 83.3609 84.6353 83.3609C85.1556 83.3609 85.6114 83.4703 86.0025 83.689C86.3936 83.9044 86.6968 84.2259 86.9123 84.6535C87.1277 85.0811 87.2354 85.6097 87.2354 86.2394V91.0967H85.7489V86.4184C85.7489 85.8649 85.6047 85.4324 85.3164 85.1208C85.028 84.806 84.632 84.6485 84.1282 84.6485C83.7835 84.6485 83.4769 84.7231 83.2084 84.8722C82.9433 85.0214 82.7328 85.2401 82.577 85.5285C82.4246 85.8135 82.3483 86.1582 82.3483 86.5626ZM92.7937 83.4603V84.6535H88.6225V83.4603H92.7937ZM89.7411 81.6308H91.2276V88.8545C91.2276 89.1428 91.2707 89.3599 91.3569 89.5058C91.443 89.6483 91.5541 89.7461 91.69 89.7991C91.8292 89.8488 91.98 89.8737 92.1424 89.8737C92.2617 89.8737 92.3661 89.8654 92.4556 89.8488C92.5451 89.8322 92.6147 89.819 92.6644 89.809L92.9329 91.037C92.8467 91.0702 92.7241 91.1033 92.565 91.1365C92.4059 91.1729 92.207 91.1928 91.9684 91.1961C91.5773 91.2027 91.2127 91.1331 90.8746 90.9873C90.5366 90.8415 90.2631 90.6161 90.0543 90.3112C89.8455 90.0062 89.7411 89.6234 89.7411 89.1627V81.6308ZM97.6472 91.2508C96.8948 91.2508 96.2468 91.0901 95.7033 90.7686C95.163 90.4437 94.7454 89.988 94.4504 89.4014C94.1588 88.8114 94.0129 88.1204 94.0129 87.3282C94.0129 86.546 94.1588 85.8566 94.4504 85.26C94.7454 84.6634 95.1564 84.1978 95.6834 83.863C96.2137 83.5283 96.8335 83.3609 97.5428 83.3609C97.9736 83.3609 98.3913 83.4321 98.7956 83.5747C99.2 83.7172 99.5629 83.9409 99.8844 84.2458C100.206 84.5508 100.459 84.9468 100.645 85.434C100.831 85.9179 100.923 86.5062 100.923 87.199V87.7259H94.8531V86.6123H99.4668C99.4668 86.2212 99.3872 85.8749 99.2281 85.5732C99.069 85.2683 98.8453 85.028 98.557 84.8524C98.2719 84.6767 97.9372 84.5889 97.5527 84.5889C97.1351 84.5889 96.7705 84.6916 96.459 84.8971C96.1507 85.0993 95.9121 85.3644 95.7431 85.6926C95.5773 86.0174 95.4945 86.3704 95.4945 86.7515V87.6215C95.4945 88.132 95.584 88.5661 95.7629 88.9241C95.9452 89.282 96.1988 89.5555 96.5236 89.7444C96.8484 89.93 97.2279 90.0228 97.6621 90.0228C97.9438 90.0228 98.2007 89.983 98.4327 89.9035C98.6647 89.8206 98.8652 89.698 99.0342 89.5356C99.2033 89.3732 99.3325 89.1727 99.422 88.934L100.829 89.1876C100.716 89.6019 100.514 89.9648 100.222 90.2764C99.9341 90.5846 99.5712 90.8249 99.1337 90.9972C98.6995 91.1663 98.204 91.2508 97.6472 91.2508ZM102.573 91.0967V83.4603H104.01V84.6734H104.089C104.228 84.2624 104.474 83.9392 104.825 83.7039C105.18 83.4653 105.581 83.346 106.028 83.346C106.121 83.346 106.23 83.3493 106.356 83.3559C106.485 83.3625 106.587 83.3708 106.659 83.3808V84.8026C106.6 84.7861 106.494 84.7678 106.341 84.748C106.189 84.7248 106.036 84.7132 105.884 84.7132C105.533 84.7132 105.219 84.7877 104.944 84.9369C104.672 85.0827 104.457 85.2865 104.298 85.5484C104.139 85.8069 104.059 86.1019 104.059 86.4333V91.0967H102.573ZM113.137 86.5626V91.0967H111.651V83.4603H113.078V84.7032H113.172C113.348 84.2989 113.623 83.974 113.997 83.7288C114.375 83.4835 114.851 83.3609 115.424 83.3609C115.945 83.3609 116.4 83.4703 116.792 83.689C117.183 83.9044 117.486 84.2259 117.701 84.6535C117.917 85.0811 118.024 85.6097 118.024 86.2394V91.0967H116.538V86.4184C116.538 85.8649 116.394 85.4324 116.105 85.1208C115.817 84.806 115.421 84.6485 114.917 84.6485C114.573 84.6485 114.266 84.7231 113.997 84.8722C113.732 85.0214 113.522 85.2401 113.366 85.5285C113.214 85.8135 113.137 86.1582 113.137 86.5626ZM124.855 87.9298V83.4603H126.347V91.0967H124.885V89.7742H124.806C124.63 90.1819 124.348 90.5216 123.961 90.7934C123.576 91.0619 123.097 91.1961 122.524 91.1961C122.033 91.1961 121.599 91.0884 121.221 90.873C120.847 90.6542 120.552 90.3311 120.336 89.9035C120.124 89.4759 120.018 88.9473 120.018 88.3176V83.4603H121.505V88.1386C121.505 88.6589 121.649 89.0732 121.937 89.3815C122.225 89.6897 122.6 89.8438 123.061 89.8438C123.339 89.8438 123.616 89.7742 123.891 89.635C124.169 89.4958 124.4 89.2854 124.582 89.0036C124.768 88.7219 124.859 88.364 124.855 87.9298ZM128.344 91.0967V83.4603H129.771V84.7032H129.866C130.025 84.2823 130.285 83.9542 130.646 83.7188C131.007 83.4802 131.44 83.3609 131.944 83.3609C132.454 83.3609 132.882 83.4802 133.226 83.7188C133.574 83.9575 133.831 84.2856 133.997 84.7032H134.077C134.259 84.2955 134.549 83.9707 134.947 83.7288C135.344 83.4835 135.818 83.3609 136.368 83.3609C137.061 83.3609 137.626 83.578 138.064 84.0122C138.505 84.4463 138.725 85.1009 138.725 85.9759V91.0967H137.238V86.1151C137.238 85.5981 137.098 85.2236 136.816 84.9916C136.534 84.7596 136.198 84.6436 135.807 84.6436C135.323 84.6436 134.947 84.7927 134.678 85.091C134.41 85.386 134.275 85.7655 134.275 86.2295V91.0967H132.794V86.0207C132.794 85.6064 132.665 85.2733 132.406 85.0214C132.148 84.7695 131.811 84.6436 131.397 84.6436C131.115 84.6436 130.855 84.7181 130.616 84.8673C130.381 85.0131 130.19 85.2169 130.045 85.4788C129.902 85.7406 129.831 86.0439 129.831 86.3886V91.0967H128.344ZM140.837 91.0967V80.9149H142.323V84.6982H142.413C142.499 84.5392 142.623 84.3552 142.785 84.1464C142.948 83.9376 143.173 83.7553 143.462 83.5995C143.75 83.4404 144.131 83.3609 144.605 83.3609C145.222 83.3609 145.772 83.5167 146.256 83.8282C146.74 84.1398 147.119 84.5889 147.394 85.1755C147.673 85.7622 147.812 86.4681 147.812 87.2934C147.812 88.1187 147.674 88.8263 147.399 89.4163C147.124 90.0029 146.746 90.4553 146.266 90.7735C145.785 91.0884 145.236 91.2458 144.62 91.2458C144.156 91.2458 143.776 91.1679 143.482 91.0122C143.19 90.8564 142.961 90.6741 142.795 90.4653C142.63 90.2565 142.502 90.0709 142.413 89.9085H142.288V91.0967H140.837ZM142.293 87.2785C142.293 87.8154 142.371 88.2861 142.527 88.6904C142.683 89.0948 142.908 89.4113 143.203 89.64C143.498 89.8654 143.859 89.9781 144.287 89.9781C144.731 89.9781 145.102 89.8604 145.401 89.6251C145.699 89.3865 145.924 89.0633 146.077 88.6556C146.232 88.248 146.31 87.7889 146.31 87.2785C146.31 86.7747 146.234 86.3223 146.082 85.9213C145.933 85.5202 145.707 85.2037 145.406 84.9717C145.107 84.7397 144.734 84.6237 144.287 84.6237C143.856 84.6237 143.491 84.7347 143.193 84.9568C142.898 85.1788 142.674 85.4887 142.522 85.8865C142.37 86.2842 142.293 86.7482 142.293 87.2785ZM152.772 91.2508C152.02 91.2508 151.372 91.0901 150.828 90.7686C150.288 90.4437 149.87 89.988 149.575 89.4014C149.284 88.8114 149.138 88.1204 149.138 87.3282C149.138 86.546 149.284 85.8566 149.575 85.26C149.87 84.6634 150.281 84.1978 150.808 83.863C151.339 83.5283 151.958 83.3609 152.668 83.3609C153.099 83.3609 153.516 83.4321 153.921 83.5747C154.325 83.7172 154.688 83.9409 155.009 84.2458C155.331 84.5508 155.584 84.9468 155.77 85.434C155.956 85.9179 156.048 86.5062 156.048 87.199V87.7259H149.978V86.6123H154.592C154.592 86.2212 154.512 85.8749 154.353 85.5732C154.194 85.2683 153.97 85.028 153.682 84.8524C153.397 84.6767 153.062 84.5889 152.678 84.5889C152.26 84.5889 151.896 84.6916 151.584 84.8971C151.276 85.0993 151.037 85.3644 150.868 85.6926C150.702 86.0174 150.619 86.3704 150.619 86.7515V87.6215C150.619 88.132 150.709 88.5661 150.888 88.9241C151.07 89.282 151.324 89.5555 151.649 89.7444C151.973 89.93 152.353 90.0228 152.787 90.0228C153.069 90.0228 153.326 89.983 153.558 89.9035C153.79 89.8206 153.99 89.698 154.159 89.5356C154.328 89.3732 154.458 89.1727 154.547 88.934L155.954 89.1876C155.841 89.6019 155.639 89.9648 155.347 90.2764C155.059 90.5846 154.696 90.8249 154.259 90.9972C153.824 91.1663 153.329 91.2508 152.772 91.2508ZM157.698 91.0967V83.4603H159.135V84.6734H159.214C159.353 84.2624 159.599 83.9392 159.95 83.7039C160.305 83.4653 160.706 83.346 161.153 83.346C161.246 83.346 161.355 83.3493 161.481 83.3559C161.61 83.3625 161.712 83.3708 161.784 83.3808V84.8026C161.725 84.7861 161.619 84.7678 161.466 84.748C161.314 84.7248 161.161 84.7132 161.009 84.7132C160.658 84.7132 160.344 84.7877 160.069 84.9369C159.797 85.0827 159.582 85.2865 159.423 85.5484C159.264 85.8069 159.184 86.1019 159.184 86.4333V91.0967H157.698Z" fill="#97A3B7"/>
<rect x="33.927" y="69.5967" width="245" height="33" rx="3.5" stroke="#1C222B"/>
<rect x="33.427" y="115.097" width="246.932" height="37" rx="4" fill="#F1F2F5"/>
<rect x="33.427" y="164.097" width="246.932" height="37" rx="4" fill="#F1F2F5"/>
<rect x="33.427" y="213.097" width="246.932" height="37" rx="4" fill="#F1F2F5"/>
<rect x="19.9778" y="15.5799" width="273.831" height="269.831" rx="8.77124" stroke="#00424D" stroke-width="1.1695" shape-rendering="crispEdges"/>
</g>
<g filter="url(#filter1_d_316_8042)">
<rect x="124.393" y="120.995" width="205" height="34" rx="4" fill="white" shape-rendering="crispEdges"/>
<path d="M135.518 132.331H145.483C145.571 132.331 145.643 132.259 145.643 132.17V131.045C145.643 130.957 145.571 130.885 145.483 130.885H135.518C135.43 130.885 135.358 130.957 135.358 131.045V132.17C135.358 132.259 135.43 132.331 135.518 132.331ZM135.518 140.849H145.483C145.571 140.849 145.643 140.777 145.643 140.688V139.563C145.643 139.475 145.571 139.403 145.483 139.403H135.518C135.43 139.403 135.358 139.475 135.358 139.563V140.688C135.358 140.777 135.43 140.849 135.518 140.849ZM151.268 143.662H135.518C135.43 143.662 135.358 143.734 135.358 143.822V144.947C135.358 145.036 135.43 145.108 135.518 145.108H151.268C151.357 145.108 151.429 145.036 151.429 144.947V143.822C151.429 143.734 151.357 143.662 151.268 143.662ZM151.268 135.144H135.518C135.43 135.144 135.358 135.216 135.358 135.304V136.429C135.358 136.518 135.43 136.59 135.518 136.59H151.268C151.357 136.59 151.429 136.518 151.429 136.429V135.304C151.429 135.216 151.357 135.144 151.268 135.144Z" fill="#4B5B76"/>
<path d="M163.512 142.995V132.813H167.141C167.933 132.813 168.589 132.957 169.11 133.246C169.63 133.534 170.019 133.929 170.278 134.429C170.537 134.926 170.666 135.486 170.666 136.109C170.666 136.736 170.535 137.299 170.273 137.8C170.015 138.297 169.623 138.691 169.1 138.983C168.579 139.271 167.925 139.416 167.136 139.416H164.64V138.113H166.997C167.497 138.113 167.903 138.027 168.215 137.854C168.526 137.679 168.755 137.44 168.901 137.139C169.047 136.837 169.12 136.494 169.12 136.109C169.12 135.725 169.047 135.384 168.901 135.085C168.755 134.787 168.525 134.553 168.21 134.384C167.898 134.215 167.487 134.131 166.977 134.131H165.048V142.995H163.512ZM174.501 143.164C174.017 143.164 173.58 143.075 173.189 142.896C172.798 142.713 172.488 142.45 172.259 142.105C172.034 141.761 171.921 141.338 171.921 140.837C171.921 140.407 172.004 140.052 172.17 139.774C172.335 139.495 172.559 139.275 172.841 139.112C173.123 138.95 173.437 138.827 173.785 138.744C174.133 138.662 174.488 138.599 174.849 138.555C175.307 138.502 175.678 138.459 175.963 138.426C176.248 138.39 176.455 138.332 176.584 138.252C176.714 138.173 176.778 138.043 176.778 137.864V137.83C176.778 137.395 176.656 137.059 176.41 136.82C176.169 136.582 175.807 136.462 175.327 136.462C174.826 136.462 174.432 136.573 174.143 136.796C173.858 137.014 173.661 137.258 173.552 137.526L172.155 137.208C172.321 136.744 172.562 136.37 172.881 136.085C173.202 135.796 173.572 135.587 173.989 135.458C174.407 135.326 174.846 135.259 175.307 135.259C175.612 135.259 175.935 135.296 176.276 135.369C176.621 135.438 176.942 135.568 177.241 135.756C177.542 135.945 177.789 136.216 177.981 136.567C178.174 136.915 178.27 137.367 178.27 137.924V142.995H176.818V141.951H176.758C176.662 142.143 176.518 142.332 176.326 142.518C176.134 142.703 175.887 142.858 175.585 142.98C175.284 143.103 174.922 143.164 174.501 143.164ZM174.825 141.971C175.236 141.971 175.587 141.89 175.879 141.727C176.173 141.565 176.397 141.353 176.55 141.091C176.705 140.826 176.783 140.542 176.783 140.241V139.256C176.73 139.31 176.628 139.359 176.475 139.406C176.326 139.449 176.155 139.487 175.963 139.52C175.771 139.55 175.584 139.578 175.401 139.604C175.219 139.628 175.066 139.648 174.944 139.664C174.655 139.701 174.392 139.762 174.153 139.848C173.918 139.934 173.729 140.059 173.587 140.221C173.447 140.38 173.378 140.592 173.378 140.857C173.378 141.225 173.514 141.504 173.785 141.693C174.057 141.878 174.404 141.971 174.825 141.971ZM180.25 142.995V135.359H181.687V136.572H181.766C181.905 136.161 182.151 135.838 182.502 135.602C182.857 135.364 183.258 135.244 183.705 135.244C183.798 135.244 183.907 135.248 184.033 135.254C184.162 135.261 184.264 135.269 184.336 135.279V136.701C184.277 136.685 184.171 136.666 184.018 136.646C183.866 136.623 183.713 136.612 183.561 136.612C183.21 136.612 182.896 136.686 182.621 136.835C182.349 136.981 182.134 137.185 181.975 137.447C181.816 137.705 181.736 138 181.736 138.332V142.995H180.25ZM187.777 143.164C187.293 143.164 186.855 143.075 186.464 142.896C186.073 142.713 185.763 142.45 185.535 142.105C185.309 141.761 185.197 141.338 185.197 140.837C185.197 140.407 185.279 140.052 185.445 139.774C185.611 139.495 185.835 139.275 186.116 139.112C186.398 138.95 186.713 138.827 187.061 138.744C187.409 138.662 187.764 138.599 188.125 138.555C188.582 138.502 188.953 138.459 189.238 138.426C189.523 138.39 189.731 138.332 189.86 138.252C189.989 138.173 190.054 138.043 190.054 137.864V137.83C190.054 137.395 189.931 137.059 189.686 136.82C189.444 136.582 189.083 136.462 188.602 136.462C188.102 136.462 187.707 136.573 187.419 136.796C187.134 137.014 186.937 137.258 186.827 137.526L185.43 137.208C185.596 136.744 185.838 136.37 186.156 136.085C186.478 135.796 186.847 135.587 187.265 135.458C187.682 135.326 188.121 135.259 188.582 135.259C188.887 135.259 189.21 135.296 189.552 135.369C189.896 135.438 190.218 135.568 190.516 135.756C190.818 135.945 191.065 136.216 191.257 136.567C191.449 136.915 191.545 137.367 191.545 137.924V142.995H190.094V141.951H190.034C189.938 142.143 189.794 142.332 189.601 142.518C189.409 142.703 189.162 142.858 188.861 142.98C188.559 143.103 188.198 143.164 187.777 143.164ZM188.1 141.971C188.511 141.971 188.862 141.89 189.154 141.727C189.449 141.565 189.673 141.353 189.825 141.091C189.981 140.826 190.059 140.542 190.059 140.241V139.256C190.006 139.31 189.903 139.359 189.75 139.406C189.601 139.449 189.431 139.487 189.238 139.52C189.046 139.55 188.859 139.578 188.677 139.604C188.494 139.628 188.342 139.648 188.219 139.664C187.931 139.701 187.667 139.762 187.429 139.848C187.193 139.934 187.005 140.059 186.862 140.221C186.723 140.38 186.653 140.592 186.653 140.857C186.653 141.225 186.789 141.504 187.061 141.693C187.333 141.878 187.679 141.971 188.1 141.971ZM196.727 146.018C196.12 146.018 195.598 145.938 195.161 145.779C194.727 145.62 194.372 145.41 194.097 145.148C193.822 144.886 193.616 144.599 193.48 144.288L194.758 143.761C194.848 143.907 194.967 144.061 195.116 144.223C195.269 144.389 195.474 144.53 195.733 144.646C195.994 144.762 196.331 144.82 196.742 144.82C197.305 144.82 197.771 144.682 198.139 144.407C198.507 144.135 198.691 143.701 198.691 143.104V141.603H198.596C198.507 141.765 198.377 141.946 198.208 142.145C198.043 142.344 197.814 142.516 197.522 142.662C197.231 142.808 196.851 142.881 196.384 142.881C195.781 142.881 195.237 142.74 194.753 142.458C194.273 142.173 193.891 141.754 193.61 141.2C193.331 140.644 193.192 139.959 193.192 139.147C193.192 138.335 193.33 137.639 193.605 137.059C193.883 136.479 194.264 136.035 194.748 135.727C195.232 135.415 195.781 135.259 196.394 135.259C196.868 135.259 197.251 135.339 197.542 135.498C197.834 135.654 198.061 135.836 198.223 136.045C198.389 136.254 198.517 136.438 198.606 136.597H198.716V135.359H200.172V143.164C200.172 143.82 200.02 144.359 199.715 144.78C199.41 145.201 198.997 145.512 198.477 145.715C197.96 145.917 197.376 146.018 196.727 146.018ZM196.712 141.648C197.14 141.648 197.501 141.548 197.796 141.35C198.094 141.147 198.319 140.859 198.472 140.484C198.628 140.107 198.706 139.654 198.706 139.127C198.706 138.613 198.629 138.161 198.477 137.77C198.324 137.379 198.101 137.074 197.806 136.855C197.511 136.633 197.146 136.522 196.712 136.522C196.265 136.522 195.892 136.638 195.593 136.87C195.295 137.099 195.07 137.41 194.917 137.805C194.768 138.199 194.693 138.64 194.693 139.127C194.693 139.628 194.77 140.067 194.922 140.445C195.075 140.823 195.3 141.118 195.598 141.33C195.9 141.542 196.271 141.648 196.712 141.648ZM202.166 142.995V135.359H203.603V136.572H203.682C203.821 136.161 204.067 135.838 204.418 135.602C204.773 135.364 205.174 135.244 205.621 135.244C205.714 135.244 205.823 135.248 205.949 135.254C206.078 135.261 206.18 135.269 206.252 135.279V136.701C206.193 136.685 206.087 136.666 205.934 136.646C205.782 136.623 205.629 136.612 205.477 136.612C205.126 136.612 204.812 136.686 204.537 136.835C204.265 136.981 204.05 137.185 203.891 137.447C203.732 137.705 203.652 138 203.652 138.332V142.995H202.166ZM209.693 143.164C209.209 143.164 208.771 143.075 208.38 142.896C207.989 142.713 207.679 142.45 207.451 142.105C207.225 141.761 207.113 141.338 207.113 140.837C207.113 140.407 207.195 140.052 207.361 139.774C207.527 139.495 207.751 139.275 208.032 139.112C208.314 138.95 208.629 138.827 208.977 138.744C209.325 138.662 209.68 138.599 210.041 138.555C210.498 138.502 210.869 138.459 211.154 138.426C211.439 138.39 211.647 138.332 211.776 138.252C211.905 138.173 211.97 138.043 211.97 137.864V137.83C211.97 137.395 211.847 137.059 211.602 136.82C211.36 136.582 210.999 136.462 210.518 136.462C210.018 136.462 209.623 136.573 209.335 136.796C209.05 137.014 208.853 137.258 208.743 137.526L207.346 137.208C207.512 136.744 207.754 136.37 208.072 136.085C208.394 135.796 208.763 135.587 209.181 135.458C209.598 135.326 210.037 135.259 210.498 135.259C210.803 135.259 211.126 135.296 211.468 135.369C211.812 135.438 212.134 135.568 212.432 135.756C212.734 135.945 212.981 136.216 213.173 136.567C213.365 136.915 213.461 137.367 213.461 137.924V142.995H212.01V141.951H211.95C211.854 142.143 211.71 142.332 211.517 142.518C211.325 142.703 211.078 142.858 210.777 142.98C210.475 143.103 210.114 143.164 209.693 143.164ZM210.016 141.971C210.427 141.971 210.778 141.89 211.07 141.727C211.365 141.565 211.589 141.353 211.741 141.091C211.897 140.826 211.975 140.542 211.975 140.241V139.256C211.922 139.31 211.819 139.359 211.667 139.406C211.517 139.449 211.347 139.487 211.154 139.52C210.962 139.55 210.775 139.578 210.593 139.604C210.41 139.628 210.258 139.648 210.135 139.664C209.847 139.701 209.583 139.762 209.345 139.848C209.109 139.934 208.921 140.059 208.778 140.221C208.639 140.38 208.569 140.592 208.569 140.857C208.569 141.225 208.705 141.504 208.977 141.693C209.249 141.878 209.595 141.971 210.016 141.971ZM215.441 145.859V135.359H216.893V136.597H217.017C217.103 136.438 217.228 136.254 217.39 136.045C217.552 135.836 217.778 135.654 218.066 135.498C218.355 135.339 218.736 135.259 219.21 135.259C219.826 135.259 220.376 135.415 220.86 135.727C221.344 136.038 221.724 136.487 221.999 137.074C222.277 137.661 222.416 138.367 222.416 139.192C222.416 140.017 222.279 140.725 222.004 141.315C221.729 141.901 221.351 142.354 220.87 142.672C220.39 142.987 219.841 143.144 219.225 143.144C218.761 143.144 218.381 143.066 218.086 142.911C217.794 142.755 217.566 142.573 217.4 142.364C217.234 142.155 217.107 141.969 217.017 141.807H216.928V145.859H215.441ZM216.898 139.177C216.898 139.714 216.976 140.185 217.132 140.589C217.287 140.993 217.513 141.31 217.808 141.538C218.103 141.764 218.464 141.877 218.891 141.877C219.336 141.877 219.707 141.759 220.005 141.524C220.303 141.285 220.529 140.962 220.681 140.554C220.837 140.146 220.915 139.687 220.915 139.177C220.915 138.673 220.839 138.221 220.686 137.82C220.537 137.419 220.312 137.102 220.01 136.87C219.712 136.638 219.339 136.522 218.891 136.522C218.461 136.522 218.096 136.633 217.798 136.855C217.503 137.077 217.279 137.387 217.127 137.785C216.974 138.183 216.898 138.647 216.898 139.177ZM225.568 138.461V142.995H224.082V132.813H225.548V136.602H225.643C225.822 136.191 226.095 135.864 226.463 135.622C226.831 135.38 227.312 135.259 227.905 135.259C228.429 135.259 228.886 135.367 229.277 135.582C229.672 135.798 229.976 136.119 230.192 136.547C230.411 136.971 230.52 137.502 230.52 138.138V142.995H229.034V138.317C229.034 137.757 228.889 137.323 228.601 137.014C228.313 136.703 227.912 136.547 227.398 136.547C227.047 136.547 226.732 136.622 226.453 136.771C226.178 136.92 225.961 137.139 225.802 137.427C225.646 137.712 225.568 138.057 225.568 138.461Z" fill="#97A3B7"/>
<rect x="124.893" y="121.495" width="204" height="33" rx="3.5" stroke="#13161B" shape-rendering="crispEdges"/>
</g>
<g filter="url(#filter2_d_316_8042)">
<rect x="124.393" y="170.995" width="205" height="34" rx="4" fill="white" shape-rendering="crispEdges"/>
<rect x="135.393" y="179.589" width="16" height="16" rx="2" fill="#4B5B76"/>
<path d="M142.498 192.193L142.481 192.211L138.081 187.811L139.514 186.378L142.498 189.363L147.272 184.589L148.705 186.022L142.516 192.211L142.498 192.193Z" fill="white"/>
<path d="M171.968 186.124H170.417C170.358 185.793 170.247 185.501 170.084 185.249C169.922 184.997 169.723 184.784 169.488 184.608C169.252 184.432 168.989 184.3 168.697 184.21C168.409 184.121 168.102 184.076 167.777 184.076C167.191 184.076 166.665 184.224 166.201 184.519C165.741 184.814 165.376 185.246 165.108 185.816C164.842 186.386 164.71 187.082 164.71 187.904C164.71 188.733 164.842 189.432 165.108 190.002C165.376 190.572 165.742 191.003 166.206 191.295C166.67 191.586 167.192 191.732 167.772 191.732C168.094 191.732 168.399 191.689 168.687 191.603C168.979 191.514 169.242 191.383 169.478 191.21C169.713 191.038 169.912 190.828 170.074 190.579C170.24 190.327 170.354 190.039 170.417 189.714L171.968 189.719C171.885 190.219 171.725 190.68 171.486 191.101C171.251 191.519 170.948 191.88 170.576 192.185C170.208 192.486 169.787 192.72 169.314 192.886C168.84 193.051 168.323 193.134 167.762 193.134C166.881 193.134 166.095 192.926 165.406 192.508C164.716 192.087 164.173 191.485 163.775 190.703C163.381 189.921 163.184 188.988 163.184 187.904C163.184 186.817 163.382 185.884 163.78 185.105C164.178 184.323 164.721 183.723 165.411 183.305C166.1 182.885 166.884 182.674 167.762 182.674C168.303 182.674 168.806 182.752 169.274 182.908C169.744 183.06 170.167 183.286 170.542 183.584C170.916 183.879 171.226 184.24 171.471 184.668C171.716 185.092 171.882 185.578 171.968 186.124ZM175.174 188.461V192.995H173.687V182.813H175.154V186.602H175.248C175.427 186.191 175.701 185.864 176.069 185.622C176.437 185.38 176.917 185.259 177.51 185.259C178.034 185.259 178.491 185.367 178.883 185.582C179.277 185.798 179.582 186.119 179.797 186.547C180.016 186.971 180.125 187.502 180.125 188.138V192.995H178.639V188.317C178.639 187.757 178.495 187.323 178.206 187.014C177.918 186.703 177.517 186.547 177.003 186.547C176.652 186.547 176.337 186.622 176.059 186.771C175.784 186.92 175.567 187.139 175.407 187.427C175.252 187.712 175.174 188.057 175.174 188.461ZM185.4 193.149C184.648 193.149 184 192.988 183.456 192.667C182.916 192.342 182.499 191.886 182.204 191.3C181.912 190.71 181.766 190.019 181.766 189.227C181.766 188.444 181.912 187.755 182.204 187.158C182.499 186.562 182.91 186.096 183.437 185.761C183.967 185.427 184.587 185.259 185.296 185.259C185.727 185.259 186.144 185.331 186.549 185.473C186.953 185.616 187.316 185.839 187.638 186.144C187.959 186.449 188.213 186.845 188.398 187.332C188.584 187.816 188.677 188.405 188.677 189.097V189.624H182.606V188.511H187.22C187.22 188.12 187.14 187.773 186.981 187.472C186.822 187.167 186.598 186.926 186.31 186.751C186.025 186.575 185.69 186.487 185.306 186.487C184.888 186.487 184.524 186.59 184.212 186.796C183.904 186.998 183.665 187.263 183.496 187.591C183.331 187.916 183.248 188.269 183.248 188.65V189.52C183.248 190.03 183.337 190.465 183.516 190.823C183.698 191.18 183.952 191.454 184.277 191.643C184.602 191.828 184.981 191.921 185.415 191.921C185.697 191.921 185.954 191.881 186.186 191.802C186.418 191.719 186.618 191.596 186.787 191.434C186.956 191.272 187.086 191.071 187.175 190.832L188.582 191.086C188.469 191.5 188.267 191.863 187.976 192.175C187.687 192.483 187.324 192.723 186.887 192.896C186.453 193.065 185.957 193.149 185.4 193.149ZM193.543 193.149C192.803 193.149 192.167 192.982 191.633 192.647C191.103 192.309 190.696 191.843 190.41 191.25C190.125 190.657 189.983 189.977 189.983 189.212C189.983 188.436 190.129 187.752 190.42 187.158C190.712 186.562 191.123 186.096 191.653 185.761C192.184 185.427 192.808 185.259 193.528 185.259C194.108 185.259 194.625 185.367 195.079 185.582C195.533 185.795 195.899 186.093 196.178 186.477C196.459 186.862 196.627 187.311 196.68 187.825H195.233C195.153 187.467 194.971 187.158 194.686 186.9C194.404 186.641 194.026 186.512 193.553 186.512C193.138 186.512 192.775 186.622 192.464 186.84C192.155 187.056 191.915 187.364 191.743 187.765C191.571 188.163 191.484 188.633 191.484 189.177C191.484 189.734 191.569 190.214 191.738 190.619C191.907 191.023 192.146 191.336 192.454 191.558C192.765 191.78 193.132 191.891 193.553 191.891C193.834 191.891 194.089 191.84 194.318 191.737C194.55 191.631 194.744 191.48 194.9 191.285C195.059 191.089 195.17 190.854 195.233 190.579H196.68C196.627 191.073 196.466 191.514 196.197 191.901C195.929 192.289 195.569 192.594 195.119 192.816C194.671 193.038 194.146 193.149 193.543 193.149ZM199.636 190.405L199.627 188.59H199.885L202.928 185.359H204.708L201.237 189.038H201.004L199.636 190.405ZM198.269 192.995V182.813H199.756V192.995H198.269ZM203.092 192.995L200.357 189.366L201.382 188.327L204.916 192.995H203.092ZM206.182 192.995V182.813H207.668V186.597H207.758C207.844 186.438 207.968 186.254 208.13 186.045C208.293 185.836 208.518 185.654 208.807 185.498C209.095 185.339 209.476 185.259 209.95 185.259C210.567 185.259 211.117 185.415 211.601 185.727C212.085 186.038 212.464 186.487 212.739 187.074C213.018 187.661 213.157 188.367 213.157 189.192C213.157 190.017 213.019 190.725 212.744 191.315C212.469 191.901 212.091 192.354 211.611 192.672C211.13 192.987 210.581 193.144 209.965 193.144C209.501 193.144 209.121 193.066 208.826 192.911C208.535 192.755 208.306 192.573 208.14 192.364C207.975 192.155 207.847 191.969 207.758 191.807H207.633V192.995H206.182ZM207.638 189.177C207.638 189.714 207.716 190.185 207.872 190.589C208.028 190.993 208.253 191.31 208.548 191.538C208.843 191.764 209.204 191.877 209.632 191.877C210.076 191.877 210.447 191.759 210.746 191.524C211.044 191.285 211.269 190.962 211.422 190.554C211.577 190.146 211.655 189.687 211.655 189.177C211.655 188.673 211.579 188.221 211.427 187.82C211.277 187.419 211.052 187.102 210.75 186.87C210.452 186.638 210.079 186.522 209.632 186.522C209.201 186.522 208.836 186.633 208.538 186.855C208.243 187.077 208.019 187.387 207.867 187.785C207.715 188.183 207.638 188.647 207.638 189.177ZM218.043 193.149C217.327 193.149 216.702 192.985 216.168 192.657C215.635 192.329 215.22 191.87 214.925 191.28C214.63 190.69 214.483 190.001 214.483 189.212C214.483 188.42 214.63 187.727 214.925 187.134C215.22 186.54 215.635 186.08 216.168 185.752C216.702 185.423 217.327 185.259 218.043 185.259C218.758 185.259 219.383 185.423 219.917 185.752C220.45 186.08 220.865 186.54 221.16 187.134C221.455 187.727 221.602 188.42 221.602 189.212C221.602 190.001 221.455 190.69 221.16 191.28C220.865 191.87 220.45 192.329 219.917 192.657C219.383 192.985 218.758 193.149 218.043 193.149ZM218.048 191.901C218.512 191.901 218.896 191.779 219.201 191.533C219.506 191.288 219.731 190.962 219.877 190.554C220.026 190.146 220.101 189.697 220.101 189.207C220.101 188.72 220.026 188.272 219.877 187.864C219.731 187.453 219.506 187.124 219.201 186.875C218.896 186.627 218.512 186.502 218.048 186.502C217.58 186.502 217.192 186.627 216.884 186.875C216.579 187.124 216.352 187.453 216.203 187.864C216.057 188.272 215.984 188.72 215.984 189.207C215.984 189.697 216.057 190.146 216.203 190.554C216.352 190.962 216.579 191.288 216.884 191.533C217.192 191.779 217.58 191.901 218.048 191.901ZM224.134 185.359L225.819 188.332L227.52 185.359H229.145L226.764 189.177L229.165 192.995H227.54L225.819 190.141L224.104 192.995H222.473L224.85 189.177L222.503 185.359H224.134Z" fill="#97A3B7"/>
<rect x="124.893" y="171.495" width="204" height="33" rx="3.5" stroke="#13161B" shape-rendering="crispEdges"/>
</g>
<g filter="url(#filter3_d_316_8042)">
<rect x="124.393" y="220.995" width="205" height="34" rx="4" fill="white" shape-rendering="crispEdges"/>
<path d="M143.393 230.12C139.044 230.12 135.518 233.646 135.518 237.995C135.518 242.344 139.044 245.87 143.393 245.87C147.742 245.87 151.268 242.344 151.268 237.995C151.268 233.646 147.742 230.12 143.393 230.12ZM146.636 236.338L143.507 240.662C143.494 240.68 143.477 240.694 143.458 240.704C143.438 240.715 143.416 240.72 143.394 240.72C143.372 240.72 143.35 240.715 143.33 240.704C143.311 240.694 143.294 240.68 143.281 240.662L140.152 236.338C140.085 236.244 140.152 236.114 140.266 236.114H141.09C141.27 236.114 141.44 236.2 141.546 236.346L143.393 238.902L145.242 236.346C145.348 236.2 145.517 236.114 145.698 236.114H146.522C146.636 236.114 146.703 236.244 146.636 236.338Z" fill="#4B5B76"/>
<path d="M166.808 242.995H163.512V232.813H166.912C167.91 232.813 168.767 233.017 169.483 233.425C170.198 233.829 170.747 234.411 171.128 235.17C171.513 235.926 171.705 236.832 171.705 237.889C171.705 238.95 171.511 239.861 171.123 240.624C170.739 241.386 170.182 241.973 169.453 242.384C168.724 242.791 167.842 242.995 166.808 242.995ZM165.048 241.653H166.723C167.499 241.653 168.144 241.507 168.657 241.215C169.171 240.92 169.555 240.494 169.811 239.938C170.066 239.377 170.193 238.695 170.193 237.889C170.193 237.091 170.066 236.413 169.811 235.856C169.559 235.299 169.183 234.877 168.682 234.588C168.182 234.3 167.56 234.156 166.818 234.156H165.048V241.653ZM173.496 242.995V235.359H174.933V236.572H175.012C175.151 236.161 175.397 235.838 175.748 235.602C176.103 235.364 176.504 235.244 176.951 235.244C177.044 235.244 177.153 235.248 177.279 235.254C177.409 235.261 177.51 235.269 177.583 235.279V236.701C177.523 236.685 177.417 236.666 177.264 236.646C177.112 236.623 176.959 236.612 176.807 236.612C176.456 236.612 176.142 236.686 175.867 236.835C175.596 236.981 175.38 237.185 175.221 237.447C175.062 237.705 174.982 238 174.982 238.332V242.995H173.496ZM181.812 243.149C181.096 243.149 180.471 242.985 179.938 242.657C179.404 242.329 178.99 241.87 178.695 241.28C178.4 240.69 178.252 240.001 178.252 239.212C178.252 238.42 178.4 237.727 178.695 237.134C178.99 236.54 179.404 236.08 179.938 235.752C180.471 235.423 181.096 235.259 181.812 235.259C182.528 235.259 183.153 235.423 183.686 235.752C184.22 236.08 184.634 236.54 184.929 237.134C185.224 237.727 185.372 238.42 185.372 239.212C185.372 240.001 185.224 240.69 184.929 241.28C184.634 241.87 184.22 242.329 183.686 242.657C183.153 242.985 182.528 243.149 181.812 243.149ZM181.817 241.901C182.281 241.901 182.666 241.779 182.97 241.533C183.275 241.288 183.501 240.962 183.647 240.554C183.796 240.146 183.87 239.697 183.87 239.207C183.87 238.72 183.796 238.272 183.647 237.864C183.501 237.453 183.275 237.124 182.97 236.875C182.666 236.627 182.281 236.502 181.817 236.502C181.35 236.502 180.962 236.627 180.654 236.875C180.349 237.124 180.122 237.453 179.973 237.864C179.827 238.272 179.754 238.72 179.754 239.207C179.754 239.697 179.827 240.146 179.973 240.554C180.122 240.962 180.349 241.288 180.654 241.533C180.962 241.779 181.35 241.901 181.817 241.901ZM187.031 245.859V235.359H188.483V236.597H188.607C188.693 236.438 188.817 236.254 188.98 236.045C189.142 235.836 189.368 235.654 189.656 235.498C189.944 235.339 190.326 235.259 190.799 235.259C191.416 235.259 191.966 235.415 192.45 235.727C192.934 236.038 193.313 236.487 193.589 237.074C193.867 237.661 194.006 238.367 194.006 239.192C194.006 240.017 193.869 240.725 193.594 241.315C193.318 241.901 192.941 242.354 192.46 242.672C191.979 242.987 191.431 243.144 190.814 243.144C190.35 243.144 189.971 243.066 189.676 242.911C189.384 242.755 189.156 242.573 188.99 242.364C188.824 242.155 188.697 241.969 188.607 241.807H188.518V245.859H187.031ZM188.488 239.177C188.488 239.714 188.566 240.185 188.721 240.589C188.877 240.993 189.103 241.31 189.398 241.538C189.692 241.764 190.054 241.877 190.481 241.877C190.925 241.877 191.297 241.759 191.595 241.524C191.893 241.285 192.119 240.962 192.271 240.554C192.427 240.146 192.505 239.687 192.505 239.177C192.505 238.673 192.429 238.221 192.276 237.82C192.127 237.419 191.902 237.102 191.6 236.87C191.302 236.638 190.929 236.522 190.481 236.522C190.05 236.522 189.686 236.633 189.388 236.855C189.093 237.077 188.869 237.387 188.716 237.785C188.564 238.183 188.488 238.647 188.488 239.177ZM198.53 243.144C197.914 243.144 197.364 242.987 196.88 242.672C196.399 242.354 196.021 241.901 195.746 241.315C195.474 240.725 195.339 240.017 195.339 239.192C195.339 238.367 195.476 237.661 195.751 237.074C196.03 236.487 196.411 236.038 196.895 235.727C197.379 235.415 197.927 235.259 198.54 235.259C199.014 235.259 199.395 235.339 199.684 235.498C199.975 235.654 200.201 235.836 200.36 236.045C200.522 236.254 200.648 236.438 200.738 236.597H200.827V232.813H202.314V242.995H200.862V241.807H200.738C200.648 241.969 200.519 242.155 200.35 242.364C200.184 242.573 199.956 242.755 199.664 242.911C199.372 243.066 198.994 243.144 198.53 243.144ZM198.858 241.877C199.286 241.877 199.647 241.764 199.942 241.538C200.241 241.31 200.466 240.993 200.618 240.589C200.774 240.185 200.852 239.714 200.852 239.177C200.852 238.647 200.776 238.183 200.623 237.785C200.471 237.387 200.247 237.077 199.952 236.855C199.657 236.633 199.293 236.522 198.858 236.522C198.411 236.522 198.038 236.638 197.74 236.87C197.442 237.102 197.216 237.419 197.064 237.82C196.915 238.221 196.84 238.673 196.84 239.177C196.84 239.687 196.916 240.146 197.069 240.554C197.221 240.962 197.447 241.285 197.745 241.524C198.046 241.759 198.418 241.877 198.858 241.877ZM207.652 243.149C206.936 243.149 206.311 242.985 205.778 242.657C205.244 242.329 204.83 241.87 204.535 241.28C204.24 240.69 204.092 240.001 204.092 239.212C204.092 238.42 204.24 237.727 204.535 237.134C204.83 236.54 205.244 236.08 205.778 235.752C206.311 235.423 206.936 235.259 207.652 235.259C208.368 235.259 208.993 235.423 209.526 235.752C210.06 236.08 210.474 236.54 210.769 237.134C211.064 237.727 211.212 238.42 211.212 239.212C211.212 240.001 211.064 240.69 210.769 241.28C210.474 241.87 210.06 242.329 209.526 242.657C208.993 242.985 208.368 243.149 207.652 243.149ZM207.657 241.901C208.121 241.901 208.505 241.779 208.81 241.533C209.115 241.288 209.341 240.962 209.486 240.554C209.636 240.146 209.71 239.697 209.71 239.207C209.71 238.72 209.636 238.272 209.486 237.864C209.341 237.453 209.115 237.124 208.81 236.875C208.505 236.627 208.121 236.502 207.657 236.502C207.19 236.502 206.802 236.627 206.494 236.875C206.189 237.124 205.962 237.453 205.812 237.864C205.667 238.272 205.594 238.72 205.594 239.207C205.594 239.697 205.667 240.146 205.812 240.554C205.962 240.962 206.189 241.288 206.494 241.533C206.802 241.779 207.19 241.901 207.657 241.901ZM214.294 242.995L212.047 235.359H213.583L215.08 240.967H215.154L216.655 235.359H218.192L219.683 240.942H219.758L221.244 235.359H222.78L220.538 242.995H219.022L217.471 237.482H217.356L215.805 242.995H214.294ZM225.678 238.461V242.995H224.191V235.359H225.618V236.602H225.712C225.888 236.197 226.163 235.872 226.538 235.627C226.916 235.382 227.391 235.259 227.965 235.259C228.485 235.259 228.941 235.369 229.332 235.587C229.723 235.803 230.026 236.124 230.242 236.552C230.457 236.979 230.565 237.508 230.565 238.138V242.995H229.078V238.317C229.078 237.763 228.934 237.331 228.646 237.019C228.357 236.704 227.961 236.547 227.458 236.547C227.113 236.547 226.806 236.622 226.538 236.771C226.273 236.92 226.062 237.139 225.906 237.427C225.754 237.712 225.678 238.057 225.678 238.461Z" fill="#97A3B7"/>
<rect x="124.893" y="221.495" width="204" height="33" rx="3.5" stroke="#13161B" shape-rendering="crispEdges"/>
</g>
<circle cx="431.598" cy="204.995" r="31.5" fill="#14C9C9" stroke="#13161B"/>
<g clip-path="url(#clip0_316_8042)" filter="url(#filter4_d_316_8042)">
<g filter="url(#filter5_d_316_8042)">
<path fill-rule="evenodd" clip-rule="evenodd" d="M430.015 203.411V189.953H433.182V203.411H446.64V206.578H433.182V220.036H430.015V206.578H416.557V203.411H430.015Z" fill="white"/>
</g>
</g>
<path fill-rule="evenodd" clip-rule="evenodd" d="M430.598 188.995C429.494 188.995 428.598 189.891 428.598 190.995V201.995H417.598C416.494 201.995 415.598 202.891 415.598 203.995V205.995C415.598 207.1 416.494 207.995 417.598 207.995H428.598V218.995C428.598 220.1 429.494 220.995 430.598 220.995H432.598C433.703 220.995 434.598 220.1 434.598 218.995V207.995H445.598C446.703 207.995 447.598 207.1 447.598 205.995V203.995C447.598 202.891 446.703 201.995 445.598 201.995H434.598V190.995C434.598 189.891 433.703 188.995 432.598 188.995H430.598Z" fill="white"/>
<path d="M341.63 190.884C348.201 188.91 351.67 181.224 353.422 175.111C355.385 168.161 357.694 162.471 354.894 155.231C354.258 153.569 353.232 151.885 351.548 151.349C351.127 151.289 350.722 151.149 350.354 150.937C350.061 150.647 349.843 150.291 349.718 149.899C345.725 140.484 334.424 140.227 325.946 141.555C321.037 142.324 314.668 144.567 313.139 149.609C310.339 158.902 312.704 169.008 317.858 177.04C322.677 184.593 331.791 193.896 341.63 190.884Z" fill="white"/>
<path d="M337.871 192.003C339.198 192.006 340.518 191.811 341.787 191.423C348.647 189.359 352.195 181.505 353.957 175.269C354.18 174.477 354.403 173.696 354.638 172.927C356.423 166.869 357.984 161.626 355.419 155.078C354.515 152.724 353.243 151.307 351.67 150.861L351.336 150.783C351.063 150.785 350.799 150.688 350.594 150.509C350.389 150.33 350.256 150.083 350.22 149.812C346.059 140.04 334.602 139.661 325.812 141.055C322.465 141.58 314.366 143.465 312.548 149.5C309.893 158.335 311.633 168.464 317.334 177.389C322.164 184.83 329.772 192.003 337.871 192.003ZM332.918 141.535C339.611 141.535 346.305 143.431 349.171 150.114C349.321 150.598 349.599 151.034 349.975 151.374C350.307 151.608 350.689 151.76 351.09 151.82L351.369 151.899C352.585 152.233 353.6 153.427 354.381 155.435C356.791 161.671 355.296 166.747 353.567 172.614C353.333 173.384 353.109 174.165 352.875 174.968C351.191 180.925 347.844 188.444 341.463 190.363C332.539 193.029 323.614 185.075 318.293 176.742C312.771 168.13 311.075 158.302 313.641 149.768C315.281 144.346 322.833 142.606 326.001 142.115C328.289 141.744 330.601 141.55 332.918 141.535Z" fill="#00424D"/>
<path d="M311.778 172.077C311.778 172.077 304.739 180.879 305.844 182.943C306.948 185.006 311.321 184.058 311.321 184.058" fill="white"/>
<path d="M309.235 184.873C309.984 184.873 310.731 184.799 311.466 184.65C311.614 184.62 311.744 184.533 311.828 184.407C311.911 184.282 311.942 184.128 311.912 183.98C311.882 183.832 311.795 183.702 311.67 183.619C311.544 183.535 311.391 183.504 311.243 183.534C310.127 183.757 307.104 184.047 306.368 182.664C305.788 181.548 308.978 176.495 312.247 172.401C312.34 172.285 312.384 172.137 312.369 171.989C312.355 171.841 312.283 171.704 312.169 171.609C312.05 171.52 311.902 171.479 311.755 171.496C311.608 171.512 311.472 171.585 311.377 171.698C309.67 173.84 304.192 180.968 305.386 183.188C306.078 184.56 307.829 184.873 309.235 184.873Z" fill="#00424D"/>
<path d="M314.232 159.808C309.993 162.664 310.518 169.58 310.15 174.009C309.636 180.234 309.265 186.473 309.034 192.728C308.889 196.688 319.074 197.703 321.004 196.688L317.992 212.138L340.18 205.847L341.128 187.786C341.128 187.786 334.435 187.217 331.088 178.861C327.742 170.506 329.114 158.112 329.114 158.112C329.114 158.112 318.371 157.008 314.232 159.808Z" fill="white"/>
<path d="M317.992 212.694H318.148L340.359 206.402C340.471 206.372 340.572 206.307 340.646 206.217C340.72 206.127 340.764 206.016 340.771 205.9L341.72 187.828C341.726 187.685 341.677 187.546 341.584 187.438C341.491 187.33 341.36 187.262 341.218 187.248C340.95 187.248 334.758 186.59 331.668 178.636C328.489 170.448 329.716 158.266 329.727 158.143C329.737 157.995 329.693 157.849 329.605 157.73C329.558 157.674 329.5 157.626 329.435 157.592C329.37 157.558 329.299 157.536 329.225 157.53C328.779 157.53 318.17 156.492 313.92 159.359C310.161 161.903 309.926 167.257 309.737 171.63C309.737 172.478 309.659 173.292 309.592 174.04C309.078 180.265 308.699 186.567 308.476 192.781C308.481 193.411 308.664 194.027 309.003 194.558C309.343 195.089 309.825 195.513 310.395 195.782C312.994 197.411 317.902 197.957 320.29 197.556L317.445 212.058C317.427 212.152 317.433 212.25 317.463 212.341C317.492 212.433 317.543 212.515 317.612 212.582C317.723 212.66 317.856 212.699 317.992 212.694ZM339.678 205.42L318.717 211.355L321.55 196.797C321.574 196.694 321.567 196.585 321.529 196.486C321.492 196.387 321.425 196.301 321.338 196.239C321.249 196.185 321.147 196.156 321.043 196.156C320.938 196.156 320.836 196.185 320.747 196.239C319.509 196.897 313.775 196.552 310.986 194.811C310.027 194.209 309.558 193.528 309.592 192.792C309.815 186.59 310.194 180.298 310.707 174.096C310.774 173.337 310.808 172.511 310.852 171.641C311.031 167.581 311.254 162.527 314.545 160.307C317.891 158.009 326.336 158.455 328.567 158.612C328.355 161.166 327.708 171.552 330.631 179.06C333.554 186.567 338.853 187.984 340.582 188.308L339.678 205.42Z" fill="#00424D"/>
<path d="M309.603 188.096C309.603 188.096 315.716 188.096 317.178 179.841L309.603 188.096Z" fill="white"/>
<path d="M309.603 188.654C309.67 188.654 316.207 188.554 317.735 179.942C317.758 179.796 317.723 179.647 317.638 179.526C317.552 179.405 317.423 179.322 317.278 179.295C317.133 179.269 316.984 179.301 316.863 179.385C316.741 179.468 316.658 179.596 316.631 179.741C315.281 187.416 309.826 187.55 309.603 187.55C309.455 187.55 309.313 187.609 309.209 187.713C309.104 187.818 309.045 187.96 309.045 188.108C309.048 188.254 309.108 188.393 309.212 188.495C309.317 188.597 309.457 188.654 309.603 188.654Z" fill="#00424D"/>
<path d="M323.358 177.164C323.676 175.626 324.413 174.205 325.488 173.059C326.194 172.065 327.044 171.181 328.01 170.438C328.494 170.068 329.055 169.811 329.651 169.685C330.248 169.56 330.864 169.569 331.457 169.712C331.959 169.895 332.417 170.181 332.801 170.552C333.185 170.923 333.487 171.37 333.688 171.865C334.089 172.867 334.26 173.946 334.19 175.022C334.084 177.377 333.36 179.661 332.088 181.646C330.817 183.63 329.045 185.243 326.95 186.323L327.318 185.977" fill="white"/>
<path d="M326.983 186.859C327.069 186.857 327.154 186.834 327.229 186.792C329.406 185.661 331.249 183.979 332.574 181.914C333.899 179.849 334.66 177.473 334.781 175.023C334.849 173.88 334.663 172.737 334.234 171.676C333.997 171.103 333.641 170.586 333.189 170.161C332.737 169.736 332.2 169.412 331.613 169.211C330.94 169.041 330.237 169.025 329.558 169.164C328.878 169.303 328.238 169.593 327.686 170.014C326.674 170.785 325.786 171.706 325.053 172.747C323.912 173.973 323.138 175.497 322.822 177.142C322.806 177.288 322.849 177.435 322.941 177.55C323.033 177.665 323.167 177.739 323.313 177.756C323.459 177.771 323.606 177.729 323.721 177.637C323.836 177.545 323.91 177.411 323.927 177.265C324.241 175.827 324.939 174.501 325.946 173.427C326.615 172.482 327.419 171.64 328.333 170.929C328.749 170.608 329.231 170.383 329.744 170.271C330.257 170.16 330.789 170.163 331.3 170.281C331.733 170.437 332.127 170.683 332.458 171.002C332.789 171.321 333.048 171.707 333.219 172.133C333.588 173.057 333.745 174.052 333.676 175.045C333.57 177.158 332.947 179.213 331.861 181.03C330.776 182.846 329.262 184.369 327.452 185.464C327.37 185.448 327.286 185.451 327.207 185.475C327.127 185.498 327.054 185.54 326.994 185.598L326.615 185.933C326.527 186.008 326.465 186.108 326.436 186.22C326.408 186.332 326.415 186.45 326.457 186.558C326.499 186.666 326.573 186.758 326.669 186.822C326.765 186.886 326.879 186.918 326.994 186.914L326.983 186.859Z" fill="#00424D"/>
<path d="M321.004 196.686C321.004 196.686 326.459 195.571 329.248 192.112C329.248 192.112 328.266 200.367 319.899 202.375L321.004 196.686Z" fill="#00424D"/>
<path d="M314.833 168.16C314.738 166.932 315.054 165.906 315.54 165.868C316.025 165.83 316.495 166.796 316.59 168.025C316.685 169.253 316.369 170.279 315.883 170.317C315.398 170.354 314.928 169.389 314.833 168.16Z" fill="#00424D"/>
<path d="M319.899 202.933H320.033C328.679 200.869 329.794 192.291 329.806 192.201C329.82 192.081 329.795 191.96 329.735 191.855C329.675 191.751 329.582 191.669 329.471 191.621C329.361 191.572 329.238 191.561 329.121 191.589C329.004 191.618 328.899 191.684 328.824 191.777C326.18 195.001 320.948 196.15 320.892 196.162C320.784 196.184 320.684 196.239 320.607 196.318C320.529 196.398 320.477 196.498 320.457 196.608L319.342 202.286C319.325 202.367 319.327 202.451 319.347 202.531C319.366 202.611 319.404 202.686 319.456 202.75C319.508 202.814 319.574 202.866 319.649 202.901C319.724 202.937 319.806 202.955 319.888 202.955L319.899 202.933ZM328.266 193.875C327.723 195.691 326.741 197.346 325.406 198.692C324.071 200.039 322.425 201.036 320.613 201.594L321.484 197.132C323.943 196.533 326.252 195.431 328.266 193.897V193.875Z" fill="#00424D"/>
<path d="M373.77 242.804L385.215 262.884L415.023 232.295C415.023 232.295 412.613 219.299 415.826 220.336C417.856 221.059 419.621 222.377 420.89 224.118C420.89 224.118 423.534 206.269 430.495 212.137C437.456 218.005 434.255 228.313 428.978 238.219C425.063 245.57 390.269 299.195 380.619 297.042C370.97 294.889 348.056 246.184 348.056 246.184L373.77 242.804Z" fill="white"/>
<path d="M381.155 297.644C392.121 297.644 425.978 245.035 429.469 238.52C433.865 230.254 438.795 218.44 430.853 211.747C429.38 210.497 427.952 210.118 426.602 210.631C422.943 212.014 421.136 219.79 420.556 222.902C419.319 221.523 417.748 220.486 415.993 219.89C415.757 219.797 415.499 219.772 415.249 219.818C414.999 219.863 414.766 219.977 414.577 220.147C412.714 221.787 414.019 229.919 414.42 232.195L385.338 261.946L374.249 242.502C374.195 242.406 374.113 242.327 374.013 242.278C373.914 242.228 373.802 242.209 373.692 242.223L348.034 245.57C347.947 245.581 347.863 245.613 347.791 245.663C347.719 245.714 347.661 245.782 347.621 245.86C347.583 245.938 347.563 246.024 347.563 246.111C347.563 246.198 347.583 246.284 347.621 246.362C348.569 248.359 370.78 295.346 380.575 297.521C380.764 297.581 380.958 297.622 381.155 297.644ZM427.796 211.49C428.684 211.572 429.515 211.967 430.139 212.606C435.716 217.335 435.192 225.412 428.476 238.007C424.226 245.994 389.7 298.525 380.742 296.551C372.085 294.621 351.738 252.62 348.882 246.686L373.424 243.451L384.691 263.207C384.734 263.282 384.794 263.346 384.865 263.394C384.937 263.442 385.018 263.474 385.104 263.486C385.19 263.498 385.277 263.489 385.359 263.46C385.44 263.431 385.514 263.382 385.572 263.319L415.38 232.73C415.441 232.665 415.485 232.587 415.511 232.502C415.536 232.417 415.541 232.327 415.525 232.239C414.766 228.123 414.175 221.909 415.268 220.95C415.268 220.95 415.391 220.849 415.614 220.95C417.521 221.641 419.182 222.878 420.389 224.508C420.454 224.601 420.544 224.672 420.649 224.714C420.754 224.755 420.869 224.766 420.98 224.743C421.088 224.717 421.186 224.66 421.262 224.579C421.337 224.497 421.387 224.395 421.404 224.285C421.861 221.195 423.735 212.929 426.982 211.724C427.236 211.595 427.512 211.515 427.796 211.49Z" fill="#00424D"/>
<path d="M281.056 329.994L288.274 297.175L360.26 316.485C360.26 316.485 360.115 321.873 359.914 329.972L281.056 329.994Z" fill="#00424D"/>
<path d="M286.578 233.8C286.578 233.8 263.508 227.821 254.863 222.745C245.381 217.167 227.521 181.938 221.72 173.181C218.571 168.345 216.231 163.029 214.792 157.441C214.123 154.942 213.811 153.135 215.06 150.747C215.317 150.245 219.411 145.761 219.6 146.285C218.485 143.15 217.369 140.172 216.187 137.071C215.874 136.212 215.64 135.13 216.298 134.505C216.587 134.28 216.942 134.157 217.308 134.157C217.674 134.157 218.029 134.28 218.317 134.505C218.899 134.951 219.372 135.523 219.701 136.178L229.183 152.621C229.107 150.591 229.516 148.572 230.376 146.731C230.512 146.362 230.757 146.043 231.079 145.817C232.117 145.236 233.121 146.653 233.444 147.791C235.129 153.726 233.913 160.877 237.549 166.131C240.316 170.124 264.892 199.597 264.892 199.597L286.578 205.175" fill="white"/>
<path d="M286.578 234.359C286.726 234.379 286.875 234.338 286.993 234.247C287.112 234.156 287.189 234.022 287.208 233.874C287.227 233.726 287.187 233.577 287.096 233.459C287.005 233.34 286.871 233.263 286.723 233.244C286.489 233.188 263.62 227.242 255.142 222.256C248.281 218.217 236.623 197.792 228.904 184.271C226.115 179.396 223.716 175.179 222.21 172.87C219.1 168.069 216.79 162.795 215.372 157.252C214.736 154.91 214.402 153.203 215.595 150.916C216.788 149.42 218.118 148.038 219.567 146.789C219.648 146.805 219.731 146.805 219.812 146.789C219.951 146.738 220.065 146.635 220.13 146.502C220.194 146.368 220.204 146.215 220.158 146.075C219.477 144.067 218.719 142.092 217.994 140.173C217.57 139.058 217.157 137.942 216.744 136.827C216.331 135.711 216.365 135.187 216.744 134.863C216.936 134.721 217.169 134.644 217.408 134.644C217.647 134.644 217.88 134.721 218.072 134.863C218.571 135.277 218.975 135.795 219.254 136.38L228.77 152.857C228.831 152.966 228.927 153.051 229.043 153.098C229.158 153.144 229.286 153.15 229.406 153.114C229.502 153.072 229.585 153.003 229.644 152.917C229.703 152.83 229.737 152.728 229.74 152.623C229.676 150.702 230.057 148.793 230.856 147.045C230.95 146.785 231.117 146.557 231.336 146.387C231.397 146.352 231.466 146.333 231.536 146.333C231.607 146.333 231.676 146.352 231.737 146.387C232.308 146.778 232.707 147.373 232.853 148.049C233.427 150.317 233.8 152.632 233.968 154.966C234.336 158.982 234.727 163.143 237.092 166.545C239.836 170.528 263.464 198.807 264.468 200.012C264.542 200.101 264.644 200.164 264.758 200.19L286.444 205.768C286.587 205.802 286.738 205.779 286.865 205.704C286.992 205.63 287.085 205.508 287.124 205.366C287.143 205.295 287.147 205.221 287.137 205.148C287.127 205.076 287.102 205.006 287.065 204.943C287.028 204.879 286.978 204.824 286.919 204.78C286.861 204.736 286.794 204.704 286.723 204.686L265.204 199.108C263.385 196.877 240.662 169.657 238.007 165.865C235.776 162.696 235.441 158.68 235.073 154.809C234.917 152.404 234.544 150.019 233.957 147.681C233.839 147.18 233.619 146.71 233.31 146.299C233.001 145.888 232.609 145.546 232.161 145.294C231.941 145.2 231.703 145.16 231.464 145.175C231.226 145.191 230.995 145.262 230.789 145.383C230.361 145.64 230.031 146.032 229.852 146.499C229.236 147.816 228.84 149.225 228.681 150.671L220.158 135.89C219.785 135.152 219.247 134.511 218.585 134.016C218.187 133.725 217.705 133.574 217.212 133.586C216.72 133.598 216.246 133.772 215.863 134.082C215.171 134.741 215.082 135.812 215.617 137.251C216.03 138.366 216.454 139.482 216.878 140.597C217.536 142.338 218.217 144.134 218.853 145.952C217.244 147.269 215.792 148.766 214.524 150.414C213.152 153.047 213.531 155.033 214.212 157.554C215.669 163.196 218.031 168.564 221.206 173.45C222.724 175.737 225.111 179.932 227.9 184.784C236.144 199.22 247.422 218.998 254.55 223.182C263.151 228.246 285.462 234.047 286.41 234.337L286.578 234.359Z" fill="#00424D"/>
<path d="M266.554 197.245C266.554 197.245 348.458 195.516 358.855 210.219C366.946 222.421 373.721 235.445 379.068 249.074L364.343 262.84C364.408 282.308 363.417 301.766 361.376 321.127C335.997 325.59 283.421 305.287 283.867 305.086L290.56 237.037L259.213 227.354L266.554 197.245Z" fill="#0FBFC4"/>
<path d="M365.302 257.73C365.376 257.727 365.448 257.71 365.514 257.679C365.581 257.648 365.641 257.605 365.69 257.551C365.74 257.497 365.779 257.434 365.804 257.365C365.829 257.296 365.841 257.223 365.838 257.15C365.838 255.923 364.867 226.885 360.885 216.733C360.859 216.664 360.82 216.601 360.769 216.548C360.718 216.494 360.657 216.452 360.589 216.423C360.521 216.393 360.448 216.378 360.375 216.378C360.301 216.378 360.228 216.392 360.16 216.421C360.091 216.446 360.028 216.484 359.975 216.534C359.921 216.584 359.879 216.644 359.849 216.711C359.82 216.778 359.805 216.85 359.805 216.923C359.804 216.996 359.819 217.068 359.847 217.135C363.752 227.108 364.711 256.893 364.722 257.183C364.728 257.332 364.792 257.473 364.901 257.575C365.009 257.678 365.153 257.733 365.302 257.73Z" fill="#00424D"/>
<path d="M301.772 240.517C301.893 240.519 302.011 240.48 302.108 240.408C302.205 240.335 302.275 240.232 302.307 240.115C302.345 239.972 302.325 239.819 302.253 239.69C302.18 239.561 302.059 239.465 301.917 239.424L278.769 232.842C278.621 232.8 278.463 232.819 278.329 232.895C278.195 232.97 278.096 233.095 278.055 233.243C278.014 233.391 278.033 233.55 278.108 233.684C278.183 233.817 278.309 233.916 278.457 233.957L301.615 240.539C301.669 240.543 301.722 240.535 301.772 240.517Z" fill="#00424D"/>
<path d="M431.393 166.995C431.393 163.795 431.393 141.995 431.393 131.495" stroke="#BCC4D0" stroke-width="2" stroke-linecap="round" stroke-dasharray="4 4"/>
<path d="M431.393 279.495C431.393 276.295 431.393 254.495 431.393 243.995" stroke="#BCC4D0" stroke-width="2" stroke-linecap="round" stroke-dasharray="4 4"/>
<g filter="url(#filter6_d_316_8042)">
<rect x="414.393" y="92.9951" width="34" height="34" rx="4" fill="white" shape-rendering="crispEdges"/>
<path d="M424.362 116.464C424.362 116.775 424.613 117.026 424.924 117.026H437.862C438.173 117.026 438.424 116.775 438.424 116.464V109.081H424.362V116.464ZM437.862 104.229H434.909V103.104C434.909 103.027 434.845 102.964 434.768 102.964H433.784C433.706 102.964 433.643 103.027 433.643 103.104V104.229H429.143V103.104C429.143 103.027 429.08 102.964 429.002 102.964H428.018C427.941 102.964 427.877 103.027 427.877 103.104V104.229H424.924C424.613 104.229 424.362 104.481 424.362 104.792V107.886H438.424V104.792C438.424 104.481 438.173 104.229 437.862 104.229Z" fill="#4B5B76"/>
<rect x="414.893" y="93.4951" width="33" height="33" rx="3.5" stroke="#1C222B" shape-rendering="crispEdges"/>
</g>
<g filter="url(#filter7_d_316_8042)">
<rect x="414.393" y="285.995" width="34" height="34" rx="4" fill="white" shape-rendering="crispEdges"/>
<path d="M439.589 301.067H433.482C433.394 301.067 433.321 301.139 433.321 301.227V303.477C433.321 303.566 433.394 303.638 433.482 303.638H434.446C434.535 303.638 434.607 303.566 434.607 303.477V302.352H435.813V308.781H434.888C434.8 308.781 434.728 308.853 434.728 308.942V309.906C434.728 309.994 434.8 310.067 434.888 310.067H438.183C438.271 310.067 438.344 309.994 438.344 309.906V308.942C438.344 308.853 438.271 308.781 438.183 308.781H437.259V302.352H438.464V303.477C438.464 303.566 438.537 303.638 438.625 303.638H439.589C439.678 303.638 439.75 303.566 439.75 303.477V301.227C439.75 301.139 439.678 301.067 439.589 301.067ZM434.286 298.656V296.085C434.286 295.996 434.213 295.924 434.125 295.924H423.196C423.108 295.924 423.036 295.996 423.036 296.085V298.656C423.036 298.744 423.108 298.817 423.196 298.817H424.321C424.41 298.817 424.482 298.744 424.482 298.656V297.37H427.857V308.62H426.009C425.921 308.62 425.848 308.693 425.848 308.781V309.906C425.848 309.994 425.921 310.067 426.009 310.067H431.313C431.401 310.067 431.473 309.994 431.473 309.906V308.781C431.473 308.693 431.401 308.62 431.313 308.62H429.464V297.37H432.839V298.656C432.839 298.744 432.912 298.817 433 298.817H434.125C434.213 298.817 434.286 298.744 434.286 298.656Z" fill="#4B5B76"/>
<rect x="414.893" y="286.495" width="33" height="33" rx="3.5" stroke="#1C222B" shape-rendering="crispEdges"/>
</g>
<g filter="url(#filter8_d_316_8042)">
<rect x="508.393" y="187.995" width="34" height="34" rx="4" fill="white" shape-rendering="crispEdges"/>
<circle cx="525.393" cy="204.995" r="8" fill="#E6F7FF"/>
<path d="M517.893 204.995C517.893 200.853 521.251 197.495 525.393 197.495C529.535 197.495 532.893 200.853 532.893 204.995C532.893 209.137 529.535 212.495 525.393 212.495C521.251 212.495 517.893 209.137 517.893 204.995Z" fill="white" stroke="#4B5B76"/>
<rect x="521.393" y="200.995" width="8" height="8" rx="4" fill="#4B5B76"/>
<rect x="508.893" y="188.495" width="33" height="33" rx="3.5" stroke="#1C222B" shape-rendering="crispEdges"/>
</g>
<path d="M502.893 204.995C499.693 204.995 477.893 204.995 467.393 204.995" stroke="#BCC4D0" stroke-width="2" stroke-linecap="round" stroke-dasharray="4 4"/>
<defs>
<filter id="filter0_d_316_8042" x="0.68108" y="0.961127" width="312.424" height="308.424" filterUnits="userSpaceOnUse" color-interpolation-filters="sRGB">
<feFlood flood-opacity="0" result="BackgroundImageFix"/>
<feColorMatrix in="SourceAlpha" type="matrix" values="0 0 0 0 0 0 0 0 0 0 0 0 0 0 0 0 0 0 127 0" result="hardAlpha"/>
<feOffset dy="4.678"/>
<feGaussianBlur stdDeviation="9.35599"/>
<feComposite in2="hardAlpha" operator="out"/>
<feColorMatrix type="matrix" values="0 0 0 0 0.0470588 0 0 0 0 0.152941 0 0 0 0 0.121569 0 0 0 0.1 0"/>
<feBlend mode="normal" in2="BackgroundImageFix" result="effect1_dropShadow_316_8042"/>
<feBlend mode="normal" in="SourceGraphic" in2="effect1_dropShadow_316_8042" result="shape"/>
</filter>
<filter id="filter1_d_316_8042" x="108.393" y="107.995" width="237" height="66" filterUnits="userSpaceOnUse" color-interpolation-filters="sRGB">
<feFlood flood-opacity="0" result="BackgroundImageFix"/>
<feColorMatrix in="SourceAlpha" type="matrix" values="0 0 0 0 0 0 0 0 0 0 0 0 0 0 0 0 0 0 127 0" result="hardAlpha"/>
<feOffset dy="3"/>
<feGaussianBlur stdDeviation="8"/>
<feComposite in2="hardAlpha" operator="out"/>
<feColorMatrix type="matrix" values="0 0 0 0 0 0 0 0 0 0.0705882 0 0 0 0 0.301961 0 0 0 0.16 0"/>
<feBlend mode="normal" in2="BackgroundImageFix" result="effect1_dropShadow_316_8042"/>
<feBlend mode="normal" in="SourceGraphic" in2="effect1_dropShadow_316_8042" result="shape"/>
</filter>
<filter id="filter2_d_316_8042" x="108.393" y="157.995" width="237" height="66" filterUnits="userSpaceOnUse" color-interpolation-filters="sRGB">
<feFlood flood-opacity="0" result="BackgroundImageFix"/>
<feColorMatrix in="SourceAlpha" type="matrix" values="0 0 0 0 0 0 0 0 0 0 0 0 0 0 0 0 0 0 127 0" result="hardAlpha"/>
<feOffset dy="3"/>
<feGaussianBlur stdDeviation="8"/>
<feComposite in2="hardAlpha" operator="out"/>
<feColorMatrix type="matrix" values="0 0 0 0 0 0 0 0 0 0.0705882 0 0 0 0 0.301961 0 0 0 0.16 0"/>
<feBlend mode="normal" in2="BackgroundImageFix" result="effect1_dropShadow_316_8042"/>
<feBlend mode="normal" in="SourceGraphic" in2="effect1_dropShadow_316_8042" result="shape"/>
</filter>
<filter id="filter3_d_316_8042" x="108.393" y="207.995" width="237" height="66" filterUnits="userSpaceOnUse" color-interpolation-filters="sRGB">
<feFlood flood-opacity="0" result="BackgroundImageFix"/>
<feColorMatrix in="SourceAlpha" type="matrix" values="0 0 0 0 0 0 0 0 0 0 0 0 0 0 0 0 0 0 127 0" result="hardAlpha"/>
<feOffset dy="3"/>
<feGaussianBlur stdDeviation="8"/>
<feComposite in2="hardAlpha" operator="out"/>
<feColorMatrix type="matrix" values="0 0 0 0 0 0 0 0 0 0.0705882 0 0 0 0 0.301961 0 0 0 0.16 0"/>
<feBlend mode="normal" in2="BackgroundImageFix" result="effect1_dropShadow_316_8042"/>
<feBlend mode="normal" in="SourceGraphic" in2="effect1_dropShadow_316_8042" result="shape"/>
</filter>
<filter id="filter4_d_316_8042" x="410.598" y="183.995" width="42" height="42" filterUnits="userSpaceOnUse" color-interpolation-filters="sRGB">
<feFlood flood-opacity="0" result="BackgroundImageFix"/>
<feColorMatrix in="SourceAlpha" type="matrix" values="0 0 0 0 0 0 0 0 0 0 0 0 0 0 0 0 0 0 127 0" result="hardAlpha"/>
<feOffset/>
<feGaussianBlur stdDeviation="1"/>
<feComposite in2="hardAlpha" operator="out"/>
<feColorMatrix type="matrix" values="0 0 0 0 1 0 0 0 0 1 0 0 0 0 1 0 0 0 0.8 0"/>
<feBlend mode="normal" in2="BackgroundImageFix" result="effect1_dropShadow_316_8042"/>
<feBlend mode="normal" in="SourceGraphic" in2="effect1_dropShadow_316_8042" result="shape"/>
</filter>
<filter id="filter5_d_316_8042" x="410.557" y="189.953" width="38.0833" height="38.083" filterUnits="userSpaceOnUse" color-interpolation-filters="sRGB">
<feFlood flood-opacity="0" result="BackgroundImageFix"/>
<feColorMatrix in="SourceAlpha" type="matrix" values="0 0 0 0 0 0 0 0 0 0 0 0 0 0 0 0 0 0 127 0" result="hardAlpha"/>
<feOffset dx="-2" dy="4"/>
<feGaussianBlur stdDeviation="2"/>
<feComposite in2="hardAlpha" operator="out"/>
<feColorMatrix type="matrix" values="0 0 0 0 0.198333 0 0 0 0 0.909926 0 0 0 0 0.933333 0 0 0 0.6 0"/>
<feBlend mode="normal" in2="BackgroundImageFix" result="effect1_dropShadow_316_8042"/>
<feBlend mode="normal" in="SourceGraphic" in2="effect1_dropShadow_316_8042" result="shape"/>
</filter>
<filter id="filter6_d_316_8042" x="398.393" y="76.9951" width="66" height="66" filterUnits="userSpaceOnUse" color-interpolation-filters="sRGB">
<feFlood flood-opacity="0" result="BackgroundImageFix"/>
<feColorMatrix in="SourceAlpha" type="matrix" values="0 0 0 0 0 0 0 0 0 0 0 0 0 0 0 0 0 0 127 0" result="hardAlpha"/>
<feOffset/>
<feGaussianBlur stdDeviation="8"/>
<feComposite in2="hardAlpha" operator="out"/>
<feColorMatrix type="matrix" values="0 0 0 0 0 0 0 0 0 0.101961 0 0 0 0 0.121569 0 0 0 0.08 0"/>
<feBlend mode="normal" in2="BackgroundImageFix" result="effect1_dropShadow_316_8042"/>
<feBlend mode="normal" in="SourceGraphic" in2="effect1_dropShadow_316_8042" result="shape"/>
</filter>
<filter id="filter7_d_316_8042" x="398.393" y="269.995" width="66" height="66" filterUnits="userSpaceOnUse" color-interpolation-filters="sRGB">
<feFlood flood-opacity="0" result="BackgroundImageFix"/>
<feColorMatrix in="SourceAlpha" type="matrix" values="0 0 0 0 0 0 0 0 0 0 0 0 0 0 0 0 0 0 127 0" result="hardAlpha"/>
<feOffset/>
<feGaussianBlur stdDeviation="8"/>
<feComposite in2="hardAlpha" operator="out"/>
<feColorMatrix type="matrix" values="0 0 0 0 0 0 0 0 0 0.101961 0 0 0 0 0.121569 0 0 0 0.08 0"/>
<feBlend mode="normal" in2="BackgroundImageFix" result="effect1_dropShadow_316_8042"/>
<feBlend mode="normal" in="SourceGraphic" in2="effect1_dropShadow_316_8042" result="shape"/>
</filter>
<filter id="filter8_d_316_8042" x="492.393" y="171.995" width="66" height="66" filterUnits="userSpaceOnUse" color-interpolation-filters="sRGB">
<feFlood flood-opacity="0" result="BackgroundImageFix"/>
<feColorMatrix in="SourceAlpha" type="matrix" values="0 0 0 0 0 0 0 0 0 0 0 0 0 0 0 0 0 0 127 0" result="hardAlpha"/>
<feOffset/>
<feGaussianBlur stdDeviation="8"/>
<feComposite in2="hardAlpha" operator="out"/>
<feColorMatrix type="matrix" values="0 0 0 0 0 0 0 0 0 0.101961 0 0 0 0 0.121569 0 0 0 0.08 0"/>
<feBlend mode="normal" in2="BackgroundImageFix" result="effect1_dropShadow_316_8042"/>
<feBlend mode="normal" in="SourceGraphic" in2="effect1_dropShadow_316_8042" result="shape"/>
</filter>
<clipPath id="clip0_316_8042">
<rect width="38" height="38" fill="white" transform="translate(412.598 185.995)"/>
</clipPath>
</defs>
</svg>
