<svg width="568" height="371" viewBox="0 0 568 371" fill="none" xmlns="http://www.w3.org/2000/svg">
<g filter="url(#filter0_d_189_7835)">
<rect x="19.572" y="14.9951" width="344.629" height="232.479" rx="9.35599" fill="white" shape-rendering="crispEdges"/>
<rect x="33.6061" y="29.0293" width="28.068" height="28.068" rx="2.339" fill="#E8FFFB"/>
<mask id="path-4-inside-1_189_7835" fill="white">
<path d="M40.6231 40.7244V48.9109H54.6571V40.7244H40.6231ZM40.0384 39.5549H55.2419C55.4126 39.5549 55.5527 39.6097 55.6623 39.7193C55.7718 39.8288 55.8266 39.969 55.8266 40.1397V49.4957C55.8266 49.6664 55.7718 49.8066 55.6623 49.9161C55.5527 50.0257 55.4126 50.0804 55.2419 50.0804H40.0384C39.8676 50.0804 39.7275 50.0257 39.6179 49.9161C39.5084 49.8066 39.4536 49.6664 39.4536 49.4957V40.1397C39.4536 39.969 39.5084 39.8288 39.6179 39.7193C39.7275 39.6097 39.8676 39.5549 40.0384 39.5549ZM41.2079 37.216H54.0724V38.3855H41.2079V37.216ZM42.9621 34.877H52.3181V36.0465H42.9621V34.877Z"/>
</mask>
<path d="M40.6231 40.7244V48.9109H54.6571V40.7244H40.6231ZM40.0384 39.5549H55.2419C55.4126 39.5549 55.5527 39.6097 55.6623 39.7193C55.7718 39.8288 55.8266 39.969 55.8266 40.1397V49.4957C55.8266 49.6664 55.7718 49.8066 55.6623 49.9161C55.5527 50.0257 55.4126 50.0804 55.2419 50.0804H40.0384C39.8676 50.0804 39.7275 50.0257 39.6179 49.9161C39.5084 49.8066 39.4536 49.6664 39.4536 49.4957V40.1397C39.4536 39.969 39.5084 39.8288 39.6179 39.7193C39.7275 39.6097 39.8676 39.5549 40.0384 39.5549ZM41.2079 37.216H54.0724V38.3855H41.2079V37.216ZM42.9621 34.877H52.3181V36.0465H42.9621V34.877Z" fill="#303133"/>
<path d="M40.6231 40.7244V39.5549H39.4536V40.7244H40.6231ZM40.6231 48.9109H39.4536V50.0804H40.6231V48.9109ZM54.6571 48.9109V50.0804H55.8266V48.9109H54.6571ZM54.6571 40.7244H55.8266V39.5549H54.6571V40.7244ZM40.0384 39.5549V38.3855V39.5549ZM55.8266 40.1397H54.6571H55.8266ZM55.2419 50.0804V48.9109V50.0804ZM39.4536 49.4957H38.2841H39.4536ZM41.2079 37.216V36.0465H40.0384V37.216H41.2079ZM54.0724 37.216H55.2419V36.0465H54.0724V37.216ZM54.0724 38.3855V39.5549H55.2419V38.3855H54.0724ZM41.2079 38.3855H40.0384V39.5549H41.2079V38.3855ZM42.9621 34.877V33.7075H41.7926V34.877H42.9621ZM52.3181 34.877H53.4876V33.7075H52.3181V34.877ZM52.3181 36.0465V37.216H53.4876V36.0465H52.3181ZM42.9621 36.0465H41.7926V37.216H42.9621V36.0465ZM39.4536 40.7244V48.9109H41.7926V40.7244H39.4536ZM40.6231 50.0804H54.6571V47.7414H40.6231V50.0804ZM55.8266 48.9109V40.7244H53.4876V48.9109H55.8266ZM54.6571 39.5549H40.6231V41.8939H54.6571V39.5549ZM40.0384 40.7244H55.2419V38.3855H40.0384V40.7244ZM55.2419 40.7244C55.201 40.7244 55.1319 40.7176 55.0493 40.6853C54.9645 40.6521 54.8913 40.6022 54.8353 40.5462L56.4892 38.8923C56.1369 38.54 55.688 38.3855 55.2419 38.3855V40.7244ZM54.8353 40.5462C54.7794 40.4903 54.7294 40.4171 54.6963 40.3322C54.664 40.2496 54.6571 40.1805 54.6571 40.1397H56.9961C56.9961 39.6936 56.8416 39.2446 56.4892 38.8923L54.8353 40.5462ZM54.6571 40.1397V49.4957H56.9961V40.1397H54.6571ZM54.6571 49.4957C54.6571 49.4549 54.664 49.3858 54.6963 49.3032C54.7294 49.2183 54.7794 49.1451 54.8353 49.0892L56.4892 50.7431C56.8416 50.3908 56.9961 49.9418 56.9961 49.4957H54.6571ZM54.8353 49.0892C54.8913 49.0332 54.9645 48.9833 55.0493 48.9501C55.1319 48.9178 55.201 48.9109 55.2419 48.9109V51.2499C55.688 51.2499 56.1369 51.0954 56.4892 50.7431L54.8353 49.0892ZM55.2419 48.9109H40.0384V51.2499H55.2419V48.9109ZM40.0384 48.9109C40.0792 48.9109 40.1483 48.9178 40.2309 48.9501C40.3158 48.9833 40.3889 49.0332 40.4449 49.0892L38.791 50.7431C39.1433 51.0954 39.5922 51.2499 40.0384 51.2499V48.9109ZM40.4449 49.0892C40.5009 49.1451 40.5508 49.2183 40.584 49.3032C40.6162 49.3858 40.6231 49.4549 40.6231 49.4957H38.2841C38.2841 49.9418 38.4387 50.3908 38.791 50.7431L40.4449 49.0892ZM40.6231 49.4957V40.1397H38.2841V49.4957H40.6231ZM40.6231 40.1397C40.6231 40.1805 40.6162 40.2496 40.584 40.3322C40.5508 40.4171 40.5009 40.4903 40.4449 40.5462L38.791 38.8923C38.4387 39.2446 38.2841 39.6936 38.2841 40.1397H40.6231ZM40.4449 40.5462C40.3889 40.6022 40.3158 40.6521 40.2309 40.6853C40.1483 40.7176 40.0792 40.7244 40.0384 40.7244V38.3855C39.5922 38.3855 39.1433 38.54 38.791 38.8923L40.4449 40.5462ZM41.2079 38.3855H54.0724V36.0465H41.2079V38.3855ZM52.9029 37.216V38.3855H55.2419V37.216H52.9029ZM54.0724 37.216H41.2079V39.5549H54.0724V37.216ZM42.3774 38.3855V37.216H40.0384V38.3855H42.3774ZM42.9621 36.0465H52.3181V33.7075H42.9621V36.0465ZM51.1486 34.877V36.0465H53.4876V34.877H51.1486ZM52.3181 34.877H42.9621V37.216H52.3181V34.877ZM44.1316 36.0465V34.877H41.7926V36.0465H44.1316Z" fill="#0FBFC4" mask="url(#path-4-inside-1_189_7835)"/>
<path d="M74.0202 38.9641V37.1558H83.5207V38.9641H79.8403V49.0635H77.7007V38.9641H74.0202ZM86.6139 49.2437C86.048 49.2437 85.5383 49.1429 85.0848 48.9414C84.6351 48.7359 84.2785 48.4336 84.0149 48.0344C83.7552 47.6351 83.6254 47.1428 83.6254 46.5575C83.6254 46.0536 83.7184 45.6369 83.9045 45.3075C84.0905 44.978 84.3444 44.7144 84.6661 44.5167C84.9879 44.319 85.3503 44.1698 85.7534 44.069C86.1604 43.9644 86.581 43.8888 87.0151 43.8423C87.5384 43.788 87.9628 43.7395 88.2884 43.6969C88.614 43.6504 88.8505 43.5806 88.9978 43.4876C89.149 43.3907 89.2245 43.2415 89.2245 43.0399V43.005C89.2245 42.567 89.0947 42.2278 88.835 41.9875C88.5753 41.7472 88.2012 41.627 87.7128 41.627C87.1973 41.627 86.7884 41.7394 86.486 41.9643C86.1875 42.1891 85.986 42.4546 85.8813 42.7608L83.9161 42.4817C84.0712 41.9391 84.327 41.4855 84.6836 41.1212C85.0402 40.7529 85.4763 40.4777 85.9918 40.2956C86.5073 40.1095 87.0771 40.0165 87.7012 40.0165C88.1315 40.0165 88.5598 40.0669 88.9862 40.1676C89.4125 40.2684 89.8021 40.4351 90.1548 40.6677C90.5076 40.8964 90.7905 41.2084 91.0037 41.6038C91.2208 41.9991 91.3293 42.4933 91.3293 43.0864V49.0635H89.3059V47.8367H89.2362C89.1083 48.0847 88.928 48.3173 88.6954 48.5344C88.4667 48.7476 88.178 48.9201 87.8291 49.0518C87.4841 49.1798 87.0791 49.2437 86.6139 49.2437ZM87.1605 47.6971C87.583 47.6971 87.9493 47.6138 88.2594 47.4471C88.5695 47.2766 88.8078 47.0517 88.9745 46.7727C89.1451 46.4936 89.2304 46.1893 89.2304 45.8598V44.8074C89.1645 44.8617 89.052 44.9121 88.8931 44.9586C88.7381 45.0051 88.5636 45.0458 88.3698 45.0807C88.176 45.1156 87.9842 45.1466 87.7942 45.1737C87.6043 45.2009 87.4396 45.2241 87.3 45.2435C86.986 45.2861 86.705 45.3559 86.4569 45.4528C86.2089 45.5497 86.0131 45.6854 85.8697 45.8598C85.7263 46.0304 85.6546 46.2513 85.6546 46.5226C85.6546 46.9103 85.7961 47.2029 86.079 47.4006C86.362 47.5983 86.7225 47.6971 87.1605 47.6971ZM95.1667 40.1328L96.9691 43.4294L98.8006 40.1328H101.028L98.3355 44.5981L101.074 49.0635H98.8588L96.9691 45.8482L95.097 49.0635H92.8643L95.5853 44.5981L92.934 40.1328H95.1667ZM106.717 49.0635V40.1328H108.758V41.6212H108.851C109.013 41.1057 109.292 40.7084 109.688 40.4293C110.087 40.1463 110.543 40.0048 111.054 40.0048C111.171 40.0048 111.3 40.0107 111.444 40.0223C111.591 40.03 111.713 40.0436 111.81 40.063V41.9991C111.721 41.9681 111.579 41.941 111.386 41.9177C111.196 41.8906 111.012 41.877 110.833 41.877C110.45 41.877 110.105 41.9604 109.798 42.1271C109.496 42.2899 109.258 42.5166 109.083 42.8073C108.909 43.098 108.822 43.4333 108.822 43.8132V49.0635H106.717ZM116.794 49.2379C115.899 49.2379 115.126 49.0518 114.474 48.6797C113.827 48.3037 113.329 47.7727 112.98 47.0866C112.631 46.3967 112.457 45.5846 112.457 44.6504C112.457 43.7318 112.631 42.9255 112.98 42.2317C113.333 41.534 113.825 40.9913 114.457 40.6037C115.089 40.2122 115.831 40.0165 116.684 40.0165C117.234 40.0165 117.754 40.1056 118.242 40.2839C118.734 40.4584 119.169 40.7297 119.545 41.0979C119.924 41.4662 120.223 41.9352 120.44 42.505C120.657 43.0709 120.766 43.7454 120.766 44.5283V45.1737H113.445V43.755H118.748C118.744 43.3519 118.657 42.9934 118.486 42.6794C118.316 42.3616 118.077 42.1115 117.771 41.9294C117.469 41.7472 117.116 41.6561 116.713 41.6561C116.283 41.6561 115.905 41.7608 115.579 41.9701C115.254 42.1755 115 42.4468 114.818 42.7841C114.639 43.1174 114.548 43.4837 114.544 43.883V45.1214C114.544 45.6408 114.639 46.0866 114.829 46.4587C115.019 46.8269 115.285 47.1099 115.626 47.3076C115.967 47.5014 116.366 47.5983 116.823 47.5983C117.13 47.5983 117.407 47.5556 117.655 47.4704C117.903 47.3812 118.118 47.2514 118.3 47.0808C118.482 46.9103 118.62 46.699 118.713 46.4471L120.678 46.668C120.554 47.1874 120.318 47.6409 119.969 48.0285C119.624 48.4123 119.182 48.7107 118.643 48.9239C118.105 49.1332 117.488 49.2379 116.794 49.2379ZM127.006 40.1328V41.7608H121.872V40.1328H127.006ZM123.139 37.9931H125.244V46.3773C125.244 46.6602 125.287 46.8773 125.372 47.0285C125.461 47.1758 125.577 47.2766 125.721 47.3308C125.864 47.3851 126.023 47.4122 126.197 47.4122C126.329 47.4122 126.449 47.4025 126.558 47.3832C126.67 47.3638 126.756 47.3463 126.814 47.3308L127.168 48.9763C127.056 49.015 126.895 49.0577 126.686 49.1042C126.48 49.1507 126.228 49.1778 125.93 49.1856C125.403 49.2011 124.928 49.1216 124.506 48.9472C124.083 48.7689 123.748 48.4937 123.5 48.1216C123.255 47.7495 123.135 47.2843 123.139 46.7261V37.9931ZM134.458 45.3075V40.1328H136.563V49.0635H134.522V47.4762H134.429C134.227 47.9762 133.896 48.3851 133.435 48.703C132.977 49.0208 132.413 49.1798 131.743 49.1798C131.158 49.1798 130.64 49.0499 130.19 48.7902C129.745 48.5266 129.396 48.1448 129.144 47.6448C128.892 47.1409 128.766 46.5323 128.766 45.8191V40.1328H130.871V45.4935C130.871 46.0594 131.026 46.5091 131.336 46.8424C131.646 47.1758 132.053 47.3425 132.557 47.3425C132.867 47.3425 133.167 47.2669 133.458 47.1157C133.749 46.9645 133.987 46.7397 134.173 46.4412C134.363 46.1389 134.458 45.761 134.458 45.3075ZM138.727 49.0635V40.1328H140.768V41.6212H140.861C141.024 41.1057 141.303 40.7084 141.698 40.4293C142.098 40.1463 142.553 40.0048 143.065 40.0048C143.181 40.0048 143.311 40.0107 143.454 40.0223C143.602 40.03 143.724 40.0436 143.821 40.063V41.9991C143.731 41.9681 143.59 41.941 143.396 41.9177C143.206 41.8906 143.022 41.877 142.844 41.877C142.46 41.877 142.115 41.9604 141.809 42.1271C141.506 42.2899 141.268 42.5166 141.094 42.8073C140.919 43.098 140.832 43.4333 140.832 43.8132V49.0635H138.727ZM147.324 43.8306V49.0635H145.219V40.1328H147.231V41.6503H147.335C147.541 41.1503 147.868 40.7529 148.318 40.4584C148.771 40.1638 149.332 40.0165 149.998 40.0165C150.615 40.0165 151.151 40.1483 151.609 40.4118C152.07 40.6754 152.427 41.0572 152.679 41.5573C152.934 42.0573 153.06 42.6639 153.057 43.3771V49.0635H150.952V43.7027C150.952 43.1058 150.797 42.6387 150.487 42.3015C150.18 41.9643 149.756 41.7956 149.213 41.7956C148.845 41.7956 148.518 41.877 148.231 42.0398C147.948 42.1988 147.725 42.4294 147.562 42.7317C147.403 43.0341 147.324 43.4004 147.324 43.8306ZM166.316 42.4934L164.397 42.7027C164.343 42.5089 164.248 42.3267 164.112 42.1561C163.981 41.9856 163.802 41.848 163.577 41.7433C163.353 41.6387 163.077 41.5863 162.752 41.5863C162.314 41.5863 161.946 41.6813 161.647 41.8712C161.353 42.0612 161.207 42.3073 161.211 42.6096C161.207 42.8693 161.302 43.0806 161.496 43.2434C161.694 43.4062 162.019 43.5399 162.473 43.6446L163.996 43.9702C164.841 44.1524 165.469 44.4411 165.88 44.8365C166.295 45.2319 166.504 45.7493 166.508 46.3889C166.504 46.951 166.339 47.4471 166.014 47.8774C165.692 48.3037 165.244 48.6371 164.671 48.8774C164.097 49.1177 163.438 49.2379 162.694 49.2379C161.601 49.2379 160.721 49.0092 160.054 48.5518C159.387 48.0906 158.99 47.449 158.862 46.6273L160.915 46.4296C161.008 46.8327 161.205 47.137 161.508 47.3425C161.81 47.5479 162.203 47.6506 162.688 47.6506C163.188 47.6506 163.589 47.5479 163.891 47.3425C164.198 47.137 164.351 46.8831 164.351 46.5808C164.351 46.325 164.252 46.1137 164.054 45.947C163.86 45.7804 163.558 45.6524 163.147 45.5633L161.624 45.2435C160.767 45.0652 160.133 44.7648 159.723 44.3423C159.312 43.9159 159.108 43.3771 159.112 42.7259C159.108 42.1755 159.257 41.6987 159.56 41.2956C159.866 40.8886 160.29 40.5746 160.833 40.3537C161.38 40.1289 162.01 40.0165 162.723 40.0165C163.769 40.0165 164.593 40.2394 165.194 40.6851C165.798 41.1309 166.173 41.7336 166.316 42.4934ZM172.197 49.2379C171.302 49.2379 170.528 49.0518 169.877 48.6797C169.23 48.3037 168.732 47.7727 168.383 47.0866C168.034 46.3967 167.86 45.5846 167.86 44.6504C167.86 43.7318 168.034 42.9255 168.383 42.2317C168.736 41.534 169.228 40.9913 169.86 40.6037C170.492 40.2122 171.234 40.0165 172.087 40.0165C172.637 40.0165 173.156 40.1056 173.645 40.2839C174.137 40.4584 174.571 40.7297 174.947 41.0979C175.327 41.4662 175.626 41.9352 175.843 42.505C176.06 43.0709 176.168 43.7454 176.168 44.5283V45.1737H168.848V43.755H174.151C174.147 43.3519 174.06 42.9934 173.889 42.6794C173.718 42.3616 173.48 42.1115 173.174 41.9294C172.872 41.7472 172.519 41.6561 172.116 41.6561C171.685 41.6561 171.308 41.7608 170.982 41.9701C170.656 42.1755 170.402 42.4468 170.22 42.7841C170.042 43.1174 169.951 43.4837 169.947 43.883V45.1214C169.947 45.6408 170.042 46.0866 170.232 46.4587C170.422 46.8269 170.687 47.1099 171.028 47.3076C171.37 47.5014 171.769 47.5983 172.226 47.5983C172.532 47.5983 172.81 47.5556 173.058 47.4704C173.306 47.3812 173.521 47.2514 173.703 47.0808C173.885 46.9103 174.023 46.699 174.116 46.4471L176.081 46.668C175.957 47.1874 175.721 47.6409 175.372 48.0285C175.027 48.4123 174.585 48.7107 174.046 48.9239C173.507 49.1332 172.891 49.2379 172.197 49.2379ZM177.949 49.0635V40.1328H179.99V41.6212H180.083C180.246 41.1057 180.525 40.7084 180.92 40.4293C181.319 40.1463 181.775 40.0048 182.286 40.0048C182.403 40.0048 182.532 40.0107 182.676 40.0223C182.823 40.03 182.945 40.0436 183.042 40.063V41.9991C182.953 41.9681 182.812 41.941 182.618 41.9177C182.428 41.8906 182.244 41.877 182.065 41.877C181.682 41.877 181.337 41.9604 181.03 42.1271C180.728 42.2899 180.49 42.5166 180.315 42.8073C180.141 43.098 180.054 43.4333 180.054 43.8132V49.0635H177.949ZM192.689 40.1328L189.509 49.0635H187.183L184.003 40.1328H186.247L188.3 46.7668H188.393L190.451 40.1328H192.689ZM194.146 49.0635V40.1328H196.251V49.0635H194.146ZM195.204 38.8652C194.871 38.8652 194.584 38.7548 194.344 38.5338C194.103 38.309 193.983 38.0396 193.983 37.7256C193.983 37.4078 194.103 37.1384 194.344 36.9175C194.584 36.6926 194.871 36.5802 195.204 36.5802C195.541 36.5802 195.828 36.6926 196.065 36.9175C196.305 37.1384 196.425 37.4078 196.425 37.7256C196.425 38.0396 196.305 38.309 196.065 38.5338C195.828 38.7548 195.541 38.8652 195.204 38.8652ZM202.311 49.2379C201.419 49.2379 200.654 49.0422 200.014 48.6507C199.378 48.2592 198.888 47.7184 198.543 47.0285C198.202 46.3346 198.031 45.5362 198.031 44.633C198.031 43.726 198.206 42.9255 198.555 42.2317C198.903 41.534 199.396 40.9913 200.031 40.6037C200.671 40.2122 201.427 40.0165 202.299 40.0165C203.024 40.0165 203.665 40.1502 204.224 40.4177C204.786 40.6812 205.233 41.0553 205.567 41.5398C205.9 42.0205 206.09 42.5825 206.136 43.2259H204.125C204.043 42.7957 203.85 42.4371 203.543 42.1503C203.241 41.8596 202.836 41.7142 202.328 41.7142C201.898 41.7142 201.52 41.8305 201.194 42.0631C200.869 42.2918 200.615 42.6213 200.433 43.0515C200.254 43.4818 200.165 43.9973 200.165 44.5981C200.165 45.2067 200.254 45.73 200.433 46.168C200.611 46.6021 200.861 46.9374 201.183 47.1738C201.508 47.4064 201.89 47.5227 202.328 47.5227C202.638 47.5227 202.915 47.4646 203.16 47.3483C203.408 47.2281 203.615 47.0556 203.782 46.8308C203.948 46.606 204.063 46.3327 204.125 46.011H206.136C206.086 46.6428 205.9 47.2029 205.578 47.6913C205.257 48.1758 204.819 48.5557 204.264 48.8309C203.71 49.1022 203.059 49.2379 202.311 49.2379ZM211.818 49.2379C210.923 49.2379 210.15 49.0518 209.499 48.6797C208.851 48.3037 208.353 47.7727 208.004 47.0866C207.655 46.3967 207.481 45.5846 207.481 44.6504C207.481 43.7318 207.655 42.9255 208.004 42.2317C208.357 41.534 208.849 40.9913 209.481 40.6037C210.113 40.2122 210.855 40.0165 211.708 40.0165C212.258 40.0165 212.778 40.1056 213.266 40.2839C213.758 40.4584 214.193 40.7297 214.569 41.0979C214.948 41.4662 215.247 41.9352 215.464 42.505C215.681 43.0709 215.79 43.7454 215.79 44.5283V45.1737H208.469V43.755H213.772C213.768 43.3519 213.681 42.9934 213.51 42.6794C213.34 42.3616 213.101 42.1115 212.795 41.9294C212.493 41.7472 212.14 41.6561 211.737 41.6561C211.307 41.6561 210.929 41.7608 210.603 41.9701C210.278 42.1755 210.024 42.4468 209.842 42.7841C209.663 43.1174 209.572 43.4837 209.568 43.883V45.1214C209.568 45.6408 209.663 46.0866 209.853 46.4587C210.043 46.8269 210.309 47.1099 210.65 47.3076C210.991 47.5014 211.39 47.5983 211.848 47.5983C212.154 47.5983 212.431 47.5556 212.679 47.4704C212.927 47.3812 213.142 47.2514 213.324 47.0808C213.507 46.9103 213.644 46.699 213.737 46.4471L215.702 46.668C215.578 47.1874 215.342 47.6409 214.993 48.0285C214.648 48.4123 214.206 48.7107 213.667 48.9239C213.129 49.1332 212.512 49.2379 211.818 49.2379ZM224.201 49.2437C223.635 49.2437 223.126 49.1429 222.672 48.9414C222.223 48.7359 221.866 48.4336 221.602 48.0344C221.343 47.6351 221.213 47.1428 221.213 46.5575C221.213 46.0536 221.306 45.6369 221.492 45.3075C221.678 44.978 221.932 44.7144 222.254 44.5167C222.575 44.319 222.938 44.1698 223.341 44.069C223.748 43.9644 224.168 43.8888 224.603 43.8423C225.126 43.788 225.55 43.7395 225.876 43.6969C226.201 43.6504 226.438 43.5806 226.585 43.4876C226.736 43.3907 226.812 43.2415 226.812 43.0399V43.005C226.812 42.567 226.682 42.2278 226.422 41.9875C226.163 41.7472 225.789 41.627 225.3 41.627C224.785 41.627 224.376 41.7394 224.073 41.9643C223.775 42.1891 223.573 42.4546 223.469 42.7608L221.504 42.4817C221.659 41.9391 221.914 41.4855 222.271 41.1212C222.628 40.7529 223.064 40.4777 223.579 40.2956C224.095 40.1095 224.665 40.0165 225.289 40.0165C225.719 40.0165 226.147 40.0669 226.574 40.1676C227 40.2684 227.39 40.4351 227.742 40.6677C228.095 40.8964 228.378 41.2084 228.591 41.6038C228.808 41.9991 228.917 42.4933 228.917 43.0864V49.0635H226.893V47.8367H226.824C226.696 48.0847 226.515 48.3173 226.283 48.5344C226.054 48.7476 225.765 48.9201 225.417 49.0518C225.072 49.1798 224.667 49.2437 224.201 49.2437ZM224.748 47.6971C225.17 47.6971 225.537 47.6138 225.847 47.4471C226.157 47.2766 226.395 47.0517 226.562 46.7727C226.733 46.4936 226.818 46.1893 226.818 45.8598V44.8074C226.752 44.8617 226.639 44.9121 226.481 44.9586C226.326 45.0051 226.151 45.0458 225.957 45.0807C225.763 45.1156 225.572 45.1466 225.382 45.1737C225.192 45.2009 225.027 45.2241 224.887 45.2435C224.573 45.2861 224.292 45.3559 224.044 45.4528C223.796 45.5497 223.601 45.6854 223.457 45.8598C223.314 46.0304 223.242 46.2513 223.242 46.5226C223.242 46.9103 223.384 47.2029 223.666 47.4006C223.949 47.5983 224.31 47.6971 224.748 47.6971ZM234.917 52.5986C234.161 52.5986 233.512 52.4958 232.969 52.2904C232.427 52.0888 231.991 51.8175 231.661 51.4764C231.332 51.1353 231.103 50.7574 230.975 50.3426L232.87 49.8833C232.956 50.0577 233.08 50.2302 233.243 50.4008C233.405 50.5752 233.624 50.7186 233.9 50.831C234.179 50.9473 234.529 51.0054 234.952 51.0054C235.549 51.0054 236.043 50.8601 236.435 50.5694C236.826 50.2825 237.022 49.8096 237.022 49.1507V47.4587H236.917C236.809 47.6758 236.65 47.8987 236.44 48.1274C236.235 48.3561 235.962 48.5479 235.621 48.703C235.283 48.858 234.859 48.9356 234.347 48.9356C233.661 48.9356 233.039 48.7747 232.481 48.453C231.927 48.1274 231.485 47.6429 231.155 46.9994C230.83 46.3521 230.667 45.542 230.667 44.569C230.667 43.5884 230.83 42.7608 231.155 42.0864C231.485 41.408 231.929 40.8944 232.487 40.5456C233.045 40.1928 233.667 40.0165 234.353 40.0165C234.876 40.0165 235.307 40.1056 235.644 40.2839C235.985 40.4584 236.256 40.6696 236.458 40.9177C236.659 41.1619 236.813 41.3925 236.917 41.6096H237.033V40.1328H239.109V49.2088C239.109 49.9724 238.927 50.6043 238.563 51.1043C238.198 51.6043 237.7 51.9784 237.068 52.2264C236.437 52.4745 235.719 52.5986 234.917 52.5986ZM234.935 47.2843C235.38 47.2843 235.76 47.1758 236.074 46.9587C236.388 46.7416 236.626 46.4296 236.789 46.0226C236.952 45.6156 237.033 45.1272 237.033 44.5574C237.033 43.9954 236.952 43.5031 236.789 43.0806C236.63 42.6581 236.394 42.3306 236.08 42.098C235.77 41.8615 235.388 41.7433 234.935 41.7433C234.466 41.7433 234.074 41.8654 233.76 42.1096C233.446 42.3538 233.21 42.6891 233.051 43.1155C232.892 43.538 232.812 44.0186 232.812 44.5574C232.812 45.104 232.892 45.5827 233.051 45.9935C233.214 46.4005 233.452 46.7184 233.766 46.9471C234.084 47.1719 234.473 47.2843 234.935 47.2843ZM241.266 49.0635V40.1328H243.307V41.6212H243.4C243.563 41.1057 243.842 40.7084 244.237 40.4293C244.637 40.1463 245.092 40.0048 245.604 40.0048C245.72 40.0048 245.85 40.0107 245.993 40.0223C246.141 40.03 246.263 40.0436 246.36 40.063V41.9991C246.27 41.9681 246.129 41.941 245.935 41.9177C245.745 41.8906 245.561 41.877 245.383 41.877C244.999 41.877 244.654 41.9604 244.348 42.1271C244.045 42.2899 243.807 42.5166 243.633 42.8073C243.458 43.098 243.371 43.4333 243.371 43.8132V49.0635H241.266ZM251.344 49.2379C250.448 49.2379 249.675 49.0518 249.024 48.6797C248.377 48.3037 247.879 47.7727 247.53 47.0866C247.181 46.3967 247.006 45.5846 247.006 44.6504C247.006 43.7318 247.181 42.9255 247.53 42.2317C247.882 41.534 248.375 40.9913 249.007 40.6037C249.638 40.2122 250.381 40.0165 251.233 40.0165C251.784 40.0165 252.303 40.1056 252.792 40.2839C253.284 40.4584 253.718 40.7297 254.094 41.0979C254.474 41.4662 254.772 41.9352 254.989 42.505C255.206 43.0709 255.315 43.7454 255.315 44.5283V45.1737H247.995V43.755H253.297C253.294 43.3519 253.206 42.9934 253.036 42.6794C252.865 42.3616 252.627 42.1115 252.321 41.9294C252.018 41.7472 251.666 41.6561 251.262 41.6561C250.832 41.6561 250.454 41.7608 250.129 41.9701C249.803 42.1755 249.549 42.4468 249.367 42.7841C249.189 43.1174 249.098 43.4837 249.094 43.883V45.1214C249.094 45.6408 249.189 46.0866 249.379 46.4587C249.569 46.8269 249.834 47.1099 250.175 47.3076C250.516 47.5014 250.916 47.5983 251.373 47.5983C251.679 47.5983 251.956 47.5556 252.204 47.4704C252.452 47.3812 252.668 47.2514 252.85 47.0808C253.032 46.9103 253.17 46.699 253.263 46.4471L255.228 46.668C255.104 47.1874 254.867 47.6409 254.518 48.0285C254.173 48.4123 253.732 48.7107 253.193 48.9239C252.654 49.1332 252.038 49.2379 251.344 49.2379ZM261.049 49.2379C260.154 49.2379 259.381 49.0518 258.729 48.6797C258.082 48.3037 257.584 47.7727 257.235 47.0866C256.886 46.3967 256.712 45.5846 256.712 44.6504C256.712 43.7318 256.886 42.9255 257.235 42.2317C257.588 41.534 258.08 40.9913 258.712 40.6037C259.344 40.2122 260.086 40.0165 260.939 40.0165C261.489 40.0165 262.009 40.1056 262.497 40.2839C262.989 40.4584 263.423 40.7297 263.799 41.0979C264.179 41.4662 264.478 41.9352 264.695 42.505C264.912 43.0709 265.02 43.7454 265.02 44.5283V45.1737H257.7V43.755H263.003C262.999 43.3519 262.912 42.9934 262.741 42.6794C262.571 42.3616 262.332 42.1115 262.026 41.9294C261.724 41.7472 261.371 41.6561 260.968 41.6561C260.538 41.6561 260.16 41.7608 259.834 41.9701C259.509 42.1755 259.255 42.4468 259.072 42.7841C258.894 43.1174 258.803 43.4837 258.799 43.883V45.1214C258.799 45.6408 258.894 46.0866 259.084 46.4587C259.274 46.8269 259.54 47.1099 259.881 47.3076C260.222 47.5014 260.621 47.5983 261.078 47.5983C261.385 47.5983 261.662 47.5556 261.91 47.4704C262.158 47.3812 262.373 47.2514 262.555 47.0808C262.737 46.9103 262.875 46.699 262.968 46.4471L264.933 46.668C264.809 47.1874 264.573 47.6409 264.224 48.0285C263.879 48.4123 263.437 48.7107 262.898 48.9239C262.359 49.1332 261.743 49.2379 261.049 49.2379ZM266.801 49.0635V40.1328H268.813V41.6503H268.917C269.104 41.1386 269.412 40.7394 269.842 40.4525C270.272 40.1618 270.786 40.0165 271.383 40.0165C271.987 40.0165 272.497 40.1638 272.912 40.4584C273.331 40.7491 273.625 41.1464 273.796 41.6503H273.889C274.086 41.1541 274.42 40.7588 274.889 40.4642C275.362 40.1657 275.922 40.0165 276.569 40.0165C277.391 40.0165 278.061 40.2762 278.581 40.7956C279.1 41.315 279.36 42.0728 279.36 43.069V49.0635H277.249V43.3946C277.249 42.8403 277.102 42.4352 276.807 42.1794C276.513 41.9197 276.152 41.7898 275.726 41.7898C275.218 41.7898 274.821 41.9487 274.534 42.2666C274.251 42.5806 274.11 42.9895 274.11 43.4934V49.0635H272.046V43.3073C272.046 42.8461 271.906 42.4778 271.627 42.2026C271.352 41.9274 270.991 41.7898 270.545 41.7898C270.243 41.7898 269.968 41.8673 269.72 42.0224C269.472 42.1736 269.274 42.3887 269.127 42.6678C268.98 42.943 268.906 43.2647 268.906 43.6329V49.0635H266.801ZM285.449 49.2379C284.554 49.2379 283.78 49.0518 283.129 48.6797C282.482 48.3037 281.984 47.7727 281.635 47.0866C281.286 46.3967 281.111 45.5846 281.111 44.6504C281.111 43.7318 281.286 42.9255 281.635 42.2317C281.987 41.534 282.48 40.9913 283.112 40.6037C283.743 40.2122 284.486 40.0165 285.338 40.0165C285.889 40.0165 286.408 40.1056 286.897 40.2839C287.389 40.4584 287.823 40.7297 288.199 41.0979C288.579 41.4662 288.877 41.9352 289.094 42.505C289.312 43.0709 289.42 43.7454 289.42 44.5283V45.1737H282.1V43.755H287.403C287.399 43.3519 287.311 42.9934 287.141 42.6794C286.97 42.3616 286.732 42.1115 286.426 41.9294C286.123 41.7472 285.771 41.6561 285.368 41.6561C284.937 41.6561 284.559 41.7608 284.234 41.9701C283.908 42.1755 283.654 42.4468 283.472 42.7841C283.294 43.1174 283.203 43.4837 283.199 43.883V45.1214C283.199 45.6408 283.294 46.0866 283.484 46.4587C283.674 46.8269 283.939 47.1099 284.28 47.3076C284.621 47.5014 285.021 47.5983 285.478 47.5983C285.784 47.5983 286.061 47.5556 286.309 47.4704C286.558 47.3812 286.773 47.2514 286.955 47.0808C287.137 46.9103 287.275 46.699 287.368 46.4471L289.333 46.668C289.209 47.1874 288.972 47.6409 288.624 48.0285C288.279 48.4123 287.837 48.7107 287.298 48.9239C286.759 49.1332 286.143 49.2379 285.449 49.2379ZM293.305 43.8306V49.0635H291.201V40.1328H293.212V41.6503H293.317C293.523 41.1503 293.85 40.7529 294.3 40.4584C294.753 40.1638 295.313 40.0165 295.98 40.0165C296.596 40.0165 297.133 40.1483 297.591 40.4118C298.052 40.6754 298.408 41.0572 298.66 41.5573C298.916 42.0573 299.042 42.6639 299.038 43.3771V49.0635H296.934V43.7027C296.934 43.1058 296.779 42.6387 296.468 42.3015C296.162 41.9643 295.738 41.7956 295.195 41.7956C294.827 41.7956 294.499 41.877 294.212 42.0398C293.93 42.1988 293.707 42.4294 293.544 42.7317C293.385 43.0341 293.305 43.4004 293.305 43.8306ZM305.638 40.1328V41.7608H300.504V40.1328H305.638ZM301.771 37.9931H303.876V46.3773C303.876 46.6602 303.918 46.8773 304.004 47.0285C304.093 47.1758 304.209 47.2766 304.353 47.3308C304.496 47.3851 304.655 47.4122 304.829 47.4122C304.961 47.4122 305.081 47.4025 305.19 47.3832C305.302 47.3638 305.388 47.3463 305.446 47.3308L305.8 48.9763C305.688 49.015 305.527 49.0577 305.318 49.1042C305.112 49.1507 304.86 49.1778 304.562 49.1856C304.035 49.2011 303.56 49.1216 303.137 48.9472C302.715 48.7689 302.38 48.4937 302.132 48.1216C301.887 47.7495 301.767 47.2843 301.771 46.7261V37.9931Z" fill="#00424D"/>
<path d="M347.426 36.7046H348.413V36.7051H347.829H347.011L346.863 36.3093C346.817 36.1725 346.766 36.0373 346.709 35.9038C346.77 36.041 346.826 36.1797 346.877 36.32L347.017 36.7046H347.426ZM345.436 33.9729L345.431 33.9666L345.835 33.2434L346.116 32.742L346.135 32.7534L345.64 33.618L345.436 33.9729ZM343.092 30.9986L343.103 31.0051L342.813 31.4883L342.763 31.5718L343.092 30.9986ZM341.983 32.1448L342.307 32.2049L341.976 32.1461C341.2 31.9992 340.421 31.9992 339.645 32.1461L339.311 32.2055L339.638 32.1448C340.421 31.9996 341.201 31.9996 341.983 32.1448ZM339.024 31.8607L339.205 32.1758L338.814 31.4971L338.527 31.0001L338.53 30.9986L339.024 31.8607ZM335.486 32.7534L335.541 32.7219L335.506 32.7423L335.786 33.244L336.191 33.9672L336.186 33.9733L335.982 33.618L335.486 32.7534ZM334.758 36.3113L334.62 36.7051H333.793H333.208L333.208 36.7046H334.195H334.607L334.746 36.317C334.977 35.6699 335.3 35.0785 335.715 34.5407C335.307 35.0758 334.988 35.6654 334.759 36.3073L334.759 36.3073L334.758 36.3113ZM334.605 40.2136H334.611L334.759 40.6124C334.817 40.7788 334.88 40.9401 334.948 41.096C334.874 40.9329 334.806 40.7669 334.745 40.5979L334.605 40.2136ZM335.982 43.2996L336.185 42.945L336.191 42.9516L335.786 43.6748L335.506 44.1758L335.486 44.1642L335.982 43.2996ZM338.814 45.4217L339.08 44.9606L339.024 45.0569L338.53 45.9191L338.528 45.9178L338.814 45.4217ZM339.638 44.7728L339.464 44.7404L339.645 44.7727C339.77 44.7963 339.895 44.8161 340.02 44.8321C339.893 44.8162 339.766 44.7964 339.638 44.7728ZM341.983 44.7728C341.86 44.7956 341.738 44.8148 341.615 44.8305C341.735 44.8147 341.856 44.7955 341.976 44.7727L342.16 44.7401L341.983 44.7728ZM342.597 45.0569L342.542 44.9603L342.808 45.4217L343.094 45.9178L343.092 45.9191L342.597 45.0569ZM346.135 44.1642L346.115 44.1758L345.835 43.6748L345.431 42.9516L345.436 42.945L345.64 43.2996L346.135 44.1642ZM346.864 40.6075L347.001 40.2136H347.014L346.876 40.6006C346.627 41.2965 346.272 41.9281 345.811 42.4978C346.263 41.923 346.614 41.2948 346.861 40.6147L346.861 40.6147L346.864 40.6075ZM346.147 34.8821C346.06 34.7513 345.968 34.6232 345.872 34.4979C345.967 34.621 346.059 34.7491 346.147 34.8821ZM337.308 38.5958C337.36 39.5112 337.699 40.3032 338.333 40.937C338.967 41.5708 339.759 41.9096 340.674 41.9619C339.726 41.911 338.956 41.569 338.328 40.9416C337.701 40.3141 337.359 39.5434 337.308 38.5958ZM343.294 40.9416C342.666 41.569 341.896 41.911 340.948 41.9619C341.863 41.9096 342.656 41.5708 343.289 40.937C343.923 40.3033 344.262 39.5112 344.314 38.5959C344.263 39.5435 343.921 40.3142 343.294 40.9416ZM343.294 35.976C343.921 36.6035 344.263 37.3742 344.314 38.3217C344.262 37.4064 343.923 36.6144 343.289 35.9806C342.656 35.3468 341.864 35.008 340.948 34.9558C341.896 35.0066 342.666 35.3486 343.294 35.976ZM340.811 34.9505C340.817 34.9506 340.823 34.9507 340.828 34.9509L340.811 35.5351L340.794 34.9509C340.8 34.9507 340.805 34.9506 340.811 34.9505ZM340.674 34.9558C339.759 35.008 338.967 35.3468 338.333 35.9806C337.699 36.6144 337.36 37.4065 337.308 38.3218C337.359 37.3742 337.701 36.6035 338.328 35.976C338.956 35.3486 339.726 35.0066 340.674 34.9558Z" fill="#303133" stroke="#4B5B76" stroke-width="1.1695"/>
<rect x="33.6058" y="73.4707" width="272.493" height="23.39" rx="4.678" fill="#EBEDF1"/>
<rect x="33.6058" y="116.742" width="272.493" height="23.39" rx="4.678" fill="#EBEDF1"/>
<rect x="33.6058" y="156.505" width="152.035" height="23.39" rx="4.678" fill="#EBEDF1"/>
<path d="M339.735 71.4094L339.759 71.2429L339.737 71.4093L340.494 71.3093L341.462 71.1812L341.598 71.1632L339.74 71.4288C339.738 71.4259 339.736 71.4237 339.735 71.4221C339.735 71.4194 339.735 71.4153 339.735 71.4094ZM347.72 65.076C347.77 65.0252 347.816 64.9716 347.856 64.9157C347.814 64.9767 347.766 65.0358 347.711 65.0936L344.936 67.8678L347.719 65.0763C347.719 65.0762 347.72 65.0761 347.72 65.076ZM346.071 63.4267C346.071 63.4269 346.07 63.427 346.07 63.4272L346.07 63.4275L346.071 63.4267Z" fill="#4B5B76" stroke="#4B5B76" stroke-width="1.1695"/>
<path d="M348.208 100.361L348.208 100.361C348.208 100.361 348.208 100.361 348.208 100.361M348.208 100.361C348.208 100.361 348.208 100.361 348.208 100.361M348.208 100.361C348.208 100.361 348.208 100.361 348.208 100.361M348.208 100.361L348.201 100.368C348.201 100.357 348.2 100.35 348.2 100.347C348.199 100.345 348.199 100.345 348.2 100.348C348.2 100.349 348.201 100.35 348.201 100.35C348.202 100.353 348.203 100.355 348.205 100.357C348.206 100.359 348.207 100.36 348.207 100.36C348.208 100.361 348.208 100.361 348.208 100.361" fill="#4B5B76" stroke="#4B5B76" stroke-width="1.1695"/>
<path d="M334.101 127.201C333.782 127.521 333.612 127.921 333.585 128.368C333.61 127.891 333.781 127.511 334.096 127.196C334.288 127.004 334.505 126.866 334.752 126.781V126.787C334.511 126.873 334.291 127.01 334.101 127.201ZM334.101 137.859C334.421 138.178 334.821 138.348 335.268 138.374C334.791 138.35 334.411 138.178 334.097 137.863C333.785 137.551 333.614 137.176 333.586 136.706C333.615 137.148 333.785 137.543 334.101 137.859ZM344.764 137.863C344.452 138.174 344.076 138.345 343.607 138.374C344.048 138.344 344.443 138.174 344.759 137.858C344.949 137.668 345.086 137.448 345.172 137.208H345.179C345.094 137.455 344.956 137.671 344.764 137.863ZM337.605 123.688C337.917 123.376 338.292 123.205 338.762 123.177C338.32 123.207 337.925 123.376 337.609 123.693C337.29 124.012 337.12 124.412 337.094 124.86C337.119 124.383 337.29 124.003 337.605 123.688ZM348.267 123.692C347.947 123.373 347.547 123.203 347.1 123.176C347.577 123.201 347.957 123.372 348.272 123.687C348.583 123.999 348.754 124.375 348.782 124.844C348.753 124.403 348.583 124.008 348.267 123.692ZM337.61 134.35C337.929 134.669 338.33 134.839 338.777 134.866C338.3 134.841 337.92 134.67 337.605 134.355C337.294 134.043 337.123 133.667 337.095 133.198C337.124 133.64 337.294 134.035 337.61 134.35ZM348.272 134.354C347.96 134.666 347.585 134.837 347.115 134.865C347.557 134.836 347.952 134.666 348.268 134.35C348.587 134.03 348.756 133.63 348.783 133.183C348.758 133.66 348.587 134.04 348.272 134.354Z" fill="#4B5B76" stroke="#4B5B76" stroke-width="1.1695"/>
<rect x="20.1568" y="15.5799" width="343.46" height="231.309" rx="8.77124" stroke="#00424D" stroke-width="1.1695" shape-rendering="crispEdges"/>
</g>
<g filter="url(#filter1_d_189_7835)">
<path d="M183.777 184.428H305.839V328.474C305.839 330.046 305.214 331.554 304.102 332.666C302.99 333.778 301.482 334.402 299.91 334.402H189.694C188.121 334.402 186.613 333.778 185.502 332.666C184.39 331.554 183.765 330.046 183.765 328.474V184.428H183.777Z" fill="white"/>
<path d="M299.91 334.995H189.635C187.907 334.992 186.251 334.304 185.031 333.081C183.81 331.858 183.125 330.201 183.125 328.474V184.428C183.125 184.271 183.187 184.12 183.298 184.009C183.41 183.897 183.56 183.835 183.718 183.835H305.839C305.996 183.835 306.147 183.897 306.258 184.009C306.369 184.12 306.432 184.271 306.432 184.428V328.474C306.429 330.202 305.74 331.859 304.518 333.082C303.296 334.304 301.639 334.992 299.91 334.995V334.995ZM184.37 185.021V328.497C184.37 329.911 184.93 331.266 185.928 332.266C186.927 333.267 188.281 333.83 189.694 333.833H299.969C301.383 333.83 302.739 333.267 303.739 332.267C304.739 331.267 305.302 329.912 305.305 328.497V185.021H184.37Z" fill="#00424D"/>
<path d="M210.907 223.901H201.231V293.636H210.907V223.901Z" fill="#0FBFC4"/>
<path d="M228.765 240.229H219.089V293.623H228.765V240.229Z" fill="#0FBFC4"/>
<path d="M246.61 229.593H236.934V293.636H246.61V229.593Z" fill="#0FBFC4"/>
<path d="M264.468 248.886H254.792V293.624H264.468V248.886Z" fill="#0FBFC4"/>
<path d="M282.325 229.593H272.65V293.636H282.325V229.593Z" fill="#0FBFC4"/>
<path d="M282.1 197.031H265.701C265.544 197.031 265.393 196.969 265.282 196.858C265.171 196.747 265.108 196.596 265.108 196.439C265.108 196.281 265.171 196.131 265.282 196.019C265.393 195.908 265.544 195.846 265.701 195.846H282.076C282.233 195.849 282.382 195.912 282.492 196.023C282.603 196.133 282.666 196.282 282.669 196.439C282.669 196.592 282.61 196.739 282.504 196.85C282.398 196.96 282.253 197.025 282.1 197.031Z" fill="#00424D"/>
<path d="M276.373 203.14H265.701C265.544 203.14 265.393 203.077 265.282 202.966C265.171 202.855 265.108 202.704 265.108 202.547C265.108 202.39 265.171 202.239 265.282 202.128C265.393 202.017 265.544 201.954 265.701 201.954H276.373C276.53 201.954 276.681 202.017 276.792 202.128C276.903 202.239 276.966 202.39 276.966 202.547C276.966 202.704 276.903 202.855 276.792 202.966C276.681 203.077 276.53 203.14 276.373 203.14Z" fill="#00424D"/>
<path d="M260.828 230.316C255.658 230.316 251.152 224.554 247.523 219.905C245.152 216.894 242.934 213.977 241.452 213.977C239.768 213.977 237.444 215.364 234.99 216.787C231.646 218.72 227.875 220.913 224.318 220.712C217.666 220.356 205.168 205.676 204.646 205.048C204.597 204.992 204.56 204.927 204.536 204.857C204.513 204.787 204.503 204.712 204.509 204.638C204.514 204.564 204.535 204.492 204.568 204.426C204.602 204.36 204.649 204.301 204.706 204.253C204.814 204.149 204.958 204.091 205.109 204.091C205.259 204.091 205.404 204.149 205.512 204.253C205.63 204.408 218.211 219.194 224.377 219.526C227.626 219.716 231.255 217.605 234.456 215.743C237.041 214.249 239.484 212.838 241.452 212.779C243.421 212.72 245.709 215.53 248.484 219.099C252.041 223.641 256.428 229.285 261.183 229.06C265.298 228.858 267.266 225.277 269.353 221.483C271.44 217.688 273.42 214.06 277.582 213.265C277.723 213.254 277.863 213.296 277.975 213.382C278.086 213.468 278.162 213.592 278.187 213.731C278.213 213.87 278.185 214.013 278.111 214.133C278.036 214.253 277.92 214.341 277.784 214.38C274.155 215.068 272.306 218.447 270.337 222.028C268.203 225.929 265.986 229.961 261.242 230.198L260.828 230.316Z" fill="#E3E6EB"/>
<path d="M205.227 206.862C204.796 206.862 204.374 206.734 204.015 206.494C203.656 206.254 203.377 205.913 203.212 205.515C203.046 205.116 203.003 204.677 203.087 204.254C203.172 203.831 203.379 203.442 203.685 203.137C203.99 202.832 204.378 202.624 204.802 202.54C205.225 202.456 205.664 202.499 206.062 202.664C206.461 202.829 206.802 203.109 207.041 203.468C207.281 203.826 207.409 204.248 207.409 204.68C207.409 205.258 207.179 205.813 206.77 206.223C206.361 206.632 205.806 206.862 205.227 206.862ZM205.227 203.636C205.018 203.636 204.814 203.699 204.64 203.815C204.466 203.932 204.331 204.097 204.251 204.291C204.172 204.484 204.152 204.697 204.193 204.902C204.235 205.107 204.337 205.295 204.485 205.442C204.634 205.589 204.823 205.689 205.029 205.728C205.234 205.768 205.447 205.745 205.639 205.663C205.832 205.582 205.996 205.444 206.111 205.269C206.225 205.094 206.285 204.889 206.283 204.68C206.283 204.542 206.255 204.405 206.202 204.278C206.149 204.15 206.071 204.035 205.973 203.938C205.875 203.841 205.758 203.764 205.63 203.712C205.502 203.661 205.365 203.635 205.227 203.636V203.636Z" fill="#E3E6EB"/>
<path d="M277.558 216.123C277.127 216.121 276.707 215.991 276.35 215.75C275.992 215.509 275.715 215.167 275.551 214.768C275.388 214.369 275.346 213.931 275.432 213.509C275.517 213.086 275.726 212.699 276.032 212.395C276.337 212.091 276.726 211.884 277.149 211.801C277.572 211.718 278.01 211.761 278.408 211.927C278.806 212.092 279.146 212.372 279.385 212.731C279.624 213.089 279.752 213.511 279.752 213.942C279.749 214.521 279.517 215.076 279.105 215.485C278.694 215.894 278.138 216.123 277.558 216.123ZM277.558 212.886C277.35 212.886 277.146 212.948 276.972 213.064C276.799 213.18 276.663 213.345 276.583 213.538C276.504 213.731 276.483 213.943 276.523 214.147C276.564 214.352 276.665 214.54 276.812 214.688C276.96 214.835 277.148 214.936 277.353 214.977C277.557 215.017 277.769 214.996 277.962 214.917C278.155 214.837 278.32 214.701 278.436 214.528C278.552 214.354 278.614 214.15 278.614 213.942C278.614 213.662 278.503 213.393 278.305 213.195C278.107 212.997 277.838 212.886 277.558 212.886V212.886Z" fill="#E3E6EB"/>
<path d="M189.694 172.131H299.91C301.482 172.131 302.99 172.755 304.102 173.867C305.214 174.979 305.839 176.487 305.839 178.06V184.403H183.777V178.06C183.777 176.489 184.4 174.983 185.509 173.872C186.618 172.76 188.123 172.134 189.694 172.131V172.131Z" fill="white"/>
<path d="M305.839 185.02H183.777C183.62 185.02 183.469 184.958 183.358 184.847C183.247 184.735 183.184 184.585 183.184 184.427V178.06C183.184 176.332 183.87 174.675 185.09 173.452C186.311 172.23 187.966 171.541 189.694 171.538H299.969C301.698 171.541 303.355 172.229 304.577 173.452C305.8 174.674 306.488 176.331 306.491 178.06V184.404C306.495 184.489 306.48 184.574 306.448 184.653C306.416 184.731 306.368 184.803 306.306 184.861C306.244 184.92 306.17 184.964 306.09 184.992C306.009 185.019 305.924 185.029 305.839 185.02ZM184.37 183.834H305.246V178.06C305.243 176.646 304.68 175.29 303.68 174.29C302.68 173.29 301.324 172.727 299.91 172.724H189.635C188.221 172.727 186.867 173.291 185.869 174.291C184.871 175.291 184.311 176.647 184.311 178.06L184.37 183.834Z" fill="#00424D"/>
<path d="M191.176 180.43C192.276 180.43 193.168 179.539 193.168 178.438C193.168 177.338 192.276 176.446 191.176 176.446C190.076 176.446 189.184 177.338 189.184 178.438C189.184 179.539 190.076 180.43 191.176 180.43Z" fill="#0FBFC4"/>
<path d="M198.089 180.43C199.189 180.43 200.081 179.539 200.081 178.438C200.081 177.338 199.189 176.446 198.089 176.446C196.989 176.446 196.097 177.338 196.097 178.438C196.097 179.539 196.989 180.43 198.089 180.43Z" fill="#E3E6EB"/>
<path d="M205.002 180.43C206.102 180.43 206.994 179.539 206.994 178.438C206.994 177.338 206.102 176.446 205.002 176.446C203.902 176.446 203.01 177.338 203.01 178.438C203.01 179.539 203.902 180.43 205.002 180.43Z" fill="#E3E6EB"/>
<path d="M243.172 209.707C243.036 209.706 242.905 209.656 242.804 209.565C242.69 209.468 242.619 209.331 242.606 209.182C242.593 209.034 242.638 208.886 242.733 208.771L247.855 202.7C247.909 202.636 247.976 202.585 248.052 202.55C248.128 202.515 248.211 202.497 248.294 202.498H261.112C261.269 202.498 261.42 202.561 261.531 202.672C261.643 202.783 261.705 202.934 261.705 203.091C261.705 203.248 261.643 203.399 261.531 203.51C261.42 203.621 261.269 203.684 261.112 203.684H248.531L243.575 209.613C243.457 209.694 243.313 209.728 243.172 209.707V209.707Z" fill="#E3E6EB"/>
</g>
<path d="M502.901 288.698H515.079C516.867 288.698 518.316 290.148 518.316 291.935V304.113C518.316 305.901 516.867 307.35 515.079 307.35H502.901C501.113 307.35 499.664 305.901 499.664 304.113V291.935C499.664 290.148 501.113 288.698 502.901 288.698Z" fill="#0FBFC4"/>
<path d="M506.115 282.722H518.696C520.372 282.722 521.731 284.081 521.731 285.757V298.338C521.731 300.015 520.372 301.374 518.696 301.374H506.115C504.438 301.374 503.079 300.015 503.079 298.338V285.757C503.079 284.081 504.438 282.722 506.115 282.722Z" fill="white"/>
<path d="M506.115 301.967H518.695C519.174 301.97 519.648 301.878 520.091 301.697C520.534 301.516 520.937 301.25 521.276 300.912C521.616 300.575 521.885 300.174 522.069 299.732C522.253 299.29 522.348 298.817 522.348 298.338V285.757C522.348 284.795 521.965 283.872 521.285 283.192C520.604 282.511 519.681 282.129 518.719 282.129H506.138C505.662 282.129 505.19 282.223 504.75 282.405C504.309 282.587 503.909 282.855 503.573 283.192C503.236 283.529 502.968 283.929 502.786 284.369C502.604 284.809 502.51 285.281 502.51 285.757V298.338C502.51 299.296 502.889 300.216 503.564 300.896C504.239 301.575 505.156 301.96 506.115 301.967V301.967ZM518.695 283.315C519.018 283.312 519.338 283.372 519.637 283.494C519.937 283.615 520.209 283.795 520.438 284.022C520.667 284.249 520.849 284.519 520.974 284.817C521.098 285.115 521.162 285.435 521.162 285.757V298.338C521.162 298.986 520.904 299.607 520.446 300.065C519.988 300.524 519.367 300.781 518.719 300.781H506.138C505.49 300.781 504.869 300.524 504.411 300.065C503.953 299.607 503.696 298.986 503.696 298.338V285.757C503.696 285.109 503.953 284.488 504.411 284.03C504.869 283.572 505.49 283.315 506.138 283.315H518.695Z" fill="#00424D"/>
<path d="M464.495 101.026H369.907V159.721C369.907 160.916 370.381 162.062 371.226 162.908C372.071 163.753 373.218 164.227 374.413 164.227H459.989C461.184 164.227 462.33 163.753 463.175 162.908C464.02 162.062 464.495 160.916 464.495 159.721V101.026Z" fill="white"/>
<path d="M374.413 164.761H459.989C461.327 164.758 462.608 164.225 463.553 163.278C464.498 162.331 465.028 161.048 465.028 159.71V101.027C465.028 100.884 464.973 100.747 464.873 100.645C464.773 100.543 464.637 100.485 464.495 100.481H369.907C369.762 100.481 369.624 100.539 369.521 100.641C369.419 100.743 369.362 100.882 369.362 101.027V159.71C369.362 161.05 369.894 162.335 370.841 163.282C371.788 164.229 373.073 164.761 374.413 164.761V164.761ZM463.949 101.572V159.674C463.949 160.726 463.533 161.735 462.79 162.479C462.048 163.224 461.04 163.644 459.989 163.647H374.413C373.359 163.647 372.349 163.228 371.604 162.483C370.859 161.738 370.441 160.728 370.441 159.674V101.572H463.949Z" fill="#00424D"/>
<path d="M459.989 92.6318H374.413C373.218 92.6318 372.071 93.1066 371.226 93.9516C370.381 94.7966 369.907 95.9427 369.907 97.1377V101.027H464.495V97.1377C464.495 95.9427 464.02 94.7966 463.175 93.9516C462.33 93.1066 461.184 92.6318 459.989 92.6318Z" fill="white"/>
<path d="M369.907 101.572H464.495C464.637 101.569 464.773 101.51 464.873 101.408C464.973 101.306 465.028 101.169 465.028 101.026V97.1371C465.025 95.8015 464.493 94.5215 463.549 93.5771C462.605 92.6327 461.325 92.1008 459.989 92.0977H374.413C373.079 92.1039 371.802 92.6372 370.861 93.5813C369.919 94.5254 369.388 95.8036 369.385 97.1371V101.026C369.385 101.167 369.439 101.302 369.537 101.404C369.634 101.506 369.766 101.566 369.907 101.572V101.572ZM463.949 100.481H370.441V97.1371C370.444 96.0857 370.864 95.0783 371.608 94.336C372.353 93.5936 373.361 93.1767 374.413 93.1767H459.989C461.038 93.1798 462.044 93.5981 462.786 94.3401C463.528 95.0822 463.946 96.0877 463.949 97.1371V100.481Z" fill="#00424D"/>
<path d="M441.206 124.518C437.84 124.518 435.112 121.789 435.112 118.423C435.112 115.057 437.84 112.328 441.206 112.328C444.573 112.328 447.301 115.057 447.301 118.423C447.301 121.789 444.573 124.518 441.206 124.518Z" fill="#0FBFC4"/>
<path d="M452.281 136.848C452.187 133.972 450.978 131.245 448.911 129.244C446.843 127.243 444.078 126.124 441.2 126.124C438.323 126.124 435.558 127.243 433.49 129.244C431.422 131.245 430.214 133.972 430.119 136.848H452.281Z" fill="#0FBFC4"/>
<path d="M393.195 124.518C389.829 124.518 387.1 121.789 387.1 118.423C387.1 115.057 389.829 112.328 393.195 112.328C396.561 112.328 399.29 115.057 399.29 118.423C399.29 121.789 396.561 124.518 393.195 124.518Z" fill="#0FBFC4"/>
<path d="M404.27 136.848C404.176 133.972 402.967 131.245 400.899 129.244C398.832 127.243 396.067 126.124 393.189 126.124C390.311 126.124 387.547 127.243 385.479 129.244C383.411 131.245 382.202 133.972 382.108 136.848H404.27Z" fill="#0FBFC4"/>
<path d="M406.796 118.967H421.025C421.169 118.967 421.308 118.91 421.41 118.807C421.513 118.705 421.57 118.566 421.57 118.422C421.57 118.277 421.513 118.138 421.41 118.036C421.308 117.934 421.169 117.876 421.025 117.876H408.052L410.886 114.9C410.937 114.85 410.976 114.791 411.004 114.726C411.031 114.661 411.045 114.591 411.045 114.52C411.045 114.45 411.031 114.38 411.004 114.315C410.976 114.25 410.937 114.191 410.886 114.141C410.783 114.042 410.645 113.986 410.501 113.986C410.357 113.986 410.219 114.042 410.116 114.141L406.416 118.042C406.342 118.117 406.292 118.212 406.273 118.316C406.254 118.42 406.266 118.527 406.309 118.623C406.348 118.721 406.415 118.806 406.501 118.867C406.588 118.928 406.69 118.963 406.796 118.967Z" fill="#00424D"/>
<path d="M410.353 122.44C410.5 122.439 410.641 122.379 410.744 122.274C410.846 122.172 410.904 122.034 410.904 121.889C410.904 121.745 410.846 121.606 410.744 121.504L407.187 118.041C407.082 117.947 406.945 117.897 406.804 117.902C406.663 117.907 406.529 117.966 406.431 118.067C406.333 118.168 406.277 118.304 406.277 118.445C406.276 118.586 406.331 118.722 406.428 118.824L409.985 122.286C410.084 122.382 410.215 122.437 410.353 122.44V122.44Z" fill="#00424D"/>
<path d="M413.543 123.533H427.772C427.877 123.534 427.98 123.505 428.069 123.448C428.158 123.391 428.228 123.309 428.27 123.213C428.312 123.114 428.325 123.005 428.306 122.9C428.287 122.795 428.237 122.697 428.163 122.62L424.463 118.73C424.415 118.676 424.356 118.632 424.29 118.601C424.224 118.569 424.153 118.552 424.08 118.548C424.007 118.545 423.935 118.557 423.866 118.582C423.798 118.607 423.736 118.646 423.683 118.696C423.629 118.746 423.587 118.806 423.557 118.872C423.528 118.939 423.512 119.011 423.511 119.084C423.51 119.157 423.523 119.229 423.55 119.297C423.577 119.364 423.618 119.426 423.669 119.477L426.515 122.442H413.543C413.399 122.445 413.262 122.503 413.16 122.605C413.059 122.707 413 122.844 412.997 122.987C412.997 123.132 413.055 123.271 413.157 123.373C413.259 123.475 413.398 123.533 413.543 123.533V123.533Z" fill="#00424D"/>
<path d="M424.226 126.996C424.295 126.997 424.363 126.984 424.426 126.957C424.49 126.931 424.547 126.891 424.594 126.842L428.151 123.391C428.251 123.287 428.306 123.149 428.306 123.006C428.306 122.862 428.251 122.724 428.151 122.62C428.049 122.518 427.91 122.461 427.766 122.461C427.621 122.461 427.483 122.518 427.381 122.62L423.823 126.083C423.773 126.132 423.733 126.192 423.706 126.257C423.679 126.322 423.665 126.392 423.665 126.462C423.665 126.533 423.679 126.603 423.706 126.668C423.733 126.733 423.773 126.792 423.823 126.842C423.877 126.893 423.94 126.933 424.009 126.959C424.079 126.986 424.152 126.998 424.226 126.996Z" fill="#00424D"/>
<path d="M388.998 144.023H445.404C445.561 144.023 445.712 143.96 445.823 143.849C445.934 143.738 445.997 143.587 445.997 143.43C445.994 143.274 445.93 143.124 445.82 143.014C445.709 142.903 445.56 142.84 445.404 142.837H388.998C388.84 142.837 388.69 142.899 388.578 143.011C388.467 143.122 388.405 143.273 388.405 143.43C388.405 143.587 388.467 143.738 388.578 143.849C388.69 143.96 388.84 144.023 388.998 144.023Z" fill="#E3E6EB"/>
<path d="M388.998 148.03H445.404C445.561 148.03 445.712 147.968 445.823 147.857C445.934 147.746 445.997 147.595 445.997 147.438C445.994 147.281 445.93 147.132 445.82 147.022C445.709 146.911 445.56 146.848 445.404 146.845H388.998C388.84 146.845 388.69 146.907 388.578 147.018C388.467 147.13 388.405 147.28 388.405 147.438C388.405 147.595 388.467 147.746 388.578 147.857C388.69 147.968 388.84 148.03 388.998 148.03Z" fill="#E3E6EB"/>
<path d="M394.796 152.085H445.404C445.561 152.085 445.712 152.023 445.823 151.912C445.934 151.8 445.997 151.65 445.997 151.492C445.994 151.336 445.93 151.187 445.82 151.076C445.709 150.966 445.56 150.902 445.404 150.899H394.796C394.64 150.902 394.491 150.966 394.38 151.076C394.27 151.187 394.206 151.336 394.203 151.492C394.203 151.65 394.266 151.8 394.377 151.912C394.488 152.023 394.639 152.085 394.796 152.085Z" fill="#E3E6EB"/>
<path d="M457.843 98.2751C457.044 98.2751 456.396 97.6274 456.396 96.8285C456.396 96.0295 457.044 95.3818 457.843 95.3818C458.642 95.3818 459.289 96.0295 459.289 96.8285C459.289 97.6274 458.642 98.2751 457.843 98.2751Z" fill="#0FBFC4"/>
<path d="M452.744 98.2751C451.945 98.2751 451.297 97.6274 451.297 96.8285C451.297 96.0295 451.945 95.3818 452.744 95.3818C453.543 95.3818 454.19 96.0295 454.19 96.8285C454.19 97.6274 453.543 98.2751 452.744 98.2751Z" fill="#E3E6EB"/>
<path d="M447.645 98.2751C446.846 98.2751 446.199 97.6274 446.199 96.8285C446.199 96.0295 446.846 95.3818 447.645 95.3818C448.444 95.3818 449.092 96.0295 449.092 96.8285C449.092 97.6274 448.444 98.2751 447.645 98.2751Z" fill="#E3E6EB"/>
<path d="M481.214 156.626H562.877C565.28 156.626 567.229 158.574 567.229 160.978V263.309C567.229 265.712 565.28 267.66 562.877 267.66H481.214C478.81 267.66 476.862 265.712 476.862 263.309V160.978C476.862 158.574 478.81 156.626 481.214 156.626Z" fill="white"/>
<path d="M481.214 268.29H562.877C564.188 268.29 565.446 267.769 566.373 266.842C567.301 265.914 567.822 264.657 567.822 263.345V160.979C567.818 159.668 567.296 158.412 566.37 157.486C565.443 156.559 564.187 156.037 562.877 156.034H481.214C479.903 156.037 478.648 156.559 477.721 157.486C476.794 158.412 476.272 159.668 476.269 160.979V263.31C476.265 263.962 476.389 264.609 476.635 265.213C476.882 265.817 477.245 266.366 477.705 266.829C478.164 267.292 478.711 267.659 479.313 267.91C479.916 268.161 480.561 268.29 481.214 268.29V268.29ZM562.877 157.22C563.873 157.223 564.827 157.62 565.531 158.324C566.236 159.029 566.633 159.983 566.636 160.979V263.31C566.64 263.806 566.547 264.299 566.36 264.759C566.173 265.219 565.897 265.638 565.547 265.991C565.198 266.343 564.782 266.623 564.324 266.815C563.865 267.006 563.374 267.104 562.877 267.104H481.214C480.217 267.104 479.261 266.708 478.556 266.003C477.851 265.298 477.455 264.342 477.455 263.345V160.979C477.458 159.983 477.855 159.029 478.559 158.324C479.264 157.62 480.218 157.223 481.214 157.22H562.877Z" fill="#00424D"/>
<path d="M499.641 244.208H548.34C548.497 244.208 548.648 244.146 548.759 244.035C548.87 243.923 548.932 243.773 548.932 243.615C548.929 243.459 548.866 243.31 548.755 243.199C548.645 243.089 548.496 243.025 548.34 243.022H499.641C499.483 243.022 499.333 243.085 499.221 243.196C499.11 243.307 499.048 243.458 499.048 243.615C499.048 243.773 499.11 243.923 499.221 244.035C499.333 244.146 499.483 244.208 499.641 244.208Z" fill="#E3E6EB"/>
<path d="M523.154 252.163H548.34C548.496 252.16 548.645 252.097 548.755 251.986C548.866 251.876 548.929 251.727 548.932 251.57C548.932 251.413 548.87 251.262 548.759 251.151C548.648 251.04 548.497 250.978 548.34 250.978H523.154C522.997 250.978 522.846 251.04 522.735 251.151C522.624 251.262 522.561 251.413 522.561 251.57C522.564 251.727 522.628 251.876 522.738 251.986C522.849 252.097 522.998 252.16 523.154 252.163V252.163Z" fill="#E3E6EB"/>
<path d="M545.328 181.622C538.213 188.737 531.126 195.827 524.067 202.895C523.959 203.012 523.827 203.105 523.679 203.166C523.532 203.228 523.373 203.256 523.213 203.25H490.641C490.819 208.282 492.204 213.196 494.679 217.58C497.155 221.964 500.648 225.689 504.864 228.441C509.08 231.193 513.895 232.891 518.905 233.392C523.914 233.893 528.971 233.183 533.648 231.321C538.326 229.459 542.487 226.5 545.782 222.693C549.077 218.886 551.408 214.343 552.58 209.447C553.751 204.551 553.729 199.445 552.514 194.559C551.3 189.673 548.928 185.151 545.6 181.373L545.328 181.622Z" fill="#0FBFC4"/>
<path d="M520.913 170.679V201.01H520.605L491.245 200.939C490.593 200.939 490.593 200.939 490.641 200.287C491.011 194.518 492.952 188.961 496.255 184.216C499.557 179.472 504.094 175.721 509.376 173.37C512.599 171.962 516.032 171.093 519.538 170.797L520.913 170.679Z" fill="#E3E6EB"/>
<path d="M523.154 200.606V170.701C526.681 170.884 530.157 171.616 533.458 172.871C537.407 174.433 541.009 176.758 544.059 179.713L523.154 200.606Z" fill="#E3E6EB"/>
<path d="M429.029 184.456C436.013 182.357 439.7 174.187 441.562 167.69C443.649 160.302 446.103 154.255 443.127 146.559C442.451 144.793 441.36 143.002 439.57 142.433C439.123 142.369 438.692 142.22 438.301 141.994C437.99 141.687 437.758 141.308 437.625 140.891C433.38 130.884 421.369 130.611 412.357 132.022C407.139 132.84 400.369 135.224 398.744 140.583C395.768 150.46 398.282 161.203 403.76 169.741C408.883 177.768 418.57 187.658 429.029 184.456Z" fill="white"/>
<path d="M425.033 185.644C426.443 185.647 427.846 185.44 429.195 185.027V185.027C436.487 182.834 440.258 174.486 442.131 167.857C442.368 167.016 442.605 166.185 442.854 165.367C444.752 158.929 446.412 153.356 443.685 146.395C442.724 143.893 441.372 142.387 439.7 141.913L439.345 141.83C439.055 141.832 438.775 141.729 438.556 141.539C438.338 141.349 438.196 141.085 438.159 140.798C433.736 130.411 421.558 130.008 412.214 131.49C408.657 132.048 400.049 134.051 398.116 140.466C395.294 149.858 397.144 160.624 403.203 170.11C408.337 178.019 416.424 185.644 425.033 185.644ZM419.768 132C426.882 132 433.997 134.016 437.044 141.119C437.203 141.634 437.498 142.097 437.898 142.458C438.251 142.707 438.657 142.869 439.084 142.933L439.38 143.016C440.673 143.372 441.752 144.64 442.582 146.775C445.143 153.403 443.554 158.798 441.716 165.035C441.467 165.853 441.23 166.684 440.981 167.537C439.19 173.869 435.633 181.861 428.851 183.901C419.365 186.735 409.879 178.28 404.222 169.423C398.353 160.269 396.551 149.822 399.278 140.751C401.021 134.988 409.049 133.138 412.416 132.617C414.847 132.222 417.305 132.016 419.768 132V132Z" fill="#00424D"/>
<path d="M397.298 164.465C397.298 164.465 389.816 173.82 390.99 176.014C392.164 178.208 396.812 177.2 396.812 177.2" fill="white"/>
<path d="M394.594 178.065C395.391 178.066 396.185 177.987 396.966 177.828C397.123 177.797 397.261 177.704 397.35 177.571C397.439 177.437 397.471 177.274 397.44 177.117C397.409 176.96 397.316 176.821 397.182 176.732C397.049 176.643 396.886 176.611 396.729 176.642C395.543 176.88 392.329 177.188 391.547 175.718C390.93 174.532 394.321 169.16 397.796 164.809C397.895 164.685 397.941 164.528 397.926 164.371C397.91 164.213 397.834 164.068 397.713 163.967C397.587 163.872 397.429 163.829 397.273 163.847C397.116 163.864 396.972 163.941 396.871 164.062C395.057 166.338 389.235 173.915 390.503 176.275C391.238 177.733 393.1 178.065 394.594 178.065Z" fill="#00424D"/>
<path d="M399.906 151.423C395.4 154.459 395.958 161.81 395.567 166.518C395.021 173.134 394.626 179.767 394.381 186.415C394.227 190.624 405.053 191.703 407.104 190.624L403.902 207.047L427.487 200.359L428.495 181.162C428.495 181.162 421.38 180.557 417.823 171.676C414.266 162.795 415.724 149.621 415.724 149.621C415.724 149.621 404.306 148.447 399.906 151.423Z" fill="white"/>
<path d="M403.902 207.638H404.068L427.677 200.95C427.796 200.918 427.903 200.849 427.982 200.754C428.06 200.658 428.107 200.54 428.115 200.416L429.123 181.207C429.13 181.056 429.079 180.907 428.979 180.793C428.88 180.678 428.741 180.606 428.59 180.591C428.305 180.591 421.724 179.891 418.44 171.437C415.06 162.733 416.365 149.785 416.376 149.654C416.386 149.497 416.34 149.342 416.246 149.215C416.196 149.155 416.135 149.105 416.066 149.068C415.997 149.032 415.921 149.009 415.843 149.002C415.369 149.002 404.092 147.899 399.574 150.947C395.578 153.65 395.329 159.342 395.128 163.99C395.128 164.891 395.045 165.757 394.973 166.551C394.428 173.168 394.025 179.867 393.788 186.472C393.793 187.142 393.987 187.796 394.348 188.361C394.709 188.925 395.221 189.376 395.827 189.662C398.59 191.393 403.807 191.974 406.345 191.547L403.321 206.962C403.302 207.062 403.309 207.166 403.34 207.263C403.371 207.36 403.426 207.448 403.499 207.519C403.617 207.602 403.758 207.644 403.902 207.638V207.638ZM426.953 199.907L404.673 206.215L407.685 190.741C407.71 190.631 407.703 190.516 407.662 190.41C407.622 190.304 407.552 190.213 407.46 190.148C407.365 190.09 407.256 190.06 407.145 190.06C407.034 190.06 406.926 190.09 406.831 190.148C405.515 190.847 399.42 190.48 396.456 188.63C395.436 187.99 394.938 187.266 394.973 186.484C395.211 179.891 395.614 173.203 396.159 166.611C396.23 165.804 396.266 164.927 396.313 164.002C396.503 159.686 396.74 154.314 400.238 151.955C403.796 149.512 412.772 149.986 415.143 150.152C414.918 152.868 414.23 163.907 417.337 171.887C420.444 179.867 426.076 181.373 427.914 181.717L426.953 199.907Z" fill="#00424D"/>
<path d="M394.986 181.491C394.986 181.491 401.484 181.491 403.037 172.717Z" fill="white"/>
<path d="M394.986 182.085C395.057 182.085 402.005 181.978 403.63 172.824C403.654 172.669 403.617 172.51 403.526 172.382C403.435 172.253 403.298 172.165 403.144 172.136C402.99 172.109 402.831 172.143 402.702 172.232C402.573 172.321 402.485 172.457 402.456 172.611C401.021 180.769 395.223 180.911 394.986 180.911C394.828 180.911 394.677 180.973 394.566 181.085C394.455 181.196 394.393 181.347 394.393 181.504C394.396 181.659 394.46 181.807 394.57 181.915C394.681 182.024 394.83 182.085 394.986 182.085Z" fill="#00424D"/>
<path d="M409.606 169.872C409.944 168.237 410.728 166.726 411.871 165.508C412.621 164.452 413.524 163.512 414.551 162.722C415.065 162.329 415.662 162.056 416.295 161.922C416.929 161.789 417.585 161.799 418.215 161.951C418.748 162.145 419.235 162.449 419.643 162.844C420.052 163.238 420.373 163.713 420.586 164.24C421.012 165.304 421.194 166.451 421.12 167.595C421.008 170.098 420.237 172.526 418.886 174.635C417.535 176.744 415.651 178.459 413.424 179.607L413.815 179.239" fill="white"/>
<path d="M413.459 180.176C413.551 180.175 413.641 180.15 413.72 180.105C416.034 178.903 417.993 177.115 419.402 174.92C420.81 172.726 421.619 170.2 421.748 167.595C421.821 166.381 421.622 165.166 421.167 164.038C420.915 163.429 420.536 162.88 420.056 162.428C419.575 161.976 419.004 161.632 418.38 161.418C417.665 161.237 416.919 161.22 416.196 161.368C415.473 161.516 414.793 161.825 414.206 162.271C413.13 163.091 412.187 164.07 411.408 165.176C410.195 166.48 409.373 168.099 409.037 169.848C409.02 170.004 409.065 170.16 409.163 170.282C409.261 170.404 409.403 170.483 409.558 170.501C409.714 170.517 409.87 170.472 409.992 170.374C410.114 170.276 410.193 170.134 410.21 169.979C410.545 168.45 411.286 167.041 412.357 165.9C413.068 164.895 413.923 164 414.894 163.244C415.336 162.903 415.848 162.664 416.394 162.545C416.939 162.426 417.504 162.43 418.048 162.556C418.508 162.722 418.927 162.983 419.279 163.322C419.63 163.661 419.906 164.071 420.088 164.524C420.48 165.506 420.646 166.564 420.574 167.619C420.461 169.865 419.798 172.05 418.645 173.98C417.491 175.911 415.882 177.53 413.957 178.694C413.871 178.677 413.782 178.681 413.697 178.705C413.612 178.73 413.535 178.775 413.471 178.836L413.068 179.192C412.975 179.272 412.908 179.379 412.878 179.498C412.848 179.617 412.856 179.742 412.9 179.857C412.944 179.971 413.023 180.069 413.125 180.137C413.228 180.205 413.349 180.239 413.471 180.236L413.459 180.176Z" fill="#00424D"/>
<path d="M407.104 190.622C407.104 190.622 412.902 189.437 415.867 185.761C415.867 185.761 414.823 194.535 405.93 196.67L407.104 190.622Z" fill="#00424D"/>
<path d="M400.545 160.301C400.444 158.996 400.78 157.905 401.296 157.865C401.812 157.825 402.312 158.851 402.412 160.157C402.513 161.463 402.177 162.554 401.661 162.594C401.145 162.634 400.645 161.607 400.545 160.301Z" fill="#00424D"/>
<path d="M405.93 197.262H406.072C415.262 195.068 416.448 185.95 416.46 185.855C416.475 185.728 416.449 185.599 416.385 185.487C416.32 185.376 416.222 185.289 416.104 185.238C415.987 185.187 415.856 185.175 415.732 185.205C415.607 185.235 415.496 185.305 415.416 185.404C412.606 188.831 407.045 190.053 406.985 190.064C406.87 190.089 406.764 190.147 406.682 190.231C406.599 190.316 406.544 190.423 406.523 190.539L405.337 196.574C405.32 196.66 405.321 196.749 405.342 196.835C405.363 196.92 405.403 197 405.459 197.068C405.514 197.136 405.585 197.191 405.664 197.229C405.743 197.266 405.83 197.286 405.918 197.286L405.93 197.262ZM414.823 187.634C414.246 189.565 413.202 191.323 411.783 192.755C410.364 194.186 408.615 195.245 406.689 195.839L407.614 191.096C410.228 190.459 412.683 189.288 414.823 187.657V187.634Z" fill="#00424D"/>
<path d="M463.19 239.642L475.356 260.986L507.04 228.472C507.04 228.472 504.478 214.658 507.893 215.761C510.051 216.529 511.927 217.93 513.277 219.781C513.277 219.781 516.087 200.809 523.486 207.046C530.885 213.283 527.482 224.239 521.873 234.769C517.711 242.583 480.728 299.582 470.471 297.294C460.214 295.005 435.859 243.235 435.859 243.235L463.19 239.642Z" fill="white"/>
<path d="M471.04 297.934C482.696 297.934 518.684 242.014 522.395 235.089C527.067 226.302 532.308 213.745 523.866 206.631C522.301 205.302 520.783 204.899 519.348 205.445C515.459 206.915 513.538 215.18 512.921 218.488C511.606 217.022 509.936 215.92 508.071 215.287C507.82 215.188 507.546 215.161 507.28 215.21C507.014 215.258 506.767 215.379 506.566 215.559C504.585 217.302 505.973 225.947 506.4 228.365L475.487 259.99L463.7 239.322C463.642 239.219 463.555 239.136 463.449 239.083C463.344 239.03 463.225 239.01 463.108 239.025L435.835 242.583C435.742 242.594 435.654 242.628 435.577 242.682C435.501 242.736 435.439 242.808 435.396 242.891C435.356 242.974 435.334 243.065 435.334 243.158C435.334 243.25 435.356 243.342 435.396 243.425C436.404 245.547 460.013 295.491 470.424 297.803C470.625 297.866 470.831 297.91 471.04 297.934V297.934ZM520.617 206.358C521.561 206.445 522.444 206.865 523.107 207.544C529.036 212.571 528.478 221.156 521.34 234.543C516.822 243.033 480.123 298.871 470.602 296.772C461.4 294.72 439.772 250.077 436.736 243.768L462.823 240.33L474.799 261.33C474.845 261.409 474.908 261.477 474.984 261.528C475.06 261.58 475.147 261.613 475.238 261.626C475.329 261.639 475.422 261.629 475.509 261.598C475.596 261.567 475.673 261.516 475.736 261.448L507.419 228.935C507.484 228.866 507.532 228.783 507.558 228.692C507.585 228.601 507.59 228.506 507.573 228.413C506.767 224.037 506.139 217.433 507.301 216.413C507.301 216.413 507.431 216.306 507.668 216.413C509.695 217.147 511.461 218.463 512.743 220.196C512.812 220.294 512.909 220.37 513.02 220.414C513.132 220.458 513.254 220.469 513.372 220.445C513.487 220.418 513.591 220.357 513.671 220.27C513.752 220.184 513.804 220.075 513.822 219.958C514.309 216.674 516.301 207.887 519.751 206.607C520.021 206.469 520.315 206.385 520.617 206.358V206.358Z" fill="#00424D"/>
<path d="M364.642 332.321L372.314 297.436L448.831 317.961C448.831 317.961 448.677 323.688 448.463 332.297L364.642 332.321Z" fill="#00424D"/>
<path d="M370.511 230.072C370.511 230.072 345.99 223.716 336.8 218.321C326.721 212.392 307.737 174.946 301.572 165.638C298.225 160.498 295.738 154.847 294.208 148.907C293.497 146.251 293.165 144.33 294.493 141.792C294.765 141.259 299.117 136.492 299.319 137.049C298.133 133.717 296.947 130.551 295.69 127.255C295.358 126.342 295.109 125.192 295.809 124.528C296.115 124.288 296.493 124.158 296.882 124.158C297.271 124.158 297.649 124.288 297.955 124.528C298.573 125.002 299.076 125.61 299.425 126.306L309.504 143.784C309.423 141.626 309.858 139.48 310.773 137.524C310.917 137.131 311.178 136.792 311.52 136.551C312.623 135.935 313.69 137.441 314.034 138.65C315.824 144.958 314.532 152.559 318.397 158.144C321.338 162.389 347.46 193.717 347.46 193.717L370.511 199.645" fill="white"/>
<path d="M370.511 230.666C370.669 230.687 370.827 230.644 370.953 230.547C371.079 230.45 371.161 230.308 371.181 230.151C371.202 229.993 371.159 229.834 371.062 229.709C370.965 229.583 370.823 229.501 370.665 229.481C370.416 229.421 346.108 223.101 337.097 217.801C329.804 213.508 317.413 191.797 309.208 177.426C306.243 172.244 303.694 167.762 302.093 165.307C298.787 160.204 296.332 154.598 294.824 148.707C294.149 146.217 293.793 144.402 295.062 141.972C296.33 140.382 297.743 138.913 299.283 137.584C299.369 137.602 299.458 137.602 299.544 137.584C299.692 137.531 299.813 137.421 299.882 137.28C299.95 137.138 299.961 136.975 299.911 136.825V136.825C299.188 134.691 298.382 132.592 297.611 130.553C297.16 129.367 296.722 128.181 296.283 126.996C295.844 125.81 295.88 125.253 296.283 124.909C296.487 124.757 296.734 124.676 296.988 124.676C297.242 124.676 297.49 124.757 297.694 124.909C298.225 125.348 298.654 125.899 298.951 126.521L309.065 144.035C309.13 144.151 309.232 144.241 309.355 144.29C309.478 144.34 309.614 144.346 309.741 144.308C309.844 144.263 309.931 144.19 309.994 144.098C310.057 144.006 310.093 143.898 310.097 143.786C310.028 141.744 310.434 139.715 311.283 137.857C311.383 137.58 311.56 137.338 311.793 137.158C311.857 137.12 311.931 137.1 312.006 137.1C312.081 137.1 312.155 137.12 312.219 137.158C312.826 137.574 313.25 138.206 313.405 138.924C314.015 141.335 314.412 143.795 314.591 146.276C314.982 150.545 315.397 154.968 317.911 158.584C320.828 162.817 345.942 192.876 347.01 194.157C347.089 194.252 347.197 194.319 347.318 194.347L370.369 200.275C370.521 200.312 370.682 200.288 370.817 200.208C370.952 200.128 371.051 199.999 371.092 199.849C371.112 199.773 371.116 199.694 371.106 199.617C371.095 199.54 371.069 199.465 371.029 199.398C370.989 199.331 370.937 199.272 370.874 199.225C370.812 199.179 370.741 199.145 370.665 199.125L347.792 193.196C345.859 190.825 321.706 161.892 318.883 157.861C316.512 154.493 316.156 150.225 315.765 146.11C315.6 143.554 315.203 141.018 314.579 138.533C314.454 138.001 314.22 137.501 313.891 137.064C313.562 136.627 313.147 136.263 312.67 135.995C312.436 135.896 312.183 135.853 311.93 135.87C311.676 135.886 311.43 135.962 311.212 136.09C310.756 136.363 310.406 136.781 310.216 137.276C309.561 138.676 309.14 140.174 308.97 141.711L299.911 126C299.515 125.216 298.943 124.534 298.239 124.007C297.817 123.698 297.304 123.538 296.781 123.551C296.257 123.563 295.753 123.749 295.346 124.079C294.611 124.778 294.516 125.917 295.085 127.446C295.524 128.632 295.975 129.818 296.425 131.003C297.125 132.853 297.848 134.762 298.524 136.695C296.814 138.095 295.271 139.687 293.923 141.438C292.465 144.236 292.868 146.347 293.591 149.027C295.14 155.024 297.651 160.73 301.026 165.924C302.639 168.355 305.176 172.813 308.14 177.971C316.903 193.315 328.891 214.338 336.468 218.785C345.61 224.168 369.326 230.334 370.333 230.643L370.511 230.666Z" fill="#00424D"/>
<path d="M349.227 191.216C349.227 191.216 436.285 189.378 447.337 205.006C455.937 217.976 463.139 231.82 468.823 246.306L453.171 260.939C453.24 281.632 452.187 302.315 450.016 322.894C423.04 327.637 367.156 306.057 367.63 305.843L374.745 233.512L341.425 223.22L349.227 191.216Z" fill="#0FBFC4"/>
<path d="M454.19 255.507C454.268 255.504 454.345 255.486 454.416 255.453C454.486 255.421 454.55 255.374 454.603 255.317C454.656 255.26 454.697 255.193 454.724 255.119C454.75 255.046 454.763 254.969 454.76 254.891C454.76 253.586 453.728 222.721 449.495 211.931C449.467 211.857 449.425 211.79 449.371 211.733C449.317 211.676 449.252 211.631 449.18 211.6C449.108 211.569 449.031 211.553 448.952 211.553C448.874 211.552 448.796 211.568 448.724 211.599C448.651 211.625 448.584 211.666 448.527 211.718C448.471 211.771 448.425 211.835 448.394 211.906C448.363 211.978 448.347 212.054 448.347 212.132C448.346 212.209 448.362 212.286 448.392 212.358C452.542 222.958 453.562 254.618 453.574 254.926C453.58 255.085 453.648 255.234 453.763 255.343C453.879 255.451 454.032 255.51 454.19 255.507Z" fill="#00424D"/>
<path d="M386.661 237.211C386.79 237.213 386.916 237.172 387.019 237.095C387.122 237.018 387.196 236.908 387.23 236.784C387.271 236.632 387.25 236.47 387.172 236.332C387.095 236.195 386.967 236.093 386.815 236.049L362.211 229.053C362.054 229.009 361.885 229.029 361.743 229.109C361.601 229.189 361.496 229.323 361.452 229.48C361.408 229.637 361.428 229.805 361.508 229.948C361.588 230.09 361.722 230.195 361.879 230.239L386.495 237.235C386.552 237.239 386.608 237.231 386.661 237.211Z" fill="#00424D"/>
<path d="M207.935 319.903H205.322V317.568H207.074H208.322L207.523 316.609L204.602 313.104L204.153 312.565L203.704 313.104L200.783 316.609L199.984 317.568H201.232H202.984V319.903H200.37C199.27 319.848 198.37 319.485 197.674 318.79C196.978 318.094 196.615 317.193 196.56 316.093C196.563 315.088 196.91 314.289 197.529 313.567C198.126 312.871 198.919 312.469 199.892 312.366L200.31 312.322L200.401 311.912C200.613 310.959 201.023 310.215 201.71 309.674C202.433 309.107 203.242 308.806 204.153 308.806C205.064 308.806 205.873 309.107 206.595 309.674C207.283 310.215 207.693 310.959 207.905 311.912L207.996 312.322L208.414 312.366C209.365 312.466 210.17 312.914 210.784 313.575C211.398 314.295 211.743 315.092 211.746 316.093C211.691 317.193 211.328 318.094 210.632 318.79C209.936 319.485 209.036 319.848 207.935 319.903Z" fill="#00424D" stroke="#00424D" stroke-width="1.1695"/>
<path d="M227.025 310.341H228.57V317.054C228.57 317.769 228.402 318.402 228.067 318.953C227.731 319.501 227.259 319.933 226.651 320.249C226.043 320.561 225.331 320.717 224.513 320.717C223.699 320.717 222.988 320.561 222.38 320.249C221.772 319.933 221.3 319.501 220.965 318.953C220.629 318.402 220.462 317.769 220.462 317.054V310.341H222.001V316.93C222.001 317.392 222.103 317.802 222.305 318.161C222.511 318.52 222.802 318.802 223.178 319.008C223.553 319.211 223.998 319.312 224.513 319.312C225.032 319.312 225.478 319.211 225.854 319.008C226.233 318.802 226.522 318.52 226.721 318.161C226.924 317.802 227.025 317.392 227.025 316.93V310.341ZM230.689 323.418V312.893H232.144V314.134H232.269C232.355 313.974 232.48 313.79 232.643 313.581C232.806 313.371 233.032 313.189 233.321 313.032C233.61 312.873 233.992 312.793 234.467 312.793C235.085 312.793 235.636 312.949 236.121 313.262C236.607 313.574 236.987 314.024 237.263 314.612C237.542 315.2 237.681 315.908 237.681 316.735C237.681 317.563 237.543 318.272 237.268 318.863C236.992 319.451 236.613 319.905 236.131 320.224C235.65 320.54 235.1 320.697 234.482 320.697C234.017 320.697 233.636 320.619 233.341 320.463C233.048 320.307 232.819 320.124 232.653 319.915C232.487 319.706 232.359 319.52 232.269 319.357H232.179V323.418H230.689ZM232.149 316.72C232.149 317.259 232.228 317.73 232.384 318.136C232.54 318.541 232.766 318.858 233.061 319.088C233.357 319.314 233.719 319.427 234.148 319.427C234.593 319.427 234.965 319.309 235.264 319.073C235.563 318.833 235.789 318.51 235.942 318.101C236.098 317.692 236.176 317.232 236.176 316.72C236.176 316.215 236.1 315.762 235.947 315.36C235.798 314.958 235.572 314.641 235.269 314.408C234.97 314.175 234.596 314.059 234.148 314.059C233.716 314.059 233.351 314.17 233.052 314.393C232.756 314.616 232.532 314.926 232.379 315.325C232.226 315.724 232.149 316.189 232.149 316.72ZM240.841 310.341V320.548H239.351V310.341H240.841ZM246.07 320.702C245.352 320.702 244.726 320.538 244.191 320.209C243.656 319.88 243.241 319.42 242.945 318.828C242.65 318.237 242.502 317.546 242.502 316.755C242.502 315.961 242.65 315.267 242.945 314.672C243.241 314.077 243.656 313.616 244.191 313.287C244.726 312.958 245.352 312.793 246.07 312.793C246.788 312.793 247.414 312.958 247.949 313.287C248.484 313.616 248.899 314.077 249.195 314.672C249.491 315.267 249.638 315.961 249.638 316.755C249.638 317.546 249.491 318.237 249.195 318.828C248.899 319.42 248.484 319.88 247.949 320.209C247.414 320.538 246.788 320.702 246.07 320.702ZM246.075 319.451C246.54 319.451 246.926 319.329 247.231 319.083C247.537 318.837 247.763 318.51 247.909 318.101C248.059 317.692 248.133 317.242 248.133 316.75C248.133 316.262 248.059 315.813 247.909 315.405C247.763 314.993 247.537 314.662 247.231 314.413C246.926 314.164 246.54 314.039 246.075 314.039C245.607 314.039 245.218 314.164 244.909 314.413C244.603 314.662 244.376 314.993 244.226 315.405C244.08 315.813 244.007 316.262 244.007 316.75C244.007 317.242 244.08 317.692 244.226 318.101C244.376 318.51 244.603 318.837 244.909 319.083C245.218 319.329 245.607 319.451 246.075 319.451ZM253.529 320.717C253.044 320.717 252.606 320.628 252.214 320.448C251.822 320.265 251.511 320.001 251.282 319.656C251.056 319.31 250.943 318.887 250.943 318.385C250.943 317.953 251.026 317.598 251.192 317.318C251.358 317.039 251.582 316.818 251.865 316.656C252.147 316.493 252.463 316.37 252.812 316.287C253.161 316.204 253.516 316.141 253.878 316.097C254.337 316.044 254.709 316.001 254.995 315.968C255.28 315.931 255.488 315.873 255.618 315.793C255.747 315.714 255.812 315.584 255.812 315.405V315.37C255.812 314.935 255.689 314.597 255.443 314.358C255.201 314.119 254.838 313.999 254.357 313.999C253.855 313.999 253.46 314.111 253.171 314.333C252.885 314.553 252.687 314.797 252.577 315.066L251.177 314.747C251.343 314.282 251.586 313.906 251.905 313.621C252.227 313.332 252.597 313.122 253.016 312.993C253.435 312.86 253.875 312.793 254.337 312.793C254.642 312.793 254.966 312.83 255.309 312.903C255.654 312.973 255.976 313.102 256.275 313.292C256.578 313.481 256.825 313.752 257.018 314.104C257.211 314.453 257.307 314.906 257.307 315.465V320.548H255.852V319.501H255.792C255.696 319.694 255.551 319.883 255.358 320.069C255.166 320.255 254.918 320.41 254.616 320.533C254.313 320.656 253.951 320.717 253.529 320.717ZM253.853 319.521C254.265 319.521 254.617 319.44 254.91 319.277C255.206 319.114 255.43 318.902 255.583 318.639C255.739 318.373 255.817 318.089 255.817 317.787V316.8C255.764 316.853 255.661 316.903 255.508 316.95C255.358 316.993 255.187 317.031 254.995 317.064C254.802 317.094 254.614 317.122 254.431 317.149C254.249 317.172 254.096 317.192 253.973 317.209C253.684 317.245 253.42 317.307 253.181 317.393C252.945 317.48 252.755 317.604 252.612 317.767C252.473 317.926 252.403 318.139 252.403 318.405C252.403 318.774 252.539 319.053 252.812 319.242C253.084 319.428 253.431 319.521 253.853 319.521ZM262.157 320.697C261.539 320.697 260.988 320.54 260.503 320.224C260.021 319.905 259.642 319.451 259.366 318.863C259.094 318.272 258.958 317.563 258.958 316.735C258.958 315.908 259.096 315.2 259.371 314.612C259.651 314.024 260.033 313.574 260.518 313.262C261.003 312.949 261.553 312.793 262.167 312.793C262.642 312.793 263.024 312.873 263.314 313.032C263.606 313.189 263.832 313.371 263.991 313.581C264.154 313.79 264.28 313.974 264.37 314.134H264.46V310.341H265.95V320.548H264.495V319.357H264.37C264.28 319.52 264.151 319.706 263.981 319.915C263.815 320.124 263.586 320.307 263.294 320.463C263.001 320.619 262.622 320.697 262.157 320.697ZM262.486 319.427C262.915 319.427 263.277 319.314 263.573 319.088C263.872 318.858 264.098 318.541 264.25 318.136C264.407 317.73 264.485 317.259 264.485 316.72C264.485 316.189 264.408 315.724 264.255 315.325C264.103 314.926 263.878 314.616 263.583 314.393C263.287 314.17 262.921 314.059 262.486 314.059C262.038 314.059 261.664 314.175 261.365 314.408C261.066 314.641 260.84 314.958 260.687 315.36C260.538 315.762 260.463 316.215 260.463 316.72C260.463 317.232 260.539 317.692 260.692 318.101C260.845 318.51 261.071 318.833 261.37 319.073C261.672 319.309 262.044 319.427 262.486 319.427ZM275.434 312.893V314.089H271.108V312.893H275.434ZM272.294 320.548V312.006C272.294 311.527 272.399 311.13 272.608 310.815C272.817 310.496 273.095 310.258 273.44 310.102C273.786 309.943 274.161 309.863 274.567 309.863C274.866 309.863 275.122 309.888 275.334 309.938C275.547 309.984 275.705 310.027 275.808 310.067L275.459 311.273C275.389 311.253 275.299 311.23 275.19 311.203C275.08 311.174 274.947 311.159 274.791 311.159C274.429 311.159 274.17 311.248 274.013 311.428C273.861 311.607 273.784 311.866 273.784 312.205V320.548H272.294ZM276.971 320.548V312.893H278.461V320.548H276.971ZM277.724 311.712C277.465 311.712 277.242 311.625 277.056 311.453C276.873 311.277 276.782 311.067 276.782 310.825C276.782 310.579 276.873 310.37 277.056 310.197C277.242 310.021 277.465 309.933 277.724 309.933C277.983 309.933 278.204 310.021 278.387 310.197C278.573 310.37 278.666 310.579 278.666 310.825C278.666 311.067 278.573 311.277 278.387 311.453C278.204 311.625 277.983 311.712 277.724 311.712ZM281.956 310.341V320.548H280.466V310.341H281.956ZM287.26 320.702C286.506 320.702 285.856 320.541 285.311 320.219C284.77 319.893 284.351 319.436 284.056 318.848C283.763 318.257 283.617 317.564 283.617 316.77C283.617 315.986 283.763 315.295 284.056 314.697C284.351 314.099 284.763 313.632 285.291 313.297C285.823 312.961 286.444 312.793 287.155 312.793C287.587 312.793 288.006 312.865 288.411 313.008C288.817 313.15 289.18 313.375 289.503 313.68C289.825 313.986 290.079 314.383 290.265 314.871C290.451 315.357 290.544 315.946 290.544 316.641V317.169H284.459V316.053H289.084C289.084 315.661 289.004 315.313 288.845 315.011C288.685 314.705 288.461 314.464 288.172 314.288C287.886 314.112 287.551 314.024 287.165 314.024C286.747 314.024 286.381 314.127 286.069 314.333C285.76 314.536 285.521 314.802 285.351 315.131C285.185 315.456 285.102 315.81 285.102 316.192V317.064C285.102 317.576 285.192 318.011 285.371 318.37C285.554 318.729 285.808 319.003 286.134 319.192C286.459 319.378 286.84 319.471 287.275 319.471C287.557 319.471 287.815 319.432 288.047 319.352C288.28 319.269 288.481 319.146 288.65 318.983C288.82 318.82 288.95 318.619 289.039 318.38L290.45 318.634C290.337 319.049 290.134 319.413 289.842 319.726C289.553 320.035 289.189 320.275 288.75 320.448C288.315 320.618 287.818 320.702 287.26 320.702Z" fill="#00424D"/>
<defs>
<filter id="filter0_d_189_7835" x="0.860035" y="0.961127" width="382.053" height="269.902" filterUnits="userSpaceOnUse" color-interpolation-filters="sRGB">
<feFlood flood-opacity="0" result="BackgroundImageFix"/>
<feColorMatrix in="SourceAlpha" type="matrix" values="0 0 0 0 0 0 0 0 0 0 0 0 0 0 0 0 0 0 127 0" result="hardAlpha"/>
<feOffset dy="4.678"/>
<feGaussianBlur stdDeviation="9.35599"/>
<feComposite in2="hardAlpha" operator="out"/>
<feColorMatrix type="matrix" values="0 0 0 0 0.0470588 0 0 0 0 0.152941 0 0 0 0 0.121569 0 0 0 0.1 0"/>
<feBlend mode="normal" in2="BackgroundImageFix" result="effect1_dropShadow_189_7835"/>
<feBlend mode="normal" in="SourceGraphic" in2="effect1_dropShadow_189_7835" result="shape"/>
</filter>
<filter id="filter1_d_189_7835" x="152.718" y="145.809" width="184.181" height="224.271" filterUnits="userSpaceOnUse" color-interpolation-filters="sRGB">
<feFlood flood-opacity="0" result="BackgroundImageFix"/>
<feColorMatrix in="SourceAlpha" type="matrix" values="0 0 0 0 0 0 0 0 0 0 0 0 0 0 0 0 0 0 127 0" result="hardAlpha"/>
<feOffset dy="4.678"/>
<feGaussianBlur stdDeviation="15.2035"/>
<feComposite in2="hardAlpha" operator="out"/>
<feColorMatrix type="matrix" values="0 0 0 0 0.0470588 0 0 0 0 0.152941 0 0 0 0 0.121569 0 0 0 0.1 0"/>
<feBlend mode="normal" in2="BackgroundImageFix" result="effect1_dropShadow_189_7835"/>
<feBlend mode="normal" in="SourceGraphic" in2="effect1_dropShadow_189_7835" result="shape"/>
</filter>
</defs>
</svg>
