<svg width="651" height="426" viewBox="0 0 651 426" fill="none" xmlns="http://www.w3.org/2000/svg">
<ellipse cx="209.385" cy="381.603" rx="178.871" ry="22.4643" fill="#E3E6EB"/>
<ellipse cx="504.674" cy="410.744" rx="60.6343" ry="12.75" fill="#F1F2F5"/>
<path d="M136.696 369.126C136.696 369.126 134.563 379.554 137.858 381.857C141.152 384.16 169.561 374.55 168.742 371.315C167.924 368.079 151.815 366.424 151.815 366.424C151.815 366.424 139.152 370.097 136.696 369.126Z" fill="#1C222B"/>
<path d="M139.478 383.41C138.65 383.474 137.821 383.304 137.083 382.918C133.335 380.242 135.286 369.913 135.518 368.753C135.544 368.606 135.602 368.468 135.69 368.348C135.777 368.229 135.89 368.132 136.02 368.064C136.15 368.001 136.292 367.968 136.435 367.968C136.579 367.968 136.721 368.001 136.851 368.064C138.184 368.654 145.371 367.08 151.533 365.231C151.654 365.202 151.78 365.202 151.9 365.231C155.9 365.644 168.998 367.297 169.925 371.015C170.234 372.294 168.959 373.337 167.993 374.025C162.912 377.547 146.201 383.41 139.478 383.41ZM137.237 370.071C136.561 374.006 136.31 379.908 138.203 381.305C138.995 381.875 144.211 381.305 153.291 378.314C162.371 375.324 167.703 372.274 168.051 371.291C167.684 369.992 160.324 368.044 151.9 367.159C149.621 367.828 140.985 370.327 137.237 370.071Z" fill="#1C222B"/>
<path d="M94.8262 368.852C94.8262 368.852 94.4815 381.476 95.8025 383.029C97.1235 384.582 126.434 381.317 125.056 377.195C123.677 373.073 111.827 368.852 111.827 368.852H94.8262Z" fill="#1C222B"/>
<path d="M99.0454 384.575C97.6157 384.761 96.1615 384.53 94.866 383.912C93.4275 382.339 93.5247 373.493 93.6219 369.761C93.632 369.516 93.7388 369.285 93.92 369.115C94.1012 368.946 94.3427 368.851 94.5939 368.852H111.856H112.186C113.45 369.287 124.569 373.133 126.202 377.357C126.416 377.926 126.513 379.043 124.725 380.104C120.973 382.339 106.413 384.575 99.0454 384.575ZM96.2656 382.567C98.6372 383.249 116.444 381.62 122.722 379.005C124.2 378.38 124.375 377.982 124.375 377.982C123.403 375.539 116.152 372.299 111.7 370.746H95.5464C95.4492 375.823 95.6825 381.43 96.2656 382.567Z" fill="#1C222B"/>
<path d="M93.5731 329.113L94.8955 369.09C94.8955 369.09 107.448 374.021 111.914 369.09L115.401 325.139L93.5731 329.113Z" fill="white"/>
<path d="M105.567 372.463C101.759 372.342 97.9962 371.605 94.4282 370.281C94.2495 370.213 94.095 370.094 93.984 369.94C93.873 369.785 93.8104 369.602 93.804 369.412L92.3605 328.917C92.3568 328.683 92.4372 328.456 92.5873 328.276C92.7373 328.095 92.9474 327.973 93.1798 327.932L115.477 323.935C115.622 323.914 115.77 323.923 115.911 323.963C116.053 324.003 116.184 324.072 116.296 324.167C116.409 324.263 116.497 324.386 116.551 324.524C116.606 324.662 116.625 324.811 116.608 324.958L113.077 369.374C113.062 369.586 112.98 369.789 112.843 369.953C111.875 370.851 110.727 371.539 109.474 371.971C108.22 372.404 106.89 372.571 105.567 372.463ZM95.8133 368.601C99.5196 369.914 107.908 372.019 111.244 368.852L114.657 326.04L94.4282 329.728L95.8133 368.601Z" fill="#1C222B"/>
<path d="M151.782 323.854V366.732C149.532 368.274 146.956 369.316 144.241 369.785C141.525 370.254 138.735 370.138 136.071 369.446L126.316 317.854L151.782 323.854Z" fill="white"/>
<path d="M141.473 371.281C139.783 371.281 138.1 371.054 136.47 370.606C136.295 370.561 136.137 370.466 136.015 370.332C135.892 370.199 135.811 370.033 135.779 369.854L126.328 317.768C126.303 317.611 126.316 317.449 126.366 317.298C126.416 317.147 126.502 317.01 126.616 316.9C126.731 316.789 126.873 316.71 127.027 316.669C127.181 316.629 127.343 316.628 127.498 316.668L152.266 322.726C152.476 322.771 152.663 322.888 152.796 323.057C152.929 323.226 152.999 323.436 152.995 323.652V366.941C152.992 367.084 152.961 367.224 152.901 367.354C152.842 367.483 152.756 367.599 152.649 367.693C149.388 370.035 145.48 371.29 141.473 371.281ZM137.543 368.889C139.829 369.413 142.196 369.466 144.502 369.045C146.808 368.624 149.006 367.738 150.962 366.439V324.366L128.456 318.887L137.543 368.889Z" fill="#1C222B"/>
<path d="M86.9189 217.066L83.8716 335.279C83.8716 335.279 131.741 348.691 162.696 328.842L140.632 228.639L86.9189 217.066Z" fill="#1C222B"/>
<path d="M118.404 340.924C106.585 340.887 94.8138 339.421 83.3483 336.558C83.1431 336.505 82.9625 336.384 82.837 336.213C82.7116 336.043 82.6491 335.835 82.6602 335.624L85.6803 217.998C85.6795 217.858 85.712 217.719 85.7751 217.593C85.8382 217.467 85.9301 217.358 86.0435 217.274C86.1529 217.188 86.2794 217.127 86.4146 217.094C86.5498 217.061 86.6905 217.058 86.8272 217.083L140.119 228.522C140.297 228.559 140.461 228.647 140.59 228.776C140.719 228.905 140.808 229.068 140.845 229.246L162.674 328.951C162.716 329.142 162.698 329.342 162.623 329.523C162.548 329.703 162.419 329.857 162.253 329.962C149.083 338.502 132.779 340.924 118.404 340.924ZM84.5908 334.918C90.5736 336.443 132.74 346.261 160.667 328.78L139.105 230.333L87.4962 219.2L84.5908 334.918Z" fill="#1C222B"/>
<path d="M144.506 195.206C144.506 195.206 152.838 165.682 156.877 162.875C160.916 160.068 168.76 156.611 168.76 160.564C168.76 164.517 162.906 196.18 153.852 195.187C144.799 194.194 144.506 195.206 144.506 195.206Z" fill="white"/>
<path d="M154.266 196.385H153.708C147.042 195.668 145.33 196.036 144.992 196.153C144.868 196.271 144.715 196.354 144.547 196.395C144.379 196.436 144.203 196.433 144.037 196.385C143.785 196.321 143.569 196.164 143.435 195.946C143.301 195.729 143.26 195.469 143.32 195.222V195.048C144.375 191.344 152.057 164.763 156.276 161.835C158.485 160.304 165.47 156.31 168.574 157.958C169.021 158.188 169.39 158.539 169.637 158.969C169.885 159.399 169.999 159.89 169.967 160.381C169.967 164.026 165.569 188.417 158.186 194.834C157.117 195.8 155.723 196.352 154.266 196.385ZM147.34 194.078C149.543 194.108 151.742 194.257 153.927 194.524C154.482 194.552 155.036 194.462 155.551 194.261C156.066 194.061 156.531 193.753 156.912 193.361C163.42 187.699 168.037 164.278 168.037 160.401C168.037 159.858 167.838 159.742 167.718 159.703C166.325 158.985 161.35 160.866 157.49 163.58C154.823 165.519 149.072 182.697 145.728 194.233C146.166 194.13 146.704 194.078 147.34 194.078Z" fill="#1C222B"/>
<path d="M188.073 187.924C187.324 187.924 155.42 182.999 155.42 182.999L173.475 136.924L208.778 140.455L188.073 187.924Z" fill="white"/>
<path d="M187.432 189.138C186.693 189.138 162.402 185.289 154.975 184.154C154.834 184.133 154.7 184.081 154.582 184.001C154.464 183.922 154.365 183.816 154.293 183.692C154.236 183.558 154.207 183.414 154.207 183.268C154.207 183.123 154.236 182.979 154.293 182.845L172.141 136.315C172.213 136.116 172.35 135.948 172.53 135.839C172.709 135.731 172.92 135.688 173.126 135.719L207.952 139.279C208.1 139.298 208.242 139.352 208.367 139.435C208.491 139.518 208.596 139.629 208.672 139.76C208.742 139.893 208.778 140.042 208.778 140.193C208.778 140.344 208.742 140.492 208.672 140.626L188.322 188.56C188.245 188.734 188.12 188.881 187.962 188.983C187.804 189.086 187.619 189.139 187.432 189.138ZM156.434 182.441C167.802 184.211 183.453 186.674 186.844 187.136L206.417 141.068L173.581 137.701L156.434 182.441Z" fill="#1C222B"/>
<path d="M81.6844 111.424C78.519 111.474 75.3969 112.164 72.5082 113.454C67.4873 115.541 62.601 119.198 61.2159 124.387C60.1194 128.638 61.5237 133.138 63.409 137.102C65.2942 141.065 67.6412 144.914 68.603 149.204C69.5649 153.493 68.7184 158.548 65.2173 161.21C69.8585 159.713 74.2246 157.475 78.1447 154.584C80.4688 152.894 82.0634 150.39 82.6078 147.576C82.7174 145.245 82.2691 142.922 81.2996 140.797C79.8849 137.628 79.0261 134.241 78.7603 130.783C78.6461 129.048 79.0083 127.316 79.8081 125.771C80.6079 124.226 81.8151 122.927 83.3003 122.013C85.9935 120.615 94.5734 121.209 93.4769 116.268C92.7074 112.534 84.7431 111.481 81.6844 111.424Z" fill="white"/>
<path d="M65.0337 162.329C64.8606 162.332 64.6899 162.289 64.5393 162.206C64.3888 162.123 64.2638 162.003 64.1772 161.858C64.0656 161.656 64.0298 161.424 64.076 161.2C64.1222 160.976 64.2475 160.775 64.4303 160.631C67.9342 158.045 68.3236 153.081 67.506 149.74C66.6651 146.712 65.4424 143.796 63.8657 141.057C63.3401 140.057 62.8146 139.057 62.3084 138.037C59.7583 132.771 59.0575 128.6 60.0503 124.825C61.7634 118.426 68.3041 114.935 72.0417 113.5C75.1041 112.166 78.4177 111.459 81.7749 111.424C85.0063 111.424 93.63 112.556 94.6617 117.086C94.7939 117.582 94.8206 118.099 94.7403 118.605C94.66 119.111 94.4743 119.596 94.1945 120.031C92.9097 121.918 89.8535 122.447 87.1671 122.919C86.0349 123.052 84.9236 123.318 83.8578 123.711C82.5224 124.539 81.4404 125.699 80.7248 127.07C80.0092 128.441 79.6861 129.973 79.7893 131.507C80.0409 134.664 80.8371 137.759 82.1447 140.661L82.3005 141.057C83.3409 143.295 83.8148 145.741 83.6826 148.192C83.1072 151.216 81.3675 153.915 78.816 155.742C74.7624 158.648 70.2536 160.904 65.462 162.424C65.3142 162.42 65.1686 162.388 65.0337 162.329ZM81.4634 113.255C78.4694 113.323 75.5189 113.965 72.7814 115.142C69.3747 116.52 63.4375 119.672 61.9386 125.278C61.0626 128.562 61.7439 132.337 64.0799 137.188C64.5665 138.188 65.0727 139.189 65.5983 140.17C67.2865 143.045 68.5945 146.114 69.4915 149.306C70.3003 152.599 69.9011 156.063 68.3625 159.102C71.6824 157.899 74.7938 156.212 77.5896 154.1C79.6866 152.565 81.139 150.346 81.6775 147.852C81.7681 145.7 81.3276 143.559 80.3928 141.605L80.237 141.19C78.8391 138.093 78.0028 134.785 77.7648 131.412C77.6581 129.537 78.0778 127.669 78.9794 126.008C79.881 124.346 81.2306 122.952 82.8845 121.975C84.1309 121.48 85.4404 121.149 86.7778 120.993C88.958 120.616 91.6833 120.125 92.5009 118.917C92.6461 118.702 92.7391 118.458 92.7728 118.203C92.8066 117.948 92.7801 117.689 92.6956 117.445C92.0142 114.463 84.909 113.387 81.697 113.33H81.4829L81.4634 113.255Z" fill="#1C222B"/>
<path d="M85.2946 112.821C84.2073 114.586 83.7202 116.686 83.9127 118.78C83.9439 120.169 84.3602 121.519 85.1103 122.662C85.607 123.338 86.2476 123.882 86.9806 124.25C87.7135 124.617 88.5182 124.798 89.3297 124.778C90.0529 124.811 90.7601 124.547 91.3012 124.04C91.7114 123.575 91.9863 122.996 92.0934 122.371C93.1989 117.984 90.859 104.611 85.2946 112.821Z" fill="#1C222B"/>
<path d="M89.2591 125.993C88.2829 126.001 87.3175 125.797 86.4351 125.397C85.5527 124.997 84.7762 124.411 84.1635 123.683C83.2485 122.431 82.741 120.947 82.7048 119.418C82.4835 117.195 83.0672 114.965 84.358 113.105C86.6919 109.938 88.6367 109.938 89.8231 110.479C93.1295 111.95 94.1602 119.791 93.2656 122.994C93.0992 123.756 92.7154 124.459 92.157 125.024C91.4091 125.676 90.4255 126.024 89.4147 125.993H89.2591ZM88.5784 112.08C87.6449 112.08 86.6335 113.347 85.9139 114.185C84.8981 115.699 84.4458 117.497 84.6303 119.288C84.6457 120.449 85.0104 121.58 85.6805 122.547C86.1159 123.074 86.6771 123.493 87.3168 123.768C87.9565 124.044 88.656 124.168 89.3564 124.13C89.8728 124.147 90.3799 123.996 90.7956 123.702C91.0828 123.355 91.2765 122.946 91.3596 122.51C92.1181 119.791 91.0873 113.198 88.9868 112.155C88.8575 112.103 88.7185 112.078 88.5784 112.08Z" fill="#1C222B"/>
<path d="M111.931 142.305C111.081 143.121 110.031 143.704 108.884 143.997C107.736 144.29 106.532 144.282 105.388 143.974C102.744 143.471 100.268 142.324 98.1857 140.637C94.0988 137.463 90.989 133.226 89.2056 128.403C87.4223 123.579 87.0361 118.36 88.0904 113.331C90.3813 103.149 101.292 93.4843 112.222 97.9906C114.067 98.7648 115.717 99.9279 117.059 101.399C118.4 102.869 119.4 104.612 119.988 106.505C120.757 106.29 121.574 106.303 122.336 106.542C123.099 106.78 123.774 107.234 124.278 107.847C127.015 110.819 126.724 113.849 124.996 117.185C122.162 122.65 118.764 127.828 116.182 133.408C114.649 136.687 113.93 140.234 111.931 142.305Z" fill="white"/>
<path d="M107.247 145.419C106.587 145.411 105.93 145.354 105.279 145.248C102.436 144.735 99.7708 143.545 97.5287 141.787C93.2207 138.558 89.9426 134.231 88.0679 129.297C86.1932 124.364 85.7974 119.024 86.9255 113.885C87.6935 110.698 89.1522 107.703 91.2065 105.095C93.2607 102.488 95.8642 100.326 98.8467 98.7522C100.958 97.6376 103.303 96.9958 105.708 96.8746C108.112 96.7534 110.515 97.156 112.735 98.0523C114.58 98.8123 116.244 99.9254 117.628 101.324C119.011 102.722 120.084 104.377 120.781 106.186C121.613 106.139 122.444 106.277 123.212 106.588C123.979 106.9 124.662 107.377 125.207 107.983C128.846 111.861 127.45 115.701 126.092 118.274C124.892 120.506 123.594 122.7 122.335 124.838C120.545 127.883 118.696 131.023 117.161 134.296C116.669 135.336 116.256 136.414 115.863 137.455C115.238 139.6 114.167 141.602 112.715 143.338C112.007 144.034 111.154 144.579 110.211 144.938C109.269 145.296 108.259 145.46 107.247 145.419ZM106.558 98.79C104.156 98.8162 101.796 99.3934 99.6729 100.474C96.9511 101.912 94.5743 103.885 92.6968 106.264C90.8193 108.643 89.483 111.375 88.7747 114.282C87.7603 119.068 88.1422 124.031 89.8781 128.621C91.614 133.211 94.6362 137.251 98.6106 140.292C100.599 141.854 102.957 142.919 105.476 143.395C108.938 143.905 110.433 142.865 111.24 142.033C112.491 140.477 113.42 138.705 113.974 136.812C114.387 135.733 114.82 134.617 115.332 133.52C116.905 130.229 118.774 127.051 120.584 124.062C121.843 121.944 123.122 119.749 124.302 117.555C126.092 114.188 125.915 111.748 123.712 109.402C123.332 108.941 122.822 108.596 122.242 108.408C121.663 108.22 121.039 108.197 120.446 108.343C120.193 108.438 119.913 108.438 119.66 108.343C119.42 108.214 119.238 108.005 119.148 107.756C118.614 105.997 117.68 104.374 116.415 103.003C115.15 101.632 113.584 100.549 111.83 99.8304C110.162 99.1506 108.37 98.797 106.558 98.79Z" fill="#1C222B"/>
<path d="M121.465 119.924C121.465 119.924 128.127 125.516 127.485 127.048C126.843 128.579 123.191 128.419 123.191 128.419" fill="white"/>
<path d="M123.1 129.638H122.629C122.511 129.63 122.394 129.599 122.287 129.545C122.18 129.49 122.084 129.415 122.005 129.322C121.926 129.229 121.865 129.121 121.827 129.004C121.788 128.886 121.772 128.762 121.779 128.639C121.798 128.39 121.908 128.159 122.087 127.994C122.266 127.829 122.499 127.742 122.738 127.753C123.86 127.753 125.47 127.583 125.705 126.923C125.941 126.264 123.299 123.153 120.512 120.326C120.346 120.147 120.252 119.907 120.252 119.657C120.252 119.407 120.346 119.167 120.512 118.988C120.597 118.899 120.697 118.829 120.807 118.781C120.917 118.734 121.035 118.709 121.155 118.709C121.274 118.709 121.392 118.734 121.503 118.781C121.613 118.829 121.713 118.899 121.797 118.988C124.746 121.891 128.112 125.736 127.442 127.621C126.773 129.506 124.185 129.638 123.1 129.638Z" fill="#1C222B"/>
<path d="M122.506 157.563C115.287 157.754 103.402 149.572 103.329 149.286C102.262 144.38 101.434 139.422 100.849 134.429C102.517 133.857 104.002 132.823 105.145 131.438C106.287 130.053 107.044 128.371 107.333 126.572C108.876 119.783 115.011 119.058 117.859 110.209C121.275 111.944 121.532 117.284 122.322 120.641C123.351 125.371 124.159 130.177 125.077 134.868C125.592 137.881 118.152 139.75 116.646 139.178C118.061 143.622 118.061 143.622 122.506 157.563Z" fill="white"/>
<path d="M122.509 158.647C115.439 158.647 102.558 150.969 102.201 149.606C101.1 144.624 100.247 139.588 99.6436 134.518C99.6148 134.28 99.674 134.04 99.8097 133.844C99.9454 133.649 100.148 133.513 100.377 133.462C100.546 133.462 104.871 132.31 106.281 126.186C107.116 123.168 108.843 120.486 111.227 118.508C113.909 116.134 115.932 113.082 117.094 109.658C117.129 109.526 117.195 109.404 117.287 109.304C117.379 109.203 117.493 109.127 117.62 109.082C117.741 109.026 117.872 108.996 118.006 108.996C118.139 108.996 118.27 109.026 118.391 109.082C121.719 110.752 122.49 114.995 123.111 118.412C123.224 119.064 123.336 119.679 123.468 120.331C124.502 125.054 125.348 129.93 126.289 134.69C126.364 135.268 126.281 135.855 126.048 136.387C125.816 136.92 125.443 137.375 124.972 137.704C122.935 139.176 120.542 140.052 118.053 140.238C119.143 143.617 119.576 144.98 123.694 157.515C123.742 157.658 123.756 157.81 123.737 157.96C123.717 158.11 123.664 158.253 123.581 158.379C123.489 158.495 123.375 158.59 123.246 158.66C123.116 158.729 122.974 158.77 122.829 158.782L122.509 158.647ZM103.95 148.838C105.529 150.086 115.006 156.037 121.418 156.67C117.3 143.943 117.244 143.809 115.777 139.393C115.723 139.223 115.717 139.041 115.76 138.868C115.803 138.694 115.894 138.537 116.022 138.414C116.149 138.289 116.308 138.203 116.481 138.165C116.654 138.128 116.834 138.141 117 138.203C119.418 138.247 121.788 137.508 123.769 136.092C124.277 135.65 124.502 135.247 124.427 134.882C123.6 130.083 122.66 125.284 121.625 120.6C121.494 120.024 121.381 119.391 121.268 118.681C120.798 116.089 120.215 112.922 118.447 111.328C117.134 114.566 115.115 117.454 112.543 119.775C110.42 121.517 108.871 123.882 108.105 126.551C107.791 128.397 107.032 130.133 105.896 131.604C104.76 133.076 103.283 134.235 101.599 134.978C101.919 137.435 102.897 144.73 103.95 148.838Z" fill="#1C222B"/>
<path d="M125.103 132.254C124.711 132.593 124.232 132.86 123.699 133.037C123.167 133.214 122.593 133.296 122.018 133.278C121.442 133.261 120.878 133.143 120.364 132.934C119.85 132.725 119.398 132.429 119.039 132.066" fill="white"/>
<path d="M121.52 134.494H121.363C120.739 134.441 120.132 134.243 119.583 133.912C119.034 133.582 118.555 133.127 118.179 132.578C118.076 132.494 117.992 132.387 117.931 132.263C117.87 132.139 117.835 132.003 117.828 131.862C117.821 131.722 117.842 131.582 117.89 131.451C117.938 131.321 118.012 131.204 118.105 131.108C118.199 131.013 118.311 130.941 118.433 130.898C118.555 130.855 118.685 130.841 118.812 130.859C118.939 130.877 119.061 130.925 119.17 131C119.278 131.076 119.37 131.176 119.439 131.295C119.663 131.629 119.949 131.909 120.277 132.117C120.605 132.324 120.969 132.455 121.345 132.502C122.195 132.465 123.004 132.09 123.62 131.448C123.783 131.272 124.003 131.174 124.232 131.174C124.461 131.174 124.681 131.272 124.844 131.448C124.926 131.537 124.991 131.643 125.036 131.76C125.08 131.876 125.103 132.002 125.103 132.128C125.103 132.255 125.08 132.38 125.036 132.496C124.991 132.613 124.926 132.719 124.844 132.808C123.95 133.778 122.774 134.375 121.52 134.494Z" fill="#1C222B"/>
<path d="M117.016 139.617C115.889 139.799 114.733 139.762 113.621 139.507C112.509 139.253 111.464 138.787 110.551 138.139C110.551 138.139 112.441 144.819 119.039 145.424L117.016 139.617Z" fill="#1C222B"/>
<path d="M119.142 146.634C111.657 145.928 109.454 138.451 109.374 138.127C109.317 137.927 109.328 137.715 109.407 137.523C109.486 137.33 109.627 137.167 109.811 137.059C109.996 136.954 110.212 136.908 110.426 136.929C110.64 136.949 110.842 137.035 111.002 137.173C111.852 137.766 112.817 138.191 113.839 138.424C114.861 138.656 115.921 138.691 116.958 138.527C117.191 138.488 117.431 138.529 117.635 138.645C117.839 138.76 117.993 138.942 118.07 139.157L120.194 145.394C120.251 145.544 120.267 145.705 120.239 145.862C120.211 146.02 120.141 146.167 120.035 146.29C119.925 146.412 119.787 146.506 119.632 146.566C119.476 146.626 119.308 146.649 119.142 146.634ZM112.293 140.072C113.415 142.146 115.34 143.715 117.653 144.44L116.303 140.492C114.951 140.586 113.592 140.444 112.293 140.072Z" fill="#1C222B"/>
<path d="M119.393 119.405C119.769 119.345 119.951 118.525 119.799 117.574C119.647 116.623 119.218 115.901 118.842 115.961C118.466 116.022 118.284 116.841 118.436 117.792C118.589 118.743 119.017 119.466 119.393 119.405Z" fill="#1C222B"/>
<path d="M111.763 124.128C111.358 122.903 110.652 121.823 109.723 121.005C109.097 120.27 108.371 119.644 107.57 119.148C107.166 118.9 106.716 118.753 106.253 118.717C105.79 118.682 105.326 118.76 104.894 118.944C104.529 119.151 104.208 119.439 103.953 119.791C103.698 120.143 103.515 120.55 103.415 120.985C103.228 121.858 103.228 122.765 103.415 123.638C103.74 125.555 104.524 127.344 105.688 128.824C106.852 130.304 108.353 131.422 110.041 132.066L109.723 131.821" fill="white"/>
<path d="M110.158 133.265C110.067 133.285 109.973 133.285 109.882 133.265C107.941 132.583 106.214 131.416 104.873 129.88C103.532 128.343 102.623 126.489 102.235 124.502C102.004 123.54 102.004 122.538 102.235 121.575C102.375 121.028 102.635 120.517 102.997 120.078C103.358 119.639 103.813 119.284 104.33 119.035C104.917 118.791 105.553 118.681 106.19 118.715C106.827 118.749 107.448 118.924 108.005 119.229C108.942 119.747 109.795 120.4 110.534 121.168C111.641 122.074 112.475 123.261 112.944 124.599C112.977 124.723 112.984 124.851 112.966 124.978C112.948 125.104 112.905 125.226 112.839 125.336C112.773 125.445 112.685 125.541 112.581 125.618C112.477 125.695 112.359 125.75 112.233 125.782C111.976 125.841 111.707 125.799 111.481 125.665C111.256 125.53 111.093 125.315 111.028 125.065C110.625 124.064 109.939 123.196 109.052 122.564C108.477 121.936 107.811 121.394 107.076 120.955C106.78 120.785 106.45 120.681 106.108 120.651C105.766 120.621 105.422 120.665 105.1 120.78C104.847 120.92 104.626 121.11 104.449 121.336C104.273 121.563 104.144 121.822 104.073 122.098C103.922 122.782 103.922 123.489 104.073 124.173C104.373 125.691 105.039 127.117 106.015 128.331C106.991 129.545 108.249 130.512 109.684 131.152C109.909 131.141 110.131 131.202 110.316 131.327L110.554 131.482C110.753 131.618 110.899 131.818 110.968 132.047C111.036 132.276 111.022 132.521 110.929 132.742C110.855 132.885 110.745 133.008 110.611 133.099C110.476 133.19 110.321 133.248 110.158 133.265Z" fill="#1C222B"/>
<path d="M126.89 151.679C126.89 151.679 100.993 141.281 92.8632 150.355C84.7332 159.429 79.017 194.576 82.4737 240.139C111.248 249.271 145.718 229.703 145.718 229.703C145.718 229.703 139.423 157.281 126.89 151.679Z" fill="#FF7D00"/>
<path d="M180.886 181.074C180.886 181.074 188.655 163.27 190.111 165.037C191.568 166.804 188.897 175.075 188.897 175.075C188.897 175.075 196.628 164.027 198.327 164.901C200.026 165.774 198.813 174.609 194.929 181.074C191.045 187.539 186.246 195.209 186.246 195.209L180.886 181.074Z" fill="white"/>
<path d="M186.153 196.423H186.038C185.864 196.407 185.698 196.343 185.559 196.239C185.42 196.135 185.313 195.995 185.25 195.834L179.753 182.005C179.701 181.892 179.674 181.769 179.674 181.644C179.674 181.52 179.701 181.397 179.753 181.284C183.097 173.97 187.441 165.213 189.651 164.909C189.871 164.878 190.095 164.901 190.303 164.978C190.511 165.054 190.697 165.181 190.843 165.346C191.765 166.429 191.573 168.956 191.073 171.33C196.993 164.017 198.453 164.739 198.992 165.004C199.264 165.156 199.501 165.363 199.687 165.612C199.872 165.861 200.002 166.146 200.068 166.448C200.914 169.335 199.299 176.668 195.897 182.157C191.957 188.54 186.979 195.948 186.922 196.024C186.832 196.143 186.717 196.241 186.583 196.31C186.45 196.379 186.303 196.418 186.153 196.423ZM181.694 181.682L186.364 193.422C188.017 190.914 191.419 185.824 194.283 181.151C197.915 175.281 198.876 168.158 198.127 166.79C196.762 167.398 192.726 172.071 189.574 176.288C189.439 176.47 189.243 176.598 189.022 176.65C188.8 176.702 188.566 176.675 188.363 176.573C188.161 176.468 188.003 176.296 187.915 176.088C187.828 175.88 187.816 175.649 187.883 175.433C188.894 172.763 189.446 169.944 189.516 167.094C186.432 171.705 183.788 176.588 181.617 181.682H181.694Z" fill="#1C222B"/>
<path d="M115.681 165.739C115.681 165.739 132.989 216.092 151.034 214.605C169.078 213.118 190.588 194.7 190.588 194.7L180.191 179.238C180.191 179.238 153.802 195.539 148.536 189.267C141.717 180.015 136.207 169.894 132.157 159.18C128.633 149.705 113.144 149.628 115.681 165.739Z" fill="#FF7D00"/>
<path d="M152.995 174.008C154.266 171.364 155.952 168.932 157.989 166.799C160.608 164.489 168.506 160.009 167.45 164.051C166.395 168.094 160.263 172.017 160.263 172.017C160.263 172.017 158.903 174.585 156.466 178.21" fill="white"/>
<path d="M157.326 178.209C157.139 178.208 156.957 178.147 156.807 178.037C156.701 177.969 156.609 177.881 156.538 177.778C156.467 177.674 156.417 177.557 156.392 177.434C156.367 177.311 156.367 177.184 156.392 177.061C156.417 176.938 156.467 176.822 156.538 176.718C158.766 173.335 160.052 170.889 160.072 170.87C160.148 170.723 160.261 170.599 160.398 170.506C160.398 170.506 165.89 166.951 166.773 163.473C166.811 163.322 166.811 163.165 166.773 163.014C165.967 162.766 161.55 165.097 159.342 167.066C157.513 169.036 155.998 171.273 154.849 173.698C154.8 173.82 154.727 173.931 154.634 174.024C154.541 174.117 154.43 174.19 154.307 174.238C154.184 174.286 154.053 174.309 153.921 174.304C153.789 174.299 153.66 174.268 153.541 174.211C153.422 174.155 153.316 174.074 153.23 173.975C153.143 173.876 153.078 173.76 153.039 173.635C152.999 173.51 152.986 173.378 153 173.247C153.014 173.117 153.055 172.991 153.12 172.876C154.393 170.217 156.085 167.778 158.132 165.652C159.553 164.371 165.621 160.09 167.925 161.485C168.367 161.753 169.039 162.422 168.636 163.951C167.676 167.773 162.76 171.233 161.646 171.978C161.281 172.647 160.072 174.864 158.132 177.712C158.051 177.856 157.934 177.977 157.793 178.064C157.652 178.151 157.491 178.201 157.326 178.209Z" fill="#1C222B"/>
<path d="M151.249 214.636C147.453 214.643 143.73 213.604 140.489 211.634C129.247 204.897 113.743 170.173 113.087 168.69C113.026 168.574 112.989 168.447 112.979 168.316C112.969 168.185 112.986 168.053 113.028 167.929C113.071 167.804 113.139 167.69 113.228 167.593C113.317 167.496 113.424 167.418 113.544 167.364C113.664 167.31 113.794 167.281 113.926 167.279C114.057 167.277 114.188 167.302 114.309 167.353C114.431 167.403 114.541 167.478 114.633 167.572C114.724 167.666 114.795 167.778 114.842 167.901C114.996 168.267 130.77 203.549 141.491 209.978C152.213 216.407 164.978 210.152 176.972 202.279C177.077 202.207 177.195 202.158 177.319 202.132C177.443 202.107 177.571 202.107 177.695 202.132C177.819 202.157 177.937 202.207 178.041 202.279C178.146 202.35 178.235 202.442 178.303 202.548C178.443 202.761 178.492 203.019 178.442 203.268C178.391 203.517 178.244 203.735 178.033 203.877C169.587 209.497 160.215 214.636 151.249 214.636Z" fill="#1C222B"/>
<path d="M209.991 371.281V385.853C209.991 385.853 243.481 382.938 242.721 381.443C241.961 379.948 225.169 373.609 225.169 373.609L209.991 371.281Z" fill="#1C222B"/>
<path d="M209.742 387.066C209.501 387.06 209.27 386.969 209.087 386.811C208.99 386.717 208.914 386.604 208.861 386.479C208.808 386.354 208.78 386.219 208.778 386.083V371.04C208.78 370.899 208.809 370.76 208.866 370.632C208.922 370.503 209.004 370.388 209.106 370.293C209.213 370.205 209.337 370.14 209.469 370.103C209.602 370.066 209.741 370.057 209.877 370.077L225.296 372.397C225.359 372.379 225.426 372.379 225.489 372.397C233.449 375.465 243.066 379.456 243.837 381.01C243.909 381.174 243.946 381.351 243.946 381.531C243.946 381.711 243.909 381.888 243.837 382.052C243.529 382.603 242.719 384.018 209.858 387.007L209.742 387.066ZM210.706 372.181V385.002C223.349 383.861 236.976 382.308 241.139 381.305C238.537 379.869 231.502 376.861 224.891 374.324L210.706 372.181Z" fill="#1C222B"/>
<path d="M208.778 357.924V371.358L225.161 373.71L225.756 357.924H208.778Z" fill="white"/>
<path d="M224.347 373.709H224.2L209.565 371.441C209.347 371.413 209.146 371.302 209.001 371.13C208.856 370.958 208.777 370.736 208.778 370.507V357.662C208.778 357.409 208.875 357.167 209.046 356.988C209.218 356.809 209.45 356.709 209.693 356.709H224.84C224.964 356.709 225.086 356.735 225.199 356.785C225.313 356.835 225.415 356.909 225.501 357.001C225.586 357.094 225.653 357.204 225.696 357.324C225.74 357.444 225.76 357.572 225.755 357.7L225.225 372.794C225.218 372.929 225.185 373.06 225.128 373.181C225.072 373.303 224.993 373.411 224.895 373.499C224.737 373.625 224.546 373.698 224.347 373.709ZM210.644 369.688L223.45 371.594L223.908 358.539H210.626L210.644 369.688Z" fill="#1C222B"/>
<path d="M254.86 357.924L256.552 376.138L271.838 375.551L271.039 357.924H254.86Z" fill="white"/>
<path d="M256.367 376.138C256.124 376.139 255.889 376.056 255.709 375.904C255.528 375.753 255.414 375.544 255.39 375.318L253.651 358.926C253.64 358.797 253.656 358.668 253.7 358.546C253.744 358.424 253.813 358.311 253.905 358.215C253.998 358.123 254.11 358.05 254.235 358C254.359 357.95 254.493 357.924 254.628 357.924H271.253C271.506 357.924 271.748 358.015 271.93 358.178C272.112 358.341 272.22 358.563 272.23 358.798L273.05 374.626C273.056 374.867 272.966 375.101 272.796 375.282C272.71 375.372 272.605 375.444 272.487 375.494C272.37 375.545 272.242 375.571 272.113 375.573L256.484 376.12L256.367 376.138ZM255.703 359.745L257.246 374.317L271.155 373.807L270.413 359.763L255.703 359.745Z" fill="#1C222B"/>
<path d="M268.628 219.496L271.838 361.186H251.914L243.196 263.009L226.673 362.782L207.566 361.724L211.497 231.936L268.628 219.496Z" fill="#1C222B"/>
<path d="M226.553 363.996L207.255 362.944C207.132 362.939 207.011 362.91 206.898 362.858C206.786 362.806 206.685 362.733 206.602 362.642C206.518 362.552 206.453 362.445 206.41 362.33C206.368 362.214 206.349 362.091 206.354 361.968L210.324 232.793C210.332 232.581 210.41 232.379 210.545 232.216C210.68 232.053 210.866 231.94 211.073 231.893L268.639 219.514C268.779 219.487 268.923 219.491 269.062 219.524C269.201 219.557 269.331 219.618 269.444 219.705C269.558 219.789 269.65 219.899 269.714 220.025C269.777 220.151 269.81 220.291 269.809 220.432L273.051 361.432C273.049 361.687 272.954 361.932 272.782 362.121C272.595 362.297 272.349 362.4 272.092 362.408H252.065C251.824 362.409 251.591 362.318 251.413 362.155C251.235 361.992 251.125 361.768 251.106 361.528L242.954 271.252L227.493 363.211C227.456 363.433 227.341 363.634 227.168 363.778C226.996 363.921 226.778 363.999 226.553 363.996ZM208.234 361.088L225.747 362.044L242.301 263.599C242.338 263.376 242.452 263.173 242.624 263.025C242.796 262.878 243.015 262.797 243.241 262.795C243.475 262.808 243.696 262.904 243.865 263.065C244.034 263.226 244.139 263.443 244.162 263.675L252.89 360.494H271.152L267.948 221.637L212.128 233.615L208.234 361.088Z" fill="#1C222B"/>
<path d="M301.878 170.923C305.313 168.467 309.128 166.603 313.168 165.404C316.886 164.312 321.088 160.451 321.553 156.317C321.582 155.655 321.49 154.994 321.282 154.366C320.668 152.329 319.754 150.397 318.571 148.633C318.457 148.441 318.297 148.28 318.106 148.165C317.699 147.99 317.254 148.282 316.925 148.536L310.922 153.235C310.963 151.93 310.878 150.624 310.67 149.335C310.65 148.879 310.472 148.444 310.166 148.107C309.927 147.94 309.644 147.852 309.353 147.852C309.063 147.852 308.779 147.94 308.54 148.107C308.061 148.432 307.658 148.858 307.359 149.355C305.074 152.611 303.486 156.843 301.065 159.866C300.581 160.451 295.779 164.215 296.108 164.566L301.878 170.923Z" fill="white"/>
<path d="M301.457 172.139C301.325 172.137 301.195 172.106 301.075 172.048C300.954 171.991 300.847 171.907 300.76 171.803L295.106 165.199C294.949 164.985 294.869 164.719 294.88 164.448C294.88 163.756 295.427 163.222 298.461 160.494C299.064 159.96 299.799 159.308 299.95 159.13C301.252 157.351 302.376 155.436 303.304 153.416C304.112 151.737 305.018 150.113 306.018 148.552C306.387 147.932 306.882 147.405 307.469 147.01C307.876 146.743 308.352 146.614 308.831 146.643C309.311 146.671 309.77 146.855 310.145 147.168C310.604 147.669 310.889 148.316 310.956 149.007C311.05 149.699 311.144 150.431 311.182 151.142L315.516 147.603C315.791 147.326 316.132 147.131 316.504 147.041C316.876 146.95 317.264 146.967 317.627 147.089C317.98 147.275 318.274 147.563 318.475 147.92C319.698 149.781 320.628 151.837 321.226 154.009C321.487 154.782 321.595 155.603 321.547 156.421C321.038 161.107 316.572 165.298 312.708 166.484C308.893 167.678 305.285 169.507 302.023 171.901C301.866 172.047 301.666 172.131 301.457 172.139ZM297.029 164.468L301.608 169.826C304.858 167.531 308.424 165.771 312.181 164.606C315.479 163.598 319.267 159.98 319.719 156.223C319.745 155.666 319.668 155.109 319.493 154.582C318.931 152.611 318.079 150.743 316.967 149.047L316.741 149.225L310.918 153.97C310.769 154.07 310.596 154.123 310.418 154.123C310.241 154.123 310.068 154.07 309.919 153.97C309.758 153.887 309.622 153.757 309.529 153.596C309.435 153.435 309.387 153.249 309.391 153.06C309.429 151.797 309.354 150.532 309.165 149.284C309.145 149.046 309.074 148.817 308.958 148.612C308.884 148.576 308.804 148.558 308.722 148.558C308.641 148.558 308.561 148.576 308.487 148.612C308.145 148.88 307.857 149.215 307.639 149.6C306.682 151.088 305.819 152.64 305.057 154.246C304.052 156.39 302.847 158.423 301.457 160.316C300.917 160.879 300.344 161.407 299.742 161.898C298.913 162.688 297.65 163.815 297.029 164.468Z" fill="#1C222B"/>
<path d="M247.159 135.709C247.159 135.709 271.557 169.984 274.8 170.003C278.043 170.023 299.507 158.201 299.507 158.201L303.368 172.149C303.368 172.149 282.251 193.032 271.577 190.063C260.902 187.093 226.969 166.229 226.969 166.229L247.159 135.709Z" fill="#0FBFC4"/>
<path d="M229.012 125.587C227.341 125.802 225.652 125.802 223.687 125.958C221.722 126.114 219.462 125.841 219.108 124.006C218.755 122.171 220.425 120.922 219.757 119.517C219.549 119.14 219.269 118.809 218.931 118.541C215.791 115.543 213.904 111.48 213.646 107.161C213.455 102.889 214.902 98.7043 217.694 95.4496C217.222 95.7034 216.613 95.2935 216.456 94.786C216.362 94.251 216.474 93.7007 216.77 93.244C217.836 91.5485 219.371 90.1933 221.191 89.3402C226.906 86.4555 233.366 85.3597 239.721 86.1976C244.594 86.7637 250.803 89.4963 251.196 95.1959C251.308 96.2132 251.062 97.2377 250.499 98.0952C249.937 98.9527 249.093 99.5904 248.111 99.8999C248.111 106.068 245.753 110.694 242.589 115.691C240.478 119.113 237.54 121.958 234.042 123.967C232.49 124.833 230.78 125.384 229.012 125.587Z" fill="white"/>
<path d="M223.348 125.939C220.882 125.939 219.238 124.961 218.901 123.253C218.791 122.391 218.914 121.515 219.256 120.72C219.537 119.972 219.686 119.473 219.537 119.128C219.396 118.895 219.219 118.688 219.013 118.514C215.82 115.4 213.902 111.153 213.652 106.638C213.45 102.648 214.584 98.7073 216.865 95.471C216.622 95.2259 216.443 94.9226 216.342 94.5885C216.183 93.8248 216.317 93.0276 216.716 92.3628C217.824 90.5434 219.419 89.091 221.311 88.1802C226.914 85.2659 233.241 84.1495 239.47 84.9761C245.074 85.6476 250.828 88.9285 251.202 94.7228C251.296 95.8199 251.067 96.9209 250.544 97.8825C250.021 98.844 249.228 99.6216 248.269 100.114C248.119 106.35 245.522 111.108 242.87 115.463C240.783 118.961 237.881 121.869 234.426 123.925C232.838 124.831 231.093 125.411 229.288 125.632C228.336 125.747 227.42 125.805 226.374 125.843C225.683 125.843 224.954 125.843 224.188 125.997L223.348 125.939ZM218.472 93.9553C218.612 93.9546 218.751 93.987 218.877 94.0503C219.004 94.1135 219.114 94.2057 219.2 94.3198C219.344 94.4905 219.422 94.7084 219.422 94.9338C219.422 95.1592 219.344 95.3771 219.2 95.5478C216.67 98.5823 215.373 102.5 215.578 106.49C215.783 110.479 217.475 114.235 220.302 116.979C220.705 117.328 221.041 117.751 221.293 118.226C221.469 118.727 221.542 119.261 221.507 119.793C221.471 120.325 221.328 120.843 221.087 121.315C220.859 121.806 220.744 122.344 220.751 122.888C220.956 123.886 222.619 124.116 224.114 123.982L226.355 123.848C227.327 123.848 228.223 123.848 229.12 123.618C230.691 123.445 232.211 122.942 233.585 122.14C236.773 120.257 239.446 117.578 241.356 114.35C244.626 108.997 246.513 104.757 246.475 99.3467C246.471 99.1273 246.541 98.9132 246.674 98.7415C246.807 98.5698 246.995 98.4513 247.204 98.4066C247.92 98.1463 248.528 97.6435 248.929 96.981C249.329 96.3184 249.498 95.5356 249.408 94.7611C249.053 89.4081 242.907 87.2401 239.32 86.818C233.473 86.0158 227.526 87.0526 222.264 89.7918C220.721 90.5323 219.423 91.7193 218.528 93.207C218.285 93.6675 218.285 93.8977 218.322 93.9937L218.472 93.9553Z" fill="#1C222B"/>
<path d="M251.222 107.781C251.222 107.781 256.749 113.804 256.004 115.239C255.259 116.675 251.987 116.209 251.987 116.209" fill="white"/>
<path d="M252.675 117.47C252.259 117.469 251.844 117.437 251.432 117.373C251.204 117.325 251.002 117.181 250.868 116.97C250.734 116.76 250.679 116.499 250.715 116.244C250.754 115.992 250.88 115.767 251.067 115.618C251.253 115.469 251.485 115.407 251.712 115.446C252.64 115.602 254.127 115.544 254.371 114.979C253.361 112.461 251.957 110.162 250.225 108.188C250.072 107.992 249.995 107.736 250.012 107.477C250.028 107.218 250.136 106.977 250.313 106.806C250.489 106.636 250.719 106.551 250.952 106.569C251.185 106.587 251.402 106.707 251.555 106.904C253.969 109.998 256.698 114.045 255.946 115.816C255.586 116.395 255.092 116.855 254.516 117.146C253.94 117.437 253.303 117.549 252.675 117.47Z" fill="#1C222B"/>
<path d="M248.665 99.1823C251.873 101.081 251.736 106.112 252.164 109.282C252.773 113.737 253.266 118.211 253.641 122.704C253.894 125.552 246.449 126.501 245.03 125.913L247.771 136.924L231.287 133.032L230.607 123.729C232.324 123.358 233.902 122.53 235.168 121.337C236.434 120.144 237.338 118.633 237.78 116.971C239.879 110.839 237.78 98.3659 237.78 98.3659C237.78 98.3659 245.555 97.3028 248.665 99.1823Z" fill="white"/>
<path d="M248.101 138.12H247.988L231.968 134.179C231.774 134.131 231.6 134.021 231.471 133.865C231.342 133.71 231.265 133.517 231.251 133.314L230.609 123.874C230.592 123.631 230.667 123.391 230.818 123.202C230.968 123.013 231.184 122.889 231.42 122.855C232.912 122.505 234.279 121.741 235.372 120.649C236.464 119.557 237.238 118.178 237.61 116.665C239.497 110.744 237.478 98.4204 237.459 98.2858C237.42 98.0291 237.481 97.7671 237.629 97.5553C237.787 97.3493 238.016 97.2119 238.27 97.1708C239.082 97.0554 246.328 96.1134 249.592 98.1513C252.857 100.189 252.951 104.092 253.234 107.341C253.234 107.956 253.347 108.533 253.423 109.071C253.989 113.57 254.479 118.164 254.857 122.702C254.884 123.256 254.759 123.807 254.496 124.292C254.232 124.778 253.841 125.179 253.366 125.451C251.364 126.605 249.099 127.202 246.799 127.181L249.139 136.947C249.174 137.09 249.176 137.238 249.145 137.381C249.115 137.525 249.053 137.659 248.963 137.774C248.874 137.889 248.76 137.982 248.631 138.045C248.501 138.108 248.358 138.141 248.215 138.139L248.101 138.12ZM233.005 132.449L246.837 135.851L244.535 126.239C244.495 126.064 244.504 125.882 244.561 125.712C244.617 125.542 244.719 125.391 244.856 125.278C244.994 125.162 245.162 125.09 245.339 125.069C245.516 125.049 245.696 125.081 245.856 125.162C248.058 125.415 250.282 124.958 252.215 123.855C252.687 123.528 252.913 123.182 252.894 122.875C252.517 118.357 252.026 113.8 251.441 109.321C251.441 108.763 251.328 108.148 251.271 107.514C251.007 104.688 250.686 101.17 248.498 99.8238C246.611 98.5934 241.912 98.7472 239.402 99.0164C239.874 102.169 241.082 111.916 239.308 117.319C238.846 119.015 237.979 120.569 236.784 121.84C235.588 123.112 234.102 124.062 232.458 124.605L233.005 132.449Z" fill="#1C222B"/>
<path d="M253.648 119.81C253.213 120.315 252.699 120.691 252.142 120.912C251.585 121.132 250.997 121.192 250.42 121.088C249.843 120.983 249.291 120.716 248.801 120.305C248.311 119.894 247.896 119.35 247.584 118.709" fill="white"/>
<path d="M250.152 121.125C249.971 121.144 249.788 121.144 249.607 121.125C248.98 121.02 248.382 120.777 247.854 120.413C247.326 120.05 246.88 119.573 246.546 119.016C246.474 118.912 246.423 118.795 246.395 118.67C246.368 118.546 246.364 118.417 246.385 118.291C246.406 118.165 246.451 118.045 246.517 117.937C246.584 117.829 246.67 117.736 246.772 117.662C246.979 117.519 247.233 117.466 247.479 117.513C247.724 117.56 247.942 117.704 248.086 117.914C248.277 118.244 248.532 118.53 248.836 118.753C249.14 118.976 249.486 119.132 249.852 119.21C250.671 119.264 251.481 119.002 252.124 118.475C252.318 118.317 252.566 118.244 252.812 118.273C253.058 118.302 253.284 118.43 253.438 118.629C253.594 118.827 253.668 119.081 253.643 119.334C253.618 119.588 253.498 119.821 253.307 119.983C252.392 120.684 251.292 121.082 250.152 121.125Z" fill="#1C222B"/>
<path d="M242.734 112C242.432 110.88 241.817 109.858 240.952 109.041C240.376 108.303 239.685 107.652 238.904 107.107C238.519 106.852 238.078 106.681 237.614 106.608C237.15 106.534 236.674 106.559 236.222 106.682C235.834 106.827 235.484 107.049 235.194 107.332C234.905 107.616 234.682 107.954 234.543 108.326C234.281 109.072 234.19 109.863 234.276 110.646C234.45 112.369 235.096 114.019 236.152 115.433C237.208 116.847 238.637 117.976 240.297 118.709L239.99 118.477" fill="white"/>
<path d="M240.739 119.905C240.609 119.93 240.475 119.93 240.345 119.905C238.669 119.142 237.227 117.959 236.165 116.477C235.102 114.994 234.456 113.263 234.291 111.458C234.175 110.574 234.278 109.676 234.592 108.84C234.764 108.362 235.04 107.927 235.4 107.564C235.76 107.201 236.197 106.919 236.679 106.737C237.229 106.567 237.812 106.523 238.383 106.61C238.953 106.696 239.496 106.91 239.969 107.235C240.754 107.744 241.458 108.366 242.055 109.079C242.977 109.977 243.627 111.106 243.935 112.343C243.954 112.463 243.949 112.586 243.919 112.703C243.889 112.821 243.836 112.932 243.763 113.03C243.69 113.127 243.597 113.21 243.491 113.273C243.386 113.335 243.268 113.377 243.146 113.395C243.025 113.416 242.9 113.413 242.781 113.386C242.661 113.359 242.547 113.309 242.447 113.238C242.348 113.168 242.263 113.079 242.199 112.976C242.135 112.872 242.092 112.758 242.074 112.639C241.818 111.738 241.317 110.922 240.627 110.278C240.162 109.669 239.604 109.134 238.972 108.692C238.737 108.523 238.467 108.408 238.181 108.353C237.895 108.299 237.6 108.308 237.318 108.378C236.873 108.586 236.528 108.957 236.359 109.411C236.156 110.004 236.092 110.635 236.171 111.255C236.31 112.619 236.778 113.931 237.536 115.083C238.295 116.234 239.322 117.191 240.533 117.876C240.732 117.883 240.924 117.954 241.078 118.079L241.36 118.3C241.53 118.446 241.643 118.646 241.677 118.866C241.712 119.085 241.666 119.309 241.548 119.499C241.46 119.629 241.34 119.735 241.198 119.806C241.056 119.877 240.898 119.911 240.739 119.905Z" fill="#1C222B"/>
<path d="M249.444 106.365C249.787 106.298 249.925 105.528 249.752 104.645C249.58 103.762 249.162 103.101 248.819 103.168C248.476 103.235 248.338 104.005 248.511 104.888C248.683 105.771 249.101 106.432 249.444 106.365Z" fill="#1C222B"/>
<path d="M229.394 136.086L229.991 131.044L249.341 129.639L252.435 136.573C244.89 138.816 236.839 138.645 229.394 136.086Z" fill="#1C222B"/>
<path d="M241.919 139.35C237.471 139.35 233.054 138.686 228.837 137.384C228.628 137.323 228.448 137.197 228.329 137.027C228.211 136.857 228.161 136.654 228.189 136.453L228.818 131.73C228.844 131.528 228.946 131.34 229.106 131.199C229.266 131.058 229.474 130.973 229.695 130.958L249.489 129.641C249.683 129.628 249.876 129.67 250.043 129.761C250.21 129.852 250.342 129.988 250.423 130.15L253.57 136.646C253.621 136.757 253.648 136.877 253.648 136.997C253.648 137.118 253.621 137.238 253.57 137.349C253.463 137.573 253.264 137.75 253.017 137.84C249.429 138.886 245.682 139.396 241.919 139.35ZM230.172 135.944C237.059 137.922 244.407 138.099 251.396 136.453L248.955 131.432L230.611 132.661L230.172 135.944Z" fill="#1C222B"/>
<path d="M252.897 137.002C241.152 133.844 229.597 127.374 214.763 145.783C199.929 164.193 209.234 237.33 209.234 237.33C212.822 240.25 217.05 242.26 221.565 243.192C226.079 244.123 230.75 243.949 235.184 242.683L273.051 233.055C273.051 233.055 263.841 139.949 252.897 137.002Z" fill="#0FBFC4"/>
<path d="M256.073 375.502V388.281C256.073 388.281 289.348 384.657 288.809 382.132C288.27 379.607 271.478 374.924 271.478 374.924L256.073 375.502Z" fill="#1C222B"/>
<path d="M255.837 389.495C255.592 389.491 255.357 389.399 255.173 389.236C255.075 389.141 254.997 389.026 254.944 388.9C254.89 388.773 254.862 388.637 254.86 388.499V375.301C254.86 375.044 254.958 374.797 255.132 374.611C255.307 374.426 255.546 374.316 255.798 374.306L271.421 373.709H271.714C278.334 375.6 289.505 379.163 290.013 381.93C290.041 382.119 290.031 382.312 289.984 382.496C289.937 382.681 289.854 382.854 289.739 383.005C287.786 385.712 263.316 388.619 255.856 389.435L255.837 389.495ZM256.813 376.277V387.385C270.64 385.812 285.287 383.403 287.943 382.07C286.439 380.616 278.51 377.73 271.421 375.719L256.813 376.277Z" fill="#1C222B"/>
<path d="M238.169 284.666L285.895 276.328L279.678 240.742L231.952 249.08L238.169 284.666Z" fill="white"/>
<path d="M237.777 285.067C237.551 285.067 237.333 284.99 237.158 284.85C236.984 284.71 236.864 284.514 236.82 284.297L230.619 249.414C230.58 249.171 230.634 248.923 230.772 248.719C230.923 248.512 231.149 248.37 231.404 248.324L279.058 240.153C279.183 240.131 279.311 240.134 279.434 240.161C279.557 240.188 279.674 240.239 279.777 240.311C279.88 240.383 279.968 240.474 280.035 240.579C280.102 240.684 280.148 240.801 280.168 240.923L286.369 275.806C286.397 275.926 286.397 276.05 286.371 276.17C286.344 276.29 286.292 276.403 286.216 276.501C286.147 276.603 286.057 276.689 285.951 276.754C285.845 276.818 285.727 276.861 285.604 276.877L237.93 285.048L237.777 285.067ZM232.667 250.015L238.543 283.039L284.322 275.205L278.503 242.257L232.667 250.015Z" fill="#1C222B"/>
<path d="M259.246 229.209C259.246 229.209 259.58 234.938 261.209 236.236C262.839 237.535 268.591 241.01 268.179 242.137C267.767 243.263 263.722 244.046 263.722 244.046C263.722 244.046 267.295 250.921 264.409 252.983C261.523 255.045 253.827 257.146 252.355 255.065C250.882 252.983 247.584 231.29 247.584 231.29" fill="white"/>
<path d="M254.882 257.115C254.484 257.147 254.083 257.147 253.685 257.115C253.223 257.07 252.776 256.923 252.379 256.687C251.982 256.451 251.644 256.131 251.391 255.75C249.834 253.566 246.941 234.805 246.383 231.061C246.343 230.802 246.41 230.539 246.569 230.329C246.728 230.118 246.966 229.979 247.231 229.94C247.495 229.901 247.765 229.966 247.98 230.122C248.195 230.277 248.338 230.51 248.378 230.769C249.994 241.553 252.189 253.43 253.047 254.639C253.298 254.882 253.631 255.028 253.984 255.048C257.517 255.131 260.993 254.173 263.96 252.298C265.636 251.07 263.96 246.448 262.963 244.498C262.898 244.36 262.865 244.21 262.865 244.059C262.865 243.908 262.898 243.758 262.963 243.62C263.03 243.486 263.128 243.369 263.249 243.277C263.37 243.186 263.511 243.123 263.661 243.094C264.934 242.876 266.165 242.468 267.312 241.885C265.84 240.506 264.244 239.259 262.544 238.16C261.785 237.614 261.107 237.165 260.688 236.834C258.693 235.332 258.374 230.008 258.314 229.033C258.303 228.775 258.394 228.524 258.569 228.331C258.744 228.138 258.989 228.019 259.252 227.999C259.383 227.989 259.516 228.004 259.641 228.045C259.766 228.086 259.882 228.151 259.981 228.237C260.079 228.322 260.16 228.427 260.216 228.543C260.272 228.66 260.304 228.787 260.309 228.916C260.449 231.529 261.127 234.766 261.945 235.39C262.324 235.703 262.962 236.132 263.701 236.639C268.01 239.642 269.846 241.085 269.327 242.489C268.928 243.62 266.953 244.439 265.337 244.79C266.334 247.072 268.03 251.986 265.217 254.034C262.11 255.934 258.545 256.998 254.882 257.115Z" fill="#1C222B"/>
<path d="M244.167 147.852L262.136 230.761L246.804 236.494C246.804 236.494 223.093 162.415 220.905 156.815" fill="#0FBFC4"/>
<path d="M247.282 237.69C247.149 237.717 247.013 237.717 246.88 237.69C246.761 237.635 246.655 237.556 246.569 237.456C246.483 237.357 246.419 237.24 246.382 237.114C246.152 236.364 223.116 162.6 221.01 157.047C220.949 156.927 220.913 156.795 220.906 156.66C220.899 156.525 220.921 156.39 220.97 156.264C221.018 156.137 221.093 156.023 221.189 155.928C221.284 155.833 221.399 155.759 221.525 155.711C221.652 155.663 221.786 155.643 221.921 155.651C222.055 155.66 222.187 155.696 222.306 155.759C222.426 155.822 222.531 155.909 222.614 156.015C222.698 156.121 222.758 156.244 222.791 156.375C224.801 161.697 245.042 226.392 247.895 235.557L261.299 230.427L243.835 147.805C243.807 147.682 243.803 147.554 243.825 147.429C243.846 147.304 243.892 147.184 243.96 147.077C244.027 146.97 244.115 146.877 244.219 146.804C244.322 146.731 244.439 146.68 244.563 146.652C244.813 146.611 245.07 146.665 245.282 146.803C245.495 146.942 245.648 147.155 245.712 147.402L263.329 230.735C263.376 230.958 263.342 231.191 263.233 231.392C263.124 231.593 262.948 231.748 262.735 231.83L247.703 237.594C247.578 237.673 247.429 237.707 247.282 237.69Z" fill="#1C222B"/>
<path d="M257.286 149.066C257.286 149.066 267.683 179.523 269.413 201.281L257.286 149.066Z" fill="#0FBFC4"/>
<path d="M269.653 202.494C269.409 202.495 269.174 202.404 268.994 202.24C268.814 202.076 268.704 201.851 268.684 201.609C267.076 179.897 257.406 149.331 257.309 149.023C257.256 148.788 257.294 148.542 257.415 148.333C257.536 148.125 257.732 147.969 257.963 147.896C258.194 147.824 258.444 147.84 258.664 147.942C258.884 148.043 259.057 148.223 259.15 148.446C259.247 148.754 268.994 179.551 270.622 201.455C270.633 201.581 270.618 201.709 270.579 201.83C270.54 201.95 270.477 202.062 270.394 202.159C270.311 202.256 270.21 202.335 270.096 202.392C269.982 202.45 269.858 202.485 269.731 202.494H269.653Z" fill="#1C222B"/>
<path d="M506.09 387.366C506.09 387.366 511.137 362.413 498.435 345.215C498.435 345.215 491.556 347.851 493.417 363.471C494.689 373.246 497.844 382.682 502.707 391.256L506.09 387.366Z" fill="white"/>
<path d="M502.707 391.919C502.592 391.907 502.482 391.869 502.384 391.808C502.287 391.747 502.204 391.664 502.143 391.567C497.24 382.894 494.048 373.361 492.74 363.485C490.851 347.485 497.928 344.581 498.238 344.468C498.386 344.413 498.548 344.407 498.7 344.45C498.852 344.493 498.986 344.583 499.084 344.708C511.772 361.977 506.908 387.182 506.866 387.436C506.838 387.561 506.78 387.677 506.696 387.775L503.313 391.665C503.238 391.751 503.144 391.819 503.039 391.863C502.934 391.906 502.821 391.926 502.707 391.919ZM498.224 346.103C496.814 347.062 492.669 350.995 494.136 363.316C495.381 372.65 498.329 381.676 502.834 389.946L505.414 386.971C505.822 384.687 509.558 361.991 498.224 346.103Z" fill="#1C222B"/>
<path d="M501.001 383.784C501.001 383.784 495.108 343.24 473.877 328.805C474.591 338.78 476.727 348.601 480.221 357.972C485.79 371.999 495.968 385.039 495.968 385.039L501.001 383.784Z" fill="white"/>
<path d="M495.968 385.715C495.857 385.716 495.746 385.691 495.646 385.642C495.546 385.593 495.458 385.521 495.39 385.433C495.291 385.306 485.085 372.153 479.545 358.183C476.044 348.734 473.889 338.839 473.144 328.79C473.14 328.653 473.173 328.518 473.24 328.399C473.307 328.279 473.406 328.181 473.525 328.114C473.639 328.041 473.771 328.002 473.906 328.002C474.041 328.002 474.173 328.041 474.286 328.114C485.423 335.712 492.289 350.429 496.081 361.439C498.576 368.675 500.463 376.107 501.72 383.657C501.743 383.835 501.699 384.015 501.598 384.163C501.496 384.311 501.344 384.417 501.17 384.46L496.137 385.673L495.968 385.715ZM474.723 330.242C475.538 339.614 477.615 348.832 480.898 357.647C484.923 367.078 490.083 375.983 496.264 384.164L500.169 383.234C499.38 378.074 493.008 344.029 474.723 330.242Z" fill="#1C222B"/>
<path d="M510.193 387.364C510.193 387.364 525.08 348.47 519.131 321.107C519.131 321.107 511.321 328.255 506.09 344.128C500.86 360.002 503.271 387.393 503.271 387.393L510.193 387.364Z" fill="white"/>
<path d="M510.193 388.014H503.257C503.073 388.018 502.895 387.952 502.758 387.829C502.622 387.705 502.538 387.535 502.524 387.352C502.524 387.084 500.198 359.636 505.343 343.805C510.489 327.974 518.256 320.77 518.581 320.474C518.672 320.386 518.787 320.325 518.911 320.297C519.036 320.27 519.165 320.278 519.286 320.319C519.409 320.355 519.52 320.424 519.607 320.518C519.694 320.613 519.753 320.729 519.779 320.855C525.714 348.133 510.968 387.112 510.813 387.549C510.766 387.679 510.683 387.792 510.573 387.874C510.462 387.957 510.33 388.006 510.193 388.014ZM503.919 386.604H509.685C511.306 382.192 523.473 347.71 518.694 322.547C516.48 324.971 510.827 332.02 506.781 344.299C502.115 358.452 503.609 382.291 503.919 386.562V386.604Z" fill="#1C222B"/>
<path d="M518.736 382.925C519.328 382.925 534.609 358.96 535.004 338.082C528.116 342.91 522.527 349.365 518.736 356.874C512.773 369.04 511.786 384.983 511.786 384.983L518.736 382.925Z" fill="white"/>
<path d="M511.786 385.715C511.686 385.715 511.587 385.695 511.495 385.655C511.403 385.616 511.321 385.558 511.252 385.486C511.183 385.413 511.13 385.327 511.096 385.233C511.062 385.139 511.047 385.039 511.053 384.94C511.053 384.785 512.124 368.7 518.101 356.548C521.938 348.912 527.617 342.352 534.624 337.46C534.736 337.392 534.866 337.355 534.997 337.355C535.129 337.355 535.258 337.392 535.371 337.46C535.487 337.524 535.584 337.618 535.651 337.732C535.718 337.846 535.753 337.976 535.752 338.109C535.371 357.549 521.485 382.191 518.947 383.6L511.997 385.659L511.786 385.715ZM534.229 339.518C528 344.199 522.923 350.241 519.384 357.182C514.422 367.318 512.928 380.259 512.589 383.967L518.383 382.247C519.737 380.654 533.214 358.987 534.229 339.518Z" fill="#1C222B"/>
<path d="M516.226 408.116H495.968L488.116 379.02H524.065L516.226 408.116Z" fill="#1C222B"/>
<path d="M516.297 408.821H495.968C495.813 408.822 495.662 408.772 495.54 408.677C495.417 408.583 495.329 408.449 495.292 408.299L487.439 379.203C487.411 379.099 487.407 378.99 487.429 378.884C487.451 378.779 487.498 378.68 487.566 378.596C487.63 378.511 487.713 378.441 487.809 378.392C487.904 378.343 488.009 378.317 488.116 378.314H524.065C524.173 378.316 524.279 378.341 524.376 378.389C524.473 378.437 524.558 378.507 524.624 378.592C524.69 378.677 524.737 378.777 524.759 378.882C524.782 378.988 524.781 379.097 524.755 379.203L516.903 408.299C516.867 408.437 516.789 408.561 516.681 408.654C516.573 408.747 516.439 408.806 516.297 408.821ZM496.56 407.411H515.747L523.219 379.724H489.032L496.56 407.411Z" fill="#1C222B"/>
</svg>
