<svg width="357" height="305" viewBox="0 0 357 305" fill="none" xmlns="http://www.w3.org/2000/svg">
<path d="M20.1001 237.189L20.1001 227.341L26.7359 227.341L26.7359 229.058L22.1822 229.058L22.1822 231.405L26.3945 231.405L26.3945 233.121L22.1822 233.121L22.1822 235.473L26.7552 235.473L26.7552 237.189L20.1001 237.189ZM30.5638 232.919L30.5638 237.189L28.5153 237.189L28.5153 229.803L30.4676 229.803L30.4676 231.107L30.5541 231.107C30.7176 230.677 30.9917 230.337 31.3764 230.087C31.7611 229.834 32.2275 229.707 32.7757 229.707C33.2886 229.707 33.7358 229.819 34.1173 230.044C34.4988 230.268 34.7953 230.589 35.0069 231.006C35.2185 231.419 35.3243 231.913 35.3243 232.487L35.3243 237.189L33.2758 237.189L33.2758 232.852C33.279 232.4 33.1636 232.047 32.9296 231.794C32.6956 231.538 32.3734 231.41 31.9631 231.41C31.6874 231.41 31.4437 231.469 31.2321 231.587C31.0238 231.706 30.8603 231.879 30.7417 232.107C30.6263 232.331 30.567 232.602 30.5638 232.919ZM41.0298 229.803L41.0298 231.342L36.5819 231.342L36.5819 229.803L41.0298 229.803ZM37.5917 228.034L39.6402 228.034L39.6402 234.92C39.6402 235.109 39.669 235.256 39.7267 235.362C39.7844 235.465 39.8646 235.537 39.9671 235.579C40.0729 235.62 40.1947 235.641 40.3326 235.641C40.4288 235.641 40.5249 235.633 40.6211 235.617C40.7173 235.598 40.791 235.583 40.8423 235.574L41.1645 237.098C41.0619 237.13 40.9176 237.167 40.7317 237.209C40.5458 237.254 40.3198 237.281 40.0537 237.29C39.56 237.31 39.1272 237.244 38.7554 237.093C38.3867 236.943 38.0998 236.709 37.8946 236.391C37.6895 236.074 37.5885 235.673 37.5917 235.189L37.5917 228.034ZM45.8134 237.334C45.0536 237.334 44.3997 237.18 43.8515 236.872C43.3065 236.561 42.8866 236.122 42.5916 235.555C42.2967 234.984 42.1492 234.309 42.1492 233.53C42.1492 232.77 42.2967 232.104 42.5916 231.53C42.8866 230.956 43.3017 230.509 43.8371 230.188C44.3756 229.868 45.0071 229.707 45.7316 229.707C46.2189 229.707 46.6725 229.786 47.0925 229.943C47.5156 230.097 47.8843 230.329 48.1984 230.64C48.5158 230.951 48.7626 231.342 48.939 231.813C49.1153 232.281 49.2034 232.83 49.2034 233.458L49.2034 234.021L42.9667 234.021L42.9667 232.751L47.2752 232.751C47.2752 232.456 47.2111 232.195 47.0828 231.967C46.9546 231.74 46.7767 231.562 46.5491 231.434C46.3247 231.302 46.0634 231.236 45.7653 231.236C45.4543 231.236 45.1786 231.309 44.9382 231.453C44.701 231.594 44.5151 231.785 44.3804 232.025C44.2458 232.262 44.1769 232.527 44.1737 232.818L44.1737 234.025C44.1737 234.391 44.241 234.707 44.3756 234.973C44.5135 235.239 44.7074 235.444 44.9575 235.588C45.2075 235.732 45.504 235.805 45.847 235.805C46.0746 235.805 46.283 235.773 46.4722 235.708C46.6613 235.644 46.8232 235.548 46.9578 235.42C47.0925 235.292 47.195 235.135 47.2656 234.949L49.1602 235.074C49.064 235.529 48.8668 235.926 48.5687 236.266C48.2738 236.603 47.8923 236.866 47.4243 237.055C46.9594 237.241 46.4225 237.334 45.8134 237.334ZM50.7027 237.189L50.7027 229.803L52.6887 229.803L52.6887 231.092L52.7656 231.092C52.9002 230.634 53.1262 230.288 53.4436 230.054C53.761 229.816 54.1264 229.698 54.54 229.698C54.6425 229.698 54.7531 229.704 54.8718 229.717C54.9904 229.73 55.0946 229.747 55.1843 229.77L55.1843 231.587C55.0881 231.559 54.9551 231.533 54.7852 231.511C54.6153 231.488 54.4598 231.477 54.3188 231.477C54.0174 231.477 53.7481 231.543 53.5109 231.674C53.2769 231.802 53.091 231.982 52.9531 232.213C52.8185 232.443 52.7512 232.709 52.7512 233.011L52.7512 237.189L50.7027 237.189ZM59.6303 230.419L59.6303 229.38C59.6303 229.085 59.688 228.784 59.8034 228.476C59.9188 228.169 60.071 227.878 60.2602 227.606C60.4493 227.333 60.6545 227.106 60.8757 226.923L61.7797 227.457C61.6002 227.739 61.4527 228.034 61.3373 228.342C61.2251 228.649 61.169 228.992 61.169 229.371L61.169 230.419L59.6303 230.419ZM62.0586 230.419L62.0586 229.38C62.0586 229.085 62.1163 228.784 62.2317 228.476C62.3471 228.169 62.4994 227.878 62.6885 227.606C62.8777 227.333 63.0828 227.106 63.304 226.923L64.208 227.457C64.0285 227.739 63.881 228.034 63.7656 228.342C63.6534 228.649 63.5973 228.992 63.5973 229.371L63.5973 230.419L62.0586 230.419ZM97.3402 227.341L97.3402 228.38C97.3402 228.675 97.2825 228.976 97.1671 229.284C97.0549 229.589 96.9042 229.877 96.7151 230.15C96.5259 230.419 96.3192 230.648 96.0948 230.837L95.1907 230.304C95.351 230.05 95.4921 229.77 95.6139 229.462C95.7389 229.154 95.8014 228.797 95.8014 228.39L95.8014 227.341L97.3402 227.341ZM99.7589 227.341L99.7589 228.38C99.7589 228.675 99.7012 228.976 99.5858 229.284C99.4736 229.589 99.3229 229.877 99.1338 230.15C98.9446 230.419 98.7363 230.648 98.5087 230.837L97.6047 230.304C97.7681 230.05 97.9108 229.77 98.0326 229.462C98.1576 229.154 98.2202 228.797 98.2202 228.39L98.2202 227.341L99.7589 227.341Z" fill="#4B5B76"/>
<path d="M65.2409 229.058L65.2409 227.341L73.3289 227.341L73.3289 229.058L70.3139 229.058L70.3139 237.189L68.2559 237.189L68.2559 229.058L65.2409 229.058ZM75.8861 237.329C75.4148 237.329 74.9949 237.247 74.6262 237.084C74.2576 236.917 73.9659 236.672 73.7511 236.348C73.5395 236.021 73.4337 235.614 73.4337 235.127C73.4337 234.716 73.509 234.372 73.6597 234.093C73.8104 233.814 74.0155 233.589 74.2752 233.42C74.5349 233.25 74.8298 233.121 75.16 233.035C75.4934 232.948 75.8428 232.887 76.2083 232.852C76.6378 232.807 76.984 232.766 77.2469 232.727C77.5098 232.685 77.7005 232.625 77.8191 232.544C77.9377 232.464 77.997 232.346 77.997 232.189L77.997 232.16C77.997 231.855 77.9009 231.62 77.7085 231.453C77.5194 231.286 77.2501 231.203 76.9007 231.203C76.532 231.203 76.2387 231.285 76.0207 231.448C75.8027 231.608 75.6585 231.81 75.5879 232.054L73.6934 231.9C73.7895 231.451 73.9787 231.063 74.2608 230.736C74.5429 230.406 74.9067 230.153 75.3523 229.977C75.8011 229.797 76.3205 229.707 76.9103 229.707C77.3206 229.707 77.7133 229.755 78.0884 229.852C78.4667 229.948 78.8017 230.097 79.0934 230.299C79.3883 230.501 79.6207 230.76 79.7907 231.078C79.9606 231.392 80.0455 231.769 80.0455 232.208L80.0455 237.189L78.1028 237.189L78.1028 236.165L78.0451 236.165C77.9265 236.396 77.7678 236.6 77.5691 236.776C77.3703 236.949 77.1315 237.085 76.8526 237.185C76.5737 237.281 76.2515 237.329 75.8861 237.329ZM76.4727 235.915C76.7741 235.915 77.0401 235.856 77.271 235.737C77.5018 235.615 77.6829 235.452 77.8143 235.247C77.9458 235.042 78.0115 234.809 78.0115 234.55L78.0115 233.766C77.9474 233.807 77.8592 233.846 77.747 233.881C77.638 233.913 77.5146 233.944 77.3767 233.973C77.2389 233.998 77.101 234.022 76.9632 234.045C76.8254 234.064 76.7003 234.082 76.5881 234.098C76.3477 234.133 76.1377 234.189 75.9582 234.266C75.7787 234.343 75.6392 234.447 75.5399 234.578C75.4405 234.707 75.3908 234.867 75.3908 235.059C75.3908 235.338 75.4918 235.551 75.6937 235.699C75.8989 235.843 76.1586 235.915 76.4727 235.915ZM81.7972 237.189L81.7972 229.803L83.7832 229.803L83.7832 231.092L83.8601 231.092C83.9948 230.634 84.2208 230.288 84.5381 230.054C84.8555 229.816 85.2209 229.698 85.6345 229.698C85.7371 229.698 85.8477 229.704 85.9663 229.717C86.0849 229.73 86.1891 229.747 86.2788 229.77L86.2788 231.587C86.1827 231.559 86.0496 231.533 85.8797 231.511C85.7098 231.488 85.5543 231.477 85.4133 231.477C85.112 231.477 84.8427 231.543 84.6054 231.674C84.3714 231.802 84.1855 231.982 84.0477 232.213C83.913 232.443 83.8457 232.709 83.8457 233.011L83.8457 237.189L81.7972 237.189ZM90.4938 237.334C89.7468 237.334 89.1009 237.175 88.5559 236.858C88.0141 236.537 87.5958 236.091 87.3009 235.521C87.0059 234.947 86.8585 234.282 86.8585 233.525C86.8585 232.762 87.0059 232.096 87.3009 231.525C87.5958 230.951 88.0141 230.506 88.5559 230.188C89.1009 229.868 89.7468 229.707 90.4938 229.707C91.2407 229.707 91.8851 229.868 92.4268 230.188C92.9718 230.506 93.3917 230.951 93.6867 231.525C93.9816 232.096 94.1291 232.762 94.1291 233.525C94.1291 234.282 93.9816 234.947 93.6867 235.521C93.3917 236.091 92.9718 236.537 92.4268 236.858C91.8851 237.175 91.2407 237.334 90.4938 237.334ZM90.5034 235.747C90.8432 235.747 91.1269 235.651 91.3545 235.458C91.5821 235.263 91.7536 234.997 91.869 234.66C91.9876 234.324 92.0469 233.94 92.0469 233.511C92.0469 233.081 91.9876 232.698 91.869 232.362C91.7536 232.025 91.5821 231.759 91.3545 231.563C91.1269 231.368 90.8432 231.27 90.5034 231.27C90.1604 231.27 89.8719 231.368 89.6378 231.563C89.407 231.759 89.2323 232.025 89.1137 232.362C88.9983 232.698 88.9406 233.081 88.9406 233.511C88.9406 233.94 88.9983 234.324 89.1137 234.66C89.2323 234.997 89.407 235.263 89.6378 235.458C89.8719 235.651 90.1604 235.747 90.5034 235.747Z" fill="#0051D9"/>
<g filter="url(#filter0_d_0_1)">
<rect x="16.3292" y="16.3292" width="189.342" height="196.342" rx="4.93755" fill="white"/>
<rect x="16.3292" y="16.3292" width="189.342" height="196.342" rx="4.93755" stroke="#EBEDF1" stroke-width="0.65834"/>
<path d="M29.017 40.167H26.8475L30.1532 30.5911H32.7622L36.0633 40.167H33.8937L31.4951 32.7794H31.4203L29.017 40.167ZM28.8814 36.403H34.006V37.9834H28.8814V36.403ZM40.0797 43.0098C39.4345 43.0098 38.8812 42.921 38.4198 42.7433C37.9616 42.5687 37.5969 42.3303 37.3257 42.0279C37.0545 41.7256 36.8784 41.3858 36.7974 41.0086L38.6396 40.7608C38.6957 40.9042 38.7845 41.0382 38.9061 41.1629C39.0277 41.2876 39.1882 41.3874 39.3877 41.4622C39.5903 41.5401 39.8366 41.5791 40.1265 41.5791C40.5597 41.5791 40.9167 41.4731 41.1972 41.2611C41.4809 41.0523 41.6227 40.7016 41.6227 40.2091V38.8952H41.5385C41.4513 39.0947 41.3203 39.2833 41.1458 39.461C40.9712 39.6386 40.7468 39.7836 40.4725 39.8958C40.1982 40.008 39.8709 40.0641 39.4906 40.0641C38.9513 40.0641 38.4604 39.9394 38.0177 39.6901C37.5782 39.4376 37.2275 39.0526 36.9657 38.5352C36.707 38.0146 36.5776 37.3569 36.5776 36.562C36.5776 35.7484 36.7101 35.0689 36.975 34.5234C37.24 33.9779 37.5922 33.5696 38.0317 33.2984C38.4744 33.0272 38.9591 32.8916 39.4859 32.8916C39.888 32.8916 40.2247 32.9602 40.4958 33.0973C40.767 33.2314 40.9852 33.3997 41.1504 33.6023C41.3188 33.8018 41.4481 33.9982 41.5385 34.1914H41.6133V32.9851H43.5912V40.2371C43.5912 40.8481 43.4415 41.3593 43.1423 41.7708C42.8431 42.1822 42.4285 42.4908 41.8986 42.6966C41.3718 42.9054 40.7655 43.0098 40.0797 43.0098ZM40.1218 38.5679C40.4429 38.5679 40.714 38.4884 40.9354 38.3294C41.1598 38.1673 41.3312 37.9367 41.4497 37.6374C41.5713 37.3351 41.632 36.9735 41.632 36.5527C41.632 36.1319 41.5728 35.7671 41.4544 35.4586C41.3359 35.1468 41.1645 34.9053 40.94 34.7338C40.7156 34.5624 40.4429 34.4767 40.1218 34.4767C39.7945 34.4767 39.5186 34.5655 39.2942 34.7432C39.0698 34.9177 38.8999 35.1609 38.7845 35.4726C38.6692 35.7843 38.6115 36.1443 38.6115 36.5527C38.6115 36.9672 38.6692 37.3257 38.7845 37.6281C38.903 37.9273 39.0729 38.1596 39.2942 38.3248C39.5186 38.4869 39.7945 38.5679 40.1218 38.5679ZM45.1762 40.167V32.9851H47.1073V34.2382H47.1821C47.313 33.7924 47.5328 33.4558 47.8414 33.2282C48.15 32.9976 48.5053 32.8822 48.9074 32.8822C49.0072 32.8822 49.1147 32.8885 49.2301 32.9009C49.3454 32.9134 49.4467 32.9306 49.534 32.9524V34.7198C49.4405 34.6917 49.3111 34.6668 49.1459 34.645C48.9807 34.6232 48.8295 34.6122 48.6924 34.6122C48.3994 34.6122 48.1375 34.6762 47.9068 34.804C47.6793 34.9286 47.4985 35.1032 47.3645 35.3276C47.2335 35.5521 47.1681 35.8108 47.1681 36.1038V40.167H45.1762ZM53.5025 40.3073C52.7637 40.3073 52.1278 40.1576 51.5948 39.8584C51.0649 39.556 50.6566 39.129 50.3698 38.5773C50.083 38.0224 49.9396 37.3662 49.9396 36.6088C49.9396 35.87 50.083 35.2217 50.3698 34.6637C50.6566 34.1057 51.0602 33.6709 51.5808 33.3592C52.1045 33.0474 52.7185 32.8916 53.423 32.8916C53.8968 32.8916 54.3379 32.968 54.7462 33.1207C55.1577 33.2703 55.5162 33.4963 55.8217 33.7987C56.1303 34.101 56.3703 34.4813 56.5417 34.9395C56.7132 35.3947 56.7989 35.9277 56.7989 36.5386V37.0857H50.7345V35.8513H54.9239C54.9239 35.5645 54.8616 35.3105 54.7369 35.0892C54.6122 34.8679 54.4392 34.6949 54.2179 34.5702C53.9997 34.4424 53.7456 34.3785 53.4557 34.3785C53.1534 34.3785 52.8853 34.4486 52.6515 34.5889C52.4209 34.726 52.2401 34.9115 52.1091 35.1453C51.9782 35.3759 51.9112 35.6331 51.9081 35.9168V37.0904C51.9081 37.4457 51.9735 37.7528 52.1045 38.0115C52.2385 38.2702 52.4271 38.4697 52.6702 38.61C52.9134 38.7503 53.2017 38.8204 53.5352 38.8204C53.7565 38.8204 53.9592 38.7892 54.1431 38.7269C54.327 38.6645 54.4844 38.571 54.6153 38.4463C54.7462 38.3216 54.846 38.1689 54.9146 37.9881L56.7568 38.1097C56.6633 38.5523 56.4716 38.9388 56.1817 39.2693C55.8949 39.5966 55.524 39.8522 55.0689 40.0361C54.6169 40.2169 54.0948 40.3073 53.5025 40.3073ZM61.3717 40.3073C60.633 40.3073 59.9971 40.1576 59.464 39.8584C58.9341 39.556 58.5258 39.129 58.239 38.5773C57.9522 38.0224 57.8088 37.3662 57.8088 36.6088C57.8088 35.87 57.9522 35.2217 58.239 34.6637C58.5258 34.1057 58.9294 33.6709 59.45 33.3592C59.9737 33.0474 60.5878 32.8916 61.2922 32.8916C61.766 32.8916 62.2071 32.968 62.6155 33.1207C63.0269 33.2703 63.3854 33.4963 63.6909 33.7987C63.9995 34.101 64.2395 34.4813 64.4109 34.9395C64.5824 35.3947 64.6681 35.9277 64.6681 36.5386V37.0857H58.6037V35.8513H62.7931C62.7931 35.5645 62.7308 35.3105 62.6061 35.0892C62.4814 34.8679 62.3084 34.6949 62.0871 34.5702C61.8689 34.4424 61.6149 34.3785 61.325 34.3785C61.0226 34.3785 60.7545 34.4486 60.5207 34.5889C60.2901 34.726 60.1093 34.9115 59.9784 35.1453C59.8474 35.3759 59.7804 35.6331 59.7773 35.9168V37.0904C59.7773 37.4457 59.8428 37.7528 59.9737 38.0115C60.1077 38.2702 60.2963 38.4697 60.5394 38.61C60.7826 38.7503 61.0709 38.8204 61.4045 38.8204C61.6258 38.8204 61.8284 38.7892 62.0123 38.7269C62.1962 38.6645 62.3536 38.571 62.4845 38.4463C62.6155 38.3216 62.7152 38.1689 62.7838 37.9881L64.626 38.1097C64.5325 38.5523 64.3408 38.9388 64.0509 39.2693C63.7641 39.5966 63.3932 39.8522 62.9381 40.0361C62.4861 40.2169 61.964 40.3073 61.3717 40.3073ZM65.9679 40.167V32.9851H67.8663V34.2522H67.9504C68.1001 33.8314 68.3494 33.4994 68.6986 33.2563C69.0477 33.0132 69.4654 32.8916 69.9516 32.8916C70.4442 32.8916 70.8634 33.0147 71.2094 33.261C71.5554 33.5041 71.7861 33.8345 71.9014 34.2522H71.9762C72.1227 33.8408 72.3877 33.5119 72.7711 33.2656C73.1576 33.0163 73.6143 32.8916 74.1411 32.8916C74.8113 32.8916 75.3552 33.1051 75.7729 33.5322C76.1937 33.9561 76.4041 34.5577 76.4041 35.337V40.167H74.417V35.7297C74.417 35.3307 74.311 35.0315 74.099 34.832C73.887 34.6325 73.6221 34.5328 73.3041 34.5328C72.9425 34.5328 72.6604 34.6481 72.4578 34.8788C72.2552 35.1063 72.1539 35.4071 72.1539 35.7812V40.167H70.2228V35.6877C70.2228 35.3354 70.1215 35.0549 69.9189 34.846C69.7194 34.6372 69.456 34.5328 69.1287 34.5328C68.9074 34.5328 68.7079 34.5889 68.5302 34.7011C68.3557 34.8102 68.217 34.9645 68.1141 35.164C68.0112 35.3604 67.9598 35.591 67.9598 35.856V40.167H65.9679ZM81.2505 40.3073C80.5117 40.3073 79.8758 40.1576 79.3428 39.8584C78.8129 39.556 78.4046 39.129 78.1178 38.5773C77.831 38.0224 77.6876 37.3662 77.6876 36.6088C77.6876 35.87 77.831 35.2217 78.1178 34.6637C78.4046 34.1057 78.8082 33.6709 79.3288 33.3592C79.8525 33.0474 80.4665 32.8916 81.171 32.8916C81.6448 32.8916 82.0859 32.968 82.4942 33.1207C82.9057 33.2703 83.2642 33.4963 83.5697 33.7987C83.8782 34.101 84.1183 34.4813 84.2897 34.9395C84.4612 35.3947 84.5469 35.9277 84.5469 36.5386V37.0857H78.4825V35.8513H82.6719C82.6719 35.5645 82.6096 35.3105 82.4849 35.0892C82.3602 34.8679 82.1872 34.6949 81.9659 34.5702C81.7477 34.4424 81.4936 34.3785 81.2037 34.3785C80.9014 34.3785 80.6333 34.4486 80.3995 34.5889C80.1689 34.726 79.9881 34.9115 79.8571 35.1453C79.7262 35.3759 79.6592 35.6331 79.6561 35.9168V37.0904C79.6561 37.4457 79.7215 37.7528 79.8525 38.0115C79.9865 38.2702 80.1751 38.4697 80.4182 38.61C80.6614 38.7503 80.9497 38.8204 81.2832 38.8204C81.5045 38.8204 81.7072 38.7892 81.8911 38.7269C82.075 38.6645 82.2324 38.571 82.3633 38.4463C82.4942 38.3216 82.594 38.1689 82.6626 37.9881L84.5048 38.1097C84.4113 38.5523 84.2196 38.9388 83.9297 39.2693C83.6429 39.5966 83.272 39.8522 82.8169 40.0361C82.3649 40.2169 81.8428 40.3073 81.2505 40.3073ZM87.8386 36.015V40.167H85.8467V32.9851H87.7451V34.2522H87.8292C87.9882 33.8345 88.2547 33.5041 88.6288 33.261C89.0028 33.0147 89.4564 32.8916 89.9894 32.8916C90.4881 32.8916 90.923 33.0007 91.2939 33.2189C91.6649 33.4371 91.9532 33.7488 92.1589 34.154C92.3647 34.5561 92.4675 35.0362 92.4675 35.5941V40.167H90.4757V35.9495C90.4788 35.51 90.3666 35.1671 90.139 34.9208C89.9115 34.6715 89.5982 34.5468 89.1992 34.5468C88.9311 34.5468 88.6942 34.6045 88.4885 34.7198C88.2859 34.8351 88.1269 35.0035 88.0116 35.2248C87.8994 35.443 87.8417 35.7064 87.8386 36.015ZM97.8574 32.9851V34.4813H93.5324V32.9851H97.8574ZM94.5143 31.2644H96.5062V37.9601C96.5062 38.144 96.5342 38.2874 96.5903 38.3902C96.6464 38.49 96.7244 38.5601 96.8241 38.6006C96.927 38.6412 97.0454 38.6614 97.1795 38.6614C97.273 38.6614 97.3665 38.6536 97.46 38.638C97.5535 38.6193 97.6252 38.6053 97.6751 38.596L97.9884 40.0782C97.8886 40.1093 97.7483 40.1452 97.5676 40.1857C97.3868 40.2293 97.167 40.2558 96.9083 40.2652C96.4282 40.2839 96.0074 40.22 95.6458 40.0735C95.2874 39.927 95.0084 39.6994 94.8089 39.3908C94.6094 39.0822 94.5112 38.6926 94.5143 38.2219V31.2644ZM103.619 40.167L101.665 32.9851H103.68L104.793 37.8104H104.858L106.018 32.9851H107.996L109.174 37.7824H109.235L110.329 32.9851H112.339L110.39 40.167H108.281L107.046 35.6503H106.958L105.723 40.167H103.619ZM113.402 40.167V32.9851H115.394V40.167H113.402ZM114.402 32.0593C114.106 32.0593 113.852 31.9611 113.64 31.7647C113.431 31.5652 113.327 31.3268 113.327 31.0494C113.327 30.7751 113.431 30.5397 113.64 30.3433C113.852 30.1438 114.106 30.0441 114.402 30.0441C114.699 30.0441 114.951 30.1438 115.16 30.3433C115.372 30.5397 115.478 30.7751 115.478 31.0494C115.478 31.3268 115.372 31.5652 115.16 31.7647C114.951 31.9611 114.699 32.0593 114.402 32.0593ZM120.809 32.9851V34.4813H116.484V32.9851H120.809ZM117.466 31.2644H119.458V37.9601C119.458 38.144 119.486 38.2874 119.542 38.3902C119.598 38.49 119.676 38.5601 119.776 38.6006C119.879 38.6412 119.997 38.6614 120.131 38.6614C120.225 38.6614 120.318 38.6536 120.412 38.638C120.505 38.6193 120.577 38.6053 120.627 38.596L120.94 40.0782C120.841 40.1093 120.7 40.1452 120.519 40.1857C120.339 40.2293 120.119 40.2558 119.86 40.2652C119.38 40.2839 118.959 40.22 118.598 40.0735C118.239 39.927 117.96 39.6994 117.761 39.3908C117.561 39.0822 117.463 38.6926 117.466 38.2219V31.2644ZM124.253 36.015V40.167H122.261V30.5911H124.197V34.2522H124.281C124.443 33.8283 124.705 33.4963 125.067 33.2563C125.428 33.0132 125.882 32.8916 126.427 32.8916C126.926 32.8916 127.361 33.0007 127.732 33.2189C128.106 33.434 128.396 33.7441 128.601 34.1494C128.81 34.5515 128.913 35.0331 128.91 35.5941V40.167H126.918V35.9495C126.921 35.5069 126.809 35.1624 126.582 34.9162C126.357 34.6699 126.042 34.5468 125.637 34.5468C125.366 34.5468 125.126 34.6045 124.917 34.7198C124.711 34.8351 124.549 35.0035 124.431 35.2248C124.315 35.443 124.256 35.7064 124.253 36.015Z" fill="#4B5B76"/>
<path d="M133.636 32.2604V30.5911H141.5V32.2604H138.568V40.167H136.567V32.2604H133.636ZM143.829 40.3026C143.37 40.3026 142.962 40.2231 142.604 40.0641C142.245 39.902 141.961 39.6636 141.753 39.3487C141.547 39.0308 141.444 38.6349 141.444 38.1611C141.444 37.7621 141.517 37.427 141.664 37.1558C141.81 36.8846 142.01 36.6664 142.262 36.5012C142.515 36.336 142.801 36.2113 143.123 36.1272C143.447 36.043 143.787 35.9838 144.142 35.9495C144.56 35.9059 144.896 35.8653 145.152 35.8279C145.407 35.7874 145.593 35.7282 145.708 35.6503C145.824 35.5723 145.881 35.457 145.881 35.3043V35.2762C145.881 34.9801 145.788 34.751 145.601 34.5889C145.417 34.4268 145.155 34.3457 144.815 34.3457C144.457 34.3457 144.171 34.4252 143.96 34.5842C143.748 34.7401 143.607 34.9364 143.539 35.1733L141.696 35.0237C141.79 34.5873 141.974 34.2101 142.248 33.8922C142.523 33.5711 142.876 33.3249 143.31 33.1534C143.746 32.9789 144.251 32.8916 144.825 32.8916C145.224 32.8916 145.605 32.9383 145.97 33.0319C146.338 33.1254 146.664 33.2703 146.947 33.4667C147.234 33.6631 147.46 33.9156 147.625 34.2242C147.79 34.5296 147.873 34.8959 147.873 35.323V40.167H145.984V39.1711H145.928C145.813 39.3955 145.658 39.5934 145.465 39.7649C145.272 39.9332 145.04 40.0657 144.768 40.1623C144.497 40.2558 144.184 40.3026 143.829 40.3026ZM144.399 38.9279C144.692 38.9279 144.951 38.8703 145.175 38.7549C145.4 38.6365 145.576 38.4775 145.704 38.278C145.831 38.0785 145.895 37.8525 145.895 37.6V36.8379C145.833 36.8784 145.747 36.9158 145.638 36.9501C145.532 36.9813 145.412 37.0109 145.278 37.0389C145.144 37.0639 145.01 37.0873 144.876 37.1091C144.742 37.1278 144.62 37.1449 144.511 37.1605C144.277 37.1948 144.073 37.2493 143.899 37.3242C143.724 37.399 143.589 37.5003 143.492 37.6281C143.395 37.7528 143.347 37.9086 143.347 38.0957C143.347 38.3668 143.445 38.5741 143.642 38.7175C143.841 38.8578 144.094 38.9279 144.399 38.9279ZM149.418 40.167V32.9851H151.349V34.2382H151.424C151.555 33.7924 151.775 33.4558 152.084 33.2282C152.392 32.9976 152.748 32.8822 153.15 32.8822C153.249 32.8822 153.357 32.8885 153.472 32.9009C153.588 32.9134 153.689 32.9306 153.776 32.9524V34.7198C153.683 34.6917 153.553 34.6668 153.388 34.645C153.223 34.6232 153.072 34.6122 152.935 34.6122C152.642 34.6122 152.38 34.6762 152.149 34.804C151.921 34.9286 151.741 35.1032 151.607 35.3276C151.476 35.5521 151.41 35.8108 151.41 36.1038V40.167H149.418ZM157.717 40.3073C156.99 40.3073 156.362 40.153 155.832 39.8444C155.306 39.5327 154.899 39.0994 154.612 38.5445C154.325 37.9866 154.182 37.3397 154.182 36.6041C154.182 35.8622 154.325 35.2139 154.612 34.659C154.899 34.101 155.306 33.6678 155.832 33.3592C156.362 33.0474 156.99 32.8916 157.717 32.8916C158.443 32.8916 159.069 33.0474 159.596 33.3592C160.126 33.6678 160.535 34.101 160.821 34.659C161.108 35.2139 161.251 35.8622 161.251 36.6041C161.251 37.3397 161.108 37.9866 160.821 38.5445C160.535 39.0994 160.126 39.5327 159.596 39.8444C159.069 40.153 158.443 40.3073 157.717 40.3073ZM157.726 38.7643C158.056 38.7643 158.332 38.6708 158.554 38.4837C158.775 38.2936 158.942 38.0349 159.054 37.7076C159.169 37.3803 159.227 37.0078 159.227 36.5901C159.227 36.1724 159.169 35.7999 159.054 35.4726C158.942 35.1453 158.775 34.8866 158.554 34.6964C158.332 34.5063 158.056 34.4112 157.726 34.4112C157.392 34.4112 157.112 34.5063 156.884 34.6964C156.66 34.8866 156.49 35.1453 156.375 35.4726C156.262 35.7999 156.206 36.1724 156.206 36.5901C156.206 37.0078 156.262 37.3803 156.375 37.7076C156.49 38.0349 156.66 38.2936 156.884 38.4837C157.112 38.6708 157.392 38.7643 157.726 38.7643Z" fill="#0051D9"/>
<path d="M161.51 29.167V41.167H162.826V29.167H161.51Z" fill="#1C222B" mask="url(#path-4-inside-1_0_1)"/>
<rect x="26.5342" y="55.6504" width="169.193" height="11.8501" rx="1.97502" fill="#EBEDF1"/>
<rect x="26.5342" y="76.4541" width="75.7091" height="11.8501" rx="1.97502" fill="#EBEDF1"/>
<path d="M106.501 80.1824V79.0853H111.669V80.1824H109.743V85.3789H108.427V80.1824H106.501ZM113.2 85.468C112.899 85.468 112.63 85.4158 112.395 85.3113C112.159 85.2048 111.973 85.048 111.835 84.8411C111.7 84.6322 111.633 84.372 111.633 84.0606C111.633 83.7983 111.681 83.5781 111.777 83.3999C111.873 83.2216 112.004 83.0782 112.17 82.9697C112.336 82.8611 112.525 82.7791 112.736 82.7238C112.949 82.6685 113.172 82.6296 113.406 82.607C113.68 82.5784 113.902 82.5517 114.07 82.5271C114.238 82.5005 114.359 82.4616 114.435 82.4104C114.511 82.3591 114.549 82.2833 114.549 82.183V82.1645C114.549 81.9699 114.487 81.8193 114.365 81.7128C114.244 81.6063 114.072 81.553 113.848 81.553C113.613 81.553 113.425 81.6052 113.286 81.7097C113.147 81.8121 113.054 81.9412 113.009 82.0969L111.799 81.9986C111.86 81.7118 111.981 81.4639 112.161 81.2549C112.341 81.0439 112.574 80.882 112.859 80.7694C113.146 80.6546 113.477 80.5973 113.854 80.5973C114.117 80.5973 114.368 80.628 114.607 80.6895C114.849 80.7509 115.063 80.8462 115.25 80.9753C115.438 81.1043 115.587 81.2703 115.695 81.4731C115.804 81.6739 115.858 81.9146 115.858 82.1953V85.3789H114.617V84.7244H114.58C114.504 84.8719 114.402 85.0019 114.275 85.1146C114.148 85.2253 113.996 85.3123 113.818 85.3758C113.639 85.4373 113.433 85.468 113.2 85.468ZM113.575 84.5646C113.767 84.5646 113.937 84.5267 114.085 84.4509C114.232 84.373 114.348 84.2685 114.432 84.1374C114.516 84.0063 114.558 83.8578 114.558 83.6918V83.1909C114.517 83.2175 114.461 83.2421 114.389 83.2647C114.319 83.2852 114.241 83.3046 114.152 83.3231C114.064 83.3394 113.976 83.3548 113.888 83.3691C113.8 83.3814 113.72 83.3927 113.649 83.403C113.495 83.4255 113.361 83.4613 113.246 83.5105C113.131 83.5597 113.042 83.6263 112.979 83.7103C112.915 83.7922 112.883 83.8946 112.883 84.0176C112.883 84.1958 112.948 84.332 113.077 84.4263C113.208 84.5185 113.374 84.5646 113.575 84.5646ZM116.874 85.3789V80.6587H118.143V81.4823H118.192C118.278 81.1893 118.422 80.9681 118.625 80.8185C118.828 80.6669 119.062 80.5911 119.326 80.5911C119.391 80.5911 119.462 80.5952 119.538 80.6034C119.614 80.6116 119.68 80.6229 119.738 80.6372V81.7988C119.676 81.7804 119.591 81.764 119.483 81.7497C119.374 81.7353 119.275 81.7282 119.185 81.7282C118.992 81.7282 118.82 81.7701 118.668 81.8541C118.519 81.9361 118.4 82.0508 118.312 82.1983C118.226 82.3458 118.183 82.5159 118.183 82.7084V85.3789H116.874ZM122.328 85.4711C121.85 85.4711 121.437 85.3697 121.089 85.1669C120.743 84.962 120.476 84.6772 120.287 84.3126C120.099 83.9459 120.004 83.5207 120.004 83.0373C120.004 82.5497 120.099 82.1235 120.287 81.7589C120.476 81.3922 120.743 81.1074 121.089 80.9046C121.437 80.6997 121.85 80.5973 122.328 80.5973C122.805 80.5973 123.217 80.6997 123.563 80.9046C123.911 81.1074 124.18 81.3922 124.368 81.7589C124.556 82.1235 124.651 82.5497 124.651 83.0373C124.651 83.5207 124.556 83.9459 124.368 84.3126C124.18 84.6772 123.911 84.962 123.563 85.1669C123.217 85.3697 122.805 85.4711 122.328 85.4711ZM122.334 84.457C122.551 84.457 122.732 84.3955 122.878 84.2726C123.023 84.1476 123.133 83.9776 123.206 83.7625C123.282 83.5474 123.32 83.3026 123.32 83.028C123.32 82.7535 123.282 82.5087 123.206 82.2936C123.133 82.0785 123.023 81.9084 122.878 81.7835C122.732 81.6585 122.551 81.596 122.334 81.596C122.114 81.596 121.93 81.6585 121.781 81.7835C121.633 81.9084 121.521 82.0785 121.446 82.2936C121.372 82.5087 121.335 82.7535 121.335 83.028C121.335 83.3026 121.372 83.5474 121.446 83.7625C121.521 83.9776 121.633 84.1476 121.781 84.2726C121.93 84.3955 122.114 84.457 122.334 84.457Z" fill="#0051D9"/>
<path d="M124.535 76.3789V88.3789H125.852V76.3789H124.535Z" fill="#1C222B" mask="url(#path-9-inside-2_0_1)"/>
<rect x="129.144" y="76.4541" width="66.4923" height="11.8501" rx="1.97502" fill="#EBEDF1"/>
<rect x="26.5342" y="97.2568" width="169.193" height="11.8501" rx="1.97502" fill="#EBEDF1"/>
<rect x="26.5342" y="117.985" width="57.2756" height="11.8501" rx="1.97502" fill="#EBEDF1"/>
<rect x="87.7598" y="117.985" width="107.968" height="11.8501" rx="1.97502" fill="#EBEDF1"/>
<rect x="26.5342" y="138.714" width="169.193" height="41.4754" rx="1.97502" fill="#EBEDF1"/>
<rect x="26.5342" y="184.686" width="15.4005" height="11.8501" rx="1.97502" fill="#EBEDF1"/>
<path d="M48.5091 194.472V186.605H49.0131V194.472H48.5091ZM49.8459 189.202C49.8213 188.954 49.7158 188.762 49.5294 188.624C49.3429 188.487 49.0899 188.418 48.7703 188.418C48.5532 188.418 48.3698 188.449 48.2203 188.511C48.0707 188.57 47.956 188.653 47.8761 188.759C47.7982 188.866 47.7593 188.987 47.7593 189.122C47.7552 189.235 47.7788 189.333 47.83 189.417C47.8833 189.501 47.956 189.574 48.0482 189.635C48.1404 189.695 48.2469 189.747 48.3678 189.792C48.4886 189.835 48.6177 189.872 48.755 189.903L49.3204 190.038C49.5949 190.099 49.8469 190.181 50.0764 190.284C50.3058 190.386 50.5045 190.512 50.6725 190.662C50.8405 190.811 50.9706 190.987 51.0628 191.19C51.1571 191.393 51.2052 191.626 51.2072 191.888C51.2052 192.273 51.1069 192.607 50.9122 192.89C50.7197 193.17 50.441 193.388 50.0764 193.544C49.7138 193.698 49.2764 193.775 48.7642 193.775C48.2561 193.775 47.8136 193.697 47.4366 193.541C47.0617 193.385 46.7688 193.155 46.5578 192.85C46.3488 192.542 46.2392 192.162 46.2289 191.71H47.5165C47.5309 191.921 47.5913 192.097 47.6979 192.238C47.8064 192.377 47.9509 192.483 48.1311 192.555C48.3135 192.624 48.5194 192.659 48.7488 192.659C48.9742 192.659 49.1698 192.626 49.3358 192.561C49.5038 192.495 49.6339 192.404 49.726 192.287C49.8182 192.171 49.8643 192.036 49.8643 191.885C49.8643 191.743 49.8223 191.625 49.7383 191.528C49.6564 191.432 49.5355 191.35 49.3757 191.282C49.218 191.215 49.0244 191.153 48.7949 191.098L48.1096 190.926C47.579 190.797 47.1601 190.595 46.8528 190.321C46.5455 190.046 46.3928 189.676 46.3949 189.211C46.3928 188.83 46.4942 188.497 46.6991 188.212C46.906 187.928 47.1898 187.705 47.5503 187.546C47.9109 187.386 48.3207 187.306 48.7796 187.306C49.2467 187.306 49.6543 187.386 50.0026 187.546C50.3529 187.705 50.6254 187.928 50.82 188.212C51.0147 188.497 51.1151 188.827 51.1212 189.202H49.8459ZM52.0654 193.686V192.727L54.3056 190.652C54.4962 190.468 54.6559 190.302 54.785 190.155C54.9161 190.007 55.0155 189.863 55.0831 189.721C55.1507 189.578 55.1845 189.423 55.1845 189.257C55.1845 189.073 55.1425 188.914 55.0585 188.781C54.9745 188.646 54.8598 188.542 54.7143 188.471C54.5689 188.397 54.404 188.36 54.2196 188.36C54.027 188.36 53.859 188.399 53.7156 188.477C53.5722 188.555 53.4616 188.666 53.3837 188.812C53.3059 188.957 53.2669 189.13 53.2669 189.331H52.0039C52.0039 188.919 52.0971 188.562 52.2836 188.259C52.47 187.955 52.7312 187.721 53.0672 187.555C53.4032 187.389 53.7904 187.306 54.2288 187.306C54.6795 187.306 55.0718 187.386 55.4058 187.546C55.7418 187.703 56.003 187.923 56.1894 188.203C56.3758 188.484 56.469 188.806 56.469 189.168C56.469 189.406 56.4219 189.64 56.3277 189.872C56.2355 190.103 56.0706 190.361 55.8329 190.643C55.5953 190.924 55.2603 191.261 54.828 191.654L53.9092 192.555V192.598H56.552V193.686H52.0654ZM58.9513 192.825L58.9175 193.163C58.8908 193.434 58.8396 193.703 58.7638 193.971C58.6901 194.242 58.6122 194.487 58.5303 194.706C58.4504 194.925 58.3858 195.097 58.3367 195.222H57.4885C57.5192 195.101 57.5612 194.932 57.6145 194.715C57.6678 194.5 57.718 194.258 57.7651 193.99C57.8122 193.721 57.8419 193.448 57.8542 193.169L57.8696 192.825H58.9513ZM62.35 193.824C61.8215 193.822 61.3667 193.692 60.9856 193.434C60.6066 193.175 60.3147 192.802 60.1098 192.312C59.907 191.822 59.8066 191.233 59.8086 190.545C59.8086 189.859 59.9101 189.274 60.1129 188.79C60.3177 188.307 60.6097 187.939 60.9887 187.687C61.3697 187.433 61.8235 187.306 62.35 187.306C62.8766 187.306 63.3293 187.433 63.7083 187.687C64.0894 187.941 64.3823 188.31 64.5872 188.793C64.7921 189.275 64.8935 189.859 64.8914 190.545C64.8914 191.235 64.789 191.825 64.5841 192.315C64.3813 192.805 64.0904 193.178 63.7114 193.437C63.3324 193.695 62.8786 193.824 62.35 193.824ZM62.35 192.721C62.7106 192.721 62.9984 192.539 63.2136 192.177C63.4287 191.814 63.5352 191.27 63.5332 190.545C63.5332 190.068 63.484 189.67 63.3856 189.353C63.2894 189.035 63.1521 188.796 62.9739 188.637C62.7977 188.477 62.5897 188.397 62.35 188.397C61.9915 188.397 61.7047 188.576 61.4896 188.935C61.2745 189.293 61.1659 189.83 61.1639 190.545C61.1639 191.028 61.212 191.432 61.3083 191.756C61.4066 192.077 61.5449 192.319 61.7231 192.481C61.9014 192.641 62.1103 192.721 62.35 192.721ZM68.3079 193.824C67.7793 193.822 67.3245 193.692 66.9434 193.434C66.5644 193.175 66.2725 192.802 66.0676 192.312C65.8648 191.822 65.7644 191.233 65.7665 190.545C65.7665 189.859 65.8679 189.274 66.0707 188.79C66.2756 188.307 66.5675 187.939 66.9465 187.687C67.3276 187.433 67.7814 187.306 68.3079 187.306C68.8344 187.306 69.2871 187.433 69.6661 187.687C70.0472 187.941 70.3402 188.31 70.545 188.793C70.7499 189.275 70.8513 189.859 70.8493 190.545C70.8493 191.235 70.7468 191.825 70.542 192.315C70.3391 192.805 70.0482 193.178 69.6692 193.437C69.2902 193.695 68.8364 193.824 68.3079 193.824ZM68.3079 192.721C68.6684 192.721 68.9563 192.539 69.1714 192.177C69.3865 191.814 69.493 191.27 69.491 190.545C69.491 190.068 69.4418 189.67 69.3435 189.353C69.2472 189.035 69.1099 188.796 68.9317 188.637C68.7555 188.477 68.5476 188.397 68.3079 188.397C67.9493 188.397 67.6625 188.576 67.4474 188.935C67.2323 189.293 67.1237 189.83 67.1217 190.545C67.1217 191.028 67.1698 191.432 67.2661 191.756C67.3644 192.077 67.5027 192.319 67.681 192.481C67.8592 192.641 68.0682 192.721 68.3079 192.721ZM74.2657 193.824C73.7371 193.822 73.2823 193.692 72.9013 193.434C72.5223 193.175 72.2303 192.802 72.0255 192.312C71.8226 191.822 71.7223 191.233 71.7243 190.545C71.7243 189.859 71.8257 189.274 72.0285 188.79C72.2334 188.307 72.5253 187.939 72.9043 187.687C73.2854 187.433 73.7392 187.306 74.2657 187.306C74.7922 187.306 75.245 187.433 75.624 187.687C76.005 187.941 76.298 188.31 76.5029 188.793C76.7077 189.275 76.8091 189.859 76.8071 190.545C76.8071 191.235 76.7047 191.825 76.4998 192.315C76.297 192.805 76.0061 193.178 75.627 193.437C75.248 193.695 74.7943 193.824 74.2657 193.824ZM74.2657 192.721C74.6263 192.721 74.9141 192.539 75.1292 192.177C75.3443 191.814 75.4509 191.27 75.4488 190.545C75.4488 190.068 75.3996 189.67 75.3013 189.353C75.205 189.035 75.0678 188.796 74.8895 188.637C74.7133 188.477 74.5054 188.397 74.2657 188.397C73.9072 188.397 73.6204 188.576 73.4052 188.935C73.1901 189.293 73.0816 189.83 73.0795 190.545C73.0795 191.028 73.1277 191.432 73.2239 191.756C73.3223 192.077 73.4606 192.319 73.6388 192.481C73.817 192.641 74.026 192.721 74.2657 192.721Z" fill="#003DB6"/>
<rect x="81.835" y="184.686" width="113.893" height="11.8501" rx="1.97502" fill="#EBEDF1"/>
</g>
<g filter="url(#filter1_d_0_1)">
<rect x="142.345" y="74.3445" width="198.311" height="203.296" rx="5.16807" fill="white"/>
<path d="M155.553 98.7812H153.282L156.742 88.7583H159.473L162.928 98.7812H160.657L158.147 91.0487H158.068L155.553 98.7812ZM155.411 94.8416H160.775V96.4958H155.411V94.8416ZM167.132 101.757C166.457 101.757 165.878 101.664 165.395 101.478C164.915 101.295 164.533 101.046 164.249 100.729C163.966 100.413 163.781 100.057 163.696 99.6622L165.625 99.4028C165.683 99.5529 165.776 99.6932 165.904 99.8237C166.031 99.9542 166.199 100.059 166.408 100.137C166.62 100.218 166.878 100.259 167.181 100.259C167.634 100.259 168.008 100.148 168.302 99.9264C168.599 99.7078 168.747 99.3408 168.747 98.8253V97.4501H168.659C168.568 97.6589 168.431 97.8563 168.248 98.0423C168.065 98.2282 167.83 98.3799 167.543 98.4974C167.256 98.6149 166.913 98.6736 166.515 98.6736C165.951 98.6736 165.437 98.5431 164.974 98.2821C164.514 98.0178 164.147 97.6148 163.873 97.0732C163.602 96.5284 163.466 95.84 163.466 95.008C163.466 94.1564 163.605 93.4452 163.882 92.8742C164.16 92.3032 164.528 91.8758 164.988 91.592C165.452 91.3081 165.959 91.1662 166.51 91.1662C166.931 91.1662 167.284 91.238 167.568 91.3815C167.851 91.5218 168.08 91.698 168.253 91.9101C168.429 92.1189 168.564 92.3244 168.659 92.5267H168.737V91.2641H170.807V98.8547C170.807 99.4941 170.651 100.029 170.338 100.46C170.024 100.891 169.59 101.214 169.036 101.429C168.484 101.648 167.85 101.757 167.132 101.757ZM167.176 97.1075C167.512 97.1075 167.796 97.0243 168.028 96.8579C168.263 96.6882 168.442 96.4468 168.566 96.1336C168.693 95.8171 168.757 95.4386 168.757 94.9982C168.757 94.5577 168.695 94.176 168.571 93.853C168.447 93.5267 168.267 93.2739 168.033 93.0944C167.798 92.915 167.512 92.8252 167.176 92.8252C166.833 92.8252 166.545 92.9182 166.31 93.1042C166.075 93.2869 165.897 93.5414 165.776 93.8677C165.656 94.1939 165.595 94.5708 165.595 94.9982C165.595 95.4321 165.656 95.8073 165.776 96.1238C165.9 96.437 166.078 96.6801 166.31 96.853C166.545 97.0227 166.833 97.1075 167.176 97.1075ZM172.466 98.7812V91.2641H174.488V92.5757H174.566C174.703 92.1091 174.933 91.7567 175.256 91.5185C175.579 91.2771 175.951 91.1564 176.372 91.1564C176.476 91.1564 176.589 91.1629 176.71 91.176C176.83 91.189 176.936 91.207 177.028 91.2298V93.0797C176.93 93.0504 176.794 93.0243 176.621 93.0014C176.449 92.9786 176.29 92.9672 176.147 92.9672C175.84 92.9672 175.566 93.0341 175.325 93.1678C175.086 93.2983 174.897 93.481 174.757 93.716C174.62 93.9509 174.551 94.2217 174.551 94.5284V98.7812H172.466ZM181.181 98.9281C180.408 98.9281 179.743 98.7715 179.185 98.4582C178.63 98.1418 178.203 97.6948 177.903 97.1173C177.602 96.5365 177.452 95.8497 177.452 95.0569C177.452 94.2837 177.602 93.605 177.903 93.021C178.203 92.437 178.625 91.9818 179.17 91.6556C179.718 91.3293 180.361 91.1662 181.098 91.1662C181.594 91.1662 182.056 91.2461 182.483 91.406C182.914 91.5626 183.289 91.7991 183.609 92.1156C183.932 92.4321 184.183 92.8301 184.363 93.3098C184.542 93.7861 184.632 94.344 184.632 94.9835V95.5561H178.284V94.2641H182.669C182.669 93.9639 182.604 93.698 182.474 93.4664C182.343 93.2347 182.162 93.0536 181.93 92.9231C181.702 92.7894 181.436 92.7225 181.133 92.7225C180.816 92.7225 180.535 92.7959 180.291 92.9427C180.049 93.0863 179.86 93.2804 179.723 93.5251C179.586 93.7665 179.516 94.0357 179.513 94.3326V95.561C179.513 95.9329 179.581 96.2543 179.718 96.5251C179.858 96.7959 180.056 97.0047 180.31 97.1515C180.565 97.2984 180.867 97.3718 181.216 97.3718C181.447 97.3718 181.659 97.3392 181.852 97.2739C182.044 97.2086 182.209 97.1108 182.346 96.9803C182.483 96.8498 182.588 96.6899 182.659 96.5006L184.588 96.6279C184.49 97.0912 184.289 97.4958 183.986 97.8416C183.686 98.1842 183.297 98.4517 182.821 98.6442C182.348 98.8335 181.801 98.9281 181.181 98.9281ZM189.418 98.9281C188.645 98.9281 187.979 98.7715 187.421 98.4582C186.867 98.1418 186.439 97.6948 186.139 97.1173C185.839 96.5365 185.689 95.8497 185.689 95.0569C185.689 94.2837 185.839 93.605 186.139 93.021C186.439 92.437 186.862 91.9818 187.407 91.6556C187.955 91.3293 188.598 91.1662 189.335 91.1662C189.831 91.1662 190.292 91.2461 190.72 91.406C191.151 91.5626 191.526 91.7991 191.846 92.1156C192.169 92.4321 192.42 92.8301 192.599 93.3098C192.779 93.7861 192.868 94.344 192.868 94.9835V95.5561H186.521V94.2641H190.906C190.906 93.9639 190.841 93.698 190.71 93.4664C190.58 93.2347 190.399 93.0536 190.167 92.9231C189.938 92.7894 189.673 92.7225 189.369 92.7225C189.053 92.7225 188.772 92.7959 188.527 92.9427C188.286 93.0863 188.097 93.2804 187.96 93.5251C187.823 93.7665 187.753 94.0357 187.749 94.3326V95.561C187.749 95.9329 187.818 96.2543 187.955 96.5251C188.095 96.7959 188.292 97.0047 188.547 97.1515C188.801 97.2984 189.103 97.3718 189.452 97.3718C189.684 97.3718 189.896 97.3392 190.089 97.2739C190.281 97.2086 190.446 97.1108 190.583 96.9803C190.72 96.8498 190.824 96.6899 190.896 96.5006L192.824 96.6279C192.726 97.0912 192.526 97.4958 192.222 97.8416C191.922 98.1842 191.534 98.4517 191.058 98.6442C190.584 98.8335 190.038 98.9281 189.418 98.9281ZM194.229 98.7812V91.2641H196.216V92.5903H196.304C196.461 92.1499 196.722 91.8024 197.087 91.5479C197.452 91.2934 197.89 91.1662 198.399 91.1662C198.914 91.1662 199.353 91.2951 199.715 91.5528C200.077 91.8073 200.319 92.1531 200.439 92.5903H200.518C200.671 92.1597 200.948 91.8155 201.35 91.5577C201.754 91.2967 202.232 91.1662 202.784 91.1662C203.485 91.1662 204.054 91.3897 204.492 91.8367C204.932 92.2804 205.152 92.9101 205.152 93.7257V98.7812H203.072V94.1368C203.072 93.7192 202.961 93.406 202.74 93.1972C202.518 92.9884 202.24 92.884 201.908 92.884C201.529 92.884 201.234 93.0047 201.022 93.2461C200.81 93.4843 200.704 93.7992 200.704 94.1907V98.7812H198.682V94.0928C198.682 93.7241 198.576 93.4305 198.364 93.2119C198.156 92.9933 197.88 92.884 197.537 92.884C197.306 92.884 197.097 92.9427 196.911 93.0602C196.728 93.1744 196.583 93.3359 196.475 93.5447C196.368 93.7502 196.314 93.9917 196.314 94.269V98.7812H194.229ZM210.225 98.9281C209.452 98.9281 208.786 98.7715 208.228 98.4582C207.674 98.1418 207.246 97.6948 206.946 97.1173C206.646 96.5365 206.496 95.8497 206.496 95.0569C206.496 94.2837 206.646 93.605 206.946 93.021C207.246 92.437 207.669 91.9818 208.214 91.6556C208.762 91.3293 209.404 91.1662 210.142 91.1662C210.638 91.1662 211.099 91.2461 211.527 91.406C211.957 91.5626 212.333 91.7991 212.652 92.1156C212.975 92.4321 213.227 92.8301 213.406 93.3098C213.585 93.7861 213.675 94.344 213.675 94.9835V95.5561H207.328V94.2641H211.713C211.713 93.9639 211.647 93.698 211.517 93.4664C211.386 93.2347 211.205 93.0536 210.974 92.9231C210.745 92.7894 210.479 92.7225 210.176 92.7225C209.86 92.7225 209.579 92.7959 209.334 92.9427C209.093 93.0863 208.904 93.2804 208.767 93.5251C208.63 93.7665 208.559 94.0357 208.556 94.3326V95.561C208.556 95.9329 208.625 96.2543 208.762 96.5251C208.902 96.7959 209.099 97.0047 209.354 97.1515C209.608 97.2984 209.91 97.3718 210.259 97.3718C210.491 97.3718 210.703 97.3392 210.895 97.2739C211.088 97.2086 211.253 97.1108 211.39 96.9803C211.527 96.8498 211.631 96.6899 211.703 96.5006L213.631 96.6279C213.533 97.0912 213.333 97.4958 213.029 97.8416C212.729 98.1842 212.341 98.4517 211.864 98.6442C211.391 98.8335 210.845 98.9281 210.225 98.9281ZM217.121 94.4354V98.7812H215.036V91.2641H217.023V92.5903H217.111C217.277 92.1531 217.556 91.8073 217.948 91.5528C218.339 91.2951 218.814 91.1662 219.372 91.1662C219.894 91.1662 220.349 91.2804 220.737 91.5088C221.126 91.7371 221.427 92.0634 221.643 92.4876C221.858 92.9084 221.966 93.4109 221.966 93.9949V98.7812H219.881V94.3669C219.884 93.9068 219.767 93.5479 219.528 93.2902C219.29 93.0292 218.962 92.8987 218.545 92.8987C218.264 92.8987 218.016 92.959 217.801 93.0797C217.589 93.2005 217.422 93.3766 217.302 93.6083C217.184 93.8367 217.124 94.1124 217.121 94.4354ZM227.607 91.2641V92.8301H223.08V91.2641H227.607ZM224.108 89.4631H226.193V96.4713C226.193 96.6638 226.222 96.8139 226.281 96.9215C226.34 97.0259 226.421 97.0993 226.526 97.1418C226.633 97.1842 226.757 97.2054 226.898 97.2054C226.995 97.2054 227.093 97.1972 227.191 97.1809C227.289 97.1613 227.364 97.1467 227.416 97.1369L227.744 98.6883C227.64 98.7209 227.493 98.7584 227.304 98.8008C227.115 98.8465 226.885 98.8742 226.614 98.884C226.111 98.9036 225.671 98.8367 225.292 98.6834C224.917 98.53 224.625 98.2918 224.416 97.9688C224.208 97.6458 224.105 97.238 224.108 96.7453V89.4631ZM233.638 98.7812L231.592 91.2641H233.701L234.866 96.3147H234.935L236.148 91.2641H238.219L239.452 96.2853H239.516L240.661 91.2641H242.765L240.724 98.7812H238.517L237.225 94.0536H237.132L235.84 98.7812H233.638ZM243.877 98.7812V91.2641H245.962V98.7812H243.877ZM244.925 90.295C244.615 90.295 244.349 90.1923 244.127 89.9867C243.908 89.7779 243.799 89.5283 243.799 89.2379C243.799 88.9508 243.908 88.7045 244.127 88.4989C244.349 88.2901 244.615 88.1857 244.925 88.1857C245.235 88.1857 245.499 88.2901 245.717 88.4989C245.939 88.7045 246.05 88.9508 246.05 89.2379C246.05 89.5283 245.939 89.7779 245.717 89.9867C245.499 90.1923 245.235 90.295 244.925 90.295ZM251.631 91.2641V92.8301H247.104V91.2641H251.631ZM248.131 89.4631H250.216V96.4713C250.216 96.6638 250.246 96.8139 250.304 96.9215C250.363 97.0259 250.445 97.0993 250.549 97.1418C250.657 97.1842 250.781 97.2054 250.921 97.2054C251.019 97.2054 251.117 97.1972 251.215 97.1809C251.313 97.1613 251.388 97.1467 251.44 97.1369L251.768 98.6883C251.663 98.7209 251.516 98.7584 251.327 98.8008C251.138 98.8465 250.908 98.8742 250.637 98.884C250.135 98.9036 249.694 98.8367 249.316 98.6834C248.941 98.53 248.649 98.2918 248.44 97.9688C248.231 97.6458 248.128 97.238 248.131 96.7453V89.4631ZM255.235 94.4354V98.7812H253.15V88.7583H255.176V92.5903H255.264C255.434 92.1466 255.708 91.7991 256.087 91.5479C256.465 91.2934 256.94 91.1662 257.511 91.1662C258.033 91.1662 258.488 91.2804 258.876 91.5088C259.268 91.7339 259.571 92.0585 259.787 92.4827C260.005 92.9036 260.113 93.4076 260.11 93.9949V98.7812H258.025V94.3669C258.028 93.9036 257.91 93.543 257.672 93.2853C257.437 93.0275 257.108 92.8987 256.684 92.8987C256.4 92.8987 256.149 92.959 255.93 93.0797C255.715 93.2005 255.545 93.3766 255.421 93.6083C255.3 93.8367 255.238 94.1124 255.235 94.4354Z" fill="#4B5B76"/>
<path d="M266.837 98.7812L263.969 88.7583H266.284L267.943 95.7225H268.026L269.857 88.7583H271.839L273.664 95.7372H273.752L275.412 88.7583H277.726L274.858 98.7812H272.793L270.885 92.2282H270.806L268.902 98.7812H266.837ZM278.821 98.7812V91.2641H280.906V98.7812H278.821ZM279.869 90.295C279.559 90.295 279.293 90.1923 279.071 89.9867C278.852 89.7779 278.743 89.5283 278.743 89.2379C278.743 88.9508 278.852 88.7045 279.071 88.4989C279.293 88.2901 279.559 88.1857 279.869 88.1857C280.179 88.1857 280.443 88.2901 280.662 88.4989C280.883 88.7045 280.994 88.9508 280.994 89.2379C280.994 89.5283 280.883 89.7779 280.662 89.9867C280.443 90.1923 280.179 90.295 279.869 90.295ZM284.661 88.7583V98.7812H282.576V88.7583H284.661ZM288.416 88.7583V98.7812H286.331V88.7583H288.416ZM290.086 98.7812V91.2641H292.171V98.7812H290.086ZM291.134 90.295C290.824 90.295 290.558 90.1923 290.336 89.9867C290.117 89.7779 290.008 89.5283 290.008 89.2379C290.008 88.9508 290.117 88.7045 290.336 88.4989C290.558 88.2901 290.824 88.1857 291.134 88.1857C291.443 88.1857 291.708 88.2901 291.926 88.4989C292.148 88.7045 292.259 88.9508 292.259 89.2379C292.259 89.5283 292.148 89.7779 291.926 89.9867C291.708 90.1923 291.443 90.295 291.134 90.295ZM295.985 98.9232C295.505 98.9232 295.078 98.84 294.702 98.6736C294.327 98.5039 294.03 98.2543 293.812 97.9248C293.596 97.592 293.489 97.1776 293.489 96.6817C293.489 96.2641 293.565 95.9134 293.719 95.6295C293.872 95.3457 294.081 95.1173 294.345 94.9444C294.609 94.7714 294.91 94.6409 295.246 94.5528C295.585 94.4647 295.941 94.4027 296.313 94.3669C296.75 94.3212 297.102 94.2788 297.37 94.2396C297.637 94.1972 297.831 94.1352 297.952 94.0536C298.073 93.9721 298.133 93.8514 298.133 93.6915V93.6621C298.133 93.3522 298.035 93.1124 297.84 92.9427C297.647 92.773 297.373 92.6882 297.017 92.6882C296.642 92.6882 296.344 92.7714 296.122 92.9378C295.9 93.1009 295.753 93.3065 295.681 93.5545L293.753 93.3978C293.851 92.9411 294.043 92.5463 294.331 92.2135C294.618 91.8774 294.988 91.6197 295.441 91.4402C295.898 91.2575 296.427 91.1662 297.027 91.1662C297.445 91.1662 297.844 91.2151 298.226 91.313C298.611 91.4109 298.952 91.5626 299.249 91.7681C299.549 91.9737 299.786 92.238 299.959 92.561C300.132 92.8807 300.218 93.2641 300.218 93.7111V98.7812H298.241V97.7388H298.182C298.061 97.9737 297.9 98.1809 297.698 98.3604C297.495 98.5365 297.252 98.6752 296.968 98.7764C296.685 98.8742 296.357 98.9232 295.985 98.9232ZM296.582 97.4843C296.888 97.4843 297.159 97.424 297.394 97.3033C297.629 97.1793 297.813 97.0129 297.947 96.8041C298.081 96.5953 298.148 96.3587 298.148 96.0944V95.2967C298.083 95.3391 297.993 95.3783 297.879 95.4142C297.768 95.4468 297.642 95.4778 297.502 95.5072C297.362 95.5333 297.221 95.5577 297.081 95.5806C296.941 95.6001 296.813 95.6181 296.699 95.6344C296.455 95.6703 296.241 95.7274 296.058 95.8057C295.875 95.884 295.733 95.99 295.632 96.1238C295.531 96.2543 295.481 96.4174 295.481 96.6132C295.481 96.8971 295.583 97.114 295.789 97.2641C295.998 97.4109 296.262 97.4843 296.582 97.4843ZM301.835 98.7812V91.2641H303.822V92.5903H303.911C304.067 92.1499 304.328 91.8024 304.694 91.5479C305.059 91.2934 305.496 91.1662 306.005 91.1662C306.521 91.1662 306.959 91.2951 307.322 91.5528C307.684 91.8073 307.925 92.1531 308.046 92.5903H308.124C308.278 92.1597 308.555 91.8155 308.956 91.5577C309.361 91.2967 309.839 91.1662 310.39 91.1662C311.092 91.1662 311.661 91.3897 312.098 91.8367C312.539 92.2804 312.759 92.9101 312.759 93.7257V98.7812H310.679V94.1368C310.679 93.7192 310.568 93.406 310.346 93.1972C310.124 92.9884 309.847 92.884 309.514 92.884C309.136 92.884 308.84 93.0047 308.628 93.2461C308.416 93.4843 308.31 93.7992 308.31 94.1907V98.7812H306.289V94.0928C306.289 93.7241 306.183 93.4305 305.971 93.2119C305.762 92.9933 305.486 92.884 305.144 92.884C304.912 92.884 304.703 92.9427 304.517 93.0602C304.335 93.1744 304.189 93.3359 304.082 93.5447C303.974 93.7502 303.92 93.9917 303.92 94.269V98.7812H301.835Z" fill="#0FBFC4"/>
<path d="M313.021 87.7812V100.781H314.399V87.7812H313.021Z" fill="#1C222B" mask="url(#path-22-inside-3_0_1)"/>
<rect x="152.954" y="115.94" width="177.092" height="12.4034" rx="2.06723" fill="#EBEDF1"/>
<rect x="152.954" y="137.935" width="79.2437" height="12.4034" rx="2.06723" fill="#EBEDF1"/>
<path d="M238.387 146.637L236.503 140.049H238.024L239.114 144.626H239.169L240.372 140.049H241.675L242.874 144.636H242.932L244.023 140.049H245.544L243.659 146.637H242.302L241.047 142.33H240.996L239.745 146.637H238.387ZM246.264 146.637V141.696H247.634V146.637H246.264ZM246.952 141.059C246.748 141.059 246.574 140.992 246.428 140.857C246.284 140.719 246.212 140.555 246.212 140.365C246.212 140.176 246.284 140.014 246.428 139.879C246.574 139.742 246.748 139.673 246.952 139.673C247.156 139.673 247.329 139.742 247.473 139.879C247.619 140.014 247.692 140.176 247.692 140.365C247.692 140.555 247.619 140.719 247.473 140.857C247.329 140.992 247.156 141.059 246.952 141.059ZM250.102 140.049V146.637H248.732V140.049H250.102ZM252.57 140.049V146.637H251.199V140.049H252.57ZM253.667 146.637V141.696H255.038V146.637H253.667ZM254.356 141.059C254.152 141.059 253.977 140.992 253.831 140.857C253.688 140.719 253.616 140.555 253.616 140.365C253.616 140.176 253.688 140.014 253.831 139.879C253.977 139.742 254.152 139.673 254.356 139.673C254.559 139.673 254.733 139.742 254.877 139.879C255.023 140.014 255.095 140.176 255.095 140.365C255.095 140.555 255.023 140.719 254.877 140.857C254.733 140.992 254.559 141.059 254.356 141.059ZM257.544 146.73C257.229 146.73 256.948 146.675 256.701 146.566C256.455 146.454 256.26 146.29 256.116 146.074C255.974 145.855 255.904 145.583 255.904 145.257C255.904 144.982 255.954 144.752 256.055 144.565C256.156 144.379 256.293 144.229 256.466 144.115C256.64 144.001 256.837 143.916 257.058 143.858C257.281 143.8 257.515 143.759 257.76 143.735C258.047 143.705 258.278 143.678 258.454 143.652C258.63 143.624 258.758 143.583 258.837 143.53C258.916 143.476 258.956 143.397 258.956 143.292V143.272C258.956 143.069 258.892 142.911 258.763 142.799C258.637 142.688 258.456 142.632 258.223 142.632C257.976 142.632 257.78 142.687 257.634 142.796C257.488 142.903 257.392 143.039 257.345 143.202L256.077 143.099C256.142 142.798 256.268 142.539 256.457 142.32C256.646 142.099 256.889 141.93 257.187 141.812C257.487 141.692 257.835 141.632 258.229 141.632C258.504 141.632 258.766 141.664 259.017 141.728C259.27 141.793 259.494 141.892 259.689 142.027C259.887 142.163 260.042 142.336 260.156 142.549C260.269 142.759 260.326 143.011 260.326 143.304V146.637H259.027V145.952H258.988C258.909 146.106 258.803 146.242 258.67 146.36C258.537 146.476 258.377 146.567 258.191 146.634C258.004 146.698 257.788 146.73 257.544 146.73ZM257.936 145.784C258.138 145.784 258.316 145.745 258.47 145.665C258.625 145.584 258.746 145.474 258.834 145.337C258.922 145.2 258.966 145.045 258.966 144.871V144.347C258.923 144.374 258.864 144.4 258.789 144.424C258.716 144.445 258.633 144.466 258.541 144.485C258.449 144.502 258.357 144.518 258.265 144.533C258.172 144.546 258.089 144.558 258.014 144.569C257.853 144.592 257.712 144.63 257.592 144.681C257.472 144.733 257.379 144.802 257.312 144.89C257.246 144.976 257.213 145.083 257.213 145.212C257.213 145.398 257.28 145.541 257.415 145.64C257.553 145.736 257.726 145.784 257.936 145.784ZM261.389 146.637V141.696H262.695V142.568H262.753C262.856 142.278 263.028 142.05 263.268 141.883C263.508 141.715 263.795 141.632 264.13 141.632C264.469 141.632 264.757 141.717 264.995 141.886C265.233 142.053 265.392 142.281 265.471 142.568H265.523C265.623 142.285 265.806 142.059 266.069 141.889C266.335 141.718 266.649 141.632 267.012 141.632C267.473 141.632 267.847 141.779 268.134 142.073C268.424 142.364 268.569 142.778 268.569 143.314V146.637H267.202V143.584C267.202 143.31 267.129 143.104 266.983 142.967C266.837 142.829 266.655 142.761 266.436 142.761C266.187 142.761 265.993 142.84 265.854 142.999C265.714 143.155 265.645 143.362 265.645 143.62V146.637H264.316V143.555C264.316 143.313 264.247 143.12 264.107 142.976C263.97 142.833 263.789 142.761 263.564 142.761C263.411 142.761 263.274 142.799 263.152 142.877C263.032 142.952 262.936 143.058 262.866 143.195C262.795 143.33 262.76 143.489 262.76 143.671V146.637H261.389Z" fill="#0FBFC4"/>
<path d="M268.643 137.637V150.637H270.021V137.637H268.643Z" fill="#1C222B" mask="url(#path-27-inside-4_0_1)"/>
<rect x="273.467" y="137.935" width="56.5042" height="12.4034" rx="2.06723" fill="#EBEDF1"/>
<rect x="152.954" y="159.93" width="177.092" height="12.4034" rx="2.06723" fill="#EBEDF1"/>
<rect x="152.954" y="181.626" width="59.9496" height="12.4034" rx="2.06723" fill="#EBEDF1"/>
<rect x="217.038" y="181.626" width="113.008" height="12.4034" rx="2.06723" fill="#EBEDF1"/>
<rect x="152.954" y="203.322" width="177.092" height="38.5882" rx="2.06723" fill="#EBEDF1"/>
<rect x="152.954" y="251.203" width="119.21" height="12.4034" rx="2.06723" fill="#EBEDF1"/>
<path d="M279.046 261.027V252.792H279.573V261.027H279.046ZM280.445 255.51C280.419 255.251 280.309 255.049 280.114 254.906C279.918 254.762 279.654 254.69 279.319 254.69C279.092 254.69 278.9 254.722 278.743 254.787C278.587 254.849 278.467 254.936 278.383 255.047C278.302 255.159 278.261 255.285 278.261 255.427C278.257 255.545 278.281 255.647 278.335 255.735C278.391 255.823 278.467 255.899 278.563 255.964C278.66 256.026 278.771 256.081 278.898 256.128C279.024 256.173 279.159 256.211 279.303 256.244L279.895 256.385C280.182 256.449 280.446 256.535 280.686 256.642C280.926 256.75 281.134 256.882 281.31 257.038C281.486 257.195 281.622 257.379 281.719 257.591C281.817 257.804 281.868 258.047 281.87 258.321C281.868 258.725 281.765 259.074 281.561 259.37C281.359 259.664 281.068 259.892 280.686 260.055C280.307 260.216 279.849 260.296 279.313 260.296C278.781 260.296 278.318 260.215 277.923 260.052C277.531 259.889 277.224 259.648 277.003 259.328C276.785 259.007 276.67 258.609 276.659 258.135H278.007C278.022 258.356 278.085 258.54 278.197 258.688C278.31 258.834 278.461 258.944 278.65 259.019C278.841 259.092 279.056 259.129 279.297 259.129C279.532 259.129 279.737 259.095 279.911 259.026C280.087 258.957 280.223 258.862 280.319 258.74C280.416 258.617 280.464 258.477 280.464 258.318C280.464 258.17 280.42 258.046 280.332 257.945C280.247 257.844 280.12 257.759 279.953 257.688C279.788 257.617 279.585 257.553 279.345 257.495L278.628 257.315C278.072 257.18 277.634 256.968 277.312 256.681C276.99 256.394 276.831 256.007 276.833 255.52C276.831 255.121 276.937 254.773 277.151 254.475C277.368 254.176 277.665 253.944 278.042 253.777C278.42 253.609 278.848 253.526 279.329 253.526C279.818 253.526 280.244 253.609 280.609 253.777C280.976 253.944 281.261 254.176 281.465 254.475C281.668 254.773 281.773 255.118 281.78 255.51H280.445ZM285.634 253.616V260.203H284.241V254.938H284.203L282.694 255.883V254.648L284.325 253.616H285.634ZM289.782 260.348C289.229 260.346 288.753 260.21 288.354 259.939C287.958 259.669 287.652 259.278 287.438 258.765C287.225 258.253 287.12 257.636 287.122 256.916C287.122 256.198 287.228 255.585 287.441 255.079C287.655 254.573 287.961 254.188 288.357 253.925C288.756 253.659 289.231 253.526 289.782 253.526C290.333 253.526 290.807 253.659 291.204 253.925C291.603 254.19 291.91 254.576 292.124 255.082C292.338 255.586 292.445 256.198 292.442 256.916C292.442 257.639 292.335 258.256 292.121 258.769C291.908 259.281 291.604 259.672 291.207 259.943C290.811 260.213 290.336 260.348 289.782 260.348ZM289.782 259.193C290.16 259.193 290.461 259.003 290.686 258.624C290.911 258.244 291.023 257.675 291.021 256.916C291.021 256.416 290.969 256 290.866 255.668C290.766 255.335 290.622 255.086 290.435 254.918C290.251 254.751 290.033 254.668 289.782 254.668C289.407 254.668 289.107 254.855 288.882 255.23C288.657 255.606 288.543 256.167 288.541 256.916C288.541 257.422 288.591 257.844 288.692 258.183C288.795 258.52 288.94 258.773 289.126 258.942C289.313 259.11 289.531 259.193 289.782 259.193ZM294.672 259.303L294.637 259.656C294.609 259.939 294.555 260.221 294.476 260.502C294.399 260.785 294.317 261.042 294.232 261.271C294.148 261.5 294.08 261.681 294.029 261.811H293.141C293.173 261.685 293.217 261.508 293.273 261.281C293.329 261.055 293.381 260.802 293.431 260.522C293.48 260.241 293.511 259.954 293.524 259.663L293.54 259.303H294.672ZM298.23 260.348C297.676 260.346 297.2 260.21 296.802 259.939C296.405 259.669 296.099 259.278 295.885 258.765C295.673 258.253 295.568 257.636 295.57 256.916C295.57 256.198 295.676 255.585 295.888 255.079C296.103 254.573 296.408 254.188 296.805 253.925C297.204 253.659 297.679 253.526 298.23 253.526C298.781 253.526 299.255 253.659 299.651 253.925C300.05 254.19 300.357 254.576 300.571 255.082C300.786 255.586 300.892 256.198 300.89 256.916C300.89 257.639 300.783 258.256 300.568 258.769C300.356 259.281 300.051 259.672 299.655 259.943C299.258 260.213 298.783 260.348 298.23 260.348ZM298.23 259.193C298.607 259.193 298.908 259.003 299.134 258.624C299.359 258.244 299.47 257.675 299.468 256.916C299.468 256.416 299.417 256 299.314 255.668C299.213 255.335 299.069 255.086 298.883 254.918C298.698 254.751 298.481 254.668 298.23 254.668C297.854 254.668 297.554 254.855 297.329 255.23C297.104 255.606 296.99 256.167 296.988 256.916C296.988 257.422 297.039 257.844 297.139 258.183C297.242 258.52 297.387 258.773 297.574 258.942C297.76 259.11 297.979 259.193 298.23 259.193ZM304.466 260.348C303.912 260.346 303.436 260.21 303.038 259.939C302.641 259.669 302.335 259.278 302.121 258.765C301.909 258.253 301.803 257.636 301.806 256.916C301.806 256.198 301.912 255.585 302.124 255.079C302.339 254.573 302.644 254.188 303.041 253.925C303.44 253.659 303.915 253.526 304.466 253.526C305.017 253.526 305.491 253.659 305.887 253.925C306.286 254.19 306.593 254.576 306.807 255.082C307.022 255.586 307.128 256.198 307.126 256.916C307.126 257.639 307.019 258.256 306.804 258.769C306.592 259.281 306.287 259.672 305.891 259.943C305.494 260.213 305.019 260.348 304.466 260.348ZM304.466 259.193C304.843 259.193 305.144 259.003 305.37 258.624C305.595 258.244 305.706 257.675 305.704 256.916C305.704 256.416 305.653 256 305.55 255.668C305.449 255.335 305.305 255.086 305.119 254.918C304.934 254.751 304.717 254.668 304.466 254.668C304.09 254.668 303.79 254.855 303.565 255.23C303.34 255.606 303.226 256.167 303.224 256.916C303.224 257.422 303.275 257.844 303.375 258.183C303.478 258.52 303.623 258.773 303.81 258.942C303.996 259.11 304.215 259.193 304.466 259.193ZM310.702 260.348C310.148 260.346 309.672 260.21 309.274 259.939C308.877 259.669 308.571 259.278 308.357 258.765C308.145 258.253 308.039 257.636 308.042 256.916C308.042 256.198 308.148 255.585 308.36 255.079C308.574 254.573 308.88 254.188 309.277 253.925C309.676 253.659 310.151 253.526 310.702 253.526C311.253 253.526 311.727 253.659 312.123 253.925C312.522 254.19 312.829 254.576 313.043 255.082C313.258 255.586 313.364 256.198 313.362 256.916C313.362 257.639 313.254 258.256 313.04 258.769C312.828 259.281 312.523 259.672 312.127 259.943C311.73 260.213 311.255 260.348 310.702 260.348ZM310.702 259.193C311.079 259.193 311.38 259.003 311.605 258.624C311.831 258.244 311.942 257.675 311.94 256.916C311.94 256.416 311.889 256 311.786 255.668C311.685 255.335 311.541 255.086 311.355 254.918C311.17 254.751 310.953 254.668 310.702 254.668C310.326 254.668 310.026 254.855 309.801 255.23C309.576 255.606 309.462 256.167 309.46 256.916C309.46 257.422 309.51 257.844 309.611 258.183C309.714 258.52 309.859 258.773 310.045 258.942C310.232 259.11 310.451 259.193 310.702 259.193Z" fill="#0FBFC4"/>
<rect x="318.433" y="251.203" width="11.6135" height="12.4034" rx="2.06723" fill="#EBEDF1"/>
<rect x="142.345" y="74.3445" width="198.311" height="203.296" rx="5.16807" stroke="#EBEDF1" stroke-width="0.689076"/>
</g>
<path d="M192.362 301L192.362 291.152L198.998 291.152L198.998 292.869L194.444 292.869L194.444 295.215L198.656 295.215L198.656 296.932L194.444 296.932L194.444 299.283L199.017 299.283L199.017 301L192.362 301ZM202.826 296.73L202.826 301L200.777 301L200.777 293.614L202.73 293.614L202.73 294.917L202.816 294.917C202.98 294.488 203.254 294.148 203.638 293.898C204.023 293.644 204.489 293.518 205.038 293.518C205.551 293.518 205.998 293.63 206.379 293.854C206.761 294.079 207.057 294.399 207.269 294.816C207.48 295.23 207.586 295.723 207.586 296.297L207.586 301L205.538 301L205.538 296.663C205.541 296.211 205.426 295.858 205.192 295.605C204.958 295.348 204.635 295.22 204.225 295.22C203.949 295.22 203.706 295.279 203.494 295.398C203.286 295.517 203.122 295.69 203.004 295.917C202.888 296.142 202.829 296.413 202.826 296.73ZM213.292 293.614L213.292 295.153L208.844 295.153L208.844 293.614L213.292 293.614ZM209.854 291.844L211.902 291.844L211.902 298.73C211.902 298.919 211.931 299.067 211.989 299.173C212.046 299.275 212.127 299.347 212.229 299.389C212.335 299.431 212.457 299.452 212.595 299.452C212.691 299.452 212.787 299.444 212.883 299.428C212.979 299.408 213.053 299.394 213.104 299.384L213.426 300.909C213.324 300.941 213.18 300.978 212.994 301.019C212.808 301.064 212.582 301.091 212.316 301.101C211.822 301.12 211.389 301.054 211.017 300.904C210.649 300.753 210.362 300.519 210.157 300.202C209.951 299.884 209.85 299.484 209.854 299L209.854 291.844ZM218.075 301.144C217.316 301.144 216.662 300.99 216.113 300.683C215.568 300.372 215.149 299.932 214.854 299.365C214.559 298.794 214.411 298.12 214.411 297.341C214.411 296.581 214.559 295.914 214.854 295.34C215.149 294.766 215.564 294.319 216.099 293.999C216.638 293.678 217.269 293.518 217.994 293.518C218.481 293.518 218.934 293.596 219.354 293.753C219.778 293.907 220.146 294.14 220.46 294.451C220.778 294.762 221.025 295.153 221.201 295.624C221.377 296.092 221.465 296.64 221.465 297.269L221.465 297.831L215.229 297.831L215.229 296.562L219.537 296.562C219.537 296.267 219.473 296.005 219.345 295.778C219.217 295.55 219.039 295.372 218.811 295.244C218.587 295.113 218.325 295.047 218.027 295.047C217.716 295.047 217.441 295.119 217.2 295.263C216.963 295.404 216.777 295.595 216.642 295.836C216.508 296.073 216.439 296.337 216.436 296.629L216.436 297.836C216.436 298.201 216.503 298.517 216.638 298.783C216.775 299.049 216.969 299.254 217.219 299.399C217.469 299.543 217.766 299.615 218.109 299.615C218.337 299.615 218.545 299.583 218.734 299.519C218.923 299.455 219.085 299.359 219.22 299.23C219.354 299.102 219.457 298.945 219.528 298.759L221.422 298.884C221.326 299.339 221.129 299.737 220.831 300.077C220.536 300.413 220.154 300.676 219.686 300.865C219.221 301.051 218.684 301.144 218.075 301.144ZM222.965 301L222.965 293.614L224.951 293.614L224.951 294.903L225.028 294.903C225.162 294.444 225.388 294.098 225.706 293.864C226.023 293.627 226.388 293.508 226.802 293.508C226.905 293.508 227.015 293.515 227.134 293.527C227.252 293.54 227.357 293.558 227.446 293.58L227.446 295.398C227.35 295.369 227.217 295.343 227.047 295.321C226.877 295.299 226.722 295.287 226.581 295.287C226.279 295.287 226.01 295.353 225.773 295.485C225.539 295.613 225.353 295.792 225.215 296.023C225.08 296.254 225.013 296.52 225.013 296.821L225.013 301L222.965 301ZM231.892 294.23L231.892 293.191C231.892 292.896 231.95 292.595 232.065 292.287C232.181 291.979 232.333 291.689 232.522 291.416C232.711 291.144 232.916 290.916 233.138 290.734L234.042 291.267C233.862 291.55 233.715 291.844 233.599 292.152C233.487 292.46 233.431 292.803 233.431 293.181L233.431 294.23L231.892 294.23ZM234.321 294.23L234.321 293.191C234.321 292.896 234.378 292.595 234.494 292.287C234.609 291.979 234.761 291.689 234.95 291.416C235.14 291.144 235.345 290.916 235.566 290.734L236.47 291.267C236.29 291.55 236.143 291.844 236.028 292.152C235.915 292.46 235.859 292.803 235.859 293.181L235.859 294.23L234.321 294.23ZM289.687 291.152L289.687 292.191C289.687 292.486 289.629 292.787 289.514 293.095C289.402 293.399 289.251 293.688 289.062 293.96C288.873 294.23 288.666 294.459 288.442 294.648L287.538 294.114C287.698 293.861 287.839 293.58 287.961 293.273C288.086 292.965 288.148 292.607 288.148 292.2L288.148 291.152L289.687 291.152ZM292.106 291.152L292.106 292.191C292.106 292.486 292.048 292.787 291.933 293.095C291.82 293.399 291.67 293.688 291.481 293.96C291.291 294.23 291.083 294.459 290.856 294.648L289.951 294.114C290.115 293.861 290.258 293.58 290.379 293.273C290.504 292.965 290.567 292.607 290.567 292.2L290.567 291.152L292.106 291.152Z" fill="#4B5B76"/>
<path d="M240.095 301L237.277 291.152L239.551 291.152L241.181 297.995L241.263 297.995L243.062 291.152L245.009 291.152L246.803 298.009L246.889 298.009L248.519 291.152L250.794 291.152L247.976 301L245.947 301L244.071 294.561L243.994 294.561L242.124 301L240.095 301ZM252.032 301L252.032 293.614L254.081 293.614L254.081 301L252.032 301ZM253.061 292.662C252.757 292.662 252.495 292.561 252.277 292.359C252.063 292.154 251.955 291.909 251.955 291.623C251.955 291.341 252.063 291.099 252.277 290.897C252.495 290.692 252.757 290.589 253.061 290.589C253.366 290.589 253.625 290.692 253.84 290.897C254.058 291.099 254.167 291.341 254.167 291.623C254.167 291.909 254.058 292.154 253.84 292.359C253.625 292.561 253.366 292.662 253.061 292.662ZM257.933 291.152L257.933 301L255.884 301L255.884 291.152L257.933 291.152ZM261.784 291.152L261.784 301L259.736 301L259.736 291.152L261.784 291.152ZM263.588 301L263.588 293.614L265.636 293.614L265.636 301L263.588 301ZM264.617 292.662C264.312 292.662 264.051 292.561 263.833 292.359C263.618 292.154 263.511 291.909 263.511 291.623C263.511 291.341 263.618 291.099 263.833 290.897C264.051 290.692 264.312 290.589 264.617 290.589C264.921 290.589 265.181 290.692 265.396 290.897C265.614 291.099 265.723 291.341 265.723 291.623C265.723 291.909 265.614 292.154 265.396 292.359C265.181 292.561 264.921 292.662 264.617 292.662ZM269.546 301.139C269.075 301.139 268.655 301.058 268.286 300.894C267.917 300.728 267.626 300.482 267.411 300.158C267.199 299.832 267.093 299.424 267.093 298.937C267.093 298.527 267.169 298.182 267.319 297.903C267.47 297.624 267.675 297.4 267.935 297.23C268.195 297.06 268.49 296.932 268.82 296.845C269.153 296.759 269.503 296.698 269.868 296.663C270.298 296.618 270.644 296.576 270.907 296.538C271.17 296.496 271.36 296.435 271.479 296.355C271.598 296.275 271.657 296.156 271.657 295.999L271.657 295.97C271.657 295.666 271.561 295.43 271.368 295.263C271.179 295.097 270.91 295.013 270.56 295.013C270.192 295.013 269.898 295.095 269.68 295.259C269.463 295.419 269.318 295.621 269.248 295.864L267.353 295.711C267.449 295.262 267.638 294.874 267.921 294.547C268.203 294.217 268.567 293.963 269.012 293.787C269.461 293.608 269.98 293.518 270.57 293.518C270.98 293.518 271.373 293.566 271.748 293.662C272.126 293.758 272.461 293.907 272.753 294.109C273.048 294.311 273.281 294.571 273.45 294.888C273.62 295.202 273.705 295.579 273.705 296.018L273.705 301L271.763 301L271.763 299.976L271.705 299.976C271.586 300.207 271.428 300.41 271.229 300.586C271.03 300.76 270.791 300.896 270.512 300.995C270.233 301.091 269.911 301.139 269.546 301.139ZM270.133 299.726C270.434 299.726 270.7 299.666 270.931 299.548C271.162 299.426 271.343 299.262 271.474 299.057C271.606 298.852 271.671 298.62 271.671 298.36L271.671 297.576C271.607 297.618 271.519 297.656 271.407 297.692C271.298 297.724 271.174 297.754 271.037 297.783C270.899 297.809 270.761 297.833 270.623 297.855C270.485 297.874 270.36 297.892 270.248 297.908C270.007 297.943 269.798 297.999 269.618 298.076C269.438 298.153 269.299 298.258 269.2 298.389C269.1 298.517 269.051 298.677 269.051 298.87C269.051 299.149 269.152 299.362 269.354 299.509C269.559 299.654 269.818 299.726 270.133 299.726ZM275.457 301L275.457 293.614L277.409 293.614L277.409 294.917L277.496 294.917C277.65 294.484 277.906 294.143 278.265 293.893C278.624 293.643 279.054 293.518 279.554 293.518C280.06 293.518 280.492 293.644 280.847 293.898C281.203 294.148 281.44 294.488 281.559 294.917L281.636 294.917C281.787 294.494 282.059 294.156 282.454 293.903C282.851 293.646 283.321 293.518 283.862 293.518C284.552 293.518 285.111 293.737 285.541 294.177C285.973 294.613 286.19 295.231 286.19 296.033L286.19 301L284.146 301L284.146 296.437C284.146 296.026 284.037 295.719 283.819 295.513C283.601 295.308 283.329 295.206 283.002 295.206C282.63 295.206 282.34 295.324 282.131 295.561C281.923 295.796 281.819 296.105 281.819 296.49L281.819 301L279.833 301L279.833 296.393C279.833 296.031 279.729 295.743 279.52 295.528C279.315 295.313 279.044 295.206 278.708 295.206C278.48 295.206 278.275 295.263 278.092 295.379C277.913 295.491 277.77 295.65 277.664 295.855C277.558 296.057 277.505 296.294 277.505 296.566L277.505 301L275.457 301Z" fill="#0FBFC4"/>
<defs>
<filter id="filter0_d_0_1" x="0" y="0" width="222" height="229" filterUnits="userSpaceOnUse" color-interpolation-filters="sRGB">
<feFlood flood-opacity="0" result="BackgroundImageFix"/>
<feColorMatrix in="SourceAlpha" type="matrix" values="0 0 0 0 0 0 0 0 0 0 0 0 0 0 0 0 0 0 127 0" result="hardAlpha"/>
<feOffset/>
<feGaussianBlur stdDeviation="8"/>
<feComposite in2="hardAlpha" operator="out"/>
<feColorMatrix type="matrix" values="0 0 0 0 0 0 0 0 0 0.101961 0 0 0 0 0.121569 0 0 0 0.08 0"/>
<feBlend mode="normal" in2="BackgroundImageFix" result="effect1_dropShadow_0_1"/>
<feBlend mode="normal" in="SourceGraphic" in2="effect1_dropShadow_0_1" result="shape"/>
</filter>
<filter id="filter1_d_0_1" x="126" y="58" width="231" height="235.985" filterUnits="userSpaceOnUse" color-interpolation-filters="sRGB">
<feFlood flood-opacity="0" result="BackgroundImageFix"/>
<feColorMatrix in="SourceAlpha" type="matrix" values="0 0 0 0 0 0 0 0 0 0 0 0 0 0 0 0 0 0 127 0" result="hardAlpha"/>
<feOffset/>
<feGaussianBlur stdDeviation="8"/>
<feComposite in2="hardAlpha" operator="out"/>
<feColorMatrix type="matrix" values="0 0 0 0 0 0 0 0 0 0.101961 0 0 0 0 0.121569 0 0 0 0.08 0"/>
<feBlend mode="normal" in2="BackgroundImageFix" result="effect1_dropShadow_0_1"/>
<feBlend mode="normal" in="SourceGraphic" in2="effect1_dropShadow_0_1" result="shape"/>
</filter>
</defs>
</svg>
