<svg width="358" height="362" viewBox="0 0 358 362" fill="none" xmlns="http://www.w3.org/2000/svg">
<g filter="url(#filter0_d_386_10507)">
<rect x="16.3292" y="16.3292" width="189.602" height="239.268" rx="4.93755" fill="white"/>
<rect x="16.3292" y="16.3292" width="189.602" height="239.268" rx="4.93755" stroke="#EBEDF1" stroke-width="0.65834"/>
<g clip-path="url(#clip0_386_10507)">
<path fill-rule="evenodd" clip-rule="evenodd" d="M42.1621 29.9603C42.2284 30.0867 42.1456 30.2321 42.0068 30.2657L29.7179 33.2451C29.4833 33.302 29.4614 33.6271 29.6863 33.7149L36.6598 36.4391C36.9764 36.5628 36.9348 37.0234 36.6012 37.0884L26.8284 38.9912C26.676 39.0209 26.5344 38.9042 26.5344 38.7489V30.6479C26.5344 29.83 27.1975 29.167 28.0154 29.167H40.8501C41.4198 29.167 41.9144 29.4887 42.1621 29.9603ZM26.7273 44.214C26.6601 44.0959 26.7269 43.9533 26.8541 43.9059L41.9981 38.2652C42.1594 38.2052 42.3311 38.3244 42.3311 38.4965V43.4827C42.3311 44.3006 41.668 44.9636 40.8501 44.9636H28.0154C27.4634 44.9636 26.982 44.6617 26.7273 44.214ZM42.3311 35.6763C42.3311 35.8386 42.1771 35.9567 42.0203 35.9147L35.124 34.0667C34.8884 34.0035 34.8774 33.6734 35.1082 33.5946L42.0045 31.2423C42.1647 31.1877 42.3311 31.3067 42.3311 31.4759V35.6763Z" fill="#0FBFC4"/>
</g>
<path d="M29.017 65.1807H26.8475L30.1532 55.6048H32.7622L36.0633 65.1807H33.8937L31.4951 57.793H31.4203L29.017 65.1807ZM28.8814 61.4167H34.006V62.9971H28.8814V61.4167ZM40.0797 68.0235C39.4345 68.0235 38.8812 67.9347 38.4198 67.757C37.9616 67.5824 37.5969 67.344 37.3257 67.0416C37.0545 66.7392 36.8784 66.3995 36.7974 66.0223L38.6396 65.7745C38.6957 65.9179 38.7845 66.0519 38.9061 66.1766C39.0277 66.3013 39.1882 66.401 39.3877 66.4758C39.5903 66.5538 39.8366 66.5927 40.1265 66.5927C40.5597 66.5927 40.9167 66.4867 41.1972 66.2748C41.4809 66.0659 41.6227 65.7153 41.6227 65.2227V63.9089H41.5385C41.4513 64.1084 41.3203 64.297 41.1458 64.4746C40.9712 64.6523 40.7468 64.7973 40.4725 64.9095C40.1982 65.0217 39.8709 65.0778 39.4906 65.0778C38.9513 65.0778 38.4604 64.9531 38.0177 64.7037C37.5782 64.4513 37.2275 64.0663 36.9657 63.5488C36.707 63.0283 36.5776 62.3706 36.5776 61.5757C36.5776 60.7621 36.7101 60.0826 36.975 59.5371C37.24 58.9916 37.5922 58.5832 38.0317 58.312C38.4744 58.0409 38.9591 57.9053 39.4859 57.9053C39.888 57.9053 40.2247 57.9738 40.4958 58.111C40.767 58.245 40.9852 58.4134 41.1504 58.616C41.3188 58.8155 41.4481 59.0118 41.5385 59.2051H41.6133V57.9988H43.5912V65.2508C43.5912 65.8618 43.4415 66.373 43.1423 66.7844C42.8431 67.1959 42.4285 67.5045 41.8986 67.7102C41.3718 67.9191 40.7655 68.0235 40.0797 68.0235ZM40.1218 63.5816C40.4429 63.5816 40.714 63.5021 40.9354 63.3431C41.1598 63.181 41.3312 62.9504 41.4497 62.6511C41.5713 62.3487 41.632 61.9872 41.632 61.5663C41.632 61.1455 41.5728 60.7808 41.4544 60.4722C41.3359 60.1605 41.1645 59.9189 40.94 59.7475C40.7156 59.576 40.4429 59.4903 40.1218 59.4903C39.7945 59.4903 39.5186 59.5792 39.2942 59.7568C39.0698 59.9314 38.8999 60.1745 38.7845 60.4863C38.6692 60.798 38.6115 61.158 38.6115 61.5663C38.6115 61.9809 38.6692 62.3394 38.7845 62.6418C38.903 62.941 39.0729 63.1732 39.2942 63.3384C39.5186 63.5005 39.7945 63.5816 40.1218 63.5816ZM45.1762 65.1807V57.9988H47.1073V59.2519H47.1821C47.313 58.8061 47.5328 58.4695 47.8414 58.2419C48.15 58.0112 48.5053 57.8959 48.9074 57.8959C49.0072 57.8959 49.1147 57.9021 49.2301 57.9146C49.3454 57.9271 49.4467 57.9442 49.534 57.966V59.7335C49.4405 59.7054 49.3111 59.6805 49.1459 59.6587C48.9807 59.6368 48.8295 59.6259 48.6924 59.6259C48.3994 59.6259 48.1375 59.6898 47.9068 59.8176C47.6793 59.9423 47.4985 60.1169 47.3645 60.3413C47.2335 60.5657 47.1681 60.8245 47.1681 61.1175V65.1807H45.1762ZM53.5025 65.3209C52.7637 65.3209 52.1278 65.1713 51.5948 64.8721C51.0649 64.5697 50.6566 64.1427 50.3698 63.5909C50.083 63.0361 49.9396 62.3799 49.9396 61.6224C49.9396 60.8837 50.083 60.2353 50.3698 59.6774C50.6566 59.1194 51.0602 58.6845 51.5808 58.3728C52.1045 58.0611 52.7185 57.9053 53.423 57.9053C53.8968 57.9053 54.3379 57.9816 54.7462 58.1344C55.1577 58.284 55.5162 58.51 55.8217 58.8123C56.1303 59.1147 56.3703 59.495 56.5417 59.9532C56.7132 60.4083 56.7989 60.9414 56.7989 61.5523V62.0994H50.7345V60.865H54.9239C54.9239 60.5782 54.8616 60.3242 54.7369 60.1028C54.6122 59.8815 54.4392 59.7085 54.2179 59.5838C53.9997 59.456 53.7456 59.3921 53.4557 59.3921C53.1534 59.3921 52.8853 59.4623 52.6515 59.6025C52.4209 59.7397 52.2401 59.9252 52.1091 60.159C51.9782 60.3896 51.9112 60.6468 51.9081 60.9304V62.104C51.9081 62.4594 51.9735 62.7664 52.1045 63.0252C52.2385 63.2839 52.4271 63.4834 52.6702 63.6237C52.9134 63.7639 53.2017 63.8341 53.5352 63.8341C53.7565 63.8341 53.9592 63.8029 54.1431 63.7405C54.327 63.6782 54.4844 63.5847 54.6153 63.46C54.7462 63.3353 54.846 63.1826 54.9146 63.0018L56.7568 63.1234C56.6633 63.566 56.4716 63.9525 56.1817 64.2829C55.8949 64.6102 55.524 64.8658 55.0689 65.0497C54.6169 65.2305 54.0948 65.3209 53.5025 65.3209ZM61.3717 65.3209C60.633 65.3209 59.9971 65.1713 59.464 64.8721C58.9341 64.5697 58.5258 64.1427 58.239 63.5909C57.9522 63.0361 57.8088 62.3799 57.8088 61.6224C57.8088 60.8837 57.9522 60.2353 58.239 59.6774C58.5258 59.1194 58.9294 58.6845 59.45 58.3728C59.9737 58.0611 60.5878 57.9053 61.2922 57.9053C61.766 57.9053 62.2071 57.9816 62.6155 58.1344C63.0269 58.284 63.3854 58.51 63.6909 58.8123C63.9995 59.1147 64.2395 59.495 64.4109 59.9532C64.5824 60.4083 64.6681 60.9414 64.6681 61.5523V62.0994H58.6037V60.865H62.7931C62.7931 60.5782 62.7308 60.3242 62.6061 60.1028C62.4814 59.8815 62.3084 59.7085 62.0871 59.5838C61.8689 59.456 61.6149 59.3921 61.325 59.3921C61.0226 59.3921 60.7545 59.4623 60.5207 59.6025C60.2901 59.7397 60.1093 59.9252 59.9784 60.159C59.8474 60.3896 59.7804 60.6468 59.7773 60.9304V62.104C59.7773 62.4594 59.8428 62.7664 59.9737 63.0252C60.1077 63.2839 60.2963 63.4834 60.5394 63.6237C60.7826 63.7639 61.0709 63.8341 61.4045 63.8341C61.6258 63.8341 61.8284 63.8029 62.0123 63.7405C62.1962 63.6782 62.3536 63.5847 62.4845 63.46C62.6155 63.3353 62.7152 63.1826 62.7838 63.0018L64.626 63.1234C64.5325 63.566 64.3408 63.9525 64.0509 64.2829C63.7641 64.6102 63.3932 64.8658 62.9381 65.0497C62.4861 65.2305 61.964 65.3209 61.3717 65.3209ZM65.9679 65.1807V57.9988H67.8663V59.2659H67.9504C68.1001 58.8451 68.3494 58.5131 68.6986 58.27C69.0477 58.0268 69.4654 57.9053 69.9516 57.9053C70.4442 57.9053 70.8634 58.0284 71.2094 58.2746C71.5554 58.5178 71.7861 58.8482 71.9014 59.2659H71.9762C72.1227 58.8544 72.3877 58.5256 72.7711 58.2793C73.1576 58.0299 73.6143 57.9053 74.1411 57.9053C74.8113 57.9053 75.3552 58.1188 75.7729 58.5458C76.1937 58.9698 76.4041 59.5714 76.4041 60.3507V65.1807H74.417V60.7434C74.417 60.3444 74.311 60.0452 74.099 59.8457C73.887 59.6462 73.6221 59.5464 73.3041 59.5464C72.9425 59.5464 72.6604 59.6618 72.4578 59.8924C72.2552 60.12 72.1539 60.4208 72.1539 60.7948V65.1807H70.2228V60.7013C70.2228 60.3491 70.1215 60.0686 69.9189 59.8597C69.7194 59.6509 69.456 59.5464 69.1287 59.5464C68.9074 59.5464 68.7079 59.6025 68.5302 59.7148C68.3557 59.8239 68.217 59.9782 68.1141 60.1777C68.0112 60.374 67.9598 60.6047 67.9598 60.8697V65.1807H65.9679ZM81.2505 65.3209C80.5117 65.3209 79.8758 65.1713 79.3428 64.8721C78.8129 64.5697 78.4046 64.1427 78.1178 63.5909C77.831 63.0361 77.6876 62.3799 77.6876 61.6224C77.6876 60.8837 77.831 60.2353 78.1178 59.6774C78.4046 59.1194 78.8082 58.6845 79.3288 58.3728C79.8525 58.0611 80.4665 57.9053 81.171 57.9053C81.6448 57.9053 82.0859 57.9816 82.4942 58.1344C82.9057 58.284 83.2642 58.51 83.5697 58.8123C83.8782 59.1147 84.1183 59.495 84.2897 59.9532C84.4612 60.4083 84.5469 60.9414 84.5469 61.5523V62.0994H78.4825V60.865H82.6719C82.6719 60.5782 82.6096 60.3242 82.4849 60.1028C82.3602 59.8815 82.1872 59.7085 81.9659 59.5838C81.7477 59.456 81.4936 59.3921 81.2037 59.3921C80.9014 59.3921 80.6333 59.4623 80.3995 59.6025C80.1689 59.7397 79.9881 59.9252 79.8571 60.159C79.7262 60.3896 79.6592 60.6468 79.6561 60.9304V62.104C79.6561 62.4594 79.7215 62.7664 79.8525 63.0252C79.9865 63.2839 80.1751 63.4834 80.4182 63.6237C80.6614 63.7639 80.9497 63.8341 81.2832 63.8341C81.5045 63.8341 81.7072 63.8029 81.8911 63.7405C82.075 63.6782 82.2324 63.5847 82.3633 63.46C82.4942 63.3353 82.594 63.1826 82.6626 63.0018L84.5048 63.1234C84.4113 63.566 84.2196 63.9525 83.9297 64.2829C83.6429 64.6102 83.272 64.8658 82.8169 65.0497C82.3649 65.2305 81.8428 65.3209 81.2505 65.3209ZM87.8386 61.0286V65.1807H85.8467V57.9988H87.7451V59.2659H87.8292C87.9882 58.8482 88.2547 58.5178 88.6288 58.2746C89.0028 58.0284 89.4564 57.9053 89.9894 57.9053C90.4881 57.9053 90.923 58.0144 91.2939 58.2326C91.6649 58.4508 91.9532 58.7625 92.1589 59.1677C92.3647 59.5698 92.4675 60.0499 92.4675 60.6078V65.1807H90.4757V60.9632C90.4788 60.5237 90.3666 60.1808 90.139 59.9345C89.9115 59.6851 89.5982 59.5605 89.1992 59.5605C88.9311 59.5605 88.6942 59.6181 88.4885 59.7335C88.2859 59.8488 88.1269 60.0171 88.0116 60.2384C87.8994 60.4566 87.8417 60.72 87.8386 61.0286ZM97.8574 57.9988V59.495H93.5324V57.9988H97.8574ZM94.5143 56.2781H96.5062V62.9737C96.5062 63.1576 96.5342 63.301 96.5903 63.4039C96.6464 63.5036 96.7244 63.5738 96.8241 63.6143C96.927 63.6548 97.0454 63.6751 97.1795 63.6751C97.273 63.6751 97.3665 63.6673 97.46 63.6517C97.5535 63.633 97.6252 63.619 97.6751 63.6096L97.9884 65.0918C97.8886 65.123 97.7483 65.1588 97.5676 65.1994C97.3868 65.243 97.167 65.2695 96.9083 65.2789C96.4282 65.2976 96.0074 65.2337 95.6458 65.0871C95.2874 64.9406 95.0084 64.7131 94.8089 64.4045C94.6094 64.0959 94.5112 63.7063 94.5143 63.2356V56.2781ZM103.619 65.1807L101.665 57.9988H103.68L104.793 62.8241H104.858L106.018 57.9988H107.996L109.174 62.7961H109.235L110.329 57.9988H112.339L110.39 65.1807H108.281L107.046 60.6639H106.958L105.723 65.1807H103.619ZM113.402 65.1807V57.9988H115.394V65.1807H113.402ZM114.402 57.073C114.106 57.073 113.852 56.9748 113.64 56.7784C113.431 56.5789 113.327 56.3405 113.327 56.063C113.327 55.7887 113.431 55.5534 113.64 55.357C113.852 55.1575 114.106 55.0578 114.402 55.0578C114.699 55.0578 114.951 55.1575 115.16 55.357C115.372 55.5534 115.478 55.7887 115.478 56.063C115.478 56.3405 115.372 56.5789 115.16 56.7784C114.951 56.9748 114.699 57.073 114.402 57.073ZM120.809 57.9988V59.495H116.484V57.9988H120.809ZM117.466 56.2781H119.458V62.9737C119.458 63.1576 119.486 63.301 119.542 63.4039C119.598 63.5036 119.676 63.5738 119.776 63.6143C119.879 63.6548 119.997 63.6751 120.131 63.6751C120.225 63.6751 120.318 63.6673 120.412 63.6517C120.505 63.633 120.577 63.619 120.627 63.6096L120.94 65.0918C120.841 65.123 120.7 65.1588 120.519 65.1994C120.339 65.243 120.119 65.2695 119.86 65.2789C119.38 65.2976 118.959 65.2337 118.598 65.0871C118.239 64.9406 117.96 64.7131 117.761 64.4045C117.561 64.0959 117.463 63.7063 117.466 63.2356V56.2781ZM124.253 61.0286V65.1807H122.261V55.6048H124.197V59.2659H124.281C124.443 58.842 124.705 58.51 125.067 58.27C125.428 58.0268 125.882 57.9053 126.427 57.9053C126.926 57.9053 127.361 58.0144 127.732 58.2326C128.106 58.4476 128.396 58.7578 128.601 59.163C128.81 59.5651 128.913 60.0467 128.91 60.6078V65.1807H126.918V60.9632C126.921 60.5205 126.809 60.1761 126.582 59.9298C126.357 59.6836 126.042 59.5605 125.637 59.5605C125.366 59.5605 125.126 59.6181 124.917 59.7335C124.711 59.8488 124.549 60.0171 124.431 60.2384C124.315 60.4566 124.256 60.72 124.253 61.0286Z" fill="#4B5B76"/>
<path d="M133.636 57.274V55.6048H141.5V57.274H138.568V65.1807H136.567V57.274H133.636ZM143.829 65.3163C143.37 65.3163 142.962 65.2368 142.604 65.0778C142.245 64.9157 141.961 64.6772 141.753 64.3624C141.547 64.0445 141.444 63.6486 141.444 63.1748C141.444 62.7758 141.517 62.4407 141.664 62.1695C141.81 61.8983 142.01 61.6801 142.262 61.5149C142.515 61.3497 142.801 61.225 143.123 61.1409C143.447 61.0567 143.787 60.9975 144.142 60.9632C144.56 60.9195 144.896 60.879 145.152 60.8416C145.407 60.8011 145.593 60.7419 145.708 60.6639C145.824 60.586 145.881 60.4707 145.881 60.3179V60.2899C145.881 59.9937 145.788 59.7646 145.601 59.6025C145.417 59.4405 145.155 59.3594 144.815 59.3594C144.457 59.3594 144.171 59.4389 143.96 59.5979C143.748 59.7537 143.607 59.9501 143.539 60.187L141.696 60.0374C141.79 59.601 141.974 59.2238 142.248 58.9059C142.523 58.5848 142.876 58.3385 143.31 58.1671C143.746 57.9925 144.251 57.9053 144.825 57.9053C145.224 57.9053 145.605 57.952 145.97 58.0455C146.338 58.139 146.664 58.284 146.947 58.4804C147.234 58.6768 147.46 58.9292 147.625 59.2378C147.79 59.5433 147.873 59.9096 147.873 60.3366V65.1807H145.984V64.1847H145.928C145.813 64.4092 145.658 64.6071 145.465 64.7786C145.272 64.9469 145.04 65.0794 144.768 65.176C144.497 65.2695 144.184 65.3163 143.829 65.3163ZM144.399 63.9416C144.692 63.9416 144.951 63.8839 145.175 63.7686C145.4 63.6501 145.576 63.4912 145.704 63.2917C145.831 63.0922 145.895 62.8662 145.895 62.6137V61.8516C145.833 61.8921 145.747 61.9295 145.638 61.9638C145.532 61.9949 145.412 62.0246 145.278 62.0526C145.144 62.0776 145.01 62.1009 144.876 62.1227C144.742 62.1415 144.62 62.1586 144.511 62.1742C144.277 62.2085 144.073 62.263 143.899 62.3378C143.724 62.4126 143.589 62.514 143.492 62.6418C143.395 62.7664 143.347 62.9223 143.347 63.1093C143.347 63.3805 143.445 63.5878 143.642 63.7312C143.841 63.8715 144.094 63.9416 144.399 63.9416ZM149.418 65.1807V57.9988H151.349V59.2519H151.424C151.555 58.8061 151.775 58.4695 152.084 58.2419C152.392 58.0112 152.748 57.8959 153.15 57.8959C153.249 57.8959 153.357 57.9021 153.472 57.9146C153.588 57.9271 153.689 57.9442 153.776 57.966V59.7335C153.683 59.7054 153.553 59.6805 153.388 59.6587C153.223 59.6368 153.072 59.6259 152.935 59.6259C152.642 59.6259 152.38 59.6898 152.149 59.8176C151.921 59.9423 151.741 60.1169 151.607 60.3413C151.476 60.5657 151.41 60.8245 151.41 61.1175V65.1807H149.418ZM157.717 65.3209C156.99 65.3209 156.362 65.1666 155.832 64.858C155.306 64.5463 154.899 64.113 154.612 63.5582C154.325 63.0002 154.182 62.3534 154.182 61.6178C154.182 60.8759 154.325 60.2275 154.612 59.6727C154.899 59.1147 155.306 58.6814 155.832 58.3728C156.362 58.0611 156.99 57.9053 157.717 57.9053C158.443 57.9053 159.069 58.0611 159.596 58.3728C160.126 58.6814 160.535 59.1147 160.821 59.6727C161.108 60.2275 161.251 60.8759 161.251 61.6178C161.251 62.3534 161.108 63.0002 160.821 63.5582C160.535 64.113 160.126 64.5463 159.596 64.858C159.069 65.1666 158.443 65.3209 157.717 65.3209ZM157.726 63.778C158.056 63.778 158.332 63.6844 158.554 63.4974C158.775 63.3073 158.942 63.0485 159.054 62.7212C159.169 62.3939 159.227 62.0214 159.227 61.6037C159.227 61.186 159.169 60.8136 159.054 60.4863C158.942 60.159 158.775 59.9002 158.554 59.7101C158.332 59.5199 158.056 59.4249 157.726 59.4249C157.392 59.4249 157.112 59.5199 156.884 59.7101C156.66 59.9002 156.49 60.159 156.375 60.4863C156.262 60.8136 156.206 61.186 156.206 61.6037C156.206 62.0214 156.262 62.3939 156.375 62.7212C156.49 63.0485 156.66 63.3073 156.884 63.4974C157.112 63.6844 157.392 63.778 157.726 63.778Z" fill="#0051D9"/>
<path d="M161.51 54.1807V66.1807H162.826V54.1807H161.51Z" fill="#1C222B" mask="url(#path-4-inside-1_386_10507)"/>
<rect x="26.5342" y="80.6641" width="169.193" height="11.8501" rx="1.97502" fill="#EBEDF1"/>
<rect x="26.5342" y="101.468" width="75.7091" height="11.8501" rx="1.97502" fill="#EBEDF1"/>
<path d="M106.501 105.196V104.099H111.669V105.196H109.743V110.393H108.427V105.196H106.501ZM113.2 110.482C112.899 110.482 112.63 110.429 112.395 110.325C112.159 110.218 111.973 110.062 111.835 109.855C111.7 109.646 111.633 109.386 111.633 109.074C111.633 108.812 111.681 108.592 111.777 108.414C111.873 108.235 112.004 108.092 112.17 107.983C112.336 107.875 112.525 107.793 112.736 107.737C112.949 107.682 113.172 107.643 113.406 107.621C113.68 107.592 113.902 107.565 114.07 107.541C114.238 107.514 114.359 107.475 114.435 107.424C114.511 107.373 114.549 107.297 114.549 107.197V107.178C114.549 106.984 114.487 106.833 114.365 106.726C114.244 106.62 114.072 106.567 113.848 106.567C113.613 106.567 113.425 106.619 113.286 106.723C113.147 106.826 113.054 106.955 113.009 107.111L111.799 107.012C111.86 106.725 111.981 106.478 112.161 106.269C112.341 106.058 112.574 105.896 112.859 105.783C113.146 105.668 113.477 105.611 113.854 105.611C114.117 105.611 114.368 105.642 114.607 105.703C114.849 105.765 115.063 105.86 115.25 105.989C115.438 106.118 115.587 106.284 115.695 106.487C115.804 106.688 115.858 106.928 115.858 107.209V110.393H114.617V109.738H114.58C114.504 109.886 114.402 110.016 114.275 110.128C114.148 110.239 113.996 110.326 113.818 110.39C113.639 110.451 113.433 110.482 113.2 110.482ZM113.575 109.578C113.767 109.578 113.937 109.54 114.085 109.465C114.232 109.387 114.348 109.282 114.432 109.151C114.516 109.02 114.558 108.871 114.558 108.705V108.205C114.517 108.231 114.461 108.256 114.389 108.278C114.319 108.299 114.241 108.318 114.152 108.337C114.064 108.353 113.976 108.368 113.888 108.383C113.8 108.395 113.72 108.406 113.649 108.417C113.495 108.439 113.361 108.475 113.246 108.524C113.131 108.573 113.042 108.64 112.979 108.724C112.915 108.806 112.883 108.908 112.883 109.031C112.883 109.209 112.948 109.346 113.077 109.44C113.208 109.532 113.374 109.578 113.575 109.578ZM116.874 110.393V105.672H118.143V106.496H118.192C118.278 106.203 118.422 105.982 118.625 105.832C118.828 105.681 119.062 105.605 119.326 105.605C119.391 105.605 119.462 105.609 119.538 105.617C119.614 105.625 119.68 105.637 119.738 105.651V106.813C119.676 106.794 119.591 106.778 119.483 106.763C119.374 106.749 119.275 106.742 119.185 106.742C118.992 106.742 118.82 106.784 118.668 106.868C118.519 106.95 118.4 107.064 118.312 107.212C118.226 107.36 118.183 107.53 118.183 107.722V110.393H116.874ZM122.328 110.485C121.85 110.485 121.437 110.383 121.089 110.181C120.743 109.976 120.476 109.691 120.287 109.326C120.099 108.96 120.004 108.534 120.004 108.051C120.004 107.563 120.099 107.137 120.287 106.773C120.476 106.406 120.743 106.121 121.089 105.918C121.437 105.713 121.85 105.611 122.328 105.611C122.805 105.611 123.217 105.713 123.563 105.918C123.911 106.121 124.18 106.406 124.368 106.773C124.556 107.137 124.651 107.563 124.651 108.051C124.651 108.534 124.556 108.96 124.368 109.326C124.18 109.691 123.911 109.976 123.563 110.181C123.217 110.383 122.805 110.485 122.328 110.485ZM122.334 109.471C122.551 109.471 122.732 109.409 122.878 109.286C123.023 109.161 123.133 108.991 123.206 108.776C123.282 108.561 123.32 108.316 123.32 108.042C123.32 107.767 123.282 107.522 123.206 107.307C123.133 107.092 123.023 106.922 122.878 106.797C122.732 106.672 122.551 106.61 122.334 106.61C122.114 106.61 121.93 106.672 121.781 106.797C121.633 106.922 121.521 107.092 121.446 107.307C121.372 107.522 121.335 107.767 121.335 108.042C121.335 108.316 121.372 108.561 121.446 108.776C121.521 108.991 121.633 109.161 121.781 109.286C121.93 109.409 122.114 109.471 122.334 109.471Z" fill="#0051D9"/>
<path d="M124.535 101.393V113.393H125.852V101.393H124.535Z" fill="#1C222B" mask="url(#path-9-inside-2_386_10507)"/>
<rect x="129.144" y="101.468" width="66.4923" height="11.8501" rx="1.97502" fill="#EBEDF1"/>
<rect x="26.5342" y="122.271" width="169.193" height="11.8501" rx="1.97502" fill="#EBEDF1"/>
<rect x="26.5342" y="142.999" width="57.2756" height="11.8501" rx="1.97502" fill="#EBEDF1"/>
<rect x="87.7598" y="142.999" width="107.968" height="11.8501" rx="1.97502" fill="#EBEDF1"/>
<rect x="26.5342" y="163.728" width="169.193" height="41.4754" rx="1.97502" fill="#EBEDF1"/>
<rect x="26.5342" y="209.698" width="15.4005" height="11.8501" rx="1.97502" fill="#EBEDF1"/>
<path d="M48.5091 219.485V211.618H49.0131V219.485H48.5091ZM49.8459 214.215C49.8213 213.967 49.7158 213.774 49.5294 213.637C49.3429 213.5 49.0899 213.431 48.7703 213.431C48.5532 213.431 48.3698 213.462 48.2203 213.523C48.0707 213.583 47.956 213.666 47.8761 213.772C47.7982 213.879 47.7593 214 47.7593 214.135C47.7552 214.247 47.7788 214.346 47.83 214.43C47.8833 214.514 47.956 214.587 48.0482 214.648C48.1404 214.707 48.2469 214.76 48.3678 214.805C48.4886 214.848 48.6177 214.885 48.755 214.915L49.3204 215.051C49.5949 215.112 49.8469 215.194 50.0764 215.296C50.3058 215.399 50.5045 215.525 50.6725 215.674C50.8405 215.824 50.9706 216 51.0628 216.203C51.1571 216.406 51.2052 216.638 51.2072 216.901C51.2052 217.286 51.1069 217.62 50.9122 217.902C50.7197 218.183 50.441 218.401 50.0764 218.557C49.7138 218.711 49.2764 218.787 48.7642 218.787C48.2561 218.787 47.8136 218.71 47.4366 218.554C47.0617 218.398 46.7688 218.168 46.5578 217.862C46.3488 217.555 46.2392 217.175 46.2289 216.722H47.5165C47.5309 216.933 47.5913 217.109 47.6979 217.251C47.8064 217.39 47.9509 217.496 48.1311 217.567C48.3135 217.637 48.5194 217.672 48.7488 217.672C48.9742 217.672 49.1698 217.639 49.3358 217.574C49.5038 217.508 49.6339 217.417 49.726 217.3C49.8182 217.183 49.8643 217.049 49.8643 216.897C49.8643 216.756 49.8223 216.637 49.7383 216.541C49.6564 216.445 49.5355 216.363 49.3757 216.295C49.218 216.228 49.0244 216.166 48.7949 216.111L48.1096 215.939C47.579 215.81 47.1601 215.608 46.8528 215.333C46.5455 215.059 46.3928 214.689 46.3949 214.224C46.3928 213.843 46.4942 213.51 46.6991 213.225C46.906 212.94 47.1898 212.718 47.5503 212.558C47.9109 212.399 48.3207 212.319 48.7796 212.319C49.2467 212.319 49.6543 212.399 50.0026 212.558C50.3529 212.718 50.6254 212.94 50.82 213.225C51.0147 213.51 51.1151 213.84 51.1212 214.215H49.8459ZM52.0654 218.698V217.739L54.3056 215.665C54.4962 215.481 54.6559 215.315 54.785 215.167C54.9161 215.02 55.0155 214.875 55.0831 214.734C55.1507 214.591 55.1845 214.436 55.1845 214.27C55.1845 214.086 55.1425 213.927 55.0585 213.794C54.9745 213.658 54.8598 213.555 54.7143 213.483C54.5689 213.41 54.404 213.373 54.2196 213.373C54.027 213.373 53.859 213.412 53.7156 213.489C53.5722 213.567 53.4616 213.679 53.3837 213.824C53.3059 213.97 53.2669 214.143 53.2669 214.344H52.0039C52.0039 213.932 52.0971 213.574 52.2836 213.271C52.47 212.968 52.7312 212.733 53.0672 212.568C53.4032 212.402 53.7904 212.319 54.2288 212.319C54.6795 212.319 55.0718 212.399 55.4058 212.558C55.7418 212.716 56.003 212.935 56.1894 213.216C56.3758 213.497 56.469 213.818 56.469 214.181C56.469 214.419 56.4219 214.653 56.3277 214.885C56.2355 215.116 56.0706 215.373 55.8329 215.656C55.5953 215.937 55.2603 216.274 54.828 216.667L53.9092 217.567V217.61H56.552V218.698H52.0654ZM58.9513 217.838L58.9175 218.176C58.8908 218.446 58.8396 218.716 58.7638 218.984C58.6901 219.254 58.6122 219.499 58.5303 219.718C58.4504 219.938 58.3858 220.11 58.3367 220.235H57.4885C57.5192 220.114 57.5612 219.945 57.6145 219.728C57.6678 219.513 57.718 219.271 57.7651 219.002C57.8122 218.734 57.8419 218.461 57.8542 218.182L57.8696 217.838H58.9513ZM62.35 218.837C61.8215 218.834 61.3667 218.704 60.9856 218.446C60.6066 218.188 60.3147 217.814 60.1098 217.325C59.907 216.835 59.8066 216.246 59.8086 215.558C59.8086 214.871 59.9101 214.286 60.1129 213.803C60.3177 213.319 60.6097 212.952 60.9887 212.7C61.3697 212.446 61.8235 212.319 62.35 212.319C62.8766 212.319 63.3293 212.446 63.7083 212.7C64.0894 212.954 64.3823 213.322 64.5872 213.806C64.7921 214.287 64.8935 214.871 64.8914 215.558C64.8914 216.248 64.789 216.838 64.5841 217.328C64.3813 217.817 64.0904 218.191 63.7114 218.449C63.3324 218.707 62.8786 218.837 62.35 218.837ZM62.35 217.733C62.7106 217.733 62.9984 217.552 63.2136 217.189C63.4287 216.827 63.5352 216.283 63.5332 215.558C63.5332 215.08 63.484 214.683 63.3856 214.365C63.2894 214.048 63.1521 213.809 62.9739 213.649C62.7977 213.489 62.5897 213.41 62.35 213.41C61.9915 213.41 61.7047 213.589 61.4896 213.947C61.2745 214.306 61.1659 214.843 61.1639 215.558C61.1639 216.041 61.212 216.445 61.3083 216.768C61.4066 217.09 61.5449 217.332 61.7231 217.494C61.9014 217.653 62.1103 217.733 62.35 217.733ZM68.3079 218.837C67.7793 218.834 67.3245 218.704 66.9434 218.446C66.5644 218.188 66.2725 217.814 66.0676 217.325C65.8648 216.835 65.7644 216.246 65.7665 215.558C65.7665 214.871 65.8679 214.286 66.0707 213.803C66.2756 213.319 66.5675 212.952 66.9465 212.7C67.3276 212.446 67.7814 212.319 68.3079 212.319C68.8344 212.319 69.2871 212.446 69.6661 212.7C70.0472 212.954 70.3402 213.322 70.545 213.806C70.7499 214.287 70.8513 214.871 70.8493 215.558C70.8493 216.248 70.7468 216.838 70.542 217.328C70.3391 217.817 70.0482 218.191 69.6692 218.449C69.2902 218.707 68.8364 218.837 68.3079 218.837ZM68.3079 217.733C68.6684 217.733 68.9563 217.552 69.1714 217.189C69.3865 216.827 69.493 216.283 69.491 215.558C69.491 215.08 69.4418 214.683 69.3435 214.365C69.2472 214.048 69.1099 213.809 68.9317 213.649C68.7555 213.489 68.5476 213.41 68.3079 213.41C67.9493 213.41 67.6625 213.589 67.4474 213.947C67.2323 214.306 67.1237 214.843 67.1217 215.558C67.1217 216.041 67.1698 216.445 67.2661 216.768C67.3644 217.09 67.5027 217.332 67.681 217.494C67.8592 217.653 68.0682 217.733 68.3079 217.733ZM74.2657 218.837C73.7371 218.834 73.2823 218.704 72.9013 218.446C72.5223 218.188 72.2303 217.814 72.0255 217.325C71.8226 216.835 71.7223 216.246 71.7243 215.558C71.7243 214.871 71.8257 214.286 72.0285 213.803C72.2334 213.319 72.5253 212.952 72.9043 212.7C73.2854 212.446 73.7392 212.319 74.2657 212.319C74.7922 212.319 75.245 212.446 75.624 212.7C76.005 212.954 76.298 213.322 76.5029 213.806C76.7077 214.287 76.8091 214.871 76.8071 215.558C76.8071 216.248 76.7047 216.838 76.4998 217.328C76.297 217.817 76.0061 218.191 75.627 218.449C75.248 218.707 74.7943 218.837 74.2657 218.837ZM74.2657 217.733C74.6263 217.733 74.9141 217.552 75.1292 217.189C75.3443 216.827 75.4509 216.283 75.4488 215.558C75.4488 215.08 75.3996 214.683 75.3013 214.365C75.205 214.048 75.0678 213.809 74.8895 213.649C74.7133 213.489 74.5054 213.41 74.2657 213.41C73.9072 213.41 73.6204 213.589 73.4052 213.947C73.1901 214.306 73.0816 214.843 73.0795 215.558C73.0795 216.041 73.1277 216.445 73.2239 216.768C73.3223 217.09 73.4606 217.332 73.6388 217.494C73.817 217.653 74.026 217.733 74.2657 217.733Z" fill="#003DB6"/>
<rect x="81.835" y="209.698" width="113.893" height="11.8501" rx="1.97502" fill="#EBEDF1"/>
</g>
<g filter="url(#filter1_d_386_10507)">
<rect x="142.345" y="87.3445" width="198.454" height="245.311" rx="5.16807" fill="white"/>
<g clip-path="url(#clip1_386_10507)">
<path fill-rule="evenodd" clip-rule="evenodd" d="M169.383 101.612C169.452 101.744 169.365 101.896 169.22 101.931L156.358 105.05C156.112 105.109 156.089 105.45 156.324 105.541L163.624 108.393C163.955 108.522 163.911 109.004 163.562 109.072L153.333 111.064C153.174 111.095 153.025 110.973 153.025 110.811V102.331C153.025 101.475 153.719 100.781 154.576 100.781H168.009C168.606 100.781 169.123 101.118 169.383 101.612ZM153.227 116.531C153.157 116.407 153.227 116.258 153.36 116.208L169.211 110.304C169.38 110.241 169.56 110.366 169.56 110.546V115.765C169.56 116.621 168.866 117.315 168.009 117.315H154.576C153.998 117.315 153.494 116.999 153.227 116.531ZM169.56 107.594C169.56 107.764 169.398 107.888 169.234 107.844L162.016 105.91C161.769 105.844 161.758 105.498 162 105.416L169.218 102.953C169.385 102.896 169.56 103.021 169.56 103.198V107.594Z" fill="#0FBFC4"/>
</g>
<path d="M155.624 137.963H153.353L156.813 127.94H159.544L162.999 137.963H160.729L158.218 130.23H158.14L155.624 137.963ZM155.482 134.023H160.846V135.677H155.482V134.023ZM167.203 140.938C166.528 140.938 165.949 140.845 165.466 140.659C164.986 140.477 164.605 140.227 164.321 139.911C164.037 139.594 163.853 139.239 163.768 138.844L165.696 138.584C165.755 138.735 165.848 138.875 165.975 139.005C166.102 139.136 166.27 139.24 166.479 139.319C166.691 139.4 166.949 139.441 167.252 139.441C167.706 139.441 168.079 139.33 168.373 139.108C168.67 138.889 168.818 138.522 168.818 138.007V136.632H168.73C168.639 136.841 168.502 137.038 168.319 137.224C168.136 137.41 167.902 137.562 167.614 137.679C167.327 137.796 166.985 137.855 166.587 137.855C166.022 137.855 165.508 137.725 165.045 137.464C164.585 137.199 164.218 136.796 163.944 136.255C163.673 135.71 163.538 135.022 163.538 134.19C163.538 133.338 163.676 132.627 163.954 132.056C164.231 131.485 164.6 131.057 165.06 130.774C165.523 130.49 166.03 130.348 166.582 130.348C167.003 130.348 167.355 130.42 167.639 130.563C167.923 130.703 168.151 130.88 168.324 131.092C168.5 131.301 168.636 131.506 168.73 131.708H168.809V130.446H170.879V138.036C170.879 138.676 170.722 139.211 170.409 139.642C170.096 140.072 169.662 140.395 169.107 140.611C168.556 140.829 167.921 140.938 167.203 140.938ZM167.247 136.289C167.583 136.289 167.867 136.206 168.099 136.04C168.334 135.87 168.513 135.628 168.637 135.315C168.765 134.999 168.828 134.62 168.828 134.18C168.828 133.739 168.766 133.358 168.642 133.035C168.518 132.708 168.339 132.456 168.104 132.276C167.869 132.097 167.583 132.007 167.247 132.007C166.905 132.007 166.616 132.1 166.381 132.286C166.146 132.469 165.968 132.723 165.848 133.049C165.727 133.376 165.667 133.752 165.667 134.18C165.667 134.614 165.727 134.989 165.848 135.305C165.972 135.619 166.149 135.862 166.381 136.035C166.616 136.204 166.905 136.289 167.247 136.289ZM172.538 137.963V130.446H174.559V131.757H174.637C174.774 131.291 175.004 130.938 175.327 130.7C175.65 130.459 176.022 130.338 176.443 130.338C176.548 130.338 176.66 130.345 176.781 130.358C176.902 130.371 177.008 130.389 177.099 130.411V132.261C177.001 132.232 176.866 132.206 176.693 132.183C176.52 132.16 176.362 132.149 176.218 132.149C175.911 132.149 175.637 132.216 175.396 132.349C175.158 132.48 174.968 132.663 174.828 132.898C174.691 133.133 174.623 133.403 174.623 133.71V137.963H172.538ZM181.253 138.11C180.48 138.11 179.814 137.953 179.256 137.64C178.701 137.323 178.274 136.876 177.974 136.299C177.674 135.718 177.524 135.031 177.524 134.239C177.524 133.465 177.674 132.787 177.974 132.203C178.274 131.619 178.696 131.163 179.241 130.837C179.789 130.511 180.432 130.348 181.17 130.348C181.666 130.348 182.127 130.428 182.555 130.588C182.985 130.744 183.36 130.981 183.68 131.297C184.003 131.614 184.254 132.012 184.434 132.491C184.613 132.968 184.703 133.526 184.703 134.165V134.738H178.356V133.446H182.741C182.741 133.146 182.675 132.88 182.545 132.648C182.414 132.416 182.233 132.235 182.002 132.105C181.773 131.971 181.507 131.904 181.204 131.904C180.887 131.904 180.607 131.978 180.362 132.124C180.121 132.268 179.931 132.462 179.794 132.707C179.657 132.948 179.587 133.217 179.584 133.514V134.743C179.584 135.115 179.652 135.436 179.789 135.707C179.93 135.978 180.127 136.186 180.382 136.333C180.636 136.48 180.938 136.553 181.287 136.553C181.519 136.553 181.731 136.521 181.923 136.456C182.116 136.39 182.281 136.292 182.418 136.162C182.555 136.031 182.659 135.872 182.731 135.682L184.659 135.81C184.561 136.273 184.36 136.677 184.057 137.023C183.757 137.366 183.369 137.633 182.892 137.826C182.419 138.015 181.873 138.11 181.253 138.11ZM189.489 138.11C188.716 138.11 188.051 137.953 187.493 137.64C186.938 137.323 186.511 136.876 186.21 136.299C185.91 135.718 185.76 135.031 185.76 134.239C185.76 133.465 185.91 132.787 186.21 132.203C186.511 131.619 186.933 131.163 187.478 130.837C188.026 130.511 188.669 130.348 189.406 130.348C189.902 130.348 190.364 130.428 190.791 130.588C191.222 130.744 191.597 130.981 191.917 131.297C192.24 131.614 192.491 132.012 192.67 132.491C192.85 132.968 192.94 133.526 192.94 134.165V134.738H186.592V133.446H190.977C190.977 133.146 190.912 132.88 190.781 132.648C190.651 132.416 190.47 132.235 190.238 132.105C190.01 131.971 189.744 131.904 189.44 131.904C189.124 131.904 188.843 131.978 188.599 132.124C188.357 132.268 188.168 132.462 188.031 132.707C187.894 132.948 187.824 133.217 187.821 133.514V134.743C187.821 135.115 187.889 135.436 188.026 135.707C188.166 135.978 188.364 136.186 188.618 136.333C188.873 136.48 189.175 136.553 189.524 136.553C189.755 136.553 189.967 136.521 190.16 136.456C190.352 136.39 190.517 136.292 190.654 136.162C190.791 136.031 190.896 135.872 190.967 135.682L192.896 135.81C192.798 136.273 192.597 136.677 192.294 137.023C191.993 137.366 191.605 137.633 191.129 137.826C190.656 138.015 190.109 138.11 189.489 138.11ZM194.3 137.963V130.446H196.287V131.772H196.375C196.532 131.332 196.793 130.984 197.158 130.73C197.524 130.475 197.961 130.348 198.47 130.348C198.985 130.348 199.424 130.477 199.786 130.734C200.149 130.989 200.39 131.335 200.511 131.772H200.589C200.742 131.341 201.02 130.997 201.421 130.739C201.826 130.478 202.304 130.348 202.855 130.348C203.556 130.348 204.126 130.571 204.563 131.018C205.003 131.462 205.224 132.092 205.224 132.907V137.963H203.144V133.318C203.144 132.901 203.033 132.588 202.811 132.379C202.589 132.17 202.312 132.066 201.979 132.066C201.6 132.066 201.305 132.186 201.093 132.428C200.881 132.666 200.775 132.981 200.775 133.372V137.963H198.754V133.274C198.754 132.906 198.648 132.612 198.436 132.394C198.227 132.175 197.951 132.066 197.609 132.066C197.377 132.066 197.168 132.124 196.982 132.242C196.799 132.356 196.654 132.517 196.547 132.726C196.439 132.932 196.385 133.173 196.385 133.451V137.963H194.3ZM210.296 138.11C209.523 138.11 208.857 137.953 208.299 137.64C207.745 137.323 207.317 136.876 207.017 136.299C206.717 135.718 206.567 135.031 206.567 134.239C206.567 133.465 206.717 132.787 207.017 132.203C207.317 131.619 207.74 131.163 208.285 130.837C208.833 130.511 209.476 130.348 210.213 130.348C210.709 130.348 211.171 130.428 211.598 130.588C212.029 130.744 212.404 130.981 212.724 131.297C213.047 131.614 213.298 132.012 213.477 132.491C213.657 132.968 213.747 133.526 213.747 134.165V134.738H207.399V133.446H211.784C211.784 133.146 211.719 132.88 211.588 132.648C211.458 132.416 211.277 132.235 211.045 132.105C210.817 131.971 210.551 131.904 210.247 131.904C209.931 131.904 209.65 131.978 209.406 132.124C209.164 132.268 208.975 132.462 208.838 132.707C208.701 132.948 208.631 133.217 208.627 133.514V134.743C208.627 135.115 208.696 135.436 208.833 135.707C208.973 135.978 209.171 136.186 209.425 136.333C209.68 136.48 209.981 136.553 210.33 136.553C210.562 136.553 210.774 136.521 210.967 136.456C211.159 136.39 211.324 136.292 211.461 136.162C211.598 136.031 211.702 135.872 211.774 135.682L213.702 135.81C213.605 136.273 213.404 136.677 213.1 137.023C212.8 137.366 212.412 137.633 211.936 137.826C211.463 138.015 210.916 138.11 210.296 138.11ZM217.192 133.617V137.963H215.107V130.446H217.094V131.772H217.182C217.348 131.335 217.627 130.989 218.019 130.734C218.41 130.477 218.885 130.348 219.443 130.348C219.965 130.348 220.42 130.462 220.809 130.69C221.197 130.919 221.499 131.245 221.714 131.669C221.929 132.09 222.037 132.593 222.037 133.177V137.963H219.952V133.548C219.955 133.088 219.838 132.73 219.6 132.472C219.362 132.211 219.034 132.08 218.616 132.08C218.335 132.08 218.087 132.141 217.872 132.261C217.66 132.382 217.494 132.558 217.373 132.79C217.256 133.018 217.195 133.294 217.192 133.617ZM227.679 130.446V132.012H223.152V130.446H227.679ZM224.179 128.645H226.264V135.653C226.264 135.845 226.294 135.996 226.352 136.103C226.411 136.208 226.493 136.281 226.597 136.323C226.705 136.366 226.829 136.387 226.969 136.387C227.067 136.387 227.165 136.379 227.263 136.363C227.36 136.343 227.435 136.328 227.488 136.319L227.816 137.87C227.711 137.903 227.564 137.94 227.375 137.982C227.186 138.028 226.956 138.056 226.685 138.066C226.183 138.085 225.742 138.018 225.364 137.865C224.988 137.712 224.696 137.473 224.488 137.15C224.279 136.827 224.176 136.42 224.179 135.927V128.645ZM233.709 137.963L231.663 130.446H233.773L234.938 135.496H235.006L236.22 130.446H238.29L239.523 135.467H239.587L240.732 130.446H242.836L240.796 137.963H238.588L237.296 133.235H237.203L235.911 137.963H233.709ZM243.949 137.963V130.446H246.033V137.963H243.949ZM244.996 129.477C244.686 129.477 244.42 129.374 244.198 129.168C243.98 128.96 243.87 128.71 243.87 128.42C243.87 128.132 243.98 127.886 244.198 127.681C244.42 127.472 244.686 127.367 244.996 127.367C245.306 127.367 245.57 127.472 245.789 127.681C246.011 127.886 246.122 128.132 246.122 128.42C246.122 128.71 246.011 128.96 245.789 129.168C245.57 129.374 245.306 129.477 244.996 129.477ZM251.702 130.446V132.012H247.175V130.446H251.702ZM248.203 128.645H250.288V135.653C250.288 135.845 250.317 135.996 250.376 136.103C250.434 136.208 250.516 136.281 250.62 136.323C250.728 136.366 250.852 136.387 250.992 136.387C251.09 136.387 251.188 136.379 251.286 136.363C251.384 136.343 251.459 136.328 251.511 136.319L251.839 137.87C251.735 137.903 251.588 137.94 251.399 137.982C251.209 138.028 250.979 138.056 250.708 138.066C250.206 138.085 249.766 138.018 249.387 137.865C249.012 137.712 248.72 137.473 248.511 137.15C248.302 136.827 248.199 136.42 248.203 135.927V128.645ZM255.306 133.617V137.963H253.222V127.94H255.248V131.772H255.336C255.505 131.328 255.779 130.981 256.158 130.73C256.536 130.475 257.011 130.348 257.582 130.348C258.104 130.348 258.559 130.462 258.948 130.69C259.339 130.916 259.642 131.24 259.858 131.664C260.076 132.085 260.184 132.589 260.181 133.177V137.963H258.096V133.548C258.099 133.085 257.982 132.725 257.744 132.467C257.509 132.209 257.179 132.08 256.755 132.08C256.471 132.08 256.22 132.141 256.001 132.261C255.786 132.382 255.616 132.558 255.492 132.79C255.372 133.018 255.31 133.294 255.306 133.617Z" fill="#4B5B76"/>
<path d="M266.909 137.963L264.041 127.94H266.355L268.015 134.904H268.098L269.928 127.94H271.91L273.736 134.919H273.824L275.483 127.94H277.798L274.93 137.963H272.865L270.956 131.41H270.878L268.974 137.963H266.909ZM278.893 137.963V130.446H280.978V137.963H278.893ZM279.94 129.477C279.63 129.477 279.364 129.374 279.142 129.168C278.924 128.96 278.814 128.71 278.814 128.42C278.814 128.132 278.924 127.886 279.142 127.681C279.364 127.472 279.63 127.367 279.94 127.367C280.25 127.367 280.514 127.472 280.733 127.681C280.955 127.886 281.066 128.132 281.066 128.42C281.066 128.71 280.955 128.96 280.733 129.168C280.514 129.374 280.25 129.477 279.94 129.477ZM284.732 127.94V137.963H282.648V127.94H284.732ZM288.487 127.94V137.963H286.403V127.94H288.487ZM290.157 137.963V130.446H292.242V137.963H290.157ZM291.205 129.477C290.895 129.477 290.629 129.374 290.407 129.168C290.188 128.96 290.079 128.71 290.079 128.42C290.079 128.132 290.188 127.886 290.407 127.681C290.629 127.472 290.895 127.367 291.205 127.367C291.515 127.367 291.779 127.472 291.998 127.681C292.219 127.886 292.33 128.132 292.33 128.42C292.33 128.71 292.219 128.96 291.998 129.168C291.779 129.374 291.515 129.477 291.205 129.477ZM296.056 138.105C295.576 138.105 295.149 138.022 294.774 137.855C294.399 137.686 294.102 137.436 293.883 137.106C293.668 136.774 293.56 136.359 293.56 135.863C293.56 135.446 293.637 135.095 293.79 134.811C293.943 134.527 294.152 134.299 294.416 134.126C294.681 133.953 294.981 133.823 295.317 133.734C295.656 133.646 296.012 133.584 296.384 133.548C296.821 133.503 297.173 133.46 297.441 133.421C297.709 133.379 297.903 133.317 298.023 133.235C298.144 133.154 298.204 133.033 298.204 132.873V132.844C298.204 132.534 298.107 132.294 297.911 132.124C297.718 131.955 297.444 131.87 297.089 131.87C296.713 131.87 296.415 131.953 296.193 132.119C295.971 132.283 295.824 132.488 295.753 132.736L293.824 132.579C293.922 132.123 294.115 131.728 294.402 131.395C294.689 131.059 295.059 130.801 295.513 130.622C295.97 130.439 296.498 130.348 297.098 130.348C297.516 130.348 297.916 130.397 298.297 130.495C298.682 130.593 299.023 130.744 299.32 130.95C299.62 131.155 299.857 131.42 300.03 131.743C300.203 132.062 300.289 132.446 300.289 132.893V137.963H298.312V136.92H298.253C298.133 137.155 297.971 137.363 297.769 137.542C297.567 137.718 297.324 137.857 297.04 137.958C296.756 138.056 296.428 138.105 296.056 138.105ZM296.653 136.666C296.96 136.666 297.231 136.606 297.465 136.485C297.7 136.361 297.885 136.195 298.018 135.986C298.152 135.777 298.219 135.54 298.219 135.276V134.478C298.154 134.521 298.064 134.56 297.95 134.596C297.839 134.628 297.713 134.659 297.573 134.689C297.433 134.715 297.293 134.739 297.152 134.762C297.012 134.782 296.885 134.8 296.77 134.816C296.526 134.852 296.312 134.909 296.129 134.987C295.947 135.066 295.805 135.172 295.704 135.305C295.602 135.436 295.552 135.599 295.552 135.795C295.552 136.079 295.655 136.296 295.86 136.446C296.069 136.593 296.333 136.666 296.653 136.666ZM301.907 137.963V130.446H303.894V131.772H303.982C304.138 131.332 304.399 130.984 304.765 130.73C305.13 130.475 305.567 130.348 306.076 130.348C306.592 130.348 307.031 130.477 307.393 130.734C307.755 130.989 307.997 131.335 308.117 131.772H308.196C308.349 131.341 308.626 130.997 309.028 130.739C309.432 130.478 309.91 130.348 310.461 130.348C311.163 130.348 311.732 130.571 312.169 131.018C312.61 131.462 312.83 132.092 312.83 132.907V137.963H310.75V133.318C310.75 132.901 310.639 132.588 310.417 132.379C310.196 132.17 309.918 132.066 309.585 132.066C309.207 132.066 308.912 132.186 308.7 132.428C308.488 132.666 308.382 132.981 308.382 133.372V137.963H306.36V133.274C306.36 132.906 306.254 132.612 306.042 132.394C305.833 132.175 305.558 132.066 305.215 132.066C304.983 132.066 304.775 132.124 304.589 132.242C304.406 132.356 304.261 132.517 304.153 132.726C304.045 132.932 303.992 133.173 303.992 133.451V137.963H301.907Z" fill="#0FBFC4"/>
<path d="M313.092 126.963V139.963H314.47V126.963H313.092Z" fill="#1C222B" mask="url(#path-23-inside-3_386_10507)"/>
<rect x="153.025" y="155.122" width="177.092" height="12.4034" rx="2.06723" fill="#EBEDF1"/>
<rect x="153.025" y="177.116" width="79.2437" height="12.4034" rx="2.06723" fill="#EBEDF1"/>
<path d="M238.459 185.818L236.574 179.231H238.095L239.186 183.808H239.24L240.443 179.231H241.746L242.946 183.818H243.004L244.094 179.231H245.615L243.73 185.818H242.373L241.119 181.511H241.067L239.816 185.818H238.459ZM246.335 185.818V180.878H247.705V185.818H246.335ZM247.023 180.241C246.82 180.241 246.645 180.173 246.499 180.038C246.355 179.901 246.284 179.737 246.284 179.546C246.284 179.357 246.355 179.196 246.499 179.061C246.645 178.923 246.82 178.855 247.023 178.855C247.227 178.855 247.401 178.923 247.544 179.061C247.69 179.196 247.763 179.357 247.763 179.546C247.763 179.737 247.69 179.901 247.544 180.038C247.401 180.173 247.227 180.241 247.023 180.241ZM250.173 179.231V185.818H248.803V179.231H250.173ZM252.641 179.231V185.818H251.271V179.231H252.641ZM253.739 185.818V180.878H255.109V185.818H253.739ZM254.427 180.241C254.223 180.241 254.048 180.173 253.903 180.038C253.759 179.901 253.687 179.737 253.687 179.546C253.687 179.357 253.759 179.196 253.903 179.061C254.048 178.923 254.223 178.855 254.427 178.855C254.631 178.855 254.804 178.923 254.948 179.061C255.094 179.196 255.167 179.357 255.167 179.546C255.167 179.737 255.094 179.901 254.948 180.038C254.804 180.173 254.631 180.241 254.427 180.241ZM257.615 185.912C257.3 185.912 257.019 185.857 256.773 185.748C256.526 185.636 256.331 185.472 256.187 185.255C256.046 185.037 255.975 184.764 255.975 184.438C255.975 184.164 256.025 183.933 256.126 183.747C256.227 183.56 256.364 183.41 256.538 183.297C256.711 183.183 256.909 183.097 257.13 183.039C257.353 182.981 257.586 182.941 257.831 182.917C258.118 182.887 258.35 182.859 258.526 182.833C258.701 182.806 258.829 182.765 258.908 182.711C258.988 182.658 259.027 182.578 259.027 182.473V182.454C259.027 182.25 258.963 182.093 258.834 181.981C258.708 181.87 258.528 181.814 258.294 181.814C258.047 181.814 257.851 181.869 257.705 181.978C257.56 182.085 257.463 182.22 257.416 182.383L256.149 182.28C256.213 181.98 256.339 181.721 256.528 181.502C256.717 181.281 256.96 181.112 257.258 180.994C257.558 180.874 257.906 180.813 258.3 180.813C258.575 180.813 258.838 180.846 259.088 180.91C259.341 180.974 259.566 181.074 259.761 181.209C259.958 181.344 260.113 181.518 260.227 181.73C260.341 181.94 260.398 182.192 260.398 182.486V185.818H259.098V185.133H259.06C258.98 185.288 258.874 185.424 258.741 185.542C258.608 185.658 258.448 185.749 258.262 185.815C258.075 185.879 257.86 185.912 257.615 185.912ZM258.008 184.966C258.209 184.966 258.387 184.926 258.542 184.847C258.696 184.765 258.817 184.656 258.905 184.519C258.993 184.382 259.037 184.226 259.037 184.053V183.528C258.994 183.556 258.935 183.582 258.86 183.605C258.787 183.627 258.705 183.647 258.612 183.667C258.52 183.684 258.428 183.7 258.336 183.715C258.244 183.728 258.16 183.739 258.085 183.75C257.924 183.774 257.784 183.811 257.664 183.863C257.543 183.914 257.45 183.984 257.384 184.072C257.317 184.158 257.284 184.265 257.284 184.393C257.284 184.58 257.352 184.723 257.487 184.821C257.624 184.918 257.798 184.966 258.008 184.966ZM261.461 185.818V180.878H262.767V181.749H262.824C262.927 181.46 263.099 181.232 263.339 181.064C263.579 180.897 263.867 180.813 264.201 180.813C264.54 180.813 264.828 180.898 265.066 181.068C265.304 181.235 265.463 181.462 265.542 181.749H265.594C265.695 181.466 265.877 181.24 266.141 181.071C266.407 180.899 266.721 180.813 267.083 180.813C267.544 180.813 267.918 180.96 268.206 181.254C268.495 181.546 268.64 181.96 268.64 182.496V185.818H267.273V182.766C267.273 182.491 267.2 182.286 267.054 182.148C266.908 182.011 266.726 181.942 266.507 181.942C266.259 181.942 266.064 182.022 265.925 182.181C265.786 182.337 265.716 182.544 265.716 182.801V185.818H264.388V182.737C264.388 182.495 264.318 182.302 264.179 182.158C264.041 182.014 263.86 181.942 263.635 181.942C263.483 181.942 263.345 181.981 263.223 182.058C263.103 182.133 263.008 182.239 262.937 182.377C262.866 182.512 262.831 182.67 262.831 182.853V185.818H261.461Z" fill="#0FBFC4"/>
<path d="M268.714 176.818V189.818H270.092V176.818H268.714Z" fill="#1C222B" mask="url(#path-28-inside-4_386_10507)"/>
<rect x="273.538" y="177.116" width="56.5042" height="12.4034" rx="2.06723" fill="#EBEDF1"/>
<rect x="153.025" y="199.111" width="177.092" height="12.4034" rx="2.06723" fill="#EBEDF1"/>
<rect x="153.025" y="220.808" width="59.9496" height="12.4034" rx="2.06723" fill="#EBEDF1"/>
<rect x="217.109" y="220.808" width="113.008" height="12.4034" rx="2.06723" fill="#EBEDF1"/>
<rect x="153.025" y="242.504" width="177.092" height="38.5882" rx="2.06723" fill="#EBEDF1"/>
<rect x="153.025" y="290.385" width="119.21" height="12.4034" rx="2.06723" fill="#EBEDF1"/>
<path d="M279.117 300.208V291.974H279.645V300.208H279.117ZM280.516 294.692C280.49 294.432 280.38 294.231 280.185 294.087C279.99 293.944 279.725 293.872 279.39 293.872C279.163 293.872 278.971 293.904 278.815 293.968C278.658 294.03 278.538 294.117 278.454 294.229C278.373 294.34 278.332 294.467 278.332 294.608C278.328 294.726 278.353 294.829 278.406 294.917C278.462 295.005 278.538 295.081 278.635 295.145C278.731 295.208 278.843 295.262 278.969 295.309C279.096 295.354 279.231 295.393 279.374 295.425L279.966 295.567C280.253 295.631 280.517 295.717 280.757 295.824C280.998 295.931 281.206 296.063 281.381 296.22C281.557 296.376 281.693 296.561 281.79 296.773C281.889 296.985 281.939 297.229 281.941 297.503C281.939 297.906 281.836 298.256 281.632 298.552C281.431 298.845 281.139 299.074 280.757 299.237C280.378 299.398 279.92 299.478 279.384 299.478C278.852 299.478 278.389 299.397 277.994 299.234C277.602 299.071 277.295 298.829 277.075 298.51C276.856 298.188 276.741 297.79 276.73 297.317H278.078C278.093 297.537 278.156 297.722 278.268 297.87C278.381 298.016 278.533 298.126 278.721 298.201C278.912 298.274 279.128 298.31 279.368 298.31C279.604 298.31 279.809 298.276 279.982 298.208C280.158 298.139 280.294 298.043 280.391 297.921C280.487 297.799 280.535 297.659 280.535 297.5C280.535 297.352 280.492 297.228 280.404 297.127C280.318 297.026 280.191 296.94 280.024 296.869C279.859 296.799 279.656 296.734 279.416 296.676L278.699 296.496C278.143 296.361 277.705 296.15 277.383 295.863C277.062 295.575 276.902 295.188 276.904 294.702C276.902 294.303 277.008 293.954 277.222 293.656C277.439 293.358 277.736 293.125 278.113 292.958C278.491 292.791 278.92 292.707 279.4 292.707C279.889 292.707 280.316 292.791 280.68 292.958C281.047 293.125 281.332 293.358 281.536 293.656C281.74 293.954 281.845 294.299 281.851 294.692H280.516ZM285.705 292.797V299.385H284.312V294.119H284.274L282.765 295.065V293.83L284.396 292.797H285.705ZM289.854 299.53C289.3 299.527 288.824 299.391 288.426 299.121C288.029 298.851 287.723 298.459 287.509 297.947C287.297 297.434 287.191 296.818 287.194 296.098C287.194 295.379 287.3 294.767 287.512 294.261C287.726 293.755 288.032 293.37 288.429 293.106C288.828 292.84 289.303 292.707 289.854 292.707C290.405 292.707 290.879 292.84 291.275 293.106C291.674 293.372 291.981 293.758 292.195 294.264C292.41 294.768 292.516 295.379 292.514 296.098C292.514 296.82 292.406 297.438 292.192 297.95C291.98 298.463 291.675 298.854 291.279 299.124C290.882 299.394 290.407 299.53 289.854 299.53ZM289.854 298.375C290.231 298.375 290.532 298.185 290.758 297.805C290.983 297.426 291.094 296.857 291.092 296.098C291.092 295.598 291.041 295.182 290.938 294.85C290.837 294.517 290.693 294.267 290.507 294.1C290.322 293.933 290.105 293.849 289.854 293.849C289.478 293.849 289.178 294.037 288.953 294.412C288.728 294.787 288.614 295.349 288.612 296.098C288.612 296.604 288.662 297.026 288.763 297.365C288.866 297.701 289.011 297.954 289.198 298.124C289.384 298.291 289.603 298.375 289.854 298.375ZM294.744 298.484L294.708 298.838C294.68 299.121 294.627 299.403 294.547 299.684C294.47 299.967 294.389 300.223 294.303 300.453C294.219 300.682 294.152 300.862 294.1 300.993H293.212C293.245 300.866 293.289 300.69 293.344 300.462C293.4 300.237 293.453 299.984 293.502 299.703C293.551 299.422 293.582 299.136 293.595 298.844L293.611 298.484H294.744ZM298.301 299.53C297.748 299.527 297.272 299.391 296.873 299.121C296.476 298.851 296.171 298.459 295.956 297.947C295.744 297.434 295.639 296.818 295.641 296.098C295.641 295.379 295.747 294.767 295.959 294.261C296.174 293.755 296.479 293.37 296.876 293.106C297.275 292.84 297.75 292.707 298.301 292.707C298.852 292.707 299.326 292.84 299.723 293.106C300.122 293.372 300.428 293.758 300.643 294.264C300.857 294.768 300.963 295.379 300.961 296.098C300.961 296.82 300.854 297.438 300.639 297.95C300.427 298.463 300.123 298.854 299.726 299.124C299.329 299.394 298.854 299.53 298.301 299.53ZM298.301 298.375C298.678 298.375 298.98 298.185 299.205 297.805C299.43 297.426 299.541 296.857 299.539 296.098C299.539 295.598 299.488 295.182 299.385 294.85C299.284 294.517 299.14 294.267 298.954 294.1C298.77 293.933 298.552 293.849 298.301 293.849C297.926 293.849 297.626 294.037 297.4 294.412C297.175 294.787 297.062 295.349 297.059 296.098C297.059 296.604 297.11 297.026 297.211 297.365C297.314 297.701 297.458 297.954 297.645 298.124C297.831 298.291 298.05 298.375 298.301 298.375ZM304.537 299.53C303.984 299.527 303.508 299.391 303.109 299.121C302.712 298.851 302.407 298.459 302.192 297.947C301.98 297.434 301.875 296.818 301.877 296.098C301.877 295.379 301.983 294.767 302.195 294.261C302.41 293.755 302.715 293.37 303.112 293.106C303.511 292.84 303.986 292.707 304.537 292.707C305.088 292.707 305.562 292.84 305.959 293.106C306.358 293.372 306.664 293.758 306.879 294.264C307.093 294.768 307.199 295.379 307.197 296.098C307.197 296.82 307.09 297.438 306.875 297.95C306.663 298.463 306.359 298.854 305.962 299.124C305.565 299.394 305.09 299.53 304.537 299.53ZM304.537 298.375C304.914 298.375 305.216 298.185 305.441 297.805C305.666 297.426 305.777 296.857 305.775 296.098C305.775 295.598 305.724 295.182 305.621 294.85C305.52 294.517 305.376 294.267 305.19 294.1C305.006 293.933 304.788 293.849 304.537 293.849C304.162 293.849 303.862 294.037 303.636 294.412C303.411 294.787 303.298 295.349 303.295 296.098C303.295 296.604 303.346 297.026 303.447 297.365C303.55 297.701 303.694 297.954 303.881 298.124C304.067 298.291 304.286 298.375 304.537 298.375ZM310.773 299.53C310.22 299.527 309.744 299.391 309.345 299.121C308.948 298.851 308.643 298.459 308.428 297.947C308.216 297.434 308.111 296.818 308.113 296.098C308.113 295.379 308.219 294.767 308.431 294.261C308.646 293.755 308.951 293.37 309.348 293.106C309.747 292.84 310.222 292.707 310.773 292.707C311.324 292.707 311.798 292.84 312.195 293.106C312.593 293.372 312.9 293.758 313.115 294.264C313.329 294.768 313.435 295.379 313.433 296.098C313.433 296.82 313.326 297.438 313.111 297.95C312.899 298.463 312.595 298.854 312.198 299.124C311.801 299.394 311.326 299.53 310.773 299.53ZM310.773 298.375C311.15 298.375 311.452 298.185 311.677 297.805C311.902 297.426 312.013 296.857 312.011 296.098C312.011 295.598 311.96 295.182 311.857 294.85C311.756 294.517 311.612 294.267 311.426 294.1C311.241 293.933 311.024 293.849 310.773 293.849C310.398 293.849 310.097 294.037 309.872 294.412C309.647 294.787 309.534 295.349 309.531 296.098C309.531 296.604 309.582 297.026 309.683 297.365C309.785 297.701 309.93 297.954 310.117 298.124C310.303 298.291 310.522 298.375 310.773 298.375Z" fill="#0FBFC4"/>
<rect x="318.504" y="290.385" width="11.6135" height="12.4034" rx="2.06723" fill="#EBEDF1"/>
<rect x="142.345" y="87.3445" width="198.454" height="245.311" rx="5.16807" stroke="#EBEDF1" stroke-width="0.689076"/>
</g>
<path d="M192.362 358L192.362 348.152L198.998 348.152L198.998 349.869L194.444 349.869L194.444 352.215L198.656 352.215L198.656 353.932L194.444 353.932L194.444 356.283L199.017 356.283L199.017 358L192.362 358ZM202.826 353.73L202.826 358L200.777 358L200.777 350.614L202.73 350.614L202.73 351.917L202.816 351.917C202.98 351.488 203.254 351.148 203.638 350.898C204.023 350.644 204.489 350.518 205.038 350.518C205.551 350.518 205.998 350.63 206.379 350.854C206.761 351.079 207.057 351.399 207.269 351.816C207.48 352.23 207.586 352.723 207.586 353.297L207.586 358L205.538 358L205.538 353.663C205.541 353.211 205.426 352.858 205.192 352.605C204.958 352.348 204.635 352.22 204.225 352.22C203.949 352.22 203.706 352.279 203.494 352.398C203.286 352.517 203.122 352.69 203.004 352.917C202.888 353.142 202.829 353.413 202.826 353.73ZM213.292 350.614L213.292 352.153L208.844 352.153L208.844 350.614L213.292 350.614ZM209.854 348.844L211.902 348.844L211.902 355.73C211.902 355.919 211.931 356.067 211.989 356.173C212.046 356.275 212.127 356.347 212.229 356.389C212.335 356.431 212.457 356.452 212.595 356.452C212.691 356.452 212.787 356.444 212.883 356.428C212.979 356.408 213.053 356.394 213.104 356.384L213.426 357.909C213.324 357.941 213.18 357.978 212.994 358.019C212.808 358.064 212.582 358.091 212.316 358.101C211.822 358.12 211.389 358.054 211.017 357.904C210.649 357.753 210.362 357.519 210.157 357.202C209.951 356.884 209.85 356.484 209.854 356L209.854 348.844ZM218.075 358.144C217.316 358.144 216.662 357.99 216.113 357.683C215.568 357.372 215.149 356.932 214.854 356.365C214.559 355.794 214.411 355.12 214.411 354.341C214.411 353.581 214.559 352.914 214.854 352.34C215.149 351.766 215.564 351.319 216.099 350.999C216.638 350.678 217.269 350.518 217.994 350.518C218.481 350.518 218.934 350.596 219.354 350.753C219.778 350.907 220.146 351.14 220.46 351.451C220.778 351.762 221.025 352.153 221.201 352.624C221.377 353.092 221.465 353.64 221.465 354.269L221.465 354.831L215.229 354.831L215.229 353.562L219.537 353.562C219.537 353.267 219.473 353.005 219.345 352.778C219.217 352.55 219.039 352.372 218.811 352.244C218.587 352.113 218.325 352.047 218.027 352.047C217.716 352.047 217.441 352.119 217.2 352.263C216.963 352.404 216.777 352.595 216.642 352.836C216.508 353.073 216.439 353.337 216.436 353.629L216.436 354.836C216.436 355.201 216.503 355.517 216.638 355.783C216.775 356.049 216.969 356.254 217.219 356.399C217.469 356.543 217.766 356.615 218.109 356.615C218.337 356.615 218.545 356.583 218.734 356.519C218.923 356.455 219.085 356.359 219.22 356.23C219.354 356.102 219.457 355.945 219.528 355.759L221.422 355.884C221.326 356.339 221.129 356.737 220.831 357.077C220.536 357.413 220.154 357.676 219.686 357.865C219.221 358.051 218.684 358.144 218.075 358.144ZM222.965 358L222.965 350.614L224.951 350.614L224.951 351.903L225.028 351.903C225.162 351.444 225.388 351.098 225.706 350.864C226.023 350.627 226.388 350.508 226.802 350.508C226.905 350.508 227.015 350.515 227.134 350.527C227.252 350.54 227.357 350.558 227.446 350.58L227.446 352.398C227.35 352.369 227.217 352.343 227.047 352.321C226.877 352.299 226.722 352.287 226.581 352.287C226.279 352.287 226.01 352.353 225.773 352.485C225.539 352.613 225.353 352.792 225.215 353.023C225.08 353.254 225.013 353.52 225.013 353.821L225.013 358L222.965 358ZM231.892 351.23L231.892 350.191C231.892 349.896 231.95 349.595 232.065 349.287C232.181 348.979 232.333 348.689 232.522 348.416C232.711 348.144 232.916 347.916 233.138 347.734L234.042 348.267C233.862 348.55 233.715 348.844 233.599 349.152C233.487 349.46 233.431 349.803 233.431 350.181L233.431 351.23L231.892 351.23ZM234.321 351.23L234.321 350.191C234.321 349.896 234.378 349.595 234.494 349.287C234.609 348.979 234.761 348.689 234.95 348.416C235.14 348.144 235.345 347.916 235.566 347.734L236.47 348.267C236.29 348.55 236.143 348.844 236.028 349.152C235.915 349.46 235.859 349.803 235.859 350.181L235.859 351.23L234.321 351.23ZM289.687 348.152L289.687 349.191C289.687 349.486 289.629 349.787 289.514 350.095C289.402 350.399 289.251 350.688 289.062 350.96C288.873 351.23 288.666 351.459 288.442 351.648L287.538 351.114C287.698 350.861 287.839 350.58 287.961 350.273C288.086 349.965 288.148 349.607 288.148 349.2L288.148 348.152L289.687 348.152ZM292.106 348.152L292.106 349.191C292.106 349.486 292.048 349.787 291.933 350.095C291.82 350.399 291.67 350.688 291.481 350.96C291.291 351.23 291.083 351.459 290.856 351.648L289.951 351.114C290.115 350.861 290.258 350.58 290.379 350.273C290.504 349.965 290.567 349.607 290.567 349.2L290.567 348.152L292.106 348.152Z" fill="#4B5B76"/>
<path d="M240.095 358L237.277 348.152L239.551 348.152L241.181 354.995L241.263 354.995L243.062 348.152L245.009 348.152L246.803 355.009L246.889 355.009L248.519 348.152L250.794 348.152L247.976 358L245.947 358L244.071 351.561L243.994 351.561L242.124 358L240.095 358ZM252.032 358L252.032 350.614L254.081 350.614L254.081 358L252.032 358ZM253.061 349.662C252.757 349.662 252.495 349.561 252.277 349.359C252.063 349.154 251.955 348.909 251.955 348.623C251.955 348.341 252.063 348.099 252.277 347.897C252.495 347.692 252.757 347.589 253.061 347.589C253.366 347.589 253.625 347.692 253.84 347.897C254.058 348.099 254.167 348.341 254.167 348.623C254.167 348.909 254.058 349.154 253.84 349.359C253.625 349.561 253.366 349.662 253.061 349.662ZM257.933 348.152L257.933 358L255.884 358L255.884 348.152L257.933 348.152ZM261.784 348.152L261.784 358L259.736 358L259.736 348.152L261.784 348.152ZM263.588 358L263.588 350.614L265.636 350.614L265.636 358L263.588 358ZM264.617 349.662C264.312 349.662 264.051 349.561 263.833 349.359C263.618 349.154 263.511 348.909 263.511 348.623C263.511 348.341 263.618 348.099 263.833 347.897C264.051 347.692 264.312 347.589 264.617 347.589C264.921 347.589 265.181 347.692 265.396 347.897C265.614 348.099 265.723 348.341 265.723 348.623C265.723 348.909 265.614 349.154 265.396 349.359C265.181 349.561 264.921 349.662 264.617 349.662ZM269.546 358.139C269.075 358.139 268.655 358.058 268.286 357.894C267.917 357.728 267.626 357.482 267.411 357.158C267.199 356.832 267.093 356.424 267.093 355.937C267.093 355.527 267.169 355.182 267.319 354.903C267.47 354.624 267.675 354.4 267.935 354.23C268.195 354.06 268.49 353.932 268.82 353.845C269.153 353.759 269.503 353.698 269.868 353.663C270.298 353.618 270.644 353.576 270.907 353.538C271.17 353.496 271.36 353.435 271.479 353.355C271.598 353.275 271.657 353.156 271.657 352.999L271.657 352.97C271.657 352.666 271.561 352.43 271.368 352.263C271.179 352.097 270.91 352.013 270.56 352.013C270.192 352.013 269.898 352.095 269.68 352.259C269.463 352.419 269.318 352.621 269.248 352.864L267.353 352.711C267.449 352.262 267.638 351.874 267.921 351.547C268.203 351.217 268.567 350.963 269.012 350.787C269.461 350.608 269.98 350.518 270.57 350.518C270.98 350.518 271.373 350.566 271.748 350.662C272.126 350.758 272.461 350.907 272.753 351.109C273.048 351.311 273.281 351.571 273.45 351.888C273.62 352.202 273.705 352.579 273.705 353.018L273.705 358L271.763 358L271.763 356.976L271.705 356.976C271.586 357.207 271.428 357.41 271.229 357.586C271.03 357.76 270.791 357.896 270.512 357.995C270.233 358.091 269.911 358.139 269.546 358.139ZM270.133 356.726C270.434 356.726 270.7 356.666 270.931 356.548C271.162 356.426 271.343 356.262 271.474 356.057C271.606 355.852 271.671 355.62 271.671 355.36L271.671 354.576C271.607 354.618 271.519 354.656 271.407 354.692C271.298 354.724 271.174 354.754 271.037 354.783C270.899 354.809 270.761 354.833 270.623 354.855C270.485 354.874 270.36 354.892 270.248 354.908C270.007 354.943 269.798 354.999 269.618 355.076C269.438 355.153 269.299 355.258 269.2 355.389C269.1 355.517 269.051 355.677 269.051 355.87C269.051 356.149 269.152 356.362 269.354 356.509C269.559 356.654 269.818 356.726 270.133 356.726ZM275.457 358L275.457 350.614L277.409 350.614L277.409 351.917L277.496 351.917C277.65 351.484 277.906 351.143 278.265 350.893C278.624 350.643 279.054 350.518 279.554 350.518C280.06 350.518 280.492 350.644 280.847 350.898C281.203 351.148 281.44 351.488 281.559 351.917L281.636 351.917C281.787 351.494 282.059 351.156 282.454 350.903C282.851 350.646 283.321 350.518 283.862 350.518C284.552 350.518 285.111 350.737 285.541 351.177C285.973 351.613 286.19 352.231 286.19 353.033L286.19 358L284.146 358L284.146 353.437C284.146 353.026 284.037 352.719 283.819 352.513C283.601 352.308 283.329 352.206 283.002 352.206C282.63 352.206 282.34 352.324 282.131 352.561C281.923 352.796 281.819 353.105 281.819 353.49L281.819 358L279.833 358L279.833 353.393C279.833 353.031 279.729 352.743 279.52 352.528C279.315 352.313 279.044 352.206 278.708 352.206C278.48 352.206 278.275 352.263 278.092 352.379C277.913 352.491 277.77 352.65 277.664 352.855C277.558 353.057 277.505 353.294 277.505 353.566L277.505 358L275.457 358Z" fill="#0FBFC4"/>
<defs>
<filter id="filter0_d_386_10507" x="0" y="0" width="222.26" height="271.927" filterUnits="userSpaceOnUse" color-interpolation-filters="sRGB">
<feFlood flood-opacity="0" result="BackgroundImageFix"/>
<feColorMatrix in="SourceAlpha" type="matrix" values="0 0 0 0 0 0 0 0 0 0 0 0 0 0 0 0 0 0 127 0" result="hardAlpha"/>
<feOffset/>
<feGaussianBlur stdDeviation="8"/>
<feComposite in2="hardAlpha" operator="out"/>
<feColorMatrix type="matrix" values="0 0 0 0 0 0 0 0 0 0.101961 0 0 0 0 0.121569 0 0 0 0.08 0"/>
<feBlend mode="normal" in2="BackgroundImageFix" result="effect1_dropShadow_386_10507"/>
<feBlend mode="normal" in="SourceGraphic" in2="effect1_dropShadow_386_10507" result="shape"/>
</filter>
<filter id="filter1_d_386_10507" x="126" y="71" width="231.143" height="278" filterUnits="userSpaceOnUse" color-interpolation-filters="sRGB">
<feFlood flood-opacity="0" result="BackgroundImageFix"/>
<feColorMatrix in="SourceAlpha" type="matrix" values="0 0 0 0 0 0 0 0 0 0 0 0 0 0 0 0 0 0 127 0" result="hardAlpha"/>
<feOffset/>
<feGaussianBlur stdDeviation="8"/>
<feComposite in2="hardAlpha" operator="out"/>
<feColorMatrix type="matrix" values="0 0 0 0 0 0 0 0 0 0.101961 0 0 0 0 0.121569 0 0 0 0.08 0"/>
<feBlend mode="normal" in2="BackgroundImageFix" result="effect1_dropShadow_386_10507"/>
<feBlend mode="normal" in="SourceGraphic" in2="effect1_dropShadow_386_10507" result="shape"/>
</filter>
<clipPath id="clip0_386_10507">
<rect width="15.7966" height="15.7966" fill="white" transform="matrix(-1 0 0 1 42.3311 29.167)"/>
</clipPath>
<clipPath id="clip1_386_10507">
<rect width="16.5341" height="16.5341" fill="white" transform="matrix(-1 0 0 1 169.56 100.781)"/>
</clipPath>
</defs>
</svg>
