<svg width="406" height="322" viewBox="0 0 406 322" fill="none" xmlns="http://www.w3.org/2000/svg">
<g clip-path="url(#clip0_268_7538)">
<g filter="url(#filter0_d_268_7538)">
<path d="M405.33 86.8574H219.492V286.154H405.33V86.8574Z" fill="white"/>
</g>
<g filter="url(#filter1_d_268_7538)">
<path d="M405.33 286.825H219.492C219.314 286.825 219.144 286.754 219.018 286.629C218.892 286.503 218.822 286.333 218.822 286.155V86.8578C218.822 86.68 218.892 86.5095 219.018 86.3838C219.144 86.2581 219.314 86.1875 219.492 86.1875H405.33C405.508 86.1875 405.678 86.2581 405.804 86.3838C405.93 86.5095 406 86.68 406 86.8578V286.155C406 286.333 405.93 286.503 405.804 286.629C405.678 286.754 405.508 286.825 405.33 286.825ZM220.162 285.484H404.66V87.528H220.162V285.484Z" fill="#1C222B"/>
</g>
<path d="M405.33 86.8574H219.492V108.923H405.33V86.8574Z" fill="white"/>
<path d="M405.33 109.593H219.492C219.314 109.593 219.144 109.523 219.018 109.397C218.892 109.271 218.822 109.101 218.822 108.923V86.8578C218.822 86.68 218.892 86.5095 219.018 86.3838C219.144 86.2581 219.314 86.1875 219.492 86.1875H405.33C405.508 86.1875 405.678 86.2581 405.804 86.3838C405.93 86.5095 406 86.68 406 86.8578V108.923C406 109.101 405.93 109.271 405.804 109.397C405.678 109.523 405.508 109.593 405.33 109.593ZM220.162 108.253H404.66V87.528H220.162V108.253Z" fill="#1C222B"/>
<path d="M229.425 100.344C230.987 100.344 232.253 99.0772 232.253 97.515C232.253 95.9529 230.987 94.6865 229.425 94.6865C227.863 94.6865 226.596 95.9529 226.596 97.515C226.596 99.0772 227.863 100.344 229.425 100.344Z" fill="#F77234"/>
<path d="M239.586 100.344C241.148 100.344 242.415 99.0772 242.415 97.515C242.415 95.9529 241.148 94.6865 239.586 94.6865C238.024 94.6865 236.758 95.9529 236.758 97.515C236.758 99.0772 238.024 100.344 239.586 100.344Z" fill="#E3E6EB"/>
<path d="M249.747 100.344C251.309 100.344 252.576 99.0772 252.576 97.515C252.576 95.9529 251.309 94.6865 249.747 94.6865C248.185 94.6865 246.919 95.9529 246.919 97.515C246.919 99.0772 248.185 100.344 249.747 100.344Z" fill="#E3E6EB"/>
<path d="M300.688 195.75C300.688 195.75 259.252 201.662 253.689 195.75C248.125 189.838 235.377 156.11 235.377 156.11L220.631 168.282C220.631 168.282 231.704 231.421 250.485 231.086C269.266 230.751 311.332 215.389 311.332 215.389L300.688 195.75Z" fill="white"/>
<path d="M250.324 231.756C231.288 231.756 220.417 170.989 219.961 168.389C219.944 168.273 219.956 168.155 219.996 168.045C220.036 167.935 220.102 167.837 220.189 167.759L234.935 155.587C235.018 155.52 235.116 155.472 235.221 155.449C235.325 155.426 235.434 155.427 235.538 155.453C235.639 155.485 235.733 155.539 235.811 155.611C235.89 155.682 235.952 155.77 235.994 155.868C236.114 156.203 248.755 189.542 254.158 195.293C258.528 199.918 289.146 196.714 300.58 195.079C300.716 195.064 300.853 195.089 300.975 195.151C301.096 195.213 301.197 195.309 301.264 195.427L311.921 215.013C311.968 215.096 311.996 215.188 312.003 215.283C312.011 215.378 311.997 215.473 311.964 215.562C311.931 215.652 311.879 215.733 311.811 215.8C311.744 215.867 311.662 215.918 311.573 215.951C311.144 216.112 269.158 231.421 250.485 231.756H250.324ZM221.355 168.55C222.32 173.791 233.152 230.415 250.31 230.415H250.458C267.563 230.107 304.696 217.01 310.38 214.959L300.326 196.473C298.181 196.768 288.971 197.988 279.32 198.631C264.44 199.623 255.646 198.806 253.193 196.205C248.045 190.736 237.173 162.692 235.082 157.222L221.355 168.55Z" fill="#1C222B"/>
<g filter="url(#filter2_d_268_7538)">
<path d="M189.866 15.916H4.02783V215.213H189.866V15.916Z" fill="white"/>
</g>
<path d="M189.933 215.897H4.02781C3.85004 215.897 3.67956 215.827 3.55386 215.701C3.42816 215.575 3.35754 215.405 3.35754 215.227V15.93C3.35754 15.7523 3.42816 15.5818 3.55386 15.4561C3.67956 15.3304 3.85004 15.2598 4.02781 15.2598H189.933C190.111 15.2598 190.281 15.3304 190.407 15.4561C190.533 15.5818 190.603 15.7523 190.603 15.93V215.227C190.603 215.405 190.533 215.575 190.407 215.701C190.281 215.827 190.111 215.897 189.933 215.897ZM4.7651 214.557H189.196V16.6003H4.69808L4.7651 214.557Z" fill="#1C222B"/>
<path d="M189.866 15.916H4.02783V37.9812H189.866V15.916Z" fill="white"/>
<path d="M189.933 38.6655H4.02781C3.85112 38.662 3.68262 38.5903 3.55766 38.4654C3.4327 38.3404 3.36098 38.1719 3.35754 37.9952V15.93C3.35754 15.7523 3.42816 15.5818 3.55386 15.4561C3.67956 15.3304 3.85004 15.2598 4.02781 15.2598H189.933C190.111 15.2598 190.281 15.3304 190.407 15.4561C190.533 15.5818 190.603 15.7523 190.603 15.93V37.9952C190.603 38.173 190.533 38.3435 190.407 38.4692C190.281 38.5949 190.111 38.6655 189.933 38.6655ZM4.7651 37.3249H189.196V16.6003H4.69808L4.7651 37.3249Z" fill="#1C222B"/>
<path d="M13.9611 29.4022C15.5232 29.4022 16.7896 28.1358 16.7896 26.5736C16.7896 25.0115 15.5232 23.7451 13.9611 23.7451C12.3989 23.7451 11.1326 25.0115 11.1326 26.5736C11.1326 28.1358 12.3989 29.4022 13.9611 29.4022Z" fill="#0051D9"/>
<path d="M24.1223 29.4022C25.6845 29.4022 26.9509 28.1358 26.9509 26.5736C26.9509 25.0115 25.6845 23.7451 24.1223 23.7451C22.5602 23.7451 21.2938 25.0115 21.2938 26.5736C21.2938 28.1358 22.5602 29.4022 24.1223 29.4022Z" fill="#E3E6EB"/>
<path d="M34.2836 29.4022C35.8458 29.4022 37.1121 28.1358 37.1121 26.5736C37.1121 25.0115 35.8458 23.7451 34.2836 23.7451C32.7215 23.7451 31.4551 25.0115 31.4551 26.5736C31.4551 28.1358 32.7215 29.4022 34.2836 29.4022Z" fill="#E3E6EB"/>
<path d="M53.5202 192.451L49.15 215.227H120.104L116.203 203.658L53.5202 192.451Z" fill="#1C222B"/>
<path d="M120.105 215.897H49.177C49.0795 215.897 48.9832 215.876 48.8951 215.834C48.807 215.792 48.7293 215.731 48.6676 215.656C48.6025 215.582 48.5554 215.494 48.5298 215.398C48.5042 215.303 48.5009 215.203 48.5201 215.106L52.8903 192.317C52.9228 192.143 53.0229 191.989 53.1685 191.889C53.3142 191.789 53.4936 191.75 53.6678 191.781L116.338 202.988C116.456 203.009 116.567 203.061 116.658 203.139C116.75 203.217 116.82 203.317 116.86 203.43L120.761 214.999C120.795 215.1 120.805 215.207 120.79 215.311C120.774 215.416 120.734 215.516 120.672 215.602C120.611 215.689 120.53 215.759 120.436 215.808C120.342 215.857 120.237 215.883 120.131 215.884L120.105 215.897ZM49.9679 214.557H119.166L115.694 204.248L54.0297 193.229L49.9679 214.557Z" fill="#1C222B"/>
<path d="M143.939 127.984L184.182 176.471L166.46 183.724L123.349 137.851L143.939 127.984Z" fill="white"/>
<path d="M166.46 184.395C166.369 184.396 166.279 184.377 166.196 184.34C166.113 184.303 166.038 184.249 165.978 184.181L122.906 138.308C122.832 138.233 122.778 138.142 122.748 138.041C122.717 137.941 122.712 137.834 122.732 137.731C122.751 137.627 122.795 137.528 122.86 137.444C122.925 137.36 123.01 137.293 123.107 137.249L143.698 127.382C143.832 127.318 143.984 127.3 144.13 127.332C144.276 127.363 144.407 127.442 144.502 127.557L184.718 176.044C184.786 176.124 184.834 176.22 184.857 176.322C184.88 176.425 184.879 176.532 184.852 176.634C184.825 176.735 184.774 176.83 184.705 176.909C184.635 176.988 184.548 177.05 184.45 177.089L166.742 184.342C166.654 184.384 166.557 184.403 166.46 184.395ZM124.475 138.067L166.634 182.934L183.083 176.231L143.765 128.857L124.475 138.067Z" fill="#1C222B"/>
<path d="M131.848 102.716L152.237 129.285L124.448 144.527L131.848 102.716Z" fill="#0051D9"/>
<path d="M131.848 102.782C130.145 100.101 91.4842 87.9292 78.8028 96.8572C66.1213 105.785 52.6758 174.823 49.177 196.191L126.445 216.057C126.445 216.057 141.218 117.863 131.848 102.782Z" fill="#0051D9"/>
<path d="M130.239 198.738H130.158C130.071 198.723 129.988 198.691 129.913 198.644C129.838 198.597 129.773 198.536 129.722 198.463C129.67 198.391 129.634 198.309 129.615 198.223C129.595 198.137 129.593 198.047 129.609 197.96C129.676 197.357 136.526 137.636 134.314 122.676C134.301 122.588 134.305 122.498 134.327 122.412C134.348 122.325 134.386 122.244 134.439 122.172C134.492 122.101 134.559 122.04 134.635 121.994C134.711 121.949 134.796 121.918 134.884 121.905C134.972 121.892 135.062 121.896 135.148 121.918C135.234 121.939 135.316 121.977 135.387 122.03C135.459 122.083 135.519 122.15 135.565 122.226C135.611 122.302 135.641 122.387 135.655 122.475C137.893 137.636 131.244 195.654 130.963 198.108C130.949 198.287 130.865 198.453 130.73 198.571C130.594 198.689 130.418 198.749 130.239 198.738Z" fill="#1C222B"/>
<path d="M112.14 86.9681C109.792 86.8641 107.445 86.4652 104.735 86.2224C102.025 85.9795 98.9527 85.0604 98.9009 82.5282C98.9009 80.343 101.455 78.5393 100.886 76.4407C100.685 75.8743 100.381 75.3507 99.9883 74.8972C96.377 70.0272 94.7807 63.9424 95.5336 57.9166C96.2864 51.8907 99.3301 46.3912 104.027 42.5692C103.32 42.8121 102.56 42.101 102.491 41.3552C102.486 40.593 102.777 39.8589 103.302 39.3087C105.206 37.2068 107.677 35.7065 110.414 34.9902C118.978 32.3366 128.138 32.3366 136.702 34.9902C143.261 36.9153 151.149 42.1704 150.286 50.1309C150.18 51.5745 149.584 52.9377 148.598 53.9922C147.611 55.0468 146.294 55.7287 144.866 55.9236C143.399 64.4565 138.946 70.2839 133.353 76.4581C129.595 80.6986 124.851 83.9397 119.545 85.8928C117.174 86.7499 114.655 87.1157 112.14 86.9681Z" fill="white"/>
<path d="M113.182 88H112.106C110.7 88 109.329 87.7737 107.853 87.5996C106.829 87.4777 105.771 87.3559 104.625 87.2514C100.512 86.9032 98.0295 85.1971 97.9775 82.6902C98.0432 81.4909 98.4531 80.3363 99.1577 79.3651C99.7305 78.4076 100.216 77.6242 100.008 76.7886C99.8508 76.3743 99.6216 75.9912 99.3313 75.657C95.6423 70.7874 93.9014 64.7105 94.4506 58.6194C94.9997 52.5284 97.7991 46.8633 102.299 42.7365C101.902 42.3452 101.651 41.8289 101.588 41.2741C101.567 40.7797 101.646 40.2863 101.819 39.8228C101.992 39.3594 102.255 38.9354 102.594 38.5757C104.606 36.3776 107.201 34.8012 110.075 34.0319C118.851 31.3227 128.236 31.3227 137.012 34.0319C144.753 36.2951 152.164 42.162 151.279 50.1701C151.144 51.7001 150.536 53.1497 149.54 54.3168C148.545 55.4839 147.211 56.3104 145.725 56.6811C143.989 65.4901 139.025 71.5833 134.044 77.0845C130.179 81.4472 125.295 84.7791 119.829 86.7814C117.7 87.5706 115.451 87.983 113.182 88ZM103.861 41.6223C104.029 41.6203 104.194 41.6627 104.341 41.7452C104.487 41.8277 104.609 41.9474 104.694 42.0923C104.801 42.2676 104.843 42.4743 104.815 42.6774C104.786 42.8805 104.689 43.0675 104.538 43.2065C99.9988 46.9073 97.0587 52.2228 96.3312 58.0448C95.6036 63.8667 97.1447 69.7456 100.633 74.4558C101.102 74.993 101.457 75.621 101.674 76.3011C101.788 76.9895 101.755 77.6942 101.579 78.3692C101.402 79.0441 101.086 79.6742 100.65 80.2181C100.136 80.924 99.8128 81.7519 99.7131 82.6206C99.7131 84.936 103.948 85.406 104.781 85.4931C105.927 85.4931 107.02 85.7194 108.062 85.8413C109.485 86.0154 110.839 86.1721 112.192 86.2243C114.591 86.3716 116.994 86.0281 119.256 85.2146C124.45 83.3168 129.091 80.1518 132.76 76.0052C138.939 69.1982 142.774 63.7144 144.128 55.8281C144.16 55.6308 144.258 55.4504 144.407 55.3173C144.555 55.1842 144.745 55.1063 144.944 55.0969C146.167 54.9038 147.288 54.3016 148.126 53.3882C148.965 52.4747 149.47 51.3038 149.561 50.0657C150.429 42.0749 141.768 37.3222 136.526 35.7902C128.083 33.1864 119.056 33.1864 110.613 35.7902C108.043 36.447 105.723 37.8524 103.948 39.8292C103.562 40.2066 103.333 40.7166 103.306 41.2567C103.321 41.3442 103.353 41.4279 103.401 41.5026C103.448 41.5774 103.511 41.6418 103.584 41.6919L103.861 41.6223Z" fill="#00124D"/>
<path d="M141.258 75.8516C141.258 75.8516 144.274 86.5758 142.492 87.9164C140.709 89.2569 137.129 86.8707 137.129 86.8707" fill="white"/>
<path d="M141.057 89.096C139.486 88.943 137.982 88.389 136.687 87.4873C136.543 87.3825 136.446 87.2259 136.416 87.0507C136.386 86.8756 136.426 86.6956 136.526 86.5489C136.626 86.4042 136.78 86.3047 136.953 86.2721C137.126 86.2395 137.305 86.2764 137.451 86.3747C138.282 86.9511 140.923 88.3721 142.062 87.4471C142.934 86.75 142.062 80.9857 140.615 76.0258C140.568 75.8552 140.59 75.6733 140.675 75.5184C140.76 75.3634 140.902 75.2474 141.07 75.1946C141.243 75.149 141.426 75.1725 141.581 75.2602C141.737 75.3478 141.851 75.4927 141.901 75.6638C142.639 78.2644 144.891 86.8975 142.907 88.4927C142.382 88.9073 141.726 89.1212 141.057 89.096Z" fill="#1C222B"/>
<path d="M145.521 55.9715C145.983 56.4552 146.258 57.0869 146.298 57.7544C146.583 60.1083 146.429 62.4946 145.843 64.7922C144.84 69.3362 143.555 73.8134 141.995 78.1975C140.074 84.0422 138.027 89.8512 135.856 95.6244C134.515 99.2707 124.823 96.2947 123.483 94.6458L120.306 109.794C120.306 109.794 115.292 109.593 108.67 103.534C102.047 97.4744 102.57 95.611 102.57 95.611L108.603 78.8678C108.603 78.8678 114.943 80.9322 121.123 74.5647C122.102 73.5459 122.933 71.7227 124.086 70.9586C125.493 70.0069 127.115 70.2347 128.376 68.8138C128.947 68.1473 129.356 67.3572 129.57 66.5058C129.784 65.6544 129.797 64.7649 129.609 63.9074C129.528 63.5321 129.435 63.0763 129.716 62.8216C129.9 62.6915 130.12 62.6213 130.346 62.6205C130.971 62.5107 131.567 62.2782 132.102 61.9365C132.636 61.5948 133.097 61.1505 133.458 60.6295C133.82 60.1084 134.075 59.5209 134.208 58.9009C134.341 58.2808 134.35 57.6406 134.234 57.0171C136.66 57.7946 139.06 55.8642 140.936 54.0947C140.36 54.6578 144.676 55.4353 144.743 55.4353C145.031 55.568 145.294 55.7494 145.521 55.9715Z" fill="white"/>
<path d="M120.306 110.464C120.091 110.464 114.943 110.182 108.241 104.016C101.82 98.131 101.793 95.9727 101.94 95.4231L107.973 78.653C108.031 78.4867 108.152 78.3498 108.31 78.2721C108.468 78.1943 108.65 78.1819 108.817 78.2375C109.059 78.3179 114.85 80.074 120.641 74.1086C121.036 73.6651 121.395 73.1898 121.713 72.6877C122.241 71.8174 122.917 71.0461 123.711 70.4088C124.326 70.0274 124.995 69.7383 125.695 69.5508C126.523 69.39 127.285 68.9836 127.88 68.3845C128.386 67.8001 128.75 67.1061 128.944 66.3571C129.137 65.6081 129.153 64.8246 128.992 64.068C128.88 63.7783 128.851 63.4632 128.908 63.1578C128.965 62.8524 129.105 62.5689 129.314 62.3388C129.579 62.1184 129.908 61.9912 130.252 61.9768C130.795 61.8954 131.314 61.7004 131.776 61.4048C132.238 61.1091 132.632 60.7193 132.933 60.2609C133.26 59.8302 133.491 59.3348 133.611 58.8078C133.731 58.2808 133.738 57.7343 133.63 57.2045C133.604 57.0891 133.609 56.9687 133.644 56.8557C133.68 56.7426 133.744 56.641 133.832 56.5611C133.916 56.4769 134.022 56.4183 134.139 56.3922C134.255 56.3661 134.376 56.3735 134.488 56.4136C136.58 57.0705 138.792 55.2741 140.481 53.6387C140.543 53.5759 140.617 53.526 140.699 53.492C140.78 53.4579 140.868 53.4404 140.956 53.4404C141.045 53.4404 141.133 53.4579 141.214 53.492C141.296 53.526 141.37 53.5759 141.432 53.6387C141.516 53.735 141.576 53.8499 141.607 53.9738C142.61 54.351 143.647 54.6338 144.703 54.8184L145.012 54.8988C145.368 55.0353 145.698 55.2301 145.99 55.4752C146.552 56.0627 146.897 56.8238 146.969 57.6335C147.275 60.0714 147.12 62.5452 146.513 64.926C145.609 69.0717 144.44 73.1553 143.014 77.1516L142.585 78.4922C140.682 84.3235 138.564 90.195 136.446 95.9191C136.189 96.5075 135.773 97.0126 135.245 97.3774C134.717 97.7421 134.097 97.9521 133.456 97.9835C130.124 98.2332 126.792 97.5015 123.871 95.8789L120.922 109.995C120.882 110.128 120.801 110.246 120.69 110.33C120.58 110.414 120.445 110.461 120.306 110.464ZM103.2 95.8253C103.2 95.8253 103.375 97.7556 109.126 103.037C114.206 107.689 118.335 108.802 119.783 109.056L122.826 94.4981C122.852 94.3737 122.913 94.2591 123.001 94.168C123.09 94.0768 123.203 94.0127 123.326 93.9832C123.45 93.9537 123.58 93.9599 123.7 94.0013C123.82 94.0426 123.926 94.1173 124.005 94.2166C124.77 95.155 129.957 97.139 133.282 96.6028C133.686 96.5952 134.081 96.4776 134.423 96.2627C134.766 96.0478 135.043 95.7436 135.226 95.3829C137.397 89.6722 139.462 83.8141 141.352 77.956L141.781 76.6154C143.168 72.6694 144.306 68.6398 145.186 64.5506C145.74 62.362 145.894 60.0914 145.642 57.848C145.611 57.3262 145.414 56.8281 145.079 56.427C144.901 56.2847 144.702 56.1716 144.489 56.0919H144.355C143.134 55.8886 141.942 55.5422 140.802 55.0597C139.167 56.5611 137.143 57.9954 134.998 57.8212C134.999 58.9544 134.647 60.0599 133.992 60.9848C133.589 61.5943 133.062 62.1122 132.445 62.5048C131.828 62.8974 131.136 63.1559 130.413 63.2637H130.118C130.184 63.4038 130.23 63.5529 130.252 63.7061C130.48 64.6765 130.473 65.6869 130.233 66.6542C129.993 67.6215 129.526 68.5178 128.872 69.2693C128.122 70.0547 127.156 70.6005 126.097 70.8377C125.519 70.9791 124.967 71.2098 124.461 71.5214C123.814 72.0713 123.262 72.7233 122.826 73.4518C122.462 74.0105 122.054 74.5394 121.606 75.0336C116.244 80.5298 110.882 80.0338 109.032 79.6718L103.2 95.8387V95.8253Z" fill="#1C222B"/>
<path d="M125.976 72.6884C126.288 71.1709 126.168 69.5961 125.628 68.144C125.347 66.9717 124.895 65.847 124.287 64.806C124.002 64.3008 123.612 63.8631 123.142 63.5229C122.672 63.1828 122.135 62.9483 121.566 62.8354C121.036 62.8023 120.505 62.882 120.008 63.0691C119.511 63.2563 119.06 63.5468 118.684 63.9213C117.934 64.678 117.366 65.5946 117.021 66.6023C116.22 68.7764 116.007 71.1232 116.402 73.4062C116.798 75.6891 117.788 77.8274 119.273 79.6055L119.059 79.1497" fill="white"/>
<path d="M119.206 80.2756C119.109 80.2757 119.013 80.2541 118.924 80.2123C118.836 80.1706 118.759 80.1098 118.697 80.0343C117.143 78.1601 116.107 75.9121 115.69 73.5134C115.274 71.1148 115.493 68.6489 116.324 66.3608C116.708 65.2604 117.336 64.2613 118.161 63.4385C118.604 62.996 119.138 62.6543 119.726 62.4368C120.313 62.2194 120.941 62.1312 121.566 62.1784C122.259 62.2802 122.92 62.5368 123.5 62.929C124.08 63.3212 124.564 63.8389 124.917 64.4439C125.533 65.5476 125.985 66.7353 126.258 67.9695C126.836 69.5437 126.956 71.2493 126.606 72.8892C126.555 73.067 126.434 73.217 126.272 73.3062C126.11 73.3955 125.919 73.4167 125.741 73.3651C125.564 73.3136 125.414 73.1935 125.324 73.0314C125.235 72.8692 125.214 72.6782 125.266 72.5005C125.518 71.0979 125.389 69.6532 124.89 68.318C124.648 67.2155 124.246 66.1542 123.697 65.1678C123.45 64.7342 123.111 64.3605 122.703 64.0731C122.295 63.7858 121.829 63.592 121.338 63.5055C120.905 63.4831 120.471 63.5527 120.067 63.7098C119.663 63.8669 119.296 64.108 118.992 64.4171C118.334 65.1072 117.839 65.9364 117.544 66.8434C116.841 68.7735 116.621 70.846 116.901 72.8809C117.181 74.9157 117.954 76.8513 119.153 78.5195C119.241 78.5455 119.322 78.5901 119.392 78.6502C119.461 78.7103 119.517 78.7846 119.555 78.868L119.769 79.3238C119.838 79.47 119.851 79.636 119.806 79.7911C119.762 79.9462 119.663 80.0802 119.528 80.1683C119.431 80.2295 119.321 80.2663 119.206 80.2756Z" fill="#1C222B"/>
<path d="M123.483 94.6457C123.483 94.6457 118.992 91.5089 117.759 87.3398C117.759 87.3398 115.238 96.375 122.062 101.389L123.483 94.6457Z" fill="#1C222B"/>
<path d="M122.062 102.059C121.923 102.058 121.788 102.016 121.673 101.938C114.555 96.6967 117.088 87.1923 117.102 87.1923C117.14 87.0506 117.223 86.9253 117.34 86.8357C117.456 86.7461 117.598 86.6971 117.745 86.6963C117.89 86.6984 118.03 86.7462 118.145 86.8329C118.261 86.9197 118.346 87.0408 118.389 87.1789C119.528 91.053 123.751 94.0826 123.858 94.1228C123.964 94.1983 124.046 94.3033 124.094 94.4247C124.142 94.5461 124.153 94.6788 124.126 94.8065L122.705 101.509C122.685 101.621 122.635 101.725 122.563 101.812C122.49 101.899 122.396 101.965 122.29 102.005C122.217 102.036 122.14 102.054 122.062 102.059ZM118.04 89.7125C117.782 91.6157 117.971 93.5528 118.593 95.3702C119.214 97.1875 120.25 98.835 121.619 100.182L122.719 94.9272C120.849 93.4984 119.266 91.7291 118.053 89.7125H118.04Z" fill="#1C222B"/>
<path d="M139.482 70.1936C139.895 69.0523 139.868 67.9964 139.423 67.8353C138.978 67.6742 138.282 68.4689 137.869 69.6102C137.456 70.7515 137.483 71.8074 137.928 71.9685C138.373 72.1296 139.069 71.3349 139.482 70.1936Z" fill="#1C222B"/>
<path d="M137.076 86.924L131.338 82.3662C131.338 82.3662 126.901 89.6185 129.099 93.439C131.298 97.2595 135.641 90.7177 137.076 86.924Z" fill="white"/>
<path d="M130.748 95.276C130.272 95.2617 129.809 95.1133 129.413 94.8477C129.017 94.5821 128.704 94.2101 128.51 93.7746C126.15 89.6591 130.574 82.3264 130.775 82.0181C130.824 81.9368 130.891 81.8671 130.969 81.8139C131.048 81.7607 131.137 81.7251 131.231 81.7098C131.323 81.692 131.417 81.6948 131.507 81.718C131.598 81.7412 131.682 81.7841 131.754 81.8438L137.491 86.4016C137.6 86.4921 137.679 86.6137 137.718 86.7502C137.756 86.8867 137.752 87.0317 137.706 87.1657C136.781 89.6055 133.818 95.0347 131.003 95.2089L130.748 95.276ZM131.539 83.3854C130.547 85.1952 128.067 90.3026 129.676 93.1177C130.118 93.8952 130.547 93.9488 130.829 93.9354C132.437 93.8014 134.984 90.2758 136.271 87.1523L131.539 83.3854Z" fill="#1C222B"/>
<g filter="url(#filter3_d_268_7538)">
<rect x="125.86" y="113.393" width="121.506" height="134.714" rx="5.54185" fill="white" shape-rendering="crispEdges"/>
<path d="M134.562 131.705V125.659H137.183C137.644 125.659 138.031 125.721 138.344 125.845C138.658 125.969 138.896 126.145 139.055 126.371C139.216 126.597 139.297 126.864 139.297 127.171C139.297 127.393 139.248 127.596 139.149 127.779C139.053 127.962 138.917 128.115 138.742 128.239C138.567 128.361 138.362 128.446 138.128 128.493V128.552C138.388 128.562 138.624 128.628 138.836 128.75C139.049 128.87 139.218 129.036 139.344 129.249C139.47 129.46 139.533 129.708 139.533 129.993C139.533 130.324 139.447 130.618 139.273 130.876C139.102 131.133 138.858 131.336 138.541 131.484C138.224 131.631 137.847 131.705 137.408 131.705H134.562ZM136.203 130.394H136.971C137.246 130.394 137.453 130.343 137.591 130.241C137.729 130.137 137.797 129.983 137.797 129.78C137.797 129.639 137.765 129.519 137.7 129.42C137.635 129.322 137.543 129.247 137.422 129.196C137.304 129.145 137.162 129.119 136.994 129.119H136.203V130.394ZM136.203 128.104H136.876C137.02 128.104 137.147 128.081 137.257 128.036C137.367 127.991 137.453 127.926 137.514 127.841C137.577 127.754 137.608 127.649 137.608 127.525C137.608 127.338 137.542 127.195 137.408 127.097C137.274 126.997 137.105 126.946 136.9 126.946H136.203V128.104ZM143.078 129.721V127.171H144.708V131.705H143.161V130.843H143.114C143.016 131.132 142.843 131.359 142.597 131.522C142.351 131.683 142.059 131.764 141.721 131.764C141.404 131.764 141.126 131.691 140.888 131.546C140.652 131.4 140.468 131.199 140.336 130.943C140.206 130.688 140.14 130.394 140.138 130.064V127.171H141.768V129.721C141.77 129.946 141.827 130.122 141.939 130.25C142.053 130.378 142.213 130.442 142.417 130.442C142.553 130.442 142.67 130.413 142.769 130.356C142.869 130.297 142.946 130.214 142.999 130.108C143.054 130 143.08 129.871 143.078 129.721ZM149.681 128.647H148.182C148.174 128.554 148.141 128.475 148.084 128.408C148.027 128.341 147.953 128.29 147.863 128.254C147.774 128.217 147.676 128.198 147.568 128.198C147.428 128.198 147.308 128.224 147.208 128.275C147.107 128.326 147.058 128.399 147.06 128.493C147.058 128.56 147.087 128.622 147.146 128.679C147.207 128.736 147.324 128.781 147.497 128.812L148.418 128.977C148.882 129.062 149.228 129.205 149.454 129.405C149.682 129.604 149.797 129.871 149.799 130.205C149.797 130.528 149.701 130.809 149.51 131.047C149.321 131.283 149.062 131.466 148.734 131.596C148.407 131.724 148.034 131.788 147.615 131.788C146.922 131.788 146.38 131.646 145.988 131.363C145.599 131.079 145.381 130.705 145.336 130.241H146.954C146.975 130.385 147.046 130.496 147.166 130.574C147.288 130.651 147.442 130.69 147.627 130.69C147.776 130.69 147.899 130.664 147.996 130.613C148.094 130.562 148.144 130.489 148.146 130.394C148.144 130.308 148.101 130.239 148.016 130.188C147.934 130.137 147.804 130.095 147.627 130.064L146.824 129.922C146.361 129.841 146.015 129.688 145.785 129.462C145.554 129.235 145.44 128.944 145.442 128.588C145.44 128.273 145.523 128.006 145.69 127.788C145.86 127.567 146.101 127.4 146.413 127.286C146.728 127.17 147.101 127.112 147.532 127.112C148.188 127.112 148.704 127.248 149.082 127.519C149.462 127.791 149.662 128.167 149.681 128.647ZM150.424 131.705V127.171H152.053V131.705H150.424ZM151.239 126.699C151.018 126.699 150.829 126.626 150.672 126.48C150.514 126.334 150.436 126.159 150.436 125.955C150.436 125.75 150.514 125.575 150.672 125.429C150.829 125.284 151.018 125.211 151.239 125.211C151.461 125.211 151.65 125.284 151.805 125.429C151.963 125.575 152.041 125.75 152.041 125.955C152.041 126.159 151.963 126.334 151.805 126.48C151.65 126.626 151.461 126.699 151.239 126.699ZM154.513 129.155V131.705H152.883V127.171H154.43V128.033H154.478C154.576 127.745 154.749 127.52 154.997 127.357C155.247 127.193 155.538 127.112 155.871 127.112C156.192 127.112 156.47 127.186 156.706 127.333C156.944 127.479 157.128 127.68 157.258 127.935C157.39 128.191 157.455 128.483 157.453 128.812V131.705H155.824V129.155C155.826 128.93 155.769 128.754 155.652 128.626C155.538 128.498 155.379 128.434 155.174 128.434C155.04 128.434 154.923 128.464 154.823 128.523C154.725 128.58 154.649 128.663 154.596 128.771C154.543 128.877 154.515 129.005 154.513 129.155ZM160.43 131.788C159.946 131.788 159.529 131.695 159.179 131.51C158.83 131.323 158.562 131.056 158.373 130.707C158.186 130.357 158.092 129.938 158.092 129.45C158.092 128.981 158.187 128.572 158.376 128.222C158.565 127.871 158.831 127.599 159.176 127.404C159.52 127.209 159.926 127.112 160.395 127.112C160.737 127.112 161.047 127.165 161.325 127.271C161.602 127.377 161.839 127.532 162.036 127.735C162.233 127.935 162.384 128.179 162.491 128.467C162.597 128.754 162.65 129.078 162.65 129.438V129.816H158.6V128.918H161.151C161.149 128.789 161.115 128.674 161.05 128.576C160.987 128.476 160.902 128.398 160.793 128.343C160.687 128.286 160.566 128.257 160.43 128.257C160.298 128.257 160.177 128.286 160.067 128.343C159.957 128.398 159.868 128.475 159.801 128.573C159.737 128.671 159.702 128.787 159.698 128.918V129.887C159.698 130.032 159.729 130.162 159.79 130.276C159.851 130.39 159.938 130.48 160.052 130.545C160.167 130.61 160.304 130.642 160.466 130.642C160.578 130.642 160.68 130.627 160.773 130.595C160.867 130.564 160.948 130.518 161.015 130.459C161.082 130.398 161.131 130.326 161.162 130.241H162.65C162.599 130.556 162.478 130.829 162.287 131.062C162.096 131.292 161.843 131.471 161.528 131.599C161.215 131.725 160.849 131.788 160.43 131.788ZM167.46 128.647H165.96C165.952 128.554 165.92 128.475 165.863 128.408C165.806 128.341 165.732 128.29 165.641 128.254C165.553 128.217 165.454 128.198 165.346 128.198C165.206 128.198 165.086 128.224 164.986 128.275C164.886 128.326 164.836 128.399 164.838 128.493C164.836 128.56 164.865 128.622 164.924 128.679C164.985 128.736 165.102 128.781 165.275 128.812L166.196 128.977C166.661 129.062 167.006 129.205 167.232 129.405C167.461 129.604 167.576 129.871 167.578 130.205C167.576 130.528 167.479 130.809 167.288 131.047C167.1 131.283 166.841 131.466 166.512 131.596C166.185 131.724 165.812 131.788 165.393 131.788C164.701 131.788 164.158 131.646 163.767 131.363C163.377 131.079 163.16 130.705 163.114 130.241H164.732C164.754 130.385 164.825 130.496 164.945 130.574C165.067 130.651 165.22 130.69 165.405 130.69C165.555 130.69 165.678 130.664 165.774 130.613C165.872 130.562 165.923 130.489 165.925 130.394C165.923 130.308 165.879 130.239 165.795 130.188C165.712 130.137 165.582 130.095 165.405 130.064L164.602 129.922C164.14 129.841 163.793 129.688 163.563 129.462C163.333 129.235 163.219 128.944 163.221 128.588C163.219 128.273 163.301 128.006 163.469 127.788C163.638 127.567 163.879 127.4 164.192 127.286C164.507 127.17 164.88 127.112 165.311 127.112C165.966 127.112 166.483 127.248 166.86 127.519C167.24 127.791 167.44 128.167 167.46 128.647ZM172.347 128.647H170.847C170.839 128.554 170.807 128.475 170.75 128.408C170.693 128.341 170.619 128.29 170.528 128.254C170.44 128.217 170.341 128.198 170.233 128.198C170.093 128.198 169.973 128.224 169.873 128.275C169.773 128.326 169.723 128.399 169.725 128.493C169.723 128.56 169.752 128.622 169.811 128.679C169.872 128.736 169.989 128.781 170.162 128.812L171.083 128.977C171.548 129.062 171.893 129.205 172.119 129.405C172.348 129.604 172.463 129.871 172.465 130.205C172.463 130.528 172.366 130.809 172.175 131.047C171.987 131.283 171.728 131.466 171.399 131.596C171.072 131.724 170.699 131.788 170.28 131.788C169.588 131.788 169.045 131.646 168.654 131.363C168.264 131.079 168.047 130.705 168.001 130.241H169.619C169.641 130.385 169.712 130.496 169.832 130.574C169.954 130.651 170.107 130.69 170.292 130.69C170.442 130.69 170.565 130.664 170.661 130.613C170.759 130.562 170.81 130.489 170.812 130.394C170.81 130.308 170.766 130.239 170.682 130.188C170.599 130.137 170.469 130.095 170.292 130.064L169.489 129.922C169.027 129.841 168.68 129.688 168.45 129.462C168.22 129.235 168.106 128.944 168.108 128.588C168.106 128.273 168.188 128.006 168.356 127.788C168.525 127.567 168.766 127.4 169.079 127.286C169.394 127.17 169.767 127.112 170.198 127.112C170.853 127.112 171.37 127.248 171.747 127.519C172.127 127.791 172.327 128.167 172.347 128.647ZM180.366 127.927H178.701C178.689 127.789 178.657 127.664 178.606 127.552C178.557 127.439 178.488 127.343 178.4 127.262C178.313 127.18 178.208 127.117 178.084 127.073C177.96 127.028 177.819 127.006 177.662 127.006C177.386 127.006 177.153 127.072 176.962 127.206C176.773 127.34 176.629 127.532 176.531 127.782C176.435 128.032 176.386 128.332 176.386 128.682C176.386 129.052 176.436 129.362 176.534 129.612C176.634 129.86 176.779 130.047 176.968 130.173C177.157 130.297 177.384 130.359 177.65 130.359C177.801 130.359 177.937 130.34 178.057 130.303C178.177 130.264 178.282 130.207 178.37 130.135C178.459 130.062 178.531 129.974 178.586 129.872C178.643 129.768 178.681 129.65 178.701 129.521L180.366 129.532C180.346 129.788 180.274 130.049 180.15 130.315C180.026 130.578 179.85 130.822 179.622 131.047C179.395 131.269 179.115 131.448 178.78 131.584C178.446 131.72 178.057 131.788 177.614 131.788C177.059 131.788 176.562 131.669 176.121 131.431C175.682 131.192 175.335 130.842 175.079 130.38C174.825 129.917 174.698 129.351 174.698 128.682C174.698 128.009 174.828 127.442 175.088 126.982C175.347 126.519 175.698 126.17 176.138 125.934C176.579 125.696 177.071 125.577 177.614 125.577C177.996 125.577 178.348 125.629 178.668 125.733C178.989 125.838 179.271 125.99 179.513 126.191C179.755 126.39 179.949 126.635 180.097 126.926C180.245 127.217 180.334 127.551 180.366 127.927ZM183.318 131.788C182.826 131.788 182.405 131.69 182.055 131.495C181.705 131.299 181.436 131.025 181.249 130.675C181.062 130.323 180.969 129.914 180.969 129.45C180.969 128.985 181.062 128.578 181.249 128.228C181.436 127.875 181.705 127.602 182.055 127.407C182.405 127.21 182.826 127.112 183.318 127.112C183.81 127.112 184.232 127.21 184.582 127.407C184.932 127.602 185.201 127.875 185.388 128.228C185.575 128.578 185.668 128.985 185.668 129.45C185.668 129.914 185.575 130.323 185.388 130.675C185.201 131.025 184.932 131.299 184.582 131.495C184.232 131.69 183.81 131.788 183.318 131.788ZM183.33 130.583C183.468 130.583 183.587 130.537 183.687 130.445C183.788 130.352 183.866 130.22 183.921 130.049C183.976 129.878 184.003 129.674 184.003 129.438C184.003 129.2 183.976 128.996 183.921 128.827C183.866 128.656 183.788 128.524 183.687 128.431C183.587 128.339 183.468 128.293 183.33 128.293C183.185 128.293 183.06 128.339 182.955 128.431C182.851 128.524 182.771 128.656 182.716 128.827C182.661 128.996 182.634 129.2 182.634 129.438C182.634 129.674 182.661 129.878 182.716 130.049C182.771 130.22 182.851 130.352 182.955 130.445C183.06 130.537 183.185 130.583 183.33 130.583ZM187.959 129.155V131.705H186.329V127.171H187.876V128.033H187.924C188.022 127.745 188.195 127.52 188.443 127.357C188.693 127.193 188.984 127.112 189.317 127.112C189.638 127.112 189.916 127.186 190.152 127.333C190.39 127.479 190.574 127.68 190.704 127.935C190.836 128.191 190.901 128.483 190.899 128.812V131.705H189.27V129.155C189.272 128.93 189.215 128.754 189.098 128.626C188.984 128.498 188.825 128.434 188.62 128.434C188.486 128.434 188.369 128.464 188.269 128.523C188.17 128.58 188.095 128.663 188.042 128.771C187.988 128.877 187.961 129.005 187.959 129.155ZM194.419 127.171V128.352H191.385V127.171H194.419ZM191.963 131.705V127.041C191.963 126.667 192.03 126.357 192.164 126.111C192.298 125.865 192.487 125.681 192.731 125.559C192.975 125.437 193.262 125.376 193.593 125.376C193.799 125.376 194 125.392 194.195 125.423C194.392 125.455 194.537 125.482 194.632 125.506L194.396 126.675C194.337 126.657 194.268 126.643 194.189 126.634C194.11 126.622 194.041 126.616 193.982 126.616C193.829 126.616 193.726 126.648 193.673 126.713C193.619 126.778 193.593 126.864 193.593 126.97V131.705H191.963ZM195.048 131.705V127.171H196.678V131.705H195.048ZM195.863 126.699C195.642 126.699 195.454 126.626 195.296 126.48C195.139 126.334 195.06 126.159 195.06 125.955C195.06 125.75 195.139 125.575 195.296 125.429C195.454 125.284 195.642 125.211 195.863 125.211C196.085 125.211 196.274 125.284 196.43 125.429C196.587 125.575 196.666 125.75 196.666 125.955C196.666 126.159 196.587 126.334 196.43 126.48C196.274 126.626 196.085 126.699 195.863 126.699ZM199.149 131.764C198.826 131.764 198.529 131.679 198.258 131.51C197.988 131.341 197.772 131.084 197.608 130.74C197.447 130.395 197.366 129.961 197.366 129.438C197.366 128.891 197.451 128.446 197.62 128.104C197.791 127.761 198.012 127.51 198.281 127.351C198.553 127.191 198.838 127.112 199.137 127.112C199.362 127.112 199.559 127.151 199.728 127.23C199.897 127.307 200.039 127.41 200.153 127.54C200.267 127.668 200.354 127.808 200.413 127.962H200.436V125.659H202.066V131.705H200.448V130.961H200.413C200.35 131.115 200.259 131.252 200.141 131.374C200.025 131.495 199.883 131.59 199.716 131.661C199.551 131.73 199.362 131.764 199.149 131.764ZM199.751 130.512C199.901 130.512 200.029 130.469 200.135 130.383C200.243 130.294 200.326 130.17 200.383 130.011C200.442 129.849 200.472 129.658 200.472 129.438C200.472 129.214 200.442 129.022 200.383 128.862C200.326 128.701 200.243 128.578 200.135 128.493C200.029 128.407 199.901 128.363 199.751 128.363C199.602 128.363 199.474 128.407 199.368 128.493C199.263 128.578 199.183 128.701 199.126 128.862C199.07 129.022 199.043 129.214 199.043 129.438C199.043 129.662 199.07 129.855 199.126 130.017C199.183 130.176 199.263 130.299 199.368 130.386C199.474 130.47 199.602 130.512 199.751 130.512ZM205.038 131.788C204.554 131.788 204.137 131.695 203.787 131.51C203.438 131.323 203.17 131.056 202.981 130.707C202.794 130.357 202.7 129.938 202.7 129.45C202.7 128.981 202.795 128.572 202.984 128.222C203.173 127.871 203.439 127.599 203.784 127.404C204.128 127.209 204.535 127.112 205.003 127.112C205.345 127.112 205.655 127.165 205.933 127.271C206.21 127.377 206.447 127.532 206.644 127.735C206.841 127.935 206.993 128.179 207.099 128.467C207.205 128.754 207.258 129.078 207.258 129.438V129.816H203.208V128.918H205.759C205.757 128.789 205.723 128.674 205.658 128.576C205.595 128.476 205.51 128.398 205.401 128.343C205.295 128.286 205.174 128.257 205.038 128.257C204.907 128.257 204.785 128.286 204.675 128.343C204.565 128.398 204.477 128.475 204.41 128.573C204.345 128.671 204.31 128.787 204.306 128.918V129.887C204.306 130.032 204.337 130.162 204.398 130.276C204.459 130.39 204.546 130.48 204.661 130.545C204.775 130.61 204.912 130.642 205.074 130.642C205.186 130.642 205.288 130.627 205.381 130.595C205.475 130.564 205.556 130.518 205.623 130.459C205.69 130.398 205.739 130.326 205.77 130.241H207.258C207.207 130.556 207.086 130.829 206.895 131.062C206.704 131.292 206.451 131.471 206.137 131.599C205.824 131.725 205.458 131.788 205.038 131.788ZM209.553 129.155V131.705H207.923V127.171H209.47V128.033H209.517C209.616 127.745 209.789 127.52 210.037 127.357C210.287 127.193 210.578 127.112 210.911 127.112C211.231 127.112 211.51 127.186 211.746 127.333C211.984 127.479 212.168 127.68 212.298 127.935C212.43 128.191 212.495 128.483 212.493 128.812V131.705H210.863V129.155C210.865 128.93 210.808 128.754 210.692 128.626C210.578 128.498 210.419 128.434 210.214 128.434C210.08 128.434 209.963 128.464 209.863 128.523C209.764 128.58 209.688 128.663 209.635 128.771C209.582 128.877 209.555 129.005 209.553 129.155ZM216.001 127.171V128.352H213.014V127.171H216.001ZM213.592 126.085H215.222V130.247C215.222 130.31 215.233 130.363 215.254 130.406C215.276 130.448 215.31 130.479 215.355 130.501C215.4 130.52 215.458 130.53 215.529 130.53C215.578 130.53 215.635 130.524 215.7 130.512C215.767 130.501 215.816 130.491 215.848 130.483L216.084 131.628C216.011 131.65 215.907 131.677 215.771 131.708C215.637 131.74 215.478 131.76 215.293 131.77C214.919 131.79 214.605 131.751 214.351 131.655C214.097 131.556 213.906 131.402 213.778 131.191C213.651 130.981 213.589 130.717 213.592 130.4V126.085ZM216.666 131.705V127.171H218.296V131.705H216.666ZM217.481 126.699C217.261 126.699 217.072 126.626 216.914 126.48C216.757 126.334 216.678 126.159 216.678 125.955C216.678 125.75 216.757 125.575 216.914 125.429C217.072 125.284 217.261 125.211 217.481 125.211C217.703 125.211 217.892 125.284 218.048 125.429C218.205 125.575 218.284 125.75 218.284 125.955C218.284 126.159 218.205 126.334 218.048 126.48C217.892 126.626 217.703 126.699 217.481 126.699ZM220.389 131.776C220.1 131.776 219.844 131.729 219.622 131.634C219.401 131.538 219.228 131.392 219.102 131.197C218.976 131.003 218.913 130.755 218.913 130.453C218.913 130.205 218.956 129.994 219.04 129.819C219.125 129.642 219.243 129.497 219.395 129.385C219.546 129.273 219.722 129.187 219.923 129.128C220.126 129.069 220.344 129.031 220.578 129.013C220.832 128.993 221.036 128.97 221.189 128.942C221.345 128.913 221.457 128.872 221.526 128.821C221.595 128.768 221.629 128.698 221.629 128.611V128.6C221.629 128.482 221.584 128.391 221.493 128.328C221.403 128.265 221.287 128.234 221.145 128.234C220.99 128.234 220.863 128.268 220.764 128.337C220.668 128.404 220.61 128.507 220.59 128.647H219.091C219.11 128.371 219.198 128.117 219.353 127.885C219.511 127.651 219.74 127.464 220.041 127.324C220.342 127.183 220.718 127.112 221.169 127.112C221.493 127.112 221.785 127.15 222.043 127.227C222.3 127.302 222.52 127.407 222.701 127.543C222.882 127.677 223.02 127.834 223.114 128.015C223.211 128.194 223.259 128.389 223.259 128.6V131.705H221.736V131.067H221.7C221.61 131.237 221.499 131.373 221.369 131.478C221.242 131.582 221.095 131.658 220.93 131.705C220.766 131.752 220.586 131.776 220.389 131.776ZM220.921 130.749C221.045 130.749 221.161 130.723 221.269 130.672C221.379 130.621 221.469 130.547 221.538 130.45C221.607 130.354 221.641 130.237 221.641 130.099V129.721C221.598 129.739 221.552 129.756 221.502 129.772C221.455 129.787 221.404 129.802 221.349 129.816C221.296 129.83 221.239 129.842 221.178 129.854C221.119 129.866 221.057 129.877 220.992 129.887C220.866 129.906 220.762 129.939 220.682 129.984C220.603 130.027 220.544 130.081 220.505 130.146C220.467 130.209 220.448 130.28 220.448 130.359C220.448 130.485 220.493 130.581 220.581 130.648C220.67 130.715 220.783 130.749 220.921 130.749ZM225.667 125.659V131.705H224.037V125.659H225.667ZM226.497 131.705V127.171H228.127V131.705H226.497ZM227.312 126.699C227.091 126.699 226.902 126.626 226.745 126.48C226.588 126.334 226.509 126.159 226.509 125.955C226.509 125.75 226.588 125.575 226.745 125.429C226.902 125.284 227.091 125.211 227.312 125.211C227.534 125.211 227.723 125.284 227.879 125.429C228.036 125.575 228.115 125.75 228.115 125.955C228.115 126.159 228.036 126.334 227.879 126.48C227.723 126.626 227.534 126.699 227.312 126.699ZM231.661 127.171V128.352H228.673V127.171H231.661ZM229.252 126.085H230.881V130.247C230.881 130.31 230.892 130.363 230.914 130.406C230.936 130.448 230.969 130.479 231.014 130.501C231.06 130.52 231.118 130.53 231.188 130.53C231.238 130.53 231.295 130.524 231.36 130.512C231.427 130.501 231.476 130.491 231.507 130.483L231.743 131.628C231.671 131.65 231.566 131.677 231.431 131.708C231.297 131.74 231.137 131.76 230.952 131.77C230.578 131.79 230.265 131.751 230.011 131.655C229.757 131.556 229.566 131.402 229.438 131.191C229.31 130.981 229.248 130.717 229.252 130.4V126.085ZM233.318 133.405C233.131 133.405 232.953 133.391 232.783 133.361C232.614 133.334 232.465 133.295 232.338 133.246L232.692 132.089C232.826 132.136 232.948 132.167 233.058 132.18C233.17 132.194 233.265 132.186 233.344 132.157C233.425 132.127 233.483 132.071 233.518 131.988L233.554 131.906L231.96 127.171H233.66L234.392 130.312H234.439L235.183 127.171H236.895L235.242 132.083C235.16 132.333 235.04 132.557 234.882 132.756C234.727 132.957 234.522 133.115 234.268 133.231C234.014 133.347 233.697 133.405 233.318 133.405ZM136.132 145.705H134.361L136.357 139.659H138.6L140.596 145.705H138.825L137.502 141.324H137.455L136.132 145.705ZM135.802 143.32H139.132V144.548H135.802V143.32ZM143.029 147.5C142.574 147.5 142.185 147.435 141.86 147.305C141.537 147.177 141.286 147 141.107 146.774C140.93 146.549 140.831 146.292 140.809 146H142.38C142.395 146.097 142.435 146.174 142.498 146.233C142.561 146.293 142.641 146.335 142.74 146.36C142.84 146.388 142.952 146.402 143.076 146.402C143.287 146.402 143.461 146.351 143.599 146.248C143.739 146.146 143.808 145.961 143.808 145.693V144.926H143.761C143.702 145.079 143.612 145.21 143.49 145.318C143.368 145.425 143.221 145.506 143.05 145.563C142.878 145.618 142.691 145.646 142.486 145.646C142.163 145.646 141.866 145.571 141.594 145.422C141.325 145.272 141.108 145.035 140.945 144.71C140.784 144.386 140.703 143.961 140.703 143.438C140.703 142.891 140.788 142.446 140.957 142.104C141.128 141.761 141.348 141.51 141.618 141.351C141.89 141.191 142.175 141.112 142.474 141.112C142.698 141.112 142.895 141.151 143.064 141.23C143.234 141.307 143.375 141.41 143.49 141.54C143.604 141.668 143.69 141.808 143.749 141.962H143.785V141.171H145.414V145.693C145.414 146.077 145.315 146.403 145.116 146.67C144.919 146.94 144.642 147.146 144.284 147.287C143.925 147.429 143.507 147.5 143.029 147.5ZM143.088 144.489C143.238 144.489 143.366 144.448 143.472 144.365C143.58 144.28 143.663 144.16 143.72 144.005C143.779 143.847 143.808 143.658 143.808 143.438C143.808 143.214 143.779 143.022 143.72 142.862C143.663 142.701 143.58 142.578 143.472 142.493C143.366 142.407 143.238 142.363 143.088 142.363C142.939 142.363 142.811 142.407 142.704 142.493C142.6 142.578 142.519 142.701 142.462 142.862C142.407 143.022 142.38 143.214 142.38 143.438C142.38 143.662 142.407 143.853 142.462 144.011C142.519 144.166 142.6 144.285 142.704 144.368C142.811 144.449 142.939 144.489 143.088 144.489ZM146.243 145.705V141.171H147.825V142.033H147.873C147.955 141.714 148.086 141.481 148.265 141.333C148.446 141.186 148.658 141.112 148.9 141.112C148.971 141.112 149.041 141.118 149.109 141.13C149.18 141.139 149.248 141.154 149.313 141.174V142.564C149.232 142.537 149.133 142.516 149.015 142.502C148.897 142.488 148.795 142.482 148.711 142.482C148.551 142.482 148.408 142.518 148.28 142.591C148.154 142.662 148.055 142.762 147.982 142.892C147.909 143.02 147.873 143.17 147.873 143.343V145.705H146.243ZM151.76 145.788C151.276 145.788 150.859 145.695 150.509 145.51C150.16 145.323 149.892 145.056 149.703 144.707C149.516 144.357 149.422 143.938 149.422 143.45C149.422 142.981 149.517 142.572 149.706 142.222C149.895 141.871 150.161 141.599 150.506 141.404C150.85 141.209 151.256 141.112 151.725 141.112C152.067 141.112 152.377 141.165 152.655 141.271C152.932 141.377 153.169 141.532 153.366 141.735C153.563 141.935 153.714 142.179 153.821 142.467C153.927 142.754 153.98 143.078 153.98 143.438V143.816H149.93V142.918H152.481C152.479 142.789 152.445 142.674 152.38 142.576C152.317 142.476 152.232 142.398 152.123 142.343C152.017 142.286 151.896 142.257 151.76 142.257C151.628 142.257 151.507 142.286 151.397 142.343C151.287 142.398 151.198 142.475 151.131 142.573C151.067 142.671 151.032 142.787 151.028 142.918V143.887C151.028 144.032 151.059 144.162 151.12 144.276C151.181 144.39 151.268 144.48 151.382 144.545C151.497 144.61 151.634 144.642 151.796 144.642C151.908 144.642 152.01 144.627 152.103 144.595C152.197 144.564 152.278 144.518 152.345 144.459C152.412 144.398 152.461 144.326 152.492 144.241H153.98C153.929 144.556 153.808 144.829 153.617 145.062C153.426 145.292 153.173 145.471 152.858 145.599C152.545 145.725 152.179 145.788 151.76 145.788ZM156.818 145.788C156.334 145.788 155.916 145.695 155.566 145.51C155.218 145.323 154.949 145.056 154.76 144.707C154.573 144.357 154.48 143.938 154.48 143.45C154.48 142.981 154.574 142.572 154.763 142.222C154.952 141.871 155.219 141.599 155.563 141.404C155.908 141.209 156.314 141.112 156.782 141.112C157.125 141.112 157.435 141.165 157.712 141.271C157.99 141.377 158.227 141.532 158.424 141.735C158.62 141.935 158.772 142.179 158.878 142.467C158.985 142.754 159.038 143.078 159.038 143.438V143.816H154.988V142.918H157.538C157.536 142.789 157.503 142.674 157.438 142.576C157.375 142.476 157.289 142.398 157.181 142.343C157.075 142.286 156.954 142.257 156.818 142.257C156.686 142.257 156.565 142.286 156.455 142.343C156.344 142.398 156.256 142.475 156.189 142.573C156.124 142.671 156.09 142.787 156.086 142.918V143.887C156.086 144.032 156.116 144.162 156.177 144.276C156.238 144.39 156.326 144.48 156.44 144.545C156.554 144.61 156.692 144.642 156.853 144.642C156.965 144.642 157.068 144.627 157.16 144.595C157.255 144.564 157.335 144.518 157.402 144.459C157.469 144.398 157.518 144.326 157.55 144.241H159.038C158.986 144.556 158.865 144.829 158.675 145.062C158.484 145.292 158.231 145.471 157.916 145.599C157.603 145.725 157.237 145.788 156.818 145.788ZM159.703 145.705V141.171H161.249V142.033H161.297C161.391 141.749 161.552 141.525 161.781 141.36C162.009 141.194 162.281 141.112 162.596 141.112C162.914 141.112 163.189 141.196 163.419 141.366C163.649 141.533 163.788 141.755 163.835 142.033H163.883C163.959 141.755 164.123 141.533 164.373 141.366C164.623 141.196 164.916 141.112 165.252 141.112C165.687 141.112 166.039 141.252 166.309 141.531C166.581 141.81 166.716 142.182 166.716 142.647V145.705H165.087V143.06C165.087 142.861 165.037 142.706 164.936 142.594C164.836 142.48 164.701 142.422 164.532 142.422C164.365 142.422 164.232 142.48 164.133 142.594C164.037 142.706 163.989 142.861 163.989 143.06V145.705H162.43V143.06C162.43 142.861 162.38 142.706 162.28 142.594C162.179 142.48 162.044 142.422 161.875 142.422C161.763 142.422 161.667 142.448 161.586 142.499C161.505 142.55 161.442 142.624 161.397 142.721C161.354 142.815 161.332 142.928 161.332 143.06V145.705H159.703ZM169.693 145.788C169.209 145.788 168.791 145.695 168.441 145.51C168.093 145.323 167.824 145.056 167.635 144.707C167.448 144.357 167.355 143.938 167.355 143.45C167.355 142.981 167.449 142.572 167.638 142.222C167.827 141.871 168.094 141.599 168.438 141.404C168.783 141.209 169.189 141.112 169.657 141.112C170 141.112 170.31 141.165 170.587 141.271C170.865 141.377 171.102 141.532 171.299 141.735C171.495 141.935 171.647 142.179 171.753 142.467C171.86 142.754 171.913 143.078 171.913 143.438V143.816H167.863V142.918H170.413C170.411 142.789 170.378 142.674 170.313 142.576C170.25 142.476 170.164 142.398 170.056 142.343C169.95 142.286 169.829 142.257 169.693 142.257C169.561 142.257 169.44 142.286 169.33 142.343C169.22 142.398 169.131 142.475 169.064 142.573C168.999 142.671 168.965 142.787 168.961 142.918V143.887C168.961 144.032 168.991 144.162 169.052 144.276C169.113 144.39 169.201 144.48 169.315 144.545C169.429 144.61 169.567 144.642 169.728 144.642C169.84 144.642 169.943 144.627 170.035 144.595C170.13 144.564 170.21 144.518 170.277 144.459C170.344 144.398 170.393 144.326 170.425 144.241H171.913C171.862 144.556 171.741 144.829 171.55 145.062C171.359 145.292 171.106 145.471 170.791 145.599C170.478 145.725 170.112 145.788 169.693 145.788ZM174.207 143.155V145.705H172.578V141.171H174.124V142.033H174.172C174.27 141.745 174.443 141.52 174.691 141.357C174.941 141.193 175.232 141.112 175.565 141.112C175.886 141.112 176.164 141.186 176.4 141.333C176.639 141.479 176.823 141.68 176.952 141.935C177.084 142.191 177.149 142.483 177.147 142.812V145.705H175.518V143.155C175.52 142.93 175.463 142.754 175.347 142.626C175.232 142.498 175.073 142.434 174.868 142.434C174.735 142.434 174.617 142.464 174.517 142.523C174.419 142.58 174.343 142.663 174.29 142.771C174.237 142.877 174.209 143.005 174.207 143.155ZM180.656 141.171V142.352H177.668V141.171H180.656ZM178.247 140.085H179.876V144.247C179.876 144.31 179.887 144.363 179.909 144.406C179.931 144.448 179.964 144.479 180.009 144.501C180.055 144.52 180.113 144.53 180.183 144.53C180.233 144.53 180.29 144.524 180.355 144.512C180.422 144.501 180.471 144.491 180.502 144.483L180.738 145.628C180.666 145.65 180.561 145.677 180.425 145.708C180.292 145.74 180.132 145.76 179.947 145.77C179.573 145.79 179.259 145.751 179.006 145.655C178.752 145.556 178.561 145.402 178.433 145.191C178.305 144.981 178.243 144.717 178.247 144.4V140.085Z" fill="#00124D"/>
<g clip-path="url(#clip1_268_7538)">
<path fill-rule="evenodd" clip-rule="evenodd" d="M140.184 159.786C140.21 159.834 140.178 159.89 140.124 159.903L135.397 161.049C135.307 161.071 135.298 161.196 135.385 161.23L138.067 162.278C138.189 162.326 138.173 162.503 138.045 162.528L134.285 163.26C134.227 163.271 134.172 163.226 134.172 163.167V160.05C134.172 159.736 134.427 159.48 134.742 159.48H139.679C139.899 159.48 140.089 159.604 140.184 159.786ZM134.247 165.269C134.221 165.223 134.246 165.169 134.295 165.15L140.121 162.98C140.183 162.957 140.249 163.003 140.249 163.069V164.988C140.249 165.302 139.994 165.557 139.679 165.557H134.742C134.53 165.557 134.345 165.441 134.247 165.269ZM140.249 161.985C140.249 162.047 140.19 162.092 140.13 162.076L137.477 161.365C137.386 161.341 137.382 161.214 137.471 161.184L140.124 160.279C140.185 160.258 140.249 160.304 140.249 160.369V161.985Z" fill="#0FBFC4"/>
</g>
<path d="M142.611 164.019V163.464L144.817 160.369H142.607V159.599H145.991V160.154L143.783 163.248H145.995V164.019H142.611ZM148.205 164.083C147.864 164.083 147.571 164.014 147.325 163.876C147.08 163.737 146.892 163.539 146.76 163.285C146.627 163.029 146.561 162.726 146.561 162.376C146.561 162.035 146.627 161.736 146.76 161.479C146.892 161.221 147.078 161.02 147.318 160.877C147.56 160.733 147.844 160.661 148.169 160.661C148.387 160.661 148.591 160.696 148.779 160.767C148.969 160.836 149.135 160.94 149.276 161.079C149.418 161.219 149.529 161.394 149.608 161.606C149.687 161.816 149.727 162.062 149.727 162.344V162.596H146.928V162.027H148.861C148.861 161.894 148.833 161.777 148.775 161.675C148.718 161.573 148.638 161.493 148.536 161.435C148.435 161.377 148.318 161.347 148.184 161.347C148.044 161.347 147.921 161.379 147.813 161.444C147.706 161.507 147.623 161.593 147.562 161.701C147.502 161.807 147.471 161.926 147.47 162.057V162.599C147.47 162.763 147.5 162.904 147.56 163.024C147.622 163.143 147.709 163.235 147.821 163.3C147.933 163.365 148.067 163.397 148.22 163.397C148.323 163.397 148.416 163.383 148.501 163.354C148.586 163.325 148.659 163.282 148.719 163.224C148.779 163.167 148.825 163.096 148.857 163.013L149.707 163.069C149.664 163.273 149.576 163.452 149.442 163.604C149.31 163.755 149.138 163.873 148.928 163.958C148.72 164.042 148.479 164.083 148.205 164.083ZM151.837 164.083C151.496 164.083 151.203 164.014 150.957 163.876C150.712 163.737 150.524 163.539 150.391 163.285C150.259 163.029 150.193 162.726 150.193 162.376C150.193 162.035 150.259 161.736 150.391 161.479C150.524 161.221 150.71 161.02 150.95 160.877C151.192 160.733 151.475 160.661 151.801 160.661C152.019 160.661 152.223 160.696 152.411 160.767C152.601 160.836 152.767 160.94 152.908 161.079C153.05 161.219 153.161 161.394 153.24 161.606C153.319 161.816 153.359 162.062 153.359 162.344V162.596H150.56V162.027H152.493C152.493 161.894 152.464 161.777 152.407 161.675C152.349 161.573 152.27 161.493 152.167 161.435C152.067 161.377 151.949 161.347 151.816 161.347C151.676 161.347 151.552 161.379 151.444 161.444C151.338 161.507 151.255 161.593 151.194 161.701C151.134 161.807 151.103 161.926 151.101 162.057V162.599C151.101 162.763 151.132 162.904 151.192 163.024C151.254 163.143 151.341 163.235 151.453 163.3C151.565 163.365 151.698 163.397 151.852 163.397C151.954 163.397 152.048 163.383 152.133 163.354C152.218 163.325 152.29 163.282 152.351 163.224C152.411 163.167 152.457 163.096 152.489 163.013L153.339 163.069C153.296 163.273 153.208 163.452 153.074 163.604C152.941 163.755 152.77 163.873 152.56 163.958C152.352 164.042 152.111 164.083 151.837 164.083ZM154.662 164.019L153.397 159.599H154.418L155.15 162.67H155.186L155.993 159.599H156.867L157.672 162.676H157.711L158.443 159.599H159.463L158.199 164.019H157.288L156.447 161.129H156.412L155.573 164.019H154.662ZM161.088 164.083C160.753 164.083 160.463 164.012 160.218 163.87C159.975 163.726 159.787 163.526 159.655 163.27C159.523 163.012 159.456 162.714 159.456 162.374C159.456 162.032 159.523 161.733 159.655 161.476C159.787 161.219 159.975 161.019 160.218 160.877C160.463 160.733 160.753 160.661 161.088 160.661C161.423 160.661 161.712 160.733 161.955 160.877C162.2 161.019 162.388 161.219 162.521 161.476C162.653 161.733 162.719 162.032 162.719 162.374C162.719 162.714 162.653 163.012 162.521 163.27C162.388 163.526 162.2 163.726 161.955 163.87C161.712 164.012 161.423 164.083 161.088 164.083ZM161.092 163.371C161.245 163.371 161.372 163.328 161.474 163.242C161.576 163.154 161.653 163.035 161.705 162.883C161.758 162.732 161.785 162.56 161.785 162.368C161.785 162.175 161.758 162.003 161.705 161.852C161.653 161.701 161.576 161.582 161.474 161.494C161.372 161.406 161.245 161.362 161.092 161.362C160.938 161.362 160.809 161.406 160.704 161.494C160.6 161.582 160.522 161.701 160.468 161.852C160.417 162.003 160.391 162.175 160.391 162.368C160.391 162.56 160.417 162.732 160.468 162.883C160.522 163.035 160.6 163.154 160.704 163.242C160.809 163.328 160.938 163.371 161.092 163.371ZM163.317 164.019V160.704H164.208V161.282H164.243C164.303 161.077 164.405 160.921 164.547 160.816C164.689 160.71 164.853 160.656 165.039 160.656C165.085 160.656 165.135 160.659 165.188 160.665C165.241 160.671 165.288 160.679 165.328 160.689V161.505C165.285 161.492 165.225 161.48 165.149 161.47C165.073 161.46 165.003 161.455 164.94 161.455C164.805 161.455 164.684 161.484 164.577 161.543C164.472 161.601 164.389 161.681 164.327 161.785C164.266 161.889 164.236 162.008 164.236 162.143V164.019H163.317ZM166.636 163.065L166.639 161.962H166.772L167.834 160.704H168.889L167.463 162.37H167.245L166.636 163.065ZM165.803 164.019V159.599H166.723V164.019H165.803ZM167.875 164.019L166.9 162.575L167.513 161.925L168.952 164.019H167.875ZM171.123 160.704V161.394H169.077V160.704H171.123ZM169.545 164.019V160.464C169.545 160.224 169.592 160.025 169.686 159.867C169.781 159.708 169.91 159.59 170.074 159.511C170.238 159.431 170.424 159.392 170.633 159.392C170.774 159.392 170.903 159.403 171.019 159.424C171.137 159.446 171.225 159.465 171.283 159.483L171.119 160.173C171.083 160.162 171.038 160.151 170.985 160.141C170.933 160.131 170.88 160.126 170.825 160.126C170.69 160.126 170.596 160.157 170.542 160.221C170.489 160.282 170.463 160.369 170.463 160.482V164.019H169.545ZM172.604 159.599V164.019H171.684V159.599H172.604ZM174.838 164.083C174.503 164.083 174.213 164.012 173.968 163.87C173.725 163.726 173.537 163.526 173.405 163.27C173.273 163.012 173.206 162.714 173.206 162.374C173.206 162.032 173.273 161.733 173.405 161.476C173.537 161.219 173.725 161.019 173.968 160.877C174.213 160.733 174.503 160.661 174.838 160.661C175.173 160.661 175.462 160.733 175.705 160.877C175.95 161.019 176.138 161.219 176.271 161.476C176.403 161.733 176.469 162.032 176.469 162.374C176.469 162.714 176.403 163.012 176.271 163.27C176.138 163.526 175.95 163.726 175.705 163.87C175.462 164.012 175.173 164.083 174.838 164.083ZM174.842 163.371C174.995 163.371 175.122 163.328 175.224 163.242C175.326 163.154 175.403 163.035 175.455 162.883C175.508 162.732 175.535 162.56 175.535 162.368C175.535 162.175 175.508 162.003 175.455 161.852C175.403 161.701 175.326 161.582 175.224 161.494C175.122 161.406 174.995 161.362 174.842 161.362C174.688 161.362 174.559 161.406 174.454 161.494C174.35 161.582 174.272 161.701 174.218 161.852C174.167 162.003 174.141 162.175 174.141 162.368C174.141 162.56 174.167 162.732 174.218 162.883C174.272 163.035 174.35 163.154 174.454 163.242C174.559 163.328 174.688 163.371 174.842 163.371ZM177.638 164.019L176.736 160.704H177.666L178.179 162.931H178.21L178.745 160.704H179.658L180.201 162.918H180.229L180.734 160.704H181.662L180.762 164.019H179.789L179.219 161.934H179.178L178.609 164.019H177.638Z" fill="#2C3645"/>
<rect x="134.172" y="173.253" width="59.5749" height="13.8546" rx="2.77093" fill="#EBEDF1"/>
<rect x="134.172" y="193.343" width="104.602" height="13.8546" rx="2.77093" fill="#EBEDF1"/>
<rect x="134.172" y="213.432" width="56.1113" height="13.8546" rx="2.77093" fill="#EBEDF1"/>
<path fill-rule="evenodd" clip-rule="evenodd" d="M211.587 221.215C210.208 219.451 208.277 218.777 206.63 219.148C204.957 219.526 203.698 220.96 203.698 223.11C203.698 226.422 205.671 228.71 207.99 230.366C206.868 231.385 206.017 232.571 205.509 233.723C205.455 233.844 205.405 233.966 205.359 234.088H199.061C198.751 234.088 198.499 234.34 198.499 234.651C198.499 234.961 198.751 235.214 199.061 235.214H205.041C204.963 235.652 204.945 236.078 204.996 236.48C205.108 237.354 205.553 238.109 206.397 238.532C207.296 238.982 208.161 238.941 208.929 238.584C209.67 238.239 210.294 237.614 210.804 236.932C211.204 236.397 211.553 235.799 211.847 235.214H224.352C224.662 235.214 224.914 234.961 224.914 234.651C224.914 234.34 224.662 234.088 224.352 234.088H212.358C212.554 233.608 212.704 233.176 212.806 232.846C213.059 232.021 213.354 230.442 213.418 228.644C213.539 228.606 213.657 228.571 213.771 228.54C214.541 228.329 215.097 228.289 215.462 228.347C215.814 228.403 215.913 228.533 215.95 228.624C216.004 228.755 216.021 229.03 215.824 229.51C215.57 230.127 215.442 230.692 215.564 231.143C215.632 231.395 215.78 231.616 216.015 231.756C216.237 231.889 216.481 231.918 216.694 231.905C217.108 231.879 217.56 231.685 217.977 231.434C218.407 231.174 218.855 230.819 219.27 230.404C219.643 230.03 220.025 229.69 220.385 229.423C220.753 229.15 221.065 228.979 221.298 228.91C221.411 228.876 221.481 228.874 221.515 228.878C221.538 228.881 221.543 228.886 221.546 228.889C221.569 228.911 221.682 229.063 221.682 229.584C221.682 230.549 221.939 231.307 222.632 231.585C222.947 231.71 223.27 231.697 223.544 231.639C223.82 231.582 224.088 231.472 224.322 231.354C224.6 231.215 224.712 230.877 224.573 230.599C224.435 230.321 224.097 230.208 223.819 230.347C223.632 230.441 223.461 230.507 223.315 230.537C223.167 230.568 223.087 230.554 223.05 230.539C223.037 230.534 222.806 230.443 222.806 229.584C222.806 228.979 222.69 228.426 222.323 228.075C221.918 227.688 221.393 227.707 220.978 227.83C220.561 227.955 220.126 228.214 219.717 228.518C219.3 228.827 218.875 229.207 218.475 229.608C218.117 229.967 217.74 230.263 217.397 230.469C217.319 230.516 217.245 230.557 217.176 230.593C216.902 230.733 216.658 230.516 216.756 230.224C216.784 230.139 216.82 230.044 216.863 229.939C217.108 229.342 217.207 228.728 216.991 228.199C216.76 227.631 216.243 227.332 215.64 227.235C215.051 227.141 214.318 227.223 213.474 227.454C213.457 227.459 213.441 227.463 213.424 227.468C213.369 225.324 212.929 222.933 211.587 221.215ZM211.136 234.088C211.405 233.481 211.607 232.919 211.731 232.515C211.933 231.858 212.183 230.576 212.273 229.067C211.87 229.235 211.437 229.434 210.974 229.666C210.606 229.85 210.253 230.057 209.919 230.28C210.045 230.355 210.172 230.429 210.299 230.502C210.569 230.657 210.662 231 210.508 231.27C210.354 231.54 210.011 231.634 209.742 231.48C209.48 231.33 209.218 231.174 208.958 231.011C207.876 231.941 207.058 233.039 206.577 234.088H211.136ZM206.188 235.214C206.094 235.631 206.069 236.011 206.111 236.338C206.183 236.897 206.441 237.295 206.9 237.525C207.476 237.813 207.981 237.783 208.455 237.563C208.957 237.329 209.448 236.868 209.904 236.257C210.147 235.932 210.372 235.576 210.575 235.214H206.188ZM210.472 228.659C211.131 228.328 211.743 228.057 212.306 227.842C212.305 227.781 212.305 227.72 212.304 227.658C212.269 225.554 211.853 223.382 210.702 221.909C209.552 220.437 208.041 219.984 206.877 220.247C205.741 220.503 204.822 221.461 204.822 223.11C204.822 226.01 206.604 228.055 208.894 229.625C209.383 229.266 209.91 228.94 210.472 228.659Z" fill="#1C222B"/>
<rect x="126.206" y="113.739" width="120.814" height="134.021" rx="5.19549" stroke="#00124D" stroke-width="0.692732" shape-rendering="crispEdges"/>
</g>
<path d="M112.611 142.249C112.611 142.249 153.551 192.264 160.951 194.047C168.35 195.83 180.549 193.645 179.718 197.559C178.887 201.474 167.09 201.487 167.09 201.487C167.09 201.487 181.541 207.788 179.758 212.037C177.975 216.287 171.152 219.759 165.012 217.145C158.873 214.531 155.481 209.946 150.146 207.332C144.811 204.718 94.755 158.376 94.755 158.376L112.611 142.249Z" fill="white"/>
<path d="M169.463 218.726C167.841 218.729 166.235 218.4 164.744 217.761C161.705 216.342 158.873 214.515 156.326 212.332C154.334 210.635 152.163 209.161 149.851 207.935C144.489 205.254 96.3369 160.762 94.2859 158.858C94.2183 158.794 94.1644 158.717 94.1276 158.632C94.0907 158.547 94.0716 158.455 94.0714 158.362C94.0725 158.268 94.0933 158.175 94.1326 158.09C94.1718 158.004 94.2287 157.928 94.2993 157.866L112.155 141.78C112.224 141.721 112.303 141.677 112.389 141.65C112.475 141.622 112.565 141.612 112.654 141.62C112.744 141.627 112.831 141.652 112.911 141.693C112.991 141.735 113.062 141.791 113.12 141.86C124.475 155.721 155.213 192.009 161.111 193.417C164.271 194.012 167.481 194.299 170.696 194.275C175.214 194.396 178.739 194.489 179.973 196.004C180.158 196.247 180.287 196.529 180.349 196.828C180.412 197.127 180.407 197.437 180.335 197.734C179.624 200.884 173.565 201.755 169.838 202.077C174.262 204.249 181.903 208.632 180.335 212.332C179.102 214.865 176.935 216.821 174.289 217.788C172.756 218.41 171.117 218.728 169.463 218.726ZM95.7337 158.402C101.096 163.416 145.561 204.356 150.441 206.755C152.83 208.027 155.077 209.551 157.143 211.3C159.594 213.421 162.328 215.189 165.267 216.555C166.615 217.119 168.062 217.41 169.523 217.41C170.985 217.41 172.431 217.119 173.779 216.555C176.114 215.727 178.037 214.026 179.142 211.809C180.201 209.289 172.573 204.637 166.822 202.131C166.681 202.069 166.565 201.961 166.494 201.824C166.424 201.687 166.402 201.531 166.433 201.38C166.462 201.227 166.543 201.09 166.664 200.992C166.784 200.893 166.935 200.841 167.09 200.844C171.42 200.844 178.512 199.919 179.061 197.452C179.097 197.349 179.107 197.24 179.09 197.132C179.074 197.025 179.032 196.923 178.967 196.835C178.163 195.803 174.369 195.709 170.71 195.616C167.395 195.637 164.086 195.336 160.83 194.717C153.631 193.001 117.276 148.978 112.571 143.254L95.7337 158.402Z" fill="#1C222B"/>
<path d="M98.8169 116.952L115.627 139.017L91.6986 161.082L77.3281 144.527" fill="#0051D9"/>
<path d="M91.6985 161.766C91.5182 161.755 91.3495 161.673 91.2294 161.538L76.8588 144.983C76.736 144.858 76.6672 144.689 76.6672 144.514C76.6672 144.338 76.736 144.17 76.8588 144.044C76.9211 143.982 76.9953 143.932 77.077 143.898C77.1586 143.864 77.2462 143.846 77.3347 143.846C77.4232 143.846 77.5108 143.864 77.5925 143.898C77.6742 143.932 77.7483 143.982 77.8106 144.044L91.7253 160.131L114.729 138.977L98.2805 117.395C98.1721 117.252 98.1246 117.073 98.1485 116.896C98.1724 116.719 98.2657 116.558 98.4079 116.45C98.5501 116.341 98.7296 116.294 98.9068 116.318C99.084 116.341 99.2445 116.435 99.353 116.577L116.203 138.602C116.302 138.738 116.349 138.905 116.334 139.073C116.319 139.24 116.244 139.397 116.123 139.513L92.1945 161.579C92.0582 161.701 91.8814 161.767 91.6985 161.766Z" fill="#1C222B"/>
<path d="M346.306 147.021C350.274 147.278 354.147 148.346 357.687 150.157C363.854 153.107 369.752 157.959 371.093 164.662C372.205 170.024 370.141 175.681 367.527 180.574C364.913 185.467 361.695 190.132 360.234 195.481C358.773 200.83 359.457 207.264 363.693 210.843C358.103 208.363 352.405 205.803 347.901 201.674C345.22 199.248 342.995 196.111 342.74 192.545C342.75 189.59 343.467 186.681 344.831 184.06C346.547 180.038 348.384 175.949 348.652 171.593C348.92 167.236 347.311 162.45 343.531 160.252C340.233 158.321 329.442 158.509 331.131 152.45C332.499 147.637 342.445 146.806 346.306 147.021Z" fill="white"/>
<path d="M363.746 211.447C363.658 211.467 363.566 211.467 363.478 211.447C357.902 208.967 352.137 206.406 347.499 202.157C344.215 199.141 342.365 195.83 342.137 192.572C342.138 189.511 342.873 186.496 344.282 183.778L344.51 183.255C346.118 179.489 347.794 175.588 348.049 171.539C348.344 166.901 346.467 162.692 343.263 160.815C341.916 160.196 340.498 159.746 339.04 159.474C335.85 158.724 332.23 157.866 330.876 155.587C330.589 155.078 330.411 154.515 330.353 153.933C330.296 153.351 330.36 152.764 330.541 152.209C332.016 146.927 342.445 146.136 346.333 146.297C350.395 146.55 354.362 147.64 357.982 149.501C362.433 151.632 370.141 156.405 371.816 164.475C372.781 169.18 371.629 174.381 368.183 180.829C367.513 182.103 366.843 183.349 366.079 184.609C363.917 188.046 362.193 191.739 360.945 195.602C359.711 200.066 359.832 206.581 364.189 210.348C364.315 210.45 364.399 210.596 364.424 210.757C364.448 210.918 364.412 211.083 364.323 211.219C364.254 211.302 364.165 211.367 364.064 211.407C363.963 211.447 363.854 211.46 363.746 211.447ZM345.435 147.597C340.944 147.597 332.927 148.723 331.868 152.557C331.733 152.937 331.68 153.342 331.712 153.744C331.745 154.146 331.862 154.536 332.056 154.89C333.115 156.686 336.44 157.464 339.375 158.161C340.962 158.434 342.504 158.921 343.96 159.608C347.606 161.726 349.751 166.432 349.416 171.566C349.148 175.856 347.432 179.864 345.756 183.725L345.528 184.261C344.309 187.13 343.303 189.73 343.504 192.425C343.772 196.098 346.333 199.127 348.451 201.111C352.275 204.361 356.586 206.989 361.226 208.9C358.545 204.784 358.545 199.235 359.671 195.24C360.945 191.262 362.715 187.461 364.939 183.926C365.65 182.679 366.36 181.446 367.031 180.186C370.315 174.033 371.428 169.113 370.529 164.729C368.974 157.222 361.655 152.664 357.432 150.694C353.98 148.915 350.196 147.87 346.319 147.624L345.435 147.597Z" fill="#1C222B"/>
<path d="M341.48 148.362C342.784 150.624 343.285 153.26 342.901 155.842C342.788 157.586 342.158 159.257 341.091 160.641C340.388 161.429 339.51 162.042 338.528 162.43C337.546 162.819 336.486 162.973 335.434 162.88C334.486 162.866 333.577 162.498 332.887 161.848C332.388 161.23 332.064 160.489 331.949 159.703C330.796 154.207 334.71 137.718 341.48 148.362Z" fill="#1C222B"/>
<path d="M335.971 163.522H335.381C334.263 163.496 333.197 163.051 332.391 162.276C331.81 161.567 331.431 160.715 331.292 159.809C330.448 155.788 332.163 146.002 336.064 144.407C338.022 143.616 340.086 144.809 342.043 147.972C343.43 150.366 343.969 153.157 343.571 155.895C343.444 157.767 342.762 159.559 341.614 161.043C340.904 161.833 340.033 162.463 339.06 162.891C338.087 163.319 337.033 163.534 335.971 163.522ZM337.204 145.506C336.987 145.506 336.772 145.552 336.574 145.64C333.651 146.833 331.788 155.694 332.552 159.528C332.647 160.191 332.91 160.818 333.316 161.351C333.901 161.869 334.653 162.159 335.434 162.169C336.38 162.253 337.333 162.117 338.217 161.77C339.101 161.424 339.892 160.876 340.528 160.171C341.511 158.89 342.09 157.345 342.191 155.734C342.549 153.3 342.077 150.816 340.85 148.683C339.952 147.168 338.585 145.506 337.204 145.506Z" fill="#1C222B"/>
<path d="M306.104 183.913C307.712 185.776 310.125 186.836 314.147 186.42C317.475 185.965 320.637 184.684 323.343 182.693C328.632 178.952 332.773 173.81 335.302 167.845C337.831 161.88 338.648 155.328 337.66 148.925C335.461 135.976 322.539 123.107 308.637 128.08C306.294 128.937 304.166 130.297 302.404 132.064C300.641 133.831 299.287 135.962 298.436 138.308C297.502 138 296.498 137.969 295.546 138.219C294.595 138.468 293.736 138.988 293.074 139.716C289.481 143.308 289.628 147.129 291.559 151.432C294.736 158.497 298.637 165.226 301.492 172.438C303.114 176.647 303.758 181.165 306.104 183.913Z" fill="white"/>
<path d="M312.444 187.236C311.161 187.317 309.877 187.103 308.689 186.61C307.502 186.118 306.443 185.36 305.594 184.394C303.983 182.146 302.839 179.598 302.229 176.901C301.8 175.56 301.358 174.113 300.889 172.732C299.213 168.509 297.135 164.38 295.124 160.372C293.784 157.57 292.269 154.675 290.969 151.766C288.676 146.658 289.199 142.704 292.618 139.286C293.309 138.554 294.174 138.008 295.132 137.699C296.091 137.389 297.111 137.327 298.1 137.516C299.03 135.212 300.434 133.13 302.222 131.404C304.01 129.679 306.141 128.349 308.476 127.502C311.189 126.529 314.087 126.179 316.953 126.481C319.82 126.783 322.581 127.728 325.032 129.245C328.518 131.392 331.514 134.249 333.824 137.63C336.133 141.012 337.705 144.841 338.437 148.87C339.39 155.396 338.519 162.057 335.921 168.118C333.324 174.18 329.1 179.404 323.718 183.215C320.918 185.265 317.652 186.587 314.214 187.062C313.627 187.152 313.037 187.21 312.444 187.236ZM306.559 183.47C308.195 185.386 310.581 186.151 314.026 185.748C317.245 185.306 320.301 184.061 322.914 182.129C328.082 178.45 332.129 173.41 334.606 167.57C337.084 161.73 337.895 155.318 336.949 149.045C336.259 145.21 334.77 141.563 332.578 138.341C330.386 135.119 327.541 132.395 324.227 130.344C321.944 128.934 319.374 128.055 316.705 127.772C314.037 127.489 311.339 127.809 308.811 128.709C306.559 129.527 304.513 130.829 302.82 132.525C301.127 134.221 299.827 136.268 299.012 138.521C298.981 138.607 298.932 138.686 298.87 138.752C298.808 138.819 298.733 138.873 298.65 138.91C298.566 138.95 298.475 138.97 298.382 138.97C298.289 138.97 298.198 138.95 298.114 138.91C297.288 138.66 296.407 138.654 295.577 138.892C294.748 139.13 294.004 139.601 293.435 140.251C290.392 143.294 289.977 146.578 292.095 151.23C293.435 154.112 294.776 156.994 296.237 159.782C298.248 163.804 300.339 167.986 302.042 172.249C302.605 173.67 303.047 175.118 303.476 176.526C304.057 179.039 305.113 181.419 306.586 183.537L306.559 183.47Z" fill="#1C222B"/>
<path d="M295.728 154.019C295.728 154.019 287.309 161.204 287.993 163.402C288.677 165.601 293.06 165.534 293.06 165.534" fill="white"/>
<path d="M292.98 166.19C292.189 166.19 288.127 166.069 287.349 163.589C286.572 161.109 293.234 155.265 295.285 153.509C295.423 153.395 295.6 153.34 295.778 153.355C295.955 153.37 296.12 153.454 296.237 153.589C296.295 153.655 296.338 153.733 296.365 153.816C296.392 153.9 296.403 153.988 296.395 154.075C296.388 154.163 296.363 154.248 296.322 154.325C296.281 154.403 296.225 154.472 296.157 154.527C292.256 157.865 288.301 162.128 288.636 163.187C289.079 164.528 292.028 164.876 293.047 164.849C293.222 164.849 293.391 164.918 293.516 165.041C293.641 165.164 293.713 165.331 293.717 165.506C293.717 165.683 293.649 165.853 293.526 165.98C293.404 166.108 293.237 166.183 293.06 166.19H292.98Z" fill="#1C222B"/>
<path d="M291.156 202.398C300.621 203.122 316.774 193.59 316.895 193.228C318.614 187.083 320.023 180.855 321.117 174.568C321.117 174.568 314.71 172.785 313.074 164.085C311.439 155.385 303.449 154.071 300.285 142.637C295.687 144.607 294.923 151.35 293.744 155.546C292.09 161.462 290.58 167.405 289.213 173.375C288.328 177.155 297.98 180.078 299.937 179.394C297.899 185.051 297.899 185.051 291.156 202.398Z" fill="white"/>
<path d="M292.149 203.108C291.8 203.108 291.452 203.108 291.103 203.108C291 203.099 290.901 203.067 290.812 203.013C290.724 202.96 290.649 202.887 290.594 202.799C290.544 202.706 290.519 202.603 290.519 202.498C290.519 202.393 290.544 202.289 290.594 202.196C296.908 185.922 297.296 184.917 299.106 180.211C295.783 179.945 292.612 178.705 289.99 176.646C289.474 176.267 289.075 175.75 288.838 175.155C288.601 174.56 288.536 173.911 288.65 173.281C289.99 167.329 291.545 161.323 293.194 155.438C293.382 154.741 293.57 153.964 293.771 153.146C294.749 149.004 295.983 143.856 300.125 142.087C300.211 142.047 300.305 142.026 300.4 142.026C300.494 142.026 300.588 142.047 300.674 142.087C300.761 142.13 300.837 142.19 300.9 142.264C300.962 142.338 301.008 142.423 301.036 142.516C302.618 148.266 305.42 151.309 308.114 154.259C310.809 157.208 313.021 159.621 313.825 164.004C315.313 172.155 321.091 173.897 321.332 173.964C321.493 174.009 321.632 174.112 321.721 174.253C321.811 174.394 321.844 174.564 321.815 174.729C320.723 181.054 319.305 187.318 317.565 193.496C317.203 194.434 301.573 203.108 292.149 203.108ZM292.149 201.767C300.808 201.767 314.696 194.072 316.278 192.853C317.922 186.978 319.265 181.022 320.3 175.01C318.611 174.326 313.785 171.753 312.404 164.205C311.68 160.184 309.522 157.851 307.042 155.13C303.76 151.932 301.304 147.985 299.883 143.628C296.894 145.425 295.862 149.835 294.991 153.414C294.789 154.245 294.602 155.036 294.401 155.76C292.765 161.632 291.237 167.61 289.87 173.549C289.826 173.948 289.889 174.351 290.055 174.716C290.22 175.082 290.48 175.396 290.808 175.627C293.275 177.919 298.677 179.139 299.83 178.777C299.95 178.743 300.077 178.742 300.198 178.775C300.318 178.808 300.428 178.874 300.514 178.965C300.599 179.057 300.657 179.171 300.68 179.294C300.704 179.417 300.693 179.545 300.648 179.662C298.516 185.198 298.516 185.292 292.122 201.767H292.149Z" fill="#1C222B"/>
<path d="M290.66 169.045C290.66 169.045 294.427 173.174 298.208 169.139L290.66 169.045Z" fill="white"/>
<path d="M294.628 171.579C292.948 171.458 291.371 170.718 290.205 169.501C290.145 169.436 290.098 169.36 290.068 169.277C290.038 169.194 290.024 169.106 290.028 169.017C290.031 168.929 290.053 168.842 290.09 168.762C290.127 168.682 290.18 168.61 290.245 168.55C290.31 168.49 290.386 168.443 290.469 168.413C290.552 168.383 290.641 168.369 290.729 168.373C290.818 168.376 290.904 168.398 290.984 168.435C291.065 168.472 291.137 168.525 291.197 168.59C292.108 169.538 293.332 170.123 294.642 170.239C295.239 170.198 295.823 170.04 296.359 169.773C296.895 169.506 297.373 169.136 297.765 168.684C297.826 168.619 297.899 168.568 297.98 168.532C298.06 168.496 298.147 168.476 298.236 168.473C298.324 168.471 298.412 168.486 298.495 168.517C298.577 168.549 298.653 168.596 298.717 168.657C298.781 168.718 298.833 168.79 298.869 168.871C298.905 168.952 298.925 169.039 298.928 169.127C298.93 169.216 298.915 169.304 298.884 169.386C298.852 169.469 298.805 169.544 298.744 169.609C298.235 170.207 297.605 170.692 296.896 171.032C296.187 171.371 295.414 171.558 294.628 171.579Z" fill="#1C222B"/>
<path d="M300.058 179.422C300.058 179.422 305.085 180.615 308.409 177.854C308.409 177.854 305.5 186.781 297.068 187.17L300.058 179.422Z" fill="#1C222B"/>
<path d="M297.068 187.84C296.962 187.841 296.857 187.817 296.762 187.771C296.666 187.724 296.583 187.656 296.519 187.572C296.456 187.478 296.416 187.371 296.402 187.259C296.388 187.148 296.401 187.034 296.438 186.928L299.441 179.18C299.501 179.03 299.612 178.906 299.754 178.83C299.896 178.754 300.061 178.731 300.218 178.764C300.218 178.764 304.964 179.85 307.98 177.33C308.097 177.245 308.238 177.199 308.382 177.199C308.527 177.199 308.668 177.245 308.784 177.33C308.906 177.411 308.999 177.529 309.047 177.667C309.095 177.805 309.097 177.955 309.053 178.094C309.053 178.188 305.889 187.478 297.095 187.88L297.068 187.84ZM300.487 180.185L298.087 186.405C302.926 185.708 305.674 181.901 306.921 179.528C304.876 180.329 302.651 180.556 300.487 180.185Z" fill="#1C222B"/>
<path d="M299.397 151.945C299.649 150.765 299.477 149.728 299.014 149.629C298.55 149.53 297.971 150.407 297.719 151.588C297.468 152.768 297.639 153.805 298.103 153.903C298.566 154.002 299.146 153.125 299.397 151.945Z" fill="#1C222B"/>
<path d="M306.868 160.494C307.453 159.061 308.428 157.821 309.683 156.914C310.541 156.092 311.517 155.401 312.578 154.863C313.118 154.606 313.709 154.473 314.307 154.473C314.906 154.473 315.497 154.606 316.037 154.863C316.492 155.128 316.886 155.486 317.193 155.913C317.5 156.34 317.714 156.828 317.82 157.343C318.026 158.383 317.989 159.457 317.712 160.48C317.175 162.724 316.056 164.787 314.467 166.46C312.879 168.133 310.877 169.358 308.664 170.011L309.093 169.757" fill="white"/>
<path d="M308.664 170.627C308.533 170.629 308.404 170.592 308.294 170.521C308.184 170.449 308.098 170.346 308.047 170.225C307.985 170.077 307.978 169.912 308.027 169.76C308.077 169.607 308.179 169.478 308.315 169.394L308.744 169.126C308.822 169.079 308.909 169.049 308.999 169.038C309.089 169.026 309.18 169.033 309.267 169.059C311.184 168.343 312.896 167.168 314.254 165.638C315.612 164.107 316.574 162.267 317.056 160.278C317.307 159.356 317.344 158.388 317.163 157.45C317.081 157.025 316.91 156.622 316.66 156.268C316.411 155.914 316.089 155.618 315.715 155.399C315.26 155.201 314.768 155.105 314.272 155.119C313.776 155.133 313.289 155.256 312.846 155.479C311.862 155.991 310.958 156.646 310.165 157.423C308.991 158.244 308.064 159.37 307.484 160.68C307.429 160.85 307.31 160.99 307.152 161.073C306.994 161.156 306.81 161.174 306.64 161.123C306.472 161.07 306.331 160.954 306.248 160.798C306.165 160.642 306.147 160.461 306.197 160.292C306.826 158.735 307.88 157.388 309.24 156.404C310.144 155.524 311.18 154.791 312.31 154.232C312.937 153.93 313.625 153.772 314.321 153.772C315.017 153.772 315.705 153.93 316.332 154.232C316.874 154.543 317.345 154.966 317.712 155.472C318.08 155.978 318.336 156.556 318.463 157.168C318.686 158.306 318.649 159.479 318.356 160.6C317.781 162.959 316.598 165.127 314.926 166.888C313.254 168.65 311.151 169.943 308.825 170.641L308.664 170.627Z" fill="#1C222B"/>
<path d="M289.575 195.36C289.575 195.36 318.262 183.778 327.23 193.886C336.198 203.993 341.172 227.399 337.378 278.098L270.271 275.712C270.271 275.712 275.633 201.594 289.575 195.36Z" fill="#F77234"/>
<path d="M249.828 210.696C246.731 208.015 220.953 173.871 220.618 168.281C220.283 162.691 217.937 152.945 216.596 153.629C215.256 154.313 214.585 163.201 214.585 163.201C214.585 163.201 208.218 151.752 205.537 151.846C202.856 151.94 196.475 159.353 196.81 163.201C197.145 167.048 226.663 237.466 240.404 239.477C254.144 241.488 289.896 225.388 293.154 224.731C296.411 224.074 308.342 197.92 293.154 194.073C293.154 194.06 252.938 213.337 249.828 210.696Z" fill="white"/>
<path d="M243.018 240.308C242.121 240.313 241.225 240.255 240.337 240.134C225.98 238.042 196.542 167.53 196.099 163.254C195.885 160.72 198.164 157.155 200.121 154.862C200.872 154.018 203.472 151.243 205.483 151.176C207.883 151.176 211.877 157.342 214.036 161.015C214.384 157.664 215.041 153.616 216.234 152.972C216.382 152.89 216.548 152.847 216.717 152.847C216.886 152.847 217.052 152.89 217.199 152.972C219.063 154.045 220.953 163.589 221.221 168.147C221.529 173.281 246.503 206.929 250.19 210.079C252.107 211.419 273.354 202.679 292.805 193.362C292.875 193.332 292.95 193.317 293.026 193.317C293.103 193.317 293.178 193.332 293.248 193.362C298.61 194.703 301.438 198.966 301.291 205.575C301.09 213.94 295.808 224.798 293.248 225.334C292.577 225.468 290.111 226.433 286.974 227.667C276.277 231.903 254.788 240.308 243.018 240.308ZM205.577 152.516C204.826 152.516 203.191 153.562 201.247 155.747C198.861 158.428 197.359 161.417 197.507 163.133C197.896 167.638 227.83 236.956 240.525 238.806C251.048 240.348 275.03 230.964 286.558 226.46C289.99 225.12 292.269 224.221 293.047 224.061C294.481 223.766 299.843 214.208 300.044 205.588C300.178 199.69 297.899 196.043 293.248 194.77C291.706 195.507 282.43 199.904 272.939 203.979C251.664 213.122 250.083 211.781 249.412 211.205C246.503 208.711 220.336 174.287 219.921 168.308C219.612 163.16 217.776 155.747 216.73 154.38C216.154 155.385 215.497 159.581 215.229 163.227C215.221 163.373 215.166 163.513 215.071 163.625C214.977 163.736 214.848 163.814 214.705 163.846C214.563 163.878 214.413 163.862 214.28 163.801C214.147 163.74 214.038 163.638 213.969 163.509C211.046 158.214 206.998 152.516 205.577 152.516Z" fill="#1C222B"/>
<path d="M270.271 275.766L268.716 286.155H337.378V278.098L270.271 275.766Z" fill="#1C222B"/>
<path d="M337.392 286.824H268.716C268.62 286.825 268.525 286.806 268.437 286.766C268.35 286.727 268.272 286.668 268.209 286.595C268.147 286.523 268.101 286.437 268.075 286.344C268.049 286.252 268.044 286.155 268.059 286.06L269.601 275.657C269.618 275.492 269.699 275.341 269.827 275.235C269.955 275.13 270.119 275.079 270.285 275.094L337.392 277.427C337.565 277.434 337.728 277.508 337.848 277.632C337.968 277.757 338.035 277.924 338.035 278.097V286.14C338.039 286.316 337.973 286.486 337.853 286.614C337.733 286.742 337.567 286.817 337.392 286.824ZM269.507 285.484H336.721V278.781L270.848 276.489L269.507 285.484Z" fill="#1C222B"/>
<path d="M58.1183 61.0515H24.1224C23.9457 61.048 23.7772 60.9763 23.6523 60.8513C23.5273 60.7264 23.4556 60.5579 23.4521 60.3812C23.4521 60.2034 23.5228 60.033 23.6485 59.9073C23.7742 59.7816 23.9446 59.7109 24.1224 59.7109H58.1183C58.2961 59.7109 58.4666 59.7816 58.5923 59.9073C58.718 60.033 58.7886 60.2034 58.7886 60.3812C58.7886 60.559 58.718 60.7295 58.5923 60.8552C58.4666 60.9809 58.2961 61.0515 58.1183 61.0515Z" fill="#E3E6EB"/>
<path d="M41.1338 80.154H24.1224C23.9446 80.154 23.7742 80.0834 23.6485 79.9577C23.5228 79.832 23.4521 79.6615 23.4521 79.4837C23.4556 79.3071 23.5273 79.1386 23.6523 79.0136C23.7772 78.8886 23.9457 78.8169 24.1224 78.8135H41.1338C41.3115 78.8135 41.482 78.8841 41.6077 79.0098C41.7334 79.1355 41.804 79.306 41.804 79.4837C41.804 79.6615 41.7334 79.832 41.6077 79.9577C41.482 80.0834 41.3115 80.154 41.1338 80.154Z" fill="#E3E6EB"/>
<path d="M383.921 234.597H360.18C360.003 234.597 359.832 234.527 359.706 234.401C359.581 234.275 359.51 234.105 359.51 233.927C359.51 233.749 359.581 233.579 359.706 233.453C359.832 233.327 360.003 233.257 360.18 233.257H383.948C384.126 233.257 384.296 233.327 384.422 233.453C384.548 233.579 384.618 233.749 384.618 233.927C384.618 234.017 384.6 234.107 384.565 234.19C384.53 234.273 384.478 234.348 384.413 234.411C384.348 234.473 384.27 234.522 384.186 234.554C384.102 234.586 384.011 234.601 383.921 234.597Z" fill="#E3E6EB"/>
<path d="M375.114 248.713H360.18C360.003 248.713 359.832 248.642 359.706 248.516C359.581 248.391 359.51 248.22 359.51 248.042C359.51 247.865 359.581 247.694 359.706 247.568C359.832 247.443 360.003 247.372 360.18 247.372H375.141C375.317 247.376 375.486 247.447 375.611 247.572C375.736 247.697 375.808 247.866 375.811 248.042C375.811 248.133 375.793 248.222 375.758 248.305C375.722 248.388 375.67 248.463 375.605 248.526C375.54 248.589 375.463 248.637 375.379 248.669C375.294 248.702 375.204 248.716 375.114 248.713Z" fill="#E3E6EB"/>
<path d="M381.991 271.181H364.082C362.863 271.177 361.696 270.692 360.834 269.83C359.973 268.968 359.487 267.801 359.484 266.583V263.647C359.487 262.428 359.973 261.261 360.834 260.399C361.696 259.538 362.863 259.052 364.082 259.049H381.991C383.209 259.052 384.377 259.538 385.238 260.399C386.1 261.261 386.586 262.428 386.589 263.647V266.542C386.593 267.149 386.476 267.751 386.247 268.312C386.018 268.874 385.68 269.385 385.253 269.816C384.826 270.247 384.318 270.589 383.758 270.823C383.198 271.057 382.598 271.179 381.991 271.181ZM364.082 260.456C363.218 260.456 362.389 260.8 361.778 261.41C361.167 262.021 360.824 262.85 360.824 263.714V266.609C360.824 267.473 361.167 268.302 361.778 268.913C362.389 269.524 363.218 269.867 364.082 269.867H381.991C382.855 269.867 383.684 269.524 384.294 268.913C384.905 268.302 385.249 267.473 385.249 266.609V263.647C385.249 262.783 384.905 261.954 384.294 261.343C383.684 260.733 382.855 260.389 381.991 260.389L364.082 260.456Z" fill="#E3E6EB"/>
<path d="M32.6214 113.923C30.5667 113.923 28.558 113.313 26.8495 112.172C25.1411 111.03 23.8095 109.408 23.0231 107.509C22.2368 105.611 22.0311 103.522 22.4319 101.507C22.8328 99.4916 23.8223 97.6404 25.2752 96.1874C26.7282 94.7345 28.5793 93.745 30.5946 93.3442C32.6099 92.9433 34.6988 93.149 36.5972 93.9354C38.4956 94.7217 40.1181 96.0533 41.2597 97.7618C42.4012 99.4703 43.0106 101.479 43.0106 103.534C43.007 106.288 41.9113 108.928 39.9637 110.876C38.0162 112.824 35.3757 113.919 32.6214 113.923ZM32.6214 94.4851C30.8318 94.4851 29.0823 95.0158 27.5943 96.01C26.1063 97.0043 24.9465 98.4175 24.2616 100.071C23.5768 101.724 23.3976 103.544 23.7467 105.299C24.0958 107.054 24.9576 108.667 26.2231 109.932C27.4886 111.197 29.1009 112.059 30.8561 112.408C32.6114 112.758 34.4308 112.578 36.0842 111.893C37.7376 111.209 39.1508 110.049 40.1451 108.561C41.1393 107.073 41.67 105.323 41.67 103.534C41.6665 101.135 40.712 98.8354 39.0158 97.1393C37.3197 95.4431 35.0202 94.4886 32.6214 94.4851Z" fill="#E3E6EB"/>
<path d="M32.6214 106.965C32.5264 106.952 32.4347 106.921 32.3519 106.872C32.269 106.824 32.1966 106.76 32.1388 106.683L28.2379 101.321C28.186 101.25 28.1486 101.169 28.1279 101.083C28.1072 100.997 28.1036 100.908 28.1173 100.821C28.131 100.734 28.1617 100.65 28.2077 100.575C28.2537 100.5 28.314 100.434 28.3853 100.383C28.4566 100.331 28.5375 100.293 28.6232 100.273C28.709 100.252 28.7979 100.248 28.8851 100.262C28.9722 100.276 29.0558 100.306 29.1311 100.352C29.2063 100.398 29.2718 100.459 29.3237 100.53L32.7689 105.235L46.3887 91.83C46.4499 91.7675 46.5229 91.718 46.6034 91.6841C46.684 91.6502 46.7705 91.6328 46.8579 91.6328C46.9453 91.6328 47.0318 91.6502 47.1124 91.6841C47.1929 91.718 47.2659 91.7675 47.3271 91.83C47.3899 91.8923 47.4398 91.9664 47.4738 92.0481C47.5078 92.1298 47.5253 92.2174 47.5253 92.3059C47.5253 92.3943 47.5078 92.4819 47.4738 92.5636C47.4398 92.6453 47.3899 92.7194 47.3271 92.7817L33.0906 106.804C33.0274 106.861 32.9532 106.905 32.8725 106.932C32.7919 106.96 32.7065 106.971 32.6214 106.965Z" fill="#E3E6EB"/>
<path d="M301.071 303.254H299.211C299.158 302.949 299.06 302.679 298.918 302.443C298.775 302.205 298.598 302.002 298.386 301.837C298.174 301.671 297.932 301.547 297.66 301.464C297.392 301.378 297.102 301.335 296.79 301.335C296.237 301.335 295.746 301.474 295.319 301.752C294.891 302.027 294.556 302.432 294.314 302.965C294.072 303.496 293.951 304.143 293.951 304.909C293.951 305.688 294.072 306.344 294.314 306.878C294.56 307.408 294.894 307.809 295.319 308.081C295.746 308.349 296.235 308.484 296.785 308.484C297.09 308.484 297.375 308.444 297.64 308.364C297.909 308.281 298.149 308.161 298.361 308.001C298.577 307.842 298.757 307.647 298.903 307.415C299.052 307.183 299.155 306.918 299.211 306.619L301.071 306.629C301.001 307.113 300.85 307.567 300.618 307.991C300.39 308.416 300.09 308.79 299.718 309.115C299.347 309.437 298.913 309.688 298.416 309.871C297.919 310.05 297.367 310.139 296.76 310.139C295.865 310.139 295.067 309.932 294.364 309.518C293.661 309.103 293.108 308.505 292.703 307.723C292.299 306.941 292.097 306.003 292.097 304.909C292.097 303.812 292.301 302.874 292.708 302.095C293.116 301.313 293.671 300.715 294.374 300.3C295.077 299.886 295.872 299.679 296.76 299.679C297.327 299.679 297.854 299.759 298.341 299.918C298.828 300.077 299.263 300.31 299.644 300.619C300.025 300.924 300.338 301.298 300.583 301.742C300.832 302.183 300.994 302.687 301.071 303.254ZM304.48 299.818V310H302.68V299.818H304.48ZM306.331 310V302.364H308.13V310H306.331ZM307.235 301.28C306.95 301.28 306.705 301.185 306.5 300.996C306.294 300.804 306.191 300.574 306.191 300.305C306.191 300.034 306.294 299.803 306.5 299.614C306.705 299.422 306.95 299.326 307.235 299.326C307.524 299.326 307.769 299.422 307.971 299.614C308.177 299.803 308.279 300.034 308.279 300.305C308.279 300.574 308.177 300.804 307.971 300.996C307.769 301.185 307.524 301.28 307.235 301.28ZM313.362 310.149C312.596 310.149 311.935 309.99 311.378 309.672C310.825 309.35 310.399 308.896 310.1 308.31C309.802 307.72 309.653 307.025 309.653 306.227C309.653 305.441 309.802 304.752 310.1 304.158C310.402 303.562 310.823 303.098 311.363 302.766C311.903 302.432 312.538 302.264 313.267 302.264C313.738 302.264 314.182 302.34 314.6 302.493C315.021 302.642 315.392 302.874 315.713 303.189C316.038 303.504 316.293 303.905 316.479 304.392C316.664 304.876 316.757 305.453 316.757 306.122V306.674H310.498V305.461H315.032C315.029 305.116 314.954 304.81 314.808 304.541C314.663 304.269 314.459 304.056 314.197 303.9C313.938 303.744 313.637 303.666 313.292 303.666C312.924 303.666 312.601 303.756 312.323 303.935C312.044 304.11 311.827 304.342 311.671 304.631C311.519 304.916 311.441 305.229 311.438 305.57V306.629C311.438 307.073 311.519 307.455 311.681 307.773C311.844 308.088 312.071 308.33 312.362 308.499C312.654 308.664 312.995 308.747 313.387 308.747C313.648 308.747 313.885 308.711 314.097 308.638C314.31 308.562 314.494 308.451 314.649 308.305C314.805 308.159 314.923 307.978 315.002 307.763L316.683 307.952C316.577 308.396 316.374 308.784 316.076 309.115C315.781 309.443 315.403 309.698 314.943 309.881C314.482 310.06 313.955 310.149 313.362 310.149ZM320.08 305.526V310H318.28V302.364H320V303.661H320.089C320.265 303.234 320.545 302.894 320.93 302.642C321.317 302.39 321.796 302.264 322.366 302.264C322.893 302.264 323.352 302.377 323.744 302.602C324.138 302.828 324.443 303.154 324.658 303.582C324.877 304.009 324.985 304.528 324.982 305.138V310H323.182V305.416C323.182 304.906 323.049 304.506 322.784 304.218C322.522 303.93 322.159 303.786 321.695 303.786C321.38 303.786 321.1 303.855 320.855 303.994C320.613 304.13 320.423 304.327 320.283 304.586C320.147 304.844 320.08 305.158 320.08 305.526ZM330.624 302.364V303.756H326.234V302.364H330.624ZM327.318 300.534H329.118V307.703C329.118 307.945 329.154 308.131 329.227 308.26C329.303 308.386 329.403 308.472 329.526 308.518C329.648 308.565 329.784 308.588 329.933 308.588C330.046 308.588 330.149 308.58 330.241 308.563C330.338 308.547 330.411 308.532 330.46 308.518L330.763 309.925C330.667 309.959 330.53 309.995 330.351 310.035C330.175 310.075 329.96 310.098 329.705 310.104C329.254 310.118 328.848 310.05 328.486 309.901C328.125 309.748 327.839 309.513 327.626 309.195C327.418 308.876 327.315 308.479 327.318 308.001V300.534Z" fill="#1C222B"/>
<path d="M74.663 241H72.6942L76.2788 230.818H78.5557L82.1452 241H80.1765L77.457 232.906H77.3775L74.663 241ZM74.7276 237.008H80.0969V238.489H74.7276V237.008ZM86.4954 244.023C85.8491 244.023 85.2939 243.935 84.8299 243.759C84.3659 243.587 83.993 243.355 83.7113 243.063C83.4296 242.772 83.234 242.448 83.1246 242.094L84.7454 241.701C84.8183 241.85 84.9243 241.998 85.0636 242.143C85.2028 242.293 85.39 242.415 85.6253 242.511C85.864 242.611 86.1639 242.661 86.5252 242.661C87.0356 242.661 87.4582 242.536 87.793 242.288C88.1277 242.042 88.2951 241.638 88.2951 241.075V239.628H88.2056C88.1128 239.813 87.9769 240.004 87.7979 240.2C87.6223 240.395 87.3886 240.559 87.0969 240.692C86.8086 240.824 86.4457 240.891 86.0082 240.891C85.4215 240.891 84.8895 240.753 84.4123 240.478C83.9383 240.2 83.5605 239.785 83.2788 239.235C83.0003 238.682 82.8611 237.989 82.8611 237.157C82.8611 236.318 83.0003 235.611 83.2788 235.034C83.5605 234.454 83.94 234.015 84.4172 233.717C84.8945 233.415 85.4265 233.264 86.0131 233.264C86.4606 233.264 86.8285 233.34 87.1168 233.493C87.4085 233.642 87.6405 233.823 87.8128 234.035C87.9852 234.244 88.1161 234.441 88.2056 234.626H88.305V233.364H90.0799V241.124C90.0799 241.777 89.9241 242.317 89.6126 242.745C89.301 243.173 88.8751 243.492 88.3349 243.705C87.7946 243.917 87.1815 244.023 86.4954 244.023ZM86.5103 239.479C86.8914 239.479 87.2163 239.386 87.4847 239.2C87.7532 239.015 87.957 238.748 88.0962 238.4C88.2354 238.052 88.305 237.634 88.305 237.147C88.305 236.666 88.2354 236.246 88.0962 235.884C87.9603 235.523 87.7582 235.243 87.4897 235.044C87.2245 234.842 86.8981 234.741 86.5103 234.741C86.1092 234.741 85.7745 234.845 85.506 235.054C85.2376 235.263 85.0354 235.549 84.8995 235.914C84.7636 236.275 84.6957 236.686 84.6957 237.147C84.6957 237.614 84.7636 238.024 84.8995 238.375C85.0387 238.723 85.2425 238.995 85.511 239.19C85.7828 239.383 86.1159 239.479 86.5103 239.479ZM95.305 241.149C94.5394 241.149 93.8782 240.99 93.3214 240.672C92.7679 240.35 92.342 239.896 92.0437 239.31C91.7454 238.72 91.5962 238.025 91.5962 237.227C91.5962 236.441 91.7454 235.752 92.0437 235.158C92.3453 234.562 92.7662 234.098 93.3065 233.766C93.8467 233.432 94.4814 233.264 95.2106 233.264C95.6812 233.264 96.1253 233.34 96.543 233.493C96.9639 233.642 97.3351 233.874 97.6566 234.189C97.9814 234.504 98.2366 234.905 98.4222 235.392C98.6078 235.876 98.7006 236.453 98.7006 237.122V237.674H92.4414V236.461H96.9755C96.9722 236.116 96.8976 235.81 96.7518 235.541C96.6059 235.269 96.4021 235.056 96.1403 234.9C95.8817 234.744 95.5801 234.666 95.2354 234.666C94.8675 234.666 94.5444 234.756 94.266 234.935C93.9876 235.11 93.7705 235.342 93.6147 235.631C93.4622 235.916 93.3843 236.229 93.381 236.57V237.629C93.381 238.073 93.4622 238.455 93.6246 238.773C93.787 239.088 94.0141 239.33 94.3057 239.499C94.5974 239.664 94.9388 239.747 95.3299 239.747C95.5917 239.747 95.8287 239.711 96.0408 239.638C96.2529 239.562 96.4369 239.451 96.5927 239.305C96.7485 239.159 96.8661 238.978 96.9457 238.763L98.6261 238.952C98.52 239.396 98.3178 239.784 98.0195 240.115C97.7245 240.443 97.3467 240.698 96.886 240.881C96.4253 241.06 95.8983 241.149 95.305 241.149ZM102.023 236.526V241H100.223V233.364H101.943V234.661H102.033C102.208 234.234 102.489 233.894 102.873 233.642C103.261 233.39 103.74 233.264 104.31 233.264C104.837 233.264 105.296 233.377 105.687 233.602C106.081 233.828 106.386 234.154 106.602 234.582C106.82 235.009 106.928 235.528 106.925 236.138V241H105.125V236.416C105.125 235.906 104.993 235.506 104.727 235.218C104.466 234.93 104.103 234.786 103.639 234.786C103.324 234.786 103.044 234.855 102.798 234.994C102.557 235.13 102.366 235.327 102.227 235.586C102.091 235.844 102.023 236.158 102.023 236.526ZM112.568 233.364V234.756H108.178V233.364H112.568ZM109.262 231.534H111.061V238.703C111.061 238.945 111.098 239.131 111.171 239.26C111.247 239.386 111.346 239.472 111.469 239.518C111.592 239.565 111.727 239.588 111.877 239.588C111.989 239.588 112.092 239.58 112.185 239.563C112.281 239.547 112.354 239.532 112.404 239.518L112.707 240.925C112.611 240.959 112.473 240.995 112.294 241.035C112.119 241.075 111.903 241.098 111.648 241.104C111.197 241.118 110.791 241.05 110.43 240.901C110.069 240.748 109.782 240.513 109.57 240.195C109.361 239.876 109.258 239.479 109.262 239.001V231.534Z" fill="#1C222B"/>
</g>
<defs>
<filter id="filter0_d_268_7538" x="198.36" y="71.0088" width="228.101" height="241.56" filterUnits="userSpaceOnUse" color-interpolation-filters="sRGB">
<feFlood flood-opacity="0" result="BackgroundImageFix"/>
<feColorMatrix in="SourceAlpha" type="matrix" values="0 0 0 0 0 0 0 0 0 0 0 0 0 0 0 0 0 0 127 0" result="hardAlpha"/>
<feOffset dy="5.28289"/>
<feGaussianBlur stdDeviation="10.5658"/>
<feComposite in2="hardAlpha" operator="out"/>
<feColorMatrix type="matrix" values="0 0 0 0 0 0 0 0 0 0.0705882 0 0 0 0 0.301961 0 0 0 0.1 0"/>
<feBlend mode="normal" in2="BackgroundImageFix" result="effect1_dropShadow_268_7538"/>
<feBlend mode="normal" in="SourceGraphic" in2="effect1_dropShadow_268_7538" result="shape"/>
</filter>
<filter id="filter1_d_268_7538" x="197.69" y="70.3388" width="229.442" height="242.901" filterUnits="userSpaceOnUse" color-interpolation-filters="sRGB">
<feFlood flood-opacity="0" result="BackgroundImageFix"/>
<feColorMatrix in="SourceAlpha" type="matrix" values="0 0 0 0 0 0 0 0 0 0 0 0 0 0 0 0 0 0 127 0" result="hardAlpha"/>
<feOffset dy="5.28289"/>
<feGaussianBlur stdDeviation="10.5658"/>
<feComposite in2="hardAlpha" operator="out"/>
<feColorMatrix type="matrix" values="0 0 0 0 0 0 0 0 0 0 0 0 0 0 0 0 0 0 0.1 0"/>
<feBlend mode="normal" in2="BackgroundImageFix" result="effect1_dropShadow_268_7538"/>
<feBlend mode="normal" in="SourceGraphic" in2="effect1_dropShadow_268_7538" result="shape"/>
</filter>
<filter id="filter2_d_268_7538" x="-17.1037" y="0.0673518" width="228.101" height="241.56" filterUnits="userSpaceOnUse" color-interpolation-filters="sRGB">
<feFlood flood-opacity="0" result="BackgroundImageFix"/>
<feColorMatrix in="SourceAlpha" type="matrix" values="0 0 0 0 0 0 0 0 0 0 0 0 0 0 0 0 0 0 127 0" result="hardAlpha"/>
<feOffset dy="5.28289"/>
<feGaussianBlur stdDeviation="10.5658"/>
<feComposite in2="hardAlpha" operator="out"/>
<feColorMatrix type="matrix" values="0 0 0 0 0 0 0 0 0 0.0705882 0 0 0 0 0.301961 0 0 0 0.1 0"/>
<feBlend mode="normal" in2="BackgroundImageFix" result="effect1_dropShadow_268_7538"/>
<feBlend mode="normal" in="SourceGraphic" in2="effect1_dropShadow_268_7538" result="shape"/>
</filter>
<filter id="filter3_d_268_7538" x="114.776" y="105.08" width="143.674" height="156.881" filterUnits="userSpaceOnUse" color-interpolation-filters="sRGB">
<feFlood flood-opacity="0" result="BackgroundImageFix"/>
<feColorMatrix in="SourceAlpha" type="matrix" values="0 0 0 0 0 0 0 0 0 0 0 0 0 0 0 0 0 0 127 0" result="hardAlpha"/>
<feOffset dy="2.77093"/>
<feGaussianBlur stdDeviation="5.54185"/>
<feComposite in2="hardAlpha" operator="out"/>
<feColorMatrix type="matrix" values="0 0 0 0 0 0 0 0 0 0.0705882 0 0 0 0 0.301961 0 0 0 0.1 0"/>
<feBlend mode="normal" in2="BackgroundImageFix" result="effect1_dropShadow_268_7538"/>
<feBlend mode="normal" in="SourceGraphic" in2="effect1_dropShadow_268_7538" result="shape"/>
</filter>
<clipPath id="clip0_268_7538">
<rect width="406" height="321" fill="white" transform="translate(0 0.536133)"/>
</clipPath>
<clipPath id="clip1_268_7538">
<rect width="6.0768" height="6.0768" fill="white" transform="matrix(-1 0 0 1 140.249 159.48)"/>
</clipPath>
</defs>
</svg>
