<svg width="326" height="251" viewBox="0 0 326 251" fill="none" xmlns="http://www.w3.org/2000/svg">
<path d="M104.075 137.346L97.6953 142.63C97.6953 142.63 111.214 166.669 113.178 163.103C114.13 161.378 111.926 149.413 111.926 149.413" fill="white"/>
<path d="M112.617 163.807C109.311 163.807 98.6058 144.95 97.4011 142.801C97.3626 142.731 97.3491 142.65 97.3627 142.572C97.3764 142.493 97.4165 142.422 97.4764 142.369L103.856 137.051C103.89 137.022 103.93 137 103.973 136.987C104.016 136.974 104.061 136.969 104.106 136.973C104.151 136.977 104.195 136.99 104.234 137.011C104.274 137.032 104.31 137.061 104.338 137.095C104.367 137.13 104.389 137.17 104.402 137.213C104.415 137.256 104.42 137.301 104.416 137.346C104.412 137.391 104.399 137.434 104.378 137.474C104.357 137.514 104.328 137.549 104.294 137.578L98.1335 142.712C102.651 150.713 110.454 163.123 112.617 163.123C112.674 163.12 112.728 163.102 112.775 163.069C112.821 163.036 112.856 162.991 112.877 162.938C113.562 161.754 112.467 154.245 111.591 149.488C111.575 149.399 111.594 149.307 111.646 149.233C111.697 149.159 111.776 149.108 111.864 149.091C111.954 149.077 112.045 149.097 112.121 149.148C112.196 149.199 112.248 149.276 112.268 149.365C112.494 150.604 114.459 161.487 113.48 163.267C113.402 163.429 113.28 163.566 113.127 163.662C112.974 163.758 112.797 163.808 112.617 163.807V163.807Z" fill="#1C222B"/>
<path d="M175.193 103.156L164.378 98.6589L178.876 63.8185C180.245 60.4645 186.357 55.2008 188.458 56.0701C190.56 56.9394 191.101 64.9684 189.704 68.3224L175.193 103.156Z" fill="white"/>
<path d="M175.193 103.498C175.15 103.508 175.106 103.508 175.063 103.498L164.248 99.0012C164.165 98.9659 164.099 98.8996 164.063 98.8164C164.029 98.7307 164.029 98.6352 164.063 98.5495L178.561 63.7159C179.93 60.4783 186.09 54.756 188.575 55.7827C191.059 56.8094 191.354 65.2423 190.005 68.4799L175.515 103.313C175.485 103.372 175.438 103.42 175.381 103.453C175.324 103.486 175.259 103.502 175.193 103.498ZM164.823 98.4742L175.042 102.711L189.417 68.1925C190.786 64.8453 190.101 57.1243 188.356 56.3919C186.61 55.6595 180.628 60.6015 179.232 63.9213L164.823 98.4742Z" fill="#1C222B"/>
<path d="M173.905 102.604L165.954 99.2959L165.234 101.027L173.184 104.335L173.905 102.604Z" fill="white"/>
<path d="M173.181 104.689C173.136 104.699 173.089 104.699 173.044 104.689L165.097 101.383C165.055 101.366 165.017 101.341 164.984 101.308C164.952 101.276 164.927 101.238 164.91 101.196C164.893 101.154 164.884 101.109 164.884 101.064C164.885 101.018 164.894 100.973 164.912 100.931L165.631 99.2066C165.647 99.1648 165.672 99.1268 165.704 99.095C165.736 99.0632 165.774 99.0383 165.816 99.0218C165.899 98.9875 165.992 98.9875 166.076 99.0218L174.029 102.328C174.071 102.345 174.11 102.37 174.142 102.403C174.174 102.435 174.199 102.473 174.217 102.515C174.234 102.557 174.242 102.602 174.242 102.648C174.242 102.693 174.232 102.738 174.214 102.78L173.496 104.491C173.46 104.574 173.394 104.64 173.311 104.676C173.269 104.69 173.224 104.695 173.181 104.689ZM165.651 100.856L172.975 103.902L173.427 102.8L166.144 99.7542L165.651 100.856Z" fill="#1C222B"/>
<path d="M187.799 72.894L176.979 68.3926L167.445 91.3079L178.265 95.8093L187.799 72.894Z" fill="#D6DBE3"/>
<path d="M178.253 96.1607C178.208 96.1703 178.161 96.1703 178.116 96.1607L167.301 91.6568C167.259 91.6403 167.221 91.6153 167.189 91.5835C167.158 91.5517 167.133 91.5138 167.116 91.472C167.082 91.3886 167.082 91.2952 167.116 91.2119L176.651 68.2952C176.686 68.212 176.753 68.1458 176.836 68.1104C176.922 68.0765 177.017 68.0765 177.103 68.1104L187.918 72.6143C188.001 72.6492 188.067 72.7154 188.102 72.7988C188.136 72.8821 188.137 72.9757 188.102 73.0593L178.568 95.9759C178.537 96.0328 178.492 96.0801 178.436 96.1127C178.381 96.1454 178.317 96.162 178.253 96.1607V96.1607ZM167.883 91.1297L178.068 95.3735L187.363 73.0866L177.178 68.8497L167.883 91.1297Z" fill="#1C222B"/>
<path d="M159.922 97.3789L164.919 97.3515L167.075 92.1768L161.141 94.4493L159.922 97.3789Z" fill="white"/>
<path d="M159.922 97.7208C159.866 97.7208 159.81 97.7071 159.76 97.6809C159.71 97.6547 159.667 97.6167 159.635 97.5702C159.608 97.5209 159.594 97.4655 159.594 97.4093C159.594 97.3531 159.608 97.2978 159.635 97.2485L160.853 94.3189C160.869 94.2751 160.895 94.2354 160.928 94.2024C160.961 94.1693 161.001 94.1437 161.045 94.1272L166.979 91.8547C167.042 91.8314 167.111 91.8268 167.176 91.8413C167.242 91.8559 167.302 91.8891 167.349 91.9369C167.396 91.9846 167.427 92.0453 167.44 92.1112C167.452 92.1771 167.444 92.2451 167.417 92.3065L165.261 97.4812C165.237 97.5437 165.195 97.5975 165.14 97.6354C165.085 97.6733 165.02 97.6936 164.953 97.6934H159.949L159.922 97.7208ZM161.401 94.7159L160.435 97.0363H164.693L166.452 92.8061L161.401 94.7159Z" fill="#1C222B"/>
<path d="M179.238 105.422L175.74 101.855L177.89 96.6807L180.463 102.492L179.238 105.422Z" fill="white"/>
<path d="M179.245 105.763C179.153 105.763 179.064 105.726 178.999 105.661L175.494 102.094C175.448 102.047 175.416 101.986 175.402 101.921C175.389 101.855 175.395 101.787 175.419 101.725L177.575 96.5433C177.602 96.4826 177.647 96.431 177.702 96.3946C177.758 96.3582 177.823 96.3385 177.89 96.3379C177.956 96.3371 178.021 96.3554 178.077 96.3906C178.133 96.4258 178.177 96.4765 178.205 96.5364L180.772 102.355C180.79 102.397 180.8 102.442 180.8 102.488C180.8 102.534 180.79 102.579 180.772 102.622L179.553 105.551C179.531 105.603 179.496 105.649 179.452 105.685C179.408 105.721 179.356 105.745 179.3 105.756L179.245 105.763ZM176.138 101.752L179.122 104.784L180.087 102.464L177.904 97.5152L176.138 101.752Z" fill="#1C222B"/>
<path d="M68.6525 25.6094L134.076 27.5602L181.566 72.5994L172.907 93.401L59.9938 46.4109L68.6525 25.6094Z" fill="white"/>
<path d="M172.907 93.7437C172.864 93.7534 172.82 93.7534 172.777 93.7437L59.8363 46.7536C59.7945 46.7371 59.7566 46.7122 59.7248 46.6804C59.693 46.6486 59.668 46.6106 59.6515 46.5688C59.6173 46.4855 59.6173 46.392 59.6515 46.3087L68.3103 25.5071C68.3386 25.4451 68.3837 25.3923 68.4406 25.3548C68.4975 25.3172 68.5639 25.2965 68.632 25.2949L134.055 27.2457C134.139 27.2461 134.22 27.2779 134.281 27.3347L181.805 72.3192C181.854 72.3683 181.888 72.431 181.901 72.4993C181.915 72.5676 181.908 72.6384 181.88 72.7025L173.229 93.5383C173.193 93.6215 173.127 93.6878 173.044 93.7231C173 93.7396 172.953 93.7466 172.907 93.7437V93.7437ZM60.4387 46.2265L172.729 92.9565L181.162 72.682L133.932 27.896L68.9058 25.9589L60.4387 46.2265Z" fill="#1C222B"/>
<path d="M144.636 29.5736L125.209 21.491C118.919 18.8742 111.699 21.8516 109.083 28.1411L98.9545 52.4846C96.3377 58.7741 99.315 65.994 105.604 68.6108L125.031 76.6934C131.321 79.3102 138.541 76.3329 141.158 70.0434L151.286 45.6999C153.903 39.4104 150.925 32.1904 144.636 29.5736Z" fill="#D6DBE3"/>
<path d="M129.764 78.0014C128.09 77.9994 126.434 77.6667 124.89 77.0225L105.457 68.9387C102.353 67.6477 99.8886 65.1771 98.6051 62.0698C97.3216 58.9624 97.3243 55.4726 98.6126 52.3673L108.743 28.0132C110.034 24.909 112.505 22.4444 115.612 21.1609C118.719 19.8774 122.209 19.8801 125.314 21.1684L144.747 29.259C147.851 30.55 150.316 33.0207 151.599 36.128C152.883 39.2353 152.88 42.7251 151.592 45.8305L141.462 70.1777C140.496 72.4858 138.871 74.4578 136.791 75.847C134.71 77.2362 132.265 77.9808 129.764 77.9877V78.0014ZM120.461 20.8877C118.893 20.8914 117.34 21.2007 115.889 21.7981C114.431 22.3955 113.105 23.276 111.989 24.3886C110.873 25.5011 109.988 26.8238 109.386 28.2802L99.256 52.6274C98.0353 55.563 98.0302 58.8631 99.2418 61.8024C100.454 64.7418 102.783 67.0796 105.718 68.3022L125.157 76.427C128.096 77.6411 131.397 77.6381 134.334 76.4187C137.271 75.1992 139.603 72.8632 140.818 69.9244L150.948 45.5772C152.173 42.6406 152.181 39.3382 150.972 36.3953C149.763 33.4525 147.436 31.1098 144.501 29.8819L125.075 21.8186C123.614 21.204 122.046 20.8875 120.461 20.8877Z" fill="#1C222B"/>
<path d="M61.8624 55.9949L51.0406 51.4909L65.5244 16.6574C66.8934 13.3034 73.0059 8.03967 75.1072 8.90897C77.2086 9.77827 77.7562 17.8073 76.3598 21.1613L61.8624 55.9949Z" fill="white"/>
<path d="M61.8625 56.3367C61.8197 56.3469 61.7752 56.3469 61.7324 56.3367L50.9107 51.7849C50.8269 51.7486 50.7607 51.6811 50.7262 51.5966C50.6916 51.5122 50.6915 51.4176 50.7259 51.3331L65.2233 16.4995C65.9078 14.8773 67.7148 12.6801 69.8436 10.9073C70.9525 9.99006 73.6904 7.92291 75.2374 8.56633C76.7843 9.20975 77.2497 12.6116 77.3798 14.0422C77.6262 16.7802 77.3798 19.6413 76.6953 21.2636L62.1979 56.0971C62.1746 56.1675 62.1296 56.2286 62.0693 56.2717C62.009 56.3148 61.9366 56.3375 61.8625 56.3367V56.3367ZM51.4925 51.3057L61.6777 55.5495L76.0519 21.0308C76.6885 19.4976 76.9486 16.7939 76.7364 14.1312C76.5242 11.4686 75.8192 9.56568 75.0115 9.22344C74.2038 8.88119 72.3625 9.76418 70.3159 11.4617C68.2693 13.1592 66.5238 15.2606 65.8873 16.7939L51.4925 51.3057Z" fill="#1C222B"/>
<path d="M60.5608 55.4503L52.6106 52.1426L51.8902 53.8742L59.8404 57.1819L60.5608 55.4503Z" fill="white"/>
<path d="M59.8432 57.528C59.8005 57.5382 59.7559 57.5382 59.7132 57.528L51.7594 54.2219C51.6757 54.1857 51.6095 54.1181 51.5749 54.0337C51.5404 53.9493 51.5403 53.8547 51.5746 53.7701L52.2591 52.0384C52.2945 51.9552 52.3607 51.8889 52.4439 51.8536C52.5297 51.8196 52.6251 51.8196 52.7109 51.8536L60.6578 55.1665C60.6996 55.183 60.7375 55.2079 60.7693 55.2397C60.8011 55.2715 60.8261 55.3095 60.8426 55.3513C60.8768 55.4346 60.8768 55.5281 60.8426 55.6114L60.1239 57.3432C60.0885 57.4264 60.0223 57.4926 59.939 57.528C59.9073 57.5335 59.8749 57.5335 59.8432 57.528V57.528ZM52.3139 53.688L59.631 56.7408L60.0896 55.6388L52.7656 52.5928L52.3139 53.688Z" fill="#1C222B"/>
<path d="M74.4612 25.7358L63.6418 21.2344L54.1078 44.1497L64.9272 48.6511L74.4612 25.7358Z" fill="#D6DBE3"/>
<path d="M64.9152 48.9988C64.8724 49.0085 64.828 49.0085 64.7852 48.9988L53.9634 44.4949C53.9216 44.4784 53.8836 44.4534 53.8518 44.4217C53.8201 44.3899 53.7951 44.3519 53.7786 44.3101C53.7444 44.2268 53.7444 44.1333 53.7786 44.05L63.3204 21.1333C63.3369 21.0915 63.3618 21.0535 63.3936 21.0218C63.4254 20.99 63.4634 20.965 63.5052 20.9485C63.5885 20.9143 63.6819 20.9143 63.7653 20.9485L74.5802 25.4524C74.622 25.4689 74.66 25.4937 74.6921 25.5252C74.7242 25.5567 74.7496 25.5943 74.7668 25.6358C74.784 25.6773 74.7928 25.7218 74.7924 25.7668C74.7921 25.8117 74.7828 25.8561 74.765 25.8974L65.2301 48.7866C65.2044 48.8491 65.1608 48.9026 65.1048 48.9404C65.0487 48.9781 64.9828 48.9985 64.9152 48.9988ZM54.5726 43.9678L64.7578 48.2048L74.0326 25.9247L63.82 21.6672L54.5726 43.9678Z" fill="#1C222B"/>
<path d="M46.5847 50.2177L51.5883 50.1903L53.7376 45.0156L47.8031 47.2881L46.5847 50.2177Z" fill="white"/>
<path d="M46.5847 50.5596C46.5286 50.5594 46.4735 50.5453 46.4241 50.5187C46.3748 50.4922 46.3327 50.4539 46.3016 50.4072C46.2705 50.3606 46.2514 50.307 46.2458 50.2513C46.2403 50.1955 46.2485 50.1392 46.2698 50.0873L47.4882 47.1577C47.5062 47.1138 47.5331 47.074 47.5673 47.041C47.6015 47.008 47.6421 46.9825 47.6867 46.9661L53.6144 44.6936C53.6773 44.6703 53.7457 44.6656 53.8113 44.6802C53.8768 44.6948 53.9368 44.7279 53.984 44.7757C54.031 44.8235 54.0627 44.8842 54.0749 44.95C54.0871 45.0159 54.0792 45.0839 54.0524 45.1453L51.9031 50.3201C51.8775 50.3826 51.8339 50.4361 51.7778 50.4738C51.7218 50.5116 51.6558 50.5319 51.5883 50.5323H46.5915L46.5847 50.5596ZM48.0632 47.5547L47.098 49.8752H51.3556L53.1147 45.6245L48.0632 47.5547Z" fill="#1C222B"/>
<path d="M65.9078 58.2604L62.4032 54.6943L64.5593 49.5195L67.1262 55.3308L65.9078 58.2604Z" fill="white"/>
<path d="M65.9078 58.6295C65.8159 58.6265 65.7282 58.59 65.6614 58.5268L62.1568 54.9607C62.1098 54.9129 62.0781 54.8522 62.0659 54.7863C62.0537 54.7205 62.0615 54.6524 62.0883 54.591L64.2445 49.4095C64.2692 49.3482 64.3119 49.2959 64.3668 49.2593C64.4218 49.2227 64.4865 49.2034 64.5525 49.2041V49.2041C64.6176 49.2038 64.6813 49.2223 64.736 49.2576C64.7907 49.2928 64.834 49.3432 64.8605 49.4026L67.441 55.2071C67.4754 55.2951 67.4754 55.3928 67.441 55.4809L66.209 58.3899C66.1871 58.4425 66.1526 58.4889 66.1084 58.5247C66.0641 58.5606 66.0117 58.5848 65.9557 58.5953L65.9078 58.6295ZM62.7865 54.6116L65.7709 57.6507L66.736 55.3303L64.5662 50.4157L62.7865 54.6116Z" fill="#1C222B"/>
<path d="M104.725 30.949L75.8534 29.6348C75.8084 29.633 75.7643 29.6224 75.7234 29.6036C75.6825 29.5847 75.6458 29.558 75.6153 29.5249C75.5848 29.4919 75.5611 29.4531 75.5456 29.4109C75.53 29.3687 75.523 29.3238 75.5248 29.2788C75.5318 29.1881 75.5733 29.1034 75.6408 29.0423C75.7083 28.9812 75.7966 28.9483 75.8876 28.9503L104.752 30.2645C104.843 30.2645 104.93 30.3006 104.994 30.3647C105.059 30.4289 105.095 30.516 105.095 30.6067C105.095 30.6975 105.059 30.7846 104.994 30.8487C104.93 30.9129 104.843 30.949 104.752 30.949H104.725Z" fill="#D6DBE3"/>
<path d="M177.732 73.4975C177.646 73.4956 177.563 73.4615 177.5 73.4017L152.94 50.5946C152.874 50.532 152.835 50.4456 152.833 50.3544C152.83 50.2633 152.864 50.1749 152.927 50.1086C152.989 50.0424 153.076 50.0037 153.167 50.0011C153.258 49.9985 153.346 50.0323 153.413 50.0949L177.965 72.902C177.997 72.9339 178.023 72.9717 178.04 73.0134C178.057 73.0551 178.066 73.0999 178.066 73.145C178.066 73.1902 178.057 73.2349 178.04 73.2766C178.023 73.3184 177.997 73.3562 177.965 73.388C177.904 73.4523 177.821 73.4913 177.732 73.4975V73.4975Z" fill="#D6DBE3"/>
<path d="M148.245 45.5215C148.245 45.5215 186.111 76.6109 170.367 78.9108C157.218 80.8273 145.274 73.8113 145.274 73.8113L149.032 65.5633C149.032 65.5633 161.14 71.1829 160.723 68.7188C160.305 66.2546 143.871 56.398 143.871 56.398L148.245 45.5215Z" fill="#0FBFC4"/>
<path d="M114.52 32.9677C114.52 32.9677 76.4146 28.7718 75.4221 34.5831C74.4296 40.3944 90.8505 53.2491 91.2543 52.4687C91.6582 51.6884 100.365 46.5616 100.365 46.5616L92.7602 40.4628L110.981 44.5698L114.52 32.9677Z" fill="#0FBFC4"/>
<path d="M147.122 24.6312C148.217 22.5777 147.451 20.0041 146.212 18.0327C144.628 15.5902 142.394 13.6374 139.762 12.3933C137.13 11.1492 134.204 10.663 131.311 10.9894C128.662 11.3316 125.937 12.5158 124.568 14.8157C126.011 14.5273 127.49 14.4741 128.949 14.6582C127.343 15.3608 125.902 16.3947 124.723 17.6922C123.543 18.9896 122.651 20.5215 122.104 22.1876C121.957 22.5227 121.938 22.9001 122.049 23.2485C122.323 23.8372 123.158 23.8577 123.781 23.6798C124.404 23.5018 125.102 23.228 125.67 23.5429C123.812 24.299 122.321 25.7503 121.516 27.5882C121.12 28.3946 121.006 29.3107 121.194 30.1892C121.385 30.8041 121.74 31.3553 122.221 31.7841C123.42 32.7655 124.823 33.467 126.328 33.8376C128.997 34.7 131.803 35.4735 134.541 35.1175C137.895 34.6932 140.661 32.6945 143.111 30.4973C144.241 29.4842 145.336 29.4568 146.534 28.7039C146.882 28.4755 147.177 28.1732 147.396 27.8183C147.614 27.4634 147.752 27.0647 147.8 26.6504C147.646 25.9553 147.419 25.2785 147.122 24.6312V24.6312Z" fill="white"/>
<path d="M133.131 35.5623C130.77 35.4672 128.437 35.0054 126.218 34.1933C124.65 33.8013 123.19 33.0621 121.947 32.0303C121.424 31.5569 121.039 30.9516 120.831 30.278C120.613 29.323 120.731 28.322 121.166 27.4442C121.804 25.9903 122.856 24.7569 124.192 23.8986H124.076L123.843 23.967C123.083 24.1792 122.07 24.1518 121.707 23.351C121.552 22.9261 121.567 22.4579 121.748 22.0436C122.755 18.9957 124.871 16.4377 127.676 14.877C126.656 14.8471 125.637 14.9344 124.637 15.1372C124.571 15.151 124.503 15.1453 124.441 15.1209C124.379 15.0965 124.325 15.0544 124.286 14.9998C124.248 14.9452 124.226 14.8805 124.224 14.8137C124.222 14.7468 124.239 14.6808 124.274 14.6238C125.54 12.495 128.093 11.0371 131.269 10.6332C134.228 10.2854 137.225 10.7753 139.919 12.0472C142.612 13.319 144.895 15.3217 146.506 17.8272C147.239 19.0045 148.792 21.9889 147.492 24.6378C147.783 25.2794 147.999 25.9523 148.135 26.6434C148.091 27.1153 147.941 27.5711 147.696 27.9766C147.45 28.3821 147.116 28.7266 146.718 28.9843C146.246 29.2736 145.747 29.5144 145.226 29.703C144.543 29.9245 143.911 30.278 143.364 30.7435C141.195 32.6943 138.238 34.9941 134.603 35.4527C134.115 35.5199 133.624 35.5565 133.131 35.5623ZM125.075 23.0361C125.34 23.0304 125.602 23.0941 125.835 23.2209C125.892 23.2521 125.939 23.2989 125.97 23.3559C126.002 23.4129 126.017 23.4777 126.013 23.5427C126.009 23.6069 125.987 23.6688 125.95 23.721C125.912 23.7732 125.86 23.8134 125.8 23.837C124.023 24.5582 122.598 25.9462 121.83 27.7043C121.46 28.4379 121.352 29.2758 121.522 30.0795C121.696 30.6343 122.018 31.1312 122.453 31.5169C123.618 32.4753 124.981 33.1627 126.444 33.5293C129.024 34.3576 131.783 35.1447 134.534 34.7956C137.957 34.3576 140.695 32.2562 142.919 30.2575C143.521 29.7369 144.218 29.3392 144.973 29.087C145.451 28.9053 145.91 28.676 146.342 28.4025C146.649 28.1993 146.908 27.9307 147.1 27.616C147.291 27.3013 147.411 26.9481 147.451 26.5818C147.29 25.9634 147.079 25.3591 146.821 24.7747C146.792 24.7248 146.777 24.6681 146.777 24.6105C146.777 24.5528 146.792 24.4961 146.821 24.4462C148.074 22.0847 146.609 19.2783 145.924 18.1831C144.364 15.8093 142.178 13.913 139.607 12.7039C137.037 11.4947 134.182 11.0197 131.358 11.3314C128.73 11.6668 126.567 12.7483 125.314 14.3431C126.537 14.1822 127.775 14.1822 128.997 14.3431C129.072 14.353 129.141 14.3872 129.194 14.4404C129.247 14.4936 129.281 14.5629 129.291 14.6375C129.302 14.7121 129.287 14.7881 129.25 14.8537C129.213 14.9193 129.155 14.9708 129.086 15.0003C127.518 15.6754 126.111 16.6755 124.959 17.9344C123.806 19.1934 122.933 20.6826 122.399 22.3037C122.281 22.5564 122.257 22.8426 122.33 23.1114C122.501 23.4879 123.138 23.5016 123.658 23.3578L123.877 23.2894C124.262 23.1466 124.665 23.0612 125.075 23.0361V23.0361Z" fill="#1C222B"/>
<path d="M124.534 84.4549C124.534 84.4549 136.91 111.834 134.801 117.187C132.693 122.54 111.912 149.426 111.912 149.426L100.885 140.083C100.885 140.083 120.318 114.476 119.517 112.704C118.716 110.931 109.099 92.3812 109.099 92.3812L56.8246 149.385L51.5541 135.696L93.9238 74.8926L124.534 84.4549Z" fill="#1C222B"/>
<path d="M111.926 149.769C111.847 149.768 111.77 149.742 111.707 149.694L100.666 140.337C100.6 140.28 100.559 140.2 100.55 140.114C100.541 140.027 100.566 139.941 100.618 139.872C107.935 130.22 119.448 114.34 119.195 112.807C118.511 111.226 110.475 95.7701 109.024 92.9569L57.0779 149.598C57.039 149.642 56.9895 149.675 56.9341 149.694C56.8787 149.714 56.8193 149.718 56.7616 149.708C56.7039 149.698 56.6498 149.673 56.6045 149.636C56.5592 149.598 56.5242 149.55 56.5029 149.496L51.2324 135.806C51.2121 135.754 51.2052 135.698 51.2124 135.643C51.2195 135.588 51.2406 135.536 51.2735 135.491L93.6432 74.6811C93.685 74.6214 93.7447 74.5767 93.8136 74.5533C93.8825 74.5299 93.9571 74.5291 94.0265 74.551L124.637 84.1338C124.683 84.1474 124.727 84.171 124.763 84.2029C124.8 84.2348 124.829 84.2743 124.849 84.3187C125.356 85.4412 137.259 111.883 135.116 117.318C132.974 122.753 113.048 148.537 112.2 149.667C112.172 149.704 112.138 149.735 112.097 149.757C112.057 149.779 112.013 149.793 111.967 149.797L111.926 149.769ZM101.357 140.022L111.878 148.921C114.109 146.032 132.556 122.013 134.466 117.051C136.376 112.088 125.205 86.8376 124.26 84.7225L94.0334 75.2697L51.91 135.717L56.9205 148.722L108.846 92.1697C108.882 92.1267 108.929 92.094 108.982 92.0748C109.035 92.0556 109.091 92.0505 109.147 92.0602C109.2 92.0668 109.252 92.0865 109.296 92.1175C109.34 92.1485 109.376 92.19 109.4 92.2382C109.797 92.998 119.031 110.808 119.825 112.574C120.619 114.34 106.156 133.691 101.357 140.022Z" fill="#1C222B"/>
<path d="M124.534 84.4559L93.9238 74.8731L122.638 37.4111C122.638 37.4111 136.937 44.256 138.676 47.0487C140.414 49.8414 124.534 84.4559 124.534 84.4559Z" fill="white"/>
<path d="M124.534 84.7974C124.5 84.8039 124.465 84.8039 124.431 84.7974L93.8211 75.2146C93.768 75.1982 93.7196 75.169 93.6802 75.1296C93.6409 75.0903 93.6117 75.0419 93.5953 74.9887C93.5787 74.9368 93.575 74.8816 93.5845 74.828C93.5941 74.7743 93.6165 74.7237 93.65 74.6807L122.337 37.1777C122.385 37.1148 122.454 37.0704 122.531 37.0518C122.608 37.0331 122.689 37.0413 122.761 37.075C123.35 37.3556 137.135 44.0499 138.936 46.8631C140.736 49.6764 126.451 81.0328 124.822 84.5921C124.796 84.6488 124.756 84.6977 124.706 84.7338C124.655 84.7699 124.596 84.7919 124.534 84.7974V84.7974ZM94.4919 74.7012L124.349 84.0377C130.462 70.6833 139.572 49.1288 138.381 47.2259C136.841 44.7755 124.65 38.7451 122.741 37.8142L94.4919 74.7012Z" fill="#1C222B"/>
<path d="M130.318 37.0141C129.757 37.0141 126.971 43.3251 126.683 43.859C123.945 48.9447 121.406 54.2563 118.538 59.212C112.857 69.0276 100.495 74.9552 90.8984 80.0547C89.6253 80.7392 88.2221 81.4236 86.7915 81.1635C85.7853 80.8922 84.8704 80.3556 84.1425 79.6097C80.8582 76.6952 78.227 73.1193 76.4215 69.1166C76.1339 68.6017 76.0031 68.0141 76.045 67.4259C76.1234 66.9498 76.3407 66.5075 76.6694 66.1544C76.9982 65.8013 77.4239 65.553 77.8931 65.4409C82.972 64.5579 90.4603 63.9692 94.5604 61.3339C101.405 56.9738 109.291 44.167 114.506 32.9414C120.865 34.502 126.396 36.1243 130.318 37.0141Z" fill="#0FBFC4"/>
<path d="M148.245 45.5219C148.402 45.6451 142.084 60.7039 141.79 61.4363C139.435 66.9601 131.187 77.0973 126.225 80.2665C129.401 74.599 130.332 65.6322 130.558 59.2391C130.66 56.1315 133.22 50.6693 134.398 47.8013C134.514 47.5206 135.513 38.5333 135.383 38.4512C135.397 38.4649 144.24 42.3322 148.245 45.5219Z" fill="#0FBFC4"/>
<path d="M137.396 39.2514L135.623 45.2886C135.623 45.2886 134.028 47.8143 130.263 45.6924C126.499 43.5705 126.69 40.6135 126.69 40.6135L130.4 29.4701C130.4 29.4701 133.432 28.4707 134.398 21.7148C134.398 21.7148 140.099 25.4042 146.328 26.3488C146.328 26.3488 144.316 33.7344 142.94 36.7325C141.564 39.7306 137.396 39.2514 137.396 39.2514Z" fill="white"/>
<path d="M133.035 46.8772C131.994 46.8399 130.98 46.5333 130.092 45.9873C126.191 43.7833 126.341 40.7168 126.348 40.5867V40.5046L130.058 29.3611C130.075 29.311 130.104 29.2656 130.142 29.2287C130.18 29.1918 130.226 29.1645 130.277 29.149C130.277 29.149 133.124 28.0812 134.042 21.6607C134.05 21.604 134.073 21.5504 134.108 21.5049C134.143 21.4594 134.189 21.4234 134.242 21.4003C134.294 21.3771 134.351 21.3675 134.409 21.3723C134.466 21.3772 134.521 21.3963 134.569 21.4279C134.623 21.4622 140.277 25.0899 146.356 26.014C146.403 26.0202 146.449 26.0369 146.489 26.0629C146.529 26.089 146.563 26.1237 146.588 26.1646C146.616 26.204 146.634 26.2489 146.643 26.2962C146.651 26.3435 146.649 26.392 146.636 26.4384C146.554 26.7464 144.583 33.8925 143.214 36.8768C141.947 39.6148 138.614 39.6627 137.601 39.6148L135.91 45.385C135.904 45.4154 135.89 45.4436 135.869 45.4671C135.542 45.9092 135.114 46.2674 134.622 46.5125C134.129 46.7576 133.586 46.8826 133.035 46.8772V46.8772ZM127.032 40.6757C127.032 41.0317 127.108 43.5163 130.455 45.3918C133.672 47.2126 135.123 45.4329 135.328 45.1386L137.088 39.1562C137.111 39.0798 137.159 39.0137 137.225 38.9689C137.291 38.924 137.371 38.9032 137.45 38.9097C137.491 38.9097 141.393 39.3204 142.652 36.5893C143.83 34.0362 145.493 28.1564 145.917 26.63C140.818 25.7744 136.095 23.1323 134.658 22.2767C133.727 27.91 131.338 29.4159 130.681 29.7239L127.032 40.6757Z" fill="#1C222B"/>
<path d="M132.406 29.6964C132.424 29.1013 132.251 28.516 131.913 28.0262C131.572 27.5891 131.16 27.212 130.695 26.9105C130.458 26.7201 130.182 26.5845 129.887 26.5135C129.676 26.4882 129.462 26.5045 129.257 26.5614C128.759 26.6502 128.31 26.915 127.991 27.3075C127.771 27.651 127.639 28.0438 127.607 28.4506C127.546 28.8865 127.546 29.3289 127.607 29.7648C127.663 30.202 127.805 30.6238 128.025 31.0057C128.245 31.3876 128.538 31.7221 128.889 31.9895C129.239 32.257 129.639 32.4522 130.065 32.5638C130.491 32.6754 130.936 32.7012 131.372 32.6397" fill="white"/>
<path d="M130.879 33.016C129.985 33.0165 129.121 32.6908 128.449 32.0998C127.777 31.5088 127.344 30.6932 127.231 29.8058C127.181 29.3497 127.195 28.889 127.272 28.4368C127.309 27.9761 127.46 27.5317 127.71 27.1431C128.074 26.6696 128.597 26.3438 129.182 26.2259C129.432 26.1595 129.692 26.1432 129.948 26.178C130.296 26.2534 130.622 26.408 130.9 26.6297C131.396 26.9523 131.834 27.3574 132.194 27.8276C132.578 28.3755 132.773 29.0342 132.748 29.7031C132.743 29.7939 132.703 29.8792 132.637 29.9416C132.571 30.004 132.483 30.0386 132.392 30.0385C132.302 30.0332 132.217 29.9932 132.156 29.9268C132.095 29.8604 132.062 29.7729 132.064 29.6826C132.081 29.1627 131.93 28.6511 131.632 28.2246C131.317 27.8183 130.935 27.4688 130.503 27.191C130.303 27.0294 130.069 26.9148 129.818 26.8556C129.651 26.831 129.48 26.845 129.319 26.8967C128.902 26.967 128.524 27.1829 128.251 27.5059C128.073 27.813 127.97 28.1577 127.95 28.5121C127.88 28.9167 127.866 29.329 127.909 29.7373C127.96 30.1293 128.088 30.5073 128.286 30.8494C128.484 31.1916 128.748 31.4912 129.063 31.7311C129.377 31.9709 129.735 32.1462 130.118 32.2469C130.5 32.3476 130.898 32.3717 131.29 32.3178C131.379 32.306 131.469 32.3296 131.54 32.3833C131.612 32.4371 131.66 32.5168 131.673 32.6053C131.685 32.6949 131.662 32.7856 131.608 32.8584C131.555 32.9312 131.475 32.9803 131.386 32.9955C131.218 33.0123 131.048 33.0192 130.879 33.016V33.016Z" fill="#1C222B"/>
<path d="M139.949 29.1973C139.949 29.1973 141.318 32.914 140.633 33.3453C139.949 33.7765 138.655 33.0578 138.655 33.0578" fill="white"/>
<path d="M140.134 33.7895C139.57 33.7522 139.021 33.5934 138.525 33.3241C138.486 33.3032 138.451 33.2748 138.422 33.2403C138.394 33.2059 138.373 33.1662 138.36 33.1235C138.348 33.0808 138.343 33.036 138.348 32.9917C138.353 32.9474 138.367 32.9045 138.388 32.8655C138.409 32.8252 138.438 32.7896 138.472 32.7605C138.507 32.7315 138.547 32.7097 138.591 32.6963C138.634 32.6829 138.68 32.6783 138.725 32.6827C138.77 32.687 138.814 32.7003 138.854 32.7217C139.23 32.9271 140.12 33.2625 140.476 33.0297C140.647 32.7628 140.264 30.9763 139.641 29.2787C139.624 29.237 139.616 29.1924 139.618 29.1476C139.619 29.1028 139.629 29.0586 139.647 29.0178C139.666 28.9769 139.692 28.9402 139.725 28.9098C139.758 28.8794 139.797 28.8559 139.839 28.8407C139.925 28.8098 140.019 28.8142 140.101 28.8527C140.183 28.8912 140.246 28.9607 140.277 29.046C140.962 30.8599 141.571 33.1529 140.859 33.5979C140.641 33.7302 140.389 33.7967 140.134 33.7895V33.7895Z" fill="#1C222B"/>
<path d="M137.396 39.252C137.396 39.252 134.281 38.2595 133.104 36.9521C133.104 36.9521 133.172 40.8948 136.266 42.8661L137.396 39.252Z" fill="#1C222B"/>
<path d="M136.266 43.2077C136.201 43.2055 136.137 43.1866 136.081 43.1529C132.871 41.0995 132.762 37.1295 132.762 36.9926C132.759 36.9234 132.778 36.8551 132.816 36.7973C132.854 36.7396 132.909 36.6953 132.974 36.6708C133.039 36.6434 133.111 36.6372 133.18 36.6532C133.249 36.6692 133.311 36.7065 133.357 36.7598C134.459 37.9851 137.464 38.9502 137.498 38.957C137.542 38.9702 137.582 38.9919 137.616 39.021C137.651 39.05 137.679 39.0857 137.7 39.126C137.72 39.1663 137.732 39.2103 137.735 39.2553C137.738 39.3004 137.732 39.3456 137.717 39.3883L136.595 43.0024C136.578 43.0514 136.551 43.0963 136.516 43.1341C136.48 43.1719 136.437 43.2017 136.389 43.2214C136.348 43.2234 136.306 43.2188 136.266 43.2077ZM133.528 37.7934C133.779 39.5662 134.685 41.1807 136.068 42.3179L136.964 39.4636C135.756 39.0567 134.606 38.4953 133.542 37.7934H133.528Z" fill="#1C222B"/>
<path d="M136.102 26.6641C136.102 26.6641 137.738 25.5005 138.491 27.595Z" fill="white"/>
<path d="M138.491 27.9374C138.421 27.9364 138.353 27.9143 138.295 27.874C138.238 27.8337 138.194 27.7771 138.169 27.7115C138.124 27.4991 138.031 27.2999 137.897 27.129C137.763 26.9582 137.591 26.8203 137.396 26.7258C137.213 26.6902 137.025 26.6912 136.843 26.7288C136.661 26.7664 136.488 26.8399 136.335 26.9449C136.298 26.9711 136.256 26.9899 136.212 26.9999C136.168 27.01 136.123 27.0113 136.078 27.0037C136.033 26.996 135.991 26.9796 135.953 26.9554C135.915 26.9313 135.881 26.8997 135.856 26.8627C135.829 26.8265 135.811 26.7854 135.801 26.7419C135.791 26.6984 135.79 26.6533 135.797 26.6093C135.805 26.5653 135.821 26.5233 135.845 26.4857C135.87 26.4481 135.901 26.4157 135.938 26.3904C136.176 26.2216 136.448 26.1055 136.735 26.0501C137.021 25.9946 137.317 26.0009 137.601 26.0687C137.906 26.1875 138.178 26.3774 138.395 26.6227C138.612 26.868 138.767 27.1615 138.847 27.4788C138.865 27.5304 138.871 27.5859 138.864 27.6403C138.857 27.6948 138.837 27.7467 138.805 27.7917C138.774 27.8367 138.732 27.8734 138.683 27.8987C138.634 27.9241 138.58 27.9374 138.525 27.9374H138.491Z" fill="#1C222B"/>
<path d="M141.502 29.272C141.502 29.272 142.947 27.4923 143.871 29.5937Z" fill="white"/>
<path d="M143.871 29.9358C143.804 29.936 143.739 29.9167 143.683 29.8802C143.627 29.8437 143.583 29.7917 143.556 29.7305C143.405 29.3814 143.152 28.9638 142.803 28.9159C142.454 28.868 141.913 29.3061 141.763 29.484C141.736 29.524 141.702 29.5579 141.661 29.5836C141.621 29.6094 141.576 29.6264 141.528 29.6336C141.481 29.6407 141.433 29.6379 141.387 29.6252C141.341 29.6126 141.298 29.5904 141.261 29.5601C141.223 29.5298 141.193 29.492 141.172 29.4493C141.15 29.4066 141.138 29.3598 141.135 29.312C141.133 29.2642 141.141 29.2164 141.158 29.1718C141.175 29.1271 141.202 29.0866 141.236 29.0528C141.427 28.8 141.674 28.5949 141.958 28.4535C142.242 28.3122 142.554 28.2385 142.872 28.2383C143.405 28.3067 143.837 28.7174 144.165 29.4567C144.2 29.5403 144.201 29.6343 144.168 29.7186C144.134 29.8029 144.07 29.871 143.987 29.9084C143.95 29.9223 143.911 29.9315 143.871 29.9358V29.9358Z" fill="#1C222B"/>
<path d="M141.975 34.7677C141.975 34.7677 135.13 38.7788 135.13 31.6465Z" fill="white"/>
<path d="M138.258 36.2398C137.659 36.2535 137.066 36.1096 136.54 35.8223C135.376 35.1378 134.781 33.7688 134.774 31.6538C134.773 31.6083 134.781 31.563 134.798 31.5207C134.815 31.4784 134.84 31.4398 134.872 31.4073C134.904 31.3748 134.942 31.349 134.984 31.3314C135.026 31.3138 135.071 31.3047 135.116 31.3047C135.206 31.3064 135.292 31.3431 135.356 31.4069C135.42 31.4707 135.457 31.5567 135.458 31.6469C135.458 33.495 135.944 34.6997 136.875 35.2268C138.703 36.2672 141.769 34.4944 141.804 34.4739C141.883 34.4285 141.976 34.4163 142.064 34.4401C142.152 34.4638 142.227 34.5215 142.273 34.6005C142.318 34.6795 142.33 34.7732 142.306 34.8612C142.283 34.9491 142.225 35.024 142.146 35.0694C140.957 35.7539 139.627 36.1545 138.258 36.2398V36.2398Z" fill="#1C222B"/>
<path d="M130.838 47.1787L127.628 48.1165L128.716 50.1699C128.716 50.1699 120.502 60.6836 115.369 61.1217C112.394 61.325 109.428 60.6081 106.874 59.0683L101.398 61.6351C101.398 61.6351 106.382 65.8994 106.703 66.2348C107.025 66.5702 115.28 68.9728 120.879 62.8124C124.183 59.1697 127.16 55.2439 129.777 51.0803L131.687 50.2452L130.838 47.1787Z" fill="#1C222B"/>
<path d="M117.094 58.6298C117.012 58.6289 116.933 58.5988 116.872 58.5448C116.81 58.4908 116.77 58.4165 116.758 58.3354L115.253 48.1913C115.242 48.1123 115.26 48.0321 115.302 47.9646C115.345 47.8971 115.409 47.8466 115.485 47.8217L120.612 46.1516L117.032 42.8866C116.989 42.8464 116.956 42.7956 116.938 42.7393C116.92 42.6829 116.917 42.6228 116.93 42.5649C116.943 42.5069 116.97 42.4532 117.01 42.4089C117.049 42.3646 117.099 42.3311 117.155 42.3116L124.856 39.6489C124.942 39.619 125.037 39.6245 125.119 39.6643C125.201 39.7041 125.264 39.7749 125.294 39.8611C125.324 39.9474 125.318 40.042 125.279 40.1241C125.239 40.2063 125.168 40.2693 125.082 40.2992L117.922 42.7702L121.502 46.0557C121.547 46.0966 121.58 46.1485 121.598 46.2062C121.616 46.2639 121.618 46.3253 121.605 46.3843C121.593 46.4428 121.566 46.4971 121.526 46.5416C121.486 46.5861 121.435 46.6192 121.379 46.6376L115.978 48.3967L117.436 58.2533C117.448 58.3421 117.424 58.432 117.371 58.5037C117.317 58.5753 117.237 58.6231 117.149 58.6366L117.094 58.6298Z" fill="#1C222B"/>
<path d="M98.4551 69.6434H98.3798C98.3114 69.6434 91.2748 68.2196 87.4622 67.3503C87.4184 67.3414 87.3767 67.3238 87.3398 67.2986C87.3028 67.2733 87.2713 67.2409 87.247 67.2033C87.2228 67.1656 87.2063 67.1235 87.1986 67.0794C87.1909 67.0353 87.1921 66.9901 87.2021 66.9465C87.2118 66.9023 87.2302 66.8606 87.2561 66.8235C87.2821 66.7865 87.3151 66.755 87.3533 66.7308C87.3915 66.7067 87.4341 66.6903 87.4786 66.6826C87.5232 66.675 87.5688 66.6763 87.6128 66.6864C91.4186 67.5488 98.4414 68.9589 98.5167 68.9726C98.5608 68.9815 98.6026 68.9991 98.6399 69.0243C98.6771 69.0494 98.7091 69.0817 98.7338 69.1192C98.7586 69.1567 98.7758 69.1987 98.7843 69.2428C98.7929 69.287 98.7927 69.3324 98.7837 69.3764C98.7657 69.4508 98.7238 69.5171 98.6645 69.5654C98.6051 69.6136 98.5316 69.641 98.4551 69.6434Z" fill="#1C222B"/>
<path d="M133.829 59.4305C133.76 59.431 133.692 59.4105 133.635 59.3716C133.578 59.3328 133.533 59.2774 133.508 59.2129C133.483 59.1483 133.478 59.0776 133.494 59.0102C133.509 58.9427 133.545 58.8816 133.597 58.835L141.304 51.7848L137.882 48.7525C137.841 48.7172 137.81 48.6725 137.791 48.6224C137.772 48.5723 137.765 48.5183 137.772 48.465C137.776 48.4105 137.792 48.3577 137.821 48.3112C137.85 48.2647 137.889 48.2258 137.936 48.1981L142.762 45.4191L139.613 42.8865C139.543 42.83 139.497 42.7479 139.487 42.6582C139.477 42.5684 139.503 42.4782 139.559 42.4073C139.618 42.3389 139.702 42.2958 139.792 42.2869C139.882 42.278 139.973 42.3039 140.045 42.3594L143.556 45.2274C143.598 45.2635 143.631 45.3089 143.652 45.36C143.674 45.4111 143.683 45.4665 143.679 45.5217C143.674 45.5767 143.656 45.6297 143.626 45.6762C143.597 45.7227 143.556 45.7613 143.508 45.7887L138.669 48.5814L142.036 51.5521C142.076 51.5788 142.109 51.6132 142.135 51.6532C142.161 51.6931 142.179 51.7379 142.187 51.7848C142.187 51.833 142.177 51.8806 142.157 51.9244C142.137 51.9681 142.107 52.007 142.071 52.0381L134.055 59.3142C133.997 59.3799 133.917 59.4215 133.829 59.4305V59.4305Z" fill="#1C222B"/>
<path d="M115.492 78.562C115.435 78.5623 115.378 78.5482 115.328 78.5209C115.249 78.4762 115.191 78.4027 115.165 78.3159C115.14 78.229 115.149 78.1357 115.191 78.0555C115.266 77.9186 122.754 64.3657 126.444 57.0486C126.462 57.0051 126.489 56.9659 126.523 56.9333C126.557 56.9007 126.597 56.8754 126.641 56.8591C126.685 56.8428 126.732 56.8358 126.779 56.8384C126.826 56.8411 126.872 56.8535 126.914 56.8747C126.956 56.8959 126.993 56.9256 127.023 56.9619C127.053 56.9981 127.076 57.0402 127.089 57.0854C127.102 57.1306 127.105 57.178 127.099 57.2247C127.093 57.2714 127.077 57.3163 127.053 57.3566C123.364 64.6943 115.868 78.2471 115.793 78.384C115.764 78.4385 115.721 78.484 115.668 78.5154C115.614 78.5468 115.554 78.5629 115.492 78.562Z" fill="#D6DBE3"/>
<path d="M51.5541 135.683L45.4758 143.212C45.4758 143.212 49.7197 163.062 52.4028 160.865C55.086 158.668 56.8246 149.393 56.8246 149.393L51.5541 135.683Z" fill="white"/>
<path d="M51.9647 161.365C51.8502 161.364 51.7368 161.343 51.6293 161.303C48.8914 160.345 45.51 145.006 45.1404 143.26C45.1296 143.21 45.1302 143.158 45.142 143.109C45.1538 143.059 45.1767 143.012 45.2089 142.973L51.2871 135.443C51.3235 135.396 51.372 135.36 51.4275 135.338C51.4829 135.316 51.5432 135.31 51.602 135.32C51.6611 135.329 51.7169 135.353 51.7638 135.391C51.8106 135.428 51.8469 135.477 51.8689 135.532L57.1463 149.222C57.1636 149.282 57.1636 149.346 57.1463 149.407C57.0779 149.79 55.353 158.805 52.6082 161.084C52.4343 161.252 52.206 161.351 51.9647 161.365V161.365ZM45.8044 143.281C47.1733 149.742 50.0276 160.037 51.821 160.66C51.8772 160.68 51.9381 160.684 51.9965 160.671C52.0548 160.658 52.108 160.628 52.1496 160.584C54.5658 158.579 56.2565 150.379 56.4344 149.4L51.4103 136.36L45.8044 143.281Z" fill="#1C222B"/>
<path d="M118.333 31.4695C118.333 31.4695 113.144 49.0471 108.387 53.7084C103.63 58.3698 93.3283 64.0511 94.5741 61.361C95.8199 58.671 101.816 56.4669 106.032 48.7459C110.249 41.0249 113.001 30.2648 113.001 30.2648C113.001 30.2648 112.624 28.3619 115.424 28.9985C118.223 29.635 118.333 31.4695 118.333 31.4695Z" fill="#1C222B"/>
<path d="M135.109 71.5878C138.458 68.286 141.346 64.5468 143.693 60.4717C146.684 55.2285 148.97 47.9593 149.792 45.1597C149.887 44.8317 149.863 44.4804 149.724 44.1683C149.585 43.8563 149.34 43.6037 149.032 43.4553L148.094 42.983C147.902 42.8861 147.691 42.833 147.476 42.8276C147.262 42.8222 147.048 42.8646 146.852 42.9517C146.655 43.0388 146.48 43.1685 146.34 43.3313C146.2 43.4942 146.098 43.6862 146.041 43.8934C144.74 48.6438 140.708 62.2308 135.109 71.5878Z" fill="#1C222B"/>
<path d="M97.7432 47.2803C98.2155 47.8142 102.747 50.7027 102.747 50.7027C102.747 50.7027 104.732 47.9237 106.71 47.4993L105.471 49.7307L111.755 49.8197C111.755 49.8197 111.755 55.7611 106.231 56.9795C100.707 58.1978 91.2543 52.4687 91.2543 52.4687" fill="white"/>
<path d="M104.54 57.4865C98.9411 57.4865 91.4322 52.9483 91.0831 52.7361C91.0436 52.7136 91.0091 52.6833 90.9816 52.647C90.9542 52.6107 90.9344 52.5692 90.9236 52.525C90.9127 52.4808 90.9109 52.4349 90.9183 52.39C90.9258 52.3451 90.9422 52.3022 90.9668 52.2638C90.9906 52.2256 91.0216 52.1924 91.0583 52.1662C91.0949 52.14 91.1363 52.1212 91.1802 52.111C91.2241 52.1009 91.2695 52.0995 91.314 52.1069C91.3584 52.1143 91.4009 52.1304 91.4391 52.1543C91.5281 52.2091 100.81 57.8082 106.162 56.6377C110.694 55.6452 111.323 51.3946 111.406 50.1488L105.471 50.0666C105.412 50.0658 105.355 50.0495 105.304 50.0195C105.254 49.9895 105.212 49.9467 105.184 49.8955C105.155 49.8431 105.14 49.7842 105.14 49.7244C105.14 49.6646 105.155 49.6057 105.184 49.5533L105.971 48.1843C104.83 48.9063 103.834 49.8349 103.034 50.9223C103.01 50.9584 102.979 50.9894 102.943 51.0135C102.907 51.0375 102.866 51.0542 102.824 51.0625C102.781 51.0707 102.737 51.0705 102.695 51.0617C102.652 51.0529 102.612 51.0357 102.576 51.0112C102.103 50.7101 97.9896 48.0748 97.4968 47.5204C97.467 47.4869 97.4443 47.4478 97.4299 47.4054C97.4155 47.3631 97.4097 47.3182 97.4129 47.2736C97.4161 47.2289 97.4282 47.1853 97.4485 47.1454C97.4687 47.1055 97.4968 47.0701 97.531 47.0412C97.5617 47.0085 97.5989 46.9824 97.6401 46.9645C97.6813 46.9467 97.7257 46.9375 97.7706 46.9375C97.8155 46.9375 97.8599 46.9467 97.9011 46.9645C97.9423 46.9824 97.9794 47.0085 98.0102 47.0412C98.3182 47.3835 100.926 49.0947 102.672 50.2378C103.24 49.5122 104.917 47.4998 106.655 47.1576C106.719 47.1445 106.786 47.1505 106.847 47.1748C106.908 47.1991 106.96 47.2407 106.997 47.2945C107.033 47.3496 107.052 47.4138 107.052 47.4793C107.052 47.5448 107.033 47.609 106.997 47.6641L106.039 49.3753L111.748 49.4575C111.837 49.4575 111.922 49.4928 111.985 49.5557C112.048 49.6186 112.083 49.7039 112.083 49.7929C112.083 49.8613 112.083 56.0354 106.292 57.3222C105.716 57.4391 105.128 57.4941 104.54 57.4865V57.4865Z" fill="#1C222B"/>
<path d="M148.765 66.6379L144.658 64.1396L143.686 60.4707L141.783 62.6337C141.783 62.6337 139.045 60.3749 137.32 61.1963C135.951 61.8807 135.267 65.3853 136.636 67.1513C138.005 68.9173 145.897 73.0995 145.897 73.0995" fill="white"/>
<path d="M145.89 73.4421C145.835 73.4425 145.781 73.4283 145.733 73.4011C145.404 73.23 137.724 69.1709 136.362 67.3571C135.424 66.125 135.438 64.2837 135.739 63.0859C135.807 62.6379 135.97 62.2098 136.218 61.8306C136.466 61.4515 136.793 61.1302 137.177 60.8886C138.792 60.1357 140.989 61.5731 141.749 62.1618L143.44 60.2452C143.48 60.1984 143.533 60.1636 143.592 60.1445C143.651 60.1254 143.715 60.1228 143.775 60.1368C143.836 60.1509 143.891 60.1812 143.936 60.2244C143.98 60.2676 144.012 60.3221 144.028 60.3821L144.959 63.9209L148.943 66.344C148.981 66.3678 149.014 66.3989 149.041 66.4355C149.067 66.4721 149.086 66.5135 149.096 66.5574C149.106 66.6013 149.107 66.6468 149.1 66.6912C149.092 66.7356 149.076 66.7781 149.052 66.8163C149.03 66.8549 149 66.8886 148.964 66.9154C148.928 66.9422 148.888 66.9616 148.844 66.9725C148.801 66.9833 148.756 66.9854 148.712 66.9785C148.667 66.9717 148.625 66.9561 148.587 66.9327L144.48 64.4343C144.443 64.4118 144.41 64.3821 144.384 64.3468C144.358 64.3115 144.34 64.2715 144.329 64.2289L143.556 61.1761L142.077 62.86C142.013 62.9211 141.927 62.9551 141.838 62.9551C141.749 62.9551 141.663 62.9211 141.598 62.86C140.914 62.2713 138.771 60.875 137.491 61.491C137.204 61.6938 136.961 61.9532 136.777 62.2534C136.593 62.5535 136.473 62.8881 136.424 63.2364C136.25 63.8539 136.204 64.5006 136.29 65.1364C136.376 65.7722 136.592 66.3835 136.923 66.9327C138.203 68.6234 145.993 72.744 146.075 72.785C146.114 72.8059 146.149 72.8343 146.177 72.8688C146.206 72.9032 146.227 72.9429 146.24 72.9856C146.252 73.0283 146.256 73.0731 146.252 73.1174C146.247 73.1617 146.233 73.2046 146.212 73.2436C146.184 73.3052 146.139 73.3571 146.082 73.3925C146.024 73.4279 145.957 73.4452 145.89 73.4421Z" fill="#1C222B"/>
<path d="M6.77489 125.86C6.70787 125.862 6.64171 125.845 6.58323 125.812C6.50455 125.76 6.44912 125.68 6.42868 125.588C6.40824 125.496 6.42439 125.4 6.47371 125.32L49.0967 57.9454C49.1486 57.8667 49.229 57.8113 49.321 57.7909C49.413 57.7704 49.5093 57.7866 49.5896 57.8359C49.6678 57.8865 49.7231 57.9657 49.7435 58.0565C49.764 58.1474 49.748 58.2427 49.6991 58.3219L7.06922 125.71C7.03734 125.758 6.99348 125.797 6.9419 125.824C6.89031 125.85 6.83277 125.863 6.77489 125.86V125.86Z" fill="#D6DBE3"/>
<path d="M34.3186 121.822C34.2781 121.831 34.2359 121.831 34.1954 121.822C34.1521 121.806 34.1124 121.781 34.0786 121.75C34.0448 121.719 34.0175 121.681 33.9985 121.639C33.9794 121.597 33.9688 121.551 33.9673 121.505C33.9659 121.459 33.9736 121.413 33.99 121.37L57.0025 61.3679C57.0185 61.3246 57.0429 61.2849 57.0743 61.2511C57.1057 61.2173 57.1435 61.19 57.1855 61.1709C57.2275 61.1518 57.2729 61.1413 57.319 61.1398C57.3652 61.1384 57.4111 61.1461 57.4543 61.1625C57.5422 61.1962 57.6132 61.2634 57.6517 61.3494C57.6902 61.4354 57.693 61.5331 57.6596 61.6211L34.654 121.603C34.6258 121.668 34.5789 121.724 34.5193 121.763C34.4596 121.802 34.3898 121.822 34.3186 121.822V121.822Z" fill="#D6DBE3"/>
<path d="M125.8 168.319C125.737 168.318 125.676 168.299 125.622 168.264C125.542 168.216 125.484 168.138 125.461 168.047C125.438 167.956 125.451 167.859 125.499 167.778L162.934 106.037C162.957 105.997 162.988 105.961 163.026 105.933C163.063 105.905 163.105 105.884 163.151 105.873C163.196 105.862 163.243 105.859 163.289 105.866C163.336 105.873 163.38 105.89 163.42 105.914C163.499 105.964 163.556 106.042 163.578 106.133C163.599 106.224 163.585 106.32 163.536 106.4L126.108 168.148C126.076 168.2 126.03 168.243 125.977 168.273C125.923 168.303 125.862 168.319 125.8 168.319V168.319Z" fill="#D6DBE3"/>
<path d="M153.823 166.019H153.721C153.632 165.99 153.558 165.927 153.515 165.844C153.472 165.761 153.462 165.664 153.488 165.574C155.275 159.736 170.929 108.516 171.203 107.954C171.242 107.871 171.314 107.807 171.401 107.776C171.489 107.745 171.584 107.75 171.668 107.79C171.751 107.83 171.816 107.901 171.848 107.988C171.88 108.075 171.877 108.171 171.839 108.255C171.497 109.125 160.134 146.251 154.159 165.752C154.142 165.828 154.099 165.896 154.038 165.945C153.977 165.993 153.901 166.02 153.823 166.019Z" fill="#D6DBE3"/>
<path d="M145.13 162.83C145.088 162.839 145.043 162.839 145 162.83C144.915 162.793 144.846 162.725 144.81 162.64C144.773 162.555 144.77 162.458 144.802 162.371L158.026 129.516C158.063 129.43 158.13 129.362 158.216 129.325C158.301 129.288 158.397 129.285 158.485 129.317C158.528 129.334 158.568 129.36 158.602 129.393C158.636 129.426 158.663 129.465 158.681 129.508C158.7 129.552 158.709 129.598 158.71 129.645C158.71 129.692 158.701 129.739 158.683 129.783L145.459 162.638C145.429 162.699 145.382 162.749 145.324 162.784C145.265 162.818 145.198 162.834 145.13 162.83Z" fill="#D6DBE3"/>
<path d="M26.2279 110.569C26.1675 110.569 26.1082 110.552 26.0568 110.521C26.0161 110.498 25.9801 110.468 25.9511 110.432C25.9221 110.396 25.9006 110.354 25.8878 110.31C25.8751 110.265 25.8713 110.218 25.8769 110.172C25.8824 110.126 25.897 110.082 25.9199 110.041L42.2929 80.7112C42.3157 80.6702 42.3464 80.6341 42.3832 80.605C42.42 80.5759 42.4622 80.5544 42.5074 80.5417C42.5526 80.5289 42.5998 80.5253 42.6464 80.5309C42.693 80.5365 42.738 80.5512 42.7789 80.5743C42.8603 80.6217 42.9202 80.6989 42.9457 80.7896C42.9713 80.8803 42.9605 80.9774 42.9158 81.0603L26.5086 110.391C26.4798 110.441 26.4392 110.483 26.3903 110.514C26.3414 110.545 26.2857 110.564 26.2279 110.569V110.569Z" fill="#D6DBE3"/>
<path d="M23.1546 132.677C23.1118 132.687 23.0674 132.687 23.0246 132.677C22.9808 132.66 22.941 132.634 22.9075 132.601C22.874 132.568 22.8475 132.529 22.8296 132.485C22.8117 132.442 22.8028 132.395 22.8034 132.348C22.8039 132.301 22.814 132.255 22.8329 132.212L27.111 121.945C27.1487 121.859 27.2182 121.791 27.305 121.755C27.3918 121.719 27.4891 121.718 27.5764 121.753C27.6611 121.792 27.7276 121.862 27.762 121.949C27.7964 122.035 27.7962 122.132 27.7612 122.218L23.4832 132.486C23.4528 132.546 23.4056 132.596 23.3473 132.63C23.289 132.664 23.2221 132.681 23.1546 132.677Z" fill="#D6DBE3"/>
<path d="M133.289 168.675C133.228 168.676 133.169 168.66 133.118 168.627C133.077 168.605 133.041 168.575 133.012 168.539C132.983 168.503 132.961 168.461 132.949 168.416C132.936 168.372 132.932 168.325 132.938 168.279C132.943 168.233 132.958 168.188 132.981 168.148L140.024 155.376C140.069 155.294 140.145 155.234 140.235 155.208C140.325 155.182 140.422 155.193 140.503 155.239C140.585 155.284 140.645 155.36 140.671 155.45C140.697 155.54 140.686 155.636 140.64 155.718L133.59 168.49C133.561 168.545 133.517 168.591 133.464 168.624C133.411 168.656 133.351 168.674 133.289 168.675V168.675Z" fill="#D6DBE3"/>
<path d="M84.5107 241.669C110.565 241.669 131.687 238.831 131.687 235.331C131.687 231.831 110.565 228.993 84.5107 228.993C58.456 228.993 37.3345 231.831 37.3345 235.331C37.3345 238.831 58.456 241.669 84.5107 241.669Z" fill="#D6DBE3"/>
</svg>
