<svg width="575" height="427" viewBox="0 0 575 427" fill="none" xmlns="http://www.w3.org/2000/svg">
<path d="M439.205 17.4625C439.205 13.6782 442.115 10.5297 445.887 10.2313L566.234 0.713625C570.452 0.380008 574.06 3.71324 574.06 7.94483V130.898C574.06 134.904 570.812 138.152 566.806 138.152H446.459C442.453 138.152 439.205 134.904 439.205 130.898V17.4625Z" fill="#FF7D00"/>
<path d="M0.768311 301.75C0.768311 297.744 4.01594 294.496 8.0221 294.496H121.667C125.633 294.496 128.864 297.681 128.92 301.647L130.585 418.705C130.644 422.908 127.132 426.281 122.935 426.051L7.62574 419.741C3.77934 419.531 0.768311 416.351 0.768311 412.498V301.75Z" fill="url(#paint0_linear_0_1)"/>
<defs>
<linearGradient id="paint0_linear_0_1" x1="75.1345" y1="353.154" x2="93.0198" y2="330.006" gradientUnits="userSpaceOnUse">
<stop stop-color="#0FBFC4"/>
<stop offset="1" stop-color="#0FBFC4" stop-opacity="0"/>
</linearGradient>
</defs>
</svg>
