<svg width="1720" height="356" viewBox="0 0 1720 356" fill="none" xmlns="http://www.w3.org/2000/svg">
<g clip-path="url(#clip0_480_14360)">
<path fill-rule="evenodd" clip-rule="evenodd" d="M311.544 243.302L309.558 247.898C309.526 247.956 309.495 248.014 309.464 248.073C305.877 254.819 308.438 263.195 315.184 266.782C321.93 270.369 330.307 267.808 333.894 261.062C334.121 260.634 334.324 260.2 334.503 259.76C350.783 226.136 352.652 191.704 337.524 157.277C317.217 111.064 280.769 85.3948 230.433 83.23C181.6 81.1298 145.142 103.342 119.552 144.565C119.107 145.152 118.703 145.782 118.346 146.453C118.253 146.626 118.165 146.801 118.081 146.976C118.078 146.981 118.076 146.985 118.073 146.99L118.074 146.991C114.897 153.638 117.498 161.67 124.066 165.163C130.812 168.75 139.188 166.189 142.775 159.443C143.117 158.8 143.403 158.143 143.634 157.477C143.824 157.18 144.014 156.883 144.203 156.586L144.203 156.585C145.678 154.271 147.128 151.995 148.689 149.798C161.952 131.117 179.759 118.925 201.923 113.111C216.971 109.163 232.146 108.9 247.278 112.606C271.326 118.496 290.602 131.593 304.203 152.272C320.349 176.824 323.998 203.493 316.114 231.709C315.765 232.957 315.293 234.17 314.783 235.477C314.494 236.217 314.194 236.986 313.898 237.81C313.04 239.888 312.292 241.595 311.544 243.302ZM237.188 209.73L237.153 209.794L237.154 209.795L237.126 209.844C237.065 209.954 237.004 210.062 236.941 210.17C218.155 243.145 190.533 264.612 153.055 271.388C103.349 280.375 61.6454 264.49 31.6594 223.947C2.38405 184.364 0.377733 141.24 20.6429 96.6646C20.8598 96.0735 21.1195 95.4903 21.4234 94.9187C25.0104 88.1726 33.387 85.6116 40.133 89.1986C46.8791 92.7855 49.4401 101.162 45.8532 107.908C45.6999 108.197 45.5378 108.477 45.3675 108.75C44.9845 109.646 44.5992 110.533 44.2161 111.415L44.2157 111.416L44.2152 111.417L44.2148 111.418C43.121 113.935 42.0459 116.41 41.0969 118.932C33.0295 140.376 32.8888 161.961 40.4786 183.597C45.6313 198.285 53.9114 211.019 65.46 221.5C83.8131 238.155 105.473 246.824 130.243 246.546C159.651 246.217 183.816 234.337 202.805 212.025C203.645 211.039 204.386 209.968 205.186 208.815C205.637 208.162 206.108 207.483 206.625 206.777C207.365 205.662 208.784 203.285 210.021 201.211L210.022 201.21L210.023 201.208L210.025 201.204L210.027 201.201C210.866 199.795 211.621 198.531 212.023 197.896L212.544 197.167C212.624 197.001 212.708 196.836 212.795 196.673C216.382 189.926 224.758 187.365 231.504 190.952C238.25 194.539 240.811 202.916 237.224 209.662L237.188 209.73ZM165.495 172.365C162.287 177.852 158.156 182.752 153.079 186.682C146.868 191.401 140.12 194.384 132.626 195.696C117.92 198.272 103.124 192.315 95.7276 180.745C86.6253 166.506 85.319 151.574 92.2057 136.007L93.0768 133.875L93.0269 133.849C93.1565 133.634 93.2812 133.414 93.4005 133.19C96.9874 126.443 94.4264 118.067 87.6803 114.48C80.9342 110.893 72.5577 113.454 68.9707 120.2C68.8353 120.455 68.7087 120.712 68.5908 120.97L68.5669 120.96C68.1225 122.096 67.6641 123.226 67.2076 124.351C65.8977 127.581 64.6029 130.773 63.6987 133.965C57.0647 157.384 60.4005 179.195 74.9153 198.767C84.9496 212.297 98.6333 220.509 115.241 222.972C137.409 226.259 156.971 219.772 173.851 205.005C180.188 199.461 185.369 192.634 189.293 185.018L189.282 185.012C198.578 170.11 213.218 161.837 230.084 161.414C243.801 161.07 256.998 169.997 263.075 183.623C266.172 190.567 267.468 197.827 267.025 205.613C266.604 212.018 264.376 217.628 261.62 223.356L261.63 223.361C258.476 230.002 261.079 238.014 267.637 241.501C274.194 244.988 282.292 242.665 286.034 236.337L286.042 236.341C286.085 236.263 286.127 236.185 286.17 236.107L286.238 235.981C286.275 235.915 286.311 235.848 286.346 235.781L286.364 235.748L286.387 235.703C290.306 228.382 292.78 220.69 293.806 212.574C296.617 190.326 291.069 170.488 275.968 153.959C264.655 141.576 250.21 134.832 233.396 134.087C209.075 133.009 189.14 142.447 173.439 161.045C170.562 164.453 167.946 168.176 165.51 172.373L165.495 172.365Z" fill="white"/>
</g>
<path d="M435.069 251.214C431.612 251.214 428.776 250.522 426.563 249.139C424.488 247.756 423.036 245.889 422.206 243.538C421.515 241.048 421.515 238.351 422.206 235.446C423.036 232.403 424.627 229.291 426.978 226.11L506.231 118.641V127.148H432.995C429.122 127.148 426.148 126.179 424.074 124.243C422.137 122.307 421.169 119.54 421.169 115.944C421.169 112.348 422.137 109.651 424.074 107.853C426.148 105.917 429.122 104.948 432.995 104.948H518.887C522.345 104.948 525.111 105.64 527.186 107.023C529.399 108.406 530.851 110.273 531.542 112.625C532.372 114.976 532.372 117.673 531.542 120.716C530.851 123.759 529.329 126.871 526.978 130.052L447.725 237.313V229.015H524.074C527.946 229.015 530.851 229.983 532.787 231.919C534.862 233.717 535.899 236.414 535.899 240.011C535.899 243.607 534.862 246.373 532.787 248.309C530.851 250.246 527.946 251.214 524.074 251.214H435.069Z" fill="white"/>
<path d="M599.14 253.289C587.66 253.289 577.771 251.145 569.472 246.857C561.173 242.569 554.742 236.484 550.177 228.6C545.751 220.716 543.538 211.38 543.538 200.591C543.538 190.08 545.682 180.882 549.97 172.998C554.396 165.114 560.412 158.959 568.02 154.533C575.765 149.969 584.548 147.687 594.368 147.687C601.56 147.687 607.992 148.863 613.663 151.214C619.472 153.565 624.382 156.954 628.393 161.38C632.542 165.806 635.654 171.2 637.729 177.562C639.942 183.787 641.049 190.84 641.049 198.724C641.049 201.214 640.15 203.15 638.352 204.533C636.692 205.778 634.271 206.401 631.09 206.401H564.493V191.463H622.791L619.472 194.575C619.472 188.213 618.504 182.887 616.567 178.6C614.769 174.312 612.072 171.062 608.476 168.849C605.018 166.497 600.661 165.322 595.406 165.322C589.596 165.322 584.617 166.705 580.468 169.471C576.457 172.099 573.345 175.903 571.132 180.882C569.057 185.723 568.02 191.532 568.02 198.309V199.762C568.02 211.103 570.648 219.609 575.903 225.28C581.298 230.813 589.181 233.579 599.555 233.579C603.151 233.579 607.162 233.164 611.588 232.334C616.152 231.366 620.44 229.775 624.451 227.562C627.356 225.903 629.914 225.211 632.128 225.488C634.341 225.626 636.069 226.387 637.314 227.77C638.697 229.153 639.527 230.882 639.804 232.957C640.08 234.893 639.666 236.899 638.559 238.973C637.591 241.048 635.862 242.846 633.372 244.367C628.531 247.41 622.93 249.692 616.567 251.214C610.343 252.597 604.534 253.289 599.14 253.289Z" fill="white"/>
<path d="M711.586 253.289C700.107 253.289 690.217 251.145 681.918 246.857C673.62 242.569 667.188 236.484 662.624 228.6C658.198 220.716 655.985 211.38 655.985 200.591C655.985 190.08 658.129 180.882 662.416 172.998C666.842 165.114 672.859 158.959 680.466 154.533C688.212 149.969 696.994 147.687 706.815 147.687C714.007 147.687 720.438 148.863 726.109 151.214C731.918 153.565 736.829 156.954 740.84 161.38C744.989 165.806 748.101 171.2 750.176 177.562C752.389 183.787 753.495 190.84 753.495 198.724C753.495 201.214 752.596 203.15 750.798 204.533C749.138 205.778 746.718 206.401 743.537 206.401H676.939V191.463H735.238L731.918 194.575C731.918 188.213 730.95 182.887 729.014 178.6C727.216 174.312 724.519 171.062 720.923 168.849C717.465 166.497 713.108 165.322 707.852 165.322C702.043 165.322 697.064 166.705 692.914 169.471C688.903 172.099 685.791 175.903 683.578 180.882C681.503 185.723 680.466 191.532 680.466 198.309V199.762C680.466 211.103 683.094 219.609 688.35 225.28C693.744 230.813 701.628 233.579 712.001 233.579C715.598 233.579 719.609 233.164 724.035 232.334C728.599 231.366 732.887 229.775 736.898 227.562C739.802 225.903 742.361 225.211 744.574 225.488C746.787 225.626 748.516 226.387 749.761 227.77C751.144 229.153 751.974 230.882 752.25 232.957C752.527 234.893 752.112 236.899 751.006 238.973C750.037 241.048 748.308 242.846 745.819 244.367C740.978 247.41 735.376 249.692 729.014 251.214C722.79 252.597 716.981 253.289 711.586 253.289Z" fill="white"/>
<path d="M827.975 252.874C824.24 252.874 821.198 251.975 818.846 250.177C816.633 248.378 814.835 245.543 813.452 241.67L770.091 119.056C768.57 114.63 768.846 110.896 770.921 107.853C773.134 104.81 776.799 103.289 781.917 103.289C785.651 103.289 788.556 104.188 790.63 105.986C792.705 107.645 794.365 110.343 795.61 114.077L832.954 224.865H824.655L863.66 114.284C865.043 110.55 866.772 107.784 868.846 105.986C870.921 104.188 873.618 103.289 876.938 103.289C880.257 103.289 882.885 104.188 884.821 105.986C886.758 107.784 888.417 110.619 889.801 114.492L927.56 224.865H920.299L958.265 114.077C959.51 110.481 961.17 107.784 963.245 105.986C965.319 104.188 968.155 103.289 971.751 103.289C976.177 103.289 979.427 104.81 981.502 107.853C983.577 110.896 983.853 114.63 982.332 119.056L938.556 241.878C937.173 245.612 935.375 248.378 933.162 250.177C930.949 251.975 927.975 252.874 924.24 252.874C920.506 252.874 917.532 251.975 915.319 250.177C913.106 248.378 911.308 245.543 909.925 241.67L873.826 138.766H878.597L842.083 241.878C840.7 245.612 838.902 248.378 836.689 250.177C834.614 251.975 831.709 252.874 827.975 252.874Z" fill="white"/>
<path d="M1038.3 253.289C1027.79 253.289 1018.66 251.145 1010.92 246.857C1003.17 242.569 997.155 236.484 992.867 228.6C988.58 220.578 986.436 211.172 986.436 200.384C986.436 192.224 987.611 184.962 989.963 178.6C992.452 172.099 995.979 166.567 1000.54 162.002C1005.11 157.3 1010.57 153.773 1016.93 151.421C1023.3 148.932 1030.42 147.687 1038.3 147.687C1048.81 147.687 1057.94 149.831 1065.69 154.118C1073.43 158.406 1079.45 164.492 1083.74 172.376C1088.03 180.26 1090.17 189.596 1090.17 200.384C1090.17 208.544 1088.93 215.875 1086.44 222.376C1084.08 228.876 1080.63 234.478 1076.06 239.181C1071.5 243.745 1066.03 247.272 1059.67 249.762C1053.31 252.113 1046.19 253.289 1038.3 253.289ZM1038.3 233.579C1043.42 233.579 1047.92 232.334 1051.79 229.845C1055.66 227.355 1058.63 223.69 1060.71 218.849C1062.92 213.869 1064.03 207.715 1064.03 200.384C1064.03 189.319 1061.68 181.089 1056.98 175.695C1052.27 170.163 1046.05 167.396 1038.3 167.396C1033.19 167.396 1028.69 168.641 1024.82 171.131C1020.94 173.482 1017.9 177.147 1015.69 182.127C1013.61 186.968 1012.58 193.053 1012.58 200.384C1012.58 211.311 1014.93 219.609 1019.63 225.28C1024.33 230.813 1030.56 233.579 1038.3 233.579Z" fill="white"/>
<path d="M1124.85 252.874C1120.57 252.874 1117.25 251.767 1114.89 249.554C1112.68 247.203 1111.58 243.883 1111.58 239.596V161.172C1111.58 156.885 1112.68 153.634 1114.89 151.421C1117.11 149.208 1120.22 148.102 1124.23 148.102C1128.24 148.102 1131.35 149.208 1133.57 151.421C1135.78 153.634 1136.89 156.885 1136.89 161.172V174.243H1134.81C1136.75 165.944 1140.55 159.651 1146.22 155.363C1151.89 151.076 1159.43 148.517 1168.84 147.687C1171.74 147.41 1174.02 148.171 1175.68 149.969C1177.48 151.629 1178.52 154.257 1178.8 157.853C1179.07 161.311 1178.24 164.146 1176.31 166.359C1174.51 168.434 1171.74 169.679 1168.01 170.094L1163.44 170.508C1155.01 171.338 1148.64 173.966 1144.36 178.392C1140.07 182.68 1137.92 188.766 1137.92 196.65V239.596C1137.92 243.883 1136.82 247.203 1134.6 249.554C1132.39 251.767 1129.14 252.874 1124.85 252.874Z" fill="white"/>
<path d="M1205.68 252.874C1201.53 252.874 1198.35 251.767 1196.14 249.554C1193.93 247.203 1192.82 243.883 1192.82 239.596V116.359C1192.82 112.071 1193.93 108.821 1196.14 106.608C1198.35 104.395 1201.53 103.289 1205.68 103.289C1209.83 103.289 1213.01 104.395 1215.23 106.608C1217.58 108.821 1218.75 112.071 1218.75 116.359V192.915H1219.17L1253.4 156.816C1256.17 154.049 1258.59 151.905 1260.66 150.384C1262.74 148.863 1265.57 148.102 1269.17 148.102C1272.76 148.102 1275.46 149.07 1277.26 151.006C1279.2 152.804 1280.16 155.017 1280.16 157.645C1280.16 160.273 1278.92 162.901 1276.43 165.529L1240.33 203.704V192.915L1279.96 235.654C1282.45 238.282 1283.55 240.979 1283.28 243.745C1283.14 246.373 1282.03 248.586 1279.96 250.384C1277.88 252.044 1275.25 252.874 1272.07 252.874C1268.2 252.874 1265.09 252.113 1262.74 250.591C1260.52 249.07 1258.03 246.788 1255.27 243.745L1219.17 205.986H1218.75V239.596C1218.75 248.448 1214.4 252.874 1205.68 252.874Z" fill="white"/>
<path d="M1323.97 252.874C1319.82 252.874 1316.57 251.767 1314.22 249.554C1312 247.203 1310.9 243.883 1310.9 239.596V169.264H1301.35C1298.03 169.264 1295.48 168.434 1293.68 166.774C1291.88 164.976 1290.98 162.556 1290.98 159.513C1290.98 156.331 1291.88 153.911 1293.68 152.251C1295.48 150.591 1298.03 149.762 1301.35 149.762H1318.37L1310.9 156.608V149.554C1310.9 135.308 1314.49 124.658 1321.69 117.604C1328.88 110.412 1339.25 106.193 1352.81 104.948L1359.86 104.326C1362.63 104.049 1364.84 104.533 1366.5 105.778C1368.16 106.885 1369.27 108.406 1369.82 110.343C1370.37 112.141 1370.44 114.008 1370.03 115.944C1369.61 117.881 1368.71 119.609 1367.33 121.131C1366.08 122.514 1364.42 123.275 1362.35 123.413L1359.45 123.621C1351.56 124.174 1345.82 126.179 1342.23 129.637C1338.63 133.095 1336.83 138.351 1336.83 145.405V153.081L1333.51 149.762H1354.47C1357.79 149.762 1360.34 150.591 1362.14 152.251C1363.94 153.911 1364.84 156.331 1364.84 159.513C1364.84 162.556 1363.94 164.976 1362.14 166.774C1360.34 168.434 1357.79 169.264 1354.47 169.264H1336.83V239.596C1336.83 248.448 1332.54 252.874 1323.97 252.874ZM1414.22 253.289C1402.74 253.289 1394.09 250.038 1388.28 243.538C1382.47 236.899 1379.57 227.217 1379.57 214.492V116.359C1379.57 112.071 1380.68 108.821 1382.89 106.608C1385.1 104.395 1388.28 103.289 1392.43 103.289C1396.58 103.289 1399.76 104.395 1401.98 106.608C1404.33 108.821 1405.5 112.071 1405.5 116.359V213.247C1405.5 219.609 1406.82 224.312 1409.45 227.355C1412.21 230.398 1416.08 231.919 1421.06 231.919C1422.17 231.919 1423.21 231.919 1424.18 231.919C1425.14 231.781 1426.11 231.643 1427.08 231.504C1429.02 231.228 1430.33 231.781 1431.02 233.164C1431.71 234.409 1432.06 237.037 1432.06 241.048C1432.06 244.506 1431.37 247.203 1429.98 249.139C1428.6 251.076 1426.32 252.251 1423.14 252.666C1421.76 252.804 1420.3 252.943 1418.78 253.081C1417.26 253.219 1415.74 253.289 1414.22 253.289Z" fill="white"/>
<path d="M1490.93 253.289C1480.41 253.289 1471.29 251.145 1463.54 246.857C1455.79 242.569 1449.78 236.484 1445.49 228.6C1441.2 220.578 1439.06 211.172 1439.06 200.384C1439.06 192.224 1440.23 184.962 1442.59 178.6C1445.07 172.099 1448.6 166.567 1453.17 162.002C1457.73 157.3 1463.19 153.773 1469.56 151.421C1475.92 148.932 1483.04 147.687 1490.93 147.687C1501.44 147.687 1510.57 149.831 1518.31 154.118C1526.06 158.406 1532.07 164.492 1536.36 172.376C1540.65 180.26 1542.79 189.596 1542.79 200.384C1542.79 208.544 1541.55 215.875 1539.06 222.376C1536.71 228.876 1533.25 234.478 1528.68 239.181C1524.12 243.745 1518.66 247.272 1512.29 249.762C1505.93 252.113 1498.81 253.289 1490.93 253.289ZM1490.93 233.579C1496.04 233.579 1500.54 232.334 1504.41 229.845C1508.28 227.355 1511.26 223.69 1513.33 218.849C1515.54 213.869 1516.65 207.715 1516.65 200.384C1516.65 189.319 1514.3 181.089 1509.6 175.695C1504.89 170.163 1498.67 167.396 1490.93 167.396C1485.81 167.396 1481.31 168.641 1477.44 171.131C1473.57 173.482 1470.52 177.147 1468.31 182.127C1466.24 186.968 1465.2 193.053 1465.2 200.384C1465.2 211.311 1467.55 219.609 1472.25 225.28C1476.96 230.813 1483.18 233.579 1490.93 233.579Z" fill="white"/>
<path d="M1601.38 252.874C1597.93 252.874 1594.95 252.044 1592.46 250.384C1589.97 248.586 1587.97 245.82 1586.45 242.085L1556.36 165.322C1555.12 162.002 1554.7 159.098 1555.12 156.608C1555.67 153.98 1556.98 151.905 1559.06 150.384C1561.13 148.863 1563.9 148.102 1567.36 148.102C1570.4 148.102 1572.89 148.863 1574.83 150.384C1576.76 151.767 1578.42 154.464 1579.81 158.475L1604.91 227.562H1600.14L1626.07 156.816C1627.18 153.773 1628.63 151.56 1630.43 150.177C1632.37 148.793 1634.85 148.102 1637.9 148.102C1640.94 148.102 1643.43 148.863 1645.37 150.384C1647.3 151.767 1648.76 153.911 1649.72 156.816L1675.24 227.562H1670.89L1696.2 157.853C1697.58 154.118 1699.31 151.56 1701.38 150.177C1703.6 148.793 1706.02 148.102 1708.64 148.102C1711.96 148.102 1714.52 148.932 1716.32 150.591C1718.12 152.251 1719.16 154.395 1719.43 157.023C1719.71 159.513 1719.23 162.279 1717.98 165.322L1688.11 242.085C1686.72 245.681 1684.72 248.378 1682.09 250.177C1679.6 251.975 1676.63 252.874 1673.17 252.874C1669.71 252.874 1666.67 251.975 1664.04 250.177C1661.55 248.378 1659.61 245.681 1658.23 242.085L1631.05 170.094H1642.88L1616.32 241.878C1614.94 245.612 1613 248.378 1610.51 250.177C1608.02 251.975 1604.98 252.874 1601.38 252.874Z" fill="white"/>
<defs>
<clipPath id="clip0_480_14360">
<rect y="0.788574" width="355" height="355" rx="50" fill="white"/>
</clipPath>
</defs>
</svg>
