<svg width="341" height="192" viewBox="0 0 341 192" fill="none" xmlns="http://www.w3.org/2000/svg">
<path fill-rule="evenodd" clip-rule="evenodd" d="M304.544 160.513L302.558 165.109C302.526 165.167 302.495 165.225 302.464 165.284C298.877 172.03 301.438 180.406 308.184 183.993C314.93 187.58 323.307 185.019 326.894 178.273C327.121 177.845 327.324 177.411 327.503 176.971C343.783 143.347 345.652 108.915 330.524 74.4881C310.217 28.2749 273.769 2.60594 223.433 0.441136C174.6 -1.65897 138.142 20.5528 112.552 61.7764C112.107 62.3629 111.703 62.9929 111.346 63.6643C111.253 63.8376 111.165 64.0121 111.081 64.1875C111.078 64.192 111.076 64.1966 111.073 64.2011L111.074 64.2018C107.897 70.8493 110.498 78.8816 117.066 82.3739C123.812 85.9609 132.188 83.3999 135.775 76.6538C136.117 76.0116 136.403 75.3546 136.634 74.6883C136.824 74.3907 137.014 74.0937 137.203 73.7973L137.203 73.7966C138.678 71.482 140.128 69.2066 141.688 67.0093C154.952 48.3284 172.759 36.1365 194.923 30.3217C209.971 26.3741 225.146 26.111 240.278 29.8171C264.326 35.7068 283.602 48.8037 297.203 69.4835C313.349 94.035 316.998 120.704 309.114 148.92C308.765 150.168 308.293 151.381 307.783 152.689C307.494 153.428 307.194 154.198 306.898 155.021C306.04 157.099 305.292 158.807 304.544 160.513ZM230.188 126.941L230.153 127.005L230.154 127.006L230.126 127.055C230.065 127.165 230.004 127.274 229.941 127.381C211.155 160.356 183.533 181.824 146.055 188.6C96.3494 197.586 54.6454 181.702 24.6594 141.158C-4.61595 101.575 -6.62228 58.4513 13.6429 13.8758C13.8597 13.2847 14.1195 12.7014 14.4234 12.1299C18.0104 5.38378 26.3869 2.82279 33.1331 6.40976C39.8791 9.99671 42.4401 18.3733 38.8532 25.1194C38.6998 25.4078 38.5378 25.6884 38.3675 25.9613C37.9845 26.8575 37.5992 27.7444 37.2161 28.6261L37.2157 28.6271L37.2152 28.6281L37.2148 28.6289C36.121 31.1466 35.0459 33.6213 34.0969 36.1437C26.0295 57.5874 25.8888 79.1724 33.4786 100.808C38.6313 115.496 46.9114 128.23 58.46 138.711C76.8131 155.366 98.4726 164.035 123.243 163.758C152.651 163.428 176.816 151.548 195.805 129.237C196.645 128.25 197.386 127.18 198.186 126.026C198.637 125.373 199.108 124.694 199.625 123.988C200.365 122.873 201.784 120.496 203.021 118.422L203.022 118.421L203.023 118.419L203.025 118.415L203.027 118.412C203.866 117.007 204.621 115.742 205.023 115.107L205.544 114.378C205.624 114.212 205.708 114.047 205.795 113.884C209.382 107.138 217.758 104.577 224.504 108.164C231.25 111.751 233.811 120.127 230.224 126.873L230.188 126.941ZM158.495 89.5761C155.287 95.0636 151.156 99.9632 146.079 103.893C139.868 108.612 133.12 111.595 125.626 112.907C110.92 115.483 96.1243 109.526 88.7276 97.9558C79.6253 83.7172 78.319 68.7853 85.2056 53.2185L86.0768 51.0858L86.0269 51.0599C86.1565 50.8449 86.2812 50.6251 86.4005 50.4008C89.9874 43.6547 87.4264 35.2781 80.6803 31.6911C73.9342 28.1041 65.5577 30.6651 61.9707 37.4112C61.8353 37.6658 61.7087 37.9227 61.5908 38.1816L61.5669 38.1707C61.1225 39.307 60.6641 40.4371 60.2075 41.5626C58.8977 44.7918 57.6029 47.9838 56.6987 51.176C50.0647 74.5953 53.4005 96.4065 67.9153 115.978C77.9496 129.508 91.6333 137.721 108.241 140.183C130.409 143.47 149.971 136.983 166.851 122.216C173.188 116.672 178.369 109.846 182.293 102.23L182.282 102.224C191.578 87.3211 206.218 79.048 223.084 78.6249C236.801 78.2808 249.998 87.208 256.075 100.834C259.172 107.778 260.468 115.038 260.025 122.824C259.604 129.229 257.376 134.839 254.62 140.567L254.63 140.572C251.476 147.213 254.079 155.225 260.637 158.712C267.194 162.199 275.292 159.877 279.034 153.548L279.042 153.552C279.085 153.474 279.127 153.396 279.17 153.318L279.238 153.192C279.275 153.126 279.311 153.059 279.346 152.992L279.364 152.96L279.387 152.914C283.306 145.593 285.78 137.902 286.806 129.785C289.617 107.537 284.069 87.6992 268.968 71.17C257.655 58.7869 243.21 52.0432 226.396 51.298C202.075 50.2199 182.14 59.6578 166.439 78.2562C163.562 81.6645 160.946 85.3874 158.51 89.5841L158.495 89.5761Z" fill="white"/>
</svg>
