<svg width="1793" height="209" viewBox="0 0 1793 209" fill="none" xmlns="http://www.w3.org/2000/svg">
<path d="M20.0141 205.139C15.2422 205.139 11.3292 204.185 8.27521 202.276C5.41207 200.367 3.40788 197.79 2.26262 194.545C1.30824 191.11 1.30824 187.388 2.26262 183.379C3.40788 179.18 5.60295 174.885 8.84783 170.495L118.22 22.1848V33.9236H17.1509C11.8064 33.9236 7.70258 32.5875 4.83944 29.9152C2.16718 27.243 0.831055 23.4255 0.831055 18.4627C0.831055 13.4999 2.16718 9.77785 4.83944 7.29646C7.70258 4.6242 11.8064 3.28808 17.1509 3.28808H135.685C140.457 3.28808 144.274 4.24245 147.137 6.1512C150.191 8.05996 152.195 10.6368 153.15 13.8817C154.295 17.1266 154.295 20.8486 153.15 25.0479C152.195 29.2472 150.096 33.5419 146.851 37.932L37.4792 185.956V174.504H142.843C148.187 174.504 152.195 175.84 154.868 178.512C157.731 180.993 159.162 184.715 159.162 189.678C159.162 194.641 157.731 198.458 154.868 201.131C152.195 203.803 148.187 205.139 142.843 205.139H20.0141Z" fill="#0FBFC4"/>
<path d="M246.437 208.002C230.594 208.002 216.946 205.044 205.494 199.127C194.041 193.209 185.165 184.811 178.867 173.931C172.759 163.051 169.705 150.167 169.705 135.279C169.705 120.772 172.663 108.079 178.58 97.1989C184.688 86.319 192.991 77.825 203.49 71.717C214.179 65.4181 226.299 62.2687 239.851 62.2687C249.777 62.2687 258.653 63.8911 266.478 67.136C274.495 70.3809 281.271 75.0573 286.807 81.1653C292.533 87.2734 296.828 94.7175 299.691 103.498C302.745 112.087 304.272 121.822 304.272 132.702C304.272 136.138 303.031 138.81 300.55 140.719C298.259 142.436 294.919 143.295 290.529 143.295H198.622V122.681H279.076L274.495 126.975C274.495 118.195 273.159 110.847 270.487 104.929C268.005 99.0122 264.283 94.5266 259.321 91.4726C254.549 88.2277 248.536 86.6053 241.283 86.6053C233.266 86.6053 226.395 88.5141 220.668 92.3316C215.133 95.9582 210.838 101.207 207.784 108.079C204.921 114.759 203.49 122.776 203.49 132.129V134.133C203.49 149.785 207.116 161.524 214.369 169.35C221.814 176.985 232.694 180.802 247.009 180.802C251.972 180.802 257.507 180.23 263.615 179.085C269.914 177.748 275.831 175.553 281.367 172.499C285.375 170.209 288.906 169.254 291.96 169.636C295.014 169.827 297.4 170.877 299.118 172.786C301.027 174.694 302.172 177.08 302.554 179.943C302.936 182.616 302.363 185.383 300.836 188.247C299.5 191.11 297.114 193.591 293.678 195.691C286.998 199.89 279.267 203.039 270.487 205.139C261.897 207.048 253.881 208.002 246.437 208.002Z" fill="#0FBFC4"/>
<path d="M401.616 208.002C385.774 208.002 372.126 205.044 360.673 199.127C349.221 193.209 340.345 184.811 334.046 173.931C327.938 163.051 324.884 150.167 324.884 135.279C324.884 120.772 327.843 108.079 333.76 97.1989C339.868 86.319 348.171 77.825 358.669 71.717C369.358 65.4181 381.479 62.2687 395.031 62.2687C404.957 62.2687 413.832 63.8911 421.658 67.136C429.675 70.3809 436.451 75.0573 441.986 81.1653C447.713 87.2734 452.007 94.7175 454.871 103.498C457.925 112.087 459.452 121.822 459.452 132.702C459.452 136.138 458.211 138.81 455.729 140.719C453.439 142.436 450.099 143.295 445.709 143.295H353.802V122.681H434.256L429.675 126.975C429.675 118.195 428.339 110.847 425.667 104.929C423.185 99.0122 419.463 94.5266 414.5 91.4726C409.728 88.2277 403.716 86.6053 396.463 86.6053C388.446 86.6053 381.574 88.5141 375.848 92.3316C370.313 95.9582 366.018 101.207 362.964 108.079C360.101 114.759 358.669 122.776 358.669 132.129V134.133C358.669 149.785 362.296 161.524 369.549 169.35C376.993 176.985 387.873 180.802 402.189 180.802C407.152 180.802 412.687 180.23 418.795 179.085C425.094 177.748 431.011 175.553 436.546 172.499C440.555 170.209 444.086 169.254 447.14 169.636C450.194 169.827 452.58 170.877 454.298 172.786C456.207 174.694 457.352 177.08 457.734 179.943C458.115 182.616 457.543 185.383 456.016 188.247C454.68 191.11 452.294 193.591 448.858 195.691C442.177 199.89 434.447 203.039 425.667 205.139C417.077 207.048 409.06 208.002 401.616 208.002Z" fill="#0FBFC4"/>
<path d="M562.236 207.43C557.082 207.43 552.883 206.189 549.638 203.707C546.584 201.226 544.103 197.313 542.194 191.969L482.354 22.7574C480.255 16.6494 480.637 11.4957 483.5 7.29646C486.554 3.0972 491.612 0.997559 498.674 0.997559C503.828 0.997559 507.836 2.23826 510.699 4.71964C513.563 7.01015 515.853 10.7322 517.571 15.8859L569.107 168.777H557.655L611.482 16.1722C613.391 11.0185 615.776 7.20103 618.64 4.71964C621.503 2.23826 625.225 0.997559 629.806 0.997559C634.387 0.997559 638.014 2.23826 640.686 4.71964C643.358 7.20103 645.649 11.114 647.557 16.4585L699.666 168.777H689.645L742.041 15.8859C743.759 10.9231 746.049 7.20103 748.912 4.71964C751.775 2.23826 755.688 0.997559 760.651 0.997559C766.759 0.997559 771.245 3.0972 774.108 7.29646C776.971 11.4957 777.353 16.6494 775.253 22.7574L714.841 192.255C712.932 197.409 710.451 201.226 707.397 203.707C704.343 206.189 700.239 207.43 695.085 207.43C689.932 207.43 685.828 206.189 682.774 203.707C679.72 201.226 677.238 197.313 675.33 191.969L625.511 49.9572H632.096L581.705 192.255C579.796 197.409 577.315 201.226 574.261 203.707C571.398 206.189 567.389 207.43 562.236 207.43Z" fill="#0FBFC4"/>
<path d="M852.495 208.002C837.988 208.002 825.391 205.044 814.702 199.127C804.013 193.209 795.71 184.811 789.792 173.931C783.875 162.86 780.917 149.881 780.917 134.992C780.917 123.731 782.539 113.71 785.784 104.929C789.22 95.9582 794.087 88.3232 800.386 82.0243C806.685 75.5345 814.225 70.6672 823.005 67.4223C831.785 63.9865 841.615 62.2687 852.495 62.2687C867.002 62.2687 879.599 65.2272 890.288 71.1444C900.977 77.0615 909.281 85.46 915.198 96.34C921.115 107.22 924.073 120.104 924.073 134.992C924.073 146.254 922.356 156.37 918.92 165.342C915.675 174.313 910.903 182.043 904.604 188.533C898.305 194.832 890.766 199.699 881.985 203.135C873.205 206.38 863.375 208.002 852.495 208.002ZM852.495 180.802C859.557 180.802 865.761 179.085 871.105 175.649C876.45 172.213 880.554 167.155 883.417 160.474C886.471 153.603 887.998 145.109 887.998 134.992C887.998 119.722 884.753 108.365 878.263 100.921C871.773 93.2859 863.184 89.4684 852.495 89.4684C845.433 89.4684 839.229 91.1863 833.885 94.6221C828.54 97.867 824.341 102.925 821.287 109.797C818.424 116.477 816.992 124.876 816.992 134.992C816.992 150.071 820.237 161.524 826.727 169.35C833.217 176.985 841.806 180.802 852.495 180.802Z" fill="#0FBFC4"/>
<path d="M971.937 207.43C966.02 207.43 961.439 205.903 958.194 202.849C955.14 199.604 953.613 195.023 953.613 189.106V80.879C953.613 74.9619 955.14 70.4763 958.194 67.4223C961.248 64.3683 965.543 62.8413 971.078 62.8413C976.613 62.8413 980.908 64.3683 983.962 67.4223C987.016 70.4763 988.543 74.9619 988.543 80.879V98.9168H985.68C988.352 87.4642 993.601 78.7794 1001.43 72.8623C1009.25 66.9451 1019.66 63.4139 1032.64 62.2687C1036.64 61.8869 1039.79 62.9367 1042.08 65.4181C1044.57 67.7086 1046 71.3353 1046.38 76.298C1046.76 81.0699 1045.62 84.9829 1042.94 88.0369C1040.46 90.9 1036.64 92.6179 1031.49 93.1905L1025.19 93.7631C1013.55 94.9084 1004.77 98.535 998.85 104.643C992.933 110.56 989.975 118.959 989.975 129.839V189.106C989.975 195.023 988.448 199.604 985.394 202.849C982.34 205.903 977.854 207.43 971.937 207.43Z" fill="#0FBFC4"/>
<path d="M1083.49 207.43C1077.76 207.43 1073.37 205.903 1070.31 202.849C1067.26 199.604 1065.73 195.023 1065.73 189.106V19.0353C1065.73 13.1182 1067.26 8.63259 1070.31 5.57859C1073.37 2.52457 1077.76 0.997559 1083.49 0.997559C1089.21 0.997559 1093.6 2.52457 1096.66 5.57859C1099.9 8.63259 1101.52 13.1182 1101.52 19.0353V124.685H1102.1L1149.34 74.8665C1153.15 71.0489 1156.5 68.0904 1159.36 65.9907C1162.22 63.8911 1166.13 62.8413 1171.1 62.8413C1176.06 62.8413 1179.78 64.1774 1182.26 66.8497C1184.94 69.3311 1186.27 72.3851 1186.27 76.0117C1186.27 79.6383 1184.55 83.265 1181.12 86.8916L1131.3 139.573V124.685L1185.99 183.666C1189.42 187.292 1190.95 191.014 1190.57 194.832C1190.38 198.458 1188.85 201.512 1185.99 203.994C1183.12 206.284 1179.5 207.43 1175.11 207.43C1169.76 207.43 1165.47 206.38 1162.22 204.28C1159.17 202.18 1155.73 199.031 1151.91 194.832L1102.1 142.723H1101.52V189.106C1101.52 201.322 1095.51 207.43 1083.49 207.43Z" fill="#0FBFC4"/>
<path d="M1246.72 207.43C1241 207.43 1236.51 205.903 1233.27 202.849C1230.21 199.604 1228.68 195.023 1228.68 189.106V92.0453H1215.51C1210.93 92.0453 1207.4 90.9 1204.92 88.6095C1202.44 86.1281 1201.2 82.7878 1201.2 78.5885C1201.2 74.1984 1202.44 70.858 1204.92 68.5675C1207.4 66.277 1210.93 65.1318 1215.51 65.1318H1238.99L1228.68 74.5801V64.8455C1228.68 45.1853 1233.65 30.4878 1243.57 20.7532C1253.5 10.8277 1267.81 5.00596 1286.52 3.28808L1296.25 2.42914C1300.07 2.04738 1303.13 2.71545 1305.42 4.43333C1307.71 5.96034 1309.23 8.05997 1310 10.7322C1310.76 13.2136 1310.86 15.7904 1310.28 18.4627C1309.71 21.135 1308.47 23.5209 1306.56 25.6205C1304.84 27.5293 1302.55 28.5791 1299.69 28.77L1295.68 29.0563C1284.8 29.8198 1276.88 32.5875 1271.92 37.3594C1266.95 42.1313 1264.47 49.3845 1264.47 59.1192V69.7128L1259.89 65.1318H1288.81C1293.39 65.1318 1296.92 66.277 1299.4 68.5675C1301.88 70.858 1303.13 74.1984 1303.13 78.5885C1303.13 82.7878 1301.88 86.1281 1299.4 88.6095C1296.92 90.9 1293.39 92.0453 1288.81 92.0453H1264.47V189.106C1264.47 201.322 1258.56 207.43 1246.72 207.43ZM1371.27 208.002C1355.43 208.002 1343.5 203.517 1335.48 194.545C1327.46 185.383 1323.45 172.022 1323.45 154.462V19.0353C1323.45 13.1182 1324.98 8.63259 1328.03 5.57859C1331.09 2.52457 1335.48 0.997559 1341.21 0.997559C1346.93 0.997559 1351.32 2.52457 1354.38 5.57859C1357.62 8.63259 1359.24 13.1182 1359.24 19.0353V152.744C1359.24 161.524 1361.06 168.014 1364.68 172.213C1368.5 176.412 1373.85 178.512 1380.72 178.512C1382.24 178.512 1383.68 178.512 1385.01 178.512C1386.35 178.321 1387.68 178.13 1389.02 177.939C1391.69 177.558 1393.51 178.321 1394.46 180.23C1395.41 181.948 1395.89 185.574 1395.89 191.11C1395.89 195.882 1394.94 199.604 1393.03 202.276C1391.12 204.948 1387.97 206.571 1383.58 207.143C1381.67 207.334 1379.67 207.525 1377.57 207.716C1375.47 207.907 1373.37 208.002 1371.27 208.002Z" fill="#0FBFC4"/>
<path d="M1477.13 208.002C1462.62 208.002 1450.02 205.044 1439.33 199.127C1428.65 193.209 1420.34 184.811 1414.43 173.931C1408.51 162.86 1405.55 149.881 1405.55 134.992C1405.55 123.731 1407.17 113.71 1410.42 104.929C1413.85 95.9582 1418.72 88.3232 1425.02 82.0243C1431.32 75.5345 1438.86 70.6672 1447.64 67.4223C1456.42 63.9865 1466.25 62.2687 1477.13 62.2687C1491.63 62.2687 1504.23 65.2272 1514.92 71.1444C1525.61 77.0615 1533.91 85.46 1539.83 96.34C1545.75 107.22 1548.71 120.104 1548.71 134.992C1548.71 146.254 1546.99 156.37 1543.55 165.342C1540.31 174.313 1535.54 182.043 1529.24 188.533C1522.94 194.832 1515.4 199.699 1506.62 203.135C1497.84 206.38 1488.01 208.002 1477.13 208.002ZM1477.13 180.802C1484.19 180.802 1490.39 179.085 1495.74 175.649C1501.08 172.213 1505.19 167.155 1508.05 160.474C1511.1 153.603 1512.63 145.109 1512.63 134.992C1512.63 119.722 1509.39 108.365 1502.9 100.921C1496.41 93.2859 1487.82 89.4684 1477.13 89.4684C1470.07 89.4684 1463.86 91.1863 1458.52 94.6221C1453.17 97.867 1448.97 102.925 1445.92 109.797C1443.06 116.477 1441.63 124.876 1441.63 134.992C1441.63 150.071 1444.87 161.524 1451.36 169.35C1457.85 176.985 1466.44 180.802 1477.13 180.802Z" fill="#0FBFC4"/>
<path d="M1629.56 207.43C1624.79 207.43 1620.69 206.284 1617.25 203.994C1613.82 201.512 1611.05 197.695 1608.95 192.541L1567.43 86.6053C1565.72 82.0243 1565.14 78.0159 1565.72 74.5801C1566.48 70.9535 1568.29 68.0904 1571.16 65.9907C1574.02 63.8911 1577.84 62.8413 1582.61 62.8413C1586.81 62.8413 1590.24 63.8911 1592.91 65.9907C1595.59 67.8995 1597.88 71.6216 1599.79 77.1569L1634.43 172.499H1627.85L1663.63 74.8665C1665.16 70.6672 1667.17 67.6132 1669.65 65.7044C1672.32 63.7957 1675.76 62.8413 1679.95 62.8413C1684.15 62.8413 1687.59 63.8911 1690.26 65.9907C1692.93 67.8995 1694.94 70.8581 1696.27 74.8665L1731.49 172.499H1725.48L1760.41 76.298C1762.32 71.1444 1764.7 67.6132 1767.57 65.7044C1770.62 63.7957 1773.96 62.8413 1777.59 62.8413C1782.17 62.8413 1785.7 63.9865 1788.18 66.277C1790.66 68.5676 1792.09 71.5261 1792.48 75.1528C1792.86 78.5885 1792.19 82.406 1790.47 86.6053L1749.24 192.541C1747.33 197.504 1744.57 201.226 1740.94 203.707C1737.5 206.189 1733.4 207.43 1728.63 207.43C1723.86 207.43 1719.66 206.189 1716.03 203.707C1712.59 201.226 1709.92 197.504 1708.01 192.541L1670.51 93.1905H1686.83L1650.18 192.255C1648.27 197.409 1645.6 201.226 1642.16 203.707C1638.73 206.189 1634.53 207.43 1629.56 207.43Z" fill="#0FBFC4"/>
</svg>
