<svg width="21" height="22" viewBox="0 0 21 22" fill="none" xmlns="http://www.w3.org/2000/svg">
<path fill-rule="evenodd" clip-rule="evenodd" d="M20.7531 1.5642C20.8413 1.73206 20.7313 1.92517 20.547 1.96984L4.22744 5.92649C3.91589 6.002 3.8868 6.43369 4.1854 6.55033L13.4461 10.168C13.8666 10.3323 13.8113 10.944 13.3683 11.0302L0.390186 13.5572C0.187824 13.5966 -0.000238419 13.4417 -0.000238419 13.2355V2.47741C-0.000238419 1.39125 0.880255 0.510742 1.96643 0.510742H19.0109C19.7674 0.510742 20.4242 0.937906 20.7531 1.5642ZM0.255838 20.493C0.166682 20.3363 0.255346 20.1468 0.424316 20.0839L20.5354 12.5931C20.7495 12.5133 20.9775 12.6717 20.9775 12.9003V19.5219C20.9775 20.608 20.097 21.4885 19.0109 21.4885H1.96643C1.23344 21.4885 0.594105 21.0875 0.255838 20.493ZM20.9775 9.15502C20.9775 9.37053 20.7731 9.52742 20.5649 9.47161L11.4066 7.01746C11.0938 6.93363 11.0791 6.49519 11.3857 6.39062L20.5439 3.26671C20.7566 3.19417 20.9775 3.35225 20.9775 3.57694V9.15502Z" fill="#0FBFC4"/>
</svg>
