<svg width="165" height="28" viewBox="0 0 165 28" fill="none" xmlns="http://www.w3.org/2000/svg">
<g clip-path="url(#clip0_132_6454)">
<path fill-rule="evenodd" clip-rule="evenodd" d="M20.7531 4.5642C20.8413 4.73206 20.7313 4.92517 20.547 4.96984L4.22744 8.92649C3.91589 9.002 3.8868 9.43369 4.1854 9.55033L13.4461 13.168C13.8666 13.3323 13.8113 13.9439 13.3683 14.0302L0.390186 16.5572C0.187824 16.5966 -0.000238419 16.4417 -0.000238419 16.2355V5.47741C-0.000238419 4.39125 0.880255 3.51074 1.96643 3.51074H19.0109C19.7674 3.51074 20.4242 3.93791 20.7531 4.5642ZM0.255838 23.493C0.166683 23.3363 0.255346 23.1468 0.424316 23.0839L20.5354 15.5931C20.7495 15.5133 20.9775 15.6717 20.9775 15.9003V22.5219C20.9775 23.608 20.097 24.4885 19.0109 24.4885H1.96643C1.23343 24.4885 0.594105 24.0875 0.255838 23.493ZM20.9775 12.155C20.9775 12.3705 20.7731 12.5274 20.5649 12.4716L11.4066 10.0175C11.0938 9.93363 11.0791 9.49519 11.3857 9.39062L20.5439 6.26671C20.7566 6.19417 20.9775 6.35225 20.9775 6.57694V12.155Z" fill="#0FBFC4"/>
</g>
<path d="M29.1327 22V20.0855L36.7461 9.4029H29.1178V6.74343H40.7986V8.65795L33.1778 19.3405H40.8135V22H29.1327ZM48.4437 22.2235C47.2666 22.2235 46.2535 21.9851 45.4043 21.5083C44.56 21.0266 43.9094 20.3462 43.4525 19.4672C42.9956 18.5832 42.7671 17.5378 42.7671 16.3309C42.7671 15.1539 42.9956 14.1209 43.4525 13.2319C43.9094 12.343 44.5525 11.6502 45.3819 11.1535C46.2163 10.6569 47.1946 10.4086 48.317 10.4086C49.0719 10.4086 49.7746 10.5303 50.4252 10.7736C51.0808 11.012 51.6519 11.3721 52.1386 11.8538C52.6303 12.3355 53.0127 12.9414 53.2858 13.6715C53.559 14.3965 53.6955 15.2458 53.6955 16.2192V17.0908H44.0336V15.1241H50.7083C50.7083 14.6672 50.609 14.2625 50.4103 13.9098C50.2117 13.5572 49.936 13.2816 49.5834 13.083C49.2358 12.8793 48.831 12.7775 48.3692 12.7775C47.8874 12.7775 47.4603 12.8893 47.0878 13.1128C46.7203 13.3313 46.4323 13.6268 46.2237 13.9992C46.0151 14.3668 45.9083 14.7765 45.9034 15.2284V17.0982C45.9034 17.6644 46.0077 18.1536 46.2163 18.5658C46.4298 18.978 46.7303 19.2958 47.1176 19.5193C47.505 19.7428 47.9644 19.8545 48.4958 19.8545C48.8484 19.8545 49.1712 19.8049 49.4642 19.7056C49.7573 19.6062 50.008 19.4572 50.2166 19.2586C50.4252 19.0599 50.5841 18.8166 50.6934 18.5285L53.6285 18.7222C53.4795 19.4274 53.1741 20.0433 52.7122 20.5697C52.2553 21.0912 51.6643 21.4984 50.9392 21.7914C50.2191 22.0795 49.3873 22.2235 48.4437 22.2235ZM60.9812 22.2235C59.8041 22.2235 58.791 21.9851 57.9418 21.5083C57.0975 21.0266 56.4469 20.3462 55.99 19.4672C55.5331 18.5832 55.3046 17.5378 55.3046 16.3309C55.3046 15.1539 55.5331 14.1209 55.99 13.2319C56.4469 12.343 57.09 11.6502 57.9194 11.1535C58.7538 10.6569 59.7321 10.4086 60.8545 10.4086C61.6094 10.4086 62.3121 10.5303 62.9627 10.7736C63.6183 11.012 64.1894 11.3721 64.6761 11.8538C65.1678 12.3355 65.5502 12.9414 65.8233 13.6715C66.0965 14.3965 66.2331 15.2458 66.2331 16.2192V17.0908H56.5711V15.1241H63.2458C63.2458 14.6672 63.1465 14.2625 62.9478 13.9098C62.7492 13.5572 62.4735 13.2816 62.1209 13.083C61.7733 12.8793 61.3685 12.7775 60.9067 12.7775C60.4249 12.7775 59.9978 12.8893 59.6253 13.1128C59.2578 13.3313 58.9698 13.6268 58.7612 13.9992C58.5526 14.3668 58.4458 14.7765 58.4409 15.2284V17.0982C58.4409 17.6644 58.5452 18.1536 58.7538 18.5658C58.9673 18.978 59.2678 19.2958 59.6551 19.5193C60.0425 19.7428 60.5019 19.8545 61.0333 19.8545C61.3859 19.8545 61.7087 19.8049 62.0017 19.7056C62.2948 19.6062 62.5456 19.4572 62.7541 19.2586C62.9627 19.0599 63.1216 18.8166 63.2309 18.5285L66.166 18.7222C66.017 19.4274 65.7116 20.0433 65.2497 20.5697C64.7928 21.0912 64.2018 21.4984 63.4767 21.7914C62.7566 22.0795 61.9248 22.2235 60.9812 22.2235ZM70.7325 22L66.3671 6.74343H69.8908L72.4161 17.3441H72.5428L75.3289 6.74343H78.3459L81.1246 17.3664H81.2587L83.7841 6.74343H87.3077L82.9423 22H79.7986L76.8933 12.0251H76.7741L73.8762 22H70.7325ZM92.9153 22.2235C91.7581 22.2235 90.7574 21.9777 89.9131 21.486C89.0738 20.9894 88.4257 20.299 87.9688 19.415C87.5119 18.5261 87.2835 17.4955 87.2835 16.3235C87.2835 15.1415 87.5119 14.1085 87.9688 13.2245C88.4257 12.3355 89.0738 11.6452 89.9131 11.1535C90.7574 10.6569 91.7581 10.4086 92.9153 10.4086C94.0724 10.4086 95.0707 10.6569 95.91 11.1535C96.7542 11.6452 97.4048 12.3355 97.8617 13.2245C98.3186 14.1085 98.5471 15.1415 98.5471 16.3235C98.5471 17.4955 98.3186 18.5261 97.8617 19.415C97.4048 20.299 96.7542 20.9894 95.91 21.486C95.0707 21.9777 94.0724 22.2235 92.9153 22.2235ZM92.9302 19.7652C93.4566 19.7652 93.8961 19.6162 94.2487 19.3182C94.6013 19.0152 94.867 18.603 95.0458 18.0816C95.2296 17.5601 95.3215 16.9666 95.3215 16.3011C95.3215 15.6356 95.2296 15.0422 95.0458 14.5207C94.867 13.9992 94.6013 13.587 94.2487 13.2841C93.8961 12.9811 93.4566 12.8297 92.9302 12.8297C92.3988 12.8297 91.9518 12.9811 91.5893 13.2841C91.2317 13.587 90.961 13.9992 90.7773 14.5207C90.5985 15.0422 90.5091 15.6356 90.5091 16.3011C90.5091 16.9666 90.5985 17.5601 90.7773 18.0816C90.961 18.603 91.2317 19.0152 91.5893 19.3182C91.9518 19.6162 92.3988 19.7652 92.9302 19.7652ZM100.611 22V10.5576H103.687V12.554H103.806C104.015 11.8439 104.365 11.3075 104.857 10.9449C105.348 10.5774 105.915 10.3937 106.555 10.3937C106.714 10.3937 106.886 10.4036 107.069 10.4235C107.253 10.4434 107.414 10.4707 107.554 10.5054V13.3213C107.405 13.2766 107.198 13.2369 106.935 13.2021C106.672 13.1674 106.431 13.15 106.213 13.15C105.746 13.15 105.329 13.2518 104.961 13.4554C104.599 13.6541 104.311 13.9322 104.097 14.2898C103.888 14.6473 103.784 15.0596 103.784 15.5264V22H100.611ZM112.07 18.7073L112.077 14.9006H112.539L116.204 10.5576H119.847L114.923 16.3086H114.171L112.07 18.7073ZM109.194 22V6.74343H112.368V22H109.194ZM116.346 22L112.979 17.0163L115.094 14.774L120.063 22H116.346ZM127.557 10.5576V12.9414H120.495V10.5576H127.557ZM122.112 22V9.73068C122.112 8.9013 122.273 8.21347 122.596 7.66717C122.924 7.12087 123.371 6.71115 123.937 6.438C124.503 6.16486 125.146 6.02828 125.866 6.02828C126.353 6.02828 126.797 6.06553 127.2 6.14003C127.607 6.21452 127.91 6.28157 128.109 6.34116L127.542 8.725C127.418 8.68527 127.264 8.64802 127.081 8.61326C126.902 8.57849 126.718 8.56111 126.529 8.56111C126.062 8.56111 125.737 8.67037 125.553 8.88889C125.37 9.10244 125.278 9.4029 125.278 9.79028V22H122.112ZM132.67 6.74343V22H129.496V6.74343H132.67ZM140.382 22.2235C139.224 22.2235 138.224 21.9777 137.379 21.486C136.54 20.9894 135.892 20.299 135.435 19.415C134.978 18.5261 134.75 17.4955 134.75 16.3235C134.75 15.1415 134.978 14.1085 135.435 13.2245C135.892 12.3355 136.54 11.6452 137.379 11.1535C138.224 10.6569 139.224 10.4086 140.382 10.4086C141.539 10.4086 142.537 10.6569 143.376 11.1535C144.221 11.6452 144.871 12.3355 145.328 13.2245C145.785 14.1085 146.013 15.1415 146.013 16.3235C146.013 17.4955 145.785 18.5261 145.328 19.415C144.871 20.299 144.221 20.9894 143.376 21.486C142.537 21.9777 141.539 22.2235 140.382 22.2235ZM140.396 19.7652C140.923 19.7652 141.362 19.6162 141.715 19.3182C142.068 19.0152 142.333 18.603 142.512 18.0816C142.696 17.5601 142.788 16.9666 142.788 16.3011C142.788 15.6356 142.696 15.0422 142.512 14.5207C142.333 13.9992 142.068 13.587 141.715 13.2841C141.362 12.9811 140.923 12.8297 140.396 12.8297C139.865 12.8297 139.418 12.9811 139.056 13.2841C138.698 13.587 138.427 13.9992 138.244 14.5207C138.065 15.0422 137.975 15.6356 137.975 16.3011C137.975 16.9666 138.065 17.5601 138.244 18.0816C138.427 18.603 138.698 19.0152 139.056 19.3182C139.418 19.6162 139.865 19.7652 140.396 19.7652ZM150.047 22L146.933 10.5576H150.144L151.917 18.2455H152.021L153.869 10.5576H157.02L158.897 18.2008H158.994L160.737 10.5576H163.941L160.834 22H157.474L155.508 14.8038H155.366L153.4 22H150.047Z" fill="#2C3645"/>
<defs>
<clipPath id="clip0_132_6454">
<rect width="20.9778" height="20.9778" fill="white" transform="matrix(-1 0 0 1 20.9775 3.51074)"/>
</clipPath>
</defs>
</svg>
