<svg width="342" height="192" viewBox="0 0 342 192" fill="none" xmlns="http://www.w3.org/2000/svg">
<path fill-rule="evenodd" clip-rule="evenodd" d="M305.036 160.513L303.05 165.109C303.018 165.167 302.987 165.225 302.956 165.284C299.369 172.03 301.93 180.406 308.676 183.993C315.422 187.58 323.798 185.019 327.385 178.273C327.613 177.845 327.816 177.411 327.994 176.971C344.275 143.347 346.143 108.915 331.016 74.4881C310.709 28.2749 274.261 2.60594 223.925 0.441137C175.092 -1.65897 138.634 20.5528 113.044 61.7764C112.599 62.3629 112.194 62.9929 111.837 63.6643C111.745 63.8377 111.657 64.0121 111.573 64.1875C111.57 64.192 111.567 64.1966 111.565 64.2011L111.566 64.2018C108.388 70.8493 110.989 78.8817 117.557 82.3739C124.303 85.9609 132.68 83.3999 136.267 76.6538C136.608 76.0116 136.894 75.3546 137.126 74.6883C137.316 74.3907 137.505 74.0937 137.694 73.7973L137.695 73.7966C139.17 71.482 140.62 69.2066 142.18 67.0093C155.444 48.3284 173.25 36.1365 195.415 30.3217C210.463 26.3741 225.637 26.111 240.769 29.8171C264.817 35.7068 284.094 48.8037 297.694 69.4835C313.841 94.035 317.49 120.704 309.606 148.92C309.257 150.168 308.784 151.381 308.274 152.689C307.986 153.428 307.686 154.198 307.39 155.021C306.531 157.099 305.784 158.807 305.036 160.513ZM230.68 126.941L230.645 127.005L230.646 127.006L230.617 127.055C230.557 127.165 230.495 127.274 230.432 127.381C211.647 160.356 184.025 181.824 146.547 188.6C96.8411 197.586 55.1371 181.702 25.1511 141.158C-4.12425 101.575 -6.13057 58.4513 14.1346 13.8758C14.3515 13.2847 14.6112 12.7015 14.9151 12.1299C18.5021 5.38379 26.8786 2.82279 33.6247 6.40975C40.3708 9.99672 42.9318 18.3733 39.3449 25.1194C39.1916 25.4078 39.0295 25.6884 38.8592 25.9613C38.4762 26.8574 38.0909 27.7444 37.7078 28.6261L37.7074 28.6271L37.7069 28.6281L37.7065 28.6289C36.6127 31.1466 35.5376 33.6213 34.5886 36.1437C26.5212 57.5874 26.3805 79.1724 33.9703 100.808C39.123 115.496 47.4031 128.23 58.9517 138.711C77.3048 155.366 98.9643 164.035 123.735 163.758C153.142 163.428 177.307 151.548 196.297 129.236C197.137 128.25 197.878 127.18 198.677 126.026C199.129 125.373 199.599 124.694 200.117 123.988C200.857 122.873 202.275 120.496 203.513 118.422L203.513 118.421L203.515 118.419L203.517 118.415L203.519 118.412C204.358 117.007 205.112 115.742 205.515 115.107L206.036 114.378C206.116 114.212 206.199 114.047 206.286 113.884C209.873 107.138 218.25 104.577 224.996 108.164C231.742 111.751 234.303 120.127 230.716 126.873L230.68 126.941ZM158.987 89.5761C155.779 95.0636 151.647 99.9632 146.57 103.893C140.36 108.612 133.612 111.595 126.118 112.907C111.412 115.483 96.616 109.526 89.2193 97.9558C80.117 83.7172 78.8107 68.7853 85.6973 53.2185L86.5685 51.0858L86.5186 51.0599C86.6482 50.8449 86.7729 50.6251 86.8922 50.4008C90.4791 43.6547 87.9181 35.2781 81.172 31.6911C74.4259 28.1041 66.0494 30.6651 62.4624 37.4112C62.327 37.6658 62.2004 37.9227 62.0825 38.1816L62.0586 38.1707C61.6142 39.307 61.1558 40.4371 60.6993 41.5626C59.3894 44.7918 58.0946 47.9838 57.1904 51.176C50.5564 74.5953 53.8922 96.4065 68.407 115.978C78.4413 129.508 92.125 137.721 108.732 140.183C130.9 143.47 150.463 136.983 167.343 122.216C173.68 116.672 178.86 109.846 182.785 102.23L182.774 102.224C192.069 87.3211 206.71 79.048 223.576 78.6249C237.293 78.2808 250.49 87.208 256.567 100.834C259.664 107.778 260.959 115.038 260.517 122.824C260.096 129.229 257.868 134.839 255.112 140.567L255.122 140.572C251.968 147.213 254.571 155.225 261.129 158.712C267.686 162.199 275.784 159.877 279.526 153.548L279.534 153.552C279.576 153.474 279.619 153.396 279.661 153.318L279.73 153.192C279.766 153.126 279.802 153.059 279.838 152.992L279.855 152.96L279.879 152.914C283.798 145.593 286.272 137.902 287.298 129.785C290.109 107.537 284.561 87.6992 269.46 71.1699C258.147 58.7869 243.701 52.0432 226.888 51.298C202.567 50.2199 182.632 59.6578 166.931 78.2562C164.054 81.6645 161.438 85.3874 159.002 89.5841L158.987 89.5761Z" fill="#13161B"/>
</svg>
