<svg width="1720" height="356" viewBox="0 0 1720 356" fill="none" xmlns="http://www.w3.org/2000/svg">
<g clip-path="url(#clip0_480_14361)">
<path fill-rule="evenodd" clip-rule="evenodd" d="M312.036 243.302L310.05 247.898C310.018 247.956 309.987 248.014 309.956 248.073C306.369 254.819 308.93 263.195 315.676 266.782C322.422 270.369 330.798 267.808 334.385 261.062C334.613 260.634 334.816 260.2 334.994 259.76C351.275 226.136 353.143 191.704 338.016 157.277C317.709 111.064 281.261 85.3948 230.925 83.23C182.092 81.1298 145.634 103.342 120.044 144.565C119.599 145.152 119.194 145.782 118.837 146.453C118.745 146.626 118.657 146.801 118.573 146.976C118.57 146.981 118.567 146.985 118.565 146.99L118.566 146.991C115.388 153.638 117.989 161.67 124.557 165.163C131.303 168.75 139.68 166.189 143.267 159.443C143.608 158.8 143.894 158.143 144.126 157.477C144.316 157.18 144.505 156.883 144.694 156.586L144.695 156.585C146.17 154.271 147.62 151.995 149.18 149.798C162.444 131.117 180.25 118.925 202.415 113.111C217.463 109.163 232.637 108.9 247.769 112.606C271.817 118.496 291.094 131.593 304.694 152.272C320.841 176.824 324.49 203.493 316.606 231.709C316.257 232.957 315.784 234.17 315.274 235.477C314.986 236.217 314.686 236.986 314.39 237.81C313.531 239.888 312.784 241.595 312.036 243.302ZM237.68 209.73L237.645 209.794L237.646 209.795L237.617 209.844C237.557 209.954 237.495 210.062 237.432 210.17C218.647 243.145 191.025 264.612 153.547 271.388C103.841 280.375 62.1371 264.49 32.1511 223.947C2.87575 184.364 0.869432 141.24 21.1346 96.6646C21.3515 96.0735 21.6112 95.4903 21.9151 94.9187C25.5021 88.1726 33.8786 85.6116 40.6247 89.1986C47.3708 92.7855 49.9318 101.162 46.3449 107.908C46.1916 108.197 46.0295 108.477 45.8592 108.75C45.4762 109.646 45.0909 110.533 44.7078 111.415L44.7074 111.416L44.7069 111.417L44.7065 111.418C43.6127 113.935 42.5376 116.41 41.5886 118.932C33.5212 140.376 33.3805 161.961 40.9703 183.597C46.123 198.285 54.4031 211.019 65.9517 221.5C84.3048 238.155 105.964 246.824 130.735 246.546C160.142 246.217 184.307 234.337 203.297 212.025C204.137 211.039 204.878 209.968 205.677 208.815C206.129 208.162 206.599 207.483 207.117 206.777C207.857 205.662 209.275 203.285 210.513 201.211L210.513 201.21L210.515 201.208L210.517 201.204L210.519 201.201C211.358 199.795 212.112 198.531 212.515 197.896L213.036 197.167C213.116 197.001 213.199 196.836 213.286 196.673C216.873 189.926 225.25 187.365 231.996 190.952C238.742 194.539 241.303 202.916 237.716 209.662L237.68 209.73ZM165.987 172.365C162.779 177.852 158.647 182.752 153.57 186.682C147.36 191.401 140.612 194.384 133.118 195.696C118.412 198.272 103.616 192.315 96.2193 180.745C87.117 166.506 85.8107 151.574 92.6973 136.007L93.5685 133.875L93.5186 133.849C93.6482 133.634 93.7729 133.414 93.8922 133.19C97.4791 126.443 94.9181 118.067 88.172 114.48C81.4259 110.893 73.0494 113.454 69.4624 120.2C69.327 120.455 69.2004 120.712 69.0825 120.97L69.0586 120.96C68.6142 122.096 68.1558 123.226 67.6993 124.351C66.3894 127.581 65.0946 130.773 64.1904 133.965C57.5564 157.384 60.8922 179.195 75.407 198.767C85.4413 212.297 99.125 220.509 115.732 222.972C137.9 226.259 157.463 219.772 174.343 205.005C180.68 199.461 185.86 192.634 189.785 185.018L189.774 185.012C199.069 170.11 213.71 161.837 230.576 161.414C244.293 161.07 257.49 169.997 263.567 183.623C266.664 190.567 267.959 197.827 267.517 205.613C267.096 212.018 264.868 217.628 262.112 223.356L262.122 223.361C258.968 230.002 261.571 238.014 268.129 241.501C274.686 244.988 282.784 242.665 286.526 236.337L286.534 236.341C286.576 236.263 286.619 236.185 286.661 236.107L286.73 235.981C286.766 235.915 286.802 235.848 286.838 235.781L286.855 235.748L286.879 235.703C290.798 228.382 293.272 220.69 294.298 212.574C297.109 190.326 291.561 170.488 276.46 153.959C265.147 141.576 250.701 134.832 233.888 134.087C209.567 133.009 189.632 142.447 173.931 161.045C171.054 164.453 168.438 168.176 166.002 172.373L165.987 172.365Z" fill="#13161B"/>
</g>
<path d="M435.562 251.214C432.104 251.214 429.268 250.522 427.055 249.139C424.981 247.756 423.528 245.889 422.698 243.538C422.007 241.048 422.007 238.351 422.698 235.446C423.528 232.403 425.119 229.291 427.47 226.11L506.723 118.641V127.148H433.487C429.614 127.148 426.64 126.179 424.566 124.243C422.629 122.307 421.661 119.54 421.661 115.944C421.661 112.348 422.629 109.651 424.566 107.853C426.64 105.917 429.614 104.948 433.487 104.948H519.379C522.837 104.948 525.603 105.64 527.678 107.023C529.891 108.406 531.343 110.273 532.035 112.625C532.864 114.976 532.864 117.673 532.035 120.716C531.343 123.759 529.822 126.871 527.47 130.052L448.217 237.313V229.015H524.566C528.438 229.015 531.343 229.983 533.279 231.919C535.354 233.717 536.391 236.414 536.391 240.011C536.391 243.607 535.354 246.373 533.279 248.309C531.343 250.246 528.438 251.214 524.566 251.214H435.562Z" fill="#13161B"/>
<path d="M599.632 253.289C588.152 253.289 578.263 251.145 569.964 246.857C561.665 242.569 555.234 236.484 550.669 228.6C546.243 220.716 544.03 211.38 544.03 200.591C544.03 190.08 546.174 180.882 550.462 172.998C554.888 165.114 560.905 158.959 568.512 154.533C576.257 149.969 585.04 147.687 594.86 147.687C602.053 147.687 608.484 148.863 614.155 151.214C619.964 153.565 624.874 156.954 628.885 161.38C633.035 165.806 636.147 171.2 638.221 177.562C640.434 183.787 641.541 190.84 641.541 198.724C641.541 201.214 640.642 203.15 638.844 204.533C637.184 205.778 634.764 206.401 631.582 206.401H564.985V191.463H623.284L619.964 194.575C619.964 188.213 618.996 182.887 617.06 178.6C615.261 174.312 612.564 171.062 608.968 168.849C605.51 166.497 601.154 165.322 595.898 165.322C590.089 165.322 585.109 166.705 580.96 169.471C576.949 172.099 573.837 175.903 571.624 180.882C569.549 185.723 568.512 191.532 568.512 198.309V199.762C568.512 211.103 571.14 219.609 576.396 225.28C581.79 230.813 589.674 233.579 600.047 233.579C603.643 233.579 607.654 233.164 612.08 232.334C616.645 231.366 620.932 229.775 624.943 227.562C627.848 225.903 630.407 225.211 632.62 225.488C634.833 225.626 636.562 226.387 637.806 227.77C639.19 229.153 640.019 230.882 640.296 232.957C640.573 234.893 640.158 236.899 639.051 238.973C638.083 241.048 636.354 242.846 633.864 244.367C629.024 247.41 623.422 249.692 617.06 251.214C610.835 252.597 605.026 253.289 599.632 253.289Z" fill="#13161B"/>
<path d="M712.079 253.289C700.599 253.289 690.709 251.145 682.411 246.857C674.112 242.569 667.68 236.484 663.116 228.6C658.69 220.716 656.477 211.38 656.477 200.591C656.477 190.08 658.621 180.882 662.909 172.998C667.335 165.114 673.351 158.959 680.958 154.533C688.704 149.969 697.487 147.687 707.307 147.687C714.499 147.687 720.931 148.863 726.601 151.214C732.411 153.565 737.321 156.954 741.332 161.38C745.481 165.806 748.593 171.2 750.668 177.562C752.881 183.787 753.987 190.84 753.987 198.724C753.987 201.214 753.088 203.15 751.29 204.533C749.631 205.778 747.21 206.401 744.029 206.401H677.431V191.463H735.73L732.411 194.575C732.411 188.213 731.442 182.887 729.506 178.6C727.708 174.312 725.011 171.062 721.415 168.849C717.957 166.497 713.6 165.322 708.344 165.322C702.535 165.322 697.556 166.705 693.406 169.471C689.395 172.099 686.283 175.903 684.07 180.882C681.996 185.723 680.958 191.532 680.958 198.309V199.762C680.958 211.103 683.586 219.609 688.842 225.28C694.236 230.813 702.12 233.579 712.494 233.579C716.09 233.579 720.101 233.164 724.527 232.334C729.091 231.366 733.379 229.775 737.39 227.562C740.294 225.903 742.853 225.211 745.066 225.488C747.279 225.626 749.008 226.387 750.253 227.77C751.636 229.153 752.466 230.882 752.743 232.957C753.019 234.893 752.604 236.899 751.498 238.973C750.53 241.048 748.801 242.846 746.311 244.367C741.47 247.41 735.868 249.692 729.506 251.214C723.282 252.597 717.473 253.289 712.079 253.289Z" fill="#13161B"/>
<path d="M828.467 252.874C824.733 252.874 821.69 251.975 819.338 250.177C817.125 248.378 815.327 245.543 813.944 241.67L770.583 119.056C769.062 114.63 769.338 110.896 771.413 107.853C773.626 104.81 777.291 103.289 782.409 103.289C786.143 103.289 789.048 104.188 791.123 105.986C793.197 107.645 794.857 110.343 796.102 114.077L833.446 224.865H825.148L864.152 114.284C865.535 110.55 867.264 107.784 869.338 105.986C871.413 104.188 874.11 103.289 877.43 103.289C880.749 103.289 883.377 104.188 885.314 105.986C887.25 107.784 888.91 110.619 890.293 114.492L928.052 224.865H920.791L958.758 114.077C960.002 110.481 961.662 107.784 963.737 105.986C965.811 104.188 968.647 103.289 972.243 103.289C976.669 103.289 979.919 104.81 981.994 107.853C984.069 110.896 984.345 114.63 982.824 119.056L939.048 241.878C937.665 245.612 935.867 248.378 933.654 250.177C931.441 251.975 928.467 252.874 924.733 252.874C920.998 252.874 918.024 251.975 915.811 250.177C913.598 248.378 911.8 245.543 910.417 241.67L874.318 138.766H879.089L842.575 241.878C841.192 245.612 839.394 248.378 837.181 250.177C835.106 251.975 832.202 252.874 828.467 252.874Z" fill="#13161B"/>
<path d="M1038.8 253.289C1028.28 253.289 1019.15 251.145 1011.41 246.857C1003.66 242.569 997.647 236.484 993.359 228.6C989.072 220.578 986.928 211.172 986.928 200.384C986.928 192.224 988.104 184.962 990.455 178.6C992.945 172.099 996.471 166.567 1001.04 162.002C1005.6 157.3 1011.06 153.773 1017.43 151.421C1023.79 148.932 1030.91 147.687 1038.8 147.687C1049.31 147.687 1058.44 149.831 1066.18 154.118C1073.93 158.406 1079.94 164.492 1084.23 172.376C1088.52 180.26 1090.66 189.596 1090.66 200.384C1090.66 208.544 1089.42 215.875 1086.93 222.376C1084.58 228.876 1081.12 234.478 1076.55 239.181C1071.99 243.745 1066.53 247.272 1060.16 249.762C1053.8 252.113 1046.68 253.289 1038.8 253.289ZM1038.8 233.579C1043.91 233.579 1048.41 232.334 1052.28 229.845C1056.15 227.355 1059.13 223.69 1061.2 218.849C1063.41 213.869 1064.52 207.715 1064.52 200.384C1064.52 189.319 1062.17 181.089 1057.47 175.695C1052.76 170.163 1046.54 167.396 1038.8 167.396C1033.68 167.396 1029.18 168.641 1025.31 171.131C1021.44 173.482 1018.39 177.147 1016.18 182.127C1014.11 186.968 1013.07 193.053 1013.07 200.384C1013.07 211.311 1015.42 219.609 1020.12 225.28C1024.83 230.813 1031.05 233.579 1038.8 233.579Z" fill="#13161B"/>
<path d="M1125.35 252.874C1121.06 252.874 1117.74 251.767 1115.39 249.554C1113.17 247.203 1112.07 243.883 1112.07 239.596V161.172C1112.07 156.885 1113.17 153.634 1115.39 151.421C1117.6 149.208 1120.71 148.102 1124.72 148.102C1128.73 148.102 1131.85 149.208 1134.06 151.421C1136.27 153.634 1137.38 156.885 1137.38 161.172V174.243H1135.3C1137.24 165.944 1141.04 159.651 1146.71 155.363C1152.39 151.076 1159.92 148.517 1169.33 147.687C1172.23 147.41 1174.52 148.171 1176.18 149.969C1177.97 151.629 1179.01 154.257 1179.29 157.853C1179.56 161.311 1178.73 164.146 1176.8 166.359C1175 168.434 1172.23 169.679 1168.5 170.094L1163.93 170.508C1155.5 171.338 1149.14 173.966 1144.85 178.392C1140.56 182.68 1138.42 188.766 1138.42 196.65V239.596C1138.42 243.883 1137.31 247.203 1135.1 249.554C1132.88 251.767 1129.63 252.874 1125.35 252.874Z" fill="#13161B"/>
<path d="M1206.18 252.874C1202.03 252.874 1198.84 251.767 1196.63 249.554C1194.42 247.203 1193.31 243.883 1193.31 239.596V116.359C1193.31 112.071 1194.42 108.821 1196.63 106.608C1198.84 104.395 1202.03 103.289 1206.18 103.289C1210.32 103.289 1213.51 104.395 1215.72 106.608C1218.07 108.821 1219.25 112.071 1219.25 116.359V192.915H1219.66L1253.89 156.816C1256.66 154.049 1259.08 151.905 1261.15 150.384C1263.23 148.863 1266.06 148.102 1269.66 148.102C1273.26 148.102 1275.95 149.07 1277.75 151.006C1279.69 152.804 1280.66 155.017 1280.66 157.645C1280.66 160.273 1279.41 162.901 1276.92 165.529L1240.82 203.704V192.915L1280.45 235.654C1282.94 238.282 1284.05 240.979 1283.77 243.745C1283.63 246.373 1282.52 248.586 1280.45 250.384C1278.37 252.044 1275.75 252.874 1272.57 252.874C1268.69 252.874 1265.58 252.113 1263.23 250.591C1261.02 249.07 1258.53 246.788 1255.76 243.745L1219.66 205.986H1219.25V239.596C1219.25 248.448 1214.89 252.874 1206.18 252.874Z" fill="#13161B"/>
<path d="M1324.46 252.874C1320.31 252.874 1317.06 251.767 1314.71 249.554C1312.5 247.203 1311.39 243.883 1311.39 239.596V169.264H1301.85C1298.53 169.264 1295.97 168.434 1294.17 166.774C1292.37 164.976 1291.47 162.556 1291.47 159.513C1291.47 156.331 1292.37 153.911 1294.17 152.251C1295.97 150.591 1298.53 149.762 1301.85 149.762H1318.86L1311.39 156.608V149.554C1311.39 135.308 1314.99 124.658 1322.18 117.604C1329.37 110.412 1339.74 106.193 1353.3 104.948L1360.35 104.326C1363.12 104.049 1365.33 104.533 1366.99 105.778C1368.65 106.885 1369.76 108.406 1370.31 110.343C1370.86 112.141 1370.93 114.008 1370.52 115.944C1370.1 117.881 1369.2 119.609 1367.82 121.131C1366.58 122.514 1364.92 123.275 1362.84 123.413L1359.94 123.621C1352.05 124.174 1346.31 126.179 1342.72 129.637C1339.12 133.095 1337.32 138.351 1337.32 145.405V153.081L1334 149.762H1354.96C1358.28 149.762 1360.84 150.591 1362.63 152.251C1364.43 153.911 1365.33 156.331 1365.33 159.513C1365.33 162.556 1364.43 164.976 1362.63 166.774C1360.84 168.434 1358.28 169.264 1354.96 169.264H1337.32V239.596C1337.32 248.448 1333.04 252.874 1324.46 252.874ZM1414.71 253.289C1403.23 253.289 1394.58 250.038 1388.78 243.538C1382.97 236.899 1380.06 227.217 1380.06 214.492V116.359C1380.06 112.071 1381.17 108.821 1383.38 106.608C1385.59 104.395 1388.78 103.289 1392.93 103.289C1397.07 103.289 1400.26 104.395 1402.47 106.608C1404.82 108.821 1406 112.071 1406 116.359V213.247C1406 219.609 1407.31 224.312 1409.94 227.355C1412.7 230.398 1416.58 231.919 1421.56 231.919C1422.66 231.919 1423.7 231.919 1424.67 231.919C1425.64 231.781 1426.6 231.643 1427.57 231.504C1429.51 231.228 1430.82 231.781 1431.51 233.164C1432.21 234.409 1432.55 237.037 1432.55 241.048C1432.55 244.506 1431.86 247.203 1430.48 249.139C1429.09 251.076 1426.81 252.251 1423.63 252.666C1422.25 252.804 1420.79 252.943 1419.27 253.081C1417.75 253.219 1416.23 253.289 1414.71 253.289Z" fill="#13161B"/>
<path d="M1491.42 253.289C1480.91 253.289 1471.78 251.145 1464.03 246.857C1456.29 242.569 1450.27 236.484 1445.98 228.6C1441.69 220.578 1439.55 211.172 1439.55 200.384C1439.55 192.224 1440.73 184.962 1443.08 178.6C1445.57 172.099 1449.09 166.567 1453.66 162.002C1458.22 157.3 1463.69 153.773 1470.05 151.421C1476.41 148.932 1483.53 147.687 1491.42 147.687C1501.93 147.687 1511.06 149.831 1518.8 154.118C1526.55 158.406 1532.57 164.492 1536.85 172.376C1541.14 180.26 1543.28 189.596 1543.28 200.384C1543.28 208.544 1542.04 215.875 1539.55 222.376C1537.2 228.876 1533.74 234.478 1529.18 239.181C1524.61 243.745 1519.15 247.272 1512.79 249.762C1506.42 252.113 1499.3 253.289 1491.42 253.289ZM1491.42 233.579C1496.54 233.579 1501.03 232.334 1504.9 229.845C1508.78 227.355 1511.75 223.69 1513.82 218.849C1516.04 213.869 1517.14 207.715 1517.14 200.384C1517.14 189.319 1514.79 181.089 1510.09 175.695C1505.39 170.163 1499.16 167.396 1491.42 167.396C1486.3 167.396 1481.8 168.641 1477.93 171.131C1474.06 173.482 1471.02 177.147 1468.8 182.127C1466.73 186.968 1465.69 193.053 1465.69 200.384C1465.69 211.311 1468.04 219.609 1472.75 225.28C1477.45 230.813 1483.67 233.579 1491.42 233.579Z" fill="#13161B"/>
<path d="M1601.88 252.874C1598.42 252.874 1595.44 252.044 1592.95 250.384C1590.46 248.586 1588.46 245.82 1586.94 242.085L1556.85 165.322C1555.61 162.002 1555.19 159.098 1555.61 156.608C1556.16 153.98 1557.48 151.905 1559.55 150.384C1561.63 148.863 1564.39 148.102 1567.85 148.102C1570.89 148.102 1573.38 148.863 1575.32 150.384C1577.26 151.767 1578.92 154.464 1580.3 158.475L1605.4 227.562H1600.63L1626.56 156.816C1627.67 153.773 1629.12 151.56 1630.92 150.177C1632.86 148.793 1635.35 148.102 1638.39 148.102C1641.43 148.102 1643.92 148.863 1645.86 150.384C1647.8 151.767 1649.25 153.911 1650.22 156.816L1675.73 227.562H1671.38L1696.69 157.853C1698.07 154.118 1699.8 151.56 1701.88 150.177C1704.09 148.793 1706.51 148.102 1709.14 148.102C1712.46 148.102 1715.01 148.932 1716.81 150.591C1718.61 152.251 1719.65 154.395 1719.93 157.023C1720.2 159.513 1719.72 162.279 1718.47 165.322L1688.6 242.085C1687.21 245.681 1685.21 248.378 1682.58 250.177C1680.09 251.975 1677.12 252.874 1673.66 252.874C1670.2 252.874 1667.16 251.975 1664.53 250.177C1662.04 248.378 1660.1 245.681 1658.72 242.085L1631.54 170.094H1643.37L1616.81 241.878C1615.43 245.612 1613.49 248.378 1611 250.177C1608.51 251.975 1605.47 252.874 1601.88 252.874Z" fill="#13161B"/>
<defs>
<clipPath id="clip0_480_14361">
<rect x="0.492188" y="0.788574" width="355" height="355" rx="50" fill="white"/>
</clipPath>
</defs>
</svg>
