<svg width="1299" height="151" viewBox="0 0 1299 151" fill="none" xmlns="http://www.w3.org/2000/svg">
<path d="M14.5615 148.214C11.1037 148.214 8.26832 147.522 6.05532 146.139C3.98063 144.756 2.52835 142.889 1.69848 140.538C1.00691 138.048 1.00691 135.351 1.69848 132.446C2.52835 129.403 4.11895 126.291 6.47026 123.11L85.7234 15.6413V24.1475H12.4869C8.61411 24.1475 5.64039 23.1793 3.5657 21.2429C1.62932 19.3066 0.661133 16.5403 0.661133 12.9442C0.661133 9.34806 1.62932 6.65096 3.5657 4.85289C5.64039 2.91652 8.61411 1.94833 12.4869 1.94833H98.379C101.837 1.94833 104.603 2.63989 106.678 4.02302C108.891 5.40614 110.343 7.27336 111.035 9.62468C111.864 11.976 111.864 14.6731 111.035 17.716C110.343 20.7588 108.822 23.8709 106.47 27.0521L27.2172 134.313V126.015H103.566C107.438 126.015 110.343 126.983 112.279 128.919C114.354 130.717 115.391 133.414 115.391 137.011C115.391 140.607 114.354 143.373 112.279 145.309C110.343 147.246 107.438 148.214 103.566 148.214H14.5615Z" fill="#13161B"/>
<path d="M178.632 150.289C167.152 150.289 157.263 148.145 148.964 143.857C140.665 139.569 134.234 133.484 129.669 125.6C125.243 117.716 123.03 108.38 123.03 97.5915C123.03 87.0797 125.174 77.8819 129.462 69.9981C133.888 62.1143 139.905 55.9594 147.512 51.5334C155.257 46.9691 164.04 44.6869 173.86 44.6869C181.053 44.6869 187.484 45.8626 193.155 48.2139C198.964 50.5652 203.874 53.9539 207.885 58.3799C212.035 62.8059 215.147 68.2001 217.221 74.5624C219.434 80.7865 220.541 87.8404 220.541 95.7243C220.541 98.2139 219.642 100.15 217.844 101.533C216.184 102.778 213.764 103.401 210.582 103.401H143.985V88.4629H202.284L198.964 91.5749C198.964 85.2125 197.996 79.8875 196.06 75.5998C194.261 71.3121 191.564 68.0618 187.968 65.8487C184.51 63.4974 180.154 62.3218 174.898 62.3218C169.089 62.3218 164.109 63.7049 159.96 66.4712C155.949 69.0991 152.837 72.9027 150.624 77.8819C148.549 82.7229 147.512 88.532 147.512 95.3093V96.7616C147.512 108.103 150.14 116.609 155.396 122.28C160.79 127.813 168.674 130.579 179.047 130.579C182.643 130.579 186.654 130.164 191.08 129.334C195.645 128.366 199.932 126.775 203.943 124.562C206.848 122.903 209.407 122.211 211.62 122.488C213.833 122.626 215.562 123.387 216.806 124.77C218.19 126.153 219.019 127.882 219.296 129.957C219.573 131.893 219.158 133.899 218.051 135.973C217.083 138.048 215.354 139.846 212.864 141.367C208.024 144.41 202.422 146.692 196.06 148.214C189.835 149.597 184.026 150.289 178.632 150.289Z" fill="#13161B"/>
<path d="M291.079 150.289C279.599 150.289 269.709 148.145 261.411 143.857C253.112 139.569 246.68 133.484 242.116 125.6C237.69 117.716 235.477 108.38 235.477 97.5915C235.477 87.0797 237.621 77.8819 241.909 69.9981C246.335 62.1143 252.351 55.9594 259.958 51.5334C267.704 46.9691 276.487 44.6869 286.307 44.6869C293.499 44.6869 299.931 45.8626 305.601 48.2139C311.411 50.5652 316.321 53.9539 320.332 58.3799C324.481 62.8059 327.593 68.2001 329.668 74.5624C331.881 80.7865 332.987 87.8404 332.987 95.7243C332.987 98.2139 332.088 100.15 330.29 101.533C328.631 102.778 326.21 103.401 323.029 103.401H256.431V88.4629H314.73L311.411 91.5749C311.411 85.2125 310.442 79.8875 308.506 75.5998C306.708 71.3121 304.011 68.0618 300.415 65.8487C296.957 63.4974 292.6 62.3218 287.344 62.3218C281.535 62.3218 276.556 63.7049 272.406 66.4712C268.395 69.0991 265.283 72.9027 263.07 77.8819C260.996 82.7229 259.958 88.532 259.958 95.3093V96.7616C259.958 108.103 262.586 116.609 267.842 122.28C273.236 127.813 281.12 130.579 291.494 130.579C295.09 130.579 299.101 130.164 303.527 129.334C308.091 128.366 312.379 126.775 316.39 124.562C319.294 122.903 321.853 122.211 324.066 122.488C326.279 122.626 328.008 123.387 329.253 124.77C330.636 126.153 331.466 127.882 331.743 129.957C332.019 131.893 331.604 133.899 330.498 135.973C329.53 138.048 327.801 139.846 325.311 141.367C320.47 144.41 314.868 146.692 308.506 148.214C302.282 149.597 296.473 150.289 291.079 150.289Z" fill="#13161B"/>
<path d="M407.467 149.874C403.733 149.874 400.69 148.975 398.338 147.177C396.125 145.378 394.327 142.543 392.944 138.67L349.583 16.0562C348.062 11.6302 348.338 7.89577 350.413 4.85289C352.626 1.81002 356.291 0.288574 361.409 0.288574C365.143 0.288574 368.048 1.18761 370.123 2.98568C372.197 4.64543 373.857 7.34252 375.102 11.077L412.446 121.865H404.148L443.152 11.2844C444.535 7.54999 446.264 4.78374 448.338 2.98568C450.413 1.18761 453.11 0.288574 456.43 0.288574C459.749 0.288574 462.377 1.18761 464.314 2.98568C466.25 4.78374 467.91 7.61914 469.293 11.4919L507.052 121.865H499.791L537.758 11.077C539.002 7.48083 540.662 4.78374 542.737 2.98568C544.811 1.18761 547.647 0.288574 551.243 0.288574C555.669 0.288574 558.919 1.81002 560.994 4.85289C563.069 7.89577 563.345 11.6302 561.824 16.0562L518.048 138.878C516.665 142.612 514.867 145.378 512.654 147.177C510.441 148.975 507.467 149.874 503.733 149.874C499.998 149.874 497.024 148.975 494.811 147.177C492.598 145.378 490.8 142.543 489.417 138.67L453.318 35.7658H458.089L421.575 138.878C420.192 142.612 418.394 145.378 416.181 147.177C414.106 148.975 411.202 149.874 407.467 149.874Z" fill="#13161B"/>
<path d="M617.795 150.289C607.283 150.289 598.155 148.145 590.409 143.857C582.664 139.569 576.647 133.484 572.359 125.6C568.072 117.578 565.928 108.172 565.928 97.384C565.928 89.2236 567.104 81.9622 569.455 75.5998C571.945 69.0991 575.471 63.5666 580.036 59.0023C584.6 54.2996 590.063 50.7727 596.426 48.4214C602.788 45.9317 609.911 44.6869 617.795 44.6869C628.307 44.6869 637.436 46.8308 645.181 51.1185C652.927 55.4061 658.943 61.4919 663.231 69.3757C667.519 77.2595 669.662 86.5956 669.662 97.384C669.662 105.544 668.418 112.875 665.928 119.376C663.577 125.876 660.119 131.478 655.554 136.181C650.99 140.745 645.527 144.272 639.164 146.762C632.802 149.113 625.679 150.289 617.795 150.289ZM617.795 130.579C622.913 130.579 627.408 129.334 631.281 126.845C635.153 124.355 638.127 120.69 640.202 115.849C642.415 110.869 643.521 104.715 643.521 97.384C643.521 86.319 641.17 78.0894 636.467 72.6952C631.765 67.1627 625.541 64.3965 617.795 64.3965C612.678 64.3965 608.182 65.6413 604.31 68.1309C600.437 70.4822 597.394 74.1475 595.181 79.1268C593.106 83.9677 592.069 90.0535 592.069 97.384C592.069 108.311 594.42 116.609 599.123 122.28C603.826 127.813 610.05 130.579 617.795 130.579Z" fill="#13161B"/>
<path d="M704.345 149.874C700.058 149.874 696.738 148.767 694.387 146.554C692.174 144.203 691.067 140.883 691.067 136.596V58.1724C691.067 53.8847 692.174 50.6344 694.387 48.4214C696.6 46.2084 699.712 45.1019 703.723 45.1019C707.734 45.1019 710.846 46.2084 713.059 48.4214C715.272 50.6344 716.379 53.8847 716.379 58.1724V71.2429H714.304C716.24 62.9442 720.044 56.651 725.715 52.3633C731.385 48.0756 738.923 45.5168 748.329 44.6869C751.233 44.4103 753.515 45.171 755.175 46.9691C756.973 48.6288 758.011 51.2568 758.287 54.8529C758.564 58.3107 757.734 61.1461 755.798 63.3591C754 65.4338 751.233 66.6786 747.499 67.0936L742.935 67.5085C734.497 68.3384 728.135 70.9663 723.847 75.3923C719.56 79.68 717.416 85.7658 717.416 93.6496V136.596C717.416 140.883 716.309 144.203 714.096 146.554C711.883 148.767 708.633 149.874 704.345 149.874Z" fill="#13161B"/>
<path d="M785.176 149.874C781.026 149.874 777.845 148.767 775.632 146.554C773.419 144.203 772.312 140.883 772.312 136.596V13.3591C772.312 9.07143 773.419 5.82108 775.632 3.60808C777.845 1.39508 781.026 0.288574 785.176 0.288574C789.325 0.288574 792.506 1.39508 794.719 3.60808C797.07 5.82108 798.246 9.07143 798.246 13.3591V89.9151H798.661L832.893 53.8156C835.66 51.0493 838.08 48.9055 840.155 47.384C842.229 45.8626 845.065 45.1019 848.661 45.1019C852.257 45.1019 854.954 46.0701 856.752 48.0064C858.689 49.8045 859.657 52.0175 859.657 54.6454C859.657 57.2734 858.412 59.9013 855.922 62.5292L819.823 100.704V89.9151L859.449 132.654C861.939 135.282 863.045 137.979 862.769 140.745C862.631 143.373 861.524 145.586 859.449 147.384C857.375 149.044 854.747 149.874 851.566 149.874C847.693 149.874 844.581 149.113 842.229 147.591C840.016 146.07 837.527 143.788 834.761 140.745L798.661 102.986H798.246V136.596C798.246 145.448 793.889 149.874 785.176 149.874Z" fill="#13161B"/>
<path d="M903.46 149.874C899.311 149.874 896.061 148.767 893.709 146.554C891.496 144.203 890.39 140.883 890.39 136.596V66.2637H880.846C877.527 66.2637 874.968 65.4338 873.17 63.7741C871.372 61.976 870.473 59.5555 870.473 56.5126C870.473 53.3315 871.372 50.911 873.17 49.2512C874.968 47.5915 877.527 46.7616 880.846 46.7616H897.859L890.39 53.6081V46.5541C890.39 32.3079 893.986 21.6579 901.178 14.6039C908.37 7.41168 918.744 3.19315 932.298 1.94833L939.352 1.32593C942.119 1.0493 944.332 1.53339 945.991 2.77821C947.651 3.88471 948.758 5.40615 949.311 7.34253C949.864 9.14059 949.933 11.0078 949.518 12.9442C949.103 14.8806 948.204 16.6095 946.821 18.1309C945.576 19.514 943.917 20.2747 941.842 20.4131L938.938 20.6205C931.054 21.1738 925.314 23.1793 921.718 26.6371C918.121 30.0949 916.323 35.3508 916.323 42.4048V50.0811L913.004 46.7616H933.958C937.278 46.7616 939.837 47.5915 941.635 49.2512C943.433 50.911 944.332 53.3315 944.332 56.5126C944.332 59.5555 943.433 61.976 941.635 63.7741C939.837 65.4338 937.278 66.2637 933.958 66.2637H916.323V136.596C916.323 145.448 912.036 149.874 903.46 149.874ZM993.709 150.289C982.229 150.289 973.585 147.038 967.776 140.538C961.967 133.899 959.062 124.217 959.062 111.492V13.3591C959.062 9.07143 960.168 5.82108 962.381 3.60808C964.594 1.39508 967.776 0.288574 971.925 0.288574C976.074 0.288574 979.256 1.39508 981.469 3.60808C983.82 5.82108 984.996 9.07143 984.996 13.3591V110.247C984.996 116.609 986.31 121.312 988.937 124.355C991.704 127.398 995.576 128.919 1000.56 128.919C1001.66 128.919 1002.7 128.919 1003.67 128.919C1004.64 128.781 1005.6 128.643 1006.57 128.504C1008.51 128.228 1009.82 128.781 1010.51 130.164C1011.21 131.409 1011.55 134.037 1011.55 138.048C1011.55 141.506 1010.86 144.203 1009.48 146.139C1008.09 148.076 1005.81 149.251 1002.63 149.666C1001.25 149.804 999.795 149.943 998.274 150.081C996.752 150.219 995.231 150.289 993.709 150.289Z" fill="#13161B"/>
<path d="M1070.42 150.289C1059.91 150.289 1050.78 148.145 1043.03 143.857C1035.29 139.569 1029.27 133.484 1024.98 125.6C1020.69 117.578 1018.55 108.172 1018.55 97.384C1018.55 89.2236 1019.73 81.9622 1022.08 75.5998C1024.57 69.0991 1028.09 63.5666 1032.66 59.0023C1037.22 54.2996 1042.69 50.7727 1049.05 48.4214C1055.41 45.9317 1062.53 44.6869 1070.42 44.6869C1080.93 44.6869 1090.06 46.8308 1097.8 51.1185C1105.55 55.4061 1111.57 61.4919 1115.85 69.3757C1120.14 77.2595 1122.28 86.5956 1122.28 97.384C1122.28 105.544 1121.04 112.875 1118.55 119.376C1116.2 125.876 1112.74 131.478 1108.18 136.181C1103.61 140.745 1098.15 144.272 1091.79 146.762C1085.42 149.113 1078.3 150.289 1070.42 150.289ZM1070.42 130.579C1075.54 130.579 1080.03 129.334 1083.9 126.845C1087.78 124.355 1090.75 120.69 1092.82 115.849C1095.04 110.869 1096.14 104.715 1096.14 97.384C1096.14 86.319 1093.79 78.0894 1089.09 72.6952C1084.39 67.1627 1078.16 64.3965 1070.42 64.3965C1065.3 64.3965 1060.8 65.6413 1056.93 68.1309C1053.06 70.4822 1050.02 74.1475 1047.8 79.1268C1045.73 83.9677 1044.69 90.0535 1044.69 97.384C1044.69 108.311 1047.04 116.609 1051.75 122.28C1056.45 127.813 1062.67 130.579 1070.42 130.579Z" fill="#13161B"/>
<path d="M1180.88 149.874C1177.42 149.874 1174.44 149.044 1171.95 147.384C1169.46 145.586 1167.46 142.82 1165.94 139.085L1135.85 62.3218C1134.61 59.0023 1134.19 56.0977 1134.61 53.6081C1135.16 50.9801 1136.48 48.9055 1138.55 47.384C1140.63 45.8626 1143.39 45.1019 1146.85 45.1019C1149.89 45.1019 1152.38 45.8626 1154.32 47.384C1156.26 48.7671 1157.92 51.4642 1159.3 55.4753L1184.4 124.562H1179.63L1205.56 53.8156C1206.67 50.7727 1208.12 48.5597 1209.92 47.1766C1211.86 45.7934 1214.35 45.1019 1217.39 45.1019C1220.43 45.1019 1222.92 45.8626 1224.86 47.384C1226.8 48.7671 1228.25 50.911 1229.22 53.8156L1254.73 124.562H1250.38L1275.69 54.8529C1277.07 51.1185 1278.8 48.5597 1280.88 47.1766C1283.09 45.7934 1285.51 45.1019 1288.14 45.1019C1291.46 45.1019 1294.01 45.9317 1295.81 47.5915C1297.61 49.2512 1298.65 51.3951 1298.93 54.023C1299.2 56.5126 1298.72 59.2789 1297.47 62.3218L1267.6 139.085C1266.21 142.681 1264.21 145.378 1261.58 147.177C1259.09 148.975 1256.12 149.874 1252.66 149.874C1249.2 149.874 1246.16 148.975 1243.53 147.177C1241.04 145.378 1239.1 142.681 1237.72 139.085L1210.54 67.0936H1222.37L1195.81 138.878C1194.43 142.612 1192.49 145.378 1190 147.177C1187.51 148.975 1184.47 149.874 1180.88 149.874Z" fill="#13161B"/>
</svg>
