<svg width="341" height="192" viewBox="0 0 341 192" fill="none" xmlns="http://www.w3.org/2000/svg">
<path fill-rule="evenodd" clip-rule="evenodd" d="M304.375 160.513L302.389 165.109C302.358 165.167 302.326 165.225 302.295 165.284C298.708 172.03 301.269 180.406 308.015 183.993C314.761 187.58 323.138 185.019 326.725 178.273C326.952 177.845 327.155 177.411 327.334 176.971C343.614 143.347 345.483 108.915 330.355 74.4881C310.048 28.2749 273.601 2.60594 223.264 0.441137C174.431 -1.65897 137.973 20.5528 112.384 61.7764C111.938 62.3629 111.534 62.9929 111.177 63.6643C111.084 63.8377 110.996 64.0121 110.912 64.1875C110.909 64.192 110.907 64.1966 110.904 64.2011L110.905 64.2018C107.728 70.8493 110.329 78.8817 116.897 82.3739C123.643 85.9609 132.019 83.3999 135.606 76.6538C135.948 76.0116 136.234 75.3546 136.465 74.6883C136.655 74.3907 136.845 74.0937 137.034 73.7973L137.034 73.7966C138.509 71.482 139.96 69.2066 141.52 67.0093C154.783 48.3284 172.59 36.1365 194.754 30.3217C209.802 26.3741 224.977 26.111 240.109 29.8171C264.157 35.7068 283.433 48.8037 297.034 69.4835C313.181 94.035 316.829 120.704 308.945 148.92C308.597 150.168 308.124 151.381 307.614 152.689C307.325 153.428 307.025 154.198 306.729 155.021C305.871 157.099 305.123 158.807 304.375 160.513ZM230.019 126.941L229.984 127.005L229.985 127.006L229.957 127.055C229.896 127.165 229.835 127.274 229.772 127.381C210.986 160.356 183.364 181.824 145.886 188.6C96.1804 197.586 54.4765 181.702 24.4904 141.158C-4.7849 101.575 -6.79121 58.4513 13.474 13.8758C13.6908 13.2847 13.9506 12.7015 14.2545 12.1299C17.8414 5.38379 26.218 2.82279 32.9641 6.40975C39.7102 9.99672 42.2712 18.3733 38.6842 25.1194C38.5309 25.4078 38.3688 25.6884 38.1985 25.9613C37.8156 26.8574 37.4302 27.7444 37.0472 28.6261L37.0467 28.6271L37.0462 28.6281L37.0459 28.6289C35.9521 31.1466 34.8769 33.6213 33.928 36.1437C25.8605 57.5874 25.7198 79.1724 33.3096 100.808C38.4623 115.496 46.7424 128.23 58.291 138.711C76.6442 155.366 98.3037 164.035 123.074 163.758C152.482 163.428 176.647 151.548 195.636 129.236C196.476 128.25 197.217 127.18 198.017 126.026C198.468 125.373 198.939 124.694 199.456 123.988C200.196 122.873 201.615 120.496 202.852 118.422L202.853 118.421L202.854 118.419L202.856 118.415L202.858 118.412C203.697 117.007 204.452 115.742 204.854 115.107L205.375 114.378C205.455 114.212 205.539 114.047 205.626 113.884C209.213 107.138 217.589 104.577 224.335 108.164C231.081 111.751 233.642 120.127 230.055 126.873L230.019 126.941ZM158.326 89.5761C155.118 95.0636 150.987 99.9632 145.91 103.893C139.699 108.612 132.951 111.595 125.457 112.907C110.751 115.483 95.9553 109.526 88.5586 97.9558C79.4564 83.7172 78.15 68.7853 85.0367 53.2185L85.9079 51.0858L85.858 51.0599C85.9876 50.8449 86.1122 50.6251 86.2315 50.4008C89.8185 43.6547 87.2575 35.2781 80.5114 31.6911C73.7653 28.1041 65.3887 30.6651 61.8018 37.4112C61.6664 37.6658 61.5398 37.9227 61.4218 38.1816L61.3979 38.1707C60.9536 39.307 60.4952 40.4371 60.0386 41.5626C58.7287 44.7918 57.434 47.9838 56.5297 51.176C49.8958 74.5953 53.2315 96.4065 67.7463 115.978C77.7807 129.508 91.4644 137.721 108.072 140.183C130.24 143.47 149.802 136.983 166.682 122.216C173.019 116.672 178.2 109.846 182.124 102.23L182.113 102.224C191.409 87.3211 206.049 79.048 222.915 78.6249C236.632 78.2808 249.829 87.208 255.906 100.834C259.003 107.778 260.299 115.038 259.856 122.824C259.435 129.229 257.207 134.839 254.451 140.567L254.461 140.572C251.307 147.213 253.91 155.225 260.468 158.712C267.025 162.199 275.123 159.877 278.865 153.548L278.873 153.552C278.916 153.474 278.958 153.396 279.001 153.318L279.069 153.192C279.106 153.126 279.142 153.059 279.178 152.992L279.195 152.96L279.218 152.914C283.137 145.593 285.611 137.902 286.637 129.785C289.448 107.537 283.9 87.6992 268.799 71.1699C257.486 58.7869 243.041 52.0432 226.227 51.298C201.906 50.2199 181.971 59.6578 166.27 78.2562C163.393 81.6645 160.777 85.3874 158.341 89.5841L158.326 89.5761Z" fill="#0FBFC4"/>
</svg>
