<svg width="1721" height="355" viewBox="0 0 1721 355" fill="none" xmlns="http://www.w3.org/2000/svg">
<g clip-path="url(#clip0_480_8817)">
<path fill-rule="evenodd" clip-rule="evenodd" d="M312.375 242.513L310.389 247.109C310.358 247.167 310.326 247.225 310.295 247.284C306.708 254.03 309.269 262.406 316.015 265.993C322.761 269.58 331.138 267.019 334.725 260.273C334.952 259.845 335.155 259.411 335.334 258.971C351.614 225.347 353.483 190.915 338.355 156.488C318.048 110.275 281.601 84.6059 231.264 82.4411C182.431 80.341 145.973 102.553 120.384 143.776C119.938 144.363 119.534 144.993 119.177 145.664C119.084 145.838 118.996 146.012 118.912 146.187C118.909 146.192 118.907 146.197 118.904 146.201L118.905 146.202C115.728 152.849 118.329 160.882 124.897 164.374C131.643 167.961 140.019 165.4 143.606 158.654C143.948 158.012 144.234 157.355 144.465 156.688C144.655 156.391 144.845 156.094 145.034 155.797L145.034 155.797C146.509 153.482 147.96 151.207 149.52 149.009C162.783 130.328 180.59 118.136 202.754 112.322C217.802 108.374 232.977 108.111 248.109 111.817C272.157 117.707 291.433 130.804 305.034 151.484C321.181 176.035 324.829 202.704 316.945 230.92C316.597 232.168 316.124 233.381 315.614 234.689C315.325 235.428 315.025 236.198 314.729 237.021C313.871 239.099 313.123 240.807 312.375 242.513ZM238.019 208.941L237.984 209.005L237.985 209.006L237.957 209.055C237.896 209.165 237.835 209.274 237.772 209.381C218.986 242.356 191.364 263.824 153.886 270.6C104.18 279.586 62.4765 263.702 32.4904 223.158C3.2151 183.575 1.20879 140.451 21.474 95.8758C21.6908 95.2847 21.9506 94.7015 22.2545 94.1299C25.8414 87.3838 34.218 84.8228 40.9641 88.4098C47.7102 91.9967 50.2712 100.373 46.6842 107.119C46.5309 107.408 46.3688 107.688 46.1985 107.961C45.8156 108.857 45.4302 109.744 45.0472 110.626L45.0467 110.627L45.0462 110.628L45.0459 110.629C43.9521 113.147 42.8769 115.621 41.928 118.144C33.8605 139.587 33.7198 161.172 41.3096 182.808C46.4623 197.496 54.7424 210.23 66.291 220.711C84.6442 237.366 106.304 246.035 131.074 245.758C160.482 245.428 184.647 233.548 203.636 211.236C204.476 210.25 205.217 209.18 206.017 208.026C206.468 207.373 206.939 206.694 207.456 205.988C208.196 204.873 209.615 202.496 210.852 200.422L210.853 200.421L210.854 200.419L210.856 200.415L210.858 200.412C211.697 199.007 212.452 197.742 212.854 197.107L213.375 196.378C213.455 196.212 213.539 196.047 213.626 195.884C217.213 189.138 225.589 186.577 232.335 190.164C239.081 193.751 241.642 202.127 238.055 208.873L238.019 208.941ZM166.326 171.576C163.118 177.064 158.987 181.963 153.91 185.893C147.699 190.612 140.951 193.595 133.457 194.907C118.751 197.483 103.955 191.526 96.5586 179.956C87.4564 165.717 86.15 150.785 93.0367 135.219L93.9079 133.086L93.858 133.06C93.9876 132.845 94.1122 132.625 94.2315 132.401C97.8185 125.655 95.2575 117.278 88.5114 113.691C81.7653 110.104 73.3887 112.665 69.8018 119.411C69.6664 119.666 69.5398 119.923 69.4218 120.182L69.3979 120.171C68.9536 121.307 68.4952 122.437 68.0386 123.563C66.7287 126.792 65.434 129.984 64.5297 133.176C57.8958 156.595 61.2315 178.407 75.7463 197.978C85.7807 211.508 99.4644 219.721 116.072 222.183C138.24 225.47 157.802 218.983 174.682 204.216C181.019 198.672 186.2 191.846 190.124 184.23L190.113 184.224C199.409 169.321 214.049 161.048 230.915 160.625C244.632 160.281 257.829 169.208 263.906 182.834C267.003 189.778 268.299 197.038 267.856 204.824C267.435 211.229 265.207 216.839 262.451 222.567L262.461 222.572C259.307 229.213 261.91 237.225 268.468 240.712C275.025 244.199 283.123 241.877 286.865 235.548L286.873 235.552C286.916 235.474 286.958 235.396 287.001 235.318L287.069 235.192C287.106 235.126 287.142 235.059 287.178 234.992L287.195 234.96L287.218 234.914C291.137 227.593 293.611 219.902 294.637 211.785C297.448 189.537 291.9 169.699 276.799 153.17C265.486 140.787 251.041 134.043 234.227 133.298C209.906 132.22 189.971 141.658 174.27 160.256C171.393 163.665 168.777 167.387 166.341 171.584L166.326 171.576Z" fill="#0FBFC4"/>
</g>
<path d="M435.9 250.425C432.443 250.425 429.607 249.734 427.394 248.351C425.32 246.967 423.867 245.1 423.037 242.749C422.346 240.259 422.346 237.562 423.037 234.658C423.867 231.615 425.458 228.503 427.809 225.322L507.062 117.853V126.359H433.826C429.953 126.359 426.979 125.391 424.905 123.454C422.968 121.518 422 118.752 422 115.156C422 111.559 422.968 108.862 424.905 107.064C426.979 105.128 429.953 104.16 433.826 104.16H519.718C523.176 104.16 525.942 104.851 528.017 106.234C530.23 107.618 531.682 109.485 532.373 111.836C533.203 114.187 533.203 116.885 532.373 119.927C531.682 122.97 530.16 126.082 527.809 129.263L448.556 236.525V228.226H524.905C528.777 228.226 531.682 229.194 533.618 231.131C535.693 232.929 536.73 235.626 536.73 239.222C536.73 242.818 535.693 245.584 533.618 247.521C531.682 249.457 528.777 250.425 524.905 250.425H435.9Z" fill="#0FBFC4"/>
<path d="M599.971 252.5C588.491 252.5 578.602 250.356 570.303 246.068C562.004 241.781 555.573 235.695 551.008 227.811C546.582 219.927 544.369 210.591 544.369 199.803C544.369 189.291 546.513 180.093 550.801 172.21C555.227 164.326 561.243 158.171 568.851 153.745C576.596 149.181 585.379 146.898 595.199 146.898C602.391 146.898 608.823 148.074 614.494 150.425C620.303 152.777 625.213 156.165 629.224 160.591C633.374 165.017 636.486 170.411 638.56 176.774C640.773 182.998 641.88 190.052 641.88 197.936C641.88 200.425 640.981 202.362 639.183 203.745C637.523 204.99 635.102 205.612 631.921 205.612H565.324V190.674H623.622L620.303 193.786C620.303 187.424 619.335 182.099 617.398 177.811C615.6 173.524 612.903 170.273 609.307 168.06C605.849 165.709 601.492 164.533 596.237 164.533C590.427 164.533 585.448 165.916 581.299 168.683C577.288 171.311 574.176 175.114 571.963 180.093C569.888 184.934 568.851 190.743 568.851 197.521V198.973C568.851 210.315 571.479 218.821 576.734 224.492C582.129 230.024 590.013 232.79 600.386 232.79C603.982 232.79 607.993 232.376 612.419 231.546C616.983 230.577 621.271 228.987 625.282 226.774C628.187 225.114 630.746 224.423 632.959 224.699C635.172 224.837 636.9 225.598 638.145 226.981C639.528 228.364 640.358 230.093 640.635 232.168C640.912 234.104 640.497 236.11 639.39 238.185C638.422 240.259 636.693 242.057 634.203 243.579C629.362 246.622 623.761 248.904 617.398 250.425C611.174 251.808 605.365 252.5 599.971 252.5Z" fill="#0FBFC4"/>
<path d="M712.418 252.5C700.938 252.5 691.048 250.356 682.749 246.068C674.451 241.781 668.019 235.695 663.455 227.811C659.029 219.927 656.816 210.591 656.816 199.803C656.816 189.291 658.96 180.093 663.247 172.21C667.673 164.326 673.69 158.171 681.297 153.745C689.043 149.181 697.826 146.898 707.646 146.898C714.838 146.898 721.27 148.074 726.94 150.425C732.749 152.777 737.66 156.165 741.671 160.591C745.82 165.017 748.932 170.411 751.007 176.774C753.22 182.998 754.326 190.052 754.326 197.936C754.326 200.425 753.427 202.362 751.629 203.745C749.969 204.99 747.549 205.612 744.368 205.612H677.77V190.674H736.069L732.749 193.786C732.749 187.424 731.781 182.099 729.845 177.811C728.047 173.524 725.35 170.273 721.754 168.06C718.296 165.709 713.939 164.533 708.683 164.533C702.874 164.533 697.895 165.916 693.745 168.683C689.734 171.311 686.622 175.114 684.409 180.093C682.335 184.934 681.297 190.743 681.297 197.521V198.973C681.297 210.315 683.925 218.821 689.181 224.492C694.575 230.024 702.459 232.79 712.832 232.79C716.429 232.79 720.44 232.376 724.866 231.546C729.43 230.577 733.718 228.987 737.729 226.774C740.633 225.114 743.192 224.423 745.405 224.699C747.618 224.837 749.347 225.598 750.592 226.981C751.975 228.364 752.805 230.093 753.081 232.168C753.358 234.104 752.943 236.11 751.837 238.185C750.868 240.259 749.14 242.057 746.65 243.579C741.809 246.622 736.207 248.904 729.845 250.425C723.621 251.808 717.812 252.5 712.418 252.5Z" fill="#0FBFC4"/>
<path d="M828.806 252.085C825.071 252.085 822.029 251.186 819.677 249.388C817.464 247.59 815.666 244.755 814.283 240.882L770.922 118.268C769.401 113.842 769.677 110.107 771.752 107.064C773.965 104.021 777.63 102.5 782.748 102.5C786.482 102.5 789.387 103.399 791.462 105.197C793.536 106.857 795.196 109.554 796.441 113.288L833.785 224.077H825.486L864.491 113.496C865.874 109.761 867.603 106.995 869.677 105.197C871.752 103.399 874.449 102.5 877.769 102.5C881.088 102.5 883.716 103.399 885.652 105.197C887.589 106.995 889.249 109.831 890.632 113.703L928.391 224.077H921.13L959.096 113.288C960.341 109.692 962.001 106.995 964.076 105.197C966.15 103.399 968.986 102.5 972.582 102.5C977.008 102.5 980.258 104.021 982.333 107.064C984.408 110.107 984.684 113.842 983.163 118.268L939.387 241.089C938.004 244.824 936.206 247.59 933.993 249.388C931.78 251.186 928.806 252.085 925.072 252.085C921.337 252.085 918.363 251.186 916.15 249.388C913.937 247.59 912.139 244.755 910.756 240.882L874.657 137.977H879.428L842.914 241.089C841.531 244.824 839.733 247.59 837.52 249.388C835.445 251.186 832.54 252.085 828.806 252.085Z" fill="#0FBFC4"/>
<path d="M1039.13 252.5C1028.62 252.5 1019.49 250.356 1011.75 246.068C1004 241.781 997.986 235.695 993.698 227.811C989.411 219.789 987.267 210.384 987.267 199.595C987.267 191.435 988.442 184.174 990.794 177.811C993.283 171.311 996.81 165.778 1001.37 161.214C1005.94 156.511 1011.4 152.984 1017.76 150.633C1024.13 148.143 1031.25 146.898 1039.13 146.898C1049.65 146.898 1058.77 149.042 1066.52 153.33C1074.27 157.618 1080.28 163.703 1084.57 171.587C1088.86 179.471 1091 188.807 1091 199.595C1091 207.756 1089.76 215.086 1087.27 221.587C1084.92 228.088 1081.46 233.689 1076.89 238.392C1072.33 242.956 1066.87 246.483 1060.5 248.973C1054.14 251.324 1047.02 252.5 1039.13 252.5ZM1039.13 232.79C1044.25 232.79 1048.75 231.546 1052.62 229.056C1056.49 226.566 1059.47 222.901 1061.54 218.06C1063.75 213.081 1064.86 206.926 1064.86 199.595C1064.86 188.53 1062.51 180.301 1057.81 174.907C1053.1 169.374 1046.88 166.608 1039.13 166.608C1034.02 166.608 1029.52 167.853 1025.65 170.342C1021.78 172.694 1018.73 176.359 1016.52 181.338C1014.45 186.179 1013.41 192.265 1013.41 199.595C1013.41 210.522 1015.76 218.821 1020.46 224.492C1025.16 230.024 1031.39 232.79 1039.13 232.79Z" fill="#0FBFC4"/>
<path d="M1125.68 252.085C1121.4 252.085 1118.08 250.979 1115.73 248.766C1113.51 246.414 1112.41 243.095 1112.41 238.807V160.384C1112.41 156.096 1113.51 152.846 1115.73 150.633C1117.94 148.42 1121.05 147.313 1125.06 147.313C1129.07 147.313 1132.18 148.42 1134.4 150.633C1136.61 152.846 1137.72 156.096 1137.72 160.384V173.454H1135.64C1137.58 165.156 1141.38 158.862 1147.05 154.575C1152.72 150.287 1160.26 147.728 1169.67 146.898C1172.57 146.622 1174.85 147.382 1176.51 149.181C1178.31 150.84 1179.35 153.468 1179.63 157.064C1179.9 160.522 1179.07 163.358 1177.14 165.571C1175.34 167.645 1172.57 168.89 1168.84 169.305L1164.27 169.72C1155.84 170.55 1149.47 173.178 1145.19 177.604C1140.9 181.891 1138.75 187.977 1138.75 195.861V238.807C1138.75 243.095 1137.65 246.414 1135.44 248.766C1133.22 250.979 1129.97 252.085 1125.68 252.085Z" fill="#0FBFC4"/>
<path d="M1206.51 252.085C1202.37 252.085 1199.18 250.979 1196.97 248.766C1194.76 246.414 1193.65 243.095 1193.65 238.807V115.571C1193.65 111.283 1194.76 108.033 1196.97 105.82C1199.18 103.607 1202.37 102.5 1206.51 102.5C1210.66 102.5 1213.84 103.607 1216.06 105.82C1218.41 108.033 1219.58 111.283 1219.58 115.571V192.127H1220L1254.23 156.027C1257 153.261 1259.42 151.117 1261.49 149.595C1263.57 148.074 1266.4 147.313 1270 147.313C1273.6 147.313 1276.29 148.281 1278.09 150.218C1280.03 152.016 1281 154.229 1281 156.857C1281 159.485 1279.75 162.113 1277.26 164.741L1241.16 202.915V192.127L1280.79 234.865C1283.28 237.493 1284.38 240.19 1284.11 242.956C1283.97 245.584 1282.86 247.797 1280.79 249.595C1278.71 251.255 1276.09 252.085 1272.9 252.085C1269.03 252.085 1265.92 251.324 1263.57 249.803C1261.36 248.281 1258.87 245.999 1256.1 242.956L1220 205.197H1219.58V238.807C1219.58 247.659 1215.23 252.085 1206.51 252.085Z" fill="#0FBFC4"/>
<path d="M1324.8 252.085C1320.65 252.085 1317.4 250.979 1315.05 248.766C1312.84 246.414 1311.73 243.095 1311.73 238.807V168.475H1302.19C1298.87 168.475 1296.31 167.645 1294.51 165.985C1292.71 164.187 1291.81 161.767 1291.81 158.724C1291.81 155.543 1292.71 153.122 1294.51 151.463C1296.31 149.803 1298.87 148.973 1302.19 148.973H1319.2L1311.73 155.82V148.766C1311.73 134.519 1315.32 123.869 1322.52 116.815C1329.71 109.623 1340.08 105.405 1353.64 104.16L1360.69 103.537C1363.46 103.261 1365.67 103.745 1367.33 104.99C1368.99 106.096 1370.1 107.618 1370.65 109.554C1371.2 111.352 1371.27 113.219 1370.86 115.156C1370.44 117.092 1369.54 118.821 1368.16 120.342C1366.92 121.725 1365.26 122.486 1363.18 122.624L1360.28 122.832C1352.39 123.385 1346.65 125.391 1343.06 128.849C1339.46 132.306 1337.66 137.562 1337.66 144.616V152.293L1334.34 148.973H1355.3C1358.62 148.973 1361.18 149.803 1362.97 151.463C1364.77 153.122 1365.67 155.543 1365.67 158.724C1365.67 161.767 1364.77 164.187 1362.97 165.985C1361.18 167.645 1358.62 168.475 1355.3 168.475H1337.66V238.807C1337.66 247.659 1333.37 252.085 1324.8 252.085ZM1415.05 252.5C1403.57 252.5 1394.92 249.25 1389.11 242.749C1383.31 236.11 1380.4 226.428 1380.4 213.703V115.571C1380.4 111.283 1381.51 108.033 1383.72 105.82C1385.93 103.607 1389.11 102.5 1393.26 102.5C1397.41 102.5 1400.59 103.607 1402.81 105.82C1405.16 108.033 1406.33 111.283 1406.33 115.571V212.459C1406.33 218.821 1407.65 223.524 1410.28 226.566C1413.04 229.609 1416.92 231.131 1421.89 231.131C1423 231.131 1424.04 231.131 1425.01 231.131C1425.97 230.992 1426.94 230.854 1427.91 230.716C1429.85 230.439 1431.16 230.992 1431.85 232.376C1432.54 233.62 1432.89 236.248 1432.89 240.259C1432.89 243.717 1432.2 246.414 1430.82 248.351C1429.43 250.287 1427.15 251.463 1423.97 251.878C1422.59 252.016 1421.13 252.154 1419.61 252.293C1418.09 252.431 1416.57 252.5 1415.05 252.5Z" fill="#0FBFC4"/>
<path d="M1491.76 252.5C1481.24 252.5 1472.12 250.356 1464.37 246.068C1456.63 241.781 1450.61 235.695 1446.32 227.811C1442.03 219.789 1439.89 210.384 1439.89 199.595C1439.89 191.435 1441.06 184.174 1443.42 177.811C1445.91 171.311 1449.43 165.778 1454 161.214C1458.56 156.511 1464.02 152.984 1470.39 150.633C1476.75 148.143 1483.87 146.898 1491.76 146.898C1502.27 146.898 1511.4 149.042 1519.14 153.33C1526.89 157.618 1532.9 163.703 1537.19 171.587C1541.48 179.471 1543.62 188.807 1543.62 199.595C1543.62 207.756 1542.38 215.086 1539.89 221.587C1537.54 228.088 1534.08 233.689 1529.52 238.392C1524.95 242.956 1519.49 246.483 1513.13 248.973C1506.76 251.324 1499.64 252.5 1491.76 252.5ZM1491.76 232.79C1496.87 232.79 1501.37 231.546 1505.24 229.056C1509.11 226.566 1512.09 222.901 1514.16 218.06C1516.38 213.081 1517.48 206.926 1517.48 199.595C1517.48 188.53 1515.13 180.301 1510.43 174.907C1505.73 169.374 1499.5 166.608 1491.76 166.608C1486.64 166.608 1482.14 167.853 1478.27 170.342C1474.4 172.694 1471.36 176.359 1469.14 181.338C1467.07 186.179 1466.03 192.265 1466.03 199.595C1466.03 210.522 1468.38 218.821 1473.08 224.492C1477.79 230.024 1484.01 232.79 1491.76 232.79Z" fill="#0FBFC4"/>
<path d="M1602.21 252.085C1598.76 252.085 1595.78 251.255 1593.29 249.595C1590.8 247.797 1588.8 245.031 1587.28 241.297L1557.19 164.533C1555.95 161.214 1555.53 158.309 1555.95 155.82C1556.5 153.192 1557.82 151.117 1559.89 149.595C1561.97 148.074 1564.73 147.313 1568.19 147.313C1571.23 147.313 1573.72 148.074 1575.66 149.595C1577.59 150.979 1579.25 153.676 1580.64 157.687L1605.74 226.774H1600.97L1626.9 156.027C1628.01 152.984 1629.46 150.771 1631.26 149.388C1633.2 148.005 1635.69 147.313 1638.73 147.313C1641.77 147.313 1644.26 148.074 1646.2 149.595C1648.13 150.979 1649.59 153.122 1650.55 156.027L1676.07 226.774H1671.72L1697.03 157.064C1698.41 153.33 1700.14 150.771 1702.21 149.388C1704.43 148.005 1706.85 147.313 1709.48 147.313C1712.8 147.313 1715.35 148.143 1717.15 149.803C1718.95 151.463 1719.99 153.607 1720.26 156.234C1720.54 158.724 1720.06 161.49 1718.81 164.533L1688.94 241.297C1687.55 244.893 1685.55 247.59 1682.92 249.388C1680.43 251.186 1677.46 252.085 1674 252.085C1670.54 252.085 1667.5 251.186 1664.87 249.388C1662.38 247.59 1660.44 244.893 1659.06 241.297L1631.88 169.305H1643.71L1617.15 241.089C1615.77 244.824 1613.83 247.59 1611.34 249.388C1608.85 251.186 1605.81 252.085 1602.21 252.085Z" fill="#0FBFC4"/>
<defs>
<clipPath id="clip0_480_8817">
<rect x="0.831055" width="355" height="355" rx="50" fill="white"/>
</clipPath>
</defs>
</svg>
