<svg width="1299" height="151" viewBox="0 0 1299 151" fill="none" xmlns="http://www.w3.org/2000/svg">
<path d="M14.0694 148.214C10.6115 148.214 7.77614 147.522 5.56314 146.139C3.48845 144.756 2.03617 142.889 1.20629 140.538C0.514727 138.048 0.514727 135.351 1.20629 132.446C2.03617 129.403 3.62676 126.291 5.97807 123.11L85.2312 15.6413V24.1475H11.9947C8.12192 24.1475 5.1482 23.1793 3.07351 21.2429C1.13713 19.3066 0.168945 16.5403 0.168945 12.9442C0.168945 9.34806 1.13713 6.65096 3.07351 4.85289C5.1482 2.91652 8.12192 1.94833 11.9947 1.94833H97.8868C101.345 1.94833 104.111 2.63989 106.186 4.02302C108.399 5.40614 109.851 7.27336 110.542 9.62468C111.372 11.976 111.372 14.6731 110.542 17.716C109.851 20.7588 108.329 23.8709 105.978 27.0521L26.725 134.313V126.015H103.074C106.946 126.015 109.851 126.983 111.787 128.919C113.862 130.717 114.899 133.414 114.899 137.011C114.899 140.607 113.862 143.373 111.787 145.309C109.851 147.246 106.946 148.214 103.074 148.214H14.0694Z" fill="white"/>
<path d="M178.14 150.289C166.66 150.289 156.771 148.145 148.472 143.857C140.173 139.569 133.742 133.484 129.177 125.6C124.751 117.716 122.538 108.38 122.538 97.5915C122.538 87.0797 124.682 77.8819 128.97 69.9981C133.396 62.1143 139.412 55.9594 147.02 51.5334C154.765 46.9691 163.548 44.6869 173.368 44.6869C180.56 44.6869 186.992 45.8626 192.663 48.2139C198.472 50.5652 203.382 53.9539 207.393 58.3799C211.542 62.8059 214.654 68.2001 216.729 74.5624C218.942 80.7865 220.049 87.8404 220.049 95.7243C220.049 98.2139 219.15 100.15 217.352 101.533C215.692 102.778 213.271 103.401 210.09 103.401H143.493V88.4629H201.791L198.472 91.5749C198.472 85.2125 197.504 79.8875 195.567 75.5998C193.769 71.3121 191.072 68.0618 187.476 65.8487C184.018 63.4974 179.661 62.3218 174.406 62.3218C168.596 62.3218 163.617 63.7049 159.468 66.4712C155.457 69.0991 152.345 72.9027 150.132 77.8819C148.057 82.7229 147.02 88.532 147.02 95.3093V96.7616C147.02 108.103 149.648 116.609 154.903 122.28C160.298 127.813 168.181 130.579 178.555 130.579C182.151 130.579 186.162 130.164 190.588 129.334C195.152 128.366 199.44 126.775 203.451 124.562C206.356 122.903 208.914 122.211 211.128 122.488C213.341 122.626 215.069 123.387 216.314 124.77C217.697 126.153 218.527 127.882 218.804 129.957C219.08 131.893 218.666 133.899 217.559 135.973C216.591 138.048 214.862 139.846 212.372 141.367C207.531 144.41 201.93 146.692 195.567 148.214C189.343 149.597 183.534 150.289 178.14 150.289Z" fill="white"/>
<path d="M290.586 150.289C279.107 150.289 269.217 148.145 260.918 143.857C252.62 139.569 246.188 133.484 241.624 125.6C237.198 117.716 234.985 108.38 234.985 97.5915C234.985 87.0797 237.129 77.8819 241.416 69.9981C245.842 62.1143 251.859 55.9594 259.466 51.5334C267.212 46.9691 275.994 44.6869 285.815 44.6869C293.007 44.6869 299.438 45.8626 305.109 48.2139C310.918 50.5652 315.829 53.9539 319.84 58.3799C323.989 62.8059 327.101 68.2001 329.176 74.5624C331.389 80.7865 332.495 87.8404 332.495 95.7243C332.495 98.2139 331.596 100.15 329.798 101.533C328.138 102.778 325.718 103.401 322.537 103.401H255.939V88.4629H314.238L310.918 91.5749C310.918 85.2125 309.95 79.8875 308.014 75.5998C306.216 71.3121 303.519 68.0618 299.923 65.8487C296.465 63.4974 292.108 62.3218 286.852 62.3218C281.043 62.3218 276.064 63.7049 271.914 66.4712C267.903 69.0991 264.791 72.9027 262.578 77.8819C260.503 82.7229 259.466 88.532 259.466 95.3093V96.7616C259.466 108.103 262.094 116.609 267.35 122.28C272.744 127.813 280.628 130.579 291.001 130.579C294.598 130.579 298.609 130.164 303.035 129.334C307.599 128.366 311.887 126.775 315.898 124.562C318.802 122.903 321.361 122.211 323.574 122.488C325.787 122.626 327.516 123.387 328.761 124.77C330.144 126.153 330.974 127.882 331.25 129.957C331.527 131.893 331.112 133.899 330.006 135.973C329.037 138.048 327.308 139.846 324.819 141.367C319.978 144.41 314.376 146.692 308.014 148.214C301.79 149.597 295.981 150.289 290.586 150.289Z" fill="white"/>
<path d="M406.975 149.874C403.24 149.874 400.198 148.975 397.846 147.177C395.633 145.378 393.835 142.543 392.452 138.67L349.091 16.0562C347.57 11.6302 347.846 7.89577 349.921 4.85289C352.134 1.81002 355.799 0.288574 360.917 0.288574C364.651 0.288574 367.556 1.18761 369.63 2.98568C371.705 4.64543 373.365 7.34252 374.61 11.077L411.954 121.865H403.655L442.66 11.2844C444.043 7.54999 445.772 4.78374 447.846 2.98568C449.921 1.18761 452.618 0.288574 455.938 0.288574C459.257 0.288574 461.885 1.18761 463.821 2.98568C465.758 4.78374 467.417 7.61914 468.801 11.4919L506.56 121.865H499.299L537.265 11.077C538.51 7.48083 540.17 4.78374 542.245 2.98568C544.319 1.18761 547.155 0.288574 550.751 0.288574C555.177 0.288574 558.427 1.81002 560.502 4.85289C562.577 7.89577 562.853 11.6302 561.332 16.0562L517.556 138.878C516.173 142.612 514.375 145.378 512.162 147.177C509.949 148.975 506.975 149.874 503.24 149.874C499.506 149.874 496.532 148.975 494.319 147.177C492.106 145.378 490.308 142.543 488.925 138.67L452.826 35.7658H457.597L421.083 138.878C419.7 142.612 417.902 145.378 415.689 147.177C413.614 148.975 410.709 149.874 406.975 149.874Z" fill="white"/>
<path d="M617.303 150.289C606.791 150.289 597.663 148.145 589.917 143.857C582.172 139.569 576.155 133.484 571.867 125.6C567.58 117.578 565.436 108.172 565.436 97.384C565.436 89.2236 566.611 81.9622 568.963 75.5998C571.452 69.0991 574.979 63.5666 579.544 59.0023C584.108 54.2996 589.571 50.7727 595.934 48.4214C602.296 45.9317 609.419 44.6869 617.303 44.6869C627.815 44.6869 636.943 46.8308 644.689 51.1185C652.434 55.4061 658.451 61.4919 662.739 69.3757C667.026 77.2595 669.17 86.5956 669.17 97.384C669.17 105.544 667.925 112.875 665.436 119.376C663.084 125.876 659.627 131.478 655.062 136.181C650.498 140.745 645.035 144.272 638.672 146.762C632.31 149.113 625.187 150.289 617.303 150.289ZM617.303 130.579C622.42 130.579 626.916 129.334 630.788 126.845C634.661 124.355 637.635 120.69 639.71 115.849C641.923 110.869 643.029 104.715 643.029 97.384C643.029 86.319 640.678 78.0894 635.975 72.6952C631.272 67.1627 625.048 64.3965 617.303 64.3965C612.185 64.3965 607.69 65.6413 603.817 68.1309C599.945 70.4822 596.902 74.1475 594.689 79.1268C592.614 83.9677 591.577 90.0535 591.577 97.384C591.577 108.311 593.928 116.609 598.631 122.28C603.333 127.813 609.557 130.579 617.303 130.579Z" fill="white"/>
<path d="M703.853 149.874C699.565 149.874 696.246 148.767 693.895 146.554C691.682 144.203 690.575 140.883 690.575 136.596V58.1724C690.575 53.8847 691.682 50.6344 693.895 48.4214C696.108 46.2084 699.22 45.1019 703.231 45.1019C707.242 45.1019 710.354 46.2084 712.567 48.4214C714.78 50.6344 715.886 53.8847 715.886 58.1724V71.2429H713.812C715.748 62.9442 719.552 56.651 725.222 52.3633C730.893 48.0756 738.431 45.5168 747.837 44.6869C750.741 44.4103 753.023 45.171 754.683 46.9691C756.481 48.6288 757.518 51.2568 757.795 54.8529C758.072 58.3107 757.242 61.1461 755.305 63.3591C753.507 65.4338 750.741 66.6786 747.007 67.0936L742.442 67.5085C734.005 68.3384 727.643 70.9663 723.355 75.3923C719.067 79.68 716.924 85.7658 716.924 93.6496V136.596C716.924 140.883 715.817 144.203 713.604 146.554C711.391 148.767 708.141 149.874 703.853 149.874Z" fill="white"/>
<path d="M784.683 149.874C780.534 149.874 777.353 148.767 775.14 146.554C772.927 144.203 771.82 140.883 771.82 136.596V13.3591C771.82 9.07143 772.927 5.82108 775.14 3.60808C777.353 1.39508 780.534 0.288574 784.683 0.288574C788.833 0.288574 792.014 1.39508 794.227 3.60808C796.578 5.82108 797.754 9.07143 797.754 13.3591V89.9151H798.169L832.401 53.8156C835.167 51.0493 837.588 48.9055 839.663 47.384C841.737 45.8626 844.573 45.1019 848.169 45.1019C851.765 45.1019 854.462 46.0701 856.26 48.0064C858.196 49.8045 859.165 52.0175 859.165 54.6454C859.165 57.2734 857.92 59.9013 855.43 62.5292L819.331 100.704V89.9151L858.957 132.654C861.447 135.282 862.553 137.979 862.277 140.745C862.138 143.373 861.032 145.586 858.957 147.384C856.882 149.044 854.255 149.874 851.073 149.874C847.201 149.874 844.089 149.113 841.737 147.591C839.524 146.07 837.035 143.788 834.268 140.745L798.169 102.986H797.754V136.596C797.754 145.448 793.397 149.874 784.683 149.874Z" fill="white"/>
<path d="M902.968 149.874C898.819 149.874 895.568 148.767 893.217 146.554C891.004 144.203 889.898 140.883 889.898 136.596V66.2637H880.354C877.035 66.2637 874.476 65.4338 872.678 63.7741C870.88 61.976 869.981 59.5555 869.981 56.5126C869.981 53.3315 870.88 50.911 872.678 49.2512C874.476 47.5915 877.035 46.7616 880.354 46.7616H897.366L889.898 53.6081V46.5541C889.898 32.3079 893.494 21.6579 900.686 14.6039C907.878 7.41168 918.252 3.19315 931.806 1.94833L938.86 1.32593C941.626 1.0493 943.839 1.53339 945.499 2.77821C947.159 3.88471 948.266 5.40615 948.819 7.34253C949.372 9.14059 949.441 11.0078 949.026 12.9442C948.611 14.8806 947.712 16.6095 946.329 18.1309C945.084 19.514 943.425 20.2747 941.35 20.4131L938.445 20.6205C930.561 21.1738 924.821 23.1793 921.225 26.6371C917.629 30.0949 915.831 35.3508 915.831 42.4048V50.0811L912.512 46.7616H933.466C936.786 46.7616 939.344 47.5915 941.142 49.2512C942.94 50.911 943.839 53.3315 943.839 56.5126C943.839 59.5555 942.94 61.976 941.142 63.7741C939.344 65.4338 936.786 66.2637 933.466 66.2637H915.831V136.596C915.831 145.448 911.544 149.874 902.968 149.874ZM993.217 150.289C981.737 150.289 973.093 147.038 967.283 140.538C961.474 133.899 958.57 124.217 958.57 111.492V13.3591C958.57 9.07143 959.676 5.82108 961.889 3.60808C964.102 1.39508 967.283 0.288574 971.433 0.288574C975.582 0.288574 978.763 1.39508 980.976 3.60808C983.328 5.82108 984.503 9.07143 984.503 13.3591V110.247C984.503 116.609 985.817 121.312 988.445 124.355C991.212 127.398 995.084 128.919 1000.06 128.919C1001.17 128.919 1002.21 128.919 1003.18 128.919C1004.14 128.781 1005.11 128.643 1006.08 128.504C1008.02 128.228 1009.33 128.781 1010.02 130.164C1010.71 131.409 1011.06 134.037 1011.06 138.048C1011.06 141.506 1010.37 144.203 1008.98 146.139C1007.6 148.076 1005.32 149.251 1002.14 149.666C1000.76 149.804 999.303 149.943 997.781 150.081C996.26 150.219 994.739 150.289 993.217 150.289Z" fill="white"/>
<path d="M1069.93 150.289C1059.41 150.289 1050.29 148.145 1042.54 143.857C1034.79 139.569 1028.78 133.484 1024.49 125.6C1020.2 117.578 1018.06 108.172 1018.06 97.384C1018.06 89.2236 1019.23 81.9622 1021.59 75.5998C1024.07 69.0991 1027.6 63.5666 1032.17 59.0023C1036.73 54.2996 1042.19 50.7727 1048.56 48.4214C1054.92 45.9317 1062.04 44.6869 1069.93 44.6869C1080.44 44.6869 1089.57 46.8308 1097.31 51.1185C1105.06 55.4061 1111.07 61.4919 1115.36 69.3757C1119.65 77.2595 1121.79 86.5956 1121.79 97.384C1121.79 105.544 1120.55 112.875 1118.06 119.376C1115.71 125.876 1112.25 131.478 1107.68 136.181C1103.12 140.745 1097.66 144.272 1091.29 146.762C1084.93 149.113 1077.81 150.289 1069.93 150.289ZM1069.93 130.579C1075.04 130.579 1079.54 129.334 1083.41 126.845C1087.28 124.355 1090.26 120.69 1092.33 115.849C1094.54 110.869 1095.65 104.715 1095.65 97.384C1095.65 86.319 1093.3 78.0894 1088.6 72.6952C1083.89 67.1627 1077.67 64.3965 1069.93 64.3965C1064.81 64.3965 1060.31 65.6413 1056.44 68.1309C1052.57 70.4822 1049.52 74.1475 1047.31 79.1268C1045.24 83.9677 1044.2 90.0535 1044.2 97.384C1044.2 108.311 1046.55 116.609 1051.25 122.28C1055.96 127.813 1062.18 130.579 1069.93 130.579Z" fill="white"/>
<path d="M1180.38 149.874C1176.93 149.874 1173.95 149.044 1171.46 147.384C1168.97 145.586 1166.97 142.82 1165.45 139.085L1135.36 62.3218C1134.12 59.0023 1133.7 56.0977 1134.12 53.6081C1134.67 50.9801 1135.98 48.9055 1138.06 47.384C1140.13 45.8626 1142.9 45.1019 1146.36 45.1019C1149.4 45.1019 1151.89 45.8626 1153.83 47.384C1155.76 48.7671 1157.42 51.4642 1158.81 55.4753L1183.91 124.562H1179.14L1205.07 53.8156C1206.18 50.7727 1207.63 48.5597 1209.43 47.1766C1211.37 45.7934 1213.85 45.1019 1216.9 45.1019C1219.94 45.1019 1222.43 45.8626 1224.37 47.384C1226.3 48.7671 1227.76 50.911 1228.72 53.8156L1254.24 124.562H1249.89L1275.2 54.8529C1276.58 51.1185 1278.31 48.5597 1280.38 47.1766C1282.6 45.7934 1285.02 45.1019 1287.64 45.1019C1290.96 45.1019 1293.52 45.9317 1295.32 47.5915C1297.12 49.2512 1298.16 51.3951 1298.43 54.023C1298.71 56.5126 1298.23 59.2789 1296.98 62.3218L1267.11 139.085C1265.72 142.681 1263.72 145.378 1261.09 147.177C1258.6 148.975 1255.63 149.874 1252.17 149.874C1248.71 149.874 1245.67 148.975 1243.04 147.177C1240.55 145.378 1238.61 142.681 1237.23 139.085L1210.05 67.0936H1221.88L1195.32 138.878C1193.94 142.612 1192 145.378 1189.51 147.177C1187.02 148.975 1183.98 149.874 1180.38 149.874Z" fill="white"/>
</svg>
