<svg width="1203" height="369" viewBox="0 0 1203 369" fill="none" xmlns="http://www.w3.org/2000/svg">
<g clip-path="url(#clip0_0_1)">
<rect width="1203" height="369" rx="16" fill="#0FBFC4"/>
<path d="M70.5526 109L60.8168 75.5455H69.7521L74.7997 97.4673H75.0774L80.8438 75.5455H88.1293L93.8956 97.5163H94.1733L99.2372 75.5455H108.156L98.4368 109H90.6449L84.6172 88.7116H84.3558L78.3281 109H70.5526ZM120.44 109.474C117.816 109.474 115.551 108.956 113.645 107.922C111.75 106.876 110.291 105.39 109.267 103.462C108.254 101.524 107.748 99.2206 107.748 96.5526C107.748 93.9607 108.26 91.6955 109.283 89.7571C110.307 87.8078 111.75 86.294 113.612 85.2159C115.474 84.1269 117.669 83.5824 120.195 83.5824C121.981 83.5824 123.615 83.8601 125.096 84.4155C126.577 84.9709 127.857 85.7931 128.935 86.8821C130.013 87.9711 130.851 89.3161 131.45 90.9169C132.049 92.5069 132.349 94.331 132.349 96.3892V98.3821H110.541V93.7429H124.916C124.905 92.8935 124.704 92.1366 124.312 91.4723C123.92 90.808 123.381 90.2907 122.695 89.9205C122.019 89.5393 121.241 89.3487 120.359 89.3487C119.466 89.3487 118.665 89.5502 117.957 89.9531C117.25 90.3452 116.689 90.8842 116.275 91.5703C115.861 92.2455 115.643 93.0133 115.621 93.8736V98.5945C115.621 99.6181 115.823 100.517 116.226 101.29C116.629 102.052 117.201 102.646 117.941 103.07C118.682 103.495 119.564 103.707 120.587 103.707C121.295 103.707 121.938 103.609 122.515 103.413C123.092 103.217 123.588 102.929 124.001 102.548C124.415 102.166 124.726 101.698 124.933 101.143L132.267 101.355C131.962 103 131.292 104.432 130.258 105.651C129.234 106.86 127.889 107.802 126.223 108.477C124.557 109.142 122.629 109.474 120.44 109.474ZM144.416 75.5455V109H136.428V75.5455H144.416ZM161.213 109.474C158.567 109.474 156.296 108.929 154.401 107.84C152.517 106.751 151.069 105.237 150.056 103.299C149.043 101.35 148.537 99.0954 148.537 96.5362C148.537 93.9661 149.043 91.7119 150.056 89.7734C151.08 87.8241 152.534 86.3049 154.418 85.2159C156.313 84.1269 158.572 83.5824 161.197 83.5824C163.516 83.5824 165.536 84.0017 167.257 84.8402C168.989 85.6787 170.339 86.8658 171.308 88.4013C172.288 89.9259 172.806 91.7173 172.86 93.7756H165.395C165.242 92.4905 164.807 91.4832 164.088 90.7536C163.38 90.0239 162.455 89.6591 161.311 89.6591C160.385 89.6591 159.574 89.9205 158.877 90.4432C158.18 90.955 157.636 91.7173 157.244 92.7301C156.862 93.732 156.672 94.9735 156.672 96.4545C156.672 97.9356 156.862 99.188 157.244 100.212C157.636 101.224 158.18 101.992 158.877 102.515C159.574 103.027 160.385 103.283 161.311 103.283C162.052 103.283 162.705 103.125 163.271 102.809C163.848 102.493 164.322 102.03 164.692 101.42C165.063 100.8 165.297 100.048 165.395 99.1662H172.86C172.784 101.235 172.267 103.043 171.308 104.589C170.361 106.136 169.027 107.339 167.306 108.2C165.596 109.049 163.565 109.474 161.213 109.474ZM188.66 109.474C186.025 109.474 183.76 108.935 181.865 107.857C179.981 106.768 178.527 105.254 177.503 103.315C176.491 101.366 175.984 99.1063 175.984 96.5362C175.984 93.9553 176.491 91.6955 177.503 89.7571C178.527 87.8078 179.981 86.294 181.865 85.2159C183.76 84.1269 186.025 83.5824 188.66 83.5824C191.296 83.5824 193.555 84.1269 195.439 85.2159C197.334 86.294 198.788 87.8078 199.801 89.7571C200.825 91.6955 201.336 93.9553 201.336 96.5362C201.336 99.1063 200.825 101.366 199.801 103.315C198.788 105.254 197.334 106.768 195.439 107.857C193.555 108.935 191.296 109.474 188.66 109.474ZM188.709 103.446C189.668 103.446 190.479 103.152 191.143 102.564C191.808 101.976 192.314 101.159 192.662 100.114C193.022 99.0682 193.202 97.8594 193.202 96.4872C193.202 95.0933 193.022 93.8736 192.662 92.8281C192.314 91.7827 191.808 90.9659 191.143 90.3778C190.479 89.7898 189.668 89.4957 188.709 89.4957C187.718 89.4957 186.88 89.7898 186.194 90.3778C185.519 90.9659 185.001 91.7827 184.642 92.8281C184.293 93.8736 184.119 95.0933 184.119 96.4872C184.119 97.8594 184.293 99.0682 184.642 100.114C185.001 101.159 185.519 101.976 186.194 102.564C186.88 103.152 187.718 103.446 188.709 103.446ZM205.428 109V83.9091H213.024V88.5156H213.302C213.825 86.991 214.707 85.7876 215.948 84.9055C217.19 84.0234 218.671 83.5824 220.392 83.5824C222.134 83.5824 223.626 84.0289 224.867 84.9219C226.109 85.8149 226.898 87.0128 227.236 88.5156H227.497C227.966 87.0237 228.88 85.8312 230.242 84.9382C231.603 84.0343 233.209 83.5824 235.061 83.5824C237.435 83.5824 239.362 84.3447 240.843 85.8693C242.324 87.383 243.065 89.4631 243.065 92.1094V109H235.077V93.9389C235.077 92.6866 234.756 91.7337 234.113 91.0803C233.471 90.416 232.637 90.0838 231.614 90.0838C230.514 90.0838 229.648 90.4432 229.017 91.1619C228.396 91.8698 228.085 92.8227 228.085 94.0206V109H220.408V93.8572C220.408 92.692 220.092 91.7718 219.46 91.0966C218.829 90.4214 217.996 90.0838 216.961 90.0838C216.264 90.0838 215.649 90.2526 215.115 90.5902C214.582 90.9169 214.162 91.3852 213.857 91.995C213.563 92.6049 213.416 93.3236 213.416 94.1513V109H205.428ZM259.743 109.474C257.119 109.474 254.853 108.956 252.948 107.922C251.053 106.876 249.593 105.39 248.57 103.462C247.557 101.524 247.051 99.2206 247.051 96.5526C247.051 93.9607 247.562 91.6955 248.586 89.7571C249.61 87.8078 251.053 86.294 252.915 85.2159C254.777 84.1269 256.972 83.5824 259.498 83.5824C261.284 83.5824 262.918 83.8601 264.399 84.4155C265.88 84.9709 267.159 85.7931 268.237 86.8821C269.316 87.9711 270.154 89.3161 270.753 90.9169C271.352 92.5069 271.651 94.331 271.651 96.3892V98.3821H249.844V93.7429H264.219C264.208 92.8935 264.007 92.1366 263.615 91.4723C263.222 90.808 262.683 90.2907 261.997 89.9205C261.322 89.5393 260.544 89.3487 259.661 89.3487C258.768 89.3487 257.968 89.5502 257.26 89.9531C256.552 90.3452 255.991 90.8842 255.578 91.5703C255.164 92.2455 254.946 93.0133 254.924 93.8736V98.5945C254.924 99.6181 255.126 100.517 255.529 101.29C255.932 102.052 256.503 102.646 257.244 103.07C257.984 103.495 258.866 103.707 259.89 103.707C260.598 103.707 261.24 103.609 261.818 103.413C262.395 103.217 262.89 102.929 263.304 102.548C263.718 102.166 264.028 101.698 264.235 101.143L271.57 101.355C271.265 103 270.595 104.432 269.561 105.651C268.537 106.86 267.192 107.802 265.526 108.477C263.86 109.142 261.932 109.474 259.743 109.474ZM299.777 83.9091V89.7898H283.948V83.9091H299.777ZM287.264 77.8977H295.252V101.11C295.252 101.6 295.328 101.998 295.48 102.303C295.644 102.597 295.878 102.809 296.183 102.94C296.488 103.059 296.853 103.119 297.277 103.119C297.582 103.119 297.904 103.092 298.241 103.038C298.59 102.972 298.851 102.918 299.025 102.874L300.234 108.641C299.853 108.75 299.314 108.886 298.617 109.049C297.931 109.212 297.109 109.316 296.15 109.359C294.277 109.446 292.671 109.229 291.331 108.706C290.003 108.172 288.984 107.345 288.277 106.223C287.58 105.101 287.242 103.691 287.264 101.992V77.8977ZM315.295 109.474C312.66 109.474 310.395 108.935 308.5 107.857C306.616 106.768 305.162 105.254 304.138 103.315C303.125 101.366 302.619 99.1063 302.619 96.5362C302.619 93.9553 303.125 91.6955 304.138 89.7571C305.162 87.8078 306.616 86.294 308.5 85.2159C310.395 84.1269 312.66 83.5824 315.295 83.5824C317.931 83.5824 320.19 84.1269 322.074 85.2159C323.969 86.294 325.423 87.8078 326.436 89.7571C327.459 91.6955 327.971 93.9553 327.971 96.5362C327.971 99.1063 327.459 101.366 326.436 103.315C325.423 105.254 323.969 106.768 322.074 107.857C320.19 108.935 317.931 109.474 315.295 109.474ZM315.344 103.446C316.302 103.446 317.114 103.152 317.778 102.564C318.442 101.976 318.949 101.159 319.297 100.114C319.657 99.0682 319.836 97.8594 319.836 96.4872C319.836 95.0933 319.657 93.8736 319.297 92.8281C318.949 91.7827 318.442 90.9659 317.778 90.3778C317.114 89.7898 316.302 89.4957 315.344 89.4957C314.353 89.4957 313.515 89.7898 312.828 90.3778C312.153 90.9659 311.636 91.7827 311.277 92.8281C310.928 93.8736 310.754 95.0933 310.754 96.4872C310.754 97.8594 310.928 99.0682 311.277 100.114C311.636 101.159 312.153 101.976 312.828 102.564C313.515 103.152 314.353 103.446 315.344 103.446ZM62.4176 173V168.393L78.6712 146.112H62.4339V139.545H88.897V144.152L72.6435 166.433H88.8807V173H62.4176ZM105.571 173.474C102.947 173.474 100.682 172.956 98.7757 171.922C96.8809 170.876 95.4216 169.39 94.3979 167.462C93.3851 165.524 92.8787 163.221 92.8787 160.553C92.8787 157.961 93.3906 155.696 94.4142 153.757C95.4379 151.808 96.8809 150.294 98.7431 149.216C100.605 148.127 102.8 147.582 105.326 147.582C107.112 147.582 108.746 147.86 110.227 148.415C111.708 148.971 112.987 149.793 114.066 150.882C115.144 151.971 115.982 153.316 116.581 154.917C117.18 156.507 117.48 158.331 117.48 160.389V162.382H95.6721V157.743H110.047C110.036 156.893 109.835 156.137 109.443 155.472C109.051 154.808 108.512 154.291 107.825 153.92C107.15 153.539 106.372 153.349 105.49 153.349C104.597 153.349 103.796 153.55 103.088 153.953C102.38 154.345 101.82 154.884 101.406 155.57C100.992 156.246 100.774 157.013 100.752 157.874V162.594C100.752 163.618 100.954 164.517 101.357 165.29C101.76 166.052 102.331 166.646 103.072 167.07C103.812 167.495 104.695 167.707 105.718 167.707C106.426 167.707 107.069 167.609 107.646 167.413C108.223 167.217 108.718 166.929 109.132 166.548C109.546 166.166 109.856 165.698 110.063 165.143L117.398 165.355C117.093 167 116.423 168.432 115.389 169.651C114.365 170.86 113.02 171.802 111.354 172.477C109.688 173.142 107.76 173.474 105.571 173.474ZM133.288 173.474C130.663 173.474 128.398 172.956 126.493 171.922C124.598 170.876 123.138 169.39 122.115 167.462C121.102 165.524 120.596 163.221 120.596 160.553C120.596 157.961 121.107 155.696 122.131 153.757C123.155 151.808 124.598 150.294 126.46 149.216C128.322 148.127 130.516 147.582 133.043 147.582C134.829 147.582 136.462 147.86 137.944 148.415C139.425 148.971 140.704 149.793 141.782 150.882C142.86 151.971 143.699 153.316 144.298 154.917C144.897 156.507 145.196 158.331 145.196 160.389V162.382H123.389V157.743H137.764C137.753 156.893 137.551 156.137 137.159 155.472C136.767 154.808 136.228 154.291 135.542 153.92C134.867 153.539 134.088 153.349 133.206 153.349C132.313 153.349 131.513 153.55 130.805 153.953C130.097 154.345 129.536 154.884 129.123 155.57C128.709 156.246 128.491 157.013 128.469 157.874V162.594C128.469 163.618 128.671 164.517 129.074 165.29C129.476 166.052 130.048 166.646 130.789 167.07C131.529 167.495 132.411 167.707 133.435 167.707C134.143 167.707 134.785 167.609 135.363 167.413C135.94 167.217 136.435 166.929 136.849 166.548C137.263 166.166 137.573 165.698 137.78 165.143L145.115 165.355C144.81 167 144.14 168.432 143.105 169.651C142.082 170.86 140.737 171.802 139.071 172.477C137.404 173.142 135.477 173.474 133.288 173.474ZM154.961 173L145.225 139.545H154.16L159.208 161.467H159.486L165.252 139.545H172.537L178.304 161.516H178.581L183.645 139.545H192.564L182.845 173H175.053L169.025 152.712H168.764L162.736 173H154.961ZM204.832 173.474C202.197 173.474 199.932 172.935 198.037 171.857C196.153 170.768 194.699 169.254 193.675 167.315C192.662 165.366 192.156 163.106 192.156 160.536C192.156 157.955 192.662 155.696 193.675 153.757C194.699 151.808 196.153 150.294 198.037 149.216C199.932 148.127 202.197 147.582 204.832 147.582C207.468 147.582 209.727 148.127 211.611 149.216C213.506 150.294 214.96 151.808 215.973 153.757C216.997 155.696 217.508 157.955 217.508 160.536C217.508 163.106 216.997 165.366 215.973 167.315C214.96 169.254 213.506 170.768 211.611 171.857C209.727 172.935 207.468 173.474 204.832 173.474ZM204.881 167.446C205.84 167.446 206.651 167.152 207.315 166.564C207.979 165.976 208.486 165.159 208.834 164.114C209.194 163.068 209.373 161.859 209.373 160.487C209.373 159.093 209.194 157.874 208.834 156.828C208.486 155.783 207.979 154.966 207.315 154.378C206.651 153.79 205.84 153.496 204.881 153.496C203.89 153.496 203.052 153.79 202.366 154.378C201.69 154.966 201.173 155.783 200.814 156.828C200.465 157.874 200.291 159.093 200.291 160.487C200.291 161.859 200.465 163.068 200.814 164.114C201.173 165.159 201.69 165.976 202.366 166.564C203.052 167.152 203.89 167.446 204.881 167.446ZM221.6 173V147.909H229.36V152.483H229.621C230.078 150.828 230.824 149.597 231.859 148.791C232.893 147.974 234.097 147.566 235.469 147.566C235.839 147.566 236.22 147.593 236.612 147.648C237.004 147.691 237.369 147.762 237.707 147.86V154.803C237.326 154.672 236.825 154.568 236.204 154.492C235.594 154.416 235.05 154.378 234.57 154.378C233.623 154.378 232.768 154.59 232.006 155.015C231.254 155.429 230.661 156.011 230.225 156.763C229.801 157.503 229.588 158.375 229.588 159.376V173H221.6ZM248.165 166.417L248.198 156.893H249.309L256.366 147.909H265.415L254.928 160.781H252.821L248.165 166.417ZM240.962 173V139.545H248.95V173H240.962ZM256.545 173L249.979 162.578L255.239 156.91L265.775 173H256.545ZM282.535 147.909V153.79H266.396V147.909H282.535ZM269.761 173V146.635C269.761 144.696 270.125 143.09 270.855 141.816C271.585 140.531 272.598 139.573 273.893 138.941C275.189 138.299 276.687 137.977 278.386 137.977C279.496 137.977 280.542 138.064 281.522 138.239C282.513 138.402 283.248 138.549 283.727 138.68L282.453 144.528C282.159 144.43 281.8 144.348 281.375 144.283C280.961 144.217 280.569 144.185 280.199 144.185C279.262 144.185 278.62 144.392 278.271 144.805C277.923 145.219 277.749 145.786 277.749 146.504V173H269.761ZM294.366 139.545V173H286.378V139.545H294.366ZM311.162 173.474C308.527 173.474 306.262 172.935 304.367 171.857C302.483 170.768 301.029 169.254 300.005 167.315C298.993 165.366 298.486 163.106 298.486 160.536C298.486 157.955 298.993 155.696 300.005 153.757C301.029 151.808 302.483 150.294 304.367 149.216C306.262 148.127 308.527 147.582 311.162 147.582C313.798 147.582 316.057 148.127 317.941 149.216C319.836 150.294 321.29 151.808 322.303 153.757C323.327 155.696 323.838 157.955 323.838 160.536C323.838 163.106 323.327 165.366 322.303 167.315C321.29 169.254 319.836 170.768 317.941 171.857C316.057 172.935 313.798 173.474 311.162 173.474ZM311.211 167.446C312.17 167.446 312.981 167.152 313.645 166.564C314.31 165.976 314.816 165.159 315.164 164.114C315.524 163.068 315.703 161.859 315.703 160.487C315.703 159.093 315.524 157.874 315.164 156.828C314.816 155.783 314.31 154.966 313.645 154.378C312.981 153.79 312.17 153.496 311.211 153.496C310.22 153.496 309.382 153.79 308.696 154.378C308.02 154.966 307.503 155.783 307.144 156.828C306.795 157.874 306.621 159.093 306.621 160.487C306.621 161.859 306.795 163.068 307.144 164.114C307.503 165.159 308.02 165.976 308.696 166.564C309.382 167.152 310.22 167.446 311.211 167.446ZM332.08 173L325.545 147.909H333.566L336.947 163.983H337.16L340.786 147.909H348.611L352.335 163.869H352.548L355.831 147.909H363.852L357.301 173H348.758L344.837 158.38H344.56L340.639 173H332.08ZM62.532 237V211.909H70.2912V216.483H70.5526C71.0099 214.828 71.7559 213.597 72.7905 212.791C73.825 211.974 75.0284 211.566 76.4006 211.566C76.7708 211.566 77.152 211.593 77.544 211.648C77.9361 211.691 78.3009 211.762 78.6385 211.86V218.803C78.2573 218.672 77.7564 218.568 77.1357 218.492C76.5258 218.416 75.9813 218.378 75.5021 218.378C74.5547 218.378 73.6998 218.59 72.9375 219.015C72.1861 219.429 71.5926 220.011 71.157 220.763C70.7322 221.503 70.5199 222.375 70.5199 223.376V237H62.532ZM92.3192 237.474C89.6947 237.474 87.4296 236.956 85.5238 235.922C83.6289 234.876 82.1696 233.39 81.146 231.462C80.1332 229.524 79.6268 227.221 79.6268 224.553C79.6268 221.961 80.1386 219.696 81.1623 217.757C82.186 215.808 83.6289 214.294 85.4911 213.216C87.3533 212.127 89.5477 211.582 92.0742 211.582C93.8602 211.582 95.4937 211.86 96.9748 212.415C98.4558 212.971 99.7354 213.793 100.814 214.882C101.892 215.971 102.73 217.316 103.329 218.917C103.928 220.507 104.228 222.331 104.228 224.389V226.382H82.4201V221.743H96.7951C96.7842 220.893 96.5827 220.137 96.1907 219.472C95.7987 218.808 95.2596 218.291 94.5735 217.92C93.8983 217.539 93.1197 217.349 92.2376 217.349C91.3446 217.349 90.5442 217.55 89.8363 217.953C89.1284 218.345 88.5676 218.884 88.1538 219.57C87.7399 220.246 87.5221 221.013 87.5004 221.874V226.594C87.5004 227.618 87.7018 228.517 88.1048 229.29C88.5077 230.052 89.0794 230.646 89.82 231.07C90.5605 231.495 91.4426 231.707 92.4663 231.707C93.1741 231.707 93.8166 231.609 94.3938 231.413C94.971 231.217 95.4665 230.929 95.8803 230.548C96.2942 230.166 96.6045 229.698 96.8114 229.143L104.146 229.355C103.841 231 103.171 232.432 102.137 233.651C101.113 234.86 99.7681 235.802 98.1019 236.477C96.4357 237.142 94.5082 237.474 92.3192 237.474ZM130.213 219.57L122.878 219.766C122.802 219.244 122.595 218.781 122.258 218.378C121.92 217.964 121.479 217.643 120.934 217.414C120.401 217.174 119.78 217.055 119.072 217.055C118.147 217.055 117.357 217.24 116.704 217.61C116.061 217.98 115.745 218.481 115.756 219.113C115.745 219.603 115.941 220.028 116.344 220.387C116.758 220.746 117.493 221.035 118.55 221.253L123.385 222.168C125.89 222.647 127.752 223.442 128.971 224.553C130.202 225.663 130.823 227.134 130.834 228.963C130.823 230.684 130.311 232.181 129.298 233.455C128.296 234.729 126.924 235.72 125.182 236.428C123.439 237.125 121.446 237.474 119.203 237.474C115.62 237.474 112.794 236.739 110.725 235.268C108.667 233.787 107.491 231.805 107.197 229.322L115.086 229.126C115.261 230.041 115.713 230.738 116.442 231.217C117.172 231.696 118.103 231.936 119.236 231.936C120.259 231.936 121.092 231.746 121.735 231.364C122.377 230.983 122.704 230.477 122.715 229.845C122.704 229.279 122.454 228.827 121.964 228.489C121.474 228.141 120.706 227.869 119.66 227.673L115.282 226.839C112.767 226.382 110.894 225.538 109.663 224.308C108.433 223.066 107.823 221.487 107.834 219.57C107.823 217.893 108.269 216.461 109.173 215.274C110.077 214.076 111.362 213.161 113.028 212.53C114.694 211.898 116.66 211.582 118.925 211.582C122.323 211.582 125.002 212.296 126.962 213.722C128.922 215.138 130.006 217.087 130.213 219.57ZM146.479 237.474C143.843 237.474 141.578 236.935 139.683 235.857C137.799 234.768 136.345 233.254 135.322 231.315C134.309 229.366 133.803 227.106 133.803 224.536C133.803 221.955 134.309 219.696 135.322 217.757C136.345 215.808 137.799 214.294 139.683 213.216C141.578 212.127 143.843 211.582 146.479 211.582C149.114 211.582 151.374 212.127 153.258 213.216C155.153 214.294 156.607 215.808 157.619 217.757C158.643 219.696 159.155 221.955 159.155 224.536C159.155 227.106 158.643 229.366 157.619 231.315C156.607 233.254 155.153 234.768 153.258 235.857C151.374 236.935 149.114 237.474 146.479 237.474ZM146.528 231.446C147.486 231.446 148.297 231.152 148.962 230.564C149.626 229.976 150.132 229.159 150.481 228.114C150.84 227.068 151.02 225.859 151.02 224.487C151.02 223.093 150.84 221.874 150.481 220.828C150.132 219.783 149.626 218.966 148.962 218.378C148.297 217.79 147.486 217.496 146.528 217.496C145.537 217.496 144.698 217.79 144.012 218.378C143.337 218.966 142.82 219.783 142.46 220.828C142.112 221.874 141.938 223.093 141.938 224.487C141.938 225.859 142.112 227.068 142.46 228.114C142.82 229.159 143.337 229.976 144.012 230.564C144.698 231.152 145.537 231.446 146.528 231.446ZM179.435 226.17V211.909H187.407V237H179.794V232.328H179.533C178.978 233.864 178.03 235.083 176.691 235.987C175.362 236.88 173.756 237.327 171.872 237.327C170.162 237.327 168.659 236.935 167.363 236.151C166.067 235.366 165.06 234.272 164.341 232.867C163.623 231.451 163.258 229.796 163.247 227.901V211.909H171.235V226.333C171.246 227.694 171.605 228.767 172.313 229.551C173.021 230.335 173.984 230.727 175.204 230.727C175.999 230.727 176.712 230.553 177.344 230.205C177.987 229.845 178.493 229.328 178.863 228.653C179.244 227.967 179.435 227.139 179.435 226.17ZM204.203 237.474C201.557 237.474 199.286 236.929 197.392 235.84C195.508 234.751 194.059 233.237 193.046 231.299C192.034 229.35 191.527 227.095 191.527 224.536C191.527 221.966 192.034 219.712 193.046 217.773C194.07 215.824 195.524 214.305 197.408 213.216C199.303 212.127 201.562 211.582 204.187 211.582C206.507 211.582 208.527 212.002 210.247 212.84C211.979 213.679 213.329 214.866 214.298 216.401C215.279 217.926 215.796 219.717 215.85 221.776H208.385C208.233 220.491 207.797 219.483 207.078 218.754C206.37 218.024 205.445 217.659 204.301 217.659C203.376 217.659 202.564 217.92 201.867 218.443C201.17 218.955 200.626 219.717 200.234 220.73C199.853 221.732 199.662 222.973 199.662 224.455C199.662 225.936 199.853 227.188 200.234 228.212C200.626 229.224 201.17 229.992 201.867 230.515C202.564 231.027 203.376 231.283 204.301 231.283C205.042 231.283 205.695 231.125 206.262 230.809C206.839 230.493 207.312 230.03 207.683 229.42C208.053 228.8 208.287 228.048 208.385 227.166H215.85C215.774 229.235 215.257 231.043 214.298 232.589C213.351 234.136 212.017 235.339 210.296 236.2C208.587 237.049 206.556 237.474 204.203 237.474ZM231.667 237.474C229.042 237.474 226.777 236.956 224.871 235.922C222.977 234.876 221.517 233.39 220.494 231.462C219.481 229.524 218.974 227.221 218.974 224.553C218.974 221.961 219.486 219.696 220.51 217.757C221.534 215.808 222.977 214.294 224.839 213.216C226.701 212.127 228.895 211.582 231.422 211.582C233.208 211.582 234.841 211.86 236.322 212.415C237.804 212.971 239.083 213.793 240.161 214.882C241.239 215.971 242.078 217.316 242.677 218.917C243.276 220.507 243.575 222.331 243.575 224.389V226.382H221.768V221.743H236.143C236.132 220.893 235.93 220.137 235.538 219.472C235.146 218.808 234.607 218.291 233.921 217.92C233.246 217.539 232.467 217.349 231.585 217.349C230.692 217.349 229.892 217.55 229.184 217.953C228.476 218.345 227.915 218.884 227.501 219.57C227.088 220.246 226.87 221.013 226.848 221.874V226.594C226.848 227.618 227.049 228.517 227.452 229.29C227.855 230.052 228.427 230.646 229.168 231.07C229.908 231.495 230.79 231.707 231.814 231.707C232.522 231.707 233.164 231.609 233.741 231.413C234.319 231.217 234.814 230.929 235.228 230.548C235.642 230.166 235.952 229.698 236.159 229.143L243.494 229.355C243.189 231 242.519 232.432 241.484 233.651C240.461 234.86 239.116 235.802 237.45 236.477C235.783 237.142 233.856 237.474 231.667 237.474ZM265.526 203.545V237H257.538V203.545H265.526ZM270.61 237V211.909H278.598V237H270.61ZM274.612 208.985C273.491 208.985 272.527 208.615 271.721 207.874C270.915 207.123 270.512 206.219 270.512 205.163C270.512 204.117 270.915 203.224 271.721 202.484C272.527 201.732 273.491 201.357 274.612 201.357C275.745 201.357 276.709 201.732 277.504 202.484C278.309 203.224 278.712 204.117 278.712 205.163C278.712 206.219 278.309 207.123 277.504 207.874C276.709 208.615 275.745 208.985 274.612 208.985ZM283.682 237V203.545H291.67V216.205H291.834C292.16 215.443 292.623 214.708 293.222 214C293.832 213.292 294.605 212.715 295.542 212.268C296.489 211.811 297.622 211.582 298.939 211.582C300.682 211.582 302.31 212.04 303.824 212.955C305.348 213.869 306.579 215.28 307.515 217.185C308.452 219.091 308.92 221.52 308.92 224.471C308.92 227.313 308.468 229.693 307.564 231.609C306.671 233.526 305.463 234.964 303.938 235.922C302.424 236.88 300.742 237.359 298.89 237.359C297.627 237.359 296.533 237.152 295.607 236.739C294.681 236.325 293.903 235.78 293.271 235.105C292.65 234.43 292.171 233.706 291.834 232.933H291.589V237H283.682ZM291.507 224.455C291.507 225.805 291.687 226.981 292.046 227.983C292.416 228.985 292.944 229.763 293.631 230.319C294.327 230.863 295.161 231.136 296.13 231.136C297.11 231.136 297.943 230.863 298.629 230.319C299.315 229.763 299.832 228.985 300.181 227.983C300.54 226.981 300.72 225.805 300.72 224.455C300.72 223.104 300.54 221.933 300.181 220.942C299.832 219.951 299.315 219.184 298.629 218.639C297.954 218.095 297.121 217.822 296.13 217.822C295.15 217.822 294.317 218.089 293.631 218.623C292.944 219.156 292.416 219.919 292.046 220.91C291.687 221.901 291.507 223.082 291.507 224.455ZM313.106 237V211.909H320.865V216.483H321.127C321.584 214.828 322.33 213.597 323.365 212.791C324.399 211.974 325.603 211.566 326.975 211.566C327.345 211.566 327.726 211.593 328.118 211.648C328.51 211.691 328.875 211.762 329.213 211.86V218.803C328.832 218.672 328.331 218.568 327.71 218.492C327.1 218.416 326.556 218.378 326.076 218.378C325.129 218.378 324.274 218.59 323.512 219.015C322.76 219.429 322.167 220.011 321.731 220.763C321.306 221.503 321.094 222.375 321.094 223.376V237H313.106ZM338.597 237.425C336.996 237.425 335.575 237.158 334.334 236.624C333.103 236.08 332.129 235.263 331.41 234.174C330.702 233.074 330.348 231.696 330.348 230.041C330.348 228.647 330.593 227.471 331.083 226.513C331.573 225.554 332.248 224.776 333.109 224.177C333.969 223.578 334.96 223.126 336.082 222.821C337.203 222.505 338.401 222.293 339.675 222.184C341.102 222.053 342.251 221.917 343.122 221.776C343.993 221.623 344.625 221.411 345.017 221.138C345.42 220.855 345.621 220.458 345.621 219.946V219.864C345.621 219.026 345.333 218.378 344.756 217.92C344.179 217.463 343.4 217.234 342.42 217.234C341.363 217.234 340.514 217.463 339.871 217.92C339.229 218.378 338.821 219.009 338.646 219.815L331.279 219.554C331.497 218.029 332.058 216.668 332.962 215.47C333.876 214.261 335.129 213.314 336.719 212.628C338.32 211.931 340.242 211.582 342.485 211.582C344.086 211.582 345.562 211.773 346.912 212.154C348.262 212.524 349.438 213.069 350.44 213.788C351.442 214.496 352.215 215.367 352.76 216.401C353.315 217.436 353.593 218.617 353.593 219.946V237H346.079V233.504H345.883C345.436 234.354 344.865 235.072 344.168 235.661C343.482 236.249 342.67 236.69 341.734 236.984C340.808 237.278 339.763 237.425 338.597 237.425ZM341.064 232.197C341.924 232.197 342.697 232.023 343.384 231.675C344.08 231.326 344.636 230.847 345.05 230.237C345.464 229.616 345.67 228.898 345.67 228.081V225.696C345.442 225.816 345.164 225.925 344.837 226.023C344.522 226.121 344.173 226.213 343.792 226.3C343.411 226.388 343.019 226.464 342.616 226.529C342.213 226.594 341.826 226.654 341.456 226.709C340.705 226.829 340.062 227.014 339.528 227.264C339.006 227.515 338.603 227.841 338.32 228.244C338.047 228.636 337.911 229.105 337.911 229.649C337.911 230.477 338.205 231.108 338.793 231.544C339.392 231.98 340.149 232.197 341.064 232.197ZM358.477 237V211.909H366.237V216.483H366.498C366.955 214.828 367.701 213.597 368.736 212.791C369.77 211.974 370.974 211.566 372.346 211.566C372.716 211.566 373.097 211.593 373.489 211.648C373.881 211.691 374.246 211.762 374.584 211.86V218.803C374.203 218.672 373.702 218.568 373.081 218.492C372.471 218.416 371.927 218.378 371.447 218.378C370.5 218.378 369.645 218.59 368.883 219.015C368.131 219.429 367.538 220.011 367.102 220.763C366.678 221.503 366.465 222.375 366.465 223.376V237H358.477ZM383.487 246.409C382.528 246.409 381.624 246.333 380.775 246.18C379.925 246.039 379.196 245.848 378.586 245.609L380.35 239.81C381.134 240.071 381.842 240.223 382.474 240.267C383.116 240.311 383.666 240.207 384.124 239.957C384.592 239.717 384.951 239.287 385.202 238.666L385.512 237.915L376.593 211.909H384.957L389.58 229.812H389.841L394.529 211.909H402.942L393.484 239.401C393.026 240.773 392.378 241.982 391.54 243.028C390.712 244.084 389.639 244.912 388.322 245.511C387.015 246.11 385.403 246.409 383.487 246.409Z" fill="white"/>
<path d="M791.997 -50C767.077 -49.9994 742.716 -42.6092 721.996 -28.7639C701.276 -14.9186 685.127 4.75997 675.591 27.7833C666.054 50.8067 663.559 76.1408 668.421 100.582C673.283 125.023 685.283 147.474 702.905 165.095C720.526 182.717 742.977 194.717 767.418 199.579C791.859 204.441 817.193 201.946 840.217 192.409C863.24 182.873 882.919 166.724 896.764 146.004C910.609 125.284 917.999 100.923 918 76.0031C918 59.4561 914.741 43.0712 908.409 27.7838C902.076 12.4964 892.795 -1.39407 881.095 -13.0945C869.394 -24.795 855.504 -34.0763 840.216 -40.4086C824.929 -46.7408 808.544 -50 791.997 -50ZM791.997 130.319C781.254 130.318 770.753 127.132 761.822 121.163C752.89 115.195 745.929 106.712 741.818 96.7866C737.707 86.8617 736.632 75.9407 738.728 65.4047C740.825 54.8687 745.998 45.1909 753.594 37.595C761.19 29.9992 770.869 24.8264 781.405 22.7309C791.941 20.6354 802.862 21.7112 812.786 25.8223C822.711 29.9334 831.194 36.8952 837.162 45.8273C843.13 54.7594 846.316 65.2606 846.316 76.0031C846.316 83.1362 844.911 90.1994 842.181 96.7895C839.451 103.38 835.45 109.367 830.406 114.411C825.362 119.455 819.374 123.456 812.784 126.185C806.193 128.915 799.13 130.319 791.997 130.319Z" fill="#B7F4EC"/>
<g clip-path="url(#clip1_0_1)">
<path d="M1094.01 167.147H1242L1168.01 36.1367L1094.01 167.147Z" fill="#37D4CF"/>
<path d="M1063.4 147.663H1211.39L1137.39 16.6523L1063.4 147.663Z" stroke="#89E9E0" stroke-width="6" stroke-miterlimit="10" stroke-linecap="round"/>
</g>
<path d="M1152.5 508C1207.45 508 1252 463.452 1252 408.5C1252 353.548 1207.45 309 1152.5 309C1097.55 309 1053 353.548 1053 408.5C1053 463.452 1097.55 508 1152.5 508Z" fill="#5EDFD6"/>
<path d="M723.475 225.562L623 389.177H823.952L723.475 225.562ZM723.475 300.438L749.513 342.838H697.439L723.475 300.438Z" fill="#5EDFD6"/>
<path d="M776.716 275.135C778.602 275.135 780.131 273.606 780.131 271.72C780.131 269.834 778.602 268.305 776.716 268.305C774.83 268.305 773.301 269.834 773.301 271.72C773.301 273.606 774.83 275.135 776.716 275.135Z" fill="#B7F4EC"/>
<path d="M765.789 288.449C767.675 288.449 769.204 286.92 769.204 285.034C769.204 283.148 767.675 281.619 765.789 281.619C763.903 281.619 762.375 283.148 762.375 285.034C762.375 286.92 763.903 288.449 765.789 288.449Z" fill="#B7F4EC"/>
<path d="M775.35 298.351C777.236 298.351 778.765 296.822 778.765 294.936C778.765 293.05 777.236 291.521 775.35 291.521C773.464 291.521 771.935 293.05 771.935 294.936C771.935 296.822 773.464 298.351 775.35 298.351Z" fill="#B7F4EC"/>
<path d="M758.277 305.179C760.163 305.179 761.692 303.651 761.692 301.765C761.692 299.879 760.163 298.35 758.277 298.35C756.391 298.35 754.863 299.879 754.863 301.765C754.863 303.651 756.391 305.179 758.277 305.179Z" fill="#B7F4EC"/>
<path d="M767.156 317.472C769.042 317.472 770.571 315.944 770.571 314.057C770.571 312.171 769.042 310.643 767.156 310.643C765.27 310.643 763.741 312.171 763.741 314.057C763.741 315.944 765.27 317.472 767.156 317.472Z" fill="#B7F4EC"/>
<path d="M748.377 324.3C750.263 324.3 751.792 322.771 751.792 320.885C751.792 318.999 750.263 317.47 748.377 317.47C746.491 317.47 744.962 318.999 744.962 320.885C744.962 322.771 746.491 324.3 748.377 324.3Z" fill="#B7F4EC"/>
<path d="M758.962 338.3C760.848 338.3 762.377 336.771 762.377 334.885C762.377 332.999 760.848 331.47 758.962 331.47C757.076 331.47 755.547 332.999 755.547 334.885C755.547 336.771 757.076 338.3 758.962 338.3Z" fill="#B7F4EC"/>
<path d="M733.696 346.151C735.582 346.151 737.111 344.622 737.111 342.736C737.111 340.85 735.582 339.321 733.696 339.321C731.81 339.321 730.281 340.85 730.281 342.736C730.281 344.622 731.81 346.151 733.696 346.151Z" fill="#B7F4EC"/>
<path d="M743.596 358.442C745.482 358.442 747.011 356.913 747.011 355.027C747.011 353.141 745.482 351.612 743.596 351.612C741.71 351.612 740.181 353.141 740.181 355.027C740.181 356.913 741.71 358.442 743.596 358.442Z" fill="#B7F4EC"/>
<path d="M719.356 366.638C721.242 366.638 722.771 365.11 722.771 363.224C722.771 361.338 721.242 359.809 719.356 359.809C717.47 359.809 715.941 361.338 715.941 363.224C715.941 365.11 717.47 366.638 719.356 366.638Z" fill="#B7F4EC"/>
<path d="M838.855 373.466C840.741 373.466 842.27 371.937 842.27 370.051C842.27 368.165 840.741 366.636 838.855 366.636C836.969 366.636 835.44 368.165 835.44 370.051C835.44 371.937 836.969 373.466 838.855 373.466Z" fill="#B7F4EC"/>
<path d="M809.834 363.223C811.72 363.223 813.249 361.694 813.249 359.808C813.249 357.922 811.72 356.394 809.834 356.394C807.948 356.394 806.419 357.922 806.419 359.808C806.419 361.694 807.948 363.223 809.834 363.223Z" fill="#B7F4EC"/>
<path d="M822.125 352.981C824.011 352.981 825.54 351.452 825.54 349.566C825.54 347.68 824.011 346.151 822.125 346.151C820.239 346.151 818.71 347.68 818.71 349.566C818.71 351.452 820.239 352.981 822.125 352.981Z" fill="#B7F4EC"/>
<path d="M812.907 340.688C814.793 340.688 816.322 339.159 816.322 337.273C816.322 335.387 814.793 333.858 812.907 333.858C811.021 333.858 809.492 335.387 809.492 337.273C809.492 339.159 811.021 340.688 812.907 340.688Z" fill="#B7F4EC"/>
<path d="M799.249 344.102C801.135 344.102 802.664 342.573 802.664 340.687C802.664 338.801 801.135 337.272 799.249 337.272C797.363 337.272 795.834 338.801 795.834 340.687C795.834 342.573 797.363 344.102 799.249 344.102Z" fill="#B7F4EC"/>
<path d="M804.713 324.3C806.599 324.3 808.128 322.771 808.128 320.885C808.128 318.999 806.599 317.47 804.713 317.47C802.827 317.47 801.298 318.999 801.298 320.885C801.298 322.771 802.827 324.3 804.713 324.3Z" fill="#B7F4EC"/>
<path d="M789.349 322.252C791.235 322.252 792.764 320.723 792.764 318.837C792.764 316.951 791.235 315.422 789.349 315.422C787.463 315.422 785.934 316.951 785.934 318.837C785.934 320.723 787.463 322.252 789.349 322.252Z" fill="#B7F4EC"/>
<path d="M797.883 312.01C799.769 312.01 801.298 310.481 801.298 308.595C801.298 306.709 799.769 305.18 797.883 305.18C795.997 305.18 794.468 306.709 794.468 308.595C794.468 310.481 795.997 312.01 797.883 312.01Z" fill="#B7F4EC"/>
<path d="M780.813 310.642C782.699 310.642 784.228 309.113 784.228 307.227C784.228 305.341 782.699 303.812 780.813 303.812C778.927 303.812 777.398 305.341 777.398 307.227C777.398 309.113 778.927 310.642 780.813 310.642Z" fill="#B7F4EC"/>
<path d="M789.349 296.985C791.235 296.985 792.764 295.456 792.764 293.57C792.764 291.684 791.235 290.155 789.349 290.155C787.463 290.155 785.934 291.684 785.934 293.57C785.934 295.456 787.463 296.985 789.349 296.985Z" fill="#B7F4EC"/>
<path d="M783.544 286.061C785.43 286.061 786.959 284.532 786.959 282.646C786.959 280.76 785.43 279.231 783.544 279.231C781.658 279.231 780.129 280.76 780.129 282.646C780.129 284.532 781.658 286.061 783.544 286.061Z" fill="#B7F4EC"/>
<path d="M1106.47 194.473L1110.26 105.612C1110.26 105.612 1094.54 111.554 1084.65 102.317L1090 202.278L1106.47 194.473Z" fill="white"/>
<path d="M1090.04 202.887C1089.92 202.89 1089.81 202.859 1089.72 202.798C1089.63 202.748 1089.55 202.675 1089.5 202.586C1089.44 202.497 1089.41 202.396 1089.4 202.291L1084.09 102.33C1084.08 102.204 1084.12 102.078 1084.18 101.97C1084.25 101.861 1084.34 101.775 1084.46 101.722C1084.57 101.668 1084.7 101.65 1084.82 101.67C1084.95 101.691 1085.06 101.748 1085.15 101.836C1094.64 110.706 1109.96 105.042 1110.11 104.991C1110.21 104.952 1110.31 104.939 1110.42 104.952C1110.52 104.966 1110.62 105.005 1110.71 105.067C1110.79 105.13 1110.86 105.212 1110.91 105.307C1110.95 105.402 1110.97 105.506 1110.97 105.612L1107.18 194.473C1107.17 194.589 1107.13 194.701 1107.07 194.797C1107 194.893 1106.91 194.969 1106.81 195.018L1090.36 202.823C1090.26 202.879 1090.15 202.902 1090.04 202.887ZM1085.36 103.749L1090.58 201.315L1105.76 194.08L1109.55 106.524C1106.24 107.563 1094.21 110.693 1085.36 103.749Z" fill="#13161B"/>
<path d="M1111.27 106.488C1111.81 102.352 1106.53 98.2461 1099.46 97.3173C1092.4 96.3885 1086.24 98.9884 1085.7 103.124C1085.15 107.26 1090.44 111.366 1097.5 112.295C1104.56 113.224 1110.73 110.624 1111.27 106.488Z" fill="white"/>
<path d="M1099.37 112.023C1098.53 112.028 1097.68 111.981 1096.84 111.883C1089.25 111.06 1083.67 106.815 1084.01 102.253C1084.09 101.458 1084.34 100.688 1084.73 99.9903C1085.12 99.2928 1085.64 98.683 1086.28 98.1987C1088.92 95.994 1093.34 95.0057 1098.12 95.5379C1105.71 96.3615 1111.29 100.606 1110.95 105.168C1110.87 105.963 1110.62 106.733 1110.23 107.431C1109.85 108.128 1109.32 108.738 1108.68 109.222C1105.98 111.181 1102.7 112.168 1099.37 112.023ZM1095.73 96.6656C1092.66 96.5239 1089.63 97.416 1087.13 99.1997C1086.62 99.5746 1086.2 100.049 1085.89 100.595C1085.58 101.14 1085.38 101.743 1085.32 102.367C1085.03 106.169 1090.28 109.907 1097.02 110.654C1101.4 111.136 1105.57 110.223 1107.91 108.285C1108.41 107.905 1108.83 107.428 1109.14 106.881C1109.45 106.334 1109.65 105.73 1109.72 105.104C1110.01 101.303 1104.76 97.5018 1098.02 96.8176C1097.26 96.7234 1096.49 96.6726 1095.73 96.6656Z" fill="#13161B"/>
<path d="M1100.02 111.731C1099.85 111.755 1099.68 111.711 1099.54 111.608C1099.41 111.506 1099.32 111.354 1099.3 111.186C1099.27 111.018 1099.32 110.848 1099.42 110.712C1099.52 110.577 1099.67 110.488 1099.84 110.464C1101.24 110.068 1102.57 109.424 1103.75 108.563C1104.36 108.189 1104.88 107.687 1105.27 107.092C1105.67 106.497 1105.93 105.823 1106.04 105.117C1106.03 103.916 1105.58 102.759 1104.77 101.873C1104.07 101.04 1103.2 100.359 1102.23 99.8707C1101.26 99.3828 1100.19 99.0985 1099.11 99.0349C1096.95 98.9998 1094.82 99.5516 1092.95 100.631C1092.39 100.842 1091.89 101.181 1091.49 101.622C1091.08 102.062 1090.79 102.591 1090.63 103.166C1090.58 103.606 1090.62 104.052 1090.75 104.475C1090.88 104.899 1091.1 105.29 1091.39 105.624C1091.98 106.251 1092.71 106.729 1093.51 107.018L1093.82 107.132L1093.94 102.152C1093.95 102.046 1093.97 101.943 1094.03 101.852C1094.08 101.761 1094.16 101.685 1094.25 101.632C1095.27 101.009 1096.42 100.631 1097.61 100.53C1098.8 100.429 1099.99 100.607 1101.1 101.05C1101.69 101.266 1102.22 101.617 1102.65 102.076C1103.06 102.631 1103.33 103.281 1103.43 103.967C1103.53 104.654 1103.46 105.354 1103.22 106.004C1103 106.596 1102.66 107.137 1102.22 107.595C1101.79 108.052 1101.27 108.416 1100.69 108.665C1099.69 109.092 1098.6 109.266 1097.51 109.172C1095.96 109.106 1094.43 108.776 1093 108.196C1092.01 107.843 1091.13 107.261 1090.42 106.498C1090.01 106.023 1089.71 105.47 1089.53 104.872C1089.35 104.275 1089.29 103.646 1089.37 103.026C1089.54 102.242 1089.9 101.512 1090.42 100.898C1090.94 100.285 1091.59 99.8064 1092.34 99.5038C1094.45 98.3057 1096.85 97.7138 1099.27 97.7932C1100.53 97.8658 1101.76 98.1956 1102.89 98.7621C1104.01 99.3287 1105.01 100.12 1105.82 101.088C1106.41 101.682 1106.85 102.406 1107.11 103.201C1107.37 103.996 1107.44 104.841 1107.32 105.668C1107.2 106.496 1106.88 107.284 1106.4 107.969C1105.93 108.654 1105.29 109.218 1104.56 109.615C1103.26 110.564 1101.8 111.272 1100.26 111.706L1100.02 111.731ZM1095.03 107.588C1095.86 107.804 1096.71 107.927 1097.56 107.955C1098.45 108.036 1099.34 107.901 1100.17 107.562C1100.58 107.377 1100.96 107.11 1101.27 106.777C1101.58 106.444 1101.82 106.052 1101.98 105.624C1102.14 105.184 1102.2 104.711 1102.14 104.244C1102.08 103.778 1101.91 103.334 1101.64 102.95C1101.35 102.642 1100.99 102.411 1100.59 102.279C1099.71 101.931 1098.77 101.779 1097.83 101.834C1096.89 101.888 1095.97 102.148 1095.15 102.595L1095.03 107.588Z" fill="#13161B"/>
<path d="M1128.52 191.761L1141.74 104.23C1141.74 104.23 1125.52 107.689 1116.68 97.0078L1111.4 197.007L1128.52 191.761Z" fill="white"/>
<path d="M1111.4 197.602C1111.26 197.6 1111.12 197.551 1111.01 197.463C1110.93 197.401 1110.86 197.321 1110.82 197.228C1110.78 197.135 1110.76 197.032 1110.77 196.931L1116.04 96.9698C1116.05 96.8429 1116.1 96.7211 1116.17 96.6197C1116.25 96.5183 1116.35 96.4417 1116.47 96.3996C1116.6 96.3614 1116.73 96.3603 1116.85 96.3963C1116.98 96.4324 1117.09 96.504 1117.17 96.6023C1125.66 106.866 1141.45 103.647 1141.6 103.609C1141.7 103.585 1141.8 103.587 1141.9 103.613C1142 103.64 1142.09 103.691 1142.17 103.761C1142.24 103.833 1142.3 103.92 1142.33 104.017C1142.36 104.114 1142.37 104.218 1142.36 104.319L1129.15 191.862C1129.13 191.98 1129.08 192.09 1129 192.179C1128.92 192.269 1128.82 192.335 1128.71 192.369L1111.58 197.577L1111.4 197.602ZM1117.23 98.5663L1112.07 196.132L1127.96 191.305L1141.02 105.003C1137.56 105.51 1125.11 106.701 1117.23 98.5663Z" fill="#13161B"/>
<path d="M1141.72 104.299C1142.95 100.351 1138.37 95.4091 1131.49 93.2612C1124.62 91.1133 1118.05 92.5727 1116.82 96.521C1115.59 100.469 1120.16 105.411 1127.04 107.559C1133.92 109.707 1140.49 108.248 1141.72 104.299Z" fill="white"/>
<path d="M1133.27 109.172C1131.4 109.159 1129.54 108.899 1127.73 108.399C1120.36 106.422 1115.23 101.354 1116.06 96.8939C1116.21 96.1302 1116.53 95.4085 1116.98 94.7769C1117.44 94.1454 1118.02 93.6187 1118.7 93.232C1121.55 91.4328 1126.06 91.116 1130.78 92.3831C1138.16 94.3724 1143.28 99.4281 1142.46 103.901C1142.3 104.662 1141.98 105.382 1141.52 106.012C1141.07 106.643 1140.48 107.171 1139.81 107.563C1137.82 108.695 1135.56 109.252 1133.27 109.172ZM1125.25 92.8899C1123.2 92.8133 1121.17 93.2996 1119.37 94.2964C1118.84 94.5928 1118.39 94.998 1118.03 95.4853C1117.67 95.9725 1117.42 96.5304 1117.3 97.122C1116.6 100.923 1121.43 105.396 1128.06 107.183C1132.38 108.348 1136.63 108.082 1139.14 106.486C1139.67 106.191 1140.12 105.787 1140.48 105.303C1140.84 104.818 1141.09 104.262 1141.22 103.673C1141.91 99.8716 1137.08 95.3861 1130.45 93.6122C1128.76 93.1455 1127.01 92.9027 1125.25 92.8899Z" fill="#13161B"/>
<path d="M1130.89 108.741C1130.74 108.74 1130.59 108.683 1130.48 108.58C1130.36 108.478 1130.28 108.337 1130.26 108.184C1130.24 108.016 1130.29 107.848 1130.4 107.716C1130.5 107.583 1130.65 107.497 1130.82 107.474C1132.24 107.308 1133.62 106.878 1134.88 106.207C1135.52 105.933 1136.08 105.518 1136.54 104.994C1136.99 104.469 1137.32 103.849 1137.5 103.179C1137.62 101.963 1137.3 100.744 1136.6 99.7452C1135.38 97.8568 1133.47 96.527 1131.27 96.0452C1129.15 95.6497 1126.96 95.8514 1124.95 96.6281C1123.49 97.1349 1122.66 97.8952 1122.42 98.8202C1122.33 99.2541 1122.32 99.7021 1122.41 100.137C1122.49 100.573 1122.67 100.987 1122.91 101.354C1123.44 102.067 1124.11 102.655 1124.89 103.078L1125.16 103.23L1125.81 98.3514C1125.82 98.2409 1125.86 98.136 1125.93 98.047C1126 97.958 1126.09 97.8882 1126.19 97.8445C1127.29 97.3886 1128.48 97.1949 1129.67 97.2784C1130.86 97.362 1132.02 97.7205 1133.05 98.326C1133.61 98.6291 1134.09 99.0637 1134.45 99.5931C1134.8 100.19 1135 100.865 1135.02 101.558C1135.05 102.251 1134.9 102.939 1134.59 103.559C1134.31 104.11 1133.92 104.597 1133.45 104.99C1132.97 105.383 1132.42 105.672 1131.83 105.84C1130.78 106.102 1129.67 106.102 1128.62 105.84C1127.08 105.531 1125.6 104.965 1124.25 104.167C1123.3 103.659 1122.48 102.934 1121.86 102.051C1121.51 101.53 1121.27 100.941 1121.15 100.322C1121.04 99.7028 1121.05 99.0665 1121.19 98.4527C1121.45 97.7027 1121.9 97.0314 1122.49 96.5017C1123.08 95.972 1123.8 95.6013 1124.57 95.4244C1126.81 94.5595 1129.25 94.3401 1131.6 94.7908C1134.13 95.3506 1136.33 96.8792 1137.74 99.0483C1138.61 100.314 1138.99 101.854 1138.81 103.382C1138.61 104.25 1138.21 105.058 1137.64 105.742C1137.06 106.426 1136.34 106.967 1135.52 107.322C1134.13 108.063 1132.6 108.544 1131.03 108.741H1130.89ZM1126.33 103.838C1127.14 104.185 1127.99 104.448 1128.86 104.623C1129.72 104.834 1130.62 104.834 1131.49 104.623C1131.9 104.501 1132.29 104.295 1132.62 104.018C1132.96 103.742 1133.23 103.4 1133.42 103.014C1133.65 102.597 1133.76 102.131 1133.76 101.658C1133.76 101.185 1133.65 100.72 1133.42 100.303C1133.18 99.9384 1132.84 99.6457 1132.44 99.4537C1131.63 98.976 1130.73 98.6799 1129.8 98.5858C1128.86 98.4917 1127.92 98.6019 1127.04 98.9089L1126.33 103.838Z" fill="#13161B"/>
<path d="M1094.39 211.515L1093.94 122.539C1093.94 122.539 1109.42 129.344 1119.66 120.677L1110.5 220.232L1094.39 211.515Z" fill="white"/>
<path d="M1110.5 220.866C1110.4 220.868 1110.29 220.842 1110.2 220.79L1094.08 212.073C1093.98 212.021 1093.9 211.943 1093.84 211.847C1093.78 211.751 1093.75 211.64 1093.75 211.528L1093.31 122.54C1093.31 122.434 1093.34 122.33 1093.39 122.237C1093.44 122.144 1093.51 122.065 1093.6 122.008C1093.7 121.958 1093.8 121.932 1093.91 121.932C1094.01 121.932 1094.12 121.958 1094.21 122.008C1094.35 122.008 1109.39 128.559 1119.24 120.247C1119.34 120.167 1119.46 120.118 1119.59 120.104C1119.71 120.091 1119.84 120.114 1119.95 120.171C1120.06 120.232 1120.15 120.323 1120.21 120.432C1120.27 120.542 1120.3 120.666 1120.29 120.792L1111.12 220.347C1111.12 220.453 1111.08 220.554 1111.02 220.643C1110.97 220.732 1110.89 220.804 1110.79 220.854C1110.7 220.883 1110.6 220.887 1110.5 220.866ZM1095.02 211.148L1109.96 219.232L1118.89 122.084C1109.88 128.584 1098.01 124.783 1094.59 123.516L1095.02 211.148Z" fill="#13161B"/>
<path d="M1107.27 128.929C1114.38 128.48 1119.92 124.73 1119.66 120.553C1119.4 116.377 1113.42 113.355 1106.32 113.804C1099.21 114.253 1093.67 118.003 1093.93 122.179C1094.19 126.356 1100.17 129.378 1107.27 128.929Z" fill="white"/>
<path d="M1105.85 129.623C1101.56 129.623 1097.71 128.356 1095.39 126.278C1094.77 125.76 1094.27 125.123 1093.9 124.404C1093.54 123.685 1093.33 122.9 1093.27 122.097C1093.11 117.51 1098.9 113.582 1106.47 113.227C1111.25 112.961 1115.63 114.203 1118.18 116.534C1118.8 117.053 1119.3 117.691 1119.66 118.409C1120.03 119.128 1120.24 119.912 1120.29 120.715C1120.46 125.226 1114.54 129.23 1107.1 129.585C1106.69 129.61 1106.27 129.623 1105.85 129.623ZM1107.68 114.418H1106.53C1099.78 114.785 1094.4 118.219 1094.54 122.021C1094.59 122.653 1094.77 123.269 1095.06 123.832C1095.35 124.396 1095.75 124.895 1096.23 125.302C1098.51 127.38 1102.65 128.521 1107.02 128.28C1113.79 127.913 1119.17 124.479 1119.03 120.677C1118.98 120.044 1118.8 119.427 1118.51 118.863C1118.21 118.299 1117.81 117.8 1117.32 117.396C1115.26 115.52 1111.63 114.405 1107.68 114.405V114.418Z" fill="#13161B"/>
<path d="M1104.01 129.256C1103.95 129.268 1103.88 129.268 1103.81 129.256C1102.28 128.733 1100.86 127.949 1099.6 126.937C1098.85 126.421 1098.23 125.748 1097.77 124.964C1097.32 124.18 1097.04 123.305 1096.96 122.401C1096.98 120.88 1097.58 119.427 1098.65 118.346C1099.5 117.424 1100.54 116.688 1101.68 116.184C1102.83 115.68 1104.07 115.42 1105.33 115.419C1107.75 115.492 1110.1 116.214 1112.15 117.51C1112.88 117.85 1113.51 118.36 1114.01 118.997C1114.5 119.634 1114.83 120.379 1114.98 121.172C1115.04 121.796 1114.96 122.424 1114.76 123.016C1114.55 123.608 1114.22 124.15 1113.79 124.605C1113.04 125.35 1112.12 125.898 1111.11 126.202C1109.65 126.704 1108.11 126.949 1106.57 126.924C1105.47 126.959 1104.39 126.724 1103.41 126.24C1102.28 125.659 1101.43 124.657 1101.04 123.452C1100.82 122.796 1100.78 122.095 1100.9 121.414C1101.03 120.734 1101.32 120.097 1101.76 119.562C1102.21 119.118 1102.75 118.792 1103.36 118.612C1104.49 118.237 1105.69 118.128 1106.88 118.295C1108.06 118.462 1109.19 118.9 1110.17 119.575C1110.26 119.634 1110.33 119.713 1110.38 119.806C1110.43 119.899 1110.45 120.002 1110.45 120.107V125.1L1110.77 124.998C1111.58 124.764 1112.33 124.328 1112.93 123.731C1113.24 123.413 1113.47 123.034 1113.62 122.619C1113.76 122.204 1113.82 121.762 1113.78 121.324C1113.65 120.727 1113.38 120.169 1113 119.696C1112.61 119.223 1112.12 118.847 1111.57 118.599C1109.73 117.42 1107.61 116.759 1105.43 116.686C1104.35 116.688 1103.28 116.914 1102.29 117.35C1101.3 117.786 1100.41 118.423 1099.67 119.22C1098.84 120.065 1098.35 121.197 1098.31 122.388C1098.39 123.106 1098.63 123.797 1099 124.415C1099.38 125.034 1099.88 125.565 1100.47 125.974C1101.61 126.888 1102.89 127.603 1104.27 128.09C1104.43 128.117 1104.58 128.209 1104.68 128.347C1104.78 128.485 1104.82 128.657 1104.8 128.825C1104.77 128.993 1104.68 129.143 1104.54 129.243C1104.4 129.343 1104.23 129.384 1104.06 129.357L1104.01 129.256ZM1105.77 119.448C1105.09 119.445 1104.41 119.557 1103.76 119.778C1103.35 119.884 1102.98 120.098 1102.69 120.399C1102.4 120.767 1102.21 121.201 1102.14 121.662C1102.06 122.122 1102.1 122.594 1102.26 123.034C1102.4 123.474 1102.62 123.881 1102.92 124.233C1103.22 124.586 1103.58 124.876 1103.99 125.087C1104.78 125.458 1105.65 125.64 1106.52 125.619C1107.37 125.638 1108.22 125.561 1109.05 125.391L1109.11 120.411C1108.11 119.792 1106.95 119.459 1105.77 119.448Z" fill="#13161B"/>
<path d="M1121.72 286.071H759.795C759.627 286.071 759.466 286.004 759.347 285.885C759.229 285.766 759.162 285.605 759.162 285.437C759.162 285.269 759.229 285.108 759.347 284.989C759.466 284.87 759.627 284.804 759.795 284.804H1121.72C1121.89 284.804 1122.05 284.87 1122.17 284.989C1122.29 285.108 1122.36 285.269 1122.36 285.437C1122.36 285.605 1122.29 285.766 1122.17 285.885C1122.05 286.004 1121.89 286.071 1121.72 286.071Z" fill="#13161B"/>
<path d="M1078.35 174.11H1140.24V280.128C1140.24 283.283 1138.98 286.306 1136.76 288.538C1134.53 290.77 1131.51 292.029 1128.37 292.039H1090.28C1087.12 292.039 1084.08 290.781 1081.85 288.543C1079.62 286.304 1078.36 283.268 1078.36 280.103V174.11H1078.35Z" fill="white"/>
<path d="M1128.36 292.697H1090.28C1086.95 292.694 1083.75 291.367 1081.4 289.008C1079.04 286.649 1077.72 283.451 1077.71 280.115V174.11C1077.71 173.942 1077.78 173.781 1077.9 173.662C1078.02 173.543 1078.18 173.477 1078.35 173.477H1140.24C1140.41 173.477 1140.57 173.543 1140.69 173.662C1140.81 173.781 1140.88 173.942 1140.88 174.11V280.115C1140.87 283.442 1139.55 286.633 1137.21 288.99C1134.87 291.348 1131.69 292.68 1128.36 292.697ZM1079.03 174.744V280.115C1079.03 283.115 1080.22 285.991 1082.34 288.112C1084.46 290.234 1087.33 291.427 1090.33 291.43H1128.36C1131.36 291.423 1134.23 290.229 1136.34 288.108C1138.46 285.987 1139.65 283.113 1139.65 280.115V174.744H1079.03Z" fill="#13161B"/>
<path d="M786.752 161.034H770.421V257.739H786.752V161.034Z" fill="white"/>
<path d="M786.815 258.372H770.37C770.202 258.372 770.041 258.305 769.923 258.186C769.804 258.068 769.738 257.906 769.738 257.738V161.034C769.738 160.866 769.804 160.705 769.923 160.586C770.041 160.467 770.202 160.4 770.37 160.4H786.815C786.983 160.4 787.144 160.467 787.262 160.586C787.381 160.705 787.448 160.866 787.448 161.034V257.738C787.448 257.906 787.381 258.068 787.262 258.186C787.144 258.305 786.983 258.372 786.815 258.372ZM771.116 257.105H786.119V161.667H771.053L771.116 257.105Z" fill="#13161B"/>
<path d="M808.446 141.927H786.752V238.631H808.446V141.927Z" fill="white"/>
<path d="M808.447 239.277H786.815C786.647 239.277 786.486 239.21 786.368 239.092C786.249 238.973 786.183 238.812 786.183 238.644V141.927C786.183 141.758 786.249 141.597 786.368 141.479C786.486 141.36 786.647 141.293 786.815 141.293H808.447C808.614 141.293 808.775 141.36 808.894 141.479C809.012 141.597 809.079 141.758 809.079 141.927V238.644C809.079 238.812 809.012 238.973 808.894 239.092C808.775 239.21 808.614 239.277 808.447 239.277ZM787.384 238.01H807.814V142.522H787.384V238.01Z" fill="#13161B"/>
<path d="M845.916 149.681H808.447V246.385H845.916V149.681Z" fill="white"/>
<path d="M845.916 247.019H808.447C808.279 247.019 808.118 246.953 807.999 246.834C807.881 246.715 807.814 246.554 807.814 246.386V149.681C807.814 149.513 807.881 149.352 807.999 149.233C808.118 149.115 808.279 149.048 808.447 149.048H845.916C846.084 149.048 846.245 149.115 846.363 149.233C846.482 149.352 846.549 149.513 846.549 149.681V246.424C846.539 246.585 846.468 246.737 846.35 246.847C846.233 246.958 846.077 247.02 845.916 247.019ZM809.079 245.752H845.284V150.315H809.079V245.752Z" fill="#13161B"/>
<path d="M862.374 213.276H758.783V293.458H862.374V213.276Z" fill="white"/>
<path d="M862.373 294.091H758.783C758.615 294.091 758.454 294.024 758.335 293.906C758.217 293.787 758.15 293.626 758.15 293.458V213.276C758.15 213.108 758.217 212.947 758.335 212.828C758.454 212.709 758.615 212.643 758.783 212.643H862.373C862.54 212.646 862.699 212.714 862.817 212.832C862.935 212.95 863.003 213.109 863.006 213.276V293.458C863.003 293.625 862.935 293.784 862.817 293.902C862.699 294.02 862.54 294.088 862.373 294.091ZM759.415 292.824H861.741V213.91H759.415V292.824Z" fill="#13161B"/>
<path d="M799.01 240.899H770.37C770.202 240.899 770.041 240.832 769.923 240.714C769.804 240.595 769.738 240.434 769.738 240.266V224.161C769.738 223.993 769.804 223.832 769.923 223.713C770.041 223.594 770.202 223.527 770.37 223.527H798.959C799.127 223.527 799.288 223.594 799.406 223.713C799.525 223.832 799.592 223.993 799.592 224.161V240.266C799.592 240.425 799.532 240.579 799.425 240.697C799.317 240.814 799.168 240.886 799.01 240.899ZM771.053 239.632H798.377V224.794H771.053V239.632Z" fill="#13161B"/>
<path d="M777.77 174.073C776.988 174.068 776.224 173.83 775.576 173.391C774.928 172.952 774.425 172.33 774.129 171.604C773.834 170.878 773.76 170.081 773.916 169.313C774.073 168.545 774.453 167.84 775.009 167.289C775.565 166.737 776.272 166.363 777.04 166.213C777.808 166.064 778.604 166.146 779.325 166.449C780.047 166.751 780.663 167.262 781.096 167.915C781.528 168.568 781.758 169.335 781.755 170.119C781.753 170.641 781.649 171.158 781.448 171.639C781.246 172.12 780.952 172.557 780.582 172.924C780.212 173.292 779.773 173.582 779.29 173.779C778.808 173.976 778.291 174.076 777.77 174.073ZM777.77 167.42C777.239 167.425 776.72 167.588 776.28 167.887C775.841 168.187 775.499 168.61 775.299 169.104C775.099 169.597 775.049 170.139 775.156 170.661C775.263 171.183 775.521 171.661 775.899 172.036C776.277 172.411 776.757 172.666 777.279 172.768C777.801 172.87 778.342 172.815 778.832 172.61C779.323 172.405 779.743 172.059 780.038 171.616C780.333 171.173 780.49 170.652 780.49 170.119C780.488 169.763 780.417 169.411 780.279 169.083C780.142 168.754 779.941 168.456 779.688 168.206C779.436 167.955 779.136 167.757 778.807 167.622C778.478 167.487 778.126 167.419 777.77 167.42Z" fill="#13161B"/>
<path d="M797.593 157.271C796.809 157.271 796.043 157.038 795.392 156.602C794.74 156.165 794.233 155.545 793.933 154.82C793.634 154.094 793.557 153.296 793.71 152.526C793.864 151.757 794.242 151.05 794.797 150.496C795.352 149.942 796.059 149.565 796.828 149.414C797.597 149.262 798.393 149.342 799.117 149.644C799.84 149.947 800.458 150.457 800.891 151.111C801.325 151.765 801.555 152.533 801.552 153.318C801.552 153.838 801.45 154.353 801.251 154.833C801.051 155.314 800.76 155.75 800.392 156.117C800.024 156.485 799.587 156.776 799.107 156.974C798.627 157.172 798.112 157.273 797.593 157.271ZM797.593 150.619C797.06 150.619 796.539 150.777 796.096 151.073C795.653 151.37 795.307 151.792 795.103 152.285C794.899 152.778 794.846 153.321 794.95 153.844C795.054 154.368 795.311 154.849 795.687 155.226C796.064 155.603 796.544 155.86 797.067 155.965C797.59 156.069 798.132 156.015 798.624 155.811C799.116 155.607 799.537 155.261 799.833 154.817C800.129 154.373 800.287 153.851 800.287 153.318C800.289 152.963 800.22 152.611 800.085 152.283C799.951 151.955 799.752 151.656 799.502 151.405C799.251 151.154 798.953 150.956 798.626 150.821C798.298 150.686 797.947 150.617 797.593 150.619Z" fill="#13161B"/>
<path d="M836.77 167.42H808.446C808.279 167.42 808.118 167.354 807.999 167.235C807.881 167.116 807.814 166.955 807.814 166.787C807.814 166.619 807.881 166.458 807.999 166.339C808.118 166.22 808.279 166.153 808.446 166.153H836.77C836.938 166.153 837.098 166.22 837.217 166.339C837.336 166.458 837.402 166.619 837.402 166.787C837.402 166.955 837.336 167.116 837.217 167.235C837.098 167.354 836.938 167.42 836.77 167.42Z" fill="#13161B"/>
<path d="M808.447 181.612H786.815C786.647 181.612 786.486 181.545 786.368 181.426C786.249 181.307 786.183 181.146 786.183 180.978C786.183 180.81 786.249 180.649 786.368 180.53C786.486 180.411 786.647 180.345 786.815 180.345H808.447C808.614 180.345 808.775 180.411 808.894 180.53C809.012 180.649 809.079 180.81 809.079 180.978C809.079 181.146 809.012 181.307 808.894 181.426C808.775 181.545 808.614 181.612 808.447 181.612Z" fill="#13161B"/>
<path d="M1053.67 81.9043H846.371C837.072 81.9043 829.534 89.455 829.534 98.7693V249.452C829.534 258.766 837.072 266.317 846.371 266.317H1053.67C1062.97 266.317 1070.5 258.766 1070.5 249.452V98.7693C1070.5 89.455 1062.97 81.9043 1053.67 81.9043Z" fill="white"/>
<path d="M1053.73 266.95H846.371C841.74 266.943 837.3 265.098 834.026 261.818C830.751 258.537 828.908 254.09 828.902 249.452V98.769C828.908 94.1302 830.751 89.6833 834.026 86.4031C837.3 83.123 841.74 81.2772 846.371 81.2705H1053.73C1058.36 81.2739 1062.8 83.1185 1066.08 86.3994C1069.35 89.6803 1071.2 94.1292 1071.2 98.769V249.452C1071.19 254.09 1069.35 258.537 1066.08 261.818C1062.8 265.098 1058.36 266.943 1053.73 266.95ZM846.371 82.5376C842.075 82.541 837.955 84.2521 834.917 87.2954C831.878 90.3386 830.17 94.4652 830.167 98.769V249.452C830.173 253.754 831.883 257.879 834.92 260.922C837.958 263.964 842.076 265.676 846.371 265.683H1053.73C1058.03 265.68 1062.15 263.968 1065.18 260.925C1068.22 257.882 1069.93 253.755 1069.93 249.452V98.769C1069.93 94.4652 1068.22 90.3386 1065.18 87.2954C1062.15 84.2521 1058.03 82.541 1053.73 82.5376H846.371Z" fill="#13161B"/>
<path d="M858.864 234.874V60.9395H1041.17V234.874H858.864Z" fill="#14C9C9" stroke="#13161B"/>
<path d="M1070.91 235.996H829.13C828.962 235.996 828.801 235.929 828.682 235.81C828.564 235.691 828.497 235.53 828.497 235.362C828.5 235.195 828.568 235.036 828.686 234.918C828.804 234.8 828.963 234.732 829.13 234.729H1070.91C1071.08 234.729 1071.24 234.795 1071.36 234.914C1071.47 235.033 1071.54 235.194 1071.54 235.362C1071.54 235.53 1071.47 235.691 1071.36 235.81C1071.24 235.929 1071.08 235.996 1070.91 235.996Z" fill="#13161B"/>
<path d="M950.025 255.192C953.218 255.192 955.806 252.599 955.806 249.401C955.806 246.203 953.218 243.61 950.025 243.61C946.833 243.61 944.244 246.203 944.244 249.401C944.244 252.599 946.833 255.192 950.025 255.192Z" fill="white"/>
<path d="M950 255.812C948.73 255.815 947.489 255.44 946.432 254.735C945.375 254.03 944.551 253.027 944.064 251.852C943.577 250.678 943.449 249.385 943.696 248.138C943.943 246.89 944.555 245.745 945.452 244.845C946.35 243.946 947.494 243.334 948.739 243.087C949.984 242.839 951.275 242.968 952.447 243.455C953.62 243.943 954.621 244.768 955.325 245.827C956.029 246.885 956.403 248.129 956.401 249.401C956.397 251.1 955.722 252.729 954.522 253.931C953.323 255.132 951.697 255.809 950 255.812ZM950 244.244C948.981 244.241 947.984 244.541 947.136 245.107C946.288 245.672 945.626 246.476 945.234 247.418C944.843 248.36 944.739 249.398 944.936 250.399C945.133 251.4 945.623 252.32 946.342 253.043C947.062 253.765 947.979 254.258 948.978 254.458C949.977 254.658 951.013 254.556 951.955 254.166C952.896 253.776 953.701 253.115 954.267 252.267C954.834 251.419 955.136 250.421 955.136 249.401C955.136 248.035 954.595 246.725 953.632 245.759C952.67 244.792 951.363 244.247 950 244.244Z" fill="#13161B"/>
<path d="M993.655 293.293H906.395C903.741 293.293 901.588 295.449 901.588 298.108V298.83C901.588 301.489 903.741 303.645 906.395 303.645H993.655C996.31 303.645 998.462 301.489 998.462 298.83V298.108C998.462 295.449 996.31 293.293 993.655 293.293Z" fill="white"/>
<path d="M993.655 304.266H906.37C904.931 304.266 903.55 303.693 902.533 302.674C901.515 301.654 900.943 300.272 900.943 298.83V298.095C900.943 296.653 901.515 295.271 902.533 294.251C903.55 293.232 904.931 292.659 906.37 292.659H993.655C995.095 292.659 996.477 293.231 997.497 294.251C998.517 295.27 999.091 296.652 999.094 298.095V298.83C999.091 300.273 998.517 301.655 997.497 302.674C996.477 303.693 995.095 304.266 993.655 304.266ZM906.37 293.926C905.266 293.926 904.208 294.365 903.427 295.147C902.647 295.929 902.208 296.989 902.208 298.095V298.83C902.211 299.934 902.651 300.993 903.431 301.774C904.211 302.555 905.267 302.995 906.37 302.999H993.655C994.76 302.999 995.82 302.56 996.602 301.778C997.385 300.997 997.826 299.937 997.829 298.83V298.095C997.829 297.546 997.721 297.003 997.511 296.497C997.302 295.99 996.994 295.53 996.606 295.143C996.218 294.755 995.758 294.449 995.252 294.24C994.745 294.031 994.203 293.925 993.655 293.926H906.37Z" fill="#13161B"/>
<path d="M983.055 293.457H916.984L921.525 266.304H978.513L983.055 293.457Z" fill="white"/>
<path d="M983.054 294.091H916.983C916.891 294.091 916.801 294.071 916.717 294.031C916.634 293.992 916.561 293.934 916.503 293.863C916.442 293.795 916.397 293.714 916.373 293.626C916.349 293.538 916.346 293.445 916.364 293.356L920.905 266.202C920.929 266.056 921.005 265.923 921.119 265.827C921.232 265.732 921.377 265.681 921.525 265.683H978.45C978.6 265.68 978.745 265.731 978.861 265.826C978.977 265.921 979.055 266.055 979.082 266.202L983.687 293.305C983.7 293.395 983.694 293.486 983.67 293.573C983.646 293.66 983.604 293.742 983.548 293.812C983.491 293.892 983.417 293.958 983.332 294.006C983.247 294.054 983.152 294.083 983.054 294.091ZM917.73 292.824H982.245L977.918 266.95H922.056L917.73 292.824Z" fill="#13161B"/>
<path d="M919.26 279.887L979.424 271.702L978.513 266.304H921.525L919.26 279.887Z" fill="#13161B"/>
<path d="M919.261 280.52C919.175 280.521 919.09 280.503 919.011 280.468C918.933 280.433 918.862 280.382 918.805 280.318C918.737 280.246 918.685 280.16 918.654 280.065C918.624 279.971 918.615 279.871 918.628 279.773L920.905 266.202C920.929 266.056 921.005 265.923 921.119 265.827C921.233 265.732 921.377 265.681 921.525 265.683H978.45C978.6 265.68 978.745 265.731 978.861 265.826C978.977 265.921 979.055 266.055 979.082 266.202L979.981 271.587C979.994 271.671 979.991 271.757 979.971 271.839C979.952 271.922 979.916 272 979.867 272.069C979.816 272.138 979.752 272.196 979.678 272.24C979.604 272.283 979.522 272.311 979.437 272.322L919.273 280.508L919.261 280.52ZM922.056 266.95L920.02 279.139L978.69 271.157L977.982 266.95H922.056Z" fill="#13161B"/>
<path d="M893.062 156.6H875.466V170.563H893.062V156.6Z" fill="white"/>
<path d="M965.42 160.084H909.9C909.564 160.084 909.242 159.95 909.005 159.713C908.768 159.475 908.635 159.153 908.635 158.817C908.635 158.481 908.768 158.159 909.005 157.921C909.242 157.683 909.564 157.55 909.9 157.55H965.42C965.756 157.55 966.078 157.683 966.315 157.921C966.552 158.159 966.685 158.481 966.685 158.817C966.685 159.153 966.552 159.475 966.315 159.713C966.078 159.95 965.756 160.084 965.42 160.084Z" fill="#FDFFFF"/>
<path d="M953.795 168.054H909.9C909.564 168.054 909.242 167.92 909.005 167.683C908.768 167.445 908.635 167.123 908.635 166.787C908.635 166.451 908.768 166.128 909.005 165.891C909.242 165.653 909.564 165.52 909.9 165.52H953.795C954.131 165.52 954.452 165.653 954.69 165.891C954.927 166.128 955.06 166.451 955.06 166.787C955.06 167.123 954.927 167.445 954.69 167.683C954.452 167.92 954.131 168.054 953.795 168.054Z" fill="#FDFFFF"/>
<path d="M882.601 167.864C882.483 167.877 882.365 167.877 882.247 167.864C881.964 167.808 881.698 167.689 881.468 167.516C881.238 167.343 881.05 167.119 880.919 166.863L879.261 163.657C879.133 163.435 879.05 163.189 879.019 162.933C878.988 162.678 879.009 162.419 879.081 162.172C879.152 161.926 879.274 161.696 879.436 161.497C879.599 161.298 879.801 161.135 880.029 161.016C880.257 160.898 880.506 160.827 880.762 160.808C881.018 160.789 881.275 160.822 881.518 160.906C881.761 160.989 881.984 161.121 882.175 161.294C882.365 161.466 882.519 161.675 882.626 161.909L883.183 162.986L886.978 159.679C887.166 159.512 887.386 159.385 887.624 159.303C887.861 159.222 888.113 159.188 888.364 159.204C888.614 159.22 888.86 159.285 889.085 159.396C889.311 159.507 889.513 159.661 889.679 159.85C889.845 160.039 889.972 160.258 890.053 160.497C890.135 160.735 890.168 160.987 890.153 161.238C890.137 161.489 890.072 161.735 889.961 161.961C889.85 162.187 889.696 162.389 889.508 162.555L883.866 167.433C883.512 167.729 883.061 167.883 882.601 167.864Z" fill="#14C9C9"/>
<path d="M893.062 180.979H875.466V194.942H893.062V180.979Z" fill="white"/>
<path d="M965.42 184.463H909.9C909.564 184.463 909.242 184.329 909.005 184.092C908.768 183.854 908.635 183.532 908.635 183.196C908.635 182.86 908.768 182.537 909.005 182.3C909.242 182.062 909.564 181.929 909.9 181.929H965.42C965.756 181.929 966.078 182.062 966.315 182.3C966.552 182.537 966.685 182.86 966.685 183.196C966.685 183.532 966.552 183.854 966.315 184.092C966.078 184.329 965.756 184.463 965.42 184.463Z" fill="#FDFFFF"/>
<path d="M953.795 192.445H909.9C909.564 192.445 909.242 192.312 909.005 192.074C908.768 191.837 908.635 191.514 908.635 191.178C908.635 190.842 908.768 190.52 909.005 190.282C909.242 190.045 909.564 189.911 909.9 189.911H953.795C954.131 189.911 954.452 190.045 954.69 190.282C954.927 190.52 955.06 190.842 955.06 191.178C955.06 191.514 954.927 191.837 954.69 192.074C954.452 192.312 954.131 192.445 953.795 192.445Z" fill="#FDFFFF"/>
<path d="M882.601 192.192C882.483 192.205 882.365 192.205 882.247 192.192C881.966 192.136 881.702 192.018 881.472 191.847C881.242 191.677 881.053 191.457 880.919 191.204L879.261 187.986C879.133 187.763 879.05 187.517 879.019 187.262C878.988 187.006 879.009 186.747 879.081 186.501C879.152 186.254 879.274 186.024 879.436 185.825C879.599 185.627 879.801 185.463 880.029 185.345C880.257 185.226 880.506 185.155 880.762 185.136C881.018 185.117 881.275 185.15 881.518 185.234C881.761 185.317 881.984 185.449 882.175 185.622C882.365 185.794 882.519 186.003 882.626 186.237L883.183 187.314L886.978 184.007C887.166 183.84 887.386 183.713 887.624 183.631C887.861 183.55 888.113 183.516 888.364 183.532C888.614 183.548 888.86 183.613 889.085 183.724C889.311 183.835 889.513 183.989 889.679 184.178C889.845 184.367 889.972 184.587 890.053 184.825C890.135 185.063 890.168 185.315 890.153 185.566C890.137 185.817 890.072 186.063 889.961 186.289C889.85 186.515 889.696 186.717 889.508 186.883L883.866 191.761C883.512 192.056 883.061 192.209 882.601 192.192Z" fill="#14C9C9"/>
<path d="M984.75 155.915C983.962 156.603 983.222 157.344 982.536 158.133C979.013 162.094 976.912 167.119 976.565 172.413H987.027C987.32 169.901 988.311 167.522 989.886 165.545C990.532 164.72 991.276 163.976 992.099 163.328C994.072 161.752 996.448 160.764 998.956 160.477V149.985C993.697 150.339 988.703 152.424 984.75 155.915Z" fill="white"/>
<path d="M1024.52 172.413C1024.19 167.128 1022.11 162.105 1018.61 158.133L1011.21 165.545C1012.78 167.526 1013.76 169.904 1014.06 172.413C1014.06 172.932 1014.15 173.452 1014.15 173.984C1014.15 174.516 1014.15 175.036 1014.06 175.555C1013.77 178.067 1012.78 180.446 1011.2 182.423C1010.55 183.248 1009.81 183.993 1008.99 184.64C1007.02 186.218 1004.64 187.206 1002.13 187.491C1001.09 187.61 1000.04 187.61 999.006 187.491C996.5 187.202 994.124 186.214 992.15 184.64C991.326 183.993 990.583 183.248 989.936 182.423C988.364 180.445 987.374 178.066 987.077 175.555H976.565C976.898 180.843 978.981 185.868 982.485 189.835C983.172 190.624 983.911 191.365 984.699 192.053C988.666 195.553 993.68 197.639 998.956 197.983C999.474 197.983 999.993 197.983 1000.51 197.983C1001.03 197.983 1001.56 197.983 1002.08 197.983C1007.36 197.64 1012.37 195.555 1016.34 192.053C1017.13 191.369 1017.87 190.627 1018.55 189.835C1022.06 185.868 1024.14 180.843 1024.47 175.555C1024.47 175.036 1024.47 174.516 1024.47 173.984C1024.47 173.452 1024.56 172.932 1024.52 172.413Z" fill="white"/>
<path d="M1016.4 155.915C1012.43 152.413 1007.41 150.328 1002.13 149.985V160.477C1004.64 160.764 1007.02 161.752 1009 163.328L1016.4 155.915Z" fill="#13161B"/>
<path d="M1009 163.961C1008.86 163.966 1008.72 163.916 1008.61 163.821C1006.72 162.32 1004.45 161.376 1002.05 161.097C1001.9 161.079 1001.76 161.006 1001.66 160.891C1001.56 160.777 1001.5 160.63 1001.5 160.476V149.985C1001.5 149.899 1001.52 149.814 1001.55 149.735C1001.59 149.656 1001.64 149.586 1001.7 149.529C1001.76 149.469 1001.84 149.422 1001.92 149.392C1002 149.361 1002.08 149.347 1002.17 149.351C1007.59 149.688 1012.75 151.834 1016.82 155.446C1016.95 155.564 1017.02 155.728 1017.03 155.902C1017.03 155.987 1017.02 156.071 1016.98 156.15C1016.95 156.228 1016.9 156.299 1016.84 156.358L1009.46 163.783C1009.33 163.899 1009.17 163.962 1009 163.961ZM1002.76 159.919C1004.99 160.257 1007.11 161.126 1008.94 162.453L1015.46 155.915C1011.88 152.913 1007.47 151.071 1002.81 150.631L1002.76 159.919Z" fill="#13161B"/>
<path d="M1019.57 214.543H875.466C875.131 214.543 874.809 214.409 874.572 214.172C874.334 213.934 874.201 213.612 874.201 213.276C874.201 212.94 874.334 212.618 874.572 212.38C874.809 212.142 875.131 212.009 875.466 212.009H1019.57C1019.91 212.009 1020.23 212.142 1020.47 212.38C1020.71 212.618 1020.84 212.94 1020.84 213.276C1020.84 213.612 1020.71 213.934 1020.47 214.172C1020.23 214.409 1019.91 214.543 1019.57 214.543Z" fill="#13161B"/>
<path d="M968.861 138.721H875.466C875.131 138.721 874.809 138.587 874.572 138.349C874.334 138.112 874.201 137.789 874.201 137.453V87.1499C874.201 86.8139 874.334 86.4916 874.572 86.2539C874.809 86.0163 875.131 85.8828 875.466 85.8828C875.802 85.8828 876.123 86.0163 876.361 86.2539C876.598 86.4916 876.731 86.8139 876.731 87.1499V136.186H968.861C969.197 136.186 969.518 136.32 969.756 136.557C969.993 136.795 970.126 137.117 970.126 137.453C970.126 137.789 969.993 138.112 969.756 138.349C969.518 138.587 969.197 138.721 968.861 138.721Z" fill="#13161B"/>
<path d="M880.944 132.474C880.766 132.485 880.589 132.454 880.425 132.385C880.127 132.233 879.901 131.969 879.797 131.651C879.693 131.333 879.718 130.986 879.868 130.687C880.299 129.851 890.419 110.135 903.663 106.017C911.253 103.635 913.922 108.006 916.225 111.858C918.299 115.343 920.095 118.346 925.282 117.978C930.937 117.573 934.225 111.922 937.401 106.448C940.576 100.974 944.029 95.0439 950.127 95.272C955.182 95.5826 960.251 95.5826 965.307 95.272C965.473 95.2562 965.64 95.2733 965.8 95.3224C965.959 95.3715 966.108 95.4515 966.236 95.558C966.365 95.6645 966.471 95.7953 966.549 95.943C966.628 96.0907 966.676 96.2523 966.692 96.4187C966.708 96.5851 966.69 96.753 966.641 96.9128C966.592 97.0726 966.512 97.2211 966.406 97.3499C966.3 97.4788 966.169 97.5854 966.022 97.6637C965.874 97.742 965.713 97.7904 965.547 97.8062C960.365 98.1295 955.169 98.1295 949.987 97.8062C945.433 97.6541 942.574 102.532 939.551 107.728C936.212 113.48 932.417 120.006 925.421 120.512C918.666 120.981 916.085 116.711 914.036 113.163C911.784 109.362 910.153 106.65 904.397 108.437C892.164 112.238 882.209 131.638 882.107 131.84C881.991 132.043 881.82 132.21 881.615 132.322C881.41 132.434 881.177 132.486 880.944 132.474Z" fill="#FDFFFF"/>
<path d="M1028.43 138.721H987.824C987.488 138.721 987.166 138.587 986.929 138.35C986.692 138.112 986.559 137.79 986.559 137.454V93.3716C986.559 93.0355 986.692 92.7132 986.929 92.4756C987.166 92.238 987.488 92.1045 987.824 92.1045H1028.43C1028.77 92.1045 1029.09 92.238 1029.32 92.4756C1029.56 92.7132 1029.7 93.0355 1029.7 93.3716V137.454C1029.7 137.79 1029.56 138.112 1029.32 138.35C1029.09 138.587 1028.77 138.721 1028.43 138.721ZM989.089 136.187H1027.17V94.6387H989.089V136.187Z" fill="#FDFFFF"/>
<path d="M1005.31 138.721C1004.97 138.721 1004.65 138.587 1004.41 138.35C1004.17 138.112 1004.04 137.79 1004.04 137.454V93.3716C1004.04 93.0355 1004.17 92.7132 1004.41 92.4756C1004.65 92.238 1004.97 92.1045 1005.31 92.1045C1005.64 92.1045 1005.96 92.238 1006.2 92.4756C1006.44 92.7132 1006.57 93.0355 1006.57 93.3716V137.454C1006.57 137.79 1006.44 138.112 1006.2 138.35C1005.96 138.587 1005.64 138.721 1005.31 138.721Z" fill="#FDFFFF"/>
<path d="M1028.43 105.776H987.824C987.488 105.776 987.166 105.643 986.929 105.405C986.692 105.168 986.559 104.845 986.559 104.509C986.559 104.173 986.692 103.851 986.929 103.613C987.166 103.376 987.488 103.242 987.824 103.242H1028.43C1028.77 103.242 1029.09 103.376 1029.32 103.613C1029.56 103.851 1029.7 104.173 1029.7 104.509C1029.7 104.845 1029.56 105.168 1029.32 105.405C1029.09 105.643 1028.77 105.776 1028.43 105.776Z" fill="#FDFFFF"/>
<path d="M897.338 78.8885C896.657 78.8669 895.998 78.6402 895.447 78.2378C894.897 77.8355 894.48 77.2763 894.251 76.6331C892.986 73.7188 890.887 65.6601 891.051 63.9622C891.241 61.9348 892.215 61.428 892.784 61.428C894.049 61.2253 895.314 62.4163 896.225 64.355C897.163 67.4658 897.91 70.631 898.464 73.8328C898.48 73.916 898.479 74.0015 898.462 74.0844C898.445 74.1674 898.411 74.2461 898.364 74.3161C898.316 74.3861 898.255 74.446 898.184 74.4925C898.114 74.5389 898.035 74.571 897.952 74.5868C897.869 74.6026 897.783 74.6018 897.7 74.5846C897.618 74.5674 897.539 74.534 897.469 74.4863C897.399 74.4387 897.339 74.3777 897.293 74.3069C897.247 74.236 897.215 74.1568 897.199 74.0736C896.65 70.965 895.928 67.8896 895.036 64.8618C894.34 63.2526 893.379 62.6064 892.949 62.6824C892.518 62.7585 892.367 63.2906 892.291 64.1269C892.164 65.394 894.062 72.9966 895.39 76.1643C895.538 76.6644 895.869 77.0901 896.317 77.3557C896.765 77.6213 897.297 77.7072 897.806 77.5961C899.223 77.216 900.475 75.29 900.07 71.8308C899.261 64.9379 895.251 55.9162 893.467 53.8381C893.228 53.4678 892.856 53.2027 892.429 53.0968C892.001 52.9909 891.549 53.0521 891.165 53.2679C889.9 54.0282 889.204 56.461 890.621 59.9835C890.652 60.0609 890.669 60.1437 890.668 60.2273C890.668 60.3109 890.651 60.3936 890.619 60.4707C890.586 60.5477 890.539 60.6177 890.48 60.6765C890.421 60.7353 890.35 60.7819 890.273 60.8135C890.196 60.8451 890.113 60.8612 890.03 60.8608C889.946 60.8604 889.864 60.8435 889.787 60.8111C889.71 60.7788 889.64 60.7316 889.581 60.6722C889.523 60.6128 889.476 60.5424 889.444 60.465C887.749 56.2203 888.761 53.2553 890.507 52.1909C891.146 51.8167 891.902 51.6937 892.626 51.8459C893.351 51.9981 893.993 52.4146 894.429 53.0145C896.579 55.5487 900.526 64.8872 901.323 71.6788C901.829 75.8982 900.058 78.3057 898.135 78.8252C897.873 78.8805 897.605 78.9018 897.338 78.8885Z" fill="#13161B"/>
<path d="M1133.31 182.904H1119.54V192.8H1133.31V182.904Z" fill="white"/>
<path d="M1133.31 193.434H1119.51C1119.34 193.434 1119.18 193.367 1119.06 193.248C1118.94 193.129 1118.88 192.968 1118.88 192.8V182.904C1118.88 182.736 1118.94 182.575 1119.06 182.456C1119.18 182.337 1119.34 182.271 1119.51 182.271H1133.29C1133.45 182.271 1133.61 182.337 1133.73 182.456C1133.85 182.575 1133.92 182.736 1133.92 182.904V192.8C1133.92 192.964 1133.86 193.121 1133.74 193.239C1133.63 193.357 1133.47 193.427 1133.31 193.434ZM1120.17 192.166H1132.68V183.538H1120.17V192.166Z" fill="#13161B"/>
<path d="M810.572 81.9043H774.443V118.092H810.572V81.9043Z" fill="white"/>
<path d="M810.572 118.726H774.443C774.277 118.722 774.118 118.655 774 118.537C773.882 118.418 773.814 118.259 773.811 118.092V81.9041C773.811 81.736 773.877 81.5749 773.996 81.4561C774.115 81.3373 774.276 81.2705 774.443 81.2705H810.572C810.739 81.2705 810.9 81.3373 811.019 81.4561C811.138 81.5749 811.204 81.736 811.204 81.9041V118.092C811.204 118.26 811.138 118.421 811.019 118.54C810.9 118.659 810.739 118.726 810.572 118.726ZM775.076 117.459H809.939V82.5376H775.076V117.459Z" fill="#13161B"/>
<path d="M804.449 90.5708H781.084C780.917 90.5708 780.756 90.5041 780.637 90.3852C780.519 90.2664 780.452 90.1053 780.452 89.9373C780.452 89.7692 780.519 89.6081 780.637 89.4893C780.756 89.3705 780.917 89.3037 781.084 89.3037H804.449C804.616 89.307 804.775 89.3747 804.893 89.4929C805.011 89.611 805.078 89.7702 805.081 89.9373C805.081 90.1053 805.015 90.2664 804.896 90.3852C804.778 90.5041 804.617 90.5708 804.449 90.5708Z" fill="#13161B"/>
<path d="M804.449 97.1216H781.084C780.917 97.1216 780.756 97.0548 780.637 96.936C780.519 96.8172 780.452 96.6561 780.452 96.488C780.452 96.32 780.519 96.1589 780.637 96.0401C780.756 95.9212 780.917 95.8545 781.084 95.8545H804.449C804.617 95.8545 804.778 95.9212 804.896 96.0401C805.015 96.1589 805.081 96.32 805.081 96.488C805.078 96.655 805.011 96.8143 804.893 96.9324C804.775 97.0506 804.616 97.1183 804.449 97.1216Z" fill="#13161B"/>
<path d="M804.449 103.648H781.084C780.917 103.648 780.756 103.581 780.637 103.462C780.519 103.344 780.452 103.182 780.452 103.014C780.452 102.846 780.519 102.685 780.637 102.566C780.756 102.448 780.917 102.381 781.084 102.381H804.449C804.616 102.384 804.775 102.452 804.893 102.57C805.011 102.688 805.078 102.847 805.081 103.014C805.081 103.182 805.015 103.344 804.896 103.462C804.778 103.581 804.617 103.648 804.449 103.648Z" fill="#13161B"/>
<path d="M797.593 110.186H781.148C781.065 110.189 780.982 110.176 780.904 110.148C780.826 110.119 780.754 110.075 780.693 110.019C780.632 109.962 780.583 109.894 780.548 109.818C780.513 109.743 780.493 109.661 780.49 109.578C780.49 109.41 780.557 109.249 780.675 109.13C780.794 109.011 780.955 108.944 781.122 108.944H797.567C797.735 108.944 797.896 109.011 798.015 109.13C798.133 109.249 798.2 109.41 798.2 109.578C798.194 109.737 798.128 109.888 798.015 110.001C797.903 110.114 797.752 110.18 797.593 110.186Z" fill="#13161B"/>
<g clip-path="url(#clip2_0_1)">
<path d="M375.018 70.3252C376.012 73.6478 377.319 76.8478 378.861 79.9544C379.249 80.731 380.844 80.1354 381.103 79.5164C382.139 77.0756 383.151 74.623 384.175 72.1763L381.921 72.6142C382.257 74.2668 382.586 75.9427 383.287 77.4843C383.575 78.115 383.875 78.7515 384.617 78.915C385.358 79.0785 386.3 78.7748 386.871 78.2551C387.407 77.7646 387.671 77.0405 387.966 76.3982C388.325 75.6215 388.666 74.8274 388.978 74.0332C389.614 72.4099 390.196 70.7281 390.561 69.0172C390.744 68.1588 388.519 68.5792 388.313 69.2974C387.566 71.861 386.783 74.3661 385.647 76.7953C385.517 77.0755 385.388 77.3675 385.229 77.6361C385.047 77.9339 384.911 77.8814 385.57 77.788C386.388 77.6653 386.041 77.8172 385.9 77.5485C385.612 77.0055 385.353 76.4682 385.147 75.8843C384.705 74.6288 384.44 73.3208 384.175 72.0186C384.093 71.5982 383.322 71.6741 383.051 71.7266C382.61 71.8142 382.11 72.0128 381.921 72.4566C380.897 74.9033 379.867 77.3442 378.861 79.7967L381.103 79.3588C379.514 76.2814 378.243 73.0464 377.231 69.7354C376.995 68.9704 374.794 69.5719 375.018 70.3252Z" fill="white"/>
<path d="M396.564 68.9766C394.658 70.3605 392.927 72.5211 392.462 74.8685C392.245 75.9605 392.362 77.1693 393.157 78.016C393.951 78.8627 395.081 79.108 396.152 79.1313C398.536 79.1897 401.055 78.0919 402.732 76.4335C404.127 75.0496 405.822 72.2875 404.198 70.4948C403.339 69.5488 401.95 69.2452 400.72 69.3328C399.083 69.4554 397.565 70.2145 396.2 71.0671C395.888 71.2656 395.552 71.6802 396.005 71.9255C396.459 72.1707 397.165 71.943 397.583 71.7211C398.948 70.9737 400.62 69.9284 401.985 71.289C403.274 72.5737 402.085 74.7576 401.09 75.8612C400.567 76.4394 399.884 76.9532 399.207 77.2919C398.53 77.6306 397.889 77.8408 397.182 77.8467C396.423 77.8467 395.693 77.6189 395.193 77.0291C394.605 76.3342 394.581 75.3591 394.758 74.5123C395.199 72.4277 396.682 70.5824 398.383 69.3445C398.783 69.0583 398.589 68.6379 398.165 68.5445C397.6 68.4218 397.006 68.6496 396.559 68.9707L396.564 68.9766Z" fill="white"/>
<path d="M406.811 70.8982C407.617 73.5902 408.577 76.2296 409.689 78.8165C410.013 79.5639 411.631 79.0559 411.949 78.5304C413.173 76.5158 414.192 74.3844 415.004 72.1771L412.75 72.7785C414.274 74.3727 415.086 79.5055 418.323 77.3391C421.278 75.3596 421.095 71.4939 422.808 68.7143C423.085 68.2647 422.567 68.072 422.196 68.0544C421.678 68.0311 421.025 68.2471 420.701 68.6676C419.671 70.0165 419.318 71.6924 418.823 73.2749C418.4 74.618 417.811 76.1128 416.528 76.8603L418.188 76.6442C417.281 76.218 416.84 75.3128 416.446 74.4544C416.028 73.5435 415.628 72.6092 414.921 71.8734C414.386 71.3128 412.908 71.8209 412.667 72.4749C411.896 74.5712 410.925 76.58 409.766 78.4895L412.026 78.2034C410.913 75.6223 409.954 72.9829 409.148 70.2851C408.906 69.4793 406.57 70.1099 406.805 70.9099L406.811 70.8982Z" fill="white"/>
<path d="M427.652 65.8004L426.533 72.0019C426.163 74.0457 425.639 76.1304 425.462 78.1975C425.38 79.126 427.528 78.6121 427.716 77.9172C428.264 75.9026 428.505 73.7654 428.876 71.7099L429.994 65.5085C430.153 64.6209 427.799 65.0063 427.652 65.8004Z" fill="white"/>
<path d="M425.374 84.9883C425.668 84.9707 425.957 84.8773 426.227 84.778C426.398 84.7138 426.563 84.632 426.71 84.5328C426.981 84.3518 427.24 84.1357 427.399 83.8437C427.51 83.6393 427.605 83.4233 427.61 83.1897C427.61 83.0554 427.616 82.9153 427.587 82.7868C427.558 82.6583 427.481 82.5357 427.41 82.4189L427.257 82.3138C427.146 82.2612 427.034 82.232 426.91 82.232C426.657 82.2029 426.41 82.232 426.163 82.2963C425.239 82.5299 424.279 83.1488 424.009 84.1007C423.956 84.2817 424.091 84.4277 424.238 84.5036C424.344 84.5503 424.456 84.5795 424.574 84.5853C424.709 84.6087 424.85 84.6087 424.986 84.5853C425.28 84.5445 425.592 84.4627 425.839 84.2992L426.045 84.1532C426.151 84.0656 426.227 83.9605 426.269 83.8262C426.286 83.7853 426.304 83.7445 426.322 83.7036L426.245 83.8671C426.322 83.7036 426.427 83.5518 426.551 83.4174L426.404 83.581C426.48 83.4934 426.569 83.4174 426.663 83.3532L426.451 83.505C426.528 83.4525 426.604 83.3999 426.692 83.3591L426.427 83.4934C426.498 83.4583 426.569 83.4291 426.645 83.3999L426.339 83.505C426.386 83.4875 426.433 83.4758 426.486 83.4642L425.156 83.1956C425.233 83.3299 425.268 83.4758 425.268 83.6277V83.4583C425.268 83.6101 425.233 83.762 425.168 83.8963L425.25 83.7269C425.203 83.8262 425.139 83.9196 425.068 84.0072L425.221 83.8379C425.174 83.8904 425.121 83.9372 425.068 83.978L425.286 83.8204C425.245 83.8496 425.197 83.8788 425.15 83.9021L425.415 83.7678C425.38 83.7853 425.345 83.8029 425.303 83.8145L425.615 83.7094C425.58 83.7211 425.551 83.7269 425.515 83.7386L425.839 83.6744C425.798 83.6802 425.757 83.6861 425.715 83.6919C425.551 83.7094 425.392 83.7503 425.239 83.8087C425.091 83.8496 424.95 83.9138 424.815 83.9956C424.697 84.0539 424.603 84.1357 424.521 84.235C424.444 84.305 424.391 84.3926 424.362 84.4919V84.6612C424.403 84.7839 424.485 84.8656 424.603 84.9182C424.85 85.0291 425.121 85.0174 425.386 84.9999L425.374 84.9883Z" fill="white"/>
</g>
<g clip-path="url(#clip3_0_1)">
<path d="M126.36 279.656C157.983 277.539 189.65 275.986 221.345 274.996C253.157 274.006 284.983 273.58 316.809 273.706C334.699 273.781 352.604 274.031 370.495 274.47L372.61 271.801C332.077 273.167 291.545 274.52 251.013 275.873L129.431 279.957L60.6794 282.249L58.6079 284.855C94.6059 283.402 130.633 282.65 166.66 282.563C202.687 282.487 238.729 283.089 274.741 284.379C294.906 285.106 315.056 286.033 335.192 287.185L336.597 284.592C306.799 286.408 277.001 288.05 247.189 289.54C217.362 291.019 187.506 292.321 157.664 293.461C140.817 294.1 123.969 294.689 107.122 295.228L105.731 297.796C135.703 294.889 165.82 293.06 195.966 292.359C226.097 291.645 256.271 292.033 286.374 293.511C303.264 294.338 320.141 295.528 336.974 297.044L338.379 294.451C303.829 296.543 269.28 298.46 234.702 300.113C200.123 301.767 165.994 303.17 131.618 304.26C112.163 304.886 92.6938 305.4 73.2244 305.813L71.8192 308.407C110.801 306.102 149.856 304.761 188.94 304.523C227.879 304.285 266.832 305.074 305.713 306.916C327.616 307.956 349.504 309.283 371.349 310.987C372.436 311.075 374.232 310.624 374.812 309.747C375.449 308.795 374.261 308.482 373.392 308.407C334.25 305.375 295.022 303.358 255.735 302.444C216.681 301.529 177.612 301.667 138.571 302.857C116.552 303.521 94.5335 304.511 72.558 305.863C71.6164 305.926 69.965 306.415 69.6028 307.267C69.2407 308.118 70.2982 308.482 71.1529 308.457C105.891 307.692 140.614 306.615 175.323 305.237C210.017 303.872 244.697 302.218 279.348 300.351C298.788 299.312 318.214 298.197 337.655 297.019C339.538 296.906 342.406 294.727 339.06 294.426C308.958 291.708 278.725 290.091 248.449 289.578C218.071 289.064 187.679 289.678 157.374 291.369C140.368 292.321 123.39 293.624 106.456 295.278C105.514 295.366 103.892 295.791 103.529 296.668C103.167 297.545 104.21 297.871 105.065 297.846C135.153 296.881 165.226 295.766 195.299 294.464C225.228 293.173 255.156 291.72 285.055 290.091C302.004 289.177 318.938 288.2 335.873 287.173C336.814 287.11 338.466 286.621 338.828 285.77C339.19 284.918 338.118 284.63 337.278 284.579C301.323 282.525 265.311 281.147 229.284 280.458C193.257 279.769 157.215 279.769 121.188 280.458C101.009 280.846 80.8441 281.448 60.6794 282.262C59.535 282.312 57.8111 282.55 57.1737 283.515C56.5798 284.404 57.6807 284.893 58.6223 284.868L180.19 280.821C220.708 279.468 261.24 278.115 301.758 276.775C324.675 276.011 347.578 275.259 370.495 274.495C371.668 274.457 373.435 274.194 374.087 273.217C374.739 272.24 373.551 271.852 372.61 271.839C340.682 271.025 308.726 270.812 276.784 271.163C244.842 271.526 212.929 272.453 181.03 273.944C163.039 274.783 145.061 275.81 127.098 277.013C126.157 277.076 124.114 277.639 123.955 278.629C123.796 279.706 125.534 279.706 126.331 279.656H126.36Z" fill="white"/>
</g>
</g>
<g clip-path="url(#clip4_0_1)">
<path d="M585.261 319.177L590.694 313.743L600.505 323.544L610.305 313.743L615.739 319.177L600.505 334.42L585.261 319.177Z" stroke="white" stroke-width="4" stroke-miterlimit="10"/>
<path d="M585.261 291.595L590.694 286.161L600.505 295.962L610.305 286.161L615.739 291.595L600.505 306.839L585.261 291.595Z" stroke="white" stroke-width="4" stroke-miterlimit="10"/>
<path d="M585.261 264.014L590.694 258.58L600.505 268.381L610.305 258.58L615.739 264.014L600.505 279.257L585.261 264.014Z" stroke="white" stroke-width="4" stroke-miterlimit="10"/>
</g>
<defs>
<clipPath id="clip0_0_1">
<rect width="1203" height="369" rx="16" fill="white"/>
</clipPath>
<clipPath id="clip1_0_1">
<rect width="190" height="225" fill="white" transform="translate(1072)"/>
</clipPath>
<clipPath id="clip2_0_1">
<rect width="55" height="20" fill="white" transform="translate(375 65)"/>
</clipPath>
<clipPath id="clip3_0_1">
<rect width="318" height="40" fill="white" transform="translate(57 271)"/>
</clipPath>
<clipPath id="clip4_0_1">
<rect width="79" height="79" fill="white" transform="translate(640 336) rotate(-180)"/>
</clipPath>
</defs>
</svg>
