<?xml version="1.0" standalone="no"?>
<!DOCTYPE svg PUBLIC "-//W3C//DTD SVG 20010904//EN"
 "http://www.w3.org/TR/2001/REC-SVG-20010904/DTD/svg10.dtd">
<svg version="1.0" xmlns="http://www.w3.org/2000/svg"
 width="760.000000pt" height="760.000000pt" viewBox="0 0 760.000000 760.000000"
 preserveAspectRatio="xMidYMid meet">
<metadata>
Created by potrace 1.14, written by Peter Selinger 2001-2017
</metadata>
<g transform="translate(0.000000,760.000000) scale(0.100000,-0.100000)"
fill="#000000" stroke="none">
<path d="M3770 7577 c-3 -3 -21 -9 -40 -12 -19 -3 -123 -26 -230 -50 -107 -24
-206 -46 -220 -49 -14 -3 -34 -7 -45 -10 -56 -13 -113 -25 -135 -30 -14 -2
-56 -12 -95 -21 -38 -9 -79 -19 -90 -21 -11 -2 -33 -7 -50 -10 -16 -4 -39 -8
-50 -10 -11 -2 -189 -42 -395 -89 -206 -47 -388 -87 -405 -90 -16 -2 -45 -9
-62 -14 -18 -5 -33 -8 -33 -5 0 3 -8 0 -17 -5 -10 -5 -31 -11 -48 -14 -16 -3
-52 -10 -80 -17 -27 -6 -59 -14 -70 -16 -11 -2 -60 -13 -110 -24 -49 -11 -103
-23 -119 -25 -15 -2 -36 -7 -46 -10 -18 -6 -39 -11 -89 -21 -12 -3 -53 -12
-90 -20 -36 -9 -77 -18 -91 -20 -14 -3 -54 -12 -90 -20 -36 -9 -72 -17 -80
-19 -8 -1 -80 -17 -160 -35 -80 -17 -152 -33 -160 -35 -8 -2 -67 -15 -130 -30
-63 -14 -126 -28 -140 -30 -14 -2 -26 -4 -27 -6 -4 -2 -20 -6 -33 -8 -16 -2
-14 -847 3 -849 18 -1 471 -158 496 -171 11 -7 21 -10 21 -7 0 3 49 -13 110
-34 60 -21 110 -36 110 -33 0 3 6 1 13 -4 9 -8 266 -98 307 -108 3 -1 12 -4
20 -8 8 -3 114 -39 235 -80 298 -101 280 -94 264 -115 -8 -9 -17 -19 -20 -22
-3 -3 -77 -111 -164 -240 -87 -129 -187 -275 -222 -325 -35 -49 -66 -97 -70
-105 -4 -8 -9 -17 -12 -20 -6 -5 -95 -136 -226 -330 -27 -41 -56 -81 -63 -88
-6 -7 -12 -17 -12 -22 0 -5 -6 -15 -13 -22 -11 -12 -114 -161 -147 -213 -41
-65 -95 -140 -102 -143 -4 -2 -8 -10 -8 -18 0 -8 -4 -14 -10 -14 -5 0 -10 -7
-10 -15 0 -8 -4 -15 -10 -15 -5 0 -10 -6 -10 -14 0 -8 -3 -16 -7 -18 -5 -1
-50 -66 -102 -143 -52 -77 -97 -142 -100 -145 -3 -3 -10 -13 -16 -22 -5 -10
-67 -102 -137 -206 l-128 -188 0 -455 0 -456 52 -33 c29 -18 77 -48 105 -66
29 -19 55 -34 58 -34 4 0 33 -18 65 -40 32 -22 64 -40 69 -40 6 0 11 -4 11 -8
0 -4 21 -19 47 -33 80 -42 83 -44 83 -51 0 -5 4 -8 10 -8 5 0 58 -31 117 -68
59 -37 115 -71 123 -75 8 -4 52 -31 97 -60 167 -106 284 -177 294 -177 5 0 9
-4 9 -8 0 -5 15 -16 33 -26 45 -24 80 -45 298 -181 106 -66 211 -131 233 -144
23 -13 43 -27 44 -32 2 -5 9 -9 15 -9 6 0 58 -30 116 -67 162 -101 204 -127
223 -138 10 -5 97 -59 194 -120 97 -60 193 -120 213 -131 67 -40 396 -243 406
-251 6 -4 65 -42 133 -83 67 -41 142 -87 165 -102 23 -15 51 -32 62 -38 29
-15 52 -29 129 -78 64 -41 70 -43 95 -30 14 7 31 17 36 21 18 14 117 77 121
77 2 0 32 18 67 40 172 110 336 212 375 232 23 12 42 26 42 30 0 4 6 8 13 8 7
0 22 8 33 18 10 9 33 24 49 32 17 8 32 17 35 20 3 3 64 41 135 85 72 43 132
83 133 87 2 4 7 8 12 8 5 0 44 23 87 50 43 28 86 53 96 56 9 4 17 10 17 15 0
5 5 9 11 9 10 0 115 64 144 88 6 5 15 11 21 13 9 4 230 139 327 201 23 15 60
38 82 51 22 13 76 46 120 73 44 26 82 51 85 54 5 5 419 262 470 291 14 8 27
16 30 19 4 5 262 166 325 203 11 7 35 22 53 35 17 13 32 19 32 15 0 -4 4 -3 8
2 4 6 50 37 102 69 126 78 169 105 202 128 15 10 32 18 38 18 5 0 10 5 10 10
0 6 4 10 10 10 5 0 34 16 64 35 29 19 56 31 60 28 3 -4 6 194 6 440 l0 445
-37 12 c-21 6 -47 16 -58 21 -11 5 -40 15 -65 23 -25 7 -103 35 -175 61 -71
25 -170 60 -220 77 -49 16 -104 36 -122 44 -17 8 -34 14 -39 14 -7 0 -189 63
-229 80 -11 5 -88 32 -172 61 l-152 53 46 85 c58 107 120 224 171 321 22 41
53 100 69 130 72 132 164 304 240 450 39 73 128 240 168 315 18 33 51 95 74
138 63 118 115 215 156 292 21 39 58 108 83 155 68 129 126 239 160 300 16 30
46 86 66 124 l36 69 0 468 0 467 -72 17 c-97 22 -92 21 -178 40 -86 19 -81 18
-179 40 -40 9 -78 18 -85 19 -58 12 -137 29 -161 36 -16 5 -43 11 -60 14 -27
5 -116 24 -140 30 -5 1 -37 9 -70 16 -33 8 -62 14 -65 15 -3 1 -23 5 -45 9
-22 5 -65 14 -95 21 -30 8 -66 16 -80 19 -32 6 -208 45 -265 59 -11 3 -56 12
-100 21 -44 10 -127 28 -185 42 -58 14 -114 27 -125 29 -11 2 -54 10 -95 20
-41 9 -85 18 -97 21 -12 2 -33 8 -47 14 -13 5 -26 7 -29 4 -2 -2 -15 0 -29 5
-14 5 -42 12 -62 15 -21 4 -41 8 -45 10 -3 2 -22 7 -41 10 -40 6 -57 10 -120
25 -25 5 -74 17 -110 25 -36 8 -80 18 -99 21 -19 3 -41 9 -50 14 -9 4 -23 7
-31 6 -8 -1 -32 5 -52 12 -21 6 -38 10 -38 8 0 -2 -22 3 -50 10 -27 7 -50 11
-50 9 0 -2 -11 1 -26 6 -23 9 -49 15 -109 26 -11 2 -81 17 -155 34 -74 18
-144 34 -155 36 -42 10 -110 16 -115 11z m109 -852 c9 -2 16 -4 16 -5 0 -2 25
-8 60 -15 11 -2 67 -15 125 -29 115 -29 152 -37 160 -38 3 0 15 -4 28 -9 13
-5 37 -11 55 -14 18 -3 46 -10 62 -15 25 -8 574 -144 625 -155 8 -2 44 -11 80
-20 36 -9 73 -18 82 -20 36 -7 234 -57 248 -62 8 -3 22 -7 30 -8 8 -1 39 -8
68 -15 l53 -14 -48 -13 c-27 -8 -55 -15 -63 -16 -8 -2 -40 -11 -71 -20 -31
-10 -66 -20 -78 -22 -34 -8 -54 -13 -91 -25 -46 -15 -169 -49 -196 -55 -11 -3
-92 -25 -180 -51 -173 -49 -166 -47 -209 -59 -16 -4 -86 -23 -155 -42 -69 -19
-132 -37 -140 -38 -8 -2 -15 -4 -15 -5 0 -1 -7 -3 -15 -5 -8 -2 -40 -10 -70
-19 -30 -8 -98 -26 -150 -41 -52 -14 -106 -30 -120 -35 -14 -5 -36 -11 -50
-14 -14 -2 -38 -9 -53 -15 -49 -19 -78 -14 -292 47 -115 33 -230 65 -253 72
-30 8 -42 15 -38 25 8 21 159 240 168 243 4 2 8 8 8 12 0 8 76 124 101 154 5
6 35 49 66 96 182 273 173 262 205 254 17 -3 38 -8 47 -9z m-1221 -233 c-19
-26 -74 -104 -122 -175 -48 -70 -90 -125 -94 -123 -7 4 -177 52 -417 118 -60
16 -116 34 -125 39 -12 8 -10 9 7 6 13 -3 25 -2 28 3 4 6 32 13 92 21 5 1 18
5 31 10 12 5 33 11 45 13 35 8 56 13 147 35 47 12 94 23 105 25 26 6 144 35
225 55 36 9 75 18 88 19 23 2 23 1 -10 -46z m2727 -1091 c-9 -9 -310 -222
-428 -303 -27 -18 -54 -38 -60 -43 -7 -6 -23 -18 -37 -28 -14 -9 -53 -36 -87
-59 -34 -24 -157 -111 -275 -194 -117 -83 -228 -159 -245 -169 -18 -11 -33
-22 -33 -26 0 -4 -19 -18 -42 -32 -24 -14 -52 -33 -63 -42 -11 -9 -65 -47
-120 -86 -55 -38 -107 -75 -116 -82 -8 -6 -22 -16 -31 -22 -8 -5 -26 -18 -40
-28 -22 -15 -148 -61 -588 -212 -85 -30 -239 -83 -342 -119 -104 -36 -188 -61
-188 -56 0 6 4 10 8 10 5 0 27 17 49 38 35 32 84 75 173 151 14 12 39 34 55
49 17 15 59 52 95 82 36 30 67 58 70 61 5 6 60 54 169 148 29 25 61 53 70 61
14 14 114 101 195 170 16 14 44 39 62 55 18 17 56 50 85 75 30 25 63 55 75 68
17 18 187 83 324 123 3 1 10 3 15 5 6 2 89 29 185 59 96 31 236 77 310 102 74
25 140 46 145 47 6 1 55 17 110 36 55 19 102 35 105 35 3 1 39 12 80 25 41 13
78 25 83 26 4 1 9 3 12 4 3 1 8 3 13 5 4 1 14 4 22 8 27 10 95 30 98 28 1 -1
16 6 32 14 17 9 30 12 30 8 0 -4 5 -2 12 5 7 7 14 12 17 12 3 0 1 -4 -4 -9z
m318 -723 c-25 -46 -64 -117 -86 -158 -22 -41 -45 -78 -51 -82 -6 -4 -7 -8 -2
-8 5 0 4 -6 -1 -12 -9 -12 -23 -37 -104 -185 -18 -32 -40 -71 -49 -88 -10 -16
-33 -59 -52 -95 -20 -36 -50 -92 -68 -125 -19 -33 -43 -78 -55 -100 -22 -40
-42 -47 -85 -28 -8 3 -18 7 -22 8 -5 2 -9 3 -10 5 -2 1 -10 3 -18 5 -8 2 -53
18 -100 35 -47 17 -134 49 -195 70 -60 21 -120 42 -132 47 -21 8 -16 13 59 68
45 33 87 62 93 64 5 2 12 7 15 11 3 3 86 64 185 135 99 71 182 132 185 135 3
3 28 21 55 40 28 19 52 38 53 42 2 4 8 8 13 8 5 0 28 15 52 33 24 17 63 46 86
62 23 17 54 40 69 52 15 13 29 23 32 23 3 0 41 27 85 60 44 33 83 60 87 60 4
0 -14 -37 -39 -82z m-1817 -1199 c44 -17 88 -34 99 -39 11 -5 151 -59 310
-120 160 -61 304 -117 320 -124 17 -7 74 -30 127 -50 106 -41 105 -38 63 -106
-12 -19 -41 -71 -64 -115 -43 -80 -71 -130 -120 -215 -14 -25 -26 -51 -27 -57
-1 -7 -9 -20 -18 -29 -9 -8 -16 -19 -16 -23 0 -4 -26 -54 -58 -112 -32 -57
-74 -133 -94 -169 -19 -36 -75 -137 -123 -225 -48 -88 -101 -185 -118 -215
-16 -30 -50 -93 -76 -139 -56 -101 -84 -151 -140 -256 -24 -44 -51 -93 -61
-110 -9 -16 -32 -57 -50 -90 -19 -33 -35 -62 -37 -64 -1 -2 -8 1 -15 6 -7 6
-69 39 -138 75 -69 36 -174 92 -235 124 -190 101 -267 141 -370 195 -55 28
-104 55 -110 59 -5 4 -71 39 -145 77 -74 39 -171 90 -215 113 -44 23 -126 67
-182 97 -57 29 -104 53 -107 51 -2 -2 -12 4 -22 13 -11 8 -53 33 -94 54 -87
44 -182 94 -330 173 -58 31 -144 77 -191 102 -90 47 -218 114 -247 130 -9 4
-34 18 -55 30 l-38 23 148 56 c81 32 157 61 168 66 11 4 25 9 30 10 6 2 51 20
100 40 50 20 97 38 105 40 8 1 31 10 50 19 19 9 159 63 310 121 151 58 284
110 295 115 11 5 63 25 115 45 52 20 104 40 115 45 25 11 57 20 69 19 5 0 12
3 15 8 3 5 56 27 116 50 106 40 276 106 640 248 94 37 181 71 195 75 14 5 26
9 26 9 1 1 37 -13 80 -30z m1904 -739 c74 -28 162 -62 195 -75 99 -39 339
-131 359 -139 19 -6 18 -7 -2 -26 -12 -11 -28 -20 -37 -20 -8 0 -15 -4 -15 -8
0 -4 -19 -18 -42 -30 -84 -44 -123 -67 -126 -74 -2 -5 -7 -8 -11 -8 -5 0 -46
-22 -92 -50 -46 -27 -106 -61 -134 -76 -27 -15 -51 -30 -53 -35 -2 -5 -8 -9
-13 -9 -7 0 -125 -67 -229 -130 -43 -26 -190 -110 -220 -126 -19 -11 -37 -22
-40 -25 -3 -3 -21 -14 -40 -24 -19 -9 -43 -24 -52 -33 -10 -8 -18 -12 -18 -8
0 3 -24 -9 -52 -29 -29 -19 -56 -35 -60 -35 -7 0 11 50 22 60 3 3 19 32 35 65
17 33 46 89 66 125 20 36 62 115 94 175 32 61 73 138 91 173 65 119 101 187
135 252 18 36 37 68 42 71 5 3 7 8 6 10 -5 7 44 88 50 85 3 -2 67 -27 141 -56z"/>
</g>
</svg>
