<?xml version="1.0" standalone="no"?>
<!DOCTYPE svg PUBLIC "-//W3C//DTD SVG 20010904//EN"
 "http://www.w3.org/TR/2001/REC-SVG-20010904/DTD/svg10.dtd">
<svg version="1.0" xmlns="http://www.w3.org/2000/svg"
 width="1364.000000pt" height="1364.000000pt" viewBox="0 0 1364.000000 1364.000000"
 preserveAspectRatio="xMidYMid meet">
<metadata>
Created by potrace 1.14, written by Peter Selinger 2001-2017
</metadata>
<g transform="translate(0.000000,1364.000000) scale(0.100000,-0.100000)"
fill="#000000" stroke="none">
<path d="M8396 10642 c-2 -2 -40 -5 -83 -7 -73 -4 -124 -8 -233 -21 -25 -3
-61 -7 -80 -9 -45 -5 -102 -13 -165 -25 -27 -5 -66 -12 -85 -15 -37 -6 -69
-12 -110 -21 -14 -3 -34 -7 -45 -9 -11 -2 -58 -13 -105 -25 -47 -12 -92 -23
-100 -25 -8 -2 -40 -10 -70 -19 -30 -9 -57 -16 -60 -15 -3 0 -30 -9 -60 -21
-30 -12 -55 -21 -55 -20 0 1 -13 -3 -28 -9 -15 -6 -40 -14 -55 -17 -15 -4 -32
-11 -38 -15 -6 -5 -19 -10 -30 -12 -23 -5 -20 -4 -199 -79 -77 -33 -164 -73
-194 -89 -30 -16 -60 -29 -67 -29 -7 0 -14 -3 -16 -7 -1 -5 -41 -28 -88 -52
-47 -24 -88 -48 -91 -53 -3 -5 -9 -9 -13 -9 -3 1 -52 -27 -107 -61 -55 -35
-109 -67 -120 -73 -10 -5 -19 -13 -19 -17 0 -5 -7 -8 -15 -8 -8 0 -15 -4 -15
-8 0 -4 -15 -16 -32 -27 -29 -16 -110 -74 -158 -112 -137 -108 -196 -156 -200
-162 -3 -3 -32 -29 -65 -56 -61 -51 -357 -344 -430 -425 -22 -25 -65 -74 -95
-110 -30 -36 -59 -70 -65 -76 -5 -6 -21 -26 -35 -44 -14 -18 -33 -42 -42 -54
-10 -11 -21 -25 -26 -31 -4 -5 -31 -41 -60 -80 -28 -38 -55 -75 -60 -80 -10
-13 -61 -83 -82 -115 -8 -12 -21 -28 -27 -36 -7 -7 -13 -15 -13 -18 0 -8 -64
-101 -72 -104 -5 -2 -8 -8 -8 -13 0 -9 -89 -151 -109 -175 -26 -31 -66 -131
-79 -194 -3 -19 -6 -73 -6 -120 1 -180 91 -344 244 -444 103 -69 175 -90 305
-90 118 0 182 16 280 71 40 22 139 112 171 155 17 22 64 112 64 121 0 5 10 23
23 40 24 35 33 49 59 95 20 34 178 264 187 272 3 3 28 34 55 70 165 217 419
473 636 643 38 30 98 74 125 93 16 11 53 36 81 56 44 31 166 107 259 161 58
33 311 154 390 187 44 18 88 37 99 42 10 5 26 11 35 13 9 2 50 16 91 30 41 15
82 28 90 30 8 2 29 8 45 14 42 14 137 43 155 46 8 2 33 8 55 13 22 6 51 13 65
16 14 3 72 15 130 26 58 12 119 23 135 26 17 2 41 6 55 8 31 6 115 16 178 21
26 2 47 4 47 5 0 4 141 8 295 9 171 0 249 -3 340 -13 25 -3 70 -8 100 -11 30
-4 66 -8 80 -10 61 -9 97 -15 120 -20 44 -9 124 -25 150 -31 14 -3 38 -7 53
-10 16 -3 46 -12 68 -19 21 -8 39 -12 39 -10 0 2 18 -2 41 -10 23 -8 45 -12
50 -9 5 3 9 0 9 -5 0 -6 7 -11 16 -11 15 0 120 -31 169 -50 37 -15 60 -23 70
-25 80 -19 438 -184 578 -267 26 -15 50 -28 52 -28 10 0 240 -153 243 -161 2
-5 8 -9 13 -9 8 0 80 -51 99 -70 3 -3 34 -27 70 -55 69 -53 103 -82 181 -155
119 -113 159 -152 224 -226 39 -43 82 -92 98 -108 15 -16 27 -32 27 -35 0 -3
14 -21 30 -39 38 -44 61 -73 120 -157 106 -148 150 -215 150 -226 0 -5 5 -9
11 -9 5 0 8 -4 5 -9 -4 -5 -3 -11 2 -13 9 -4 122 -195 122 -207 0 -5 7 -14 15
-21 8 -6 14 -15 14 -18 -2 -16 14 -52 23 -52 5 0 6 -4 3 -10 -3 -5 -1 -10 4
-10 6 0 10 -3 9 -7 0 -5 16 -44 36 -88 44 -92 126 -290 131 -314 2 -9 12 -41
24 -71 61 -164 136 -485 156 -665 2 -16 6 -52 9 -80 16 -127 19 -205 20 -400
0 -190 -7 -355 -19 -410 -2 -11 -7 -45 -9 -75 -3 -30 -8 -66 -10 -80 -3 -14
-7 -43 -10 -65 -2 -22 -9 -62 -15 -90 -6 -27 -13 -63 -15 -80 -7 -44 -46 -207
-51 -215 -2 -4 -7 -22 -10 -40 -7 -43 -62 -206 -81 -242 -8 -16 -12 -28 -9
-28 3 0 -6 -22 -20 -50 -14 -27 -22 -50 -19 -50 4 0 2 -6 -3 -12 -6 -7 -30
-58 -53 -113 -23 -55 -50 -116 -58 -135 -9 -19 -16 -37 -17 -40 -1 -3 -14 -31
-28 -63 -15 -32 -27 -63 -27 -71 0 -7 -3 -16 -7 -20 -4 -3 -8 -12 -9 -19 -2
-7 -5 -23 -9 -37 -7 -33 -7 -157 0 -195 8 -40 38 -139 45 -145 3 -3 14 -21 25
-41 60 -108 175 -203 297 -243 142 -48 303 -36 428 30 73 39 82 46 148 113 52
53 74 87 121 185 68 142 80 169 116 256 15 36 33 79 40 95 28 62 147 397 160
450 1 6 5 17 8 25 7 16 56 199 62 228 1 9 8 35 13 57 6 22 14 54 17 70 3 17 8
41 11 55 3 14 7 32 9 40 3 8 7 33 10 55 4 22 8 48 11 57 3 10 7 28 9 40 3 22
16 107 20 138 1 8 6 47 9 85 4 39 9 81 11 95 19 121 26 571 11 760 -15 184
-14 176 -31 285 -6 37 -16 111 -20 145 -2 14 -4 25 -5 25 -1 0 -3 11 -6 25 -2
14 -14 70 -25 125 -12 55 -23 109 -25 120 -5 29 -52 200 -73 270 -11 33 -21
69 -24 80 -11 41 -117 330 -147 400 -103 238 -220 478 -310 637 -22 38 -40 74
-40 79 0 5 -4 9 -10 9 -5 0 -10 4 -10 10 0 11 -131 222 -199 320 -103 150
-214 295 -336 439 -143 170 -378 399 -565 551 -21 17 -49 40 -62 51 -13 10
-27 22 -33 27 -27 22 -201 144 -226 159 -16 10 -29 21 -29 25 0 4 -5 8 -10 8
-6 0 -41 20 -78 44 -133 87 -514 287 -592 311 -3 1 -23 9 -45 19 -22 10 -58
24 -80 32 -22 8 -49 18 -60 23 -26 11 -88 36 -95 36 -3 1 -57 18 -120 39 -63
21 -122 39 -130 41 -8 2 -47 13 -85 24 -73 20 -121 32 -142 33 -7 1 -13 5 -13
10 0 5 -4 7 -9 4 -4 -3 -23 -1 -42 5 -19 5 -47 12 -64 14 -16 3 -55 10 -85 16
-30 7 -62 13 -70 14 -8 1 -31 5 -50 9 -60 11 -93 16 -140 21 -25 3 -56 8 -70
10 -42 8 -102 15 -160 20 -30 3 -72 7 -94 9 -126 16 -798 31 -810 18z"/>
<path d="M978 10464 c-2 -1 -16 -5 -31 -8 -95 -17 -196 -71 -278 -148 -26 -25
-109 -140 -109 -151 0 -4 -11 -31 -25 -62 -14 -30 -36 -79 -49 -107 -62 -138
-183 -464 -231 -618 -9 -30 -19 -62 -21 -70 -3 -8 -5 -16 -5 -17 0 -2 -6 -21
-14 -44 -9 -23 -17 -51 -20 -63 -2 -12 -11 -46 -20 -76 -8 -30 -18 -71 -21
-90 -3 -19 -10 -43 -15 -52 -5 -10 -7 -18 -3 -18 3 0 1 -6 -5 -13 -6 -8 -9
-16 -6 -18 2 -3 -1 -25 -6 -49 -14 -61 -18 -80 -24 -115 -3 -16 -8 -37 -10
-45 -2 -8 -7 -33 -10 -55 -2 -22 -7 -51 -10 -65 -2 -13 -7 -42 -10 -65 -4 -22
-8 -53 -11 -69 -3 -16 -7 -54 -10 -85 -2 -31 -7 -72 -9 -91 -22 -192 -26 -830
-5 -830 3 0 5 -14 4 -31 0 -16 2 -51 6 -77 4 -26 11 -76 14 -112 4 -36 11 -83
16 -105 5 -22 11 -56 14 -75 6 -36 7 -44 27 -140 9 -44 35 -149 63 -255 39
-147 140 -436 198 -565 11 -25 27 -61 35 -80 46 -105 203 -408 249 -482 13
-21 24 -42 24 -48 0 -5 4 -10 9 -10 5 0 14 -13 21 -30 7 -16 16 -30 21 -30 5
0 9 -6 9 -13 0 -7 27 -53 60 -101 33 -49 60 -92 60 -97 0 -5 4 -9 8 -9 5 0 15
-12 23 -27 8 -16 22 -35 31 -44 10 -9 18 -20 18 -24 0 -7 210 -284 239 -315 9
-9 34 -39 56 -65 130 -156 289 -323 447 -470 67 -61 100 -91 183 -163 18 -15
114 -93 155 -125 43 -34 100 -76 145 -106 28 -19 52 -37 55 -41 3 -3 30 -21
60 -39 30 -19 57 -36 60 -40 3 -3 15 -12 27 -18 13 -7 33 -19 45 -25 13 -7 25
-16 28 -19 26 -28 535 -289 565 -289 2 0 28 -11 57 -24 29 -13 78 -31 108 -41
30 -10 60 -21 65 -25 8 -5 26 -11 105 -35 3 -1 12 -5 20 -8 8 -3 65 -20 125
-37 61 -16 126 -35 145 -40 19 -6 46 -12 60 -15 14 -2 41 -8 60 -13 19 -5 38
-9 43 -10 4 -1 8 -2 10 -3 10 -3 38 -8 72 -14 22 -3 51 -8 65 -11 71 -14 201
-34 265 -40 28 -3 66 -7 85 -10 66 -8 215 -17 307 -18 51 -1 93 -3 93 -6 0 -7
387 3 530 15 90 7 263 25 301 31 15 2 44 6 65 9 22 3 48 7 60 9 12 2 45 7 75
11 30 3 61 8 69 10 8 2 31 7 50 10 19 3 53 10 75 15 22 5 56 12 75 15 19 3 50
10 68 15 17 4 32 6 32 3 0 -3 7 0 15 7 8 7 15 10 15 7 0 -10 240 57 415 115
50 17 95 31 100 33 6 1 21 6 35 12 14 6 43 16 65 24 22 8 42 16 45 19 3 3 23
11 45 19 40 14 124 51 221 97 28 13 56 24 62 24 7 0 12 5 12 10 0 6 6 10 13
10 6 0 80 38 162 83 188 104 199 111 205 117 3 3 39 27 80 53 41 26 84 54 95
62 11 8 58 43 105 77 86 62 194 147 297 235 76 64 407 394 463 462 25 30 55
64 68 77 12 13 22 28 22 34 0 5 3 10 8 10 4 0 27 26 52 57 24 32 48 63 53 68
5 6 40 53 78 105 38 52 72 100 76 105 5 6 26 37 48 70 22 33 43 62 47 63 5 2
8 8 8 12 0 5 11 26 25 47 14 21 30 45 35 53 5 8 20 31 32 50 13 19 29 46 36
60 7 14 23 43 37 65 14 22 31 51 38 65 6 14 14 27 17 30 4 3 17 39 30 80 28
87 33 239 10 300 -1 3 -3 10 -4 15 -7 36 -76 175 -88 175 -4 0 -8 5 -8 12 0
15 -111 118 -127 118 -7 0 -13 4 -13 8 0 13 -110 62 -174 77 -79 18 -216 11
-288 -14 -31 -10 -59 -17 -62 -14 -3 4 -6 1 -6 -5 0 -7 -5 -12 -11 -12 -20 0
-104 -63 -154 -115 -51 -54 -82 -96 -92 -127 -3 -10 -9 -18 -14 -18 -5 0 -9
-7 -9 -15 0 -8 -4 -15 -10 -15 -5 0 -10 -5 -10 -10 0 -6 -23 -47 -50 -91 -28
-44 -50 -83 -50 -85 0 -3 -8 -17 -19 -32 -10 -15 -37 -56 -60 -92 -48 -76 -47
-76 -109 -161 -26 -37 -74 -97 -106 -135 -57 -66 -368 -377 -418 -419 -13 -11
-49 -40 -79 -65 -30 -24 -61 -50 -69 -58 -34 -30 -220 -162 -229 -162 -5 0
-11 -4 -13 -9 -3 -8 -263 -171 -272 -171 -2 0 -32 -16 -65 -34 -34 -19 -61
-32 -61 -29 0 3 -9 -2 -21 -13 -12 -10 -24 -19 -28 -18 -3 0 -35 -12 -71 -28
-152 -69 -416 -165 -520 -189 -19 -4 -71 -17 -115 -29 -44 -11 -96 -23 -115
-26 -19 -3 -38 -8 -41 -9 -3 -2 -28 -7 -55 -11 -27 -3 -51 -8 -54 -9 -5 -3
-82 -14 -150 -20 -14 -2 -25 -4 -25 -5 0 -2 -15 -3 -113 -11 -24 -2 -45 -6
-47 -9 -4 -7 -637 -5 -685 3 -19 3 -66 8 -105 11 -38 4 -77 9 -85 11 -8 2 -35
6 -60 9 -25 3 -56 8 -70 11 -14 3 -52 10 -85 16 -67 12 -248 57 -340 85 -33
10 -62 19 -65 19 -3 1 -12 4 -20 8 -8 3 -53 19 -100 35 -47 17 -111 42 -144
56 -32 14 -65 26 -72 26 -8 0 -14 5 -14 10 0 6 -6 10 -14 10 -19 0 -330 159
-334 171 -2 5 -9 9 -16 9 -6 0 -53 27 -104 60 -51 33 -97 60 -102 60 -4 0 -10
4 -12 8 -1 4 -43 37 -93 72 -235 168 -522 427 -675 610 -29 36 -59 70 -64 75
-38 35 -246 327 -246 344 0 5 -4 11 -8 13 -14 5 -138 221 -195 341 -83 171
-100 210 -173 402 -4 11 -8 22 -9 25 0 3 -15 48 -32 100 -37 112 -73 234 -80
270 -2 14 -10 50 -18 80 -16 63 -44 208 -51 260 -4 36 -10 75 -19 133 -19 117
-29 624 -14 664 5 15 5 23 -2 23 -6 0 -8 4 -5 8 2 4 7 32 11 62 3 30 8 71 10
91 3 20 8 54 10 75 5 42 9 67 20 128 4 21 8 50 10 65 2 14 4 26 5 26 1 0 3 7
5 15 3 18 28 133 30 140 27 104 87 303 94 315 3 6 6 16 7 22 2 12 38 109 65
178 7 17 13 32 14 35 13 40 112 266 145 331 74 147 89 275 52 421 -12 46 -65
158 -74 158 -5 0 -8 5 -8 11 0 6 -7 17 -15 25 -8 8 -20 23 -27 32 -40 54 -158
127 -253 157 -51 16 -226 30 -237 19z"/>
<path d="M2850 9445 c-30 -6 -66 -17 -80 -25 -14 -7 -27 -13 -30 -13 -26 2
-139 -77 -188 -131 -58 -65 -89 -124 -167 -324 -43 -108 -82 -206 -86 -217 -5
-11 -11 -29 -14 -40 -2 -11 -9 -36 -15 -55 -29 -90 -85 -332 -96 -415 -1 -11
-5 -35 -8 -53 -4 -19 -9 -57 -12 -85 -3 -29 -8 -79 -12 -112 -9 -80 -8 -467 1
-530 4 -27 10 -70 12 -95 3 -25 8 -57 10 -72 3 -16 7 -43 10 -60 3 -18 8 -41
11 -51 3 -11 8 -29 10 -40 5 -34 21 -98 32 -135 6 -18 11 -36 11 -40 1 -12 31
-102 58 -177 26 -71 39 -103 89 -210 15 -33 26 -63 26 -67 -1 -5 2 -8 8 -8 5
0 10 -5 10 -11 0 -12 73 -146 110 -204 11 -16 23 -37 27 -45 10 -23 47 -75 56
-78 4 -2 7 -10 7 -18 0 -8 5 -14 10 -14 6 0 10 -5 10 -10 0 -13 113 -161 189
-249 90 -105 233 -242 321 -311 25 -19 47 -37 50 -40 33 -39 469 -290 504
-290 4 0 22 -6 39 -14 36 -16 144 -56 167 -62 8 -2 63 -17 123 -33 59 -16 110
-30 112 -30 3 0 18 -2 33 -5 34 -7 72 -13 131 -22 25 -4 55 -8 66 -10 135 -26
589 -25 753 0 18 3 50 8 70 11 38 5 49 7 137 26 28 6 57 12 65 14 8 1 22 5 30
7 8 3 44 14 80 24 36 9 70 20 75 23 6 3 18 7 28 8 26 4 290 112 301 124 6 5
18 9 27 9 9 0 22 7 29 15 7 8 21 15 31 15 11 0 19 3 19 8 0 4 19 16 43 27 23
11 65 34 94 52 29 18 56 33 62 33 5 0 11 3 13 8 2 4 50 39 107 77 58 39 109
75 115 80 6 6 31 26 56 45 25 19 50 39 56 45 6 5 33 28 60 50 123 100 265 254
432 470 33 43 102 152 167 265 67 116 102 171 175 274 8 11 22 28 30 37 8 8
38 42 65 74 47 55 112 120 180 180 35 31 200 154 235 175 106 62 176 100 187
100 7 0 13 5 13 10 0 6 8 10 18 10 10 0 26 6 37 13 20 14 105 47 128 51 6 1
17 4 22 7 6 4 24 10 40 14 17 5 32 9 35 10 49 15 96 27 136 35 27 5 60 12 74
15 14 3 43 7 65 10 22 2 63 7 90 10 136 17 403 4 465 -22 8 -3 17 -7 20 -8 3
0 30 -7 60 -14 30 -8 61 -19 69 -25 8 -6 16 -10 17 -9 13 6 249 -106 264 -125
9 -13 69 -52 79 -52 5 0 11 -3 13 -7 2 -5 32 -33 68 -63 36 -30 87 -77 113
-105 61 -62 177 -209 177 -223 0 -6 3 -12 8 -14 11 -5 39 -54 97 -173 65 -132
128 -315 140 -403 2 -15 6 -34 9 -42 36 -102 40 -530 6 -650 -5 -17 -9 -34
-10 -38 -5 -33 -43 -167 -57 -202 -3 -8 -7 -17 -8 -20 -1 -3 -5 -13 -8 -22 -4
-10 -10 -26 -14 -35 -3 -10 -7 -20 -8 -23 -1 -3 -9 -22 -18 -42 -35 -78 -47
-108 -46 -114 0 -4 -4 -10 -11 -14 -6 -4 -12 -13 -14 -21 -1 -8 -8 -25 -16
-39 -7 -14 -13 -26 -12 -27 1 -2 2 -4 1 -5 -47 -155 -20 -339 68 -473 69 -104
229 -218 322 -230 17 -2 35 -6 41 -10 12 -8 152 -7 195 0 47 9 127 36 165 58
119 66 190 147 268 309 43 88 101 222 117 268 1 3 5 14 9 25 18 48 61 188 71
234 26 113 56 275 61 320 3 31 7 72 10 91 15 119 20 398 10 570 -3 47 -6 85
-6 85 -3 0 -10 44 -15 99 -3 32 -7 68 -10 80 -3 11 -7 35 -10 51 -37 197 -103
411 -180 586 -48 108 -142 290 -154 299 -4 3 -10 13 -14 22 -9 25 -109 172
-119 176 -4 2 -8 8 -8 13 0 12 -139 185 -208 261 -119 129 -234 236 -347 320
-5 4 -23 18 -40 31 -134 104 -397 245 -560 302 -27 9 -59 21 -70 26 -55 23
-272 77 -385 94 -25 4 -56 9 -70 12 -14 2 -51 5 -82 8 -31 2 -61 6 -65 8 -11
7 -495 1 -553 -6 -25 -3 -65 -9 -90 -12 -107 -13 -135 -17 -143 -22 -4 -2 -22
-6 -40 -9 -34 -4 -50 -7 -112 -24 -22 -6 -51 -13 -65 -16 -27 -5 -86 -22 -110
-31 -8 -3 -19 -7 -25 -8 -60 -14 -391 -154 -425 -180 -8 -7 -35 -22 -60 -34
-88 -45 -291 -181 -395 -266 -27 -22 -58 -47 -69 -55 -62 -49 -275 -260 -347
-345 -19 -21 -41 -46 -49 -55 -35 -35 -152 -192 -214 -285 -36 -55 -71 -105
-76 -112 -6 -7 -10 -15 -10 -19 0 -3 -13 -26 -30 -51 -16 -24 -30 -46 -30 -48
0 -8 -89 -136 -134 -193 -60 -76 -211 -231 -281 -287 -33 -26 -62 -51 -65 -54
-7 -8 -145 -98 -188 -123 -95 -54 -164 -87 -247 -120 -197 -78 -393 -120 -567
-122 -38 -1 -68 -5 -68 -9 0 -5 -4 -6 -10 -2 -5 3 -48 8 -95 10 -121 6 -319
44 -390 75 -11 4 -51 20 -90 35 -81 31 -225 110 -305 168 -72 52 -238 220
-276 277 -16 25 -31 47 -34 50 -10 10 -108 181 -126 220 -6 14 -25 55 -42 92
-33 70 -98 257 -107 305 -2 15 -7 39 -10 53 -3 14 -8 41 -11 60 -3 19 -8 46
-10 60 -12 57 -14 92 -14 225 -1 139 2 178 14 245 3 19 8 46 10 60 13 79 18
108 27 130 5 14 11 36 13 50 3 14 5 26 7 28 1 1 2 5 3 10 17 66 92 261 142
369 13 28 24 57 24 62 0 6 5 11 11 11 6 0 9 7 6 15 -4 8 -2 17 2 20 12 7 23
92 23 171 0 230 -159 440 -395 519 -60 20 -195 25 -267 10z"/>
</g>
</svg>
