<?xml version="1.0" standalone="no"?>
<!DOCTYPE svg PUBLIC "-//W3C//DTD SVG 20010904//EN"
 "http://www.w3.org/TR/2001/REC-SVG-20010904/DTD/svg10.dtd">
<svg version="1.0" xmlns="http://www.w3.org/2000/svg"
 width="157.000000pt" height="157.000000pt" viewBox="0 0 157.000000 157.000000"
 preserveAspectRatio="xMidYMid meet">
<metadata>
Created by potrace 1.11, written by Peter Selinger 2001-2013
</metadata>
<g transform="translate(0.000000,157.000000) scale(0.100000,-0.100000)"
fill="#000000" stroke="none">
<path d="M43 1038 c-35 -17 -43 -60 -43 -223 0 -158 9 -208 40 -225 12 -6 291
-10 748 -10 l729 0 21 23 c21 22 22 32 22 214 l0 192 -26 20 c-26 21 -33 21
-748 20 -487 0 -728 -4 -743 -11z m257 -118 c16 -8 170 -213 170 -226 0 -2
-19 -4 -42 -4 -42 0 -44 2 -96 76 l-54 75 -56 -75 c-55 -74 -57 -76 -100 -76
l-43 0 22 33 c66 94 135 183 148 194 20 15 27 16 51 3z m230 -70 c0 -91 7
-100 84 -100 69 0 86 22 86 110 l0 70 35 0 35 0 0 -75 c0 -80 -16 -127 -47
-140 -75 -32 -205 -21 -240 20 -20 23 -23 37 -23 111 l0 84 35 0 35 0 0 -80z
m440 70 c14 -8 133 -165 164 -217 5 -10 -4 -13 -36 -13 -42 0 -44 2 -96 75
-30 41 -55 75 -56 75 -2 0 -27 -34 -57 -75 -52 -74 -54 -75 -97 -75 -50 0 -54
-10 41 120 91 124 99 130 137 110z m412 0 c101 -28 120 -158 30 -204 -40 -21
-104 -28 -167 -21 -44 6 -64 14 -91 40 -29 28 -34 39 -34 79 0 77 54 113 170
115 30 1 72 -4 92 -9z"/>
<path d="M1212 854 c-14 -10 -22 -26 -22 -44 0 -42 32 -60 105 -60 73 0 105
18 105 60 0 42 -32 60 -105 60 -39 0 -69 -6 -83 -16z"/>
</g>
</svg>
