<?xml version="1.0" standalone="no"?>
<!DOCTYPE svg PUBLIC "-//W3C//DTD SVG 20010904//EN"
 "http://www.w3.org/TR/2001/REC-SVG-20010904/DTD/svg10.dtd">
<svg version="1.0" xmlns="http://www.w3.org/2000/svg"
 width="276.000000pt" height="276.000000pt" viewBox="0 0 276.000000 276.000000"
 preserveAspectRatio="xMidYMid meet">
<metadata>
Created by potrace 1.11, written by Peter Selinger 2001-2013
</metadata>
<g transform="translate(0.000000,276.000000) scale(0.100000,-0.100000)"
fill="#000000" stroke="none">
<path d="M820 1449 c0 -310 3 -326 71 -353 22 -9 60 -16 84 -16 l45 0 0 49 c0
44 -3 49 -25 55 -15 4 -30 18 -35 32 -6 14 -10 133 -10 265 l0 239 -65 0 -65
0 0 -271z"/>
<path d="M1800 1621 l0 -99 -83 5 c-106 7 -140 -8 -169 -74 -29 -66 -31 -231
-3 -288 40 -80 128 -107 210 -65 l40 21 17 -21 c13 -16 28 -20 72 -20 l56 0 0
320 0 320 -70 0 -70 0 0 -99z m-16 -197 c13 -5 16 -24 16 -110 0 -92 -2 -104
-19 -114 -29 -15 -87 -12 -101 5 -21 25 -25 144 -7 188 15 34 19 37 56 37 22
0 46 -3 55 -6z"/>
<path d="M584 1696 c-3 -8 -4 -31 -2 -52 l3 -39 68 -3 67 -3 0 56 0 55 -65 0
c-47 0 -67 -4 -71 -14z"/>
<path d="M2024 1696 c-3 -8 -4 -31 -2 -52 l3 -39 68 -3 67 -3 0 56 0 55 -65 0
c-47 0 -67 -4 -71 -14z"/>
<path d="M194 1689 c-41 -12 -74 -49 -85 -96 -5 -21 -9 -145 -9 -275 l0 -238
70 0 70 0 0 114 0 113 46 7 c26 3 80 6 120 6 l74 0 0 55 0 54 -117 3 -118 3
-3 53 c-5 80 -1 82 149 82 l129 0 0 59 0 58 -92 7 c-117 8 -195 6 -234 -5z"/>
<path d="M590 1305 l0 -225 65 0 65 0 0 225 0 225 -65 0 -65 0 0 -225z"/>
<path d="M1175 1522 c-72 -24 -98 -81 -99 -217 0 -173 42 -220 199 -220 50 0
107 4 128 8 35 7 37 10 37 47 l0 38 -101 4 c-86 2 -103 6 -115 22 -8 11 -14
28 -14 38 0 16 9 18 68 18 137 0 176 29 175 129 -1 109 -42 141 -173 140 -47
-1 -94 -4 -105 -7z m135 -92 c23 -12 35 -58 19 -76 -7 -9 -31 -14 -65 -14 -53
0 -54 0 -54 30 0 54 53 85 100 60z"/>
<path d="M2030 1305 l0 -225 65 0 65 0 0 225 0 225 -65 0 -65 0 0 -225z"/>
<path d="M2260 1305 l0 -225 65 0 65 0 0 149 c0 144 1 151 22 165 33 23 95 21
108 -3 5 -11 10 -84 10 -165 l0 -146 71 0 71 0 -4 183 c-3 158 -6 186 -22 214
-11 17 -30 36 -43 42 -39 18 -113 13 -162 -11 l-45 -22 -14 22 c-12 18 -24 22
-68 22 l-54 0 0 -225z"/>
</g>
</svg>
