<svg id="Layer_1" data-name="Layer 1" xmlns="http://www.w3.org/2000/svg" xmlns:xlink="http://www.w3.org/1999/xlink" viewBox="0 0 690.76 71.12"><defs><style>.cls-1{fill:none;}.cls-2{clip-path:url(#clip-path);}.cls-3{fill:#12c2c3;}</style><clipPath id="clip-path"><rect class="cls-1" x="0.02" y="0.18" width="690.88" height="70.76"/></clipPath></defs><g class="cls-2"><path class="cls-3" d="M676.18,69.73a88.21,88.21,0,0,0,14.72,0V1.59a97.94,97.94,0,0,0-15.32,0L653.1,36.17,630.62,1.59a100.5,100.5,0,0,0-15.52,0V69.73a88.11,88.11,0,0,0,14.71,0V23.36l18.05,28.23a44.18,44.18,0,0,0,10.28,0l18-28.23Zm-92.4-21.06c0,8.66-7.86,9.77-17.54,9.77s-17.54-1.11-17.54-9.77V22.26c0-8.77,7.86-9.78,17.54-9.78s17.54,1,17.54,9.78ZM598.5,19.43C598.5,5.12,585.59.18,566.24.18S534,5.12,534,19.43V51.69c0,14.41,12.81,19.25,32.26,19.25S598.5,66.1,598.5,51.69ZM462,52.09c0,14.32,12.91,18.85,32.76,18.85a122.72,122.72,0,0,0,25.1-3,48.71,48.71,0,0,0-1.31-11.69,125.77,125.77,0,0,1-21.37,2.21c-11.59,0-20.56-.8-20.56-9.67V22.16c0-9,9-9.68,20.56-9.68a169.85,169.85,0,0,1,21.17,1.31,44.85,44.85,0,0,0,0-11.69A142.84,142.84,0,0,0,494.78.18C474.93.18,462,4.82,462,19.13ZM433.15,69.73a68.05,68.05,0,0,0,14.41,0V53a69.4,69.4,0,0,0-14.41,0Zm-32.36,0a109.89,109.89,0,0,0,16.43,0V1.59a90.39,90.39,0,0,0-14.72,0V50l-34-48.39a107.08,107.08,0,0,0-16,0V69.73a70.9,70.9,0,0,0,14.71,0V22.46Zm-80.36,0a88.22,88.22,0,0,0,14.72,0V1.59a90.42,90.42,0,0,0-14.72,0ZM289.19,48.56c0,7.36-6.15,8.67-13.61,8.67H255.52V13.89h20.06c7.46,0,13.61,1.21,13.61,8.87ZM275.58,69.73c17.54,0,28.22-4.74,28.22-18.44V20c0-13.81-10.68-18.45-28.22-18.45H240.8V69.73Zm-50.89,0a47.31,47.31,0,0,0,0-11.89H187V41.21h36.69a45.82,45.82,0,0,0,0-11.7H187v-16h37.7a47.39,47.39,0,0,0,0-11.9H172.27V69.73Zm-66.84,0a47.31,47.31,0,0,0,0-11.89h-37.2V1.59a90.39,90.39,0,0,0-14.72,0V69.73Zm-84,0a88.22,88.22,0,0,0,14.72,0V1.59a90.42,90.42,0,0,0-14.72,0Zm-15.66,0a50.62,50.62,0,0,0,0-12.3H18L57.72,13.89a61.65,61.65,0,0,0,0-12.3H1.48a59.67,59.67,0,0,0,0,12.1H40L.47,57.43a41.56,41.56,0,0,0,0,12.3Z"/></g></svg>